<svg width="22" height="25" viewBox="0 0 22 25" fill="none" xmlns="http://www.w3.org/2000/svg">
<mask id="path-1-inside-1_247_54197" fill="white">
<path d="M0 5.44547C0 2.87845 0 1.59494 0.777534 0.797471C1.55507 0 2.80649 0 5.30933 0H15.928C18.4308 0 19.6823 0 20.4598 0.797471C21.2373 1.59494 21.2373 2.87845 21.2373 5.44547V16.3364C21.2373 20.1869 21.2373 22.1122 20.071 23.3084C18.9047 24.5046 17.0276 24.5046 13.2733 24.5046H7.964C4.20973 24.5046 2.3326 24.5046 1.1663 23.3084C0 22.1122 0 20.1869 0 16.3364V5.44547Z"/>
</mask>
<path d="M15.6007 20.4205C15.6007 19.8682 15.153 19.4205 14.6007 19.4205C14.0484 19.4205 13.6007 19.8682 13.6007 20.4205H14.6007H15.6007ZM13.6007 24.5046C13.6007 25.0569 14.0484 25.5046 14.6007 25.5046C15.1529 25.5046 15.6007 25.0569 15.6007 24.5046H14.6007H13.6007ZM5.63667 24.5046C5.63667 25.0569 6.08438 25.5046 6.63667 25.5046C7.18895 25.5046 7.63667 25.0569 7.63667 24.5046H6.63667H5.63667ZM7.63667 20.4205C7.63667 19.8682 7.18895 19.4205 6.63667 19.4205C6.08438 19.4205 5.63667 19.8682 5.63667 20.4205H6.63667H7.63667ZM6.63667 5.80684C6.08438 5.80684 5.63667 6.25455 5.63667 6.80684C5.63667 7.35912 6.08438 7.80684 6.63667 7.80684V6.80684L6.63667 5.80684ZM14.6007 7.80684C15.153 7.80684 15.6007 7.35912 15.6007 6.80684C15.6007 6.25455 15.153 5.80684 14.6007 5.80684V6.80684V7.80684ZM6.63667 11.2523C6.08438 11.2523 5.63667 11.7 5.63667 12.2523C5.63667 12.8046 6.08438 13.2523 6.63667 13.2523V12.2523L6.63667 11.2523ZM14.6007 13.2523C15.153 13.2523 15.6007 12.8046 15.6007 12.2523C15.6007 11.7 15.153 11.2523 14.6007 11.2523V12.2523V13.2523ZM14.6007 20.4205H13.6007L13.6007 24.5046H14.6007H15.6007L15.6007 20.4205H14.6007ZM6.63667 24.5046H7.63667L7.63667 20.4205H6.63667H5.63667L5.63667 24.5046H6.63667ZM6.63667 6.80684V7.80684L14.6007 7.80684V6.80684V5.80684L6.63667 5.80684L6.63667 6.80684ZM6.63667 12.2523V13.2523L14.6007 13.2523V12.2523V11.2523L6.63667 11.2523L6.63667 12.2523ZM5.30933 0V2H15.928V0V-2H5.30933V0ZM21.2373 5.44547H19.2373V16.3364H21.2373H23.2373V5.44547H21.2373ZM13.2733 24.5046V22.5046H7.964V24.5046V26.5046H13.2733V24.5046ZM0 16.3364H2V5.44547H0H-2V16.3364H0ZM7.964 24.5046V22.5046C6.02892 22.5046 4.78389 22.5002 3.86787 22.3738C3.01468 22.2562 2.75012 22.0679 2.5983 21.9122L1.1663 23.3084L-0.2657 24.7046C0.748785 25.7451 2.00594 26.1549 3.32146 26.3363C4.57414 26.5091 6.14482 26.5046 7.964 26.5046V24.5046ZM0 16.3364H-2C-2 18.2065 -2.00404 19.8053 -1.83725 21.0777C-1.66358 22.4026 -1.2733 23.6712 -0.2657 24.7046L1.1663 23.3084L2.5983 21.9122C2.4396 21.7494 2.24673 21.4573 2.12882 20.5578C2.00404 19.6059 2 18.3168 2 16.3364H0ZM21.2373 16.3364H19.2373C19.2373 18.3168 19.2333 19.6059 19.1085 20.5578C18.9906 21.4573 18.7977 21.7494 18.639 21.9122L20.071 23.3084L21.503 24.7046C22.5106 23.6712 22.9009 22.4026 23.0746 21.0777C23.2414 19.8053 23.2373 18.2065 23.2373 16.3364H21.2373ZM13.2733 24.5046V26.5046C15.0925 26.5046 16.6632 26.5091 17.9159 26.3363C19.2314 26.1549 20.4885 25.7451 21.503 24.7046L20.071 23.3084L18.639 21.9122C18.4872 22.0679 18.2227 22.2562 17.3695 22.3738C16.4534 22.5002 15.2084 22.5046 13.2733 22.5046V24.5046ZM15.928 0V2C17.2374 2 18.0131 2.00446 18.5677 2.08094C18.8207 2.11582 18.9446 2.15653 18.9981 2.1791C19.0105 2.18433 19.0184 2.18831 19.0228 2.19065C19.025 2.19184 19.0265 2.19271 19.0274 2.19323C19.0278 2.1935 19.0281 2.1937 19.0283 2.19382C19.0285 2.19394 19.0286 2.194 19.0286 2.19401C19.0286 2.19401 19.0285 2.19396 19.0284 2.19388C19.0283 2.19379 19.0281 2.19367 19.0279 2.19352C19.0275 2.19321 19.0271 2.19288 19.0268 2.19258C19.0259 2.19186 19.0262 2.19201 19.0278 2.19367L20.4598 0.797471L21.8918 -0.598729C21.0717 -1.43986 20.0682 -1.75001 19.1141 -1.88157C18.2229 -2.00446 17.1215 -2 15.928 -2V0ZM21.2373 5.44547H23.2373C23.2373 4.21712 23.2414 3.09963 23.1232 2.19794C22.9981 1.2438 22.705 0.235338 21.8918 -0.598729L20.4598 0.797471L19.0278 2.19367C19.0299 2.19584 19.0301 2.19617 19.0312 2.19791C19.0327 2.20028 19.0408 2.21324 19.0531 2.24375C19.08 2.31085 19.122 2.44991 19.1571 2.71784C19.2333 3.29903 19.2373 4.1068 19.2373 5.44547H21.2373ZM5.30933 0V-2C4.11586 -2 3.01447 -2.00446 2.12324 -1.88157C1.16917 -1.75001 0.165635 -1.43986 -0.654467 -0.598729L0.777534 0.797471L2.20953 2.19367C2.21116 2.19201 2.21145 2.19186 2.21058 2.19258C2.21022 2.19288 2.20981 2.19321 2.2094 2.19352C2.2092 2.19367 2.20903 2.19379 2.20891 2.19388C2.20878 2.19396 2.20872 2.19401 2.20872 2.19401C2.20872 2.194 2.20882 2.19394 2.20901 2.19382C2.2092 2.1937 2.20952 2.1935 2.20996 2.19323C2.21083 2.19271 2.21232 2.19184 2.21455 2.19065C2.21892 2.18831 2.22684 2.18433 2.23923 2.1791C2.29273 2.15653 2.41667 2.11582 2.66964 2.08094C3.22422 2.00446 3.99996 2 5.30933 2V0ZM0 5.44547H2C2 4.1068 2.00404 3.29902 2.08023 2.71784C2.11535 2.44991 2.15734 2.31085 2.18425 2.24375C2.19649 2.21324 2.20459 2.20028 2.20611 2.19791C2.20722 2.19617 2.20742 2.19584 2.20953 2.19367L0.777534 0.797471L-0.654467 -0.598729C-1.46768 0.235338 -1.76077 1.2438 -1.88584 2.19794C-2.00404 3.09963 -2 4.21712 -2 5.44547H0Z" fill="#FFC107" mask="url(#path-1-inside-1_247_54197)"/>
</svg>
