<svg width="74" height="79" viewBox="0 0 74 79" fill="none" xmlns="http://www.w3.org/2000/svg">
<rect x="1.18333" y="1.18284" width="68.6074" height="68.6074" rx="34.3037" fill="#FFB510"/>
<rect x="1.18333" y="1.18284" width="68.6074" height="68.6074" rx="34.3037" stroke="white" stroke-width="2.36577"/>
<mask id="mask0_286_14514" style="mask-type:luminance" maskUnits="userSpaceOnUse" x="39" y="23" width="10" height="13">
<path d="M39.8916 23.6558H48.7209V35.3105H39.8916V23.6558Z" fill="white"/>
</mask>
<g mask="url(#mask0_286_14514)">
<mask id="mask1_286_14514" style="mask-type:luminance" maskUnits="userSpaceOnUse" x="8" y="12" width="52" height="49">
<path d="M24.3063 12.7866L59.4263 30.7943L44.077 60.7285L8.95703 42.7194L24.3063 12.7866Z" fill="white"/>
</mask>
<g mask="url(#mask1_286_14514)">
<mask id="mask2_286_14514" style="mask-type:luminance" maskUnits="userSpaceOnUse" x="8" y="12" width="52" height="49">
<path d="M24.3063 12.7856L59.4263 30.7933L44.077 60.7275L8.95703 42.7184L24.3063 12.7856Z" fill="white"/>
</mask>
<g mask="url(#mask2_286_14514)">
<path d="M44.7032 24.1651C44.201 24.274 43.7554 24.5555 43.3733 24.8893C43.0298 25.1901 42.6945 25.5074 42.4131 25.8688L42.4572 25.8564C42.3289 26.0013 42.1979 26.1448 42.0723 26.291C41.7178 26.7007 41.4791 27.1905 41.2474 27.6747C40.8238 28.6556 40.4679 29.6834 40.3851 30.7553C40.3796 30.7857 40.3824 30.8146 40.392 30.8436C40.3437 31.3347 40.392 31.8466 40.581 32.306C40.89 33.044 41.4984 33.6055 42.1482 34.047C42.7014 34.4305 43.3595 34.6913 44.041 34.6858C44.6701 34.6885 45.2868 34.4774 45.8234 34.1574C46.298 33.8815 46.7229 33.5214 47.0678 33.0937C47.4651 32.5929 47.7479 32.0052 47.9176 31.3885C48.0087 31.0671 48.1094 30.7443 48.1301 30.4104C48.1853 30.2159 48.1384 30.0076 48.1632 29.8089C48.2225 29.711 48.1977 29.591 48.2087 29.482C48.2308 28.8446 48.1784 28.2059 48.0583 27.5781C47.9549 27.0222 47.8031 26.4717 47.5658 25.9558C47.272 25.3101 46.8181 24.7128 46.1849 24.3734C45.7393 24.1209 45.2012 24.0423 44.7032 24.1651ZM46.1642 24.0105C46.4097 24.1237 46.6539 24.2451 46.8719 24.4092C47.3975 24.7997 47.788 25.3501 48.0542 25.9461C48.3412 26.5848 48.5109 27.2719 48.6157 27.9644C48.7978 29.126 48.7412 30.329 48.4198 31.4617C48.2474 32.0521 47.9963 32.6247 47.6334 33.1241C47.2499 33.658 46.7464 34.1036 46.1821 34.4388C45.7544 34.6954 45.2868 34.8885 44.797 34.9879C44.2507 35.101 43.6768 35.0817 43.1415 34.923C42.5814 34.7699 42.0737 34.4705 41.6116 34.1243C40.9094 33.5986 40.2816 32.9006 40.0526 32.0356C39.8305 31.1582 39.9257 30.2338 40.1409 29.3647C40.5396 27.8223 41.2749 26.342 42.4062 25.2039C42.8201 24.79 43.2684 24.401 43.7885 24.1251C44.2383 23.8878 44.7487 23.747 45.2592 23.7815C45.5723 23.7953 45.8786 23.885 46.1642 24.0105Z" fill="white"/>
</g>
</g>
</g>
<mask id="mask3_286_14514" style="mask-type:luminance" maskUnits="userSpaceOnUse" x="42" y="24" width="7" height="7">
<path d="M42.3643 24.0085H48.3682V30.0125H42.3643V24.0085Z" fill="white"/>
</mask>
<g mask="url(#mask3_286_14514)">
<mask id="mask4_286_14514" style="mask-type:luminance" maskUnits="userSpaceOnUse" x="8" y="12" width="52" height="49">
<path d="M24.3072 12.7874L59.4272 30.795L44.078 60.7292L8.95801 42.7201L24.3072 12.7874Z" fill="white"/>
</mask>
<g mask="url(#mask4_286_14514)">
<mask id="mask5_286_14514" style="mask-type:luminance" maskUnits="userSpaceOnUse" x="8" y="12" width="52" height="49">
<path d="M24.3072 12.7878L59.4272 30.7955L44.078 60.7297L8.95801 42.7206L24.3072 12.7878Z" fill="white"/>
</mask>
<g mask="url(#mask5_286_14514)">
<path d="M44.7042 24.1658C45.2022 24.043 45.7402 24.1217 46.1858 24.3741C46.8191 24.7135 47.2743 25.3109 47.5668 25.9565C47.8027 26.4725 47.9558 27.0229 48.0593 27.5803C48.1793 28.2066 48.2318 28.8454 48.2097 29.4827C48.1986 29.5917 48.2235 29.7117 48.1642 29.8097C48.1724 28.7447 47.96 27.67 47.4771 26.7167C47.1571 26.0876 46.699 25.5192 46.1086 25.1288C45.8409 24.9632 45.5623 24.8032 45.2519 24.7328C44.8421 24.6363 44.4103 24.6997 44.0185 24.8363C43.4253 25.0432 42.8997 25.4144 42.4596 25.8572L42.4141 25.8696C42.6955 25.5082 43.0307 25.1909 43.3743 24.8901C43.7578 24.5563 44.202 24.2748 44.7042 24.1658Z" fill="white"/>
</g>
</g>
</g>
<mask id="mask6_286_14514" style="mask-type:luminance" maskUnits="userSpaceOnUse" x="40" y="24" width="9" height="10">
<path d="M40.2451 24.363H48.3681V33.5455H40.2451V24.363Z" fill="white"/>
</mask>
<g mask="url(#mask6_286_14514)">
<mask id="mask7_286_14514" style="mask-type:luminance" maskUnits="userSpaceOnUse" x="8" y="12" width="52" height="49">
<path d="M24.3072 12.7869L59.4272 30.7945L44.078 60.7287L8.95801 42.7197L24.3072 12.7869Z" fill="white"/>
</mask>
<g mask="url(#mask7_286_14514)">
<mask id="mask8_286_14514" style="mask-type:luminance" maskUnits="userSpaceOnUse" x="8" y="12" width="52" height="49">
<path d="M24.3072 12.7861L59.4272 30.7938L44.078 60.728L8.95801 42.7189L24.3072 12.7861Z" fill="white"/>
</mask>
<g mask="url(#mask8_286_14514)">
<path d="M45.48 25.1905C45.847 25.5299 46.1905 25.8968 46.4802 26.3052C47.1466 27.2226 47.5673 28.2959 47.8239 29.3955C47.8667 28.4836 47.7177 27.5372 47.2404 26.7453C46.832 26.061 46.1946 25.5313 45.48 25.1905ZM45.2524 24.7325C45.5614 24.8028 45.8415 24.9629 46.1077 25.1284C46.6996 25.5188 47.1576 26.0872 47.4763 26.7163C47.9605 27.6696 48.173 28.7443 48.1647 29.808C48.1398 30.008 48.1868 30.2163 48.1316 30.4108C48.0115 30.6509 47.9122 30.9006 47.777 31.1337C47.2293 32.1298 46.276 32.9065 45.1737 33.2017C44.5157 33.37 43.8121 33.3838 43.1513 33.2197C42.2008 32.9934 41.3537 32.385 40.8115 31.5752C40.6473 31.3462 40.5301 31.0896 40.3935 30.844C40.3838 30.8151 40.3811 30.7861 40.3866 30.7557C40.4694 29.6838 40.8253 28.656 41.2488 27.6751C41.4806 27.1909 41.7193 26.7011 42.0738 26.2914C42.1994 26.1452 42.3304 26.0017 42.4601 25.8568C42.9002 25.414 43.4258 25.0429 44.019 24.836C44.4108 24.6994 44.8426 24.6359 45.2524 24.7325Z" fill="white"/>
</g>
</g>
</g>
<mask id="mask9_286_14514" style="mask-type:luminance" maskUnits="userSpaceOnUse" x="45" y="25" width="4" height="5">
<path d="M45.1895 25.0686H48.0148V29.6599H45.1895V25.0686Z" fill="white"/>
</mask>
<g mask="url(#mask9_286_14514)">
<mask id="mask10_286_14514" style="mask-type:luminance" maskUnits="userSpaceOnUse" x="8" y="12" width="52" height="49">
<path d="M24.3063 12.7876L59.4263 30.7953L44.077 60.7294L8.95703 42.7204L24.3063 12.7876Z" fill="white"/>
</mask>
<g mask="url(#mask10_286_14514)">
<mask id="mask11_286_14514" style="mask-type:luminance" maskUnits="userSpaceOnUse" x="8" y="12" width="52" height="49">
<path d="M24.3063 12.7881L59.4263 30.7958L44.077 60.7299L8.95703 42.7209L24.3063 12.7881Z" fill="white"/>
</mask>
<g mask="url(#mask11_286_14514)">
<path d="M45.4785 25.1919C46.1931 25.5327 46.8305 26.0624 47.2389 26.7467C47.7162 27.5386 47.8652 28.485 47.8224 29.3969C47.5658 28.2973 47.1451 27.224 46.4801 26.3066C46.189 25.8982 45.8455 25.5313 45.4785 25.1919Z" fill="white"/>
</g>
</g>
</g>
<mask id="mask12_286_14514" style="mask-type:luminance" maskUnits="userSpaceOnUse" x="40" y="30" width="9" height="5">
<path d="M40.2451 30.366H48.3681V34.9572H40.2451V30.366Z" fill="white"/>
</mask>
<g mask="url(#mask12_286_14514)">
<mask id="mask13_286_14514" style="mask-type:luminance" maskUnits="userSpaceOnUse" x="8" y="12" width="52" height="49">
<path d="M24.3072 12.7864L59.4272 30.7941L44.078 60.7282L8.95801 42.7192L24.3072 12.7864Z" fill="white"/>
</mask>
<g mask="url(#mask13_286_14514)">
<mask id="mask14_286_14514" style="mask-type:luminance" maskUnits="userSpaceOnUse" x="8" y="12" width="52" height="49">
<path d="M24.3072 12.7854L59.4272 30.7931L44.078 60.7272L8.95801 42.7182L24.3072 12.7854Z" fill="white"/>
</mask>
<g mask="url(#mask14_286_14514)">
<path d="M47.7783 31.1333C47.9122 30.9002 48.0129 30.6504 48.1315 30.4104C48.1108 30.7443 48.0101 31.0671 47.9204 31.3885C47.7494 32.0052 47.4666 32.5929 47.0692 33.0937C46.7243 33.5214 46.2994 33.8814 45.8249 34.1573C45.2882 34.4774 44.6715 34.6885 44.0424 34.6857C43.3609 34.6912 42.7029 34.4305 42.1497 34.047C41.4999 33.6055 40.8915 33.044 40.5824 32.3059C40.3934 31.8465 40.3452 31.3347 40.3934 30.8436C40.53 31.0892 40.6473 31.3458 40.8115 31.5748C41.3536 32.3846 42.2007 32.993 43.1512 33.2192C43.8134 33.3834 44.5156 33.3696 45.1751 33.2013C46.276 32.9061 47.2307 32.1294 47.7783 31.1333Z" fill="white"/>
</g>
</g>
</g>
<mask id="mask15_286_14514" style="mask-type:luminance" maskUnits="userSpaceOnUse" x="28" y="19" width="12" height="11">
<path d="M28.9434 19.064H39.1854V29.6592H28.9434V19.064Z" fill="white"/>
</mask>
<g mask="url(#mask15_286_14514)">
<mask id="mask16_286_14514" style="mask-type:luminance" maskUnits="userSpaceOnUse" x="8" y="12" width="52" height="49">
<path d="M24.3063 12.7871L59.4263 30.7948L44.077 60.729L8.95703 42.7199L24.3063 12.7871Z" fill="white"/>
</mask>
<g mask="url(#mask16_286_14514)">
<mask id="mask17_286_14514" style="mask-type:luminance" maskUnits="userSpaceOnUse" x="8" y="12" width="52" height="49">
<path d="M24.3063 12.7876L59.4263 30.7953L44.077 60.7294L8.95703 42.7204L24.3063 12.7876Z" fill="white"/>
</mask>
<g mask="url(#mask17_286_14514)">
<path d="M35.9015 19.5633C35.2683 19.5909 34.6502 19.7702 34.0667 20.0103C33.1382 20.3869 32.2622 20.9084 31.5241 21.5871L31.5848 21.5788C31.4496 21.6933 31.3075 21.7996 31.1626 21.9044C31.1226 21.9375 31.0702 21.9679 31.0564 22.0231C30.8798 22.1983 30.735 22.4038 30.5805 22.5997C30.259 23.0108 29.9941 23.4689 29.8231 23.9628C29.6106 24.5601 29.543 25.2058 29.6051 25.8348C29.652 26.3232 29.761 26.813 29.9969 27.2475C30.2645 27.7649 30.695 28.1884 31.2026 28.4726C31.68 28.7402 32.2084 28.9086 32.7436 29.0189C33.3451 29.1403 33.9866 29.1265 34.5619 28.8961C34.8309 28.7927 35.0696 28.6271 35.3014 28.4574C35.4214 28.3678 35.5442 28.2808 35.649 28.1746C35.6835 28.1788 35.7015 28.1429 35.7263 28.125C35.9153 27.9291 36.1153 27.7428 36.2947 27.5372C36.8313 26.904 37.3156 26.2239 37.6853 25.4803C37.946 25.0002 38.1406 24.4856 38.2978 23.9628C38.3944 23.6468 38.4358 23.3199 38.4717 22.9929C38.5324 22.8756 38.5282 22.7418 38.5462 22.6149C38.6096 22.0907 38.6013 21.5443 38.422 21.0422C38.2813 20.6407 38.0219 20.2765 37.6715 20.0323C37.1597 19.6736 36.5196 19.5371 35.9015 19.5633ZM37.1873 19.4088C37.4563 19.5329 37.7212 19.6709 37.9571 19.853C38.4013 20.1882 38.7145 20.6835 38.8579 21.2215C39.0166 21.8161 39.0138 22.4438 38.9324 23.0508C38.76 24.4208 38.2164 25.73 37.4315 26.8613C36.8479 27.7042 36.1512 28.4961 35.2641 29.0258C34.7813 29.3197 34.2212 29.4811 33.6569 29.4935C33.0154 29.5059 32.3808 29.3597 31.7821 29.1403C31.1557 28.9141 30.5667 28.5623 30.1197 28.0656C29.7348 27.6393 29.4713 27.1137 29.3209 26.5633C29.0643 25.5769 29.0988 24.5077 29.474 23.5558C29.743 22.8453 30.2052 22.2272 30.7143 21.6713C31.4813 20.8532 32.425 20.2089 33.4486 19.7578C34.0501 19.4888 34.6806 19.2667 35.3372 19.1839C35.9594 19.1052 36.6078 19.1563 37.1873 19.4088Z" fill="white"/>
</g>
</g>
</g>
<mask id="mask18_286_14514" style="mask-type:luminance" maskUnits="userSpaceOnUse" x="31" y="19" width="8" height="5">
<path d="M31.415 19.4167H38.8317V23.3017H31.415V19.4167Z" fill="white"/>
</mask>
<g mask="url(#mask18_286_14514)">
<mask id="mask19_286_14514" style="mask-type:luminance" maskUnits="userSpaceOnUse" x="8" y="12" width="52" height="49">
<path d="M24.3063 12.7871L59.4263 30.7948L44.077 60.729L8.95703 42.7199L24.3063 12.7871Z" fill="white"/>
</mask>
<g mask="url(#mask19_286_14514)">
<mask id="mask20_286_14514" style="mask-type:luminance" maskUnits="userSpaceOnUse" x="8" y="12" width="52" height="49">
<path d="M24.3063 12.7878L59.4263 30.7955L44.077 60.7297L8.95703 42.7206L24.3063 12.7878Z" fill="white"/>
</mask>
<g mask="url(#mask20_286_14514)">
<path d="M35.9018 19.5645C36.5199 19.5369 37.16 19.6735 37.6718 20.0322C38.0222 20.2763 38.2816 20.6406 38.4223 21.042C38.6017 21.5442 38.6099 22.0905 38.5465 22.6147C38.5286 22.7417 38.5327 22.8755 38.472 22.9927C38.5092 22.5237 38.4527 22.0422 38.2664 21.609C38.1092 21.2421 37.8553 20.9165 37.5435 20.6681C37.1628 20.3895 36.7185 20.1991 36.2536 20.1218C35.6535 20.0115 35.0341 20.068 34.4436 20.2074C33.402 20.4364 32.4308 20.933 31.5851 21.5787L31.5244 21.5869C32.2625 20.9082 33.1385 20.3867 34.067 20.0101C34.6505 19.77 35.2686 19.5907 35.9018 19.5645Z" fill="white"/>
</g>
</g>
</g>
<mask id="mask21_286_14514" style="mask-type:luminance" maskUnits="userSpaceOnUse" x="30" y="19" width="9" height="10">
<path d="M30.3555 19.7712H38.8316V28.6006H30.3555V19.7712Z" fill="white"/>
</mask>
<g mask="url(#mask21_286_14514)">
<mask id="mask22_286_14514" style="mask-type:luminance" maskUnits="userSpaceOnUse" x="8" y="12" width="52" height="49">
<path d="M24.3063 12.7864L59.4263 30.7941L44.077 60.7282L8.95703 42.7192L24.3063 12.7864Z" fill="white"/>
</mask>
<g mask="url(#mask22_286_14514)">
<mask id="mask23_286_14514" style="mask-type:luminance" maskUnits="userSpaceOnUse" x="8" y="12" width="52" height="49">
<path d="M24.3063 12.7856L59.4263 30.7933L44.077 60.7275L8.95703 42.7184L24.3063 12.7856Z" fill="white"/>
</mask>
<g mask="url(#mask23_286_14514)">
<path d="M35.2407 20.5423C34.6489 20.5036 34.0653 20.6857 33.5397 20.9465C33.0996 21.1713 32.6871 21.4514 32.3091 21.7687C32.7175 21.5728 33.1327 21.3893 33.5618 21.2458C34.5247 20.9244 35.5773 20.7644 36.5761 21.0141C36.1788 20.7519 35.7222 20.5602 35.2407 20.5423ZM36.2533 20.1201C36.7182 20.1974 37.1625 20.3877 37.5432 20.6664C37.855 20.9147 38.1089 21.2403 38.2661 21.6073C38.4538 22.0405 38.5089 22.5233 38.4717 22.991C38.4358 23.318 38.3944 23.6449 38.2979 23.9609C38.1406 24.4837 37.9461 24.9983 37.6853 25.4784C37.3156 26.222 36.8314 26.9021 36.2947 27.5354C36.1154 27.7409 35.9153 27.9272 35.7263 28.1231C35.7015 28.141 35.6836 28.1769 35.6491 28.1727C35.5525 28.1727 35.4573 28.1838 35.3635 28.2086C34.7303 28.3534 34.0653 28.2679 33.4597 28.0527C32.3257 27.6637 31.4096 26.76 30.9005 25.6867C30.7143 25.2577 30.5805 24.8024 30.5446 24.3347C30.4908 23.7636 30.5805 23.18 30.786 22.6447C30.8578 22.4281 30.9888 22.2378 31.0564 22.0212C31.0702 21.966 31.1227 21.9356 31.1627 21.9025C31.3075 21.7977 31.4496 21.6914 31.5848 21.5769C32.4305 20.9313 33.4017 20.4346 34.4433 20.2056C35.0338 20.0649 35.6532 20.0097 36.2533 20.1201Z" fill="white"/>
</g>
</g>
</g>
<mask id="mask24_286_14514" style="mask-type:luminance" maskUnits="userSpaceOnUse" x="32" y="20" width="5" height="2">
<path d="M32.1221 20.4771H36.7133V21.8897H32.1221V20.4771Z" fill="white"/>
</mask>
<g mask="url(#mask24_286_14514)">
<mask id="mask25_286_14514" style="mask-type:luminance" maskUnits="userSpaceOnUse" x="8" y="12" width="52" height="49">
<path d="M24.3063 12.7876L59.4263 30.7953L44.077 60.7294L8.95703 42.7204L24.3063 12.7876Z" fill="white"/>
</mask>
<g mask="url(#mask25_286_14514)">
<mask id="mask26_286_14514" style="mask-type:luminance" maskUnits="userSpaceOnUse" x="8" y="12" width="52" height="49">
<path d="M24.3063 12.7881L59.4263 30.7958L44.077 60.7299L8.95703 42.7209L24.3063 12.7881Z" fill="white"/>
</mask>
<g mask="url(#mask26_286_14514)">
<path d="M35.2412 20.5442C35.7227 20.5622 36.1793 20.7539 36.5766 21.016C35.5778 20.7663 34.5252 20.9264 33.5622 21.2478C33.1332 21.3913 32.7179 21.5734 32.3096 21.7707C32.6876 21.452 33.1001 21.1733 33.5402 20.9484C34.0658 20.6877 34.6493 20.5056 35.2412 20.5442Z" fill="white"/>
</g>
</g>
</g>
<mask id="mask27_286_14514" style="mask-type:luminance" maskUnits="userSpaceOnUse" x="29" y="21" width="7" height="9">
<path d="M29.2969 21.8882H35.654V29.3048H29.2969V21.8882Z" fill="white"/>
</mask>
<g mask="url(#mask27_286_14514)">
<mask id="mask28_286_14514" style="mask-type:luminance" maskUnits="userSpaceOnUse" x="8" y="12" width="52" height="49">
<path d="M24.3072 12.7869L59.4272 30.7945L44.078 60.7287L8.95801 42.7197L24.3072 12.7869Z" fill="white"/>
</mask>
<g mask="url(#mask28_286_14514)">
<mask id="mask29_286_14514" style="mask-type:luminance" maskUnits="userSpaceOnUse" x="8" y="12" width="52" height="49">
<path d="M24.3072 12.7874L59.4272 30.795L44.078 60.7292L8.95801 42.7201L24.3072 12.7874Z" fill="white"/>
</mask>
<g mask="url(#mask29_286_14514)">
<path d="M31.0574 22.0222C30.9898 22.2388 30.8587 22.4292 30.787 22.6458C30.5814 23.1811 30.4918 23.7646 30.5456 24.3358C30.5814 24.8035 30.7153 25.2587 30.9015 25.6878C31.4106 26.7611 32.3266 27.6647 33.4606 28.0537C34.0663 28.269 34.7312 28.3545 35.3644 28.2096C35.4583 28.1848 35.5534 28.1738 35.65 28.1738C35.5452 28.28 35.4224 28.3669 35.3024 28.4566C35.0706 28.6263 34.8319 28.7918 34.5629 28.8953C33.9876 29.1257 33.3461 29.1395 32.7446 29.0181C32.2093 28.9077 31.681 28.7394 31.2036 28.4718C30.6959 28.1876 30.2655 27.764 29.9965 27.2467C29.762 26.8121 29.653 26.3224 29.6061 25.834C29.544 25.2049 29.6116 24.5593 29.824 23.9619C29.9951 23.468 30.26 23.0114 30.5814 22.5989C30.7359 22.403 30.8808 22.1974 31.0574 22.0222Z" fill="white"/>
</g>
</g>
</g>
<mask id="mask30_286_14514" style="mask-type:luminance" maskUnits="userSpaceOnUse" x="17" y="21" width="10" height="11">
<path d="M17.6416 21.8877H26.4709V31.7765H17.6416V21.8877Z" fill="white"/>
</mask>
<g mask="url(#mask30_286_14514)">
<mask id="mask31_286_14514" style="mask-type:luminance" maskUnits="userSpaceOnUse" x="8" y="12" width="52" height="49">
<path d="M24.3063 12.7861L59.4263 30.7938L44.077 60.728L8.95703 42.7189L24.3063 12.7861Z" fill="white"/>
</mask>
<g mask="url(#mask31_286_14514)">
<mask id="mask32_286_14514" style="mask-type:luminance" maskUnits="userSpaceOnUse" x="8" y="12" width="52" height="49">
<path d="M24.3063 12.7866L59.4263 30.7943L44.077 60.7285L8.95703 42.7194L24.3063 12.7866Z" fill="white"/>
</mask>
<g mask="url(#mask32_286_14514)">
<path d="M22.1349 22.6722C21.6217 22.595 21.0851 22.6281 20.5981 22.8198C20.0173 23.0364 19.493 23.4255 19.1592 23.9525C18.904 24.3332 18.7839 24.783 18.686 25.2258C18.6653 25.3334 18.6239 25.4424 18.6418 25.5542C18.4183 26.6013 18.3383 27.6815 18.428 28.7493C18.4735 29.2556 18.6129 29.766 18.9122 30.1827C19.1012 30.4572 19.3551 30.6848 19.6393 30.8587C20.107 31.1429 20.6864 31.2339 21.2217 31.118C21.8038 30.9966 22.3253 30.6862 22.7985 30.3344C23.1296 30.0889 23.4676 29.853 23.7753 29.5784C23.7822 29.577 23.7973 29.5743 23.8042 29.5729C24.0664 29.3301 24.3326 29.0942 24.5892 28.8459C24.9672 28.4485 25.3576 28.0485 25.6115 27.556C25.7081 27.338 25.7922 27.1103 25.8377 26.8758C25.875 26.6647 25.9109 26.4468 25.8529 26.2371C25.8598 26.2164 25.8736 26.1764 25.8805 26.1557C25.8888 25.7639 25.8115 25.3693 25.6446 25.0134C25.3494 24.3636 24.7962 23.8697 24.2016 23.4945C23.5656 23.1096 22.8772 22.7826 22.1349 22.6722ZM23.4345 22.6239C23.9601 22.8626 24.4761 23.1344 24.9258 23.4986C25.468 23.9249 25.9302 24.4795 26.1509 25.1403C26.3178 25.6576 26.3675 26.2136 26.2944 26.753C26.1992 27.469 25.8626 28.134 25.417 28.6941C24.7023 29.5591 23.8553 30.3151 22.9116 30.9235C22.4716 31.2187 21.9859 31.4629 21.4631 31.5692C20.9968 31.6671 20.507 31.6505 20.0518 31.5098C19.431 31.3222 18.8474 30.9608 18.4708 30.4227C18.0859 29.8736 17.9189 29.199 17.8844 28.5368C17.8472 27.4925 17.8969 26.4399 18.0983 25.4135C18.1962 24.9541 18.3052 24.4905 18.5232 24.0711C18.8267 23.4751 19.3302 22.9923 19.918 22.6778C20.3277 22.4556 20.7719 22.2818 21.2382 22.2335C21.9901 22.1521 22.7461 22.3315 23.4345 22.6239Z" fill="white"/>
</g>
</g>
</g>
<mask id="mask33_286_14514" style="mask-type:luminance" maskUnits="userSpaceOnUse" x="18" y="22" width="9" height="5">
<path d="M18.3477 22.5947H26.1175V26.4796H18.3477V22.5947Z" fill="white"/>
</mask>
<g mask="url(#mask33_286_14514)">
<mask id="mask34_286_14514" style="mask-type:luminance" maskUnits="userSpaceOnUse" x="8" y="12" width="52" height="49">
<path d="M24.3063 12.7866L59.4263 30.7943L44.077 60.7285L8.95703 42.7194L24.3063 12.7866Z" fill="white"/>
</mask>
<g mask="url(#mask34_286_14514)">
<mask id="mask35_286_14514" style="mask-type:luminance" maskUnits="userSpaceOnUse" x="8" y="12" width="52" height="49">
<path d="M24.3063 12.7871L59.4263 30.7948L44.077 60.729L8.95703 42.7199L24.3063 12.7871Z" fill="white"/>
</mask>
<g mask="url(#mask35_286_14514)">
<path d="M22.1352 22.673C22.8774 22.7833 23.5658 23.1103 24.2018 23.4952C24.7964 23.8705 25.3496 24.3643 25.6448 25.0141C25.8118 25.3701 25.889 25.7646 25.8808 26.1564C25.8739 26.1771 25.8601 26.2171 25.8532 26.2378C25.7304 25.6763 25.4489 25.1507 25.0406 24.7451C24.4101 24.1119 23.5782 23.7284 22.745 23.44C22.1987 23.2441 21.6054 23.1503 21.0288 23.2496C20.4024 23.3559 19.8161 23.6856 19.3981 24.1657C19.2008 24.3892 19.0367 24.6416 18.9028 24.9093C18.7994 25.1176 18.7111 25.3328 18.6421 25.5549C18.6242 25.4432 18.6655 25.3342 18.6862 25.2266C18.7842 24.7837 18.9042 24.334 19.1594 23.9532C19.4933 23.4262 20.0175 23.0372 20.5983 22.8206C21.0853 22.6288 21.622 22.5957 22.1352 22.673Z" fill="white"/>
</g>
</g>
</g>
<mask id="mask36_286_14514" style="mask-type:luminance" maskUnits="userSpaceOnUse" x="18" y="22" width="9" height="9">
<path d="M18.7012 22.9475H26.1178V30.011H18.7012V22.9475Z" fill="white"/>
</mask>
<g mask="url(#mask36_286_14514)">
<mask id="mask37_286_14514" style="mask-type:luminance" maskUnits="userSpaceOnUse" x="8" y="12" width="52" height="49">
<path d="M24.3063 12.7866L59.4263 30.7943L44.077 60.7285L8.95703 42.7194L24.3063 12.7866Z" fill="white"/>
</mask>
<g mask="url(#mask37_286_14514)">
<mask id="mask38_286_14514" style="mask-type:luminance" maskUnits="userSpaceOnUse" x="8" y="12" width="52" height="49">
<path d="M24.3063 12.7871L59.4263 30.7948L44.077 60.729L8.95703 42.7199L24.3063 12.7871Z" fill="white"/>
</mask>
<g mask="url(#mask38_286_14514)">
<path d="M20.9717 23.6764C20.3357 23.8654 19.8156 24.3221 19.4183 24.8394C20.035 24.4559 20.6999 24.1289 21.4187 23.9993C22.0574 23.8696 22.7238 23.9123 23.3432 24.1124C22.652 23.6737 21.776 23.4253 20.9717 23.6764ZM22.7445 23.4391C23.5777 23.7275 24.4096 24.111 25.0401 24.7442C25.4485 25.1498 25.7299 25.6754 25.8527 26.2369C25.9106 26.4466 25.8747 26.6646 25.8375 26.8757C25.792 27.1102 25.7078 27.3378 25.6112 27.5558C25.3574 28.0483 24.967 28.4484 24.589 28.8457C24.3324 29.094 24.0661 29.33 23.804 29.5728C23.7971 29.5741 23.7819 29.5769 23.775 29.5783C23.6122 29.6045 23.4729 29.6997 23.3184 29.7494C22.87 29.8956 22.3885 29.9618 21.9222 29.8846C21.2435 29.8045 20.6241 29.4417 20.1591 28.9506C19.4459 28.1973 19.072 27.1806 18.9575 26.1624C18.923 25.8755 18.912 25.5858 18.9217 25.2961C18.9272 25.1664 18.9244 25.0367 18.9023 24.9084C19.0362 24.6408 19.2003 24.3883 19.3976 24.1648C19.8156 23.6847 20.4019 23.355 21.0283 23.2488C21.6049 23.1494 22.1982 23.2432 22.7445 23.4391Z" fill="white"/>
</g>
</g>
</g>
<mask id="mask39_286_14514" style="mask-type:luminance" maskUnits="userSpaceOnUse" x="19" y="23" width="5" height="3">
<path d="M19.4072 23.3003H23.6453V25.0662H19.4072V23.3003Z" fill="white"/>
</mask>
<g mask="url(#mask39_286_14514)">
<mask id="mask40_286_14514" style="mask-type:luminance" maskUnits="userSpaceOnUse" x="8" y="12" width="52" height="49">
<path d="M24.3063 12.7864L59.4263 30.7941L44.077 60.7282L8.95703 42.7192L24.3063 12.7864Z" fill="white"/>
</mask>
<g mask="url(#mask40_286_14514)">
<mask id="mask41_286_14514" style="mask-type:luminance" maskUnits="userSpaceOnUse" x="8" y="12" width="52" height="49">
<path d="M24.3063 12.7869L59.4263 30.7945L44.077 60.7287L8.95703 42.7197L24.3063 12.7869Z" fill="white"/>
</mask>
<g mask="url(#mask41_286_14514)">
<path d="M20.9714 23.6772C21.7757 23.4261 22.6517 23.6744 23.3429 24.1131C22.7234 23.9131 22.0571 23.8703 21.4184 24C20.6996 24.1297 20.0346 24.4566 19.418 24.8402C19.8153 24.3228 20.3354 23.8662 20.9714 23.6772Z" fill="white"/>
</g>
</g>
</g>
<mask id="mask42_286_14514" style="mask-type:luminance" maskUnits="userSpaceOnUse" x="18" y="24" width="6" height="8">
<path d="M18.3477 24.7136H23.9984V31.4239H18.3477V24.7136Z" fill="white"/>
</mask>
<g mask="url(#mask42_286_14514)">
<mask id="mask43_286_14514" style="mask-type:luminance" maskUnits="userSpaceOnUse" x="8" y="12" width="52" height="49">
<path d="M24.3063 12.7869L59.4263 30.7945L44.077 60.7287L8.95703 42.7197L24.3063 12.7869Z" fill="white"/>
</mask>
<g mask="url(#mask43_286_14514)">
<mask id="mask44_286_14514" style="mask-type:luminance" maskUnits="userSpaceOnUse" x="8" y="12" width="52" height="49">
<path d="M24.3063 12.7874L59.4263 30.795L44.077 60.7292L8.95703 42.7201L24.3063 12.7874Z" fill="white"/>
</mask>
<g mask="url(#mask44_286_14514)">
<path d="M18.9022 24.9089C18.9243 25.0372 18.9271 25.1669 18.9215 25.2966C18.9119 25.5863 18.9229 25.876 18.9574 26.163C19.0719 27.1811 19.4458 28.1979 20.159 28.9511C20.6239 29.4422 21.2434 29.8051 21.9221 29.8851C22.3884 29.9623 22.8699 29.8961 23.3183 29.7499C23.4728 29.7002 23.6121 29.605 23.7749 29.5788C23.4673 29.8534 23.1293 30.0893 22.7982 30.3348C22.325 30.6866 21.8035 30.997 21.2213 31.1184C20.686 31.2343 20.1066 31.1433 19.6389 30.8591C19.3547 30.6852 19.1009 30.4576 18.9119 30.1831C18.6125 29.7664 18.4732 29.256 18.4276 28.7497C18.338 27.6819 18.418 26.6017 18.6415 25.5546C18.7105 25.3325 18.7987 25.1173 18.9022 24.9089Z" fill="white"/>
</g>
</g>
</g>
<mask id="mask45_286_14514" style="mask-type:luminance" maskUnits="userSpaceOnUse" x="45" y="36" width="10" height="10">
<path d="M45.1895 36.3708H54.0188V45.9065H45.1895V36.3708Z" fill="white"/>
</mask>
<g mask="url(#mask45_286_14514)">
<mask id="mask46_286_14514" style="mask-type:luminance" maskUnits="userSpaceOnUse" x="8" y="12" width="52" height="49">
<path d="M24.3063 12.7869L59.4263 30.7945L44.077 60.7287L8.95703 42.7197L24.3063 12.7869Z" fill="white"/>
</mask>
<g mask="url(#mask46_286_14514)">
<mask id="mask47_286_14514" style="mask-type:luminance" maskUnits="userSpaceOnUse" x="8" y="12" width="52" height="49">
<path d="M24.3063 12.7859L59.4263 30.7936L44.077 60.7277L8.95703 42.7187L24.3063 12.7859Z" fill="white"/>
</mask>
<g mask="url(#mask47_286_14514)">
<mask id="mask48_286_14514" style="mask-type:luminance" maskUnits="userSpaceOnUse" x="43" y="35" width="13" height="13">
<path d="M47.7991 35.1902L55.2199 38.9951L50.8798 47.4616L43.459 43.6567L47.7991 35.1902Z" fill="white"/>
</mask>
<g mask="url(#mask48_286_14514)">
<path d="M49.1515 36.9045C48.6328 36.9238 48.1293 37.1059 47.6892 37.3749C47.645 37.4053 47.5857 37.4287 47.576 37.4894C47.3153 37.6205 47.1153 37.8467 46.9359 38.0702C46.6435 38.4482 46.4862 38.9062 46.3827 39.367C46.2296 39.9796 46.1744 40.6086 46.1109 41.2336C46.1137 41.2391 46.1192 41.2515 46.122 41.257C46.0764 41.7634 46.0833 42.2752 46.093 42.7842C46.1165 43.3278 46.2241 43.8838 46.5152 44.3514C46.8131 44.8357 47.3057 45.1944 47.8589 45.3254C48.4466 45.4855 49.0812 45.3848 49.6247 45.1226C50.0565 44.9102 50.4456 44.6232 50.8332 44.3404C51.3782 43.9265 51.8997 43.4754 52.3494 42.9608C52.4225 42.9125 52.4584 42.827 52.5108 42.7594C52.5605 42.7511 52.5881 42.7042 52.6212 42.6711C52.9178 42.3248 53.173 41.9386 53.3386 41.5136C53.5441 40.9991 53.5993 40.4265 53.5055 39.8816C53.4103 39.3794 53.1592 38.9145 52.8171 38.5393C52.3122 37.9847 51.6541 37.597 50.9753 37.2921C50.4042 37.0369 49.7792 36.881 49.1515 36.9045ZM51.0416 36.8755C51.6665 37.1514 52.2777 37.4798 52.7909 37.9378C53.271 38.353 53.6641 38.8883 53.8449 39.5022C54.0146 40.0913 54.0421 40.7231 53.9042 41.3219C53.7635 41.9372 53.4503 42.5014 53.0585 42.9898C52.2763 43.9307 51.3354 44.7377 50.2897 45.3737C49.8124 45.6524 49.2798 45.8538 48.7252 45.8911C48.1679 45.9338 47.605 45.7931 47.1153 45.5296C46.5841 45.2689 46.1482 44.8205 45.8999 44.2838C45.6308 43.7196 45.5453 43.0891 45.5398 42.4697C45.5246 41.2957 45.6074 40.1092 45.9343 38.9766C46.0985 38.4068 46.4062 37.8743 46.8449 37.4729C47.2532 37.0907 47.7582 36.8231 48.2838 36.6382C49.1888 36.3375 50.1821 36.5113 51.0416 36.8755Z" fill="white"/>
</g>
</g>
</g>
</g>
<mask id="mask49_286_14514" style="mask-type:luminance" maskUnits="userSpaceOnUse" x="47" y="36" width="7" height="8">
<path d="M47.3086 36.7234H53.6657V43.0805H47.3086V36.7234Z" fill="white"/>
</mask>
<g mask="url(#mask49_286_14514)">
<mask id="mask50_286_14514" style="mask-type:luminance" maskUnits="userSpaceOnUse" x="8" y="12" width="52" height="49">
<path d="M24.3072 12.7876L59.4272 30.7953L44.078 60.7294L8.95801 42.7204L24.3072 12.7876Z" fill="white"/>
</mask>
<g mask="url(#mask50_286_14514)">
<mask id="mask51_286_14514" style="mask-type:luminance" maskUnits="userSpaceOnUse" x="8" y="12" width="52" height="49">
<path d="M24.3072 12.7881L59.4272 30.7958L44.078 60.7299L8.95801 42.7209L24.3072 12.7881Z" fill="white"/>
</mask>
<g mask="url(#mask51_286_14514)">
<path d="M49.1526 36.9069C49.7803 36.8834 50.4053 37.0393 50.9764 37.2945C51.6552 37.5994 52.3133 37.9871 52.8182 38.5417C53.1603 38.9169 53.4114 39.3818 53.5066 39.884C53.6004 40.4289 53.5452 41.0015 53.3397 41.516C53.1741 41.941 52.9189 42.3272 52.6223 42.6735C52.5892 42.7066 52.5616 42.7535 52.5119 42.7618C52.8196 42.2983 53.0665 41.7795 53.1313 41.2222C53.2058 40.6483 53.1038 40.0496 52.8237 39.5405C52.5699 39.07 52.1836 38.681 51.7462 38.3761C51.1158 37.9264 50.4301 37.5277 49.6755 37.329C49.1871 37.2021 48.667 37.169 48.1731 37.289C47.969 37.3359 47.7703 37.409 47.5771 37.4918C47.5868 37.4311 47.6461 37.4077 47.6903 37.3773C48.1304 37.1083 48.6339 36.9262 49.1526 36.9069Z" fill="white"/>
</g>
</g>
</g>
<mask id="mask52_286_14514" style="mask-type:luminance" maskUnits="userSpaceOnUse" x="45" y="37" width="9" height="8">
<path d="M45.8955 37.0762H53.3121V44.4928H45.8955V37.0762Z" fill="white"/>
</mask>
<g mask="url(#mask52_286_14514)">
<mask id="mask53_286_14514" style="mask-type:luminance" maskUnits="userSpaceOnUse" x="8" y="12" width="52" height="49">
<path d="M24.3063 12.7864L59.4263 30.7941L44.077 60.7282L8.95703 42.7192L24.3063 12.7864Z" fill="white"/>
</mask>
<g mask="url(#mask53_286_14514)">
<mask id="mask54_286_14514" style="mask-type:luminance" maskUnits="userSpaceOnUse" x="8" y="12" width="52" height="49">
<path d="M24.3063 12.7854L59.4263 30.7931L44.077 60.7272L8.95703 42.7182L24.3063 12.7854Z" fill="white"/>
</mask>
<g mask="url(#mask54_286_14514)">
<path d="M51.7666 38.8733C52.0881 39.5382 52.3336 40.2515 52.3902 40.9923C52.4302 41.4724 52.3764 41.9553 52.2591 42.4216C52.513 42.0781 52.6896 41.6807 52.7875 41.2669C52.8717 40.8682 52.8193 40.4529 52.6923 40.068C52.5364 39.5755 52.1709 39.1796 51.7666 38.8733ZM49.6738 37.3268C50.4284 37.5254 51.1141 37.9241 51.7446 38.3739C52.1819 38.6788 52.5668 39.0678 52.822 39.5382C53.1021 40.0473 53.2042 40.646 53.131 41.22C53.0648 41.7773 52.8179 42.296 52.5102 42.7596C52.4578 42.8272 52.4219 42.9127 52.3488 42.961C52.1557 43.0603 51.9819 43.1914 51.7942 43.3017C51.259 43.637 50.6712 43.8908 50.0587 44.0453C49.4696 44.1778 48.8447 44.1805 48.2639 44.0081C47.5975 43.808 47.0264 43.3362 46.6774 42.7375C46.4483 42.3402 46.2745 41.907 46.1917 41.4545C46.178 41.3855 46.1531 41.3193 46.1214 41.2572C46.1186 41.2503 46.1131 41.2393 46.1104 41.2337C46.1738 40.6088 46.2304 39.9797 46.3821 39.3672C46.4856 38.9064 46.6429 38.4484 46.9353 38.0704C47.1147 37.8469 47.3147 37.6206 47.5755 37.4896C47.7686 37.4068 47.9659 37.3337 48.1714 37.2868C48.6653 37.1667 49.1854 37.1999 49.6738 37.3268Z" fill="white"/>
</g>
</g>
</g>
<mask id="mask55_286_14514" style="mask-type:luminance" maskUnits="userSpaceOnUse" x="51" y="38" width="2" height="5">
<path d="M51.5469 38.8416H52.9596V42.7265H51.5469V38.8416Z" fill="white"/>
</mask>
<g mask="url(#mask55_286_14514)">
<mask id="mask56_286_14514" style="mask-type:luminance" maskUnits="userSpaceOnUse" x="8" y="12" width="52" height="49">
<path d="M24.3072 12.7866L59.4272 30.7943L44.078 60.7285L8.95801 42.7194L24.3072 12.7866Z" fill="white"/>
</mask>
<g mask="url(#mask56_286_14514)">
<mask id="mask57_286_14514" style="mask-type:luminance" maskUnits="userSpaceOnUse" x="8" y="12" width="52" height="49">
<path d="M24.3072 12.7859L59.4272 30.7936L44.078 60.7277L8.95801 42.7187L24.3072 12.7859Z" fill="white"/>
</mask>
<g mask="url(#mask57_286_14514)">
<path d="M51.7676 38.874C52.1718 39.1803 52.5374 39.5762 52.6933 40.0701C52.8202 40.4536 52.8726 40.8689 52.7885 41.2676C52.6905 41.6815 52.5139 42.0788 52.2601 42.4223C52.3774 41.956 52.4312 41.4732 52.3911 40.9931C52.3346 40.2522 52.089 39.539 51.7676 38.874Z" fill="white"/>
</g>
</g>
</g>
<mask id="mask58_286_14514" style="mask-type:luminance" maskUnits="userSpaceOnUse" x="45" y="40" width="8" height="6">
<path d="M45.8955 40.9604H52.6058V45.5517H45.8955V40.9604Z" fill="white"/>
</mask>
<g mask="url(#mask58_286_14514)">
<mask id="mask59_286_14514" style="mask-type:luminance" maskUnits="userSpaceOnUse" x="8" y="12" width="52" height="49">
<path d="M24.3063 12.7861L59.4263 30.7938L44.077 60.728L8.95703 42.7189L24.3063 12.7861Z" fill="white"/>
</mask>
<g mask="url(#mask59_286_14514)">
<mask id="mask60_286_14514" style="mask-type:luminance" maskUnits="userSpaceOnUse" x="8" y="12" width="52" height="49">
<path d="M24.3063 12.7854L59.4263 30.7931L44.077 60.7272L8.95703 42.7182L24.3063 12.7854Z" fill="white"/>
</mask>
<g mask="url(#mask60_286_14514)">
<path d="M51.7948 43.3016C51.9825 43.1913 52.1563 43.0602 52.3494 42.9609C51.8997 43.4754 51.3782 43.9266 50.8333 44.3404C50.4456 44.6233 50.0566 44.9102 49.6248 45.1227C49.0812 45.3848 48.4466 45.4855 47.8589 45.3255C47.3057 45.1944 46.8132 44.8357 46.5152 44.3515C46.2241 43.8852 46.1165 43.3278 46.093 42.7843C46.0834 42.2752 46.0765 41.7634 46.122 41.2571C46.1537 41.3192 46.1772 41.3854 46.1924 41.4544C46.2751 41.9069 46.449 42.3401 46.6794 42.7374C47.027 43.3361 47.5982 43.8079 48.2645 44.008C48.8453 44.1804 49.4702 44.1777 50.0579 44.0452C50.6719 43.8907 51.2596 43.6369 51.7948 43.3016Z" fill="white"/>
</g>
</g>
</g>
<mask id="mask61_286_14514" style="mask-type:luminance" maskUnits="userSpaceOnUse" x="19" y="31" width="26" height="21">
<path d="M19.4072 31.4243H44.4825V51.9083H19.4072V31.4243Z" fill="white"/>
</mask>
<g mask="url(#mask61_286_14514)">
<mask id="mask62_286_14514" style="mask-type:luminance" maskUnits="userSpaceOnUse" x="8" y="12" width="52" height="49">
<path d="M24.3063 12.7871L59.4263 30.7948L44.077 60.729L8.95703 42.7199L24.3063 12.7871Z" fill="white"/>
</mask>
<g mask="url(#mask62_286_14514)">
<mask id="mask63_286_14514" style="mask-type:luminance" maskUnits="userSpaceOnUse" x="8" y="12" width="52" height="49">
<path d="M24.3063 12.7876L59.4263 30.7953L44.077 60.7294L8.95703 42.7204L24.3063 12.7876Z" fill="white"/>
</mask>
<g mask="url(#mask63_286_14514)">
<mask id="mask64_286_14514" style="mask-type:luminance" maskUnits="userSpaceOnUse" x="15" y="29" width="32" height="29">
<path d="M23.6721 29.0552L46.9194 40.9761L38.326 57.7325L15.0801 45.8116L23.6721 29.0552Z" fill="white"/>
</mask>
<g mask="url(#mask64_286_14514)">
<path d="M28.698 32.2736C28.6511 32.2584 28.6028 32.2543 28.5545 32.2571C28.2055 32.1315 27.8426 32.0336 27.4702 32.0322C26.681 32.0018 25.9071 32.2046 25.1649 32.4502C24.5813 32.6323 24.0281 32.9 23.5025 33.209C23.4694 33.2297 23.4335 33.249 23.4087 33.2807C23.199 33.3856 23.0155 33.5346 22.8237 33.6711C21.9491 34.3444 21.2055 35.2052 20.7378 36.2109C20.2481 37.2649 20.0246 38.4486 20.1184 39.6089C20.1818 40.5277 20.444 41.4244 20.8275 42.259C21.32 43.3241 22.047 44.2663 22.8817 45.0858C23.417 45.6018 23.9343 46.1357 24.4323 46.6875C25.1718 47.5318 25.8657 48.4271 26.3996 49.4191C26.6866 49.9364 26.9238 50.4772 27.1598 51.0166C28.1103 50.6979 29.1132 50.5641 30.1134 50.5489C31.4033 50.531 32.6891 50.68 33.9583 50.8994C34.5957 51.0194 35.24 51.1104 35.8884 51.1311C36.9244 51.1725 37.966 51.0263 38.951 50.7076C39.1373 50.6441 39.3359 50.611 39.5112 50.5158L39.4656 50.502C40.5279 50.0578 41.4895 49.3556 42.2027 48.4478C42.5959 47.9208 42.9615 47.3593 43.1684 46.7303C43.2319 46.6199 43.2719 46.4999 43.3105 46.3798C43.8348 44.7754 43.7423 43.0095 43.1864 41.4271C42.8856 40.4808 42.3227 39.6254 41.5874 38.9618C40.6162 38.0761 39.347 37.5257 38.0378 37.4126C36.8568 37.3119 35.6511 37.5864 34.6192 38.1658C34.1128 38.4445 33.6645 38.8115 33.1858 39.1329C33.1554 38.4748 33.2065 37.8099 33.0947 37.1573C32.9305 36.073 32.4587 35.0342 31.751 34.1968C30.9619 33.2642 29.8775 32.5882 28.698 32.2736ZM28.0027 31.719C28.6939 31.8239 29.3767 32.0101 30.0086 32.3136C31.0888 32.8227 32.0531 33.6022 32.7333 34.5886C33.3693 35.5074 33.79 36.5793 33.9225 37.6912C35.1737 37.0028 36.643 36.7159 38.0598 36.8938C39.4629 37.0842 40.8149 37.6954 41.8578 38.6569C42.3131 39.0667 42.7173 39.5357 43.0401 40.0572C43.5575 40.8932 43.8748 41.841 44.0679 42.8012C44.3273 44.1187 44.2638 45.5079 43.8389 46.7854C43.4305 48.0188 42.6676 49.1307 41.6619 49.9543C40.859 50.64 39.8919 51.1118 38.889 51.4236C37.2569 51.9037 35.509 51.8775 33.8562 51.5229C32.6063 51.2994 31.3385 51.1366 30.0665 51.156C29.3892 51.1739 28.709 51.2442 28.051 51.4167C27.6274 51.5202 27.2218 51.6816 26.8121 51.8278C26.6121 51.3367 26.4272 50.84 26.1982 50.3613C25.9085 49.7446 25.5705 49.15 25.1759 48.5941C24.4378 47.5594 23.5646 46.6295 22.654 45.7466C21.6097 44.7919 20.7212 43.651 20.1432 42.3556C19.8038 41.5872 19.5693 40.7691 19.4727 39.9331C19.3555 38.937 19.4562 37.9189 19.7445 36.9587C20.0908 35.804 20.7626 34.7555 21.6373 33.9264C22.5161 33.0696 23.6129 32.4571 24.7731 32.0708C25.2311 31.9232 25.6974 31.788 26.1747 31.719C26.779 31.6335 27.397 31.6294 28.0027 31.719Z" fill="white"/>
</g>
</g>
</g>
</g>
<mask id="mask65_286_14514" style="mask-type:luminance" maskUnits="userSpaceOnUse" x="21" y="34" width="21" height="17">
<path d="M21.1729 34.6033H41.6569V50.1429H21.1729V34.6033Z" fill="white"/>
</mask>
<g mask="url(#mask65_286_14514)">
<mask id="mask66_286_14514" style="mask-type:luminance" maskUnits="userSpaceOnUse" x="8" y="12" width="52" height="49">
<path d="M24.3063 12.7871L59.4263 30.7948L44.077 60.729L8.95703 42.7199L24.3063 12.7871Z" fill="white"/>
</mask>
<g mask="url(#mask66_286_14514)">
<mask id="mask67_286_14514" style="mask-type:luminance" maskUnits="userSpaceOnUse" x="8" y="12" width="52" height="49">
<path d="M24.3063 12.7876L59.4263 30.7953L44.077 60.7294L8.95703 42.7204L24.3063 12.7876Z" fill="white"/>
</mask>
<g mask="url(#mask67_286_14514)">
<path d="M26.2708 35.0575C25.8639 35.1182 25.4638 35.2217 25.0734 35.3541C24.4622 35.5748 23.8704 35.8715 23.3696 36.2895C22.924 36.6606 22.5253 37.0965 22.2466 37.6084C21.9003 38.2154 21.7348 38.9121 21.7086 39.6074C21.6865 40.4241 21.8783 41.238 22.2163 41.9789C22.5225 42.6452 22.9323 43.2619 23.4137 43.8151C23.8069 44.2759 24.2663 44.6732 24.7092 45.0857C25.5342 45.8762 26.3357 46.7026 26.9979 47.6365C27.3759 48.1746 27.7015 48.7485 27.9898 49.3389C29.15 49.0589 30.3613 49.0782 31.5395 49.2148C32.3465 49.3072 33.1494 49.4452 33.9441 49.6204C35.1002 49.8659 36.3101 49.9184 37.4689 49.6576C38.4636 49.4217 39.4183 48.932 40.1081 48.1663C40.6392 47.5772 40.9951 46.8364 41.1345 46.0569C41.3552 44.9629 41.1427 43.8234 40.7247 42.8025C40.555 42.3638 40.3095 41.9568 40.017 41.5898C39.1106 40.4765 37.7503 39.7522 36.3252 39.606C35.7279 39.548 35.125 39.6143 34.5456 39.7619C34.0917 39.8791 33.6585 40.0764 33.2639 40.3303C32.9191 40.551 32.5755 40.7745 32.2306 40.9966C32.2113 40.5965 32.1851 40.1964 32.1672 39.7964C32.1203 38.8293 31.7561 37.8898 31.1753 37.12C30.8235 36.6495 30.3779 36.255 29.8909 35.9266C28.8369 35.2272 27.5318 34.8809 26.2708 35.0575ZM27.587 34.6671C28.841 34.8285 30.0302 35.4341 30.9007 36.3516C31.2208 36.6964 31.4981 37.0855 31.7119 37.5049C31.8816 37.8705 32.0458 38.2443 32.1244 38.6417C32.232 39.0666 32.2513 39.5053 32.2665 39.9412C32.2913 40.2365 32.2831 40.5344 32.3203 40.8297C32.6362 40.6324 32.9425 40.4199 33.2543 40.2158C33.6571 39.9398 34.0931 39.7136 34.5566 39.5591C35.0381 39.4225 35.5347 39.3232 36.0383 39.3177C36.6991 39.3025 37.3572 39.4363 37.9752 39.6681C39.1796 40.1233 40.2433 41.0049 40.8337 42.1596C41.0406 42.5679 41.1758 43.0067 41.3083 43.4426C41.4449 43.9448 41.5152 44.4635 41.5249 44.9836C41.5318 45.6182 41.4173 46.2528 41.1896 46.8433C40.9689 47.4489 40.5964 47.9897 40.1536 48.4519C39.6624 48.9444 39.0637 49.3265 38.4181 49.5845C37.9835 49.7749 37.5213 49.8935 37.0537 49.9639C36.4246 50.0701 35.7817 50.0784 35.1471 50.0301C34.9167 50.0149 34.6891 49.9666 34.4573 49.9625C33.7371 49.808 33.0142 49.659 32.2844 49.5555C31.7395 49.4907 31.1946 49.4217 30.6469 49.3927C29.706 49.3527 28.7569 49.4079 27.8394 49.6286C27.3869 48.6836 26.8379 47.7828 26.1632 46.9812C25.7149 46.4446 25.2417 45.9286 24.7381 45.4416C24.2953 45.0015 23.8152 44.6001 23.3958 44.1352C22.4991 43.1612 21.7996 41.9664 21.5623 40.6517C21.3775 39.6846 21.4892 38.6637 21.8865 37.7642C22.1445 37.1876 22.5239 36.6675 22.9888 36.2398C23.7476 35.5197 24.7161 35.0492 25.7245 34.7981C26.3302 34.6422 26.9648 34.5815 27.587 34.6671Z" fill="white"/>
</g>
</g>
</g>
<mask id="mask68_286_14514" style="mask-type:luminance" maskUnits="userSpaceOnUse" x="28" y="32" width="16" height="15">
<path d="M28.2363 32.1321H43.7759V46.9653H28.2363V32.1321Z" fill="white"/>
</mask>
<g mask="url(#mask68_286_14514)">
<mask id="mask69_286_14514" style="mask-type:luminance" maskUnits="userSpaceOnUse" x="8" y="12" width="52" height="49">
<path d="M24.3063 12.7874L59.4263 30.795L44.077 60.7292L8.95703 42.7201L24.3063 12.7874Z" fill="white"/>
</mask>
<g mask="url(#mask69_286_14514)">
<mask id="mask70_286_14514" style="mask-type:luminance" maskUnits="userSpaceOnUse" x="8" y="12" width="52" height="49">
<path d="M24.3063 12.7878L59.4263 30.7955L44.077 60.7297L8.95703 42.7206L24.3063 12.7878Z" fill="white"/>
</mask>
<g mask="url(#mask70_286_14514)">
<path d="M28.6972 32.272C29.8767 32.5865 30.9611 33.2625 31.7502 34.1951C32.4579 35.0325 32.9297 36.0714 33.0953 37.1557C33.2057 37.8083 33.1546 38.4732 33.185 39.1313C33.6637 38.8098 34.112 38.4429 34.6184 38.1642C35.6503 37.5848 36.856 37.3102 38.037 37.4109C39.3462 37.5241 40.6154 38.0745 41.5866 38.9602C42.3219 39.6238 42.8862 40.4791 43.1856 41.4255C43.7415 43.0079 43.834 44.7738 43.3097 46.3782C43.2711 46.4982 43.2311 46.6183 43.1676 46.7286C43.5001 45.7174 43.536 44.6275 43.3897 43.5777C43.2311 42.5043 42.8627 41.4517 42.2502 40.5522C41.9039 40.039 41.4735 39.581 40.9796 39.2058C40.7161 39.0071 40.4264 38.8471 40.1353 38.6939C38.9889 38.0759 37.6631 37.7958 36.3663 37.9076C35.0488 38.0152 33.8389 38.7022 32.9132 39.621C32.8856 39.4775 32.9118 39.3341 32.909 39.1906C32.9118 38.2759 32.8083 37.3571 32.5435 36.4811C32.2813 35.6147 31.8454 34.8008 31.2591 34.1124C30.801 33.584 30.263 33.1246 29.656 32.7769C29.3014 32.5783 28.9345 32.3989 28.5537 32.2554C28.602 32.2527 28.6503 32.2568 28.6972 32.272Z" fill="white"/>
</g>
</g>
</g>
<mask id="mask71_286_14514" style="mask-type:luminance" maskUnits="userSpaceOnUse" x="21" y="31" width="23" height="20">
<path d="M21.8799 31.7771H43.7766V50.8484H21.8799V31.7771Z" fill="white"/>
</mask>
<g mask="url(#mask71_286_14514)">
<mask id="mask72_286_14514" style="mask-type:luminance" maskUnits="userSpaceOnUse" x="8" y="12" width="52" height="49">
<path d="M24.3063 12.7871L59.4263 30.7948L44.077 60.729L8.95703 42.7199L24.3063 12.7871Z" fill="white"/>
</mask>
<g mask="url(#mask72_286_14514)">
<mask id="mask73_286_14514" style="mask-type:luminance" maskUnits="userSpaceOnUse" x="8" y="12" width="52" height="49">
<path d="M24.3063 12.7876L59.4263 30.7953L44.077 60.7294L8.95703 42.7204L24.3063 12.7876Z" fill="white"/>
</mask>
<g mask="url(#mask73_286_14514)">
<path d="M39.5012 38.9249C39.6916 39.1014 39.8958 39.2629 40.082 39.4463C40.9374 40.2713 41.6354 41.2536 42.1693 42.3145C42.5873 43.1478 42.7529 44.0942 42.7018 45.0212C42.6784 45.7179 42.5266 46.4022 42.3432 47.0713C42.7515 46.376 42.9516 45.5758 43.0095 44.7757C43.095 43.6279 42.8384 42.458 42.2838 41.4495C41.6672 40.332 40.6545 39.456 39.5012 38.9249ZM28.5542 32.256C28.935 32.3994 29.302 32.5788 29.6565 32.7774C30.2635 33.1251 30.8016 33.5845 31.2596 34.1129C31.8459 34.8013 32.2819 35.6152 32.544 36.4816C32.8089 37.3577 32.9123 38.2765 32.9096 39.1911C32.9123 39.3346 32.8861 39.4781 32.9137 39.6202C33.8394 38.7028 35.0493 38.0157 36.3668 37.9081C37.6636 37.7964 38.9894 38.0764 40.1358 38.6945C40.4269 38.8476 40.7166 39.0076 40.9801 39.2063C41.474 39.5815 41.9044 40.0396 42.2507 40.5528C42.8633 41.4523 43.2316 42.5049 43.3903 43.5782C43.5365 44.6281 43.5006 45.7179 43.1681 46.7292C42.9612 47.3582 42.5956 47.9197 42.2024 48.4467C41.4892 49.3545 40.5276 50.0567 39.4653 50.5009C39.1011 50.5244 38.7355 50.5106 38.3713 50.5009C37.1394 50.472 35.9143 50.3009 34.7099 50.0429C34.6244 50.0222 34.5416 49.9905 34.4575 49.9643C34.6892 49.967 34.9169 50.0153 35.1473 50.0305C35.7832 50.0788 36.4248 50.0705 37.0538 49.9643C37.5215 49.8939 37.9851 49.7753 38.4196 49.5849C39.0639 49.3269 39.6626 48.9448 40.1538 48.4523C40.5966 47.9901 40.9705 47.4493 41.1898 46.8437C41.4175 46.2532 41.532 45.6186 41.5251 44.984C41.5154 44.4639 41.445 43.9452 41.3085 43.443C41.176 43.007 41.0408 42.5683 40.8339 42.16C40.2434 41.0053 39.1812 40.1237 37.9754 39.6685C37.3573 39.4367 36.6993 39.3029 36.0385 39.318C35.5363 39.3236 35.0396 39.4229 34.5568 39.5595C34.0933 39.714 33.6573 39.9402 33.2545 40.2162C32.9427 40.4203 32.6364 40.6328 32.3205 40.8301C32.2832 40.5348 32.2915 40.2368 32.2667 39.9416C32.2515 39.5057 32.2322 39.067 32.1246 38.642C32.046 38.2447 31.8818 37.8709 31.7121 37.5053C31.4983 37.0859 31.221 36.6968 30.9009 36.3519C30.0304 35.4345 28.8412 34.8289 27.5872 34.6675C26.965 34.5819 26.3304 34.6426 25.7247 34.7985C24.7162 35.0496 23.7478 35.5201 22.989 36.2402C22.5255 36.6679 22.1447 37.188 21.8867 37.7646C21.9074 37.5011 21.8909 37.2363 21.9212 36.9741C22.0136 35.9105 22.3806 34.8786 22.9393 33.9708C23.0828 33.7321 23.2608 33.5155 23.4084 33.2796C23.4332 33.2479 23.4691 33.2286 23.5022 33.2079C24.0278 32.8989 24.581 32.6312 25.1646 32.4491C25.9068 32.2035 26.6808 32.0007 27.4699 32.0311C27.8424 32.0325 28.2052 32.1304 28.5542 32.256Z" fill="white"/>
</g>
</g>
</g>
<mask id="mask74_286_14514" style="mask-type:luminance" maskUnits="userSpaceOnUse" x="39" y="38" width="5" height="10">
<path d="M39.1846 38.8401H43.0695V47.3162H39.1846V38.8401Z" fill="white"/>
</mask>
<g mask="url(#mask74_286_14514)">
<mask id="mask75_286_14514" style="mask-type:luminance" maskUnits="userSpaceOnUse" x="8" y="12" width="52" height="49">
<path d="M24.3063 12.7869L59.4263 30.7945L44.077 60.7287L8.95703 42.7197L24.3063 12.7869Z" fill="white"/>
</mask>
<g mask="url(#mask75_286_14514)">
<mask id="mask76_286_14514" style="mask-type:luminance" maskUnits="userSpaceOnUse" x="8" y="12" width="52" height="49">
<path d="M24.3063 12.7874L59.4263 30.795L44.077 60.7292L8.95703 42.7201L24.3063 12.7874Z" fill="white"/>
</mask>
<g mask="url(#mask76_286_14514)">
<path d="M39.501 38.9246C40.6543 39.4557 41.6669 40.3317 42.2836 41.4492C42.8382 42.4577 43.0948 43.6276 43.0093 44.7754C42.9513 45.5741 42.7513 46.3757 42.3429 47.071C42.5264 46.4019 42.6782 45.7176 42.7016 45.0209C42.7527 44.0939 42.5871 43.1475 42.1691 42.3142C41.6352 41.2533 40.9371 40.271 40.0818 39.446C39.8955 39.2626 39.6914 39.1011 39.501 38.9246Z" fill="white"/>
</g>
</g>
</g>
<mask id="mask77_286_14514" style="mask-type:luminance" maskUnits="userSpaceOnUse" x="19" y="33" width="21" height="19">
<path d="M19.7607 33.1919H39.5384V51.2037H19.7607V33.1919Z" fill="white"/>
</mask>
<g mask="url(#mask77_286_14514)">
<mask id="mask78_286_14514" style="mask-type:luminance" maskUnits="userSpaceOnUse" x="8" y="12" width="52" height="49">
<path d="M24.3063 12.7876L59.4263 30.7953L44.077 60.7294L8.95703 42.7204L24.3063 12.7876Z" fill="white"/>
</mask>
<g mask="url(#mask78_286_14514)">
<mask id="mask79_286_14514" style="mask-type:luminance" maskUnits="userSpaceOnUse" x="8" y="12" width="52" height="49">
<path d="M24.3063 12.7881L59.4263 30.7958L44.077 60.7299L8.95703 42.7209L24.3063 12.7881Z" fill="white"/>
</mask>
<g mask="url(#mask79_286_14514)">
<path d="M23.408 33.281C23.2603 33.5169 23.0824 33.7335 22.9389 33.9722C22.3802 34.8799 22.0132 35.9119 21.9208 36.9755C21.8904 37.2376 21.907 37.5025 21.8863 37.766C21.489 38.6655 21.3772 39.6864 21.5621 40.6535C21.7994 41.9682 22.4988 43.163 23.3955 44.1369C23.8149 44.6019 24.295 45.0033 24.7379 45.4434C25.2414 45.9304 25.7146 46.4464 26.163 46.983C26.8376 47.7845 27.3867 48.6854 27.8392 49.6304C28.7566 49.4097 29.7057 49.3545 30.6466 49.3959C31.1943 49.4235 31.7392 49.4925 32.2842 49.5573C33.014 49.6608 33.7369 49.8098 34.457 49.9657C34.5412 49.9919 34.624 50.0236 34.7095 50.0443C35.9139 50.3023 37.1389 50.4734 38.3709 50.5009C38.7351 50.512 39.1007 50.5258 39.4649 50.5023L39.5104 50.5161C39.3352 50.6113 39.1366 50.6444 38.9503 50.7079C37.9639 51.0266 36.9237 51.1728 35.8876 51.1314C35.2392 51.1107 34.595 51.0197 33.9576 50.8996C32.6884 50.6803 31.4012 50.5313 30.1127 50.5492C29.1125 50.5644 28.1096 50.6982 27.159 51.0169C26.9231 50.4775 26.6858 49.9367 26.3989 49.4194C25.865 48.4274 25.1711 47.5321 24.4316 46.6878C23.9336 46.1359 23.4162 45.6021 22.881 45.0861C22.0463 44.2666 21.3193 43.3244 20.8268 42.2593C20.4432 41.4247 20.1811 40.5279 20.1176 39.6091C20.0238 38.4489 20.2473 37.2652 20.7371 36.2112C21.2048 35.2055 21.9484 34.3447 22.823 33.6714C23.0148 33.5348 23.1983 33.3859 23.408 33.281Z" fill="white"/>
</g>
</g>
</g>
<g filter="url(#filter0_d_286_14514)">
<rect x="42.3662" y="45.3657" width="27" height="25" rx="12.5" fill="#333333" fill-opacity="0.74" shape-rendering="crispEdges"/>
<path d="M48.3662 56.1675C48.3662 55.3105 49.061 54.6157 49.918 54.6157C50.5001 54.6157 51.0333 54.29 51.2989 53.772L51.9773 52.4491C52.3184 51.784 53.0029 51.3657 53.7504 51.3657H57.9821C58.7295 51.3657 59.414 51.784 59.7551 52.4491L60.4335 53.772C60.6992 54.29 61.2323 54.6157 61.8144 54.6157C62.6714 54.6157 63.3662 55.3105 63.3662 56.1675V60.1872C63.3662 61.2839 63.3662 61.8323 63.2245 62.2768C62.9293 63.203 62.2035 63.9288 61.2772 64.224C60.8327 64.3657 60.2844 64.3657 59.1876 64.3657H52.5448C51.448 64.3657 50.8997 64.3657 50.4552 64.224C49.5289 63.9288 48.8031 63.203 48.5079 62.2768C48.3662 61.8323 48.3662 61.2839 48.3662 60.1872V56.1675Z" stroke="white"/>
<path d="M55.8662 55.9285C57.443 55.9285 58.7002 57.1715 58.7002 58.6785C58.7002 60.1854 57.443 61.4285 55.8662 61.4285C54.2895 61.4283 53.0332 60.1853 53.0332 58.6785C53.0332 57.1716 54.2895 55.9286 55.8662 55.9285Z" stroke="white"/>
</g>
<defs>
<filter id="filter0_d_286_14514" x="38.3662" y="45.3657" width="35" height="33" filterUnits="userSpaceOnUse" color-interpolation-filters="sRGB">
<feFlood flood-opacity="0" result="BackgroundImageFix"/>
<feColorMatrix in="SourceAlpha" type="matrix" values="0 0 0 0 0 0 0 0 0 0 0 0 0 0 0 0 0 0 127 0" result="hardAlpha"/>
<feOffset dy="4"/>
<feGaussianBlur stdDeviation="2"/>
<feComposite in2="hardAlpha" operator="out"/>
<feColorMatrix type="matrix" values="0 0 0 0 0 0 0 0 0 0 0 0 0 0 0 0 0 0 0.25 0"/>
<feBlend mode="normal" in2="BackgroundImageFix" result="effect1_dropShadow_286_14514"/>
<feBlend mode="normal" in="SourceGraphic" in2="effect1_dropShadow_286_14514" result="shape"/>
</filter>
</defs>
</svg>
