<svg width="28" height="26" viewBox="0 0 28 26" fill="none" xmlns="http://www.w3.org/2000/svg">
<g opacity="0.4">
<path d="M13.7084 9.54922V13.7933M13.7084 18.0374H13.7198M12.1266 4.12923L2.73049 19.2027C2.20932 20.0388 1.94874 20.4569 1.98725 20.8C2.02084 21.0992 2.18966 21.3712 2.45167 21.5481C2.75207 21.751 3.27216 21.751 4.31234 21.751H23.1045C24.1447 21.751 24.6648 21.751 24.9652 21.5481C25.2272 21.3712 25.396 21.0992 25.4296 20.8C25.4681 20.4569 25.2075 20.0388 24.6864 19.2027L15.2903 4.12923C14.771 3.29615 14.5113 2.87962 14.1726 2.73972C13.8771 2.61769 13.5398 2.61769 13.2443 2.73972C12.9055 2.87962 12.6459 3.29615 12.1266 4.12923Z" stroke="#5C4033" stroke-width="2" stroke-linecap="round" stroke-linejoin="round"/>
</g>
</svg>
