<svg width="393" height="455" viewBox="0 0 393 455" fill="none" xmlns="http://www.w3.org/2000/svg">
<g opacity="0.04">
<mask id="mask0_1_59307" style="mask-type:luminance" maskUnits="userSpaceOnUse" x="219" y="63" width="123" height="162">
<path d="M219.653 63.4845H341.738V224.636H219.653V63.4845Z" fill="white"/>
</mask>
<g mask="url(#mask0_1_59307)">
<mask id="mask1_1_59307" style="mask-type:luminance" maskUnits="userSpaceOnUse" x="-209" y="-87" width="699" height="664">
<path d="M4.15378 -86.7943L489.765 162.201L277.528 576.107L-208.083 327.092L4.15378 -86.7943Z" fill="white"/>
</mask>
<g mask="url(#mask1_1_59307)">
<mask id="mask2_1_59307" style="mask-type:luminance" maskUnits="userSpaceOnUse" x="-209" y="-87" width="699" height="664">
<path d="M4.15378 -86.7943L489.765 162.201L277.528 576.107L-208.083 327.092L4.15378 -86.7943Z" fill="white"/>
</mask>
<g mask="url(#mask2_1_59307)">
<path d="M286.189 70.5429C279.246 72.0499 273.084 75.9413 267.8 80.5576C263.05 84.7162 258.415 89.1036 254.523 94.1014L255.134 93.9297C253.36 95.9327 251.548 97.9166 249.812 99.9386C244.909 105.604 241.609 112.376 238.404 119.072C232.548 132.634 227.627 146.846 226.482 161.668C226.406 162.087 226.444 162.488 226.577 162.889C225.91 169.68 226.577 176.757 229.191 183.109C233.464 193.314 241.876 201.078 250.861 207.182C258.51 212.486 267.609 216.091 277.033 216.015C285.731 216.053 294.258 213.134 301.679 208.709C308.241 204.893 314.116 199.915 318.885 194.001C324.379 187.077 328.289 178.95 330.636 170.423C331.895 165.979 333.287 161.515 333.573 156.899C334.336 154.209 333.688 151.329 334.031 148.582C334.851 147.227 334.508 145.568 334.661 144.061C334.966 135.248 334.241 126.416 332.581 117.736C331.151 110.049 329.052 102.438 325.771 95.3032C321.708 86.3757 315.432 78.1159 306.676 73.4233C300.515 69.9324 293.075 68.8451 286.189 70.5429ZM306.39 68.4064C309.786 69.9706 313.162 71.6493 316.176 73.9193C323.444 79.3177 328.842 86.9289 332.524 95.1697C336.492 104.002 338.838 113.501 340.288 123.077C342.806 139.139 342.024 155.773 337.579 171.435C335.195 179.599 331.723 187.515 326.706 194.421C321.403 201.803 314.44 207.965 306.638 212.6C300.725 216.148 294.258 218.819 287.486 220.192C279.932 221.756 271.997 221.489 264.595 219.296C256.851 217.178 249.831 213.039 243.44 208.251C233.731 200.983 225.051 191.331 221.885 179.37C218.814 167.238 220.13 154.457 223.106 142.439C228.618 121.113 238.786 100.644 254.428 84.9069C260.151 79.1842 266.35 73.8048 273.542 69.9897C279.761 66.7086 286.819 64.7629 293.877 65.2398C298.207 65.4306 302.442 66.6705 306.39 68.4064Z" fill="#FFB510"/>
</g>
</g>
</g>
<mask id="mask3_1_59307" style="mask-type:luminance" maskUnits="userSpaceOnUse" x="253" y="68" width="84" height="84">
<path d="M253.838 68.368H336.856V151.386H253.838V68.368Z" fill="white"/>
</mask>
<g mask="url(#mask3_1_59307)">
<mask id="mask4_1_59307" style="mask-type:luminance" maskUnits="userSpaceOnUse" x="-209" y="-87" width="699" height="664">
<path d="M4.15428 -86.7943L489.766 162.201L277.529 576.107L-208.083 327.092L4.15428 -86.7943Z" fill="white"/>
</mask>
<g mask="url(#mask4_1_59307)">
<mask id="mask5_1_59307" style="mask-type:luminance" maskUnits="userSpaceOnUse" x="-209" y="-87" width="699" height="664">
<path d="M4.15428 -86.7943L489.766 162.201L277.529 576.107L-208.083 327.092L4.15428 -86.7943Z" fill="white"/>
</mask>
<g mask="url(#mask5_1_59307)">
<path d="M286.19 70.5428C293.077 68.8451 300.516 69.9324 306.678 73.4233C315.433 78.1159 321.728 86.3757 325.772 95.3032C329.034 102.437 331.152 110.049 332.582 117.755C334.242 126.416 334.967 135.248 334.662 144.061C334.509 145.568 334.852 147.227 334.032 148.582C334.147 133.855 331.209 118.995 324.532 105.814C320.107 97.1154 313.774 89.2562 305.609 83.8577C301.909 81.5686 298.055 79.3558 293.763 78.383C288.098 77.0477 282.127 77.9252 276.71 79.8137C268.507 82.675 261.239 87.8064 255.154 93.9297L254.524 94.1014C258.416 89.1035 263.051 84.7161 267.801 80.5576C273.104 75.9413 279.247 72.0498 286.19 70.5428Z" fill="#FFB510"/>
</g>
</g>
</g>
<mask id="mask6_1_59307" style="mask-type:luminance" maskUnits="userSpaceOnUse" x="224" y="73" width="113" height="128">
<path d="M224.537 73.2507H336.855V200.219H224.537V73.2507Z" fill="white"/>
</mask>
<g mask="url(#mask6_1_59307)">
<mask id="mask7_1_59307" style="mask-type:luminance" maskUnits="userSpaceOnUse" x="-209" y="-87" width="699" height="664">
<path d="M4.15465 -86.7948L489.766 162.201L277.529 576.107L-208.082 327.092L4.15465 -86.7948Z" fill="white"/>
</mask>
<g mask="url(#mask7_1_59307)">
<mask id="mask8_1_59307" style="mask-type:luminance" maskUnits="userSpaceOnUse" x="-209" y="-87" width="699" height="664">
<path d="M4.15465 -86.7948L489.766 162.201L277.529 576.107L-208.082 327.092L4.15465 -86.7948Z" fill="white"/>
</mask>
<g mask="url(#mask8_1_59307)">
<path d="M296.91 84.7156C301.984 89.4083 306.734 94.4824 310.74 100.129C319.953 112.814 325.772 127.655 329.32 142.858C329.911 130.249 327.851 117.163 321.251 106.214C315.604 96.7524 306.791 89.4273 296.91 84.7156ZM293.762 78.3825C298.035 79.3553 301.908 81.5681 305.589 83.8572C313.773 89.2556 320.106 97.1149 324.513 105.813C331.208 118.995 334.146 133.855 334.031 148.562C333.688 151.328 334.337 154.209 333.574 156.898C331.914 160.217 330.54 163.67 328.671 166.894C321.098 180.667 307.917 191.406 292.675 195.488C283.576 197.816 273.847 198.006 264.71 195.736C251.567 192.608 239.854 184.196 232.358 172.998C230.088 169.832 228.466 166.284 226.578 162.888C226.444 162.487 226.406 162.087 226.482 161.667C227.627 146.845 232.548 132.634 238.405 119.071C241.609 112.375 244.909 105.604 249.812 99.9381C251.548 97.916 253.36 95.9322 255.153 93.9292C261.238 87.8059 268.506 82.6745 276.709 79.8131C282.126 77.9246 288.097 77.0472 293.762 78.3825Z" fill="#FFB510"/>
</g>
</g>
</g>
<mask id="mask9_1_59307" style="mask-type:luminance" maskUnits="userSpaceOnUse" x="292" y="83" width="40" height="64">
<path d="M292.904 83.0178H331.972V146.502H292.904V83.0178Z" fill="white"/>
</mask>
<g mask="url(#mask9_1_59307)">
<mask id="mask10_1_59307" style="mask-type:luminance" maskUnits="userSpaceOnUse" x="-209" y="-87" width="699" height="664">
<path d="M4.1543 -86.7948L489.766 162.201L277.529 576.107L-208.082 327.092L4.1543 -86.7948Z" fill="white"/>
</mask>
<g mask="url(#mask10_1_59307)">
<mask id="mask11_1_59307" style="mask-type:luminance" maskUnits="userSpaceOnUse" x="-209" y="-87" width="699" height="664">
<path d="M4.1543 -86.7948L489.766 162.201L277.529 576.107L-208.082 327.092L4.1543 -86.7948Z" fill="white"/>
</mask>
<g mask="url(#mask11_1_59307)">
<path d="M296.911 84.7153C306.792 89.427 315.605 96.7521 321.251 106.214C327.852 117.163 329.912 130.249 329.321 142.858C325.772 127.655 319.954 112.814 310.76 100.129C306.735 94.4821 301.985 89.408 296.911 84.7153Z" fill="#FFB510"/>
</g>
</g>
</g>
<mask id="mask12_1_59307" style="mask-type:luminance" maskUnits="userSpaceOnUse" x="224" y="156" width="113" height="64">
<path d="M224.537 156.268H336.855V219.753H224.537V156.268Z" fill="white"/>
</mask>
<g mask="url(#mask12_1_59307)">
<mask id="mask13_1_59307" style="mask-type:luminance" maskUnits="userSpaceOnUse" x="-209" y="-87" width="699" height="664">
<path d="M4.15465 -86.7948L489.766 162.201L277.529 576.107L-208.082 327.092L4.15465 -86.7948Z" fill="white"/>
</mask>
<g mask="url(#mask13_1_59307)">
<mask id="mask14_1_59307" style="mask-type:luminance" maskUnits="userSpaceOnUse" x="-209" y="-87" width="699" height="664">
<path d="M4.15465 -86.7948L489.766 162.201L277.529 576.107L-208.082 327.092L4.15465 -86.7948Z" fill="white"/>
</mask>
<g mask="url(#mask14_1_59307)">
<path d="M328.691 166.894C330.542 163.67 331.934 160.217 333.575 156.898C333.289 161.514 331.896 165.978 330.656 170.423C328.291 178.95 324.38 187.076 318.887 194C314.118 199.914 308.242 204.893 301.68 208.708C294.26 213.133 285.733 216.052 277.034 216.014C267.611 216.09 258.512 212.485 250.862 207.182C241.878 201.077 233.465 193.314 229.192 183.108C226.579 176.756 225.911 169.679 226.579 162.888C228.467 166.283 230.089 169.831 232.359 172.998C239.856 184.195 251.568 192.608 264.711 195.736C273.868 198.006 283.577 197.815 292.696 195.488C307.918 191.406 321.118 180.666 328.691 166.894Z" fill="#FFB510"/>
</g>
</g>
</g>
<mask id="mask15_1_59307" style="mask-type:luminance" maskUnits="userSpaceOnUse" x="68" y="0" width="142" height="147">
<path d="M68.2692 0H209.888V146.502H68.2692V0Z" fill="white"/>
</mask>
<g mask="url(#mask15_1_59307)">
<mask id="mask16_1_59307" style="mask-type:luminance" maskUnits="userSpaceOnUse" x="-209" y="-87" width="699" height="664">
<path d="M4.15538 -86.7949L489.767 162.201L277.53 576.106L-208.081 327.092L4.15538 -86.7949Z" fill="white"/>
</mask>
<g mask="url(#mask16_1_59307)">
<mask id="mask17_1_59307" style="mask-type:luminance" maskUnits="userSpaceOnUse" x="-209" y="-87" width="699" height="664">
<path d="M4.15538 -86.7949L489.767 162.201L277.53 576.106L-208.081 327.092L4.15538 -86.7949Z" fill="white"/>
</mask>
<g mask="url(#mask17_1_59307)">
<path d="M164.487 6.88645C155.731 7.26796 147.185 9.74782 139.116 13.067C126.278 18.2747 114.165 25.4853 103.959 34.8706L104.799 34.7561C102.929 36.3394 100.965 37.8082 98.9616 39.258C98.4084 39.7158 97.6835 40.1355 97.4927 40.8985C95.0511 43.3211 93.0481 46.1634 90.9116 48.8722C86.467 54.5568 82.8044 60.8899 80.439 67.719C77.5014 75.9788 76.5667 84.9063 77.4251 93.6048C78.0736 100.358 79.5806 107.13 82.8426 113.138C86.5433 120.292 92.4949 126.148 99.5148 130.078C106.115 133.778 113.421 136.106 120.822 137.632C129.139 139.31 138.01 139.12 145.964 135.934C149.684 134.503 152.984 132.214 156.189 129.868C157.848 128.628 159.546 127.426 160.996 125.957C161.473 126.015 161.721 125.519 162.064 125.271C164.678 122.562 167.444 119.987 169.923 117.144C177.344 108.389 184.039 98.9842 189.152 88.7023C192.757 82.064 195.447 74.9487 197.621 67.719C198.957 63.3507 199.529 58.8297 200.025 54.3088C200.864 52.6873 200.807 50.837 201.055 49.082C201.932 41.8332 201.818 34.2792 199.338 27.3357C197.392 21.7846 193.806 16.7486 188.961 13.3722C181.884 8.41251 173.033 6.52401 164.487 6.88645ZM182.265 4.74997C185.985 6.46679 189.648 8.37436 192.91 10.8924C199.052 15.5278 203.382 22.376 205.366 29.8155C207.56 38.0371 207.522 46.7166 206.396 55.1099C204.012 74.0522 196.496 92.1551 185.642 107.797C177.573 119.452 167.939 130.402 155.674 137.727C148.997 141.79 141.253 144.022 133.451 144.194C124.58 144.365 115.805 142.343 107.527 139.31C98.8662 136.182 90.7209 131.318 84.5403 124.45C79.2182 118.556 75.5747 111.288 73.4955 103.677C69.9474 90.0376 70.4243 75.2539 75.6129 62.0917C79.3326 52.2677 85.723 43.7217 92.762 36.0342C103.368 24.7223 116.416 15.8139 130.57 9.57613C138.887 5.85636 147.605 2.78516 156.685 1.64062C165.288 0.553297 174.254 1.2591 182.265 4.74997Z" fill="#FFB510"/>
</g>
</g>
</g>
<mask id="mask18_1_59307" style="mask-type:luminance" maskUnits="userSpaceOnUse" x="102" y="4" width="104" height="55">
<path d="M102.452 4.88354H205.003V58.6009H102.452V4.88354Z" fill="white"/>
</mask>
<g mask="url(#mask18_1_59307)">
<mask id="mask19_1_59307" style="mask-type:luminance" maskUnits="userSpaceOnUse" x="-209" y="-87" width="699" height="664">
<path d="M4.15437 -86.7948L489.766 162.201L277.529 576.107L-208.082 327.092L4.15437 -86.7948Z" fill="white"/>
</mask>
<g mask="url(#mask19_1_59307)">
<mask id="mask20_1_59307" style="mask-type:luminance" maskUnits="userSpaceOnUse" x="-209" y="-87" width="699" height="664">
<path d="M4.15437 -86.7948L489.766 162.201L277.529 576.107L-208.082 327.092L4.15437 -86.7948Z" fill="white"/>
</mask>
<g mask="url(#mask20_1_59307)">
<path d="M164.486 6.90541C173.032 6.5239 181.883 8.4124 188.961 13.3721C193.806 16.7485 197.392 21.7845 199.338 27.3355C201.818 34.2791 201.932 41.8331 201.055 49.0819C200.807 50.8369 200.864 52.6872 200.024 54.3087C200.54 47.8229 199.757 41.1655 197.182 35.1757C195.008 30.1015 191.498 25.5997 187.186 22.166C181.922 18.3127 175.779 15.6803 169.351 14.612C161.053 13.086 152.488 13.8681 144.323 15.7947C129.921 18.9613 116.492 25.8286 104.798 34.756L103.959 34.8705C114.165 25.4852 126.278 18.2746 139.116 13.0669C147.185 9.7477 155.731 7.26785 164.486 6.90541Z" fill="#FFB510"/>
</g>
</g>
</g>
<mask id="mask21_1_59307" style="mask-type:luminance" maskUnits="userSpaceOnUse" x="87" y="9" width="119" height="123">
<path d="M87.8016 9.76721H205.003V131.852H87.8016V9.76721Z" fill="white"/>
</mask>
<g mask="url(#mask21_1_59307)">
<mask id="mask22_1_59307" style="mask-type:luminance" maskUnits="userSpaceOnUse" x="-209" y="-87" width="699" height="664">
<path d="M4.1535 -86.7943L489.765 162.201L277.528 576.107L-208.083 327.092L4.1535 -86.7943Z" fill="white"/>
</mask>
<g mask="url(#mask22_1_59307)">
<mask id="mask23_1_59307" style="mask-type:luminance" maskUnits="userSpaceOnUse" x="-209" y="-87" width="699" height="664">
<path d="M4.1535 -86.7943L489.765 162.201L277.528 576.107L-208.083 327.092L4.1535 -86.7943Z" fill="white"/>
</mask>
<g mask="url(#mask23_1_59307)">
<path d="M155.348 20.4501C147.165 19.916 139.096 22.434 131.828 26.0393C125.743 29.1486 120.039 33.021 114.812 37.4084C120.459 34.6997 126.201 32.1626 132.133 30.1787C145.448 25.7341 160.003 23.5213 173.814 26.974C168.32 23.3496 162.006 20.6981 155.348 20.4501ZM169.35 14.6129C175.779 15.6812 181.921 18.3136 187.186 22.1669C191.497 25.6006 195.007 30.1024 197.182 35.1766C199.776 41.1664 200.539 47.8429 200.024 54.3096C199.528 58.8305 198.956 63.3515 197.62 67.7198C195.446 74.9495 192.756 82.0648 189.151 88.7031C184.038 98.985 177.343 108.389 169.922 117.145C167.442 119.987 164.676 122.563 162.063 125.271C161.72 125.519 161.472 126.015 160.995 125.958C159.66 125.958 158.343 126.111 157.046 126.454C148.29 128.457 139.096 127.274 130.722 124.298C115.041 118.919 102.375 106.425 95.3362 91.5836C92.7609 85.651 90.9106 79.356 90.4146 72.8893C89.6707 64.992 90.9106 56.9229 93.7529 49.5215C94.7448 46.5267 96.557 43.8942 97.4917 40.8993C97.6825 40.1363 98.4074 39.7166 98.9605 39.2588C100.964 37.809 102.928 36.3402 104.798 34.7569C116.491 25.8295 129.92 18.9622 144.323 15.7956C152.487 13.8499 161.052 13.0869 169.35 14.6129Z" fill="#FFB510"/>
</g>
</g>
</g>
<mask id="mask24_1_59307" style="mask-type:luminance" maskUnits="userSpaceOnUse" x="112" y="19" width="64" height="21">
<path d="M112.219 19.5333H175.703V39.0669H112.219V19.5333Z" fill="white"/>
</mask>
<g mask="url(#mask24_1_59307)">
<mask id="mask25_1_59307" style="mask-type:luminance" maskUnits="userSpaceOnUse" x="-209" y="-87" width="699" height="664">
<path d="M4.15424 -86.7954L489.766 162.2L277.529 576.106L-208.083 327.091L4.15424 -86.7954Z" fill="white"/>
</mask>
<g mask="url(#mask25_1_59307)">
<mask id="mask26_1_59307" style="mask-type:luminance" maskUnits="userSpaceOnUse" x="-209" y="-87" width="699" height="664">
<path d="M4.15424 -86.7954L489.766 162.2L277.529 576.106L-208.083 327.091L4.15424 -86.7954Z" fill="white"/>
</mask>
<g mask="url(#mask26_1_59307)">
<path d="M155.349 20.4486C162.007 20.6965 168.321 23.3481 173.815 26.9725C160.004 23.5197 145.449 25.7325 132.134 30.1772C126.202 32.1611 120.46 34.6791 114.813 37.4069C120.04 33.0004 125.744 29.1471 131.829 26.0377C139.097 22.4324 147.166 19.9144 155.349 20.4486Z" fill="#FFB510"/>
</g>
</g>
</g>
<mask id="mask27_1_59307" style="mask-type:luminance" maskUnits="userSpaceOnUse" x="73" y="39" width="89" height="103">
<path d="M73.1511 39.0667H161.052V141.618H73.1511V39.0667Z" fill="white"/>
</mask>
<g mask="url(#mask27_1_59307)">
<mask id="mask28_1_59307" style="mask-type:luminance" maskUnits="userSpaceOnUse" x="-209" y="-87" width="699" height="664">
<path d="M4.15468 -86.7953L489.766 162.2L277.529 576.106L-208.082 327.091L4.15468 -86.7953Z" fill="white"/>
</mask>
<g mask="url(#mask28_1_59307)">
<mask id="mask29_1_59307" style="mask-type:luminance" maskUnits="userSpaceOnUse" x="-209" y="-87" width="699" height="664">
<path d="M4.15468 -86.7953L489.766 162.2L277.529 576.106L-208.082 327.091L4.15468 -86.7953Z" fill="white"/>
</mask>
<g mask="url(#mask29_1_59307)">
<path d="M97.4918 40.8982C96.5571 43.8931 94.7449 46.5255 93.753 49.5204C90.9107 56.9218 89.6708 64.9909 90.4147 72.8882C90.9107 79.3549 92.761 85.6499 95.3363 91.5825C102.375 106.423 115.042 118.918 130.722 124.297C139.096 127.273 148.291 128.456 157.046 126.453C158.343 126.11 159.66 125.957 160.995 125.957C159.545 127.426 157.848 128.628 156.188 129.867C152.983 132.214 149.683 134.503 145.963 135.934C138.009 139.119 129.139 139.31 120.821 137.631C113.42 136.105 106.114 133.778 99.5139 130.077C92.494 126.148 86.5424 120.291 82.8226 113.138C79.5797 107.129 78.0727 100.357 77.4241 93.6045C76.5657 84.9059 77.5004 75.9785 80.4381 67.7187C82.8035 60.8896 86.466 54.5755 90.9107 48.8719C93.0472 46.1631 95.0501 43.3208 97.4918 40.8982Z" fill="#FFB510"/>
</g>
</g>
</g>
<mask id="mask30_1_59307" style="mask-type:luminance" maskUnits="userSpaceOnUse" x="-88" y="39" width="123" height="137">
<path d="M-88 39.0667H34.0848V175.802H-88V39.0667Z" fill="white"/>
</mask>
<g mask="url(#mask30_1_59307)">
<mask id="mask31_1_59307" style="mask-type:luminance" maskUnits="userSpaceOnUse" x="-209" y="-87" width="699" height="664">
<path d="M4.15448 -86.7954L489.766 162.2L277.529 576.106L-208.082 327.091L4.15448 -86.7954Z" fill="white"/>
</mask>
<g mask="url(#mask31_1_59307)">
<mask id="mask32_1_59307" style="mask-type:luminance" maskUnits="userSpaceOnUse" x="-209" y="-87" width="699" height="664">
<path d="M4.15448 -86.7954L489.766 162.2L277.529 576.106L-208.082 327.091L4.15448 -86.7954Z" fill="white"/>
</mask>
<g mask="url(#mask32_1_59307)">
<path d="M-25.8706 49.9018C-32.9667 48.8335 -40.3872 49.2913 -47.1209 51.9429C-55.1518 54.9378 -62.4006 60.3171 -67.017 67.6041C-70.546 72.869 -72.2056 79.0877 -73.5599 85.211C-73.8461 86.6989 -74.4183 88.2059 -74.1704 89.751C-77.2606 104.229 -78.367 119.166 -77.1271 133.93C-76.4976 140.931 -74.5709 147.989 -70.4315 153.75C-67.8181 157.546 -64.3082 160.694 -60.3786 163.097C-53.9119 167.027 -45.9001 168.286 -38.4987 166.684C-30.4487 165.005 -23.2381 160.713 -16.6951 155.848C-12.1169 152.453 -7.44339 149.191 -3.1895 145.395C-3.09412 145.376 -2.88428 145.338 -2.7889 145.319C0.835487 141.961 4.51711 138.699 8.06519 135.266C13.292 129.772 18.6904 124.24 22.2003 117.43C23.5356 114.416 24.6992 111.268 25.3288 108.026C25.8438 105.107 26.3398 102.093 25.5386 99.1935C25.634 98.9074 25.8247 98.3542 25.9201 98.068C26.0346 92.6505 24.9663 87.1949 22.6581 82.2733C18.5759 73.2886 10.9266 66.4595 2.70491 61.2709C-6.089 55.9488 -15.6078 51.4278 -25.8706 49.9018ZM-7.90121 49.2341C-0.633347 52.5342 6.50098 56.2921 12.7197 61.3281C20.2164 67.2225 26.6068 74.891 29.6589 84.0283C31.9671 91.1817 32.6538 98.8692 31.6428 106.328C30.3266 116.228 25.6721 125.423 19.5106 133.167C9.62941 145.128 -2.0831 155.581 -15.1309 163.994C-21.2161 168.076 -27.9307 171.452 -35.1604 172.921C-41.6081 174.276 -48.3799 174.047 -54.6749 172.101C-63.259 169.507 -71.3281 164.509 -76.5358 157.069C-81.8579 149.477 -84.1661 140.149 -84.6429 130.993C-85.158 116.552 -84.4713 101.998 -81.6862 87.8053C-80.3318 81.4531 -78.8248 75.0436 -75.8109 69.2446C-71.6142 61.0038 -64.6516 54.3273 -56.5253 49.9781C-50.8598 46.9069 -44.7174 44.5033 -38.2698 43.8357C-27.8735 42.7102 -17.42 45.19 -7.90121 49.2341Z" fill="#FFB510"/>
</g>
</g>
</g>
<mask id="mask33_1_59307" style="mask-type:luminance" maskUnits="userSpaceOnUse" x="-79" y="48" width="109" height="55">
<path d="M-78.233 48.8339H29.2016V102.551H-78.233V48.8339Z" fill="white"/>
</mask>
<g mask="url(#mask33_1_59307)">
<mask id="mask34_1_59307" style="mask-type:luminance" maskUnits="userSpaceOnUse" x="-209" y="-87" width="699" height="664">
<path d="M4.15436 -86.7948L489.766 162.201L277.529 576.107L-208.082 327.092L4.15436 -86.7948Z" fill="white"/>
</mask>
<g mask="url(#mask34_1_59307)">
<mask id="mask35_1_59307" style="mask-type:luminance" maskUnits="userSpaceOnUse" x="-209" y="-87" width="699" height="664">
<path d="M4.15436 -86.7948L489.766 162.201L277.529 576.107L-208.082 327.092L4.15436 -86.7948Z" fill="white"/>
</mask>
<g mask="url(#mask35_1_59307)">
<path d="M-25.8708 49.9024C-15.6081 51.4284 -6.08929 55.9494 2.70463 61.2715C10.9263 66.4601 18.5757 73.2892 22.6579 82.2739C24.966 87.1955 26.0343 92.6511 25.9198 98.0686C25.8244 98.3548 25.6337 98.908 25.5383 99.1941C23.8406 91.4303 19.9491 84.1624 14.3027 78.5541C5.58507 69.7984 -5.91761 64.4953 -17.4394 60.5085C-24.9934 57.7997 -33.1959 56.5026 -41.1696 57.876C-49.83 59.3449 -57.9372 63.904 -63.7171 70.5423C-66.445 73.6326 -68.715 77.1235 -70.5653 80.8242C-71.996 83.7046 -73.2168 86.6804 -74.1706 89.7516C-74.4186 88.2065 -73.8463 86.6995 -73.5602 85.2116C-72.2058 79.0883 -70.5462 72.8696 -67.0172 67.6047C-62.4009 60.3177 -55.1521 54.9384 -47.1212 51.9435C-40.3875 49.2919 -32.967 48.8341 -25.8708 49.9024Z" fill="#FFB510"/>
</g>
</g>
</g>
<mask id="mask36_1_59307" style="mask-type:luminance" maskUnits="userSpaceOnUse" x="-74" y="53" width="104" height="99">
<path d="M-73.3495 53.7174H29.2018V151.385H-73.3495V53.7174Z" fill="white"/>
</mask>
<g mask="url(#mask36_1_59307)">
<mask id="mask37_1_59307" style="mask-type:luminance" maskUnits="userSpaceOnUse" x="-209" y="-87" width="699" height="664">
<path d="M4.15529 -86.7948L489.767 162.201L277.53 576.107L-208.081 327.092L4.15529 -86.7948Z" fill="white"/>
</mask>
<g mask="url(#mask37_1_59307)">
<mask id="mask38_1_59307" style="mask-type:luminance" maskUnits="userSpaceOnUse" x="-209" y="-87" width="699" height="664">
<path d="M4.15529 -86.7948L489.767 162.201L277.53 576.107L-208.081 327.092L4.15529 -86.7948Z" fill="white"/>
</mask>
<g mask="url(#mask38_1_59307)">
<path d="M-41.9514 63.7893C-50.7453 66.4026 -57.9369 72.7167 -63.4307 79.8701C-54.9038 74.5671 -45.7093 70.0461 -35.7708 68.253C-26.9388 66.4599 -17.7252 67.0512 -9.16016 69.8172C-18.7171 63.7511 -30.8302 60.3175 -41.9514 63.7893ZM-17.439 60.5082C-5.91729 64.4951 5.58539 69.7981 14.303 78.5539C19.9494 84.1622 23.8409 91.43 25.5386 99.1939C26.3398 102.093 25.8438 105.107 25.3288 108.026C24.6993 111.269 23.5357 114.416 22.2004 117.43C18.6904 124.24 13.292 129.772 8.06524 135.266C4.51714 138.7 0.835526 141.962 -2.78886 145.319C-2.88424 145.338 -3.09408 145.376 -3.18945 145.395C-5.4404 145.758 -7.36705 147.074 -9.50353 147.761C-15.7031 149.783 -22.3606 150.698 -28.8082 149.63C-38.1935 148.524 -46.7585 143.507 -53.187 136.716C-63.0492 126.3 -68.2187 112.242 -69.802 98.1638C-70.2789 94.196 -70.4315 90.1901 -70.2979 86.1842C-70.2216 84.3911 -70.2598 82.5979 -70.565 80.8239C-68.7147 77.1232 -66.4446 73.6323 -63.7168 70.5421C-57.9369 63.9037 -49.8297 59.3446 -41.1693 57.8758C-33.1956 56.5023 -24.993 57.7995 -17.439 60.5082Z" fill="#FFB510"/>
</g>
</g>
</g>
<mask id="mask39_1_59307" style="mask-type:luminance" maskUnits="userSpaceOnUse" x="292" y="239" width="123" height="133">
<path d="M292.904 239.286H414.989V371.138H292.904V239.286Z" fill="white"/>
</mask>
<g mask="url(#mask39_1_59307)">
<mask id="mask40_1_59307" style="mask-type:luminance" maskUnits="userSpaceOnUse" x="-209" y="-87" width="699" height="664">
<path d="M4.15424 -86.7948L489.766 162.201L277.529 576.107L-208.083 327.092L4.15424 -86.7948Z" fill="white"/>
</mask>
<g mask="url(#mask40_1_59307)">
<mask id="mask41_1_59307" style="mask-type:luminance" maskUnits="userSpaceOnUse" x="-209" y="-87" width="699" height="664">
<path d="M4.15424 -86.7948L489.766 162.201L277.529 576.107L-208.083 327.092L4.15424 -86.7948Z" fill="white"/>
</mask>
<g mask="url(#mask41_1_59307)">
<mask id="mask42_1_59307" style="mask-type:luminance" maskUnits="userSpaceOnUse" x="268" y="222" width="164" height="171">
<path d="M328.995 222.995L431.603 275.606L371.591 392.674L268.983 340.063L328.995 222.995Z" fill="white"/>
</mask>
<g mask="url(#mask42_1_59307)">
<path d="M347.69 246.706C340.517 246.973 333.554 249.491 327.469 253.211C326.859 253.631 326.039 253.955 325.905 254.795C322.3 256.607 319.534 259.735 317.054 262.825C313.01 268.052 310.835 274.385 309.405 280.757C307.287 289.226 306.524 297.925 305.647 306.566C305.685 306.642 305.761 306.814 305.799 306.89C305.17 313.891 305.265 320.968 305.399 328.007C305.723 335.523 307.211 343.211 311.236 349.677C315.356 356.373 322.166 361.333 329.816 363.145C337.942 365.358 346.717 363.965 354.233 360.341C360.203 357.403 365.583 353.435 370.943 349.525C378.478 343.802 385.688 337.564 391.907 330.449C392.918 329.781 393.414 328.599 394.139 327.664C394.826 327.549 395.207 326.901 395.665 326.443C399.766 321.655 403.295 316.314 405.584 310.438C408.427 303.323 409.19 295.407 407.893 287.872C406.576 280.928 403.105 274.5 398.374 269.311C391.392 261.643 382.293 256.282 372.908 252.067C365.01 248.538 356.369 246.382 347.69 246.706ZM373.823 246.306C382.465 250.121 390.915 254.661 398.011 260.994C404.65 266.736 410.086 274.137 412.585 282.626C414.932 290.771 415.313 299.508 413.405 307.787C411.46 316.295 407.13 324.097 401.712 330.85C390.896 343.859 377.886 355.019 363.427 363.812C356.827 367.666 349.464 370.451 341.795 370.966C334.089 371.557 326.306 369.611 319.534 365.968C312.19 362.363 306.162 356.163 302.728 348.743C299.008 340.941 297.826 332.223 297.749 323.658C297.539 307.425 298.684 291.019 303.205 275.358C305.475 267.48 309.729 260.117 315.795 254.566C321.441 249.282 328.423 245.581 335.691 243.025C348.205 238.866 361.939 241.27 373.823 246.306Z" fill="#FFB510"/>
</g>
</g>
</g>
</g>
<mask id="mask43_1_59307" style="mask-type:luminance" maskUnits="userSpaceOnUse" x="322" y="244" width="89" height="89">
<path d="M322.204 244.17H410.105V332.071H322.204V244.17Z" fill="white"/>
</mask>
<g mask="url(#mask43_1_59307)">
<mask id="mask44_1_59307" style="mask-type:luminance" maskUnits="userSpaceOnUse" x="-209" y="-87" width="699" height="664">
<path d="M4.15424 -86.7949L489.766 162.201L277.529 576.106L-208.083 327.092L4.15424 -86.7949Z" fill="white"/>
</mask>
<g mask="url(#mask44_1_59307)">
<mask id="mask45_1_59307" style="mask-type:luminance" maskUnits="userSpaceOnUse" x="-209" y="-87" width="699" height="664">
<path d="M4.15424 -86.7949L489.766 162.201L277.529 576.106L-208.083 327.092L4.15424 -86.7949Z" fill="white"/>
</mask>
<g mask="url(#mask45_1_59307)">
<path d="M347.69 246.707C356.369 246.383 365.011 248.538 372.908 252.067C382.293 256.283 391.392 261.643 398.374 269.312C403.105 274.5 406.577 280.929 407.893 287.872C409.19 295.407 408.427 303.324 405.585 310.439C403.296 316.314 399.767 321.655 395.665 326.443C395.208 326.901 394.826 327.55 394.139 327.664C398.393 321.255 401.808 314.082 402.704 306.376C403.734 298.44 402.323 290.161 398.45 283.122C394.94 276.618 389.599 271.238 383.552 267.022C374.835 260.804 365.354 255.291 354.92 252.544C348.167 250.789 340.975 250.331 334.146 251.991C331.323 252.639 328.576 253.65 325.905 254.795C326.039 253.956 326.859 253.631 327.47 253.212C333.555 249.492 340.517 246.974 347.69 246.707Z" fill="#FFB510"/>
</g>
</g>
</g>
<mask id="mask46_1_59307" style="mask-type:luminance" maskUnits="userSpaceOnUse" x="302" y="249" width="104" height="103">
<path d="M302.671 249.053H405.223V351.604H302.671V249.053Z" fill="white"/>
</mask>
<g mask="url(#mask46_1_59307)">
<mask id="mask47_1_59307" style="mask-type:luminance" maskUnits="userSpaceOnUse" x="-209" y="-87" width="699" height="664">
<path d="M4.15411 -86.7949L489.765 162.201L277.529 576.106L-208.083 327.092L4.15411 -86.7949Z" fill="white"/>
</mask>
<g mask="url(#mask47_1_59307)">
<mask id="mask48_1_59307" style="mask-type:luminance" maskUnits="userSpaceOnUse" x="-209" y="-87" width="699" height="664">
<path d="M4.15411 -86.7949L489.765 162.201L277.529 576.106L-208.083 327.092L4.15411 -86.7949Z" fill="white"/>
</mask>
<g mask="url(#mask48_1_59307)">
<path d="M383.858 273.928C388.302 283.122 391.698 292.984 392.48 303.228C393.033 309.866 392.289 316.543 390.668 322.991C394.178 318.241 396.619 312.747 397.974 307.024C399.137 301.511 398.412 295.769 396.657 290.447C394.502 283.637 389.447 278.163 383.858 273.928ZM354.92 252.544C365.354 255.291 374.835 260.804 383.552 267.022C389.599 271.238 394.922 276.617 398.451 283.122C402.323 290.161 403.735 298.44 402.724 306.376C401.808 314.082 398.393 321.255 394.139 327.664C393.415 328.599 392.919 329.781 391.908 330.449C389.237 331.823 386.833 333.635 384.239 335.161C376.838 339.796 368.712 343.306 360.242 345.443C352.097 347.274 343.455 347.312 335.424 344.928C326.211 342.162 318.313 335.638 313.487 327.359C310.321 321.865 307.917 315.875 306.773 309.618C306.582 308.665 306.238 307.749 305.8 306.891C305.762 306.795 305.685 306.643 305.647 306.566C306.525 297.925 307.307 289.226 309.405 280.757C310.836 274.386 313.01 268.052 317.054 262.826C319.534 259.735 322.3 256.607 325.906 254.795C328.576 253.65 331.304 252.639 334.146 251.991C340.975 250.331 348.167 250.789 354.92 252.544Z" fill="#FFB510"/>
</g>
</g>
</g>
<mask id="mask49_1_59307" style="mask-type:luminance" maskUnits="userSpaceOnUse" x="380" y="273" width="21" height="55">
<path d="M380.806 273.47H400.34V327.188H380.806V273.47Z" fill="white"/>
</mask>
<g mask="url(#mask49_1_59307)">
<mask id="mask50_1_59307" style="mask-type:luminance" maskUnits="userSpaceOnUse" x="-209" y="-87" width="699" height="664">
<path d="M4.1535 -86.7947L489.765 162.201L277.528 576.107L-208.083 327.092L4.1535 -86.7947Z" fill="white"/>
</mask>
<g mask="url(#mask50_1_59307)">
<mask id="mask51_1_59307" style="mask-type:luminance" maskUnits="userSpaceOnUse" x="-209" y="-87" width="699" height="664">
<path d="M4.1535 -86.7947L489.765 162.201L277.528 576.107L-208.083 327.092L4.1535 -86.7947Z" fill="white"/>
</mask>
<g mask="url(#mask51_1_59307)">
<path d="M383.856 273.928C389.445 278.163 394.5 283.638 396.656 290.467C398.411 295.77 399.136 301.512 397.972 307.025C396.618 312.747 394.176 318.241 390.666 322.991C392.288 316.543 393.032 309.867 392.478 303.228C391.696 292.985 388.301 283.123 383.856 273.928Z" fill="#FFB510"/>
</g>
</g>
</g>
<mask id="mask52_1_59307" style="mask-type:luminance" maskUnits="userSpaceOnUse" x="302" y="302" width="94" height="65">
<path d="M302.671 302.771H395.456V366.255H302.671V302.771Z" fill="white"/>
</mask>
<g mask="url(#mask52_1_59307)">
<mask id="mask53_1_59307" style="mask-type:luminance" maskUnits="userSpaceOnUse" x="-209" y="-87" width="699" height="664">
<path d="M4.15411 -86.7943L489.765 162.201L277.529 576.107L-208.083 327.092L4.15411 -86.7943Z" fill="white"/>
</mask>
<g mask="url(#mask53_1_59307)">
<mask id="mask54_1_59307" style="mask-type:luminance" maskUnits="userSpaceOnUse" x="-209" y="-87" width="699" height="664">
<path d="M4.15411 -86.7943L489.765 162.201L277.529 576.107L-208.083 327.092L4.15411 -86.7943Z" fill="white"/>
</mask>
<g mask="url(#mask54_1_59307)">
<path d="M384.24 335.162C386.834 333.636 389.237 331.823 391.908 330.45C385.689 337.565 378.479 343.803 370.944 349.526C365.584 353.436 360.204 357.404 354.233 360.342C346.718 363.966 337.943 365.359 329.817 363.146C322.167 361.334 315.357 356.374 311.237 349.678C307.212 343.231 305.724 335.524 305.4 328.008C305.266 320.969 305.171 313.892 305.8 306.891C306.239 307.75 306.563 308.665 306.773 309.619C307.918 315.876 310.321 321.866 313.507 327.36C318.314 335.639 326.211 342.162 335.425 344.928C343.456 347.313 352.097 347.275 360.223 345.443C368.712 343.307 376.838 339.797 384.24 335.162Z" fill="#FFB510"/>
</g>
</g>
</g>
<mask id="mask55_1_59307" style="mask-type:luminance" maskUnits="userSpaceOnUse" x="-64" y="170" width="348" height="285">
<path d="M-63.5841 170.918H283.137V454.155H-63.5841V170.918Z" fill="white"/>
</mask>
<g mask="url(#mask55_1_59307)">
<mask id="mask56_1_59307" style="mask-type:luminance" maskUnits="userSpaceOnUse" x="-209" y="-87" width="699" height="664">
<path d="M4.15356 -86.7954L489.765 162.2L277.528 576.106L-208.083 327.091L4.15356 -86.7954Z" fill="white"/>
</mask>
<g mask="url(#mask56_1_59307)">
<mask id="mask57_1_59307" style="mask-type:luminance" maskUnits="userSpaceOnUse" x="-209" y="-87" width="699" height="664">
<path d="M4.15356 -86.7954L489.765 162.2L277.528 576.106L-208.083 327.091L4.15356 -86.7954Z" fill="white"/>
</mask>
<g mask="url(#mask57_1_59307)">
<mask id="mask58_1_59307" style="mask-type:luminance" maskUnits="userSpaceOnUse" x="-124" y="138" width="441" height="397">
<path d="M-4.6207 138.127L316.825 302.96L198.002 534.654L-123.424 369.821L-4.6207 138.127Z" fill="white"/>
</mask>
<g mask="url(#mask58_1_59307)">
<path d="M64.8719 182.631C64.2233 182.421 63.5557 182.363 62.888 182.402C58.0619 180.666 53.0449 179.311 47.8945 179.292C36.9832 178.873 26.2817 181.677 16.0189 185.072C7.94987 187.59 0.300491 191.291 -6.96737 195.564C-7.42519 195.85 -7.92115 196.117 -8.26452 196.556C-11.164 198.006 -13.7011 200.066 -16.3526 201.954C-28.4467 211.263 -38.7285 223.166 -45.1952 237.073C-51.9671 251.647 -55.0573 268.014 -53.7602 284.056C-52.8827 296.761 -49.2583 309.16 -43.9552 320.701C-37.1452 335.427 -27.0923 348.456 -15.5515 359.787C-8.15007 366.921 -0.996658 374.304 5.88969 381.934C16.1143 393.608 25.7094 405.988 33.0917 419.704C37.0595 426.857 40.3405 434.335 43.6024 441.794C56.7456 437.387 70.6137 435.537 84.4436 435.327C102.279 435.079 120.058 437.139 137.608 440.172C146.421 441.832 155.329 443.091 164.295 443.377C178.621 443.949 193.023 441.927 206.643 437.521C209.218 436.643 211.965 436.185 214.388 434.869L213.758 434.678C228.446 428.536 241.742 418.826 251.604 406.275C257.041 398.988 262.096 391.224 264.957 382.525C265.835 380.999 266.388 379.34 266.922 377.68C274.171 355.495 272.893 331.078 265.205 309.198C261.047 296.112 253.264 284.285 243.097 275.11C229.667 262.863 212.118 255.252 194.015 253.688C177.686 252.295 161.014 256.091 146.745 264.103C139.744 267.956 133.545 273.031 126.925 277.475C126.506 268.376 127.211 259.182 125.666 250.159C123.396 235.165 116.872 220.801 107.087 209.222C96.1752 196.327 81.1817 186.98 64.8719 182.631ZM55.2577 174.962C64.8147 176.412 74.2572 178.987 82.9939 183.184C97.9302 190.223 111.264 201 120.668 214.64C129.462 227.344 135.28 242.166 137.112 257.541C154.413 248.022 174.729 244.054 194.32 246.515C213.72 249.148 232.414 257.598 246.835 270.894C253.13 276.56 258.72 283.045 263.183 290.256C270.337 301.816 274.724 314.921 277.395 328.198C280.981 346.415 280.104 365.624 274.228 383.288C268.582 400.342 258.033 415.717 244.127 427.105C233.025 436.586 219.653 443.11 205.784 447.421C183.218 454.059 159.049 453.697 136.196 448.794C118.914 445.704 101.383 443.453 83.7951 443.72C74.4289 443.968 65.0245 444.941 55.9254 447.326C50.0691 448.756 44.4609 450.988 38.7954 453.01C36.0294 446.219 33.4732 439.352 30.3066 432.733C26.3007 424.206 21.6272 415.984 16.1715 408.297C5.966 393.99 -6.10896 381.133 -18.699 368.924C-33.1393 355.724 -45.4241 339.948 -53.4168 322.036C-58.1094 311.411 -61.3523 300.099 -62.6876 288.539C-64.3091 274.766 -62.9165 260.688 -58.9297 247.412C-54.1417 231.445 -44.8518 216.948 -32.7578 205.483C-20.6065 193.637 -5.44131 185.168 10.6014 179.826C16.9345 177.785 23.3822 175.916 29.9824 174.962C38.3375 173.779 46.8835 173.722 55.2577 174.962Z" fill="#FFB510"/>
</g>
</g>
</g>
</g>
<mask id="mask59_1_59307" style="mask-type:luminance" maskUnits="userSpaceOnUse" x="-40" y="214" width="285" height="216">
<path d="M-39.1665 214.869H244.07V429.739H-39.1665V214.869Z" fill="white"/>
</mask>
<g mask="url(#mask59_1_59307)">
<mask id="mask60_1_59307" style="mask-type:luminance" maskUnits="userSpaceOnUse" x="-209" y="-87" width="699" height="664">
<path d="M4.1543 -86.7949L489.766 162.201L277.529 576.106L-208.082 327.092L4.1543 -86.7949Z" fill="white"/>
</mask>
<g mask="url(#mask60_1_59307)">
<mask id="mask61_1_59307" style="mask-type:luminance" maskUnits="userSpaceOnUse" x="-209" y="-87" width="699" height="664">
<path d="M4.1543 -86.7949L489.766 162.201L277.529 576.106L-208.082 327.092L4.1543 -86.7949Z" fill="white"/>
</mask>
<g mask="url(#mask61_1_59307)">
<path d="M31.3194 221.145C25.692 221.984 20.1601 223.415 14.7616 225.246C6.31108 228.298 -1.87242 232.4 -8.79692 238.18C-14.9584 243.311 -20.4713 249.339 -24.3246 256.416C-29.1126 264.809 -31.4017 274.443 -31.7641 284.057C-32.0693 295.35 -29.4178 306.604 -24.7442 316.848C-20.5094 326.062 -14.8439 334.589 -8.18649 342.238C-2.7499 348.609 3.60232 354.103 9.72564 359.807C21.1329 370.737 32.2159 382.163 41.3723 395.078C46.5991 402.517 51.1009 410.453 55.0878 418.617C71.1305 414.745 87.879 415.012 104.17 416.9C115.329 418.178 126.431 420.086 137.419 422.509C153.404 425.904 170.134 426.629 186.157 423.024C199.911 419.762 213.111 412.99 222.649 402.403C229.993 394.257 234.915 384.014 236.842 373.236C239.894 358.109 236.956 342.352 231.176 328.236C228.83 322.17 225.434 316.543 221.39 311.469C208.857 296.075 190.049 286.06 170.343 284.038C162.084 283.237 153.748 284.152 145.736 286.193C139.46 287.815 133.47 290.543 128.014 294.053C123.245 297.105 118.496 300.195 113.727 303.266C113.46 297.734 113.097 292.202 112.849 286.67C112.201 273.298 107.165 260.308 99.1337 249.663C94.2694 243.158 88.1079 237.703 81.3742 233.163C66.8003 223.491 48.7546 218.703 31.3194 221.145ZM49.5176 215.747C66.8575 217.978 83.3008 226.353 95.3376 239.038C99.7632 243.807 103.597 249.186 106.554 254.985C108.9 260.04 111.17 265.21 112.258 270.704C113.746 276.579 114.013 282.645 114.223 288.673C114.566 292.755 114.451 296.876 114.967 300.958C119.335 298.23 123.57 295.292 127.881 292.469C133.451 288.654 139.479 285.526 145.888 283.389C152.546 281.501 159.413 280.127 166.376 280.051C175.513 279.841 184.612 281.691 193.158 284.896C209.811 291.191 224.519 303.381 232.683 319.347C235.544 324.993 237.414 331.06 239.245 337.087C241.134 344.031 242.106 351.204 242.24 358.395C242.335 367.17 240.752 375.945 237.605 384.109C234.552 392.483 229.402 399.961 223.279 406.352C216.488 413.162 208.209 418.446 199.281 422.013C193.273 424.645 186.882 426.286 180.415 427.259C171.717 428.727 162.828 428.842 154.053 428.174C150.867 427.964 147.72 427.297 144.515 427.239C134.557 425.103 124.562 423.043 114.471 421.612C106.936 420.716 99.4007 419.762 91.8277 419.361C78.818 418.808 65.6939 419.571 53.0085 422.623C46.7517 409.556 39.1595 397.1 29.8315 386.017C23.6319 378.596 17.0889 371.462 10.1262 364.728C4.00291 358.643 -2.63545 353.092 -8.43448 346.663C-20.8337 333.196 -30.5051 316.676 -33.7861 298.497C-36.3423 285.125 -34.7972 271.009 -29.3033 258.572C-25.7362 250.598 -20.4903 243.406 -14.0618 237.493C-3.57016 227.535 9.82101 221.031 23.7654 217.559C32.1396 215.403 40.9145 214.564 49.5176 215.747Z" fill="#FFB510"/>
</g>
</g>
</g>
<mask id="mask62_1_59307" style="mask-type:luminance" maskUnits="userSpaceOnUse" x="58" y="180" width="216" height="206">
<path d="M58.5006 180.685H273.37V385.788H58.5006V180.685Z" fill="white"/>
</mask>
<g mask="url(#mask62_1_59307)">
<mask id="mask63_1_59307" style="mask-type:luminance" maskUnits="userSpaceOnUse" x="-209" y="-87" width="699" height="664">
<path d="M4.15387 -86.7954L489.765 162.2L277.528 576.106L-208.083 327.091L4.15387 -86.7954Z" fill="white"/>
</mask>
<g mask="url(#mask63_1_59307)">
<mask id="mask64_1_59307" style="mask-type:luminance" maskUnits="userSpaceOnUse" x="-209" y="-87" width="699" height="664">
<path d="M4.15387 -86.7954L489.765 162.2L277.528 576.106L-208.083 327.091L4.15387 -86.7954Z" fill="white"/>
</mask>
<g mask="url(#mask64_1_59307)">
<path d="M64.8719 182.631C81.1817 186.98 96.1752 196.327 107.087 209.222C116.872 220.801 123.396 235.165 125.685 250.159C127.211 259.182 126.506 268.376 126.925 277.475C133.545 273.031 139.744 267.957 146.745 264.103C161.014 256.091 177.686 252.295 194.015 253.688C212.118 255.252 229.667 262.863 243.097 275.11C253.264 284.285 261.066 296.112 265.205 309.198C272.893 331.078 274.171 355.495 266.922 377.68C266.388 379.34 265.835 380.999 264.957 382.525C269.555 368.543 270.051 353.473 268.029 338.956C265.835 324.116 260.742 309.561 252.272 297.123C247.484 290.027 241.532 283.694 234.703 278.505C231.06 275.758 227.054 273.546 223.029 271.428C207.177 262.882 188.845 259.01 170.914 260.555C152.697 262.043 135.967 271.543 123.167 284.247C122.786 282.263 123.148 280.279 123.11 278.296C123.148 265.648 121.718 252.944 118.055 240.831C114.431 228.851 108.403 217.597 100.296 208.078C93.9625 200.772 86.5229 194.419 78.1296 189.612C73.2271 186.865 68.153 184.386 62.8881 182.402C63.5557 182.364 64.2234 182.421 64.8719 182.631Z" fill="#FFB510"/>
</g>
</g>
</g>
<mask id="mask65_1_59307" style="mask-type:luminance" maskUnits="userSpaceOnUse" x="-30" y="175" width="304" height="265">
<path d="M-29.3994 175.802H273.371V439.505H-29.3994V175.802Z" fill="white"/>
</mask>
<g mask="url(#mask65_1_59307)">
<mask id="mask66_1_59307" style="mask-type:luminance" maskUnits="userSpaceOnUse" x="-209" y="-87" width="699" height="664">
<path d="M4.15416 -86.7953L489.766 162.2L277.529 576.106L-208.083 327.091L4.15416 -86.7953Z" fill="white"/>
</mask>
<g mask="url(#mask66_1_59307)">
<mask id="mask67_1_59307" style="mask-type:luminance" maskUnits="userSpaceOnUse" x="-209" y="-87" width="699" height="664">
<path d="M4.15416 -86.7953L489.766 162.2L277.529 576.106L-208.083 327.091L4.15416 -86.7953Z" fill="white"/>
</mask>
<g mask="url(#mask67_1_59307)">
<path d="M214.254 274.614C216.887 277.056 219.71 279.288 222.285 281.825C234.112 293.232 243.764 306.814 251.147 321.483C256.927 333.005 259.216 346.091 258.51 358.91C258.186 368.543 256.087 378.005 253.55 387.256C259.197 377.642 261.963 366.578 262.764 355.514C263.947 339.643 260.398 323.467 252.73 309.523C244.203 294.071 230.202 281.958 214.254 274.614ZM62.8882 182.402C68.1531 184.386 73.2272 186.866 78.1297 189.612C86.523 194.42 93.9626 200.772 100.296 208.078C108.403 217.597 114.431 228.851 118.055 240.831C121.718 252.944 123.148 265.648 123.11 278.296C123.148 280.279 122.786 282.263 123.168 284.228C135.967 271.543 152.697 262.043 170.914 260.555C188.845 259.01 207.177 262.882 223.029 271.428C227.054 273.546 231.06 275.759 234.703 278.505C241.533 283.694 247.484 290.027 252.272 297.123C260.742 309.561 265.835 324.116 268.029 338.956C270.051 353.473 269.555 368.543 264.958 382.525C262.096 391.224 257.041 398.988 251.605 406.275C241.742 418.827 228.447 428.536 213.758 434.679C208.722 435.003 203.667 434.812 198.631 434.679C181.597 434.278 164.657 431.913 148.004 428.345C146.821 428.059 145.677 427.621 144.513 427.258C147.718 427.296 150.866 427.964 154.051 428.174C162.845 428.841 171.715 428.727 180.414 427.258C186.881 426.285 193.29 424.645 199.299 422.012C208.207 418.445 216.486 413.161 223.277 406.351C229.4 399.961 234.57 392.483 237.603 384.109C240.75 375.944 242.334 367.17 242.238 358.395C242.105 351.203 241.132 344.031 239.243 337.087C237.412 331.059 235.543 324.993 232.681 319.347C224.517 303.38 209.829 291.191 193.156 284.896C184.611 281.691 175.511 279.841 166.374 280.051C159.431 280.127 152.563 281.5 145.887 283.389C139.477 285.525 133.449 288.654 127.879 292.469C123.568 295.292 119.333 298.23 114.965 300.958C114.45 296.875 114.564 292.755 114.221 288.673C114.011 282.645 113.744 276.579 112.256 270.703C111.169 265.21 108.899 260.04 106.553 254.985C103.596 249.186 99.7616 243.807 95.336 239.038C83.2992 226.352 66.8559 217.978 49.5161 215.746C40.9129 214.564 32.1381 215.403 23.7638 217.558C9.81944 221.03 -3.57174 227.535 -14.0634 237.493C-20.4728 243.406 -25.7378 250.598 -29.3049 258.571C-29.0188 254.928 -29.2477 251.265 -28.828 247.641C-27.55 232.933 -22.4758 218.665 -14.7501 206.113C-12.7662 202.813 -10.3055 199.818 -8.26437 196.556C-7.921 196.117 -7.42503 195.85 -6.96722 195.564C0.300642 191.291 7.95002 187.59 16.0191 185.072C26.2818 181.677 36.9833 178.873 47.8946 179.292C53.0451 179.312 58.062 180.666 62.8882 182.402Z" fill="#FFB510"/>
</g>
</g>
</g>
<mask id="mask68_1_59307" style="mask-type:luminance" maskUnits="userSpaceOnUse" x="209" y="273" width="55" height="118">
<path d="M209.886 273.47H263.604V390.672H209.886V273.47Z" fill="white"/>
</mask>
<g mask="url(#mask68_1_59307)">
<mask id="mask69_1_59307" style="mask-type:luminance" maskUnits="userSpaceOnUse" x="-209" y="-87" width="699" height="664">
<path d="M4.15376 -86.7949L489.765 162.201L277.528 576.106L-208.083 327.092L4.15376 -86.7949Z" fill="white"/>
</mask>
<g mask="url(#mask69_1_59307)">
<mask id="mask70_1_59307" style="mask-type:luminance" maskUnits="userSpaceOnUse" x="-209" y="-87" width="699" height="664">
<path d="M4.15376 -86.7949L489.765 162.201L277.528 576.106L-208.083 327.092L4.15376 -86.7949Z" fill="white"/>
</mask>
<g mask="url(#mask70_1_59307)">
<path d="M214.254 274.614C230.201 281.958 244.203 294.072 252.73 309.523C260.398 323.467 263.946 339.643 262.764 355.515C261.963 366.559 259.197 377.642 253.55 387.257C256.087 378.005 258.186 368.543 258.51 358.91C259.216 346.091 256.927 333.005 251.147 321.483C243.764 306.814 234.112 293.232 222.285 281.825C219.71 279.288 216.887 277.056 214.254 274.614Z" fill="#FFB510"/>
</g>
</g>
</g>
<mask id="mask71_1_59307" style="mask-type:luminance" maskUnits="userSpaceOnUse" x="-59" y="195" width="274" height="250">
<path d="M-58.7006 195.336H214.769V444.389H-58.7006V195.336Z" fill="white"/>
</mask>
<g mask="url(#mask71_1_59307)">
<mask id="mask72_1_59307" style="mask-type:luminance" maskUnits="userSpaceOnUse" x="-209" y="-87" width="699" height="664">
<path d="M4.15448 -86.7948L489.766 162.201L277.529 576.107L-208.082 327.092L4.15448 -86.7948Z" fill="white"/>
</mask>
<g mask="url(#mask72_1_59307)">
<mask id="mask73_1_59307" style="mask-type:luminance" maskUnits="userSpaceOnUse" x="-209" y="-87" width="699" height="664">
<path d="M4.15448 -86.7948L489.766 162.201L277.529 576.107L-208.082 327.092L4.15448 -86.7948Z" fill="white"/>
</mask>
<g mask="url(#mask73_1_59307)">
<path d="M-8.26432 196.556C-10.3054 199.818 -12.7662 202.813 -14.7501 206.113C-22.4757 218.665 -27.5499 232.934 -28.828 247.641C-29.2476 251.266 -29.0187 254.928 -29.3049 258.572C-34.7987 271.009 -36.3438 285.125 -33.7877 298.497C-30.5066 316.676 -20.8352 333.196 -8.436 346.663C-2.63697 353.092 4.00139 358.643 10.1247 364.728C17.0873 371.462 23.6303 378.596 29.83 386.017C39.158 397.1 46.7501 409.556 53.007 422.623C65.6924 419.571 78.8165 418.808 91.8261 419.38C99.3992 419.762 106.934 420.716 114.469 421.612C124.56 423.043 134.556 425.103 144.513 427.259C145.677 427.621 146.822 428.06 148.004 428.346C164.657 431.913 181.597 434.278 198.631 434.66C203.667 434.812 208.722 435.003 213.758 434.679L214.388 434.87C211.965 436.186 209.218 436.644 206.643 437.521C193.004 441.928 178.621 443.95 164.295 443.378C155.329 443.091 146.421 441.832 137.608 440.173C120.058 437.14 102.261 435.08 84.4438 435.328C70.6139 435.537 56.7458 437.388 43.6026 441.794C40.3407 434.336 37.0597 426.858 33.0919 419.705C25.7096 405.989 16.1145 393.609 5.88988 381.935C-0.996456 374.304 -8.14987 366.922 -15.5513 359.788C-27.0921 348.457 -37.145 335.428 -43.955 320.701C-49.2581 309.161 -52.8825 296.761 -53.76 284.057C-55.0571 268.014 -51.9669 251.647 -45.195 237.073C-38.7283 223.167 -28.4465 211.264 -16.3524 201.955C-13.7009 200.066 -11.1638 198.006 -8.26432 196.556Z" fill="#FFB510"/>
</g>
</g>
</g>
</g>
</svg>
