<svg width="45" height="45" viewBox="0 0 45 45" fill="none" xmlns="http://www.w3.org/2000/svg">
<rect x="1" y="1" width="43" height="43" rx="21.5" fill="white" stroke="#E8E5FF" stroke-width="2"/>
<path d="M25.1578 15.3671C25.0659 15.275 24.9567 15.2019 24.8365 15.152C24.7162 15.1021 24.5873 15.0764 24.4572 15.0764C24.327 15.0764 24.1981 15.1021 24.0779 15.152C23.9577 15.2019 23.8485 15.275 23.7566 15.3671L17.1778 21.9459C17.1044 22.0191 17.0462 22.1061 17.0065 22.2019C16.9667 22.2977 16.9463 22.4003 16.9463 22.504C16.9463 22.6077 16.9667 22.7104 17.0065 22.8061C17.0462 22.9019 17.1044 22.9889 17.1778 23.0621L23.7566 29.6409C24.1445 30.0288 24.7699 30.0288 25.1578 29.6409C25.5457 29.253 25.5457 28.6276 25.1578 28.2396L19.4261 22.5001L25.1657 16.7605C25.5457 16.3805 25.5457 15.7471 25.1578 15.3671Z" fill="#1E232C" stroke="#1E232C" stroke-width="0.2"/>
</svg>
