<svg width="24" height="29" viewBox="0 0 24 29" fill="none" xmlns="http://www.w3.org/2000/svg">
<path d="M2.98065 16.9958L3.83736 17.5117L3.8396 17.5079L2.98065 16.9958ZM1.43743 19.5589L0.580727 19.0431L0.580576 19.0434L1.43743 19.5589ZM2.88672 23.4908L2.56612 24.438L2.56983 24.4393L2.88672 23.4908ZM20.6943 23.4908L20.3804 22.5413L20.3774 22.5424L20.6943 23.4908ZM22.1436 19.5589L23.0011 19.0444L23.0003 19.0431L22.1436 19.5589ZM20.6003 16.9958L19.7341 17.4956L19.7388 17.5037L19.7436 17.5117L20.6003 16.9958ZM14.2798 2.69084L14.001 3.65119C14.3669 3.75742 14.7614 3.64648 15.0183 3.36508C15.2752 3.08367 15.3499 2.68073 15.2109 2.32597L14.2798 2.69084ZM12.9915 2.42245L12.8675 3.41474L12.8712 3.41519L12.9915 2.42245ZM9.31464 2.69084L8.38358 2.32597C8.24453 2.68079 8.31924 3.0838 8.57624 3.3652C8.83323 3.6466 9.22783 3.75747 9.59378 3.65109L9.31464 2.69084ZM8.95231 26.8191L9.65943 26.112L9.65942 26.112L8.95231 26.8191ZM11.7972 2.30164V1.30164C6.80309 1.30164 2.74556 5.35916 2.74556 10.3533H3.74556H4.74556C4.74556 6.46374 7.90765 3.30164 11.7972 3.30164V2.30164ZM3.74556 10.3533H2.74556V14.2315H3.74556H4.74556V10.3533H3.74556ZM3.74556 14.2315H2.74556C2.74556 14.5203 2.68023 14.9423 2.55554 15.3915C2.43094 15.8403 2.26932 16.2362 2.12171 16.4838L2.98065 16.9958L3.8396 17.5079C4.10799 17.0577 4.32882 16.4806 4.48267 15.9264C4.63643 15.3725 4.74556 14.7612 4.74556 14.2315H3.74556ZM2.98065 16.9958L2.12395 16.48L0.580727 19.0431L1.43743 19.5589L2.29413 20.0748L3.83735 17.5117L2.98065 16.9958ZM1.43743 19.5589L0.580576 19.0434C-0.0371954 20.0701 -0.165937 21.2216 0.212813 22.2445C0.591126 23.2662 1.43732 24.056 2.56612 24.438L2.88672 23.4908L3.20732 22.5436C2.5916 22.3352 2.23676 21.9508 2.08836 21.55C1.9404 21.1504 1.95927 20.6313 2.29428 20.0745L1.43743 19.5589ZM2.88672 23.4908L2.56983 24.4393C8.55925 26.4404 15.0217 26.4404 21.0112 24.4393L20.6943 23.4908L20.3774 22.5424C14.7993 24.406 8.78169 24.406 3.20361 22.5424L2.88672 23.4908ZM20.6943 23.4908L21.0081 24.4403C23.244 23.7012 24.2144 21.0667 23.0011 19.0444L22.1436 19.5589L21.2861 20.0734C21.8441 21.0034 21.3921 22.2069 20.3804 22.5414L20.6943 23.4908ZM22.1436 19.5589L23.0003 19.0431L21.457 16.48L20.6003 16.9958L19.7436 17.5117L21.2869 20.0748L22.1436 19.5589ZM20.6003 16.9958L21.4665 16.4961C21.3214 16.2445 21.1615 15.8446 21.038 15.3945C20.9143 14.9432 20.8488 14.5206 20.8488 14.2315H19.8488H18.8488C18.8488 14.7609 18.9579 15.3716 19.1092 15.9234C19.2609 16.4763 19.4767 17.0494 19.7341 17.4956L20.6003 16.9958ZM19.8488 14.2315H20.8488V10.3533H19.8488H18.8488V14.2315H19.8488ZM19.8488 10.3533H20.8488C20.8488 5.37259 16.7779 1.30164 11.7972 1.30164V2.30164V3.30164C15.6733 3.30164 18.8488 6.47716 18.8488 10.3533H19.8488ZM14.2798 2.69084L14.5586 1.73049C14.0992 1.5971 13.6164 1.49087 13.1119 1.42972L12.9915 2.42245L12.8712 3.41519C13.2524 3.46139 13.6285 3.54303 14.001 3.65119L14.2798 2.69084ZM12.9915 2.42245L13.1156 1.43018C11.6999 1.25321 10.3276 1.35497 9.03549 1.73059L9.31464 2.69084L9.59378 3.65109C10.6098 3.35574 11.7067 3.26963 12.8675 3.41473L12.9915 2.42245ZM9.31464 2.69084L10.2457 3.05571C10.4889 2.43506 11.0929 2 11.7972 2V1V0C10.2471 0 8.91867 0.96056 8.38358 2.32597L9.31464 2.69084ZM11.7972 1V2C12.5016 2 13.1055 2.43505 13.3487 3.05571L14.2798 2.69084L15.2109 2.32597C14.6758 0.960561 13.3473 0 11.7972 0V1ZM15.823 23.9742H14.823C14.823 25.6361 13.4591 27 11.7972 27V28V29C14.5637 29 16.823 26.7407 16.823 23.9742H15.823ZM11.7972 28V27C10.9734 27 10.2047 26.6573 9.65943 26.112L8.95231 26.8191L8.24519 27.5262C9.14912 28.4301 10.4202 29 11.7972 29V28ZM8.95231 26.8191L9.65942 26.112C9.11407 25.5666 8.77141 24.7979 8.77141 23.9742H7.77141H6.77141C6.77141 25.3512 7.34126 26.6223 8.24521 27.5262L8.95231 26.8191Z" fill="#B4B4B4"/>
</svg>
