<svg width="1440" height="160" viewBox="0 0 1440 160" fill="none" xmlns="http://www.w3.org/2000/svg">
<path fill-rule="evenodd" clip-rule="evenodd" d="M1440 143.781L1380 149.772C1320 155.763 1200 167.745 1080 152.768C959.999 137.79 839.999 95.8542 719.999 89.8633C599.999 83.8724 479.999 113.827 359.999 116.822C239.999 119.818 119.999 95.8542 59.9991 83.8724L-0.000854492 71.8907V0H59.9991C119.999 0 239.999 0 359.999 0C479.999 0 599.999 0 719.999 0C839.999 0 959.999 0 1080 0C1200 0 1320 0 1380 0H1440V143.781Z" fill="#0C16E0"/>
</svg>
