<svg width="30" height="32" viewBox="0 0 30 32" fill="none" xmlns="http://www.w3.org/2000/svg">
<path d="M12.8926 1.5H16.5762C19.194 1.5 21.044 1.50213 22.4756 1.64844C23.8818 1.79216 24.7173 2.06277 25.3584 2.49316C25.9988 2.92312 26.549 3.47583 26.9775 4.12012C27.4073 4.76637 27.677 5.60854 27.8203 7.02344C27.966 8.46295 27.9678 10.3227 27.9678 12.9521C27.9678 15.582 27.9661 17.4422 27.8203 18.8818C27.677 20.2967 27.4073 21.1389 26.9775 21.7852C26.549 22.4294 25.9988 22.9822 25.3584 23.4121C24.7981 23.7882 24.0887 24.0425 22.9814 24.1963C21.8495 24.3535 20.4052 24.3936 18.4111 24.4023C17.8248 24.4049 17.3197 24.7445 17.0752 25.2363L15.0381 29.3281C14.9111 29.5827 14.5566 29.5828 14.4297 29.3281L12.3926 25.2363C12.1481 24.7447 11.6437 24.4051 11.0576 24.4023C9.06355 24.3936 7.6192 24.3535 6.4873 24.1963C5.37986 24.0425 4.67068 23.7882 4.11035 23.4121C3.46982 22.9821 2.91883 22.4296 2.49023 21.7852C2.06042 21.1389 1.79073 20.2967 1.64746 18.8818C1.5017 17.4422 1.5 15.5819 1.5 12.9521C1.5 10.3227 1.50174 8.46294 1.64746 7.02344C1.79071 5.60867 2.06049 4.76635 2.49023 4.12012C2.91883 3.47569 3.46982 2.92316 4.11035 2.49316C4.75143 2.06281 5.58618 1.79217 6.99219 1.64844C8.42383 1.50212 10.2745 1.5 12.8926 1.5Z" stroke="#FFC107" stroke-width="3" stroke-linecap="round" stroke-linejoin="round"/>
</svg>
