<svg width="9" height="16" viewBox="0 0 9 16" fill="none" xmlns="http://www.w3.org/2000/svg">
<path d="M0.391995 14.6646C0.483919 14.7568 0.593122 14.8299 0.713346 14.8798C0.833571 14.9296 0.962457 14.9553 1.09262 14.9553C1.22279 14.9553 1.35167 14.9296 1.4719 14.8798C1.59212 14.8299 1.70132 14.7568 1.79325 14.6646L8.372 8.08584C8.44539 8.01261 8.50361 7.92561 8.54334 7.82984C8.58307 7.73407 8.60352 7.6314 8.60352 7.52772C8.60352 7.42404 8.58307 7.32137 8.54334 7.2256C8.50361 7.12983 8.44539 7.04284 8.372 6.9696L1.79325 0.390844C1.40533 0.00292715 0.779914 0.0029271 0.391997 0.390844C0.0040801 0.77876 0.00408005 1.40418 0.391997 1.79209L6.12366 7.53168L0.384081 13.2713C0.00408089 13.6513 0.00407892 14.2846 0.391995 14.6646Z" fill="#1E232C" stroke="#1E232C" stroke-width="0.2"/>
</svg>
