<svg width="40" height="40" viewBox="0 0 40 40" fill="none" xmlns="http://www.w3.org/2000/svg">
<rect width="40" height="39.9988" rx="19.9994" fill="#FFB510"/>
<path d="M11.3844 30.4602H28.6152H11.3844ZM15.0767 20.614C14.6894 20.6142 14.3076 20.5231 13.9622 20.3479C13.6168 20.1728 13.3176 19.9187 13.0889 19.6061C12.8603 19.2936 12.7085 18.9316 12.6461 18.5494C12.5836 18.1672 12.6123 17.7757 12.7296 17.4066L9.58743 14.7359C9.36696 14.5503 9.08572 14.4527 8.7977 14.4618C8.50968 14.4709 8.23516 14.586 8.02682 14.7851C7.87896 14.9262 7.77403 15.1062 7.72415 15.3044C7.67428 15.5026 7.6815 15.7108 7.74497 15.9051L10.8219 25.0879C10.9857 25.5772 11.2991 26.0026 11.7179 26.304C12.1366 26.6055 12.6395 26.7678 13.1554 26.7679H26.8441C27.36 26.7678 27.8629 26.6055 28.2816 26.304C28.7004 26.0026 29.0138 25.5772 29.1776 25.0879L32.2545 15.9051C32.318 15.7108 32.3252 15.5026 32.2754 15.3044C32.2255 15.1062 32.1206 14.9262 31.9727 14.7851C31.7644 14.586 31.4898 14.4709 31.2018 14.4618C30.9138 14.4527 30.6326 14.5503 30.4121 14.7359L27.2699 17.4066C27.3446 17.6438 27.3827 17.8924 27.3844 18.1525C27.3843 18.5696 27.2783 18.9798 27.0763 19.3447C26.8742 19.7095 26.5828 20.0171 26.2293 20.2385C25.8758 20.4598 25.4719 20.5877 25.0554 20.6102C24.6389 20.6327 24.2236 20.5489 23.8483 20.3669C23.4731 20.1848 23.1503 19.9104 22.9102 19.5694C22.67 19.2283 22.5205 18.8319 22.4756 18.4173C22.4307 18.0026 22.4919 17.5833 22.6534 17.1988C22.815 16.8143 23.0716 16.4771 23.3991 16.219L20.8514 10.1057C20.7812 9.93772 20.6629 9.79425 20.5114 9.69333C20.3598 9.59242 20.1818 9.53857 19.9998 9.53857C19.8177 9.53857 19.6397 9.59242 19.4881 9.69333C19.3366 9.79425 19.2183 9.93772 19.1481 10.1057L16.6004 16.219C17.0023 16.5356 17.2955 16.9696 17.4393 17.4607C17.5831 17.9517 17.5704 18.4754 17.4028 18.9588C17.2352 19.4422 16.9211 19.8614 16.5042 20.1581C16.0873 20.4547 15.5883 20.6141 15.0767 20.614Z" fill="white"/>
<path d="M11.3844 30.4602H28.6152M15.0767 20.614C14.6894 20.6142 14.3076 20.5231 13.9622 20.3479C13.6168 20.1728 13.3176 19.9187 13.0889 19.6061C12.8603 19.2936 12.7085 18.9316 12.6461 18.5494C12.5836 18.1672 12.6123 17.7757 12.7296 17.4066L9.58743 14.7359C9.36696 14.5503 9.08572 14.4527 8.7977 14.4618C8.50968 14.4709 8.23516 14.586 8.02682 14.7851C7.87896 14.9262 7.77403 15.1062 7.72415 15.3044C7.67428 15.5026 7.6815 15.7108 7.74497 15.9051L10.8219 25.0879C10.9857 25.5772 11.2991 26.0026 11.7179 26.304C12.1366 26.6055 12.6395 26.7678 13.1554 26.7679H26.8441C27.36 26.7678 27.8629 26.6055 28.2816 26.304C28.7004 26.0026 29.0138 25.5772 29.1776 25.0879L32.2545 15.9051C32.318 15.7108 32.3252 15.5026 32.2754 15.3044C32.2255 15.1062 32.1206 14.9262 31.9727 14.7851C31.7644 14.586 31.4898 14.4709 31.2018 14.4618C30.9138 14.4527 30.6326 14.5503 30.4121 14.7359L27.2699 17.4066C27.3446 17.6438 27.3827 17.8924 27.3844 18.1525C27.3843 18.5696 27.2783 18.9798 27.0763 19.3447C26.8742 19.7095 26.5828 20.0171 26.2293 20.2385C25.8758 20.4598 25.4719 20.5877 25.0554 20.6102C24.6389 20.6327 24.2236 20.5489 23.8483 20.3669C23.4731 20.1848 23.1503 19.9104 22.9102 19.5694C22.67 19.2283 22.5205 18.8319 22.4756 18.4173C22.4307 18.0026 22.4919 17.5833 22.6534 17.1988C22.815 16.8143 23.0716 16.4771 23.3991 16.219L20.8514 10.1057C20.7812 9.93772 20.6629 9.79425 20.5114 9.69333C20.3598 9.59242 20.1818 9.53857 19.9998 9.53857C19.8177 9.53857 19.6397 9.59242 19.4881 9.69333C19.3366 9.79425 19.2183 9.93772 19.1481 10.1057L16.6004 16.219C17.0023 16.5356 17.2955 16.9696 17.4393 17.4607C17.5831 17.9517 17.5704 18.4754 17.4028 18.9588C17.2352 19.4422 16.9211 19.8614 16.5042 20.1581C16.0873 20.4547 15.5883 20.6141 15.0767 20.614Z" stroke="white" stroke-width="1.5" stroke-linecap="round" stroke-linejoin="round"/>
</svg>
