<svg width="42" height="36" viewBox="0 0 42 36" fill="none" xmlns="http://www.w3.org/2000/svg">
<path d="M6.93722 34.636H34.6394M12.8734 18.8062C12.2508 18.8065 11.6369 18.6599 11.0817 18.3784C10.5264 18.0968 10.0454 17.6882 9.6777 17.1858C9.31003 16.6834 9.0661 16.1013 8.96571 15.4868C8.86532 14.8724 8.91132 14.2429 9.09997 13.6496L4.04827 9.35578C3.69381 9.05747 3.24166 8.90057 2.77861 8.91517C2.31555 8.92978 1.8742 9.11487 1.53924 9.43493C1.30153 9.66174 1.13283 9.95118 1.05265 10.2698C0.972465 10.5884 0.984067 10.9233 1.08611 11.2356L6.03294 25.9989C6.29631 26.7855 6.8002 27.4694 7.4734 27.9541C8.1466 28.4387 8.95509 28.6996 9.78461 28.6998H31.792C32.6215 28.6996 33.43 28.4387 34.1032 27.9541C34.7764 27.4694 35.2803 26.7855 35.5437 25.9989L40.4905 11.2356C40.5926 10.9233 40.6042 10.5884 40.524 10.2698C40.4438 9.95118 40.2751 9.66174 40.0374 9.43493C39.7024 9.11487 39.2611 8.92978 38.798 8.91517C38.335 8.90057 37.8828 9.05747 37.5284 9.35578L32.4767 13.6496C32.5967 14.0309 32.6581 14.4306 32.6607 14.8487C32.6606 15.5193 32.4902 16.1788 32.1653 16.7654C31.8405 17.352 31.372 17.8465 30.8036 18.2024C30.2353 18.5582 29.5859 18.7639 28.9164 18.8C28.2468 18.8361 27.579 18.7015 26.9758 18.4088C26.3725 18.1161 25.8535 17.6749 25.4674 17.1267C25.0814 16.5784 24.841 15.941 24.7688 15.2744C24.6966 14.6077 24.795 13.9337 25.0547 13.3155C25.3144 12.6973 25.7269 12.1552 26.2536 11.7401L22.1576 1.9118C22.0447 1.64172 21.8545 1.41105 21.6109 1.24881C21.3672 1.08657 21.081 1 20.7883 1C20.4956 1 20.2094 1.08657 19.9658 1.24881C19.7221 1.41105 19.5319 1.64172 19.419 1.9118L15.3231 11.7401C15.9692 12.2492 16.4407 12.947 16.6719 13.7365C16.9031 14.5259 16.8825 15.3678 16.6131 16.145C16.3436 16.9222 15.8387 17.5962 15.1684 18.0731C14.4982 18.5501 13.696 18.8063 12.8734 18.8062Z" stroke="#FFC107" stroke-width="2" stroke-linecap="round" stroke-linejoin="round"/>
</svg>
