<svg width="312" height="777" viewBox="0 0 312 777" fill="none" xmlns="http://www.w3.org/2000/svg">
<path opacity="0.36" d="M-62.8187 410.255C-200.349 290.817 -79.7646 26.0348 102.03 61.0476C188.717 77.7431 294.725 181.309 258.904 276.445C256.833 281.945 254.229 287.175 250.812 291.969C210.085 349.101 141.485 305.823 86.3592 323.243C35.6692 339.259 2.92631 467.349 -62.8187 410.255Z" fill="#FFB510"/>
<path d="M-132.139 385.46C-236.538 236.192 -55.2465 8.63143 112.598 86.7546C192.633 124.007 270.308 250.222 212.451 333.808C209.106 338.639 205.31 343.081 200.83 346.901C147.445 392.429 91.4129 333.783 33.7063 337.291C-19.3556 340.515 -82.232 456.815 -132.139 385.46Z" stroke="#004AAD" stroke-width="1.6438" stroke-miterlimit="10" stroke-linecap="round" stroke-linejoin="round" stroke-dasharray="8.77 8.77"/>
<path d="M-13.5682 373C-11.7634 396.09 -8.44478 418.585 -0.679086 438.908C27.8878 513.658 189.135 534.968 131.747 649.759C90.0263 733.211 21.3936 772.458 -50 776" stroke="#004AAD" stroke-width="1.6438" stroke-miterlimit="10" stroke-linecap="round" stroke-linejoin="round" stroke-dasharray="8.77 8.77"/>
</svg>
