<svg width="38" height="34" viewBox="0 0 38 34" fill="none" xmlns="http://www.w3.org/2000/svg">
<mask id="mask0_373_9973" style="mask-type:luminance" maskUnits="userSpaceOnUse" x="23" y="4" width="10" height="13">
<path d="M23.0339 4.75488H32.1737V16.8196H23.0339V4.75488Z" fill="white"/>
</mask>
<g mask="url(#mask0_373_9973)">
<mask id="mask1_373_9973" style="mask-type:luminance" maskUnits="userSpaceOnUse" x="-9" y="-7" width="53" height="51">
<path d="M6.8989 -6.49902L43.2537 12.1422L27.3648 43.1295L-8.98999 24.4868L6.8989 -6.49902Z" fill="white"/>
</mask>
<g mask="url(#mask1_373_9973)">
<mask id="mask2_373_9973" style="mask-type:luminance" maskUnits="userSpaceOnUse" x="-9" y="-7" width="53" height="51">
<path d="M6.89841 -6.5L43.2532 12.1412L27.3643 43.1285L-8.99048 24.4859L6.89841 -6.5Z" fill="white"/>
</mask>
<g mask="url(#mask2_373_9973)">
<path d="M28.0157 5.28127C27.4959 5.3941 27.0346 5.68543 26.639 6.03104C26.2834 6.34237 25.9364 6.67083 25.6451 7.045L25.6908 7.03215C25.558 7.1821 25.4223 7.33062 25.2923 7.482C24.9253 7.90615 24.6783 8.41314 24.4384 8.91441C23.9999 9.9298 23.6315 10.9937 23.5458 12.1034C23.5401 12.1348 23.5429 12.1648 23.5529 12.1948C23.503 12.7032 23.5529 13.233 23.7486 13.7086C24.0685 14.4726 24.6983 15.0539 25.3709 15.5109C25.9436 15.9079 26.6248 16.1778 27.3302 16.1721C27.9814 16.175 28.6198 15.9565 29.1753 15.6251C29.6666 15.3395 30.1064 14.9668 30.4634 14.5241C30.8747 14.0056 31.1675 13.3973 31.3432 12.7589C31.4374 12.4261 31.5417 12.092 31.5631 11.7464C31.6202 11.545 31.5716 11.3294 31.5974 11.1237C31.6588 11.0223 31.6331 10.8981 31.6445 10.7852C31.6673 10.1254 31.6131 9.46423 31.4888 8.81444C31.3817 8.23891 31.2246 7.66909 30.979 7.13497C30.6748 6.46661 30.205 5.84824 29.5495 5.49692C29.0882 5.23557 28.5312 5.15417 28.0157 5.28127ZM29.5281 5.12133C29.7823 5.23843 30.035 5.36411 30.2607 5.53405C30.8048 5.93821 31.2089 6.50803 31.4845 7.12497C31.7816 7.78619 31.9572 8.4974 32.0658 9.21431C32.2543 10.4168 32.1957 11.6621 31.863 12.8346C31.6845 13.4458 31.4246 14.0385 31.049 14.5555C30.652 15.1082 30.1307 15.5694 29.5466 15.9165C29.1039 16.1821 28.6198 16.382 28.1128 16.4849C27.5473 16.602 26.9532 16.582 26.3991 16.4177C25.8193 16.2592 25.2938 15.9493 24.8154 15.5909C24.0885 15.0467 23.4387 14.3241 23.2016 13.4287C22.9717 12.5204 23.0702 11.5636 23.293 10.6639C23.7057 9.06721 24.4669 7.53484 25.6379 6.35665C26.0664 5.92821 26.5305 5.52548 27.0689 5.23986C27.5344 4.99422 28.0628 4.84855 28.5912 4.88426C28.9154 4.89854 29.2324 4.99137 29.5281 5.12133Z" fill="#FFC107"/>
</g>
</g>
</g>
<mask id="mask3_373_9973" style="mask-type:luminance" maskUnits="userSpaceOnUse" x="25" y="5" width="7" height="7">
<path d="M25.5918 5.12012H31.8068V11.3353H25.5918V5.12012Z" fill="white"/>
</mask>
<g mask="url(#mask3_373_9973)">
<mask id="mask4_373_9973" style="mask-type:luminance" maskUnits="userSpaceOnUse" x="-9" y="-7" width="53" height="51">
<path d="M6.89866 -6.49805L43.2535 12.1432L27.3646 43.1305L-8.99023 24.4878L6.89866 -6.49805Z" fill="white"/>
</mask>
<g mask="url(#mask4_373_9973)">
<mask id="mask5_373_9973" style="mask-type:luminance" maskUnits="userSpaceOnUse" x="-9" y="-7" width="53" height="51">
<path d="M6.89866 -6.49707L43.2535 12.1441L27.3646 43.1315L-8.99023 24.4888L6.89866 -6.49707Z" fill="white"/>
</mask>
<g mask="url(#mask5_373_9973)">
<path d="M28.0132 5.2816C28.5287 5.1545 29.0857 5.2359 29.547 5.49725C30.2025 5.84856 30.6737 6.46694 30.9765 7.1353C31.2207 7.66941 31.3792 8.23923 31.4863 8.81619C31.6106 9.46456 31.6648 10.1258 31.642 10.7856C31.6305 10.8984 31.6563 11.0226 31.5948 11.124C31.6034 10.0215 31.3835 8.90902 30.8837 7.92219C30.5523 7.27097 30.0782 6.68259 29.467 6.27843C29.1899 6.10705 28.9015 5.94139 28.5802 5.86856C28.156 5.76859 27.709 5.83428 27.3034 5.97567C26.6894 6.18988 26.1453 6.57405 25.6897 7.03247L25.6426 7.04533C25.9339 6.67116 26.2809 6.34269 26.6365 6.03136C27.0335 5.68576 27.4934 5.39442 28.0132 5.2816Z" fill="#FFC107"/>
</g>
</g>
</g>
<mask id="mask6_373_9973" style="mask-type:luminance" maskUnits="userSpaceOnUse" x="23" y="5" width="9" height="10">
<path d="M23.3984 5.48535H31.807V14.9909H23.3984V5.48535Z" fill="white"/>
</mask>
<g mask="url(#mask6_373_9973)">
<mask id="mask7_373_9973" style="mask-type:luminance" maskUnits="userSpaceOnUse" x="-9" y="-7" width="53" height="51">
<path d="M6.89866 -6.49902L43.2535 12.1422L27.3646 43.1295L-8.99023 24.4868L6.89866 -6.49902Z" fill="white"/>
</mask>
<g mask="url(#mask7_373_9973)">
<mask id="mask8_373_9973" style="mask-type:luminance" maskUnits="userSpaceOnUse" x="-9" y="-7" width="53" height="51">
<path d="M6.89817 -6.5L43.253 12.1412L27.3641 43.1285L-8.99072 24.4859L6.89817 -6.5Z" fill="white"/>
</mask>
<g mask="url(#mask8_373_9973)">
<path d="M28.8159 6.34155C29.1958 6.69287 29.5514 7.07275 29.8513 7.49547C30.5411 8.44517 30.9766 9.55625 31.2423 10.6945C31.2865 9.75047 31.1323 8.77078 30.6382 7.95104C30.2155 7.24269 29.5557 6.6943 28.8159 6.34155ZM28.5803 5.86742C28.9002 5.94025 29.1901 6.10591 29.4657 6.27729C30.0784 6.68144 30.5525 7.26983 30.8824 7.92105C31.3836 8.90788 31.6036 10.0204 31.595 11.1215C31.5693 11.3285 31.6178 11.5442 31.5607 11.7456C31.4365 11.994 31.3337 12.2525 31.1937 12.4939C30.6267 13.525 29.6399 14.329 28.4989 14.6346C27.8177 14.8089 27.0894 14.8231 26.4053 14.6532C25.4214 14.419 24.5445 13.7892 23.9833 12.9509C23.8133 12.7138 23.692 12.4482 23.5506 12.194C23.5406 12.164 23.5377 12.134 23.5434 12.1026C23.6291 10.9929 23.9976 9.92899 24.436 8.91359C24.6759 8.41232 24.923 7.90534 25.29 7.48119C25.4199 7.32981 25.5556 7.18129 25.6899 7.03133C26.1454 6.57291 26.6895 6.18874 27.3036 5.97453C27.7092 5.83314 28.1562 5.76745 28.5803 5.86742Z" fill="#FFC107"/>
</g>
</g>
</g>
<mask id="mask9_373_9973" style="mask-type:luminance" maskUnits="userSpaceOnUse" x="28" y="6" width="4" height="5">
<path d="M28.5176 6.21582H31.4423V10.9686H28.5176V6.21582Z" fill="white"/>
</mask>
<g mask="url(#mask9_373_9973)">
<mask id="mask10_373_9973" style="mask-type:luminance" maskUnits="userSpaceOnUse" x="-9" y="-7" width="53" height="51">
<path d="M6.89866 -6.49805L43.2535 12.1432L27.3646 43.1305L-8.99023 24.4878L6.89866 -6.49805Z" fill="white"/>
</mask>
<g mask="url(#mask10_373_9973)">
<mask id="mask11_373_9973" style="mask-type:luminance" maskUnits="userSpaceOnUse" x="-9" y="-7" width="53" height="51">
<path d="M6.89866 -6.49707L43.2535 12.1441L27.3646 43.1315L-8.99023 24.4888L6.89866 -6.49707Z" fill="white"/>
</mask>
<g mask="url(#mask11_373_9973)">
<path d="M28.8164 6.34375C29.5562 6.6965 30.2159 7.24489 30.6386 7.95324C31.1328 8.77298 31.287 9.75267 31.2427 10.6967C30.9771 9.55844 30.5415 8.44737 29.8532 7.49767C29.5519 7.07495 29.1963 6.69507 28.8164 6.34375Z" fill="#FFC107"/>
</g>
</g>
</g>
<mask id="mask12_373_9973" style="mask-type:luminance" maskUnits="userSpaceOnUse" x="23" y="11" width="9" height="6">
<path d="M23.3984 11.6992H31.807V16.452H23.3984V11.6992Z" fill="white"/>
</mask>
<g mask="url(#mask12_373_9973)">
<mask id="mask13_373_9973" style="mask-type:luminance" maskUnits="userSpaceOnUse" x="-9" y="-7" width="53" height="51">
<path d="M6.89866 -6.5L43.2535 12.1412L27.3646 43.1285L-8.99023 24.4859L6.89866 -6.5Z" fill="white"/>
</mask>
<g mask="url(#mask13_373_9973)">
<mask id="mask14_373_9973" style="mask-type:luminance" maskUnits="userSpaceOnUse" x="-9" y="-7" width="53" height="51">
<path d="M6.89841 -6.50098L43.2532 12.1402L27.3643 43.1275L-8.99048 24.4849L6.89841 -6.50098Z" fill="white"/>
</mask>
<g mask="url(#mask14_373_9973)">
<path d="M31.1956 12.4935C31.3341 12.2521 31.4384 11.9936 31.5612 11.7451C31.5398 12.0907 31.4355 12.4249 31.3427 12.7577C31.1656 13.396 30.8728 14.0044 30.4616 14.5228C30.1045 14.9655 29.6647 15.3383 29.1734 15.6239C28.6179 15.9552 27.9795 16.1737 27.3283 16.1709C26.6229 16.1766 25.9417 15.9067 25.369 15.5096C24.6964 15.0526 24.0666 14.4714 23.7467 13.7074C23.551 13.2318 23.5011 12.702 23.551 12.1935C23.6924 12.4478 23.8138 12.7134 23.9838 12.9504C24.545 13.7888 25.4218 14.4186 26.4058 14.6528C27.0913 14.8227 27.8182 14.8084 28.5008 14.6342C29.6404 14.3286 30.6286 13.5246 31.1956 12.4935Z" fill="#FFC107"/>
</g>
</g>
</g>
<mask id="mask15_373_9973" style="mask-type:luminance" maskUnits="userSpaceOnUse" x="11" y="0" width="12" height="11">
<path d="M11.7009 0H22.303V10.9679H11.7009V0Z" fill="white"/>
</mask>
<g mask="url(#mask15_373_9973)">
<mask id="mask16_373_9973" style="mask-type:luminance" maskUnits="userSpaceOnUse" x="-9" y="-7" width="53" height="51">
<path d="M6.90232 -6.49805L43.2571 12.1432L27.3682 43.1305L-8.98657 24.4878L6.90232 -6.49805Z" fill="white"/>
</mask>
<g mask="url(#mask16_373_9973)">
<mask id="mask17_373_9973" style="mask-type:luminance" maskUnits="userSpaceOnUse" x="-9" y="-7" width="53" height="51">
<path d="M6.90232 -6.49707L43.2571 12.1441L27.3682 43.1315L-8.98657 24.4888L6.90232 -6.49707Z" fill="white"/>
</mask>
<g mask="url(#mask17_373_9973)">
<path d="M18.9011 0.518728C18.2456 0.54729 17.6059 0.732946 17.0018 0.981438C16.0407 1.37131 15.1338 1.91114 14.3698 2.61378L14.4327 2.60521C14.2927 2.72374 14.1456 2.83371 13.9957 2.94224C13.9542 2.97652 13.9 3.00794 13.8857 3.06506C13.7029 3.24643 13.553 3.45922 13.393 3.66202C13.0603 4.0876 12.7861 4.56173 12.609 5.073C12.3891 5.69137 12.3191 6.35973 12.3834 7.01095C12.4319 7.51651 12.5447 8.02349 12.7889 8.47335C13.066 9.00889 13.5115 9.44732 14.0371 9.74152C14.5312 10.0186 15.0782 10.1928 15.6322 10.3071C16.2549 10.4327 16.919 10.4184 17.5145 10.1799C17.7929 10.0728 18.04 9.90147 18.2799 9.72581C18.4042 9.63298 18.5313 9.54301 18.6398 9.43304C18.6755 9.43733 18.6941 9.4002 18.7198 9.38163C18.9154 9.17884 19.1225 8.98604 19.3081 8.77325C19.8637 8.11775 20.3649 7.41368 20.7477 6.64393C21.0176 6.14694 21.2189 5.61425 21.3817 5.073C21.4817 4.74596 21.5245 4.40749 21.5617 4.06903C21.6245 3.94764 21.6202 3.80911 21.6388 3.67773C21.7045 3.13504 21.6959 2.56951 21.5103 2.04967C21.3646 1.63409 21.0961 1.25707 20.7334 1.00429C20.2036 0.632977 19.5409 0.491594 18.9011 0.518728ZM20.2321 0.358779C20.5106 0.487309 20.7848 0.630121 21.029 0.818633C21.4888 1.16567 21.813 1.67836 21.9615 2.23533C22.1258 2.85084 22.1229 3.50064 22.0386 4.12901C21.8601 5.54713 21.2975 6.90242 20.4849 8.07347C19.8808 8.94605 19.1596 9.76579 18.2414 10.3142C17.7415 10.6184 17.1617 10.7855 16.5776 10.7983C15.9136 10.8112 15.2567 10.6598 14.6369 10.4327C13.9885 10.1985 13.3787 9.83434 12.916 9.32022C12.5176 8.87893 12.2448 8.33482 12.0892 7.765C11.8235 6.7439 11.8592 5.6371 12.2477 4.6517C12.5262 3.91622 13.0046 3.27642 13.5315 2.70089C14.3256 1.85402 15.3024 1.18709 16.362 0.720093C16.9846 0.441609 17.6373 0.211682 18.3171 0.125995C18.9611 0.0445923 19.6323 0.0974329 20.2321 0.358779Z" fill="#FFC107"/>
</g>
</g>
</g>
<mask id="mask18_373_9973" style="mask-type:luminance" maskUnits="userSpaceOnUse" x="14" y="0" width="8" height="5">
<path d="M14.2595 0.365234H21.9369V4.38681H14.2595V0.365234Z" fill="white"/>
</mask>
<g mask="url(#mask18_373_9973)">
<mask id="mask19_373_9973" style="mask-type:luminance" maskUnits="userSpaceOnUse" x="-9" y="-7" width="53" height="51">
<path d="M6.89841 -6.49805L43.2532 12.1432L27.3643 43.1305L-8.99048 24.4878L6.89841 -6.49805Z" fill="white"/>
</mask>
<g mask="url(#mask19_373_9973)">
<mask id="mask20_373_9973" style="mask-type:luminance" maskUnits="userSpaceOnUse" x="-9" y="-7" width="53" height="51">
<path d="M6.89841 -6.49707L43.2532 12.1441L27.3643 43.1315L-8.99048 24.4888L6.89841 -6.49707Z" fill="white"/>
</mask>
<g mask="url(#mask20_373_9973)">
<path d="M18.9041 0.51919C19.5439 0.490628 20.2065 0.632012 20.7364 1.00332C21.0991 1.2561 21.3676 1.63312 21.5132 2.0487C21.6989 2.56854 21.7075 3.13407 21.6418 3.67676C21.6232 3.80815 21.6275 3.94667 21.5646 4.06806C21.6032 3.5825 21.5447 3.08409 21.3519 2.63566C21.1891 2.25578 20.9263 1.91875 20.6035 1.66168C20.2094 1.37321 19.7495 1.17612 19.2683 1.09615C18.6471 0.981901 18.0059 1.04045 17.3946 1.18469C16.3164 1.42176 15.3111 1.93588 14.4356 2.60424L14.3728 2.61281C15.1368 1.91018 16.0437 1.37035 17.0048 0.980473C17.6088 0.73198 18.2486 0.546325 18.9041 0.51919Z" fill="#FFC107"/>
</g>
</g>
</g>
<mask id="mask21_373_9973" style="mask-type:luminance" maskUnits="userSpaceOnUse" x="13" y="0" width="9" height="10">
<path d="M13.1638 0.731445H21.938V9.8714H13.1638V0.731445Z" fill="white"/>
</mask>
<g mask="url(#mask21_373_9973)">
<mask id="mask22_373_9973" style="mask-type:luminance" maskUnits="userSpaceOnUse" x="-9" y="-7" width="53" height="51">
<path d="M6.89817 -6.49902L43.253 12.1422L27.3641 43.1295L-8.99072 24.4868L6.89817 -6.49902Z" fill="white"/>
</mask>
<g mask="url(#mask22_373_9973)">
<mask id="mask23_373_9973" style="mask-type:luminance" maskUnits="userSpaceOnUse" x="-9" y="-7" width="53" height="51">
<path d="M6.89768 -6.5L43.2525 12.1412L27.3636 43.1285L-8.99121 24.4859L6.89768 -6.5Z" fill="white"/>
</mask>
<g mask="url(#mask23_373_9973)">
<path d="M18.222 1.52889C17.6094 1.4889 17.0053 1.67742 16.4612 1.94733C16.0056 2.18011 15.5786 2.47002 15.1874 2.79849C15.6101 2.5957 16.0399 2.40576 16.4841 2.25723C17.4809 1.92448 18.5705 1.75882 19.6044 2.01731C19.1931 1.74597 18.7204 1.54746 18.222 1.52889ZM19.2703 1.09189C19.7515 1.17186 20.2114 1.36894 20.6055 1.65742C20.9283 1.91448 21.191 2.25152 21.3538 2.6314C21.5481 3.07983 21.6052 3.57967 21.5666 4.0638C21.5295 4.40227 21.4866 4.74073 21.3867 5.06777C21.2239 5.60903 21.0225 6.14171 20.7526 6.6387C20.3699 7.40845 19.8686 8.11252 19.3131 8.76802C19.1274 8.98081 18.9204 9.17361 18.7247 9.3764C18.699 9.39497 18.6805 9.4321 18.6448 9.42781C18.5448 9.42781 18.4462 9.43924 18.3491 9.46494C17.6936 9.6149 17.0053 9.52635 16.3784 9.30357C15.2045 8.90084 14.2562 7.96542 13.7293 6.85434C13.5365 6.4102 13.398 5.93892 13.3608 5.45479C13.3051 4.86355 13.398 4.25945 13.6107 3.70534C13.685 3.48113 13.8207 3.28405 13.8906 3.05983C13.9049 3.00271 13.9592 2.97129 14.0006 2.93702C14.1506 2.82848 14.2977 2.71851 14.4376 2.59998C15.313 1.93162 16.3184 1.4175 17.3966 1.18043C18.0078 1.03476 18.649 0.977638 19.2703 1.09189Z" fill="#FFC107"/>
</g>
</g>
</g>
<mask id="mask24_373_9973" style="mask-type:luminance" maskUnits="userSpaceOnUse" x="14" y="1" width="6" height="2">
<path d="M14.99 1.46191H19.7427V2.92431H14.99V1.46191Z" fill="white"/>
</mask>
<g mask="url(#mask24_373_9973)">
<mask id="mask25_373_9973" style="mask-type:luminance" maskUnits="userSpaceOnUse" x="-9" y="-7" width="53" height="51">
<path d="M6.90232 -6.49805L43.2571 12.1432L27.3682 43.1305L-8.98657 24.4878L6.90232 -6.49805Z" fill="white"/>
</mask>
<g mask="url(#mask25_373_9973)">
<mask id="mask26_373_9973" style="mask-type:luminance" maskUnits="userSpaceOnUse" x="-9" y="-7" width="53" height="51">
<path d="M6.90232 -6.49707L43.2571 12.1441L27.3682 43.1315L-8.98657 24.4888L6.90232 -6.49707Z" fill="white"/>
</mask>
<g mask="url(#mask26_373_9973)">
<path d="M18.22 1.5327C18.7184 1.55126 19.1911 1.74977 19.6024 2.02111C18.5684 1.76262 17.4788 1.92828 16.482 2.26104C16.0379 2.40956 15.608 2.59807 15.1853 2.80229C15.5766 2.4724 16.0036 2.18392 16.4592 1.95113C17.0033 1.68122 17.6073 1.49271 18.22 1.5327Z" fill="#FFC107"/>
</g>
</g>
</g>
<mask id="mask27_373_9973" style="mask-type:luminance" maskUnits="userSpaceOnUse" x="12" y="2" width="7" height="9">
<path d="M12.0662 2.92285H18.6468V10.6004H12.0662V2.92285Z" fill="white"/>
</mask>
<g mask="url(#mask27_373_9973)">
<mask id="mask28_373_9973" style="mask-type:luminance" maskUnits="userSpaceOnUse" x="-9" y="-7" width="53" height="51">
<path d="M6.90232 -6.49902L43.2571 12.1422L27.3682 43.1295L-8.98657 24.4868L6.90232 -6.49902Z" fill="white"/>
</mask>
<g mask="url(#mask28_373_9973)">
<mask id="mask29_373_9973" style="mask-type:luminance" maskUnits="userSpaceOnUse" x="-9" y="-7" width="53" height="51">
<path d="M6.90207 -6.49829L43.2569 12.1429L27.368 43.1302L-8.98682 24.4876L6.90207 -6.49829Z" fill="white"/>
</mask>
<g mask="url(#mask29_373_9973)">
<path d="M13.888 3.06226C13.818 3.28647 13.6824 3.48355 13.6081 3.70777C13.3953 4.26188 13.3025 4.86597 13.3582 5.45721C13.3953 5.94134 13.5338 6.41262 13.7266 6.85677C14.2536 7.96784 15.2018 8.90326 16.3757 9.30599C17.0027 9.52878 17.691 9.61732 18.3465 9.46737C18.4436 9.44166 18.5421 9.43024 18.6421 9.43024C18.5336 9.5402 18.4065 9.63017 18.2822 9.723C18.0423 9.89866 17.7952 10.07 17.5168 10.1771C16.9213 10.4156 16.2572 10.4299 15.6346 10.3042C15.0805 10.19 14.5335 10.0158 14.0394 9.73871C13.5138 9.44452 13.0683 9.00608 12.7898 8.47054C12.547 8.02068 12.4342 7.5137 12.3857 7.00815C12.3214 6.35692 12.3914 5.68857 12.6113 5.07019C12.7884 4.55892 13.0626 4.08622 13.3953 3.65921C13.5553 3.45642 13.7052 3.24363 13.888 3.06226Z" fill="#FFC107"/>
</g>
</g>
</g>
<mask id="mask30_373_9973" style="mask-type:luminance" maskUnits="userSpaceOnUse" x="0" y="2" width="10" height="12">
<path d="M0 2.92261H9.13976V13.1594H0V2.92261Z" fill="white"/>
</mask>
<g mask="url(#mask30_373_9973)">
<mask id="mask31_373_9973" style="mask-type:luminance" maskUnits="userSpaceOnUse" x="-9" y="-7" width="53" height="51">
<path d="M6.89866 -6.49927L43.2535 12.142L27.3646 43.1293L-8.99023 24.4866L6.89866 -6.49927Z" fill="white"/>
</mask>
<g mask="url(#mask31_373_9973)">
<mask id="mask32_373_9973" style="mask-type:luminance" maskUnits="userSpaceOnUse" x="-9" y="-7" width="53" height="51">
<path d="M6.89866 -6.49829L43.2535 12.1429L27.3646 43.1302L-8.99023 24.4876L6.89866 -6.49829Z" fill="white"/>
</mask>
<g mask="url(#mask32_373_9973)">
<path d="M4.65002 3.73597C4.11877 3.65599 3.56324 3.69027 3.05913 3.88878C2.4579 4.11299 1.91523 4.51572 1.56964 5.06126C1.30544 5.45542 1.1812 5.92099 1.0798 6.37941C1.05838 6.49081 1.01554 6.60363 1.0341 6.71931C0.802753 7.80325 0.719924 8.92146 0.812749 10.0268C0.859876 10.5509 1.00411 11.0793 1.31401 11.5106C1.50966 11.7948 1.77242 12.0305 2.06661 12.2104C2.55073 12.5046 3.15053 12.5989 3.70462 12.4789C4.30728 12.3532 4.84709 12.0319 5.33693 11.6677C5.67967 11.4135 6.02955 11.1693 6.34801 10.8851C6.35515 10.8837 6.37086 10.8808 6.378 10.8794C6.64934 10.6281 6.92496 10.3839 7.19058 10.1268C7.58188 9.7155 7.98603 9.30134 8.2488 8.7915C8.34876 8.56586 8.43588 8.33022 8.483 8.08744C8.52156 7.86894 8.55869 7.6433 8.49871 7.42622C8.50585 7.4048 8.52013 7.36339 8.52727 7.34196C8.53584 6.93638 8.45587 6.52794 8.28307 6.15948C7.97746 5.48684 7.4048 4.97557 6.78929 4.58712C6.13094 4.18868 5.41833 3.85022 4.65002 3.73597ZM5.99528 3.68598C6.53938 3.93305 7.07348 4.21439 7.53904 4.59141C8.10028 5.0327 8.57868 5.6068 8.80718 6.29087C8.97998 6.82641 9.03139 7.40195 8.9557 7.96034C8.85716 8.70153 8.50871 9.38989 8.04744 9.9697C7.30769 10.8651 6.43084 11.6477 5.45403 12.2775C4.99847 12.5832 4.49578 12.8359 3.95454 12.9459C3.47185 13.0473 2.96488 13.0302 2.49361 12.8845C1.85097 12.6903 1.24689 12.3161 0.85702 11.7591C0.458584 11.1907 0.285785 10.4924 0.250083 9.8069C0.211525 8.72581 0.262936 7.63616 0.471437 6.57364C0.57283 6.09807 0.685649 5.61823 0.911287 5.18408C1.22547 4.56713 1.74672 4.06729 2.35508 3.74168C2.77922 3.51175 3.23907 3.33181 3.72176 3.28183C4.50007 3.19757 5.28266 3.38322 5.99528 3.68598Z" fill="#FFC107"/>
</g>
</g>
</g>
<mask id="mask33_373_9973" style="mask-type:luminance" maskUnits="userSpaceOnUse" x="0" y="3" width="9" height="5">
<path d="M0.730469 3.65405H8.77345V7.67563H0.730469V3.65405Z" fill="white"/>
</mask>
<g mask="url(#mask33_373_9973)">
<mask id="mask34_373_9973" style="mask-type:luminance" maskUnits="userSpaceOnUse" x="-9" y="-7" width="53" height="51">
<path d="M6.8967 -6.49927L43.2515 12.142L27.3626 43.1293L-8.99219 24.4866L6.8967 -6.49927Z" fill="white"/>
</mask>
<g mask="url(#mask34_373_9973)">
<mask id="mask35_373_9973" style="mask-type:luminance" maskUnits="userSpaceOnUse" x="-9" y="-7" width="53" height="51">
<path d="M6.8967 -6.49829L43.2515 12.1429L27.3626 43.1302L-8.99219 24.4876L6.8967 -6.49829Z" fill="white"/>
</mask>
<g mask="url(#mask35_373_9973)">
<path d="M4.65172 3.73513C5.42003 3.84938 6.13264 4.18784 6.79099 4.58628C7.4065 4.97473 7.97916 5.486 8.28477 6.15864C8.45757 6.5271 8.53754 6.93554 8.52897 7.34112C8.52183 7.36255 8.50755 7.40396 8.50041 7.42538C8.37331 6.84414 8.08198 6.30003 7.65927 5.88016C7.00663 5.22465 6.1455 4.82764 5.28293 4.52916C4.71741 4.32637 4.10333 4.22925 3.50639 4.33208C2.85804 4.44204 2.2511 4.78337 1.81839 5.28035C1.61418 5.51171 1.44423 5.77305 1.30571 6.05011C1.1986 6.26575 1.10721 6.48854 1.0358 6.71846C1.01724 6.60279 1.06008 6.48997 1.0815 6.37857C1.18289 5.92015 1.30714 5.45458 1.57133 5.06042C1.91693 4.51488 2.4596 4.11215 3.06083 3.88793C3.56494 3.68943 4.12047 3.65515 4.65172 3.73513Z" fill="#FFC107"/>
</g>
</g>
</g>
<mask id="mask36_373_9973" style="mask-type:luminance" maskUnits="userSpaceOnUse" x="1" y="4" width="8" height="8">
<path d="M1.09766 4.01929H8.77505V11.3313H1.09766V4.01929Z" fill="white"/>
</mask>
<g mask="url(#mask36_373_9973)">
<mask id="mask37_373_9973" style="mask-type:luminance" maskUnits="userSpaceOnUse" x="-9" y="-7" width="53" height="51">
<path d="M6.89866 -6.49829L43.2535 12.1429L27.3646 43.1302L-8.99023 24.4876L6.89866 -6.49829Z" fill="white"/>
</mask>
<g mask="url(#mask37_373_9973)">
<mask id="mask38_373_9973" style="mask-type:luminance" maskUnits="userSpaceOnUse" x="-9" y="-7" width="53" height="51">
<path d="M6.89866 -6.49731L43.2535 12.1439L27.3646 43.1312L-8.99023 24.4886L6.89866 -6.49731Z" fill="white"/>
</mask>
<g mask="url(#mask38_373_9973)">
<path d="M3.45072 4.77589C2.79238 4.97155 2.25399 5.44425 1.8427 5.9798C2.48105 5.58278 3.16939 5.24432 3.91342 5.11007C4.57463 4.97583 5.26439 5.0201 5.90561 5.22718C5.19013 4.77304 4.2833 4.51598 3.45072 4.77589ZM5.28582 4.53026C6.14838 4.82873 7.00952 5.22575 7.66215 5.88126C8.08487 6.30112 8.3762 6.84524 8.50329 7.42648C8.56327 7.64356 8.52614 7.8692 8.48759 8.0877C8.44046 8.33048 8.35335 8.56612 8.25338 8.79176C7.99061 9.3016 7.58646 9.71576 7.19517 10.1271C6.92954 10.3841 6.65392 10.6283 6.38259 10.8797C6.37545 10.8811 6.35974 10.884 6.3526 10.8854C6.18408 10.9125 6.03985 11.0111 5.8799 11.0625C5.41577 11.2139 4.91737 11.2824 4.43468 11.2024C3.73206 11.1196 3.09085 10.744 2.60958 10.2356C1.87126 9.45584 1.48425 8.40332 1.36572 7.34936C1.33002 7.05231 1.31859 6.75241 1.32859 6.45251C1.3343 6.31826 1.33144 6.18402 1.30859 6.0512C1.44712 5.77415 1.61706 5.5128 1.82128 5.28145C2.25399 4.78446 2.86092 4.44314 3.50928 4.33318C4.10622 4.23035 4.72029 4.32747 5.28582 4.53026Z" fill="#FFC107"/>
</g>
</g>
</g>
<mask id="mask39_373_9973" style="mask-type:luminance" maskUnits="userSpaceOnUse" x="1" y="4" width="6" height="3">
<path d="M1.82812 4.38428H6.21521V6.21227H1.82812V4.38428Z" fill="white"/>
</mask>
<g mask="url(#mask39_373_9973)">
<mask id="mask40_373_9973" style="mask-type:luminance" maskUnits="userSpaceOnUse" x="-9" y="-7" width="53" height="51">
<path d="M6.89866 -6.49854L43.2535 12.1427L27.3646 43.13L-8.99023 24.4873L6.89866 -6.49854Z" fill="white"/>
</mask>
<g mask="url(#mask40_373_9973)">
<mask id="mask41_373_9973" style="mask-type:luminance" maskUnits="userSpaceOnUse" x="-9" y="-7" width="53" height="51">
<path d="M6.89866 -6.49756L43.2535 12.1437L27.3646 43.131L-8.99023 24.4883L6.89866 -6.49756Z" fill="white"/>
</mask>
<g mask="url(#mask41_373_9973)">
<path d="M3.44982 4.77714C4.2824 4.51722 5.18923 4.77428 5.90471 5.22842C5.26349 5.02134 4.57373 4.97707 3.91252 5.11131C3.16849 5.24556 2.48015 5.58402 1.8418 5.98104C2.25309 5.44549 2.79147 4.97279 3.44982 4.77714Z" fill="#FFC107"/>
</g>
</g>
</g>
<mask id="mask42_373_9973" style="mask-type:luminance" maskUnits="userSpaceOnUse" x="0" y="5" width="7" height="8">
<path d="M0.730469 5.84937H6.57991V12.7957H0.730469V5.84937Z" fill="white"/>
</mask>
<g mask="url(#mask42_373_9973)">
<mask id="mask43_373_9973" style="mask-type:luminance" maskUnits="userSpaceOnUse" x="-9" y="-7" width="53" height="51">
<path d="M6.8967 -6.49927L43.2515 12.142L27.3626 43.1293L-8.99219 24.4866L6.8967 -6.49927Z" fill="white"/>
</mask>
<g mask="url(#mask43_373_9973)">
<mask id="mask44_373_9973" style="mask-type:luminance" maskUnits="userSpaceOnUse" x="-9" y="-7" width="53" height="51">
<path d="M6.8967 -6.49829L43.2515 12.1429L27.3626 43.1302L-8.99219 24.4876L6.8967 -6.49829Z" fill="white"/>
</mask>
<g mask="url(#mask44_373_9973)">
<path d="M1.30591 6.05078C1.32876 6.1836 1.33162 6.31784 1.32591 6.45208C1.31591 6.75199 1.32733 7.05189 1.36304 7.34894C1.48157 8.40289 1.86858 9.45541 2.6069 10.2352C3.08817 10.7436 3.72938 11.1192 4.432 11.202C4.91469 11.282 5.41309 11.2134 5.87722 11.062C6.03717 11.0106 6.1814 10.9121 6.34992 10.885C6.03145 11.1692 5.68157 11.4134 5.33883 11.6676C4.849 12.0317 4.30918 12.3531 3.70653 12.4787C3.15243 12.5987 2.55263 12.5044 2.06851 12.2103C1.77433 12.0303 1.51156 11.7947 1.31591 11.5105C1.00601 11.0792 0.861778 10.5508 0.814651 10.0267C0.721825 8.9213 0.804654 7.80308 1.036 6.71914C1.10741 6.48921 1.19881 6.26643 1.30591 6.05078Z" fill="#FFC107"/>
</g>
</g>
</g>
<mask id="mask45_373_9973" style="mask-type:luminance" maskUnits="userSpaceOnUse" x="28" y="17" width="10" height="11">
<path d="M37.1572 18.415V27.2861H29.0176V18.415H37.1572Z" fill="white" stroke="white"/>
</mask>
<g mask="url(#mask45_373_9973)">
<mask id="mask46_373_9973" style="mask-type:luminance" maskUnits="userSpaceOnUse" x="-9" y="-7" width="53" height="51">
<path d="M42.5801 12.3594L27.1475 42.457L-8.31738 24.2705L7.11523 -5.8252L42.5801 12.3594Z" fill="white" stroke="white"/>
</mask>
<g mask="url(#mask46_373_9973)">
<mask id="mask47_373_9973" style="mask-type:luminance" maskUnits="userSpaceOnUse" x="-9" y="-7" width="53" height="51">
<path d="M42.5796 12.3584L27.147 42.4561L-8.31787 24.2695L7.11475 -5.82617L42.5796 12.3584Z" fill="white" stroke="white"/>
</mask>
<g mask="url(#mask47_373_9973)">
<mask id="mask48_373_9973" style="mask-type:luminance" maskUnits="userSpaceOnUse" x="26" y="16" width="13" height="14">
<path d="M38.2271 20.8486L34.1899 28.7227L27.3989 25.2402L31.4351 17.3662L38.2271 20.8486Z" fill="white" stroke="white"/>
</mask>
<g mask="url(#mask48_373_9973)">
<mask id="path-65-inside-1_373_9973" fill="white">
<path d="M32.615 18.4678C32.078 18.4878 31.5568 18.6763 31.1012 18.9548C31.0555 18.9862 30.9941 19.0105 30.9841 19.0733C30.7142 19.209 30.5071 19.4432 30.3215 19.6746C30.0187 20.0659 29.8559 20.54 29.7488 21.017C29.5903 21.6511 29.5332 22.3023 29.4675 22.9493C29.4704 22.955 29.4761 22.9678 29.4789 22.9735C29.4318 23.4977 29.4389 24.0275 29.4489 24.5545C29.4732 25.1171 29.5846 25.6927 29.8859 26.1768C30.1944 26.6781 30.7042 27.0494 31.2769 27.1851C31.8853 27.3507 32.5422 27.2465 33.1048 26.9751C33.5518 26.7552 33.9545 26.4581 34.3558 26.1654C34.9199 25.7369 35.4598 25.2699 35.9253 24.7373C36.001 24.6873 36.0381 24.5987 36.0924 24.5288C36.1438 24.5202 36.1724 24.4716 36.2066 24.4374C36.5137 24.0789 36.7779 23.679 36.9492 23.2392C37.162 22.7065 37.2192 22.1138 37.122 21.5497C37.0235 21.0299 36.7636 20.5486 36.4094 20.1601C35.8868 19.586 35.2056 19.1847 34.5029 18.8691C33.9117 18.6049 33.2648 18.4435 32.615 18.4678ZM34.5715 18.4378C35.2184 18.7235 35.851 19.0633 36.3823 19.5375C36.8793 19.9673 37.2863 20.5215 37.4734 21.157C37.649 21.7668 37.6776 22.4209 37.5348 23.0407C37.3891 23.6776 37.0649 24.2617 36.6593 24.7673C35.8496 25.7412 34.8757 26.5767 33.7932 27.235C33.2991 27.5235 32.7478 27.732 32.1737 27.7706C31.5968 27.8149 31.0141 27.6692 30.5071 27.3964C29.9573 27.1265 29.5061 26.6624 29.249 26.1068C28.9705 25.5227 28.882 24.8701 28.8763 24.2288C28.8606 23.0135 28.9462 21.7853 29.2847 20.6129C29.4546 20.023 29.7731 19.4718 30.2272 19.0562C30.65 18.6606 31.1726 18.3836 31.7167 18.1922C32.6536 17.8809 33.6818 18.0608 34.5715 18.4378Z"/>
</mask>
<path d="M32.615 18.4678C32.078 18.4878 31.5568 18.6763 31.1012 18.9548C31.0555 18.9862 30.9941 19.0105 30.9841 19.0733C30.7142 19.209 30.5071 19.4432 30.3215 19.6746C30.0187 20.0659 29.8559 20.54 29.7488 21.017C29.5903 21.6511 29.5332 22.3023 29.4675 22.9493C29.4704 22.955 29.4761 22.9678 29.4789 22.9735C29.4318 23.4977 29.4389 24.0275 29.4489 24.5545C29.4732 25.1171 29.5846 25.6927 29.8859 26.1768C30.1944 26.6781 30.7042 27.0494 31.2769 27.1851C31.8853 27.3507 32.5422 27.2465 33.1048 26.9751C33.5518 26.7552 33.9545 26.4581 34.3558 26.1654C34.9199 25.7369 35.4598 25.2699 35.9253 24.7373C36.001 24.6873 36.0381 24.5987 36.0924 24.5288C36.1438 24.5202 36.1724 24.4716 36.2066 24.4374C36.5137 24.0789 36.7779 23.679 36.9492 23.2392C37.162 22.7065 37.2192 22.1138 37.122 21.5497C37.0235 21.0299 36.7636 20.5486 36.4094 20.1601C35.8868 19.586 35.2056 19.1847 34.5029 18.8691C33.9117 18.6049 33.2648 18.4435 32.615 18.4678ZM34.5715 18.4378C35.2184 18.7235 35.851 19.0633 36.3823 19.5375C36.8793 19.9673 37.2863 20.5215 37.4734 21.157C37.649 21.7668 37.6776 22.4209 37.5348 23.0407C37.3891 23.6776 37.0649 24.2617 36.6593 24.7673C35.8496 25.7412 34.8757 26.5767 33.7932 27.235C33.2991 27.5235 32.7478 27.732 32.1737 27.7706C31.5968 27.8149 31.0141 27.6692 30.5071 27.3964C29.9573 27.1265 29.5061 26.6624 29.249 26.1068C28.9705 25.5227 28.882 24.8701 28.8763 24.2288C28.8606 23.0135 28.9462 21.7853 29.2847 20.6129C29.4546 20.023 29.7731 19.4718 30.2272 19.0562C30.65 18.6606 31.1726 18.3836 31.7167 18.1922C32.6536 17.8809 33.6818 18.0608 34.5715 18.4378Z" fill="#FFC107"/>
<path d="M32.615 18.4678L32.6522 19.4671L32.6523 19.4671L32.615 18.4678ZM31.1012 18.9548L30.5797 18.1016L30.5568 18.1156L30.5347 18.1308L31.1012 18.9548ZM30.9841 19.0733L31.4332 19.9668L31.8912 19.7366L31.9717 19.2305L30.9841 19.0733ZM30.3215 19.6746L29.5416 19.0487L29.536 19.0556L29.5306 19.0626L30.3215 19.6746ZM29.7488 21.017L30.719 21.2595L30.7219 21.2479L30.7245 21.2361L29.7488 21.017ZM29.4675 22.9493L28.4726 22.8482L28.4433 23.1369L28.5731 23.3965L29.4675 22.9493ZM29.4789 22.9735L30.4749 23.0631L30.5003 22.7803L30.3733 22.5263L29.4789 22.9735ZM29.4489 24.5545L28.4491 24.5734L28.4493 24.5855L28.4499 24.5976L29.4489 24.5545ZM29.8859 26.1768L30.7376 25.6527L30.7349 25.6484L29.8859 26.1768ZM31.2769 27.1851L31.5396 26.2202L31.5236 26.2158L31.5074 26.212L31.2769 27.1851ZM33.1048 26.9751L33.5392 27.8759L33.5463 27.8724L33.1048 26.9751ZM34.3558 26.1654L34.9452 26.9732L34.953 26.9676L34.9607 26.9617L34.3558 26.1654ZM35.9253 24.7373L35.3742 23.9028L35.2614 23.9773L35.1724 24.0792L35.9253 24.7373ZM36.0924 24.5288L35.928 23.5424L35.542 23.6067L35.3022 23.9159L36.0924 24.5288ZM36.2066 24.4374L36.9138 25.1445L36.941 25.1172L36.9661 25.0879L36.2066 24.4374ZM36.9492 23.2392L36.0206 22.8682L36.0175 22.8761L36.9492 23.2392ZM37.122 21.5497L38.1075 21.38L38.1061 21.3717L38.1046 21.3635L37.122 21.5497ZM36.4094 20.1601L35.67 20.8334L35.6705 20.8339L36.4094 20.1601ZM34.5029 18.8691L34.9127 17.9569L34.9109 17.9561L34.5029 18.8691ZM34.5715 18.4378L34.9754 17.523L34.9685 17.52L34.9617 17.5171L34.5715 18.4378ZM36.3823 19.5375L35.7164 20.2836L35.7222 20.2887L35.7281 20.2938L36.3823 19.5375ZM37.4734 21.157L38.4343 20.8802L38.4327 20.8746L37.4734 21.157ZM37.5348 23.0407L36.5603 22.8161L36.5599 22.8177L37.5348 23.0407ZM36.6593 24.7673L37.4283 25.4065L37.4339 25.3998L37.4394 25.393L36.6593 24.7673ZM33.7932 27.235L34.2974 28.0986L34.3051 28.0941L34.3128 28.0894L33.7932 27.235ZM32.1737 27.7706L32.1067 26.7728L32.0972 26.7735L32.1737 27.7706ZM30.5071 27.3964L30.981 26.5158L30.9646 26.507L30.9478 26.4988L30.5071 27.3964ZM29.249 26.1068L30.1566 25.6869L30.1517 25.6765L29.249 26.1068ZM28.8763 24.2288L29.8762 24.2199L29.8762 24.2159L28.8763 24.2288ZM29.2847 20.6129L30.2455 20.8902L30.2456 20.8897L29.2847 20.6129ZM30.2272 19.0562L30.9024 19.794L30.9105 19.7864L30.2272 19.0562ZM31.7167 18.1922L31.4014 17.2432L31.3931 17.246L31.3849 17.2488L31.7167 18.1922ZM32.615 18.4678L32.5778 17.4685C31.8336 17.4962 31.1474 17.7545 30.5797 18.1016L31.1012 18.9548L31.6228 19.808C31.9662 19.5981 32.3225 19.4794 32.6522 19.4671L32.615 18.4678ZM31.1012 18.9548L30.5347 18.1308C30.5483 18.1214 30.5709 18.1075 30.5368 18.1286C30.5191 18.1397 30.4645 18.1735 30.4046 18.2214C30.2724 18.3272 30.0548 18.5498 29.9965 18.9162L30.9841 19.0733L31.9717 19.2305C31.9496 19.3693 31.8965 19.4928 31.8276 19.5944C31.7627 19.69 31.694 19.7511 31.654 19.7832C31.6164 19.8133 31.5864 19.8311 31.5933 19.8269C31.5942 19.8263 31.5953 19.8256 31.5991 19.8233C31.6021 19.8214 31.6075 19.8181 31.6133 19.8144C31.6247 19.8073 31.6447 19.7947 31.6678 19.7788L31.1012 18.9548ZM30.9841 19.0733L30.535 18.1799C30.0535 18.4219 29.7302 18.8137 29.5416 19.0487L30.3215 19.6746L31.1014 20.3004C31.2841 20.0728 31.3749 19.9961 31.4332 19.9668L30.9841 19.0733ZM30.3215 19.6746L29.5306 19.0626C29.0979 19.6218 28.8938 20.2604 28.7731 20.7979L29.7488 21.017L30.7245 21.2361C30.818 20.8197 30.9395 20.5099 31.1124 20.2865L30.3215 19.6746ZM29.7488 21.017L28.7787 20.7745C28.5988 21.4941 28.5357 22.2274 28.4726 22.8482L29.4675 22.9493L30.4624 23.0503C30.5307 22.3772 30.5818 21.8081 30.719 21.2595L29.7488 21.017ZM29.4675 22.9493L28.5731 23.3965C28.57 23.3903 28.5677 23.3855 28.5667 23.3834C28.5655 23.3809 28.5647 23.3792 28.5644 23.3786C28.564 23.3778 28.5639 23.3775 28.5652 23.3804C28.566 23.3822 28.5683 23.3871 28.5706 23.3921C28.5719 23.3948 28.5736 23.3985 28.5757 23.4027C28.5776 23.4067 28.5807 23.4131 28.5845 23.4208L29.4789 22.9735L30.3733 22.5263C30.3764 22.5325 30.3787 22.5372 30.3798 22.5394C30.3809 22.5419 30.3818 22.5436 30.382 22.5442C30.3824 22.545 30.3825 22.5453 30.3812 22.5424C30.3804 22.5406 30.3781 22.5357 30.3758 22.5307C30.3745 22.528 30.3728 22.5243 30.3707 22.5201C30.3688 22.5161 30.3657 22.5097 30.3619 22.502L29.4675 22.9493ZM29.4789 22.9735L28.4829 22.884C28.4303 23.4694 28.4392 24.0504 28.4491 24.5734L29.4489 24.5545L30.4488 24.5355C30.4387 24.0046 30.4333 23.5259 30.4749 23.0631L29.4789 22.9735ZM29.4489 24.5545L28.4499 24.5976C28.4779 25.2479 28.6086 26.017 29.0369 26.7052L29.8859 26.1768L30.7349 25.6484C30.5606 25.3684 30.4685 24.9864 30.448 24.5114L29.4489 24.5545ZM29.8859 26.1768L29.0343 26.7009C29.4805 27.426 30.2125 27.9606 31.0464 28.1581L31.2769 27.1851L31.5074 26.212C31.1959 26.1382 30.9083 25.9302 30.7376 25.6527L29.8859 26.1768ZM31.2769 27.1851L31.0141 28.1499C31.8996 28.391 32.8051 28.2299 33.5392 27.8759L33.1048 26.9751L32.6705 26.0744C32.2792 26.2631 31.8709 26.3104 31.5396 26.2202L31.2769 27.1851ZM33.1048 26.9751L33.5463 27.8724C34.0857 27.607 34.5603 27.2541 34.9452 26.9732L34.3558 26.1654L33.7665 25.3575C33.3488 25.6622 33.018 25.9034 32.6634 26.0778L33.1048 26.9751ZM34.3558 26.1654L34.9607 26.9617C35.5564 26.5093 36.1529 25.9965 36.6783 25.3953L35.9253 24.7373L35.1724 24.0792C34.7666 24.5434 34.2835 24.9646 33.751 25.369L34.3558 26.1654ZM35.9253 24.7373L36.4764 25.5717C36.6755 25.4402 36.7913 25.2793 36.8409 25.207C36.8635 25.1741 36.8904 25.132 36.8926 25.1287C36.9017 25.1146 36.8957 25.1247 36.8826 25.1416L36.0924 24.5288L35.3022 23.9159C35.2812 23.9429 35.2636 23.9677 35.2496 23.988C35.2357 24.0081 35.2238 24.0261 35.2155 24.039C35.2113 24.0454 35.2073 24.0516 35.2044 24.0562C35.2011 24.0613 35.1989 24.0647 35.1969 24.0678C35.1927 24.0742 35.192 24.0752 35.1928 24.074C35.194 24.0723 35.2094 24.0497 35.2367 24.0197C35.2654 23.9883 35.3106 23.9448 35.3742 23.9028L35.9253 24.7373ZM36.0924 24.5288L36.2568 25.5151C36.5726 25.4625 36.7718 25.2893 36.8559 25.2069C36.8965 25.167 36.9291 25.1292 36.9348 25.1226C36.9495 25.1058 36.9339 25.1243 36.9138 25.1445L36.2066 24.4374L35.4995 23.7303C35.4622 23.7676 35.4303 23.8049 35.4283 23.8071C35.4174 23.8196 35.4332 23.8009 35.456 23.7785C35.5044 23.731 35.6636 23.5864 35.928 23.5424L36.0924 24.5288ZM36.2066 24.4374L36.9661 25.0879C37.3255 24.6684 37.6586 24.1732 37.881 23.6022L36.9492 23.2392L36.0175 22.8761C35.8972 23.1849 35.7019 23.4894 35.4472 23.7868L36.2066 24.4374ZM36.9492 23.2392L37.8779 23.6101C38.1614 22.9004 38.235 22.1201 38.1075 21.38L37.122 21.5497L36.1365 21.7194C36.2034 22.1075 36.1626 22.5126 36.0206 22.8682L36.9492 23.2392ZM37.122 21.5497L38.1046 21.3635C37.9675 20.6404 37.6119 19.9947 37.1484 19.4864L36.4094 20.1601L35.6705 20.8339C35.9153 21.1025 36.0795 21.4193 36.1395 21.7359L37.122 21.5497ZM36.4094 20.1601L37.1489 19.4869C36.4949 18.7686 35.6739 18.2988 34.9127 17.9569L34.5029 18.8691L34.0932 19.7813C34.7372 20.0706 35.2786 20.4035 35.67 20.8334L36.4094 20.1601ZM34.5029 18.8691L34.9109 17.9561C34.2155 17.6454 33.4153 17.4372 32.5777 17.4685L32.615 18.4678L32.6523 19.4671C33.1143 19.4499 33.6079 19.5645 34.0949 19.7821L34.5029 18.8691ZM34.5715 18.4378L34.1676 19.3526C34.7743 19.6205 35.2982 19.9103 35.7164 20.2836L36.3823 19.5375L37.0482 18.7914C36.4039 18.2164 35.6626 17.8264 34.9754 17.523L34.5715 18.4378ZM36.3823 19.5375L35.7281 20.2938C36.1149 20.6283 36.3928 21.0275 36.5141 21.4394L37.4734 21.157L38.4327 20.8746C38.1797 20.0154 37.6437 19.3063 37.0365 18.7812L36.3823 19.5375ZM37.4734 21.157L36.5124 21.4338C36.6443 21.8917 36.6624 22.373 36.5603 22.8161L37.5348 23.0407L38.5092 23.2652C38.6927 22.4687 38.6537 21.6419 38.4343 20.8802L37.4734 21.157ZM37.5348 23.0407L36.5599 22.8177C36.4561 23.2719 36.2162 23.7216 35.8793 24.1415L36.6593 24.7673L37.4394 25.393C37.9137 24.8018 38.3221 24.0833 38.5096 23.2636L37.5348 23.0407ZM36.6593 24.7673L35.8904 24.128C35.1525 25.0155 34.2633 25.7787 33.2735 26.3806L33.7932 27.235L34.3128 28.0894C35.4881 27.3747 36.5467 26.467 37.4283 25.4065L36.6593 24.7673ZM33.7932 27.235L33.289 26.3714C32.8872 26.606 32.4854 26.7474 32.1067 26.7728L32.1737 27.7706L32.2407 28.7683C33.0103 28.7167 33.7109 28.441 34.2974 28.0986L33.7932 27.235ZM32.1737 27.7706L32.0972 26.7735C31.736 26.8012 31.3429 26.7105 30.981 26.5158L30.5071 27.3964L30.0333 28.277C30.6853 28.6278 31.4575 28.8285 32.2502 28.7677L32.1737 27.7706ZM30.5071 27.3964L30.9478 26.4988C30.6054 26.3307 30.3181 26.0361 30.1566 25.6869L29.249 26.1068L28.3415 26.5268C28.694 27.2887 29.3092 27.9223 30.0665 28.2941L30.5071 27.3964ZM29.249 26.1068L30.1517 25.6765C29.9605 25.2755 29.8813 24.7856 29.8762 24.2199L28.8763 24.2288L27.8763 24.2378C27.8827 24.9546 27.9806 25.77 28.3463 26.5372L29.249 26.1068ZM28.8763 24.2288L29.8762 24.2159C29.8611 23.0503 29.945 21.931 30.2455 20.8902L29.2847 20.6129L28.3239 20.3355C27.9475 21.6397 27.86 22.9767 27.8764 24.2418L28.8763 24.2288ZM29.2847 20.6129L30.2456 20.8897C30.3709 20.455 30.6 20.0706 30.9023 19.7939L30.2272 19.0562L29.5521 18.3185C28.9462 18.873 28.5384 19.5911 28.3238 20.336L29.2847 20.6129ZM30.2272 19.0562L30.9105 19.7864C31.2049 19.5108 31.5947 19.2952 32.0485 19.1355L31.7167 18.1922L31.3849 17.2488C30.7506 17.472 30.095 17.8104 29.544 18.3261L30.2272 19.0562ZM31.7167 18.1922L32.0321 19.1412C32.6532 18.9347 33.4165 19.0345 34.1813 19.3586L34.5715 18.4378L34.9617 17.5171C33.9471 17.0871 32.6539 16.827 31.4014 17.2432L31.7167 18.1922Z" fill="#FFC107" mask="url(#path-65-inside-1_373_9973)"/>
</g>
</g>
</g>
</g>
<mask id="mask49_373_9973" style="mask-type:luminance" maskUnits="userSpaceOnUse" x="30" y="18" width="8" height="7">
<path d="M36.7925 18.7803V24.3613H31.2114V18.7803H36.7925Z" fill="white" stroke="white"/>
</mask>
<g mask="url(#mask49_373_9973)">
<mask id="mask50_373_9973" style="mask-type:luminance" maskUnits="userSpaceOnUse" x="-9" y="-7" width="53" height="51">
<path d="M42.584 12.3604L27.1514 42.458L-8.31348 24.2715L7.11914 -5.82422L42.584 12.3604Z" fill="white" stroke="white"/>
</mask>
<g mask="url(#mask50_373_9973)">
<mask id="mask51_373_9973" style="mask-type:luminance" maskUnits="userSpaceOnUse" x="-9" y="-7" width="53" height="51">
<path d="M42.5833 12.3613L27.1506 42.459L-8.31421 24.2725L7.11841 -5.82324L42.5833 12.3613Z" fill="white" stroke="white"/>
</mask>
<g mask="url(#mask51_373_9973)">
<mask id="path-70-inside-2_373_9973" fill="white">
<path d="M32.6189 18.4731C33.2687 18.4488 33.9156 18.6102 34.5068 18.8744C35.2095 19.19 35.8907 19.5913 36.4133 20.1654C36.7675 20.5539 37.0274 21.0352 37.126 21.555C37.2231 22.1191 37.1659 22.7118 36.9532 23.2445C36.7818 23.6843 36.5176 24.0842 36.2106 24.4426C36.1763 24.4769 36.1477 24.5255 36.0963 24.534C36.4148 24.0542 36.6704 23.5172 36.7375 22.9403C36.8146 22.3462 36.709 21.7264 36.4191 21.1994C36.1563 20.7124 35.7564 20.3097 35.3037 19.9941C34.6511 19.5285 33.9413 19.1158 33.1602 18.9101C32.6546 18.7787 32.1162 18.7445 31.605 18.8687C31.3936 18.9173 31.188 18.9929 30.988 19.0786C30.998 19.0158 31.0594 18.9915 31.1051 18.9601C31.5607 18.6816 32.082 18.4931 32.6189 18.4731Z"/>
</mask>
<path d="M32.6189 18.4731C33.2687 18.4488 33.9156 18.6102 34.5068 18.8744C35.2095 19.19 35.8907 19.5913 36.4133 20.1654C36.7675 20.5539 37.0274 21.0352 37.126 21.555C37.2231 22.1191 37.1659 22.7118 36.9532 23.2445C36.7818 23.6843 36.5176 24.0842 36.2106 24.4426C36.1763 24.4769 36.1477 24.5255 36.0963 24.534C36.4148 24.0542 36.6704 23.5172 36.7375 22.9403C36.8146 22.3462 36.709 21.7264 36.4191 21.1994C36.1563 20.7124 35.7564 20.3097 35.3037 19.9941C34.6511 19.5285 33.9413 19.1158 33.1602 18.9101C32.6546 18.7787 32.1162 18.7445 31.605 18.8687C31.3936 18.9173 31.188 18.9929 30.988 19.0786C30.998 19.0158 31.0594 18.9915 31.1051 18.9601C31.5607 18.6816 32.082 18.4931 32.6189 18.4731Z" fill="#FFC107"/>
<path d="M32.6189 18.4731L32.6561 19.4724L32.6562 19.4724L32.6189 18.4731ZM34.5068 18.8744L34.9166 17.9622L34.9148 17.9614L34.5068 18.8744ZM36.4133 20.1654L35.6739 20.8386L35.6744 20.8392L36.4133 20.1654ZM37.126 21.555L38.1115 21.3853L38.11 21.377L38.1085 21.3687L37.126 21.555ZM36.9532 23.2445L36.0245 22.8735L36.0214 22.8814L36.9532 23.2445ZM36.2106 24.4426L36.9177 25.1497L36.9449 25.1225L36.97 25.0932L36.2106 24.4426ZM36.0963 24.534L35.2631 23.9811L33.9903 25.8988L36.2607 25.5204L36.0963 24.534ZM36.7375 22.9403L35.7457 22.8115L35.7442 22.8247L36.7375 22.9403ZM36.4191 21.1994L35.539 21.6743L35.5429 21.6814L36.4191 21.1994ZM35.3037 19.9941L34.7229 20.8082L34.7318 20.8144L35.3037 19.9941ZM33.1602 18.9101L33.4147 17.9431L33.4117 17.9423L33.1602 18.9101ZM31.605 18.8687L31.8289 19.8434L31.8411 19.8404L31.605 18.8687ZM30.988 19.0786L30.0005 18.9215L29.7156 20.7119L31.382 19.9978L30.988 19.0786ZM31.1051 18.9601L30.5836 18.1069L30.5607 18.1209L30.5386 18.1361L31.1051 18.9601ZM32.6189 18.4731L32.6562 19.4724C33.1182 19.4552 33.6118 19.5698 34.0989 19.7874L34.5068 18.8744L34.9148 17.9614C34.2194 17.6507 33.4192 17.4425 32.5816 17.4738L32.6189 18.4731ZM34.5068 18.8744L34.0971 19.7866C34.7411 20.0759 35.2825 20.4087 35.6739 20.8386L36.4133 20.1654L37.1528 19.4922C36.4988 18.7739 35.6778 18.3041 34.9166 17.9622L34.5068 18.8744ZM36.4133 20.1654L35.6744 20.8392C35.9192 21.1077 36.0834 21.4246 36.1435 21.7412L37.126 21.555L38.1085 21.3687C37.9714 20.6457 37.6158 20 37.1523 19.4917L36.4133 20.1654ZM37.126 21.555L36.1405 21.7246C36.2073 22.1128 36.1666 22.5179 36.0245 22.8735L36.9532 23.2445L37.8818 23.6154C38.1653 22.9056 38.2389 22.1254 38.1115 21.3853L37.126 21.555ZM36.9532 23.2445L36.0214 22.8814C35.9011 23.1902 35.7058 23.4947 35.4511 23.7921L36.2106 24.4426L36.97 25.0932C37.3294 24.6737 37.6625 24.1784 37.8849 23.6075L36.9532 23.2445ZM36.2106 24.4426L35.5034 23.7355C35.4661 23.7729 35.4342 23.8102 35.4322 23.8124C35.4213 23.8249 35.4371 23.8061 35.4599 23.7838C35.5083 23.7363 35.6675 23.5917 35.9319 23.5476L36.0963 24.534L36.2607 25.5204C36.5765 25.4678 36.7757 25.2946 36.8598 25.2122C36.9005 25.1723 36.933 25.1344 36.9387 25.1279C36.9534 25.1111 36.9379 25.1296 36.9177 25.1497L36.2106 24.4426ZM36.0963 24.534L36.9295 25.087C37.2954 24.5356 37.6387 23.8474 37.7308 23.0558L36.7375 22.9403L35.7442 22.8247C35.7021 23.187 35.5341 23.5727 35.2631 23.9811L36.0963 24.534ZM36.7375 22.9403L37.7292 23.069C37.832 22.2771 37.6936 21.4416 37.2952 20.7174L36.4191 21.1994L35.5429 21.6814C35.7243 22.0111 35.7973 22.4152 35.7458 22.8115L36.7375 22.9403ZM36.4191 21.1994L37.2991 20.7245C36.9453 20.0688 36.4242 19.5562 35.8756 19.1737L35.3037 19.9941L34.7318 20.8144C35.0886 21.0631 35.3672 21.356 35.539 21.6742L36.4191 21.1994ZM35.3037 19.9941L35.8845 19.18C35.1884 18.6834 34.3643 18.193 33.4147 17.9431L33.1602 18.9101L32.9056 19.8772C33.5184 20.0385 34.1138 20.3736 34.723 20.8081L35.3037 19.9941ZM33.1602 18.9101L33.4117 17.9423C32.786 17.7797 32.076 17.7251 31.3688 17.897L31.605 18.8687L31.8411 19.8404C32.1564 19.7638 32.5232 19.7778 32.9086 19.878L33.1602 18.9101ZM31.605 18.8687L31.3811 17.8941C31.0895 17.9611 30.8233 18.0613 30.5941 18.1595L30.988 19.0786L31.382 19.9978C31.5526 19.9246 31.6977 19.8734 31.8289 19.8433L31.605 18.8687ZM30.988 19.0786L31.9756 19.2357C31.9535 19.3746 31.9005 19.4981 31.8315 19.5997C31.7666 19.6953 31.6979 19.7564 31.6579 19.7884C31.6203 19.8186 31.5903 19.8364 31.5972 19.8321C31.5981 19.8316 31.5992 19.8309 31.603 19.8286C31.606 19.8267 31.6114 19.8234 31.6172 19.8197C31.6287 19.8126 31.6486 19.8 31.6717 19.7841L31.1051 18.9601L30.5386 18.1361C30.5523 18.1267 30.5748 18.1127 30.5408 18.1339C30.523 18.145 30.4685 18.1788 30.4085 18.2267C30.2763 18.3325 30.0588 18.5551 30.0005 18.9215L30.988 19.0786ZM31.1051 18.9601L31.6267 19.8133C31.9701 19.6034 32.3264 19.4847 32.6561 19.4724L32.6189 18.4731L32.5817 17.4738C31.8375 17.5015 31.1513 17.7598 30.5836 18.1069L31.1051 18.9601Z" fill="#FFC107" mask="url(#path-70-inside-2_373_9973)"/>
</g>
</g>
</g>
<mask id="mask52_373_9973" style="mask-type:luminance" maskUnits="userSpaceOnUse" x="29" y="18" width="8" height="9">
<path d="M36.428 19.1455V25.8232H29.7502V19.1455H36.428Z" fill="white" stroke="white"/>
</mask>
<g mask="url(#mask52_373_9973)">
<mask id="mask53_373_9973" style="mask-type:luminance" maskUnits="userSpaceOnUse" x="-9" y="-7" width="53" height="51">
<path d="M42.5859 12.3594L27.1533 42.457L-8.31152 24.2705L7.12109 -5.8252L42.5859 12.3594Z" fill="white" stroke="white"/>
</mask>
<g mask="url(#mask53_373_9973)">
<mask id="mask54_373_9973" style="mask-type:luminance" maskUnits="userSpaceOnUse" x="-9" y="-7" width="53" height="51">
<path d="M42.5857 12.3582L27.1531 42.4558L-8.31177 24.2693L7.12085 -5.82642L42.5857 12.3582Z" fill="white" stroke="white"/>
</mask>
<g mask="url(#mask54_373_9973)">
<path d="M31.7224 19.3503C32.1351 19.2501 32.5871 19.273 33.032 19.3884V19.3894C33.7289 19.5729 34.3816 19.9462 35.0125 20.3962L35.0164 20.3992C35.062 20.431 35.1072 20.4643 35.1511 20.4978L34.8757 20.7244C35.1923 21.3793 35.4202 22.0548 35.4724 22.738V22.7419C35.5084 23.1744 35.4608 23.6181 35.3503 24.0574L35.698 24.2214C35.6913 24.2317 35.6853 24.2424 35.6785 24.2527C35.6617 24.276 35.6473 24.2971 35.6375 24.3123C35.6339 24.3178 35.6306 24.3233 35.6277 24.3279C35.6252 24.3318 35.6219 24.3345 35.6199 24.3376C35.5278 24.3891 35.442 24.4414 35.3669 24.49C35.2647 24.5563 35.1853 24.61 35.1003 24.6599L35.0886 24.6667C34.5789 24.986 34.0204 25.2268 33.4402 25.3738C32.9027 25.4934 32.347 25.4922 31.8425 25.3425H31.8435C31.2838 25.1745 30.7919 24.7736 30.49 24.2566H30.491C30.2772 23.8857 30.1203 23.4912 30.0466 23.0886L30.0447 23.0808L29.9958 22.9041C29.9917 22.8926 29.9856 22.882 29.9812 22.8708C30.0427 22.2613 30.1001 21.6914 30.2371 21.1384L30.24 21.1277C30.3396 20.6843 30.48 20.2944 30.7146 19.988C30.8953 19.7629 31.0424 19.6097 31.2029 19.5261C31.3819 19.4502 31.5496 19.3892 31.7156 19.3513L31.7224 19.3503Z" fill="#FFC107" stroke="#FFC107"/>
</g>
</g>
</g>
<mask id="mask55_373_9973" style="mask-type:luminance" maskUnits="userSpaceOnUse" x="35" y="20" width="2" height="5">
<path d="M36.0615 20.9736V23.9951H35.5996V20.9736H36.0615Z" fill="white" stroke="white"/>
</mask>
<g mask="url(#mask55_373_9973)">
<mask id="mask56_373_9973" style="mask-type:luminance" maskUnits="userSpaceOnUse" x="-9" y="-7" width="53" height="51">
<path d="M42.5857 12.3584L27.1531 42.4561L-8.31177 24.2695L7.12085 -5.82617L42.5857 12.3584Z" fill="white" stroke="white"/>
</mask>
<g mask="url(#mask56_373_9973)">
<mask id="mask57_373_9973" style="mask-type:luminance" maskUnits="userSpaceOnUse" x="-9" y="-7" width="53" height="51">
<path d="M42.5852 12.3574L27.1526 42.4551L-8.31226 24.2686L7.12036 -5.82715L42.5852 12.3574Z" fill="white" stroke="white"/>
</mask>
<g mask="url(#mask57_373_9973)">
<mask id="path-79-inside-3_373_9973" fill="white">
<path d="M35.3274 20.5068C35.7458 20.8239 36.1243 21.2337 36.2856 21.745C36.417 22.142 36.4713 22.5719 36.3842 22.9846C36.2828 23.4131 36.1 23.8244 35.8372 24.18C35.9586 23.6973 36.0143 23.1974 35.9729 22.7004C35.9143 21.9335 35.6601 21.1952 35.3274 20.5068Z"/>
</mask>
<path d="M35.3274 20.5068C35.7458 20.8239 36.1243 21.2337 36.2856 21.745C36.417 22.142 36.4713 22.5719 36.3842 22.9846C36.2828 23.4131 36.1 23.8244 35.8372 24.18C35.9586 23.6973 36.0143 23.1974 35.9729 22.7004C35.9143 21.9335 35.6601 21.1952 35.3274 20.5068Z" fill="#FFC107"/>
<path d="M35.3274 20.5068L35.9313 19.7098L34.4271 20.942L35.3274 20.5068ZM36.2856 21.745L35.3319 22.046L35.3363 22.0592L36.2856 21.745ZM36.3842 22.9846L37.3573 23.2149L37.3601 23.2031L37.3626 23.1911L36.3842 22.9846ZM35.8372 24.18L34.8674 23.9361L36.6415 24.7742L35.8372 24.18ZM35.9729 22.7004L34.9758 22.7766L34.9763 22.7835L35.9729 22.7004ZM35.3274 20.5068L34.7235 21.3039C35.0598 21.5587 35.2584 21.8127 35.332 22.046L36.2856 21.745L37.2393 21.444C36.9902 20.6548 36.4318 20.089 35.9313 19.7098L35.3274 20.5068ZM36.2856 21.745L35.3363 22.0592C35.4285 22.3378 35.4469 22.5833 35.4057 22.7781L36.3842 22.9846L37.3626 23.1911C37.4957 22.5605 37.4056 21.9462 37.235 21.4308L36.2856 21.745ZM36.3842 22.9846L35.4111 22.7543C35.3382 23.0621 35.2091 23.3474 35.033 23.5857L35.8372 24.18L36.6415 24.7742C36.9909 24.3013 37.2274 23.764 37.3573 23.2149L36.3842 22.9846ZM35.8372 24.18L36.807 24.4238C36.9502 23.8546 37.0216 23.2431 36.9694 22.6174L35.9729 22.7004L34.9763 22.7835C35.007 23.1517 34.967 23.5399 34.8674 23.9361L35.8372 24.18ZM35.9729 22.7004L36.97 22.6243C36.8987 21.6903 36.5927 20.8266 36.2277 20.0716L35.3274 20.5068L34.4271 20.942C34.7276 21.5638 34.93 22.1768 34.9758 22.7766L35.9729 22.7004Z" fill="#FFC107" mask="url(#path-79-inside-3_373_9973)"/>
</g>
</g>
</g>
<mask id="mask58_373_9973" style="mask-type:luminance" maskUnits="userSpaceOnUse" x="29" y="22" width="8" height="6">
<path d="M35.6965 23.167V26.9199H29.7502V23.167H35.6965Z" fill="white" stroke="white"/>
</mask>
<g mask="url(#mask58_373_9973)">
<mask id="mask59_373_9973" style="mask-type:luminance" maskUnits="userSpaceOnUse" x="-9" y="-7" width="53" height="51">
<path d="M42.5859 12.3594L27.1533 42.457L-8.31152 24.2705L7.12109 -5.8252L42.5859 12.3594Z" fill="white" stroke="white"/>
</mask>
<g mask="url(#mask59_373_9973)">
<mask id="mask60_373_9973" style="mask-type:luminance" maskUnits="userSpaceOnUse" x="-9" y="-7" width="53" height="51">
<path d="M42.5857 12.3582L27.1531 42.4558L-8.31177 24.2693L7.12085 -5.82642L42.5857 12.3582Z" fill="white" stroke="white"/>
</mask>
<g mask="url(#mask60_373_9973)">
<path d="M30.0759 25.3611C30.4745 25.7934 30.983 26.1284 31.5564 26.3005L31.5583 26.3015C32.0452 26.446 32.5511 26.4836 33.0437 26.4421C32.9929 26.47 32.9432 26.4996 32.8914 26.5251C32.4145 26.7551 31.8816 26.8317 31.4119 26.7039L31.4041 26.7009L31.3953 26.699C30.9534 26.5942 30.5547 26.3049 30.3152 25.9158L30.3132 25.9128C30.2094 25.7464 30.1326 25.5606 30.0759 25.3611Z" fill="#FFC107" stroke="#FFC107"/>
</g>
</g>
</g>
<mask id="mask61_373_9973" style="mask-type:luminance" maskUnits="userSpaceOnUse" x="1" y="12" width="27" height="22">
<path d="M1.82812 12.7949H27.785V33.9996H1.82812V12.7949Z" fill="white"/>
</mask>
<g mask="url(#mask61_373_9973)">
<mask id="mask62_373_9973" style="mask-type:luminance" maskUnits="userSpaceOnUse" x="-9" y="-7" width="53" height="51">
<path d="M6.89866 -6.49902L43.2535 12.1422L27.3646 43.1295L-8.99023 24.4868L6.89866 -6.49902Z" fill="white"/>
</mask>
<g mask="url(#mask62_373_9973)">
<mask id="mask63_373_9973" style="mask-type:luminance" maskUnits="userSpaceOnUse" x="-9" y="-7" width="53" height="51">
<path d="M6.89866 -6.49805L43.2535 12.1432L27.3646 43.1305L-8.99023 24.4878L6.89866 -6.49805Z" fill="white"/>
</mask>
<g mask="url(#mask63_373_9973)">
<mask id="mask64_373_9973" style="mask-type:luminance" maskUnits="userSpaceOnUse" x="-3" y="10" width="34" height="31">
<path d="M6.24178 10.3428L30.3065 22.6831L21.4109 40.0291L-2.65234 27.6887L6.24178 10.3428Z" fill="white"/>
</mask>
<g mask="url(#mask64_373_9973)">
<path d="M11.4469 13.6744C11.3983 13.6586 11.3483 13.6544 11.2984 13.6572C10.9371 13.5273 10.5615 13.4259 10.1759 13.4244C9.35902 13.393 8.55786 13.6029 7.78955 13.8572C7.18547 14.0457 6.61281 14.3227 6.0687 14.6426C6.03443 14.664 5.9973 14.684 5.97159 14.7169C5.75453 14.8254 5.56459 14.9797 5.36609 15.121C4.46068 15.818 3.69094 16.7091 3.20682 17.7502C2.69985 18.8413 2.4685 20.0666 2.56561 21.2677C2.6313 22.2188 2.90264 23.1471 3.29964 24.0111C3.80947 25.1136 4.56207 26.089 5.42607 26.9373C5.98016 27.4714 6.5157 28.0241 7.03124 28.5953C7.79669 29.4693 8.51502 30.3962 9.06769 31.423C9.36473 31.9585 9.61036 32.5184 9.85456 33.0768C10.8385 32.7469 11.8767 32.6083 12.9121 32.5926C14.2474 32.5741 15.5783 32.7283 16.8922 32.9554C17.5519 33.0796 18.2189 33.1739 18.8901 33.1953C19.9626 33.2381 21.0408 33.0868 22.0604 32.7569C22.2532 32.6912 22.4589 32.6569 22.6402 32.5584L22.5931 32.5441C23.6927 32.0842 24.6881 31.3573 25.4264 30.4176C25.8334 29.8721 26.2119 29.2908 26.4261 28.6396C26.4918 28.5254 26.5332 28.4011 26.5732 28.2769C27.1158 26.616 27.0202 24.788 26.4446 23.1499C26.1333 22.1702 25.5507 21.2848 24.7895 20.5979C23.7841 19.681 22.4703 19.1112 21.115 18.9941C19.8926 18.8898 18.6444 19.174 17.5762 19.7738C17.0521 20.0623 16.588 20.4422 16.0924 20.775C16.061 20.0937 16.1139 19.4054 15.9982 18.7299C15.8282 17.6074 15.3398 16.532 14.6072 15.6652C13.7904 14.6997 12.6679 14 11.4469 13.6744ZM10.7271 13.1003C11.4426 13.2088 12.1495 13.4016 12.8036 13.7158C13.9218 14.2427 14.92 15.0496 15.624 16.0707C16.2824 17.0219 16.7179 18.1315 16.855 19.2826C18.1503 18.5699 19.6712 18.2729 21.1379 18.4571C22.5902 18.6542 23.9898 19.2869 25.0694 20.2823C25.5407 20.7064 25.9591 21.192 26.2933 21.7318C26.8288 22.5972 27.1573 23.5784 27.3572 24.5723C27.6257 25.9362 27.56 27.3743 27.1201 28.6967C26.6974 29.9735 25.9077 31.1245 24.8666 31.9771C24.0355 32.6869 23.0344 33.1753 21.9962 33.4981C20.3067 33.995 18.4973 33.9679 16.7865 33.6009C15.4926 33.3695 14.1802 33.201 12.8635 33.221C12.1624 33.2396 11.4583 33.3124 10.7771 33.4909C10.3387 33.598 9.91883 33.7651 9.49469 33.9165C9.28761 33.4081 9.09625 32.894 8.85919 32.3984C8.55929 31.76 8.20941 31.1445 7.80097 30.569C7.03695 29.4979 6.13297 28.5354 5.19043 27.6214C4.10937 26.6331 3.18968 25.452 2.59131 24.111C2.24 23.3156 1.99723 22.4687 1.89726 21.6033C1.77588 20.5722 1.88013 19.5182 2.1786 18.5242C2.53705 17.3289 3.23252 16.2435 4.13793 15.3852C5.04762 14.4984 6.18295 13.8643 7.38397 13.4644C7.8581 13.3116 8.34079 13.1717 8.83491 13.1003C9.46041 13.0117 10.1002 13.0074 10.7271 13.1003Z" fill="#FFC107"/>
</g>
</g>
</g>
</g>
<mask id="mask65_373_9973" style="mask-type:luminance" maskUnits="userSpaceOnUse" x="3" y="16" width="22" height="17">
<path d="M3.6543 16.0859H24.8585V32.1723H3.6543V16.0859Z" fill="white"/>
</mask>
<g mask="url(#mask65_373_9973)">
<mask id="mask66_373_9973" style="mask-type:luminance" maskUnits="userSpaceOnUse" x="-9" y="-7" width="53" height="51">
<path d="M6.90183 -6.49902L43.2566 12.1422L27.3677 43.1295L-8.98706 24.4868L6.90183 -6.49902Z" fill="white"/>
</mask>
<g mask="url(#mask66_373_9973)">
<mask id="mask67_373_9973" style="mask-type:luminance" maskUnits="userSpaceOnUse" x="-9" y="-7" width="53" height="51">
<path d="M6.90134 -6.49829L43.2561 12.1429L27.3672 43.1302L-8.98755 24.4876L6.90134 -6.49829Z" fill="white"/>
</mask>
<g mask="url(#mask67_373_9973)">
<path d="M8.93188 16.5553C8.51059 16.6181 8.09645 16.7252 7.6923 16.8623C7.05966 17.0908 6.44701 17.3979 5.92861 17.8306C5.46734 18.2147 5.05462 18.666 4.76615 19.1959C4.4077 19.8242 4.23633 20.5454 4.20919 21.2652C4.18635 22.1107 4.38485 22.9532 4.73473 23.7201C5.05177 24.4099 5.47591 25.0483 5.97431 25.621C6.38132 26.098 6.85687 26.5093 7.31528 26.9363C8.16928 27.7546 8.999 28.61 9.68448 29.5769C10.0758 30.1338 10.4128 30.7279 10.7113 31.3392C11.9123 31.0492 13.1662 31.0692 14.3857 31.2106C15.2212 31.3063 16.0523 31.4491 16.8749 31.6305C18.0716 31.8847 19.3241 31.939 20.5237 31.669C21.5533 31.4248 22.5415 30.9179 23.2556 30.1253C23.8054 29.5154 24.1739 28.7485 24.3181 27.9417C24.5466 26.8092 24.3267 25.6295 23.8939 24.5727C23.7183 24.1186 23.4641 23.6973 23.1613 23.3174C22.2231 22.1649 20.815 21.4152 19.3398 21.2638C18.7214 21.2038 18.0973 21.2723 17.4975 21.4252C17.0277 21.5465 16.5793 21.7508 16.1709 22.0135C15.8138 22.242 15.4582 22.4734 15.1012 22.7033C15.0812 22.2892 15.0541 21.875 15.0355 21.4609C14.987 20.4597 14.61 19.4872 14.0087 18.6903C13.6446 18.2033 13.1833 17.7949 12.6792 17.455C11.5881 16.7309 10.2372 16.3725 8.93188 16.5553ZM10.2943 16.1511C11.5924 16.3182 12.8234 16.9452 13.7245 17.8948C14.0559 18.2519 14.3429 18.6546 14.5643 19.0888C14.7399 19.4672 14.9099 19.8542 14.9913 20.2655C15.1026 20.7054 15.1226 21.1595 15.1383 21.6108C15.1641 21.9164 15.1555 22.2249 15.194 22.5305C15.5211 22.3263 15.8381 22.1064 16.1609 21.895C16.5779 21.6094 17.0291 21.3752 17.509 21.2152C18.0074 21.0738 18.5215 20.971 19.0427 20.9653C19.7268 20.9496 20.408 21.0881 21.0478 21.328C22.2945 21.7993 23.3955 22.7119 24.0068 23.9072C24.221 24.3299 24.3609 24.7841 24.498 25.2354C24.6394 25.7552 24.7122 26.2922 24.7222 26.8306C24.7294 27.4875 24.6108 28.1445 24.3752 28.7557C24.1467 29.3826 23.7611 29.9425 23.3027 30.4209C22.7943 30.9307 22.1745 31.3263 21.5062 31.5934C21.0563 31.7904 20.5779 31.9133 20.0938 31.9861C19.4426 32.0961 18.7771 32.1046 18.1202 32.0546C17.8817 32.0389 17.6461 31.9889 17.4061 31.9847C16.6607 31.8247 15.9124 31.6705 15.1569 31.5634C14.5928 31.4962 14.0287 31.4248 13.4618 31.3949C12.4878 31.3534 11.5053 31.4106 10.5556 31.6391C10.0872 30.6608 9.51882 29.7282 8.82049 28.8985C8.35636 28.343 7.86653 27.8088 7.34527 27.3047C6.88686 26.8491 6.38988 26.4336 5.95575 25.9523C5.02749 24.944 4.30345 23.7073 4.05782 22.3463C3.86645 21.3452 3.98213 20.2884 4.39342 19.3572C4.66047 18.7603 5.05319 18.2219 5.53446 17.7792C6.31991 17.0337 7.32242 16.5467 8.36636 16.2868C8.99329 16.1254 9.65021 16.0626 10.2943 16.1511Z" fill="#FFC107"/>
</g>
</g>
</g>
<mask id="mask68_373_9973" style="mask-type:luminance" maskUnits="userSpaceOnUse" x="10" y="13" width="18" height="16">
<path d="M10.9688 13.5283H27.0547V28.8834H10.9688V13.5283Z" fill="white"/>
</mask>
<g mask="url(#mask68_373_9973)">
<mask id="mask69_373_9973" style="mask-type:luminance" maskUnits="userSpaceOnUse" x="-9" y="-7" width="53" height="51">
<path d="M6.8967 -6.49902L43.2515 12.1422L27.3626 43.1295L-8.99219 24.4868L6.8967 -6.49902Z" fill="white"/>
</mask>
<g mask="url(#mask69_373_9973)">
<mask id="mask70_373_9973" style="mask-type:luminance" maskUnits="userSpaceOnUse" x="-9" y="-7" width="53" height="51">
<path d="M6.8967 -6.49805L43.2515 12.1432L27.3626 43.1305L-8.99219 24.4878L6.8967 -6.49805Z" fill="white"/>
</mask>
<g mask="url(#mask70_373_9973)">
<path d="M11.4456 13.6723C12.6667 13.9979 13.7891 14.6976 14.606 15.6631C15.3386 16.5299 15.827 17.6053 15.9984 18.7278C16.1126 19.4033 16.0598 20.0917 16.0912 20.7729C16.5868 20.4401 17.0509 20.0602 17.575 19.7718C18.6432 19.1719 19.8913 18.8877 21.1138 18.992C22.469 19.1091 23.7829 19.6789 24.7883 20.5958C25.5494 21.2827 26.1335 22.1681 26.4434 23.1478C27.0189 24.7859 27.1146 26.6139 26.5719 28.2748C26.5319 28.399 26.4905 28.5233 26.4248 28.6375C26.769 27.5907 26.8061 26.4625 26.6548 25.3757C26.4905 24.2646 26.1092 23.175 25.4752 22.2438C25.1167 21.7126 24.6712 21.2384 24.1599 20.85C23.8871 20.6443 23.5872 20.4787 23.2859 20.3202C22.0992 19.6804 20.7268 19.3904 19.3844 19.5061C18.0206 19.6175 16.7681 20.3287 15.8099 21.2798C15.7813 21.1313 15.8084 20.9828 15.8056 20.8343C15.8084 19.8874 15.7013 18.9363 15.4271 18.0294C15.1558 17.1326 14.7045 16.29 14.0976 15.5774C13.6235 15.0304 13.0665 14.5548 12.4382 14.195C12.0711 13.9893 11.6913 13.8036 11.2971 13.6551C11.3471 13.6523 11.3971 13.6566 11.4456 13.6723Z" fill="#FFC107"/>
</g>
</g>
</g>
<mask id="mask71_373_9973" style="mask-type:luminance" maskUnits="userSpaceOnUse" x="4" y="13" width="24" height="20">
<path d="M4.38672 13.1602H27.0533V32.9025H4.38672V13.1602Z" fill="white"/>
</mask>
<g mask="url(#mask71_373_9973)">
<mask id="mask72_373_9973" style="mask-type:luminance" maskUnits="userSpaceOnUse" x="-9" y="-7" width="53" height="51">
<path d="M6.90427 -6.49902L43.2591 12.1422L27.3702 43.1295L-8.98462 24.4868L6.90427 -6.49902Z" fill="white"/>
</mask>
<g mask="url(#mask72_373_9973)">
<mask id="mask73_373_9973" style="mask-type:luminance" maskUnits="userSpaceOnUse" x="-9" y="-7" width="53" height="51">
<path d="M6.90427 -6.49805L43.2591 12.1432L27.3702 43.1305L-8.98462 24.4878L6.90427 -6.49805Z" fill="white"/>
</mask>
<g mask="url(#mask73_373_9973)">
<path d="M22.632 20.5606C22.8291 20.7434 23.0404 20.9105 23.2332 21.1004C24.1186 21.9544 24.8413 22.9712 25.3939 24.0695C25.8266 24.932 25.998 25.9117 25.9452 26.8714C25.9209 27.5926 25.7638 28.301 25.5739 28.9936C25.9966 28.2738 26.2036 27.4455 26.2636 26.6172C26.3522 25.429 26.0865 24.218 25.5125 23.174C24.8741 22.0173 23.8259 21.1104 22.632 20.5606ZM11.3001 13.657C11.6943 13.8056 12.0742 13.9912 12.4412 14.1969C13.0695 14.5568 13.6265 15.0323 14.1006 15.5793C14.7076 16.2919 15.1588 17.1345 15.4302 18.0314C15.7044 18.9382 15.8115 19.8894 15.8086 20.8362C15.8115 20.9847 15.7843 21.1332 15.8129 21.2803C16.7711 20.3306 18.0236 19.6194 19.3874 19.508C20.7298 19.3924 22.1022 19.6823 23.2889 20.3221C23.5903 20.4806 23.8902 20.6463 24.1629 20.8519C24.6742 21.2404 25.1197 21.7145 25.4782 22.2458C26.1123 23.1769 26.4936 24.2665 26.6578 25.3776C26.8092 26.4644 26.772 27.5926 26.4279 28.6394C26.2136 29.2907 25.8352 29.8719 25.4282 30.4174C24.6899 31.3571 23.6945 32.0841 22.5949 32.5439C22.2179 32.5682 21.8394 32.5539 21.4624 32.5439C20.1871 32.5139 18.919 32.3368 17.6723 32.0698C17.5837 32.0484 17.498 32.0155 17.4109 31.9884C17.6508 31.9912 17.8865 32.0412 18.125 32.0569C18.7833 32.1069 19.4474 32.0983 20.0986 31.9884C20.5827 31.9155 21.0625 31.7927 21.5124 31.5956C22.1793 31.3286 22.7991 30.933 23.3075 30.4232C23.7659 29.9447 24.1529 29.3849 24.38 28.758C24.6156 28.1467 24.7341 27.4898 24.727 26.8329C24.717 26.2945 24.6442 25.7575 24.5028 25.2377C24.3657 24.7864 24.2257 24.3322 24.0115 23.9095C23.4003 22.7142 22.3007 21.8016 21.0525 21.3303C20.4128 21.0904 19.7316 20.9519 19.0475 20.9676C18.5277 20.9733 18.0136 21.0761 17.5137 21.2175C17.0339 21.3775 16.5826 21.6117 16.1656 21.8973C15.8429 22.1087 15.5258 22.3286 15.1988 22.5328C15.1603 22.2272 15.1688 21.9187 15.1431 21.6131C15.1274 21.1618 15.1074 20.7077 14.996 20.2678C14.9146 19.8565 14.7447 19.4695 14.569 19.091C14.3477 18.6569 14.0606 18.2542 13.7293 17.8971C12.8282 16.9474 11.5972 16.3205 10.299 16.1534C9.65498 16.0649 8.99806 16.1277 8.37113 16.2891C7.3272 16.549 6.32468 17.036 5.53923 17.7815C5.0594 18.2242 4.66525 18.7626 4.39819 19.3595C4.41961 19.0868 4.40248 18.8126 4.4339 18.5412C4.52958 17.4401 4.90945 16.3719 5.48782 15.4322C5.63634 15.1851 5.82057 14.9609 5.97337 14.7167C5.99908 14.6839 6.03621 14.6639 6.07048 14.6425C6.61458 14.3226 7.18725 14.0455 7.79133 13.857C8.55964 13.6028 9.3608 13.3928 10.1777 13.4243C10.5632 13.4257 10.9388 13.5271 11.3001 13.657Z" fill="#FFC107"/>
</g>
</g>
</g>
<mask id="mask74_373_9973" style="mask-type:luminance" maskUnits="userSpaceOnUse" x="22" y="20" width="5" height="10">
<path d="M22.3027 20.4707H26.3242V29.2451H22.3027V20.4707Z" fill="white"/>
</mask>
<g mask="url(#mask74_373_9973)">
<mask id="mask75_373_9973" style="mask-type:luminance" maskUnits="userSpaceOnUse" x="-9" y="-7" width="53" height="51">
<path d="M6.90427 -6.49902L43.2591 12.1422L27.3702 43.1295L-8.98462 24.4868L6.90427 -6.49902Z" fill="white"/>
</mask>
<g mask="url(#mask75_373_9973)">
<mask id="mask76_373_9973" style="mask-type:luminance" maskUnits="userSpaceOnUse" x="-9" y="-7" width="53" height="51">
<path d="M6.90403 -6.49829L43.2588 12.1429L27.3699 43.1302L-8.98486 24.4876L6.90403 -6.49829Z" fill="white"/>
</mask>
<g mask="url(#mask76_373_9973)">
<path d="M22.6304 20.5593C23.8243 21.1092 24.8725 22.016 25.5108 23.1728C26.0849 24.2167 26.3505 25.4278 26.262 26.616C26.202 27.4429 25.9949 28.2726 25.5722 28.9924C25.7622 28.2997 25.9193 27.5914 25.9435 26.8702C25.9964 25.9105 25.825 24.9308 25.3923 24.0682C24.8396 22.97 24.117 21.9532 23.2316 21.0992C23.0388 20.9092 22.8274 20.7421 22.6304 20.5593Z" fill="#FFC107"/>
</g>
</g>
</g>
<mask id="mask77_373_9973" style="mask-type:luminance" maskUnits="userSpaceOnUse" x="2" y="14" width="21" height="20">
<path d="M2.19336 14.625H22.6664V33.2705H2.19336V14.625Z" fill="white"/>
</mask>
<g mask="url(#mask77_373_9973)">
<mask id="mask78_373_9973" style="mask-type:luminance" maskUnits="userSpaceOnUse" x="-9" y="-7" width="53" height="51">
<path d="M6.90183 -6.49805L43.2566 12.1432L27.3677 43.1305L-8.98706 24.4878L6.90183 -6.49805Z" fill="white"/>
</mask>
<g mask="url(#mask78_373_9973)">
<mask id="mask79_373_9973" style="mask-type:luminance" maskUnits="userSpaceOnUse" x="-9" y="-7" width="53" height="51">
<path d="M6.90159 -6.49707L43.2564 12.1441L27.3675 43.1315L-8.9873 24.4888L6.90159 -6.49707Z" fill="white"/>
</mask>
<g mask="url(#mask79_373_9973)">
<path d="M5.96822 14.7175C5.81542 14.9617 5.63119 15.186 5.48267 15.433C4.9043 16.3727 4.52443 17.4409 4.42874 18.542C4.39733 18.8134 4.41446 19.0876 4.39304 19.3603C3.98175 20.2915 3.86608 21.3483 4.05744 22.3494C4.30307 23.7104 5.02711 24.9471 5.95537 25.9554C6.38951 26.4367 6.88648 26.8522 7.3449 27.3078C7.86615 27.8119 8.35598 28.3461 8.82011 28.9016C9.51845 29.7313 10.0868 30.6639 10.5552 31.6422C11.5049 31.4137 12.4874 31.3565 13.4614 31.3994C14.0283 31.4279 14.5924 31.4993 15.1565 31.5665C15.912 31.6736 16.6603 31.8278 17.4058 31.9892C17.4929 32.0163 17.5786 32.0492 17.6671 32.0706C18.9138 32.3376 20.182 32.5147 21.4573 32.5433C21.8343 32.5547 22.2127 32.569 22.5897 32.5447L22.6369 32.559C22.4555 32.6575 22.2498 32.6918 22.0571 32.7575C21.036 33.0874 19.9592 33.2388 18.8867 33.1959C18.2155 33.1745 17.5486 33.0803 16.8888 32.956C15.575 32.729 14.2426 32.5747 12.9087 32.5933C11.8734 32.609 10.8351 32.7475 9.85119 33.0774C9.60699 32.519 9.36136 31.9592 9.06432 31.4237C8.51165 30.3968 7.79332 29.47 7.02786 28.596C6.51232 28.0247 5.97679 27.472 5.42269 26.9379C4.5587 26.0896 3.8061 25.1142 3.29627 24.0117C2.89926 23.1477 2.62793 22.2194 2.56223 21.2683C2.46512 20.0673 2.69647 18.8419 3.20345 17.7509C3.68757 16.7098 4.45731 15.8186 5.36271 15.1217C5.56122 14.9803 5.75115 14.8261 5.96822 14.7175Z" fill="#FFC107"/>
</g>
</g>
</g>
</svg>
