<svg width="28" height="26" viewBox="0 0 28 26" fill="none" xmlns="http://www.w3.org/2000/svg">
<path d="M13.6158 25H26.2316M1 25H3.34731C4.03302 25 4.37588 25 4.69853 24.9225C4.98459 24.8538 5.25806 24.7406 5.5089 24.5869C5.79182 24.4135 6.03426 24.171 6.51913 23.6862L24.1291 6.07622C25.2903 4.91497 25.2903 3.0322 24.1291 1.87094C22.9678 0.709686 21.0851 0.709687 19.9238 1.87094L2.31381 19.4809C1.82894 19.9658 1.5865 20.2082 1.41313 20.4911C1.25941 20.742 1.14614 21.0154 1.07746 21.3015C1 21.6241 1 21.967 1 22.6527V25Z" stroke="#FFC107" stroke-width="2" stroke-linecap="round" stroke-linejoin="round"/>
</svg>
