<svg width="31" height="22" viewBox="0 0 31 22" fill="none" xmlns="http://www.w3.org/2000/svg">
<path d="M21.5338 10.6476C21.5338 14.1998 18.6542 17.0794 15.1021 17.0794C11.5499 17.0794 8.67031 14.1998 8.67031 10.6476C8.67031 7.09547 11.5499 4.21588 15.1021 4.21588C18.6542 4.21588 21.5338 7.09547 21.5338 10.6476Z" stroke="#5AA0FF" stroke-width="2"/>
<path d="M28.2679 8.93404C28.8921 9.69181 29.2041 10.0707 29.2041 10.6476C29.2041 11.2246 28.8921 11.6035 28.2679 12.3612C25.9845 15.1336 20.9481 20.2953 15.1021 20.2953C9.25603 20.2953 4.21963 15.1336 1.93621 12.3612C1.31207 11.6035 1 11.2246 1 10.6476C1 10.0707 1.31207 9.69181 1.93621 8.93403C4.21963 6.16171 9.25603 1 15.1021 1C20.9481 1 25.9845 6.16171 28.2679 8.93404Z" stroke="#5AA0FF" stroke-width="2"/>
</svg>
