<svg width="35" height="39" viewBox="0 0 35 39" fill="none" xmlns="http://www.w3.org/2000/svg">
<path d="M17.5 33.8889L1 33.8889M17.5 33.8889C17.5 36.1594 19.3468 38 21.625 38C23.9032 38 25.75 36.1594 25.75 33.8889M17.5 33.8889C17.5 31.6184 19.3468 29.7778 21.625 29.7778C23.9032 29.7778 25.75 31.6184 25.75 33.8889M34 5.11111L29.875 5.11111M34 33.8889L25.75 33.8889M17.5 5.11111L1 5.11111M7.1875 19.5L1 19.5M7.1875 19.5C7.1875 21.7705 9.03433 23.6111 11.3125 23.6111C13.5907 23.6111 15.4375 21.7705 15.4375 19.5C15.4375 17.2295 13.5907 15.3889 11.3125 15.3889C9.03433 15.3889 7.1875 17.2295 7.1875 19.5ZM34 19.5L17.5 19.5M23.6875 0.999999C25.9657 0.999998 27.8125 2.84061 27.8125 5.11111C27.8125 7.38161 25.9657 9.22222 23.6875 9.22222C21.4093 9.22222 19.5625 7.38161 19.5625 5.11111C19.5625 2.84061 21.4093 0.999999 23.6875 0.999999Z" stroke="#FFC107" stroke-width="2" stroke-linecap="round"/>
</svg>
