<svg width="36" height="36" viewBox="0 0 36 36" fill="none" xmlns="http://www.w3.org/2000/svg">
<rect x="0.5" y="0.5" width="35" height="35" rx="17.5" fill="#F6F6F6"/>
<rect x="0.5" y="0.5" width="35" height="35" rx="17.5" stroke="white"/>
<path d="M14.2523 13.0576L14.5802 10.1063C14.6271 9.73152 14.955 9.45044 15.3298 9.4973L26.8538 10.7153C27.2286 10.7621 27.5097 11.0901 27.4629 11.4648L26.2449 22.9889C26.2449 23.3168 25.8701 23.5979 25.4954 23.5979L22.4972 23.27M22.2629 20.8809L24.8394 21.1619C24.98 21.1619 25.0737 21.0682 25.1205 20.9277C25.1205 20.8809 25.1205 20.834 25.0737 20.7872L22.2629 15.681C22.216 15.5873 22.0287 15.5405 21.935 15.5873L21.7476 15.7747M20.6702 12.3549C21.045 12.3081 21.4197 12.5892 21.4197 12.9639L22.6377 24.5349C22.6845 24.9097 22.4035 25.2844 22.0287 25.2844L10.5046 26.5024C10.1298 26.5492 9.75506 26.2681 9.75506 25.8934L8.53709 14.3693C8.49024 13.9945 8.77132 13.6198 9.1461 13.6198L20.6702 12.3549ZM12.6127 15.5404C11.7695 15.6341 11.1136 16.3837 11.2073 17.2738C11.301 18.117 12.0505 18.7728 12.9406 18.6791C13.7839 18.5854 14.4397 17.8359 14.346 16.9458C14.2524 16.0557 13.4559 15.4468 12.6127 15.5404ZM16.8757 18.2575L14.627 21.0214C14.5333 21.1151 14.3928 21.1619 14.2991 21.0683L13.7838 20.6467C13.6901 20.553 13.5027 20.5998 13.4559 20.6935L11.0199 23.6917C10.9262 23.7854 10.9262 23.9728 11.0667 24.0196C11.0199 24.0665 11.1136 24.0665 11.1605 24.0665L20.8576 23.0359C20.9981 23.0359 21.0918 22.8954 21.0918 22.7548C21.0918 22.7079 21.0449 22.6611 21.0449 22.6143L17.2504 18.2107C17.1099 18.1639 16.9694 18.1638 16.8757 18.2575Z" stroke="#888888" stroke-width="1.25" stroke-linecap="round" stroke-linejoin="round"/>
</svg>
