<svg width="42" height="42" viewBox="0 0 42 42" fill="none" xmlns="http://www.w3.org/2000/svg">
<circle cx="20.798" cy="20.798" r="20.798" fill="#F6F6F6"/>
<path d="M16.9531 11.5869C15.966 11.6334 15.2919 11.791 14.7025 12.0225C14.0926 12.2602 13.5757 12.5792 13.0613 13.0954C12.547 13.6116 12.2302 14.1289 11.9942 14.7398C11.7658 15.3304 11.611 16.0051 11.5674 16.9928C11.5238 17.9805 11.5142 18.2979 11.519 20.8174C11.5238 23.3368 11.535 23.6526 11.5828 24.6424C11.63 25.6293 11.7869 26.3032 12.0185 26.8927C12.2566 27.5027 12.5752 28.0194 13.0916 28.534C13.608 29.0485 14.1249 29.3645 14.7372 29.6009C15.3273 29.8289 16.0022 29.9844 16.9897 30.0277C17.9772 30.0709 18.295 30.0809 20.8137 30.0761C23.3324 30.0713 23.6495 30.0601 24.6391 30.0132C25.6286 29.9662 26.299 29.8082 26.8887 29.5777C27.4986 29.3391 28.0158 29.021 28.5299 28.5045C29.0441 27.9879 29.3607 27.4702 29.5965 26.859C29.8251 26.2689 29.9804 25.5941 30.0233 24.6073C30.0665 23.617 30.0767 23.3008 30.0719 20.7817C30.0671 18.2627 30.0557 17.9469 30.0088 16.9575C29.9619 15.9681 29.8047 15.2962 29.5733 14.7064C29.3349 14.0965 29.0166 13.5801 28.5004 13.0652C27.9842 12.5502 27.4662 12.2339 26.8551 11.9986C26.2647 11.7702 25.5902 11.6145 24.6027 11.5718C23.6152 11.5292 23.2974 11.5182 20.7777 11.523C18.2581 11.5279 17.9427 11.5386 16.9531 11.5869ZM17.0615 28.3586C16.1569 28.3193 15.6657 28.169 15.3384 28.0432C14.905 27.8762 14.5962 27.6743 14.27 27.3512C13.9438 27.0282 13.7434 26.7183 13.5742 26.2858C13.4471 25.9585 13.294 25.4679 13.2517 24.5633C13.2057 23.5856 13.196 23.2921 13.1907 20.8151C13.1853 18.3382 13.1947 18.045 13.2376 17.067C13.2762 16.1631 13.4274 15.6714 13.553 15.3443C13.72 14.9103 13.9212 14.6021 14.245 14.2761C14.5688 13.9501 14.8777 13.7493 15.3106 13.5801C15.6375 13.4524 16.1281 13.3006 17.0323 13.2576C18.0108 13.2112 18.3039 13.2019 20.7805 13.1965C23.2571 13.1911 23.551 13.2004 24.5298 13.2435C25.4336 13.2828 25.9255 13.4326 26.2523 13.5589C26.6859 13.7259 26.9945 13.9265 27.3205 14.2508C27.6465 14.5752 27.8475 14.883 28.0167 15.3168C28.1445 15.6429 28.2963 16.1333 28.339 17.038C28.3856 18.0165 28.3962 18.3098 28.4006 20.7862C28.4051 23.2626 28.3963 23.5567 28.3535 24.5344C28.314 25.4389 28.164 25.9303 28.038 26.258C27.871 26.6912 27.6697 27.0002 27.3457 27.326C27.0218 27.6518 26.7132 27.8526 26.2801 28.0218C25.9535 28.1493 25.4624 28.3015 24.5589 28.3445C23.5805 28.3905 23.2873 28.4002 20.8098 28.4056C18.3323 28.4109 18.0399 28.4009 17.0615 28.3586ZM24.6248 15.841C24.6252 16.0612 24.6908 16.2764 24.8135 16.4593C24.9361 16.6422 25.1103 16.7846 25.3139 16.8685C25.5175 16.9524 25.7414 16.9741 25.9573 16.9307C26.1732 16.8874 26.3714 16.781 26.5268 16.625C26.6822 16.469 26.7879 16.2704 26.8304 16.0543C26.873 15.8383 26.8505 15.6144 26.7659 15.4112C26.6812 15.2079 26.5382 15.0343 26.3548 14.9123C26.1715 14.7903 25.9561 14.7254 25.7359 14.7259C25.4407 14.7264 25.1578 14.8443 24.9494 15.0534C24.7411 15.2625 24.6243 15.5458 24.6248 15.841ZM16.0318 20.8088C16.037 23.44 18.1739 25.5681 20.8044 25.5631C23.435 25.5581 25.5646 23.4214 25.5596 20.7903C25.5546 18.1591 23.4172 16.0305 20.7863 16.0357C18.1553 16.0409 16.0268 18.1781 16.0318 20.8088ZM17.7029 20.8055C17.7017 20.1938 17.8819 19.5956 18.2207 19.0863C18.5595 18.5771 19.0418 18.1797 19.6064 17.9445C20.171 17.7093 20.7927 17.6469 21.3929 17.765C21.993 17.8831 22.5446 18.1766 22.978 18.6082C23.4114 19.0399 23.707 19.5904 23.8275 20.19C23.948 20.7897 23.888 21.4116 23.6551 21.9772C23.4221 22.5428 23.0267 23.0266 22.5188 23.3674C22.0109 23.7082 21.4133 23.8908 20.8017 23.892C20.3955 23.8928 19.9932 23.8137 19.6177 23.659C19.2421 23.5044 18.9007 23.2772 18.613 22.9906C18.3252 22.704 18.0967 22.3635 17.9406 21.9886C17.7844 21.6137 17.7037 21.2116 17.7029 20.8055Z" fill="#4D3A02"/>
</svg>
