<svg width="56" height="57" viewBox="0 0 56 57" fill="none" xmlns="http://www.w3.org/2000/svg">
<path d="M7.8884 22.3519H12.0279V23.6016H9.37236V25.1246H11.6374V26.3743H9.37236V28.9126H7.8884V22.3519Z" fill="white"/>
<path d="M12.5551 26.4328C12.5551 26.0228 12.6136 25.6518 12.7503 25.3199C12.887 24.9879 13.0627 24.7146 13.2971 24.4998C13.5314 24.285 13.7852 24.1093 14.0781 23.9921C14.371 23.875 14.6834 23.8164 14.9958 23.8164C15.3082 23.8164 15.6206 23.875 15.9135 23.9921C16.2064 24.1093 16.4602 24.285 16.6945 24.4998C16.9289 24.7146 17.1046 24.9879 17.2413 25.3199C17.3779 25.6518 17.4365 26.0228 17.4365 26.4328C17.4365 26.8429 17.3779 27.2139 17.2413 27.5458C17.1046 27.8778 16.9289 28.1511 16.6945 28.3659C16.4602 28.5807 16.2064 28.7564 15.9135 28.8736C15.6206 28.9907 15.3277 29.0493 14.9958 29.0493C14.6834 29.0493 14.371 28.9907 14.0781 28.8736C13.7852 28.7564 13.5314 28.5807 13.2971 28.3659C13.0627 28.1511 12.887 27.8778 12.7503 27.5458C12.6332 27.2139 12.5551 26.8429 12.5551 26.4328ZM14.0781 26.4328C14.0781 26.8624 14.1562 27.2139 14.3124 27.4677C14.4686 27.7215 14.6834 27.8582 14.9958 27.8582C15.2887 27.8582 15.523 27.7215 15.6792 27.4677C15.8354 27.2139 15.9135 26.8624 15.9135 26.4328C15.9135 26.0033 15.8354 25.6518 15.6792 25.398C15.523 25.1441 15.2887 25.0075 14.9958 25.0075C14.6834 25.0075 14.4491 25.1441 14.3124 25.398C14.1757 25.6518 14.0781 25.9838 14.0781 26.4328Z" fill="white"/>
<path d="M19.8772 23.9335V26.8429C19.8772 27.2139 19.9358 27.4482 20.0335 27.5849C20.1311 27.7215 20.2873 27.7801 20.5021 27.7801C20.6973 27.7801 20.8535 27.7411 20.9707 27.6434C21.1074 27.5653 21.2441 27.4091 21.3807 27.2139V23.914H22.8647V28.9126H21.6541L21.5369 28.2097H21.4979C21.2831 28.4635 21.0488 28.6588 20.8145 28.815C20.5606 28.9517 20.2678 29.0298 19.9358 29.0298C19.3891 29.0298 18.9986 28.854 18.7447 28.5026C18.4909 28.1511 18.3738 27.663 18.3738 27.0186V23.9335H19.8772Z" fill="white"/>
<path d="M24.1534 23.9335H25.364L25.4616 24.5584H25.5007C25.7155 24.3631 25.9498 24.1874 26.2036 24.0312C26.4574 23.875 26.7503 23.7969 27.1018 23.7969C27.6485 23.7969 28.039 23.9726 28.2929 24.3241C28.5467 24.6755 28.6639 25.1637 28.6639 25.808V28.9126H27.1799V26.0033C27.1799 25.6323 27.1408 25.398 27.0432 25.2613C26.9456 25.1246 26.7894 25.066 26.5746 25.066C26.3793 25.066 26.2231 25.1051 26.0865 25.1832C25.9498 25.2613 25.8131 25.3785 25.6374 25.5347V28.9126H24.1534V23.9335Z" fill="white"/>
<path d="M29.6401 26.4328C29.6401 26.0228 29.6987 25.6518 29.8159 25.3394C29.933 25.027 30.0892 24.7536 30.2845 24.5193C30.4798 24.285 30.6945 24.1288 30.9484 23.9921C31.2022 23.875 31.456 23.8164 31.7099 23.8164C31.9832 23.8164 32.2176 23.8554 32.4128 23.9531C32.5885 24.0507 32.7643 24.1679 32.94 24.3436L32.8814 23.5821V21.8833H34.3654V28.9321H33.1548L33.0572 28.444H33.0181C32.8424 28.6197 32.6471 28.7564 32.4128 28.8736C32.1785 28.9907 31.9442 29.0493 31.6904 29.0493C31.3779 29.0493 31.1046 28.9907 30.8507 28.8736C30.5969 28.7564 30.3821 28.5807 30.2064 28.3464C30.0307 28.1121 29.894 27.8387 29.7964 27.5263C29.6987 27.1944 29.6401 26.8429 29.6401 26.4328ZM31.1632 26.4133C31.1632 26.9015 31.2413 27.2725 31.3975 27.5068C31.5537 27.7411 31.7685 27.8582 32.0613 27.8582C32.2176 27.8582 32.3738 27.8192 32.4909 27.7606C32.6276 27.702 32.7448 27.5849 32.8619 27.4091V25.3589C32.7252 25.2418 32.5885 25.1637 32.4519 25.1051C32.3152 25.0465 32.1785 25.027 32.0418 25.027C31.8075 25.027 31.5927 25.1441 31.417 25.3589C31.2608 25.5737 31.1632 25.9252 31.1632 26.4133Z" fill="white"/>
<path d="M36.4156 23.1916C36.1618 23.1916 35.9665 23.1135 35.8103 22.9768C35.6541 22.8401 35.576 22.6448 35.576 22.4105C35.576 22.1762 35.6541 22.0005 35.8103 21.8638C35.9665 21.7271 36.1813 21.649 36.4156 21.649C36.6694 21.649 36.8842 21.7271 37.0404 21.8638C37.1966 22.0005 37.2747 22.1957 37.2747 22.4105C37.2747 22.6448 37.1966 22.8206 37.0404 22.9768C36.8647 23.133 36.6694 23.1916 36.4156 23.1916ZM35.6736 23.9335H37.1576V28.9321H35.6736V23.9335Z" fill="white"/>
<path d="M38.4463 23.9335H39.6569L39.7545 24.5584H39.7936C40.0084 24.3631 40.2427 24.1874 40.4965 24.0312C40.7503 23.875 41.0432 23.7969 41.3947 23.7969C41.9414 23.7969 42.3319 23.9726 42.5858 24.3241C42.8396 24.6755 42.9567 25.1637 42.9567 25.808V28.9126H41.4728V26.0033C41.4728 25.6323 41.4337 25.398 41.3361 25.2613C41.2385 25.1246 41.0823 25.066 40.8675 25.066C40.6722 25.066 40.516 25.1051 40.3793 25.1832C40.2427 25.2613 40.106 25.3785 39.9302 25.5347V28.9126H38.4463V23.9335Z" fill="white"/>
<path d="M43.894 29.7718C43.894 29.3617 44.1283 29.0298 44.6164 28.7564V28.7174C44.4798 28.6393 44.3626 28.5221 44.2845 28.3854C44.2064 28.2487 44.1478 28.073 44.1478 27.8778C44.1478 27.702 44.2064 27.5263 44.304 27.3506C44.4017 27.1944 44.5383 27.0381 44.7141 26.9405V26.9015C44.5383 26.7843 44.3821 26.6086 44.2454 26.3743C44.1088 26.14 44.0307 25.8861 44.0307 25.5932C44.0307 25.3003 44.0892 25.027 44.2064 24.8122C44.3235 24.5779 44.4798 24.4022 44.6555 24.246C44.8507 24.0897 45.0655 23.9921 45.3194 23.914C45.5732 23.8359 45.827 23.7969 46.1004 23.7969C46.3933 23.7969 46.6471 23.8359 46.8814 23.914H48.6973V24.9879H47.8968C47.9358 25.066 47.9749 25.1637 48.0139 25.2613C48.053 25.3785 48.053 25.4956 48.053 25.6323C48.053 25.9252 47.9944 26.179 47.8968 26.3743C47.7991 26.5891 47.6625 26.7648 47.4867 26.9015C47.311 27.0381 47.0962 27.1358 46.8619 27.2139C46.6276 27.2725 46.3738 27.3115 46.1004 27.3115C45.9051 27.3115 45.7099 27.2725 45.4951 27.2139C45.4365 27.2725 45.3779 27.331 45.3584 27.3701C45.3389 27.4287 45.3194 27.4872 45.3194 27.5849C45.3194 27.7215 45.3779 27.7997 45.4951 27.8582C45.6123 27.9168 45.8075 27.9559 46.0809 27.9559H46.8814C47.5063 27.9559 47.9749 28.0535 48.2873 28.2487C48.6192 28.444 48.7754 28.7759 48.7754 29.225C48.7754 29.4789 48.7169 29.7327 48.5802 29.9475C48.4435 30.1623 48.2678 30.3575 48.0139 30.5137C47.7796 30.6699 47.4867 30.7871 47.1353 30.8847C46.7838 30.9824 46.4128 31.0214 45.9832 31.0214C45.6904 31.0214 45.417 31.0019 45.1632 30.9433C44.9093 30.8847 44.6945 30.8261 44.4993 30.709C44.304 30.6114 44.1673 30.4747 44.0502 30.3185C43.9526 30.1818 43.894 30.0061 43.894 29.7718ZM45.1241 29.5374C45.1241 29.7327 45.2217 29.8694 45.417 29.967C45.6123 30.0646 45.8856 30.1037 46.2176 30.1037C46.5495 30.1037 46.8229 30.0451 47.0376 29.928C47.2524 29.8108 47.35 29.6741 47.35 29.4984C47.35 29.3422 47.2915 29.2446 47.1548 29.186C47.0181 29.1274 46.8424 29.1079 46.5885 29.1079H46.0809C45.9051 29.1079 45.7685 29.1079 45.6513 29.0884C45.5537 29.0688 45.456 29.0688 45.3779 29.0493C45.2022 29.2055 45.1241 29.3812 45.1241 29.5374ZM46.1004 26.4524C46.2957 26.4524 46.4519 26.3743 46.5885 26.2376C46.7252 26.1009 46.7838 25.8861 46.7838 25.6128C46.7838 25.3589 46.7252 25.1441 46.5885 25.0075C46.4519 24.8708 46.2957 24.7927 46.1004 24.7927C45.9051 24.7927 45.7489 24.8513 45.6123 24.9879C45.4756 25.1246 45.417 25.3199 45.417 25.5932C45.417 25.8666 45.4756 26.0814 45.6123 26.2181C45.7489 26.3743 45.9051 26.4524 46.1004 26.4524Z" fill="white"/>
<path d="M11.9107 30.8848H15.2496C16.1673 30.8848 16.9874 31.0019 17.7099 31.2362C18.4519 31.4705 19.0767 31.822 19.5844 32.2906C20.1116 32.7788 20.5021 33.3841 20.7754 34.126C21.0488 34.868 21.1855 35.7467 21.1855 36.762C21.1855 37.7774 21.0488 38.656 20.7754 39.4175C20.5021 40.1595 20.1116 40.7843 19.5844 41.2725C19.0572 41.7606 18.4714 42.1316 17.7489 42.3659C17.046 42.6003 16.2455 42.7369 15.3668 42.7369H11.9107V30.8848ZM15.113 40.5696C15.6011 40.5696 16.0697 40.511 16.4798 40.3743C16.8898 40.2376 17.2413 40.0228 17.5342 39.73C17.827 39.4371 18.0614 39.0466 18.2176 38.5584C18.3738 38.0703 18.4714 37.465 18.4714 36.762C18.4714 36.0591 18.3933 35.4733 18.2176 34.9852C18.0614 34.497 17.827 34.126 17.5342 33.8332C17.2413 33.5403 16.8898 33.345 16.4798 33.2279C16.0697 33.1107 15.6206 33.0521 15.113 33.0521H14.6053V40.5891H15.113V40.5696Z" fill="white"/>
<path d="M27.5314 42.9517C26.7308 42.9517 26.0084 42.815 25.3445 42.5221C24.6806 42.2293 24.1143 41.8192 23.6457 41.292C23.1771 40.7648 22.8061 40.1009 22.5523 39.3394C22.2984 38.5779 22.1618 37.7188 22.1618 36.7425C22.1618 35.7662 22.2984 34.9071 22.5523 34.1456C22.8061 33.3841 23.1771 32.7592 23.6457 32.232C24.1143 31.7244 24.6806 31.3143 25.3445 31.041C26.0084 30.7676 26.7308 30.6309 27.5314 30.6309C28.3319 30.6309 29.0544 30.7676 29.7183 31.041C30.3821 31.3143 30.9484 31.7048 31.417 32.232C31.8856 32.7592 32.2566 33.3841 32.5104 34.1456C32.7643 34.9071 32.901 35.7662 32.901 36.723C32.901 37.6993 32.7643 38.5584 32.5104 39.3199C32.2566 40.0814 31.8856 40.7258 31.417 41.2725C30.9484 41.7997 30.3821 42.2097 29.7183 42.5026C29.0544 42.815 28.3319 42.9517 27.5314 42.9517ZM27.5314 40.6477C28.3514 40.6477 28.9958 40.2962 29.4644 39.5933C29.933 38.8903 30.1673 37.9531 30.1673 36.7425C30.1673 35.5514 29.933 34.6337 29.4644 33.9698C28.9958 33.306 28.3514 32.974 27.5314 32.974C26.7308 32.974 26.0865 33.306 25.6178 33.9698C25.1297 34.6337 24.8954 35.571 24.8954 36.7425C24.8954 37.3283 24.954 37.875 25.0906 38.3436C25.2273 38.8318 25.4031 39.2223 25.6178 39.5738C25.8326 39.9057 26.1255 40.1791 26.4379 40.3548C26.7503 40.55 27.1213 40.6477 27.5314 40.6477Z" fill="white"/>
<path d="M33.8382 36.8792C33.8382 35.9029 33.9944 35.0242 34.3068 34.2432C34.6192 33.4817 35.0293 32.8178 35.5565 32.2906C36.0837 31.7634 36.7085 31.3534 37.4114 31.08C38.1143 30.8067 38.8759 30.67 39.6764 30.67C40.516 30.67 41.2385 30.8262 41.8438 31.1386C42.4491 31.451 42.9567 31.8025 43.3668 32.2125L41.9024 33.8722C41.5899 33.5989 41.2775 33.3841 40.9651 33.2083C40.6527 33.0521 40.2231 32.974 39.7155 32.974C39.2468 32.974 38.8368 33.0717 38.4463 33.2279C38.0558 33.4036 37.7434 33.6574 37.47 33.9894C37.1966 34.3213 36.9819 34.7118 36.8256 35.1804C36.6694 35.6491 36.5913 36.1958 36.5913 36.7816C36.5913 38.0117 36.8647 38.9489 37.4114 39.6323C37.9581 40.2962 38.7978 40.6477 39.9302 40.6477C40.1646 40.6477 40.3989 40.6086 40.6332 40.55C40.848 40.4915 41.0432 40.3938 41.1799 40.2767V38.246H39.2078V36.0591H43.562V41.5068C43.3473 41.6825 43.0934 41.8583 42.8005 42.034C42.5077 42.2097 42.1952 42.3659 41.8633 42.5026C41.5314 42.6393 41.1604 42.7369 40.7699 42.815C40.3793 42.8931 39.9888 42.9322 39.5788 42.9322C38.7782 42.9322 38.0362 42.7955 37.3333 42.5417C36.6304 42.2878 36.0251 41.8973 35.4979 41.3897C34.9707 40.882 34.5607 40.2376 34.2678 39.4956C33.9749 38.7537 33.8382 37.875 33.8382 36.8792Z" fill="white"/>
<path d="M28 56.0195C26.4184 56.0195 24.8173 55.8829 23.2552 55.6095C16.4407 54.4575 10.3292 50.8061 6.01395 45.3584C2.08926 40.3794 0 34.3849 0 28C0 12.5551 12.5551 0 28 0C43.4449 0 56 12.5551 56 28C56 34.3654 53.9107 40.3794 49.9665 45.3584C45.6513 50.8061 39.5398 54.4379 32.7252 55.6095C31.2022 55.8829 29.6011 56.0195 28 56.0195ZM28 0.898187C13.0628 0.898187 0.898187 13.0628 0.898187 28C0.898187 34.1702 2.90934 39.9693 6.7364 44.7922C10.9149 50.0642 16.8312 53.5788 23.431 54.7113C26.4379 55.219 29.6011 55.219 32.6081 54.7113C39.1883 53.5788 45.1241 50.0642 49.2831 44.7922C53.0907 39.9693 55.1213 34.1506 55.1213 28C55.1213 13.0628 42.9568 0.898187 28 0.898187Z" fill="white"/>
<path d="M28 54.0474C26.516 54.0474 25.0321 53.9302 23.5872 53.6764C17.2608 52.6025 11.5593 49.205 7.55648 44.1478C3.88563 39.5202 1.95258 33.9358 1.95258 28C1.95258 13.6485 13.629 1.95254 28 1.95254C42.371 1.95254 54.0474 13.629 54.0474 28C54.0474 33.9163 52.1144 39.5007 48.4435 44.1478C44.4407 49.205 38.7392 52.6025 32.4128 53.6764C30.9679 53.9302 29.484 54.0474 28 54.0474ZM28 2.79215C14.0976 2.79215 2.79219 14.0976 2.79219 28C2.79219 33.7406 4.66666 39.1297 8.22036 43.6206C12.106 48.5216 17.6123 51.8019 23.7434 52.8368C26.5551 53.3054 29.484 53.3054 32.2761 52.8368C38.4072 51.8019 43.9135 48.5216 47.7992 43.6206C51.3529 39.1297 53.2273 33.7406 53.2273 28C53.2078 14.1171 41.9024 2.79215 28 2.79215Z" fill="white"/>
<path d="M18.5715 13.6478C18.0888 13.1009 17.7941 12.3833 17.7946 11.5966C17.7941 9.88575 19.1804 8.49943 20.8913 8.49997C22.4124 8.49997 23.678 9.59706 23.939 11.0432C23.9624 11.1731 24.0771 11.2595 24.207 11.2362C26.6545 10.8056 29.1031 10.8273 31.5517 11.2383C31.6811 11.2601 31.7958 11.1726 31.8192 11.0426C32.0802 9.59652 33.3452 8.49888 34.8669 8.49834C36.5778 8.49888 37.9635 9.88464 37.9641 11.5955C37.963 12.3827 37.6694 13.1003 37.1861 13.6467C37.0991 13.7457 37.0991 13.8924 37.1861 13.9903C37.6694 14.5367 37.9641 15.2543 37.9641 16.0415C37.963 17.7518 36.5767 19.1381 34.8669 19.1387C33.3458 19.1387 32.0801 18.0416 31.8192 16.5944C31.7958 16.4645 31.6816 16.3818 31.5528 16.4085C29.0683 16.9304 26.6181 16.944 24.2037 16.4117C24.0749 16.384 23.9618 16.4655 23.9384 16.5944C23.6775 18.0405 22.4124 19.1381 20.8902 19.1381C19.1799 19.1381 17.7936 17.7518 17.7936 16.0415C17.7936 15.2543 18.0877 14.5361 18.571 13.9898C18.6585 13.8935 18.659 13.7462 18.5715 13.6478Z" fill="white"/>
</svg>
