<svg width="67" height="67" viewBox="0 0 67 67" fill="none" xmlns="http://www.w3.org/2000/svg">
<path d="M9.36602 25.8725H14.2809V27.3562H11.1279V29.1645H13.8172V30.6482H11.1279V33.662H9.36602V25.8725Z" fill="white"/>
<path d="M14.9068 30.7178C14.9068 30.2309 14.9764 29.7904 15.1386 29.3963C15.3009 29.0022 15.5096 28.6776 15.7878 28.4226C16.066 28.1676 16.3673 27.959 16.7151 27.8199C17.0628 27.6808 17.4338 27.6112 17.8047 27.6112C18.1756 27.6112 18.5466 27.6808 18.8943 27.8199C19.2421 27.959 19.5434 28.1676 19.8216 28.4226C20.0998 28.6776 20.3085 29.0022 20.4708 29.3963C20.6331 29.7904 20.7026 30.2309 20.7026 30.7178C20.7026 31.2046 20.6331 31.6451 20.4708 32.0392C20.3085 32.4333 20.0998 32.7579 19.8216 33.0129C19.5434 33.2679 19.2421 33.4766 18.8943 33.6157C18.5466 33.7548 18.1988 33.8243 17.8047 33.8243C17.4338 33.8243 17.0628 33.7548 16.7151 33.6157C16.3673 33.4766 16.066 33.2679 15.7878 33.0129C15.5096 32.7579 15.3009 32.4333 15.1386 32.0392C14.9995 31.6451 14.9068 31.2046 14.9068 30.7178ZM16.7151 30.7178C16.7151 31.2278 16.8078 31.6451 16.9933 31.9465C17.1788 32.2478 17.4338 32.4101 17.8047 32.4101C18.1525 32.4101 18.4307 32.2478 18.6161 31.9465C18.8016 31.6451 18.8943 31.2278 18.8943 30.7178C18.8943 30.2077 18.8016 29.7904 18.6161 29.489C18.4307 29.1877 18.1525 29.0254 17.8047 29.0254C17.4338 29.0254 17.1556 29.1877 16.9933 29.489C16.831 29.7904 16.7151 30.1845 16.7151 30.7178Z" fill="white"/>
<path d="M23.6005 27.7503V31.2046C23.6005 31.6451 23.6701 31.9233 23.786 32.0856C23.9019 32.2478 24.0874 32.3174 24.3424 32.3174C24.5742 32.3174 24.7597 32.271 24.8988 32.1551C25.061 32.0624 25.2233 31.8769 25.3856 31.6451V27.7271H27.1475V33.662H25.7102L25.5711 32.8274H25.5247C25.2697 33.1288 24.9915 33.3606 24.7133 33.5461C24.4119 33.7084 24.0642 33.8011 23.6701 33.8011C23.0209 33.8011 22.5573 33.5925 22.2559 33.1752C21.9545 32.7579 21.8154 32.1783 21.8154 31.4132V27.7503H23.6005Z" fill="white"/>
<path d="M28.6776 27.7503H30.115L30.2309 28.4922H30.2773C30.5323 28.2603 30.8105 28.0517 31.1119 27.8662C31.4132 27.6808 31.761 27.588 32.1783 27.588C32.8274 27.588 33.2911 27.7967 33.5925 28.214C33.8938 28.6313 34.033 29.2108 34.033 29.9759V33.662H32.271V30.2077C32.271 29.7672 32.2247 29.489 32.1087 29.3268C31.9928 29.1645 31.8074 29.0949 31.5523 29.0949C31.3205 29.0949 31.135 29.1413 30.9728 29.234C30.8105 29.3268 30.6482 29.4659 30.4396 29.6513V33.662H28.6776V27.7503Z" fill="white"/>
<path d="M35.1921 30.7178C35.1921 30.2309 35.2617 29.7904 35.4008 29.4195C35.5399 29.0486 35.7253 28.724 35.9572 28.4458C36.189 28.1676 36.444 27.9821 36.7454 27.8199C37.0468 27.6808 37.3481 27.6112 37.6495 27.6112C37.9741 27.6112 38.2523 27.6576 38.4841 27.7735C38.6928 27.8894 38.9014 28.0285 39.1101 28.2372L39.0405 27.333V25.3161H40.8024V33.6852H39.3651L39.2492 33.1056H39.2028C38.9942 33.3143 38.7623 33.4766 38.4841 33.6157C38.2059 33.7548 37.9277 33.8243 37.6263 33.8243C37.2554 33.8243 36.9309 33.7548 36.6295 33.6157C36.3281 33.4766 36.0731 33.2679 35.8644 32.9897C35.6558 32.7115 35.4935 32.3869 35.3776 32.016C35.2617 31.6219 35.1921 31.2046 35.1921 30.7178ZM37.0004 30.6946C37.0004 31.2741 37.0931 31.7146 37.2786 31.9928C37.4641 32.271 37.7191 32.4101 38.0668 32.4101C38.2523 32.4101 38.4378 32.3638 38.5769 32.2942C38.7391 32.2247 38.8782 32.0856 39.0173 31.8769V29.4427C38.8551 29.3036 38.6928 29.2108 38.5305 29.1413C38.3682 29.0717 38.2059 29.0486 38.0436 29.0486C37.7654 29.0486 37.5104 29.1877 37.3018 29.4427C37.1163 29.6977 37.0004 30.115 37.0004 30.6946Z" fill="white"/>
<path d="M43.2367 26.8693C42.9353 26.8693 42.7035 26.7766 42.518 26.6143C42.3325 26.452 42.2398 26.2202 42.2398 25.942C42.2398 25.6638 42.3325 25.4552 42.518 25.2929C42.7035 25.1306 42.9585 25.0379 43.2367 25.0379C43.5381 25.0379 43.7931 25.1306 43.9785 25.2929C44.164 25.4552 44.2567 25.687 44.2567 25.942C44.2567 26.2202 44.164 26.4289 43.9785 26.6143C43.7699 26.7998 43.5381 26.8693 43.2367 26.8693ZM42.3557 27.7503H44.1176V33.6852H42.3557V27.7503Z" fill="white"/>
<path d="M45.6477 27.7503H47.0851L47.201 28.4922H47.2474C47.5024 28.2603 47.7806 28.0517 48.082 27.8662C48.3834 27.6808 48.7311 27.588 49.1484 27.588C49.7975 27.588 50.2612 27.7967 50.5626 28.214C50.864 28.6313 51.0031 29.2108 51.0031 29.9759V33.662H49.2411V30.2077C49.2411 29.7672 49.1948 29.489 49.0789 29.3268C48.9629 29.1645 48.7775 29.0949 48.5225 29.0949C48.2906 29.0949 48.1052 29.1413 47.9429 29.234C47.7806 29.3268 47.6183 29.4659 47.4097 29.6513V33.662H45.6477V27.7503Z" fill="white"/>
<path d="M52.1158 34.6821C52.1158 34.1952 52.3941 33.8011 52.9736 33.4766V33.4302C52.8113 33.3375 52.6722 33.1984 52.5795 33.0361C52.4868 32.8738 52.4172 32.6651 52.4172 32.4333C52.4172 32.2247 52.4868 32.016 52.6027 31.8074C52.7186 31.6219 52.8809 31.4364 53.0895 31.3205V31.2741C52.8809 31.135 52.6954 30.9264 52.5332 30.6482C52.3709 30.37 52.2781 30.0686 52.2781 29.7209C52.2781 29.3731 52.3477 29.0486 52.4868 28.7935C52.6259 28.5153 52.8113 28.3067 53.02 28.1212C53.2518 27.9358 53.5068 27.8199 53.8082 27.7271C54.1096 27.6344 54.411 27.588 54.7356 27.588C55.0833 27.588 55.3847 27.6344 55.6629 27.7271H57.8189V29.0022H56.8684C56.9148 29.0949 56.9611 29.2108 57.0075 29.3268C57.0539 29.4659 57.0539 29.605 57.0539 29.7672C57.0539 30.115 56.9843 30.4164 56.8684 30.6482C56.7525 30.9032 56.5902 31.1119 56.3816 31.2741C56.1729 31.4364 55.9179 31.5523 55.6397 31.6451C55.3615 31.7146 55.0601 31.761 54.7356 31.761C54.5037 31.761 54.2719 31.7146 54.0169 31.6451C53.9473 31.7146 53.8778 31.7842 53.8546 31.8305C53.8314 31.9001 53.8082 31.9696 53.8082 32.0856C53.8082 32.2478 53.8778 32.3406 54.0169 32.4101C54.156 32.4797 54.3878 32.526 54.7124 32.526H55.6629C56.4047 32.526 56.9611 32.642 57.3321 32.8738C57.7262 33.1056 57.9117 33.4997 57.9117 34.033C57.9117 34.3343 57.8421 34.6357 57.6798 34.8907C57.5175 35.1457 57.3089 35.3776 57.0075 35.563C56.7293 35.7485 56.3816 35.8876 55.9643 36.0035C55.547 36.1194 55.1065 36.1658 54.5965 36.1658C54.2487 36.1658 53.9241 36.1426 53.6228 36.0731C53.3214 36.0035 53.0664 35.934 52.8345 35.7949C52.6027 35.679 52.4404 35.5167 52.3013 35.3312C52.1854 35.1689 52.1158 34.9603 52.1158 34.6821ZM53.5764 34.4039C53.5764 34.6357 53.6923 34.798 53.9241 34.9139C54.156 35.0298 54.4805 35.0762 54.8746 35.0762C55.2688 35.0762 55.5933 35.0066 55.8483 34.8675C56.1034 34.7284 56.2193 34.5662 56.2193 34.3575C56.2193 34.1721 56.1497 34.0561 55.9874 33.9866C55.8252 33.917 55.6165 33.8939 55.3151 33.8939H54.7124C54.5037 33.8939 54.3414 33.8939 54.2023 33.8707C54.0864 33.8475 53.9705 33.8475 53.8778 33.8243C53.6691 34.0098 53.5764 34.2184 53.5764 34.4039ZM54.7356 30.7409C54.9674 30.7409 55.1529 30.6482 55.3151 30.4859C55.4774 30.3236 55.547 30.0686 55.547 29.7441C55.547 29.4427 55.4774 29.1877 55.3151 29.0254C55.1529 28.8631 54.9674 28.7704 54.7356 28.7704C54.5037 28.7704 54.3183 28.8399 54.156 29.0022C53.9937 29.1645 53.9241 29.3963 53.9241 29.7209C53.9241 30.0454 53.9937 30.3005 54.156 30.4627C54.3183 30.6482 54.5037 30.7409 54.7356 30.7409Z" fill="white"/>
<path d="M14.1418 36.0035H18.1061C19.1957 36.0035 20.1694 36.1426 21.0272 36.4208C21.9081 36.699 22.65 37.1163 23.2528 37.6727C23.8787 38.2523 24.3424 38.971 24.6669 39.8519C24.9915 40.7329 25.1538 41.7761 25.1538 42.9817C25.1538 44.1872 24.9915 45.2304 24.6669 46.1346C24.3424 47.0155 23.8787 47.7574 23.2528 48.337C22.6268 48.9166 21.9313 49.3571 21.0735 49.6353C20.2389 49.9135 19.2884 50.0757 18.2452 50.0757H14.1418V36.0035ZM17.9438 47.5024C18.5234 47.5024 19.0798 47.4328 19.5666 47.2706C20.0535 47.1083 20.4708 46.8533 20.8185 46.5055C21.1663 46.1578 21.4445 45.6941 21.6299 45.1145C21.8154 44.5349 21.9313 43.8163 21.9313 42.9817C21.9313 42.1471 21.8386 41.4516 21.6299 40.872C21.4445 40.2924 21.1663 39.8519 20.8185 39.5042C20.4708 39.1564 20.0535 38.9246 19.5666 38.7855C19.0798 38.6464 18.5466 38.5769 17.9438 38.5769H17.341V47.5256H17.9438V47.5024Z" fill="white"/>
<path d="M32.6883 50.3307C31.7378 50.3307 30.88 50.1685 30.0918 49.8207C29.3036 49.473 28.6313 48.9861 28.0749 48.3602C27.5185 47.7342 27.078 46.946 26.7766 46.0419C26.4752 45.1377 26.3129 44.1176 26.3129 42.9585C26.3129 41.7993 26.4752 40.7793 26.7766 39.8751C27.078 38.971 27.5185 38.2291 28.0749 37.6032C28.6313 37.0004 29.3036 36.5136 30.0918 36.189C30.88 35.8644 31.7378 35.7021 32.6883 35.7021C33.6388 35.7021 34.4966 35.8644 35.2848 36.189C36.0731 36.5136 36.7454 36.9772 37.3018 37.6032C37.8582 38.2291 38.2987 38.971 38.6 39.8751C38.9014 40.7793 39.0637 41.7993 39.0637 42.9353C39.0637 44.0945 38.9014 45.1145 38.6 46.0187C38.2987 46.9228 37.8582 47.6879 37.3018 48.337C36.7454 48.9629 36.0731 49.4498 35.2848 49.7975C34.4966 50.1685 33.6388 50.3307 32.6883 50.3307ZM32.6883 47.5951C33.662 47.5951 34.4271 47.1778 34.9835 46.3432C35.5399 45.5086 35.8181 44.3958 35.8181 42.9585C35.8181 41.5443 35.5399 40.4547 34.9835 39.6665C34.4271 38.8782 33.662 38.4841 32.6883 38.4841C31.7378 38.4841 30.9728 38.8782 30.4164 39.6665C29.8368 40.4547 29.5586 41.5675 29.5586 42.9585C29.5586 43.654 29.6281 44.3031 29.7904 44.8595C29.9527 45.4391 30.1614 45.9028 30.4164 46.3201C30.6714 46.7142 31.0191 47.0387 31.3901 47.2474C31.761 47.4792 32.2015 47.5951 32.6883 47.5951Z" fill="white"/>
<path d="M40.1765 43.1208C40.1765 41.9616 40.362 40.9184 40.7329 39.991C41.1038 39.0869 41.5907 38.2987 42.2166 37.6727C42.8426 37.0468 43.5844 36.5599 44.419 36.2354C45.2536 35.9108 46.1578 35.7485 47.1083 35.7485C48.1052 35.7485 48.9629 35.934 49.6816 36.3049C50.4003 36.6758 51.0031 37.0931 51.4899 37.58L49.7512 39.5506C49.3802 39.226 49.0093 38.971 48.6384 38.7623C48.2674 38.5769 47.7574 38.4841 47.1546 38.4841C46.5982 38.4841 46.1114 38.6 45.6477 38.7855C45.1841 38.9942 44.8131 39.2955 44.4886 39.6897C44.164 40.0838 43.909 40.5474 43.7235 41.1038C43.5381 41.6602 43.4453 42.3094 43.4453 43.0049C43.4453 44.4654 43.7699 45.5782 44.419 46.3896C45.0682 47.1778 46.065 47.5951 47.4097 47.5951C47.6879 47.5951 47.9661 47.5488 48.2443 47.4792C48.4993 47.4097 48.7311 47.2937 48.8934 47.1546V44.7436H46.5519V42.1471H51.7217V48.6152C51.4667 48.8238 51.1653 49.0325 50.8176 49.2411C50.4698 49.4498 50.0989 49.6353 49.7048 49.7975C49.3107 49.9598 48.8702 50.0757 48.4065 50.1685C47.9429 50.2612 47.4792 50.3076 46.9924 50.3076C46.0419 50.3076 45.1609 50.1453 44.3263 49.8439C43.4917 49.5425 42.773 49.0789 42.1471 48.4761C41.5211 47.8733 41.0343 47.1083 40.6865 46.2273C40.3388 45.3464 40.1765 44.3031 40.1765 43.1208Z" fill="white"/>
<path d="M22.7427 14.1881L23.5078 16.576C23.5078 16.5992 23.531 16.6224 23.5541 16.6224H26.0579C26.1043 16.6224 26.1507 16.6919 26.1043 16.7383L24.0874 18.1988C24.0642 18.222 24.0642 18.2452 24.0642 18.2684L24.8292 20.6562C24.8524 20.7026 24.7829 20.749 24.7365 20.7258L22.7195 19.2421C22.6964 19.2189 22.6732 19.2189 22.65 19.2421L20.6331 20.7026C20.5867 20.7258 20.5171 20.6794 20.5403 20.6331L21.3054 18.2452C21.3054 18.222 21.3054 18.1988 21.2822 18.1756L19.2421 16.7383C19.1957 16.7151 19.2189 16.6224 19.2884 16.6224H21.7922C21.8154 16.6224 21.8386 16.5992 21.8386 16.576L22.6036 14.1881C22.6268 14.1418 22.7195 14.1418 22.7427 14.1881Z" fill="white"/>
<path d="M33.0824 14.1881L33.8475 16.576C33.8475 16.5992 33.8707 16.6224 33.8939 16.6224H36.3976C36.444 16.6224 36.4904 16.6919 36.444 16.7383L34.4271 18.1988C34.4039 18.222 34.4039 18.2452 34.4039 18.2684L35.1689 20.6562C35.1921 20.7026 35.1226 20.749 35.0762 20.7258L33.0593 19.2652C33.0361 19.2421 33.0129 19.2421 32.9897 19.2652L30.9728 20.7258C30.9264 20.749 30.8568 20.7026 30.88 20.6562L31.6451 18.2684C31.6451 18.2452 31.6451 18.222 31.6219 18.1988L29.605 16.7383C29.5586 16.7151 29.5818 16.6224 29.6513 16.6224H32.1551C32.1783 16.6224 32.2015 16.5992 32.2015 16.576L32.9665 14.1881C32.9897 14.1418 33.0593 14.1418 33.0824 14.1881Z" fill="white"/>
<path d="M43.4221 14.1881L44.1872 16.576C44.1872 16.5992 44.2104 16.6224 44.2336 16.6224H46.7374C46.7837 16.6224 46.8301 16.6919 46.7837 16.7383L44.7668 18.1988C44.7436 18.222 44.7436 18.2452 44.7436 18.2684L45.5086 20.6562C45.5318 20.7026 45.4623 20.749 45.4159 20.7258L43.399 19.2652C43.3758 19.2421 43.3526 19.2421 43.3294 19.2652L41.3125 20.7258C41.2661 20.749 41.1966 20.7026 41.2197 20.6562L41.9848 18.2684C41.9848 18.2452 41.9848 18.222 41.9616 18.1988L39.9447 16.7383C39.8983 16.7151 39.9215 16.6224 39.991 16.6224H42.4948C42.518 16.6224 42.5412 16.5992 42.5412 16.576L43.3062 14.1881C43.3294 14.1418 43.399 14.1418 43.4221 14.1881Z" fill="white"/>
<path d="M33.2447 66.5126C31.3669 66.5126 29.4659 66.3503 27.6112 66.0258C19.5203 64.658 12.2639 60.3227 7.14043 53.8546C2.4806 47.9429 0 40.8256 0 33.2447C0 14.9068 14.9068 0 33.2447 0C51.5826 0 66.4894 14.9068 66.4894 33.2447C66.4894 40.8024 64.0088 47.9429 59.3258 53.8546C54.2023 60.3227 46.946 64.6348 38.8551 66.0258C37.0468 66.3503 35.1457 66.5126 33.2447 66.5126ZM33.2447 1.06643C15.5096 1.06643 1.06643 15.5096 1.06643 33.2447C1.06643 40.5706 3.4543 47.456 7.99821 53.1823C12.9594 59.4417 19.9839 63.6147 27.8199 64.9594C31.3901 65.5621 35.1457 65.5621 38.716 64.9594C46.5287 63.6147 53.5764 59.4417 58.5144 53.1823C63.0351 47.456 65.4462 40.5474 65.4462 33.2447C65.4462 15.5096 51.0031 1.06643 33.2447 1.06643Z" fill="white"/>
<path d="M33.2447 64.1711C31.4828 64.1711 29.7209 64.032 28.0053 63.7306C20.494 62.4556 13.7245 58.4217 8.9719 52.4172C4.61346 46.9228 2.31832 40.2924 2.31832 33.2447C2.31832 16.2051 16.1819 2.31832 33.2447 2.31832C50.3076 2.31832 64.1711 16.1819 64.1711 33.2447C64.1711 40.2692 61.876 46.8996 57.5175 52.4172C52.765 58.4217 45.9955 62.4556 38.4841 63.7306C36.7686 64.032 35.0066 64.1711 33.2447 64.1711ZM33.2447 3.3152C16.7383 3.3152 3.3152 16.7383 3.3152 33.2447C3.3152 40.0606 5.54079 46.4592 9.76013 51.7913C14.3736 57.6103 20.9113 61.5051 28.1908 62.7338C31.5292 63.2902 35.0066 63.2902 38.3218 62.7338C45.6014 61.5051 52.139 57.6103 56.7525 51.7913C60.9718 46.4592 63.1974 40.0606 63.1974 33.2447C63.1742 16.7615 49.7512 3.3152 33.2447 3.3152Z" fill="white"/>
</svg>
