<svg width="33" height="30" viewBox="0 0 33 30" fill="none" xmlns="http://www.w3.org/2000/svg">
<path d="M11.1973 17.1045C11.2594 17.1046 11.3247 17.1294 11.377 17.1826C11.43 17.2367 11.4648 17.3156 11.4648 17.4033C11.4648 17.4683 11.4457 17.5302 11.4131 17.5801C11.3806 17.6296 11.3367 17.6642 11.291 17.6836C11.2454 17.7028 11.196 17.7077 11.1494 17.6982C11.1029 17.6887 11.0566 17.6647 11.0176 17.625C10.9781 17.5848 10.9479 17.53 10.9355 17.4668C10.9232 17.4035 10.9295 17.3382 10.9531 17.2803C10.9766 17.2225 11.0149 17.1772 11.0586 17.1475C11.1019 17.118 11.1504 17.1045 11.1973 17.1045ZM21.8027 17.1045C21.8649 17.1045 21.9301 17.1294 21.9824 17.1826C22.0355 17.2367 22.0702 17.3156 22.0703 17.4033C22.0703 17.4683 22.0512 17.5301 22.0186 17.5801C21.986 17.6296 21.9422 17.6642 21.8965 17.6836C21.851 17.7028 21.8023 17.7076 21.7559 17.6982C21.7092 17.6888 21.6622 17.6648 21.623 17.625C21.5835 17.5848 21.5534 17.53 21.541 17.4668C21.5287 17.4036 21.535 17.3382 21.5586 17.2803C21.5821 17.2225 21.6204 17.1772 21.6641 17.1475C21.7074 17.118 21.7559 17.1045 21.8027 17.1045ZM31.499 15.6055C31.5013 15.7524 31.4688 15.8982 31.4023 16.0283C31.3118 16.2054 31.1675 16.3397 30.999 16.415L30.9893 16.4199L30.8916 16.459C30.8036 16.4888 30.7121 16.5033 30.6201 16.5039C30.4868 16.5031 30.3544 16.4676 30.2363 16.3965L30.0127 16.2617L31.499 15.6055ZM2.98535 16.2607L2.76367 16.3945C2.64534 16.4658 2.51243 16.5022 2.37891 16.5029C2.25672 16.5016 2.13546 16.4745 2.02246 16.4219L2.00098 16.4121L1.87988 16.3447C1.76409 16.2668 1.66554 16.1581 1.59766 16.0254C1.53162 15.8961 1.4982 15.7515 1.5 15.6055L2.98535 16.2607ZM28.6172 15.4209L28.6055 15.4131V15.4043L28.6172 15.4209ZM4.39453 15.4121L4.38379 15.418L4.39453 15.4043V15.4121Z" fill="#67D6AD" stroke="#67D6AD" stroke-width="3"/>
</svg>
