<svg width="42" height="42" viewBox="0 0 42 42" fill="none" xmlns="http://www.w3.org/2000/svg">
<circle cx="20.798" cy="20.798" r="20.798" fill="#F6F6F6"/>
<path d="M30.1972 22.5487V29.5073H26.1629V23.0146C26.1629 21.3832 25.5792 20.2704 24.1194 20.2704C23.0047 20.2704 22.3408 21.021 22.0494 21.7462C21.9429 22.0056 21.9155 22.3667 21.9155 22.7298V29.5073H17.8794C17.8794 29.5073 17.9341 18.5117 17.8794 17.3715H21.9155V19.0916L21.8891 19.1312H21.9155V19.0916C22.4512 18.2665 23.4083 17.0868 25.5518 17.0868C28.2064 17.0868 30.1972 18.8219 30.1972 22.5487ZM13.6584 11.522C12.2788 11.522 11.3754 12.4273 11.3754 13.6183C11.3754 14.7829 12.2524 15.7156 13.6056 15.7156H13.632C15.04 15.7156 15.9141 14.7829 15.9141 13.6183C15.8896 12.4273 15.04 11.522 13.6584 11.522ZM11.6149 29.5073H15.6491V17.3715H11.6149V29.5073Z" fill="#4D3A02"/>
</svg>
