<?xml version="1.0" encoding="UTF-8"?>
<svg id="Layer_1" xmlns="http://www.w3.org/2000/svg" version="1.1" viewBox="0 0 4897.69 3119.19">
  <!-- Generator: Adobe Illustrator 30.1.0, SVG Export Plug-In . SVG Version: 2.1.1 Build 136)  -->
  <defs>
    <style>
      .st0 {
        fill: #0c16e0;
      }

      .st1 {
        fill: #ffc107;
      }
    </style>
  </defs>
  <path class="st0" d="M609.96,1993.02c-17.83-38.2-41.88-69.21-71.77-92.39-14.79-11.43-30.78-21.26-47.95-29.42-17.19-8.07-35.57-14.47-54.99-19.1-38.29-8.96-78.96-13.59-120.86-13.59-60.75,0-110.86,8.15-148.91,24.22-38.61,16.06-69.23,37.65-91.21,64.19-21.73,26.38-36.61,56.27-44.37,88.8-7.35,31.65-11.11,63.22-11.11,93.91,0,63.54.07,123.89.41,180.97.41,56.75.8,108.79,1.04,156.02.41,44.28,1.04,85.36,1.84,122.13.88,33.73,2.16,60.11,3.92,78.26,2.56,37.25,7.67,60.02,16.15,71.77,9.19,13.11,26.86,19.67,52.51,19.67,7.19,0,14.63-.72,21.98-2.32,9.83-1.77,17.99-6.24,25.18-13.83,6.31-6.87,11.5-16.38,15.43-27.97,4.4-12.23,6.47-28.29,6.47-49.24l1.04-210.53,8.39.48c9.43.48,18.3.72,26.54.72h41.33c56.67,0,109.5-4.56,157.06-13.52,48.36-9.03,90.8-25.02,126.05-47.64,35.81-23.09,63.94-54.6,83.52-93.75,19.42-39.01,29.26-88.4,29.26-146.74s-9.12-103.27-26.93-141.07v-.03ZM472.73,2221.61c-12.86,21.18-29.01,37.49-48.2,48.36-19.74,11.03-42.37,18.15-67.21,21.26-25.66,3.04-50.67,4.63-74.58,4.63h-65.46c-16.15,0-30.46-.25-43.8-.72l-7.51-.25-.25-7.51c-.56-24.93-.88-51.4-.88-80.64v-94.56c0-27.33,2.79-49.88,8.39-67.14,5.51-16.7,13.75-29.9,24.45-39.4,10.79-9.67,24.77-16.63,41.65-20.71,18.46-4.31,40.76-6.47,66.42-6.47,67.3,0,115.82,13.02,144.04,38.77,28.38,25.5,42.12,62.9,42.12,114.3,0,38.45-6.4,68.66-19.19,90.08h.01Z"/>
  <path class="st0" d="M1241.08,2632.29c-5.35-22.46-12.16-47.16-20.39-73.38-8.55-27.42-17.42-54.28-26.38-79.85-9.19-26.38-17.58-51.79-24.86-75.69-9.19-26.86-21.18-60.27-35.65-98.95-13.83-36.84-29.26-77.05-47.07-122.92-14.47-37.72-29.9-77.21-49.95-128.05-16.63-42.53-31.33-80.01-44.44-113.03-3.36-7.99-7.83-17.67-13.27-28.69-5.51-10.95-11.91-21.5-19.03-31.33-7.44-10.79-16.22-20.14-26.13-27.81-11.03-8.55-23.18-12.86-36.29-12.86s-25.02,3.99-35.65,12c-9.51,7.12-18.15,15.74-25.66,25.66-7.03,9.28-13.34,19.58-18.87,30.78-4.72,9.83-8.8,19.19-12.07,27.65-13.43,30.69-28.69,67.14-46.84,111.83-16.15,40.44-32.85,82.89-51.08,129.8-15.67,40.36-31.49,81.68-48.2,126.37-15.11,40.2-26.7,73.7-34.53,99.51-8.71,25.09-17.42,50.75-26.06,76.74-8.96,27.42-17.35,54.12-24.86,79.37-7.6,25.18-14.07,49.79-19.26,73.13-4.95,22.7-7.51,41.65-7.51,56.35,0,17.83,6.8,31.73,20.14,41.56,12.07,8.48,25.18,12.79,38.85,12.79,35.97,0,63.38-23.25,81.45-69.14,8.31-20.06,17.03-42.76,25.81-67.71,7.44-21.26,15.19-43.64,23.34-67.06l1.92-5.51,5.83.16c19.67.48,41.24.72,64.1.72h95.27c27.49,0,54.83-.09,81.84-.41,21.98-.32,43.24-.88,62.99-1.59l5.76-.25,2,5.44c8.71,23.75,17.03,46.36,24.93,67.94,9.43,25.9,18.3,48.75,26.45,68.1,9.43,22.7,21.26,40.04,35,51.56,14.22,11.75,30.21,17.74,47.56,17.74,13.67,0,26.7-4.4,38.68-13.02,13.27-9.51,20.3-23.82,20.3-41.33,0-14.38-2.72-32.93-8.23-56.59h.03ZM991.46,2391.14c-10.39-.32-20.55-.56-30.29-.64-21.1-.56-40.29-.72-58.82-.72-19.82,0-41.01.16-64.83.72-12.39.09-24.93.41-38.04.8l-11.43.32,3.6-10.87c16.38-49.08,31.96-96.15,46.84-141.23,17.9-54.67,31.17-97.11,40.6-129.73,2.88-9.03,5.99-16.63,9.28-22.54l6.96-12.39,6.96,12.31c3.11,5.35,5.99,12.31,8.64,20.71,4.95,17.74,10.95,37.65,17.83,59.55,6.87,22.3,14.54,46.68,23.09,72.9,8.55,25.81,17.67,53.08,27.33,81.68,6.71,19.51,13.34,39.08,20.14,58.59l3.76,10.95-11.59-.41h-.04Z"/>
  <path class="st0" d="M2082.02,1896.46c0,15.74-2.47,42.28-7.67,81.21-4.79,37.41-11.27,82.09-19.42,132.84-7.51,47.8-16.47,100.39-27.33,160.82-9.28,52.04-19.03,105.59-29.9,163.53-9.75,51.72-19.19,100.08-28.06,143.79-9.12,44.37-16.31,76.81-22.07,99.35-5.44,21.26-13.91,37.65-25.18,48.68-12.07,11.75-29.17,17.67-50.67,17.67-22.86,0-43.01-10.87-58.43-31.57-13.99-18.55-28.78-46.91-45.32-86.88-16.31-39.49-35.41-88.88-56.98-146.99-17.99-48.52-40.6-106.23-67.3-171.37l-7.28-17.83-7.51,17.74c-27.49,64.99-50.67,122.85-68.89,171.85-21.73,58.34-41.17,108.06-57.71,147.78-16.15,39-31.65,68.26-46.28,87.04-15.74,20.78-35.09,31.33-57.48,31.33-38.2,0-63.7-22.3-75.77-66.26-6.71-23.34-14.54-56.51-23.18-98.63-8.71-42.12-17.67-88.96-27.42-143.23-9.35-52.44-18.94-106.86-28.78-163.14-9.83-56.03-18.55-109.66-25.9-159.38-7.67-53.47-13.43-96.72-17.67-132.13-4.4-38.93-6.56-65.46-6.56-81.12,0-17.51,5.6-32.14,16.7-43.48,11.11-11.34,26.54-17.1,45.89-17.1,13.59,0,26.77,4.24,39.33,12.63,13.18,8.64,22.3,25.02,27.9,49.88,19.67,96.07,37.16,197.82,52.04,302.37,11.91,82.64,24.38,164.57,37,243.46l4.56,28.61,10.71-26.86c16.79-42.04,33.48-85.52,49.56-129.16,25.18-68.26,56.82-145.79,94.23-230.67,5.44-13.27,14.22-24.38,26.06-33.01,24.14-17.83,52.67-18.06,76.33-.64,11.27,7.92,20.3,18.78,26.86,32.21,30.37,63.7,61.22,134.76,91.68,211.18,19.1,47.72,37.56,95.2,54.76,141.23l11.03,29.49,4.4-31.26c10.87-77.6,22.54-156.66,34.69-234.75,16.22-104.62,34.77-206.14,55.15-301.89,2.63-12.39,6.96-22.78,12.7-31.01,6.08-8.55,12.31-14.86,19.03-19.26,6.87-4.63,13.99-7.92,21.26-9.67,7.19-1.92,13.02-2.88,17.9-2.88,16.38,0,30.21,4.96,41.24,14.63h.09c11.59,10.16,17.67,24.22,17.67,40.85h.01Z"/>
  <path class="st0" d="M2659.91,2472.6v66.03c0,25.66-.48,51.56-1.43,76.97-.72,24.06-3.11,45.64-7.12,64.1-4.08,19.26-11.34,34.84-21.66,46.2-11.11,12.23-26.29,18.46-45,18.46-43.24,0-68.02-24.22-69.7-67.78v-33.01c0-17.74-.25-39.49-.72-66.51-.56-25.5-1.04-51.31-1.43-77.53-.32-25.34-.88-47-1.84-64.42-.72-13.43-1.68-27.9-2.79-43.64-1.36-16.63-2.95-31.89-4.95-46.59-2-16.06-4.56-31.33-7.76-45.39-2.95-14.47-6.8-26.86-11.43-37.81-10.32-25.42-22.3-40.76-36.61-47-16.06-7.19-32.53-10.71-50.36-10.71-28.38,0-54.28,4.88-77.05,14.47-20.78,8.64-44.28,21.66-70.02,38.69l-3.6,2.32v71.54c0,32.21-.48,68.82-1.43,112.06-.72,40.2-1.59,79.77-2.47,118.77-.72,38.13-2.32,71.3-4.72,98.56-1.84,18.15-3.83,31.81-6.08,41.96-2.32,11.5-5.67,20.3-10.07,26.77-5.51,7.67-12.86,12.47-22.23,14.31-6.31,1.36-14.7,2.08-25.66,2.08s-19.19-.72-25.97-2.16c-8.31-1.68-15.35-5.76-21.1-12.07-5.44-6.24-9.67-14.7-12.79-25.9-2.72-10.48-4.72-23.9-6.24-41.4-1.68-15.02-3.2-35.57-4.31-61.06-1.27-24.93-2.4-52.99-3.27-83.29-.72-30.37-1.36-61.06-1.84-92.07-.25-31.1-.32-59.79-.32-86.08,0-45.23.56-79.93,1.84-105.91,1.62-32.85,4.2-55.96,6.56-74.02,10.4-79.82,23.33-93.88,33.95-100.58,14.01-8.86,29.66-8.45,35.03-8.32,4.07.1,30.63,1.2,49.53,22.17,10.62,11.79,14.11,24.63,15.99,31.57,3.15,11.63,3.31,21.75,2.91,28.54l9.35-7.19c23.41-18.15,48.27-33.33,74.02-45.32,36.05-16.79,73.45-25.34,111.33-25.34s70.73,9.03,101.19,27.02c30.94,18.22,56.59,47.8,76.26,88.01,11.82,23.34,20.71,49.88,26.54,78.81,5.76,27.65,9.98,57.39,12.39,88.33.95,13.83,1.84,27.26,2.56,40.52.72,13.11,1.27,27.18,1.84,42.12.48,16.15.72,33.25.72,50.76v-.03Z"/>
  <path class="st0" d="M3364.97,2618.14c-5.28-9.91-11.19-19.1-17.58-27.58-5.92-7.92-11.43-15.9-16.54-23.9-3.99-6.15-6.8-12.7-8.23-19.35l-.25-1.68c0-43.96.64-100.87,1.84-164.73,1.2-72.34,1.77-149.55,1.77-229.56v-55.23c-.56-2.47-.64-5.6-.72-8.96-.25-21.66-.32-42.85-.32-63.94s-.25-39.88-.72-58.66c-.25-17.67-.88-32.21-1.84-43.4-1.84-27.81-7.19-47.07-16.31-59.07-10.07-13.34-27.65-20.06-52.35-20.06s-41.4,6.56-51.72,19.58c-9.91,12.23-15.51,32.85-17.35,63.06-.72,12.47-1.36,30.13-1.84,50.99-.25,21.82-.56,45.96-1.04,72.5-.09,5.51-.16,9.35-.72,12.16v65.54l-11.82-6.4c-7.76-4.24-16.54-8.23-26.13-12-24.14-9.35-56.75-14.07-96.88-14.07-46.59,0-90.4,7.44-130.13,21.98-40.04,14.63-74.97,36.45-103.98,64.74-29.17,28.38-52.11,63.63-68.18,104.79-15.74,40.85-23.82,88.24-23.82,140.75,0,61.86,10.48,114.05,31.1,155.06,20.55,41.24,46.68,74.33,77.62,98.47,30.69,24.06,63.94,41.17,98.95,50.92,34.69,9.59,66.82,14.47,95.52,14.47,23.57,0,45.8-2.63,65.87-7.83,20.23-5.04,39.08-11.59,56.03-19.67,16.79-8.15,31.81-16.87,44.6-25.97,4.72-3.28,9.19-6.56,13.59-9.91l7.67-5.92,4.31,8.71c4.24,8.39,9.43,16.31,15.51,23.34,13.02,15.43,30.13,23.59,49.47,23.59,8.55,0,18.15-1.61,28.54-4.88,10.55-3.2,20.21-7.83,29.65-13.99,9.83-6.63,18.22-14.86,24.77-24.45,6.96-10.48,10.48-22.78,10.48-36.52,0-11.5-2.95-22.62-8.8-32.93h.01ZM3152.35,2559.63c-24.77,27.65-59.86,41.08-107.18,41.08-30.94,0-57.79-5.28-79.85-15.74-22.7-10.87-41.01-24.93-55.8-43.01-14.86-17.9-26.06-38.52-33.48-61.15-7.28-23.09-10.95-47.8-10.95-73.54,0-30.69,5.19-57.39,15.51-79.3,10.16-21.98,23.57-40.44,39.88-54.76,16.22-14.22,35.16-24.93,56.27-31.81,21.73-7.03,44.21-10.64,66.98-10.64,36.13,0,145.95,0,145.95,187.27,0,65.94-12.55,113.58-37.33,141.56h0Z"/>
  <path class="st0" d="M3954.04,2579.3c-12.63-8.48-25.74-12.79-39.08-12.79-9.83,0-20.55,1.59-31.73,4.79-10.79,2.88-23.09,6.24-36.77,10.07-13.52,3.6-29.42,6.87-47.23,9.83-17.51,2.88-37.56,4.31-59.7,4.31-60.75,0-107.5-12.31-139.07-36.68-23.25-17.99-39.24-41.49-48.91-71.93l-4.79-15.11,14.95,5.12c24.86,8.48,48.68,14.38,70.66,17.67,71.38,10.16,139.64,8.96,197.5-3.43h.09c32.62-6.96,60.91-18.06,84.16-33.09,24.22-15.43,43.01-36.05,55.96-61.38,13.11-25.25,19.74-55.96,19.74-91.37,0-39.81-8.07-74.97-24.06-104.63-15.74-29.81-36.93-54.76-63.06-74.26-25.66-19.26-55.64-33.89-88.96-43.48-33.17-9.35-67.62-14.15-102.23-14.15-45.07,0-87.76,7.51-126.77,22.23-38.92,14.63-73.29,36.61-102.3,65.46-28.54,28.78-51.31,64.51-67.71,106.31-16.38,41.72-24.61,89.85-24.61,143.23s8.55,104.39,25.34,145.87c16.94,41.96,40.92,77.53,71.3,105.75,30.29,28.38,66.82,49.79,108.47,63.79,41.17,13.75,86.88,20.62,135.72,20.62,20.71,0,44.84-1.52,71.7-4.47,27.74-3.11,54.12-8.71,78.41-16.79,25.34-8.31,47.16-19.74,64.74-33.98,19.42-15.74,29.65-37.09,29.65-61.63,0-26.54-11.59-39.56-21.34-45.89h-.01ZM3544.88,2339.43c3.92-20.94,10.16-38.92,18.55-53.63,10.71-18.38,23.82-33.25,39.17-44.28,15.58-11.27,32.93-19.58,51.63-24.61,19.58-5.19,40.04-7.83,60.83-7.83,47,0,80.57,9.83,99.92,29.26,19.35,19.67,28.78,41.88,28.78,68.1s-9.28,45.23-28.45,55.23c-21.5,11.27-55.71,16.94-101.67,16.94-31.65,0-62.27-2.72-90.71-7.99-23.57-4.31-48.2-11.82-73.22-22.39l-5.99-2.47,1.2-6.31-.04-.03Z"/>
  <path class="st0" d="M4447.77,2150.24c0,17.1-3.76,31.81-11.19,43.8-6.96,11.34-16.94,20.78-29.49,27.97-12.07,6.71-25.82,11.91-40.76,15.51-14.54,3.27-30.62,6.63-47.56,9.98-24.7,4.72-48.04,13.59-69.38,26.45-19.42,11.59-32.46,25.42-39.97,42.04l-.72,1.59v1.77c0,13.34.16,23.5.41,30.45.41,6.56.8,12.63,1.36,17.51.48,5.92.8,11.43.8,17.51v27.1c0,40.85-.88,80.89-2.56,119.02-1.92,42.04-3.6,81.29-5.04,120.06-.8,21.03-3.2,37.16-7.6,49.47-3.92,11.82-9.19,21.5-15.51,28.62-7.03,7.76-15.11,12.55-23.9,14.31-7.44,1.36-14.79,2.08-21.66,2.08-26.77,0-44.76-6.47-54.99-19.74-9.43-12.7-15.35-35.97-18.71-73.22-3.44-28.78-5.44-63.47-6.15-106.07-.72-41.56-1.11-92.23-1.11-150.66,0-64.67.16-107.9.41-140.2.48-36.29,2.79-68.66,6.96-96.47,4.31-36.29,11.34-59.63,21.5-71.3,10.71-12.47,25.34-19.03,42.37-19.03,9.98,0,19.51.96,28.45,2.88,9.35,1.68,18.22,6.15,25.82,12.86,7.83,6.71,13.67,16.31,17.51,28.45,2.63,8.07,4.4,18.15,5.11,30.05l1.11,17.67,12.55-12.55c14.31-14.31,29.81-27.42,46.04-38.85,29.9-21.03,64.35-31.73,102.46-31.73,68.98,0,83.45,39.49,83.45,72.66h.01Z"/>
  <path class="st0" d="M4897.69,2150.24c0,17.1-3.76,31.81-11.19,43.8-6.96,11.27-16.94,20.78-29.49,27.97-12.07,6.71-25.81,11.91-40.76,15.51-14.47,3.27-30.46,6.63-47.56,9.98-24.7,4.72-48.04,13.59-69.46,26.45-19.35,11.59-32.37,25.42-39.88,42.04l-.72,1.59v1.68c0,13.43.09,23.57.41,30.53.41,6.63.8,12.63,1.27,17.51.56,5.92.8,11.43.8,17.51v27.1c0,41.17-.8,81.21-2.47,119.02-1.92,40.76-3.52,80.01-5.04,120.06-.8,20.94-3.2,37.09-7.6,49.47-3.92,11.82-9.19,21.5-15.51,28.62-7.03,7.76-15.11,12.55-23.9,14.31-7.44,1.36-14.79,2.08-21.66,2.08-26.77,0-44.76-6.47-54.99-19.74-9.43-12.7-15.35-35.97-18.78-73.29-3.36-28.78-5.35-63.47-6.08-105.98-.72-41.33-1.11-92-1.11-150.66s.09-104.55.41-140.2c.41-36.29,2.79-68.66,6.96-96.47,4.31-36.29,11.34-59.63,21.42-71.3,10.79-12.39,25.42-19.03,42.44-19.03,9.98,0,19.51.96,28.45,2.88,9.28,1.68,18.22,6.15,25.82,12.86,7.83,6.8,13.67,16.31,17.51,28.45,2.63,8.07,4.4,18.15,5.12,30.05l1.11,17.67,12.55-12.55c14.31-14.31,29.81-27.42,46.04-38.85,29.81-21.03,64.35-31.73,102.46-31.73,68.98,0,83.45,39.49,83.45,72.66h0Z"/>
  <g>
    <path class="st1" d="M3460.63,851.93c22.17-30.46,37.39-65.32,47.94-101.34,19.62-69.02,23.04-142.34,11.91-213.22-6.35-42.18-16.7-84.06-34.16-123.01-16.21-36.32-40.02-69.91-72.05-93.62-13.28-10.06-28.22-17.48-43.15-24.31-17.48-7.71-36.12-13.18-55.16-13.96-31.14-2.14-62.28,6.44-89.72,20.9-31.63,16.79-58.97,40.52-84.25,65.8-68.92,69.31-113.74,159.62-138.05,253.63-13.08,52.92-18.94,109.25-5.37,162.75,13.96,52.72,52.22,95.29,94.98,127.31,28.22,21.08,59.15,39.34,93.33,48.72,32.6,9.67,67.56,10.84,100.84,4.01,29.87-6.15,58.37-17.87,84.45-33.48,34.37-20.5,65.12-47.64,88.44-80.15h0Z"/>
    <path class="st1" d="M2393.09,543.42c27.23,30.26,63.16,51.75,101.34,65.51,36.51,13.37,75.17,22.36,114.32,21.58,34.37-.78,68.53-10.64,97.92-28.51,54.09-32.31,96.55-80.54,132.08-132,47.94-68.92,81.03-148.68,91.57-232.25,4.88-37,5.08-75.27-4.59-111.49-8.78-32.8-27.83-62.97-54.87-83.38-14.44-11.13-30.56-19.52-46.96-27.15-35.34-15.32-74.88-18.45-112.75-13.67-40.02,5.08-78.49,18.55-115.1,34.95-62.38,27.54-119.99,66.78-166.74,116.66-30.95,33.87-59.15,71.56-75.56,114.91-22.85,58-24.99,123.11-9.28,183.25,9.07,33.59,25.19,65.61,48.62,91.57v.03Z"/>
    <path class="st1" d="M1865.42,757.13c31.92-6.44,61.5-21.39,88.36-39.34,57.5-37.1,109.15-83.18,152.69-135.89,27.15-34.16,47.64-74.68,53.5-118.32,4.4-32.91,1.36-66.78-8.78-98.31-13.47-40.23-41.59-74.1-74.68-100.06-27.44-22.17-58.86-38.75-90.89-53.31-41.98-17.87-88.07-28.8-133.85-23.82-28.41,2.92-55.55,13.57-80.54,27.15-35.73,19.13-66.48,48.52-84.94,84.94-13.28,25.48-19.91,53.79-25.97,81.81-12.2,62.58-15.22,126.72-12.98,190.37,2.05,40.31,12.3,81.42,35.73,114.91,22.94,32.8,58.47,54.87,96.36,66.29,27.73,8.6,57.61,9.56,86.01,3.62v-.03Z"/>
    <path class="st1" d="M3839.22,1240.77c-11.03-37.49-34.95-70.09-64.23-95.39-31.34-27.93-68.53-47.94-106.6-64.73-52.43-22.26-112.95-32.8-168.12-14.54-32.02,11.33-62.87,27.62-87.76,50.96-26.76,24.41-45.49,56.91-55.45,91.67-19.91,69.02-24.99,141.26-24.02,212.83.29,37.78,5.47,76.24,21.86,110.61,15.14,32.7,41.79,60.04,74.1,75.95,29.87,16,64.15,24.6,98.11,22.07,33.87-2.34,66.29-14.54,95.39-31.53,63.76-38.75,121.16-87.96,168.8-145.37,23.92-29.78,42.96-64.15,51.54-101.62,8.39-36.51,6.74-75.07-3.62-110.9h0Z"/>
    <path class="st1" d="M3180.64,1274.36c-19.72-31.73-44.32-60.33-72.05-85.33-63.65-58.58-146.05-95.87-231.57-107.49-86.3-10.84-175.93,6.64-252.17,48.62-8.1-67.75-33.69-133.07-72.44-189.1-41.49-60.14-100.26-107.69-166.16-138.63-38.46-18.55-80.05-29.87-122.23-36.32-36.9-5.47-74.58-5.18-111.39,0-29.09,4.2-57.5,12.5-85.42,21.47-70.77,23.53-137.66,60.92-191.15,113.06-53.31,50.57-94.3,114.52-115.4,184.9-17.57,58.47-23.72,120.57-16.6,181.3,5.96,50.96,20.21,100.84,40.91,147.61,35.25,78.98,89.43,148.49,153.08,206.68,55.45,53.89,108.66,110.51,153.66,173.59,24.02,33.87,44.71,70.2,62.28,107.77,13.96,29.19,25.28,59.46,37.49,89.32,24.99-8.88,49.69-18.74,75.46-24.99,40.13-10.55,81.61-14.85,122.91-15.92,77.52-1.17,154.73,8.68,230.99,22.36,100.76,21.58,207.26,23.24,306.74-6.05,61.11-19.04,120.07-47.74,168.98-89.53,61.31-50.28,107.88-118.03,132.76-193.21,25.87-77.81,29.68-162.54,13.96-242.9-11.81-58.47-31.14-116.27-62.67-167.23h.02ZM3064.47,1640.15c-8.49,47.55-30.17,92.65-62.58,128.57-41.98,46.67-100.16,76.53-160.79,90.89-70.69,15.92-144.38,12.69-214.87-2.24-48.42-10.64-97.43-19.13-146.54-24.7-71.86-8.39-145.66-9.56-216.43,7.52-17.57-35.93-37.39-70.98-60.43-103.78-40.31-56.91-89.22-107.3-139.51-155.43-27.04-25.19-54.96-49.4-78.98-77.52-29.29-33.69-54.28-71.27-73.02-111.88-20.61-45.21-32.21-94.79-30.85-144.59,1.56-42.37,11.62-84.84,32.7-121.84,16.99-31.14,41.3-57.79,68.53-80.34,30.46-25.48,66.58-43.54,103.78-57.01,23.82-8.1,48.23-14.46,73.02-18.16,76.84-10.74,156.39,10.35,220.63,53,29.68,20.01,56.91,44.03,78.3,72.73,35.44,46.96,57.61,104.17,60.43,163.14,1.17,24.41,2.73,48.81,3.91,73.22,21-13.57,41.98-27.23,62.97-40.62,24.11-15.53,50.47-27.54,78.1-34.66,35.34-8.99,72.15-13.08,108.56-9.56,86.79,8.99,169.77,53.11,225.03,120.96,17.77,22.36,32.7,47.16,43.05,73.9,25.48,62.28,38.46,131.69,24.99,198.37v.03Z"/>
  </g>
  <g>
    <path class="st1" d="M74.1,3058.93c-8.16,0-15.83-.95-23.04-2.89-7.19-1.94-13.75-4.56-19.65-7.89-5.9-3.33-11.16-7.03-15.79-11.11s-8.2-8.16-10.78-12.24c-2.16-3.43-3.6-6.28-4.36-8.54-.75-2.26-.64-4.46.33-6.6.95-2.14,3.05-4.51,6.28-7.09,3.43-2.59,6.45-3.82,9.03-3.7,2.58.12,4.99,1.13,7.25,3.05,2.26,1.94,4.57,4.51,6.93,7.74,5.37,7.29,11.92,12.62,19.65,15.95s15.35,4.99,22.88,4.99c9.67,0,18.25-1.29,25.77-3.86,7.51-2.58,13.47-6.5,17.87-11.75,4.4-5.27,6.61-12.08,6.61-20.46,0-6.87-1.72-12.66-5.17-17.39-3.43-4.72-8.06-8.7-13.85-11.92-5.8-3.23-12.24-6.06-19.33-8.54-7.09-2.46-14.38-4.99-21.91-7.57-5.59-1.94-11.23-4.08-16.9-6.44-5.7-2.36-10.95-5.17-15.79-8.38-4.83-3.23-9.13-6.97-12.89-11.27s-6.71-9.35-8.86-15.14c-2.16-5.8-3.23-12.56-3.23-20.29,0-11.81,2.91-22.18,8.7-31.1,5.8-8.91,13.85-15.95,24.17-21.11,10.32-5.15,22.13-7.73,35.44-7.73,8.16,0,15.58.75,22.23,2.26,6.66,1.5,12.56,3.49,17.71,5.96,5.17,2.47,9.55,5.05,13.21,7.74,3.65,2.69,6.44,5.21,8.38,7.57,3.86,4.08,6.01,7.51,6.45,10.32.42,2.79-1.19,6.22-4.83,10.3-3.65,3.88-7.05,5.92-10.14,6.12-3.11.22-6.6-1.29-10.46-4.51-4.08-4.72-8.33-8.38-12.73-10.95-4.4-2.58-9.01-4.34-13.85-5.31-4.83-.95-10.26-1.45-16.26-1.45-5.37,0-10.48.69-15.31,2.1s-9.03,3.5-12.56,6.28c-3.55,2.79-6.28,6.18-8.22,10.14-1.92,3.98-2.89,8.54-2.89,13.69,0,6.02,1.55,11.07,4.67,15.14,3.11,4.08,7.25,7.51,12.4,10.32,5.17,2.79,10.95,5.31,17.41,7.57,6.44,2.26,13.21,4.46,20.29,6.6,7.73,2.36,15.35,5.21,22.88,8.54,7.51,3.33,14.28,7.41,20.29,12.24s10.85,10.91,14.5,18.2c3.65,7.31,5.48,16.32,5.48,27.06s-2.1,20.19-6.29,28.35c-4.18,8.16-9.93,14.98-17.23,20.46-7.31,5.48-15.63,9.62-24.96,12.4-9.35,2.79-19.17,4.18-29.48,4.18l-.04-.03Z"/>
    <path class="st1" d="M240.97,3055.39c-4.08,0-7.15-.59-9.17-1.77-2.04-1.17-3.33-2.84-3.88-4.99-.54-2.14-.8-4.72-.8-7.74v-127.9c0-2.79.26-5.15.8-7.09.54-1.92,1.9-3.43,4.02-4.5,2.16-1.07,5.27-1.62,9.35-1.62,3.21,0,5.74.38,7.57,1.13s3.11,1.77,3.86,3.05c.75,1.29,1.23,2.69,1.45,4.18.22,1.5.33,2.91.33,4.2l-.65,14.82c2.14-3.65,4.83-7.15,8.06-10.48s6.97-6.32,11.27-9.03c4.3-2.68,8.96-4.78,14.01-6.28s10.46-2.26,16.28-2.26c9.45,0,18.15,1.66,26.09,4.99,7.94,3.33,14.77,8.16,20.46,14.5,5.69,6.34,10.09,13.91,13.21,22.72,3.11,8.8,4.67,18.8,4.67,29.95v69.91c0,3.01-.26,5.59-.81,7.74s-1.82,3.75-3.86,4.83c-2.04,1.07-5.21,1.61-9.51,1.61s-7.19-.59-9.35-1.77c-2.14-1.17-3.49-2.84-4.02-4.99-.54-2.14-.81-4.72-.81-7.74v-69.91c0-9.03-1.56-16.86-4.67-23.51-3.13-6.66-7.64-11.81-13.53-15.47-5.9-3.65-13.49-5.48-22.72-5.48s-16.48,1.82-23.04,5.48c-6.56,3.65-11.59,8.8-15.14,15.47-3.55,6.66-5.33,14.5-5.33,23.51v70.22c0,3.01-.32,5.59-.97,7.74-.64,2.14-1.98,3.75-4.02,4.83-2.04,1.07-5.11,1.61-9.17,1.61v.03Z"/>
    <path class="st1" d="M463.28,2861.12c-4.72,0-8.26-.69-10.64-2.1s-3.92-3.39-4.67-5.96c-.75-2.59-1.13-5.59-1.13-9.03s.38-6.38,1.13-8.86c.75-2.46,2.36-4.3,4.83-5.48,2.46-1.17,6.06-1.77,10.78-1.77s7.94.65,10.32,1.94,3.92,3.23,4.67,5.8,1.13,5.69,1.13,9.35c0,3.21-.38,6.06-1.13,8.54s-2.32,4.36-4.67,5.64-5.9,1.92-10.64,1.92h.01ZM463.28,3055.72c-4.08,0-7.19-.59-9.35-1.77-2.14-1.19-3.5-2.85-4.02-4.99-.54-2.14-.81-4.72-.81-7.74v-127.25c0-2.79.32-5.31.97-7.57.65-2.26,1.98-3.91,4.02-4.99,2.04-1.07,5.21-1.62,9.49-1.62s7.09.59,9.03,1.77c1.94,1.19,3.23,2.91,3.88,5.17.64,2.26.96,4.89.96,7.89v126.93c0,3.01-.32,5.59-.96,7.73-.65,2.16-2,3.75-4.02,4.83-2.04,1.07-5.11,1.62-9.19,1.62h0Z"/>
    <path class="st1" d="M562.5,2903.33l30.94.33,44.77-.65c3.01,0,5.59.27,7.74.81,2.14.54,3.81,1.82,4.99,3.86,1.17,2.04,1.77,5.11,1.77,9.19s-.54,7.15-1.61,9.17c-1.07,2.04-2.69,3.39-4.83,4.02-2.14.65-4.73.97-7.73.97l-44.13-.65-32.54.65c-4.51-.22-7.57-1.4-9.17-3.55s-2.42-5.69-2.42-10.64.97-8.16,2.91-10.32c1.94-2.14,5.04-3.23,9.35-3.23h-.03ZM592.79,3056.04c-4.08,0-7.09-.65-9.03-1.94-1.92-1.29-3.23-3.05-3.86-5.31s-.97-4.88-.97-7.89v-161.72c0-8.58.97-16.11,2.91-22.54,1.92-6.45,5.09-11.81,9.49-16.11s10.14-7.57,17.25-9.83c7.09-2.26,15.79-3.39,26.09-3.39,2.79,0,5.33.26,7.57.81,2.26.54,3.98,1.82,5.15,3.86,1.19,2.04,1.78,5.21,1.78,9.51,0,3.86-.65,6.87-1.94,9.01-1.29,2.16-3.01,3.5-5.15,4.02-2.16.54-4.73.81-7.74.81-4.93,0-9.17.22-12.72.65s-6.28,1.4-8.22,2.89c-1.94,1.5-3.39,3.82-4.34,6.93-.96,3.11-1.45,7.37-1.45,12.72v163.34c0,2.79-.38,5.27-1.13,7.41-.75,2.16-2.14,3.81-4.2,4.99-2.04,1.17-5.21,1.77-9.49,1.77h0Z"/>
    <path class="st1" d="M725.51,2903.33l30.94.33,44.77-.65c3.01,0,5.59.27,7.74.81,2.14.54,3.81,1.82,4.99,3.86,1.17,2.04,1.77,5.11,1.77,9.19s-.54,7.15-1.61,9.17c-1.07,2.04-2.69,3.39-4.83,4.02-2.14.65-4.73.97-7.73.97l-44.13-.65-32.54.65c-4.51-.22-7.57-1.4-9.17-3.55s-2.42-5.69-2.42-10.64.97-8.16,2.91-10.32c1.94-2.14,5.04-3.23,9.35-3.23h-.03ZM755.79,3056.04c-4.08,0-7.09-.65-9.03-1.94-1.92-1.29-3.23-3.05-3.86-5.31s-.97-4.88-.97-7.89v-161.72c0-8.58.97-16.11,2.91-22.54,1.92-6.45,5.09-11.81,9.49-16.11s10.14-7.57,17.25-9.83c7.09-2.26,15.79-3.39,26.09-3.39,2.79,0,5.33.26,7.57.81,2.26.54,3.98,1.82,5.15,3.86,1.19,2.04,1.78,5.21,1.78,9.51,0,3.86-.65,6.87-1.94,9.01-1.29,2.16-3.01,3.5-5.15,4.02-2.16.54-4.73.81-7.74.81-4.93,0-9.17.22-12.72.65s-6.28,1.4-8.22,2.89c-1.94,1.5-3.39,3.82-4.34,6.93-.96,3.11-1.45,7.37-1.45,12.72v163.34c0,2.79-.38,5.27-1.13,7.41-.75,2.16-2.14,3.81-4.2,4.99-2.04,1.17-5.21,1.77-9.49,1.77h0Z"/>
    <path class="st1" d="M900.77,3056.04c-6.45,0-10.95-1.29-13.53-3.86s-3.86-6.87-3.86-12.89c0-4.51.54-8,1.62-10.48,1.07-2.46,2.89-4.3,5.48-5.47,2.58-1.17,6.01-1.77,10.3-1.77,6.45,0,10.9,1.29,13.37,3.86,2.46,2.58,3.7,7.09,3.7,13.53,0,4.3-.55,7.68-1.62,10.14s-2.85,4.24-5.31,5.31c-2.46,1.07-5.86,1.61-10.14,1.61h-.01Z"/>
    <path class="st1" d="M1186.2,3058.93c-8.16,0-15.84-.95-23.04-2.89-7.19-1.94-13.75-4.56-19.65-7.89-5.92-3.33-11.17-7.03-15.79-11.11-4.62-4.08-8.22-8.16-10.79-12.24-2.14-3.43-3.6-6.28-4.34-8.54-.75-2.26-.65-4.46.32-6.6s3.05-4.51,6.28-7.09c3.43-2.59,6.44-3.82,9.03-3.7,2.58.12,4.99,1.13,7.25,3.05,2.24,1.94,4.56,4.51,6.92,7.74,5.37,7.29,11.92,12.62,19.65,15.95,7.74,3.33,15.37,4.99,22.88,4.99,9.67,0,18.26-1.29,25.77-3.86,7.51-2.58,13.49-6.5,17.89-11.75,4.4-5.27,6.6-12.08,6.6-20.46,0-6.87-1.72-12.66-5.15-17.39-3.44-4.72-8.06-8.7-13.86-11.92-5.79-3.23-12.24-6.06-19.33-8.54-7.09-2.46-14.4-4.99-21.91-7.57-5.59-1.94-11.23-4.08-16.92-6.44-5.69-2.36-10.94-5.17-15.79-8.38-4.83-3.23-9.13-6.97-12.88-11.27-3.76-4.3-6.71-9.35-8.87-15.14-2.14-5.8-3.21-12.56-3.21-20.29,0-11.81,2.89-22.18,8.7-31.1,5.8-8.91,13.85-15.95,24.17-21.11,10.3-5.15,22.11-7.73,35.44-7.73,8.16,0,15.57.75,22.23,2.26,6.66,1.5,12.56,3.49,17.71,5.96,5.15,2.47,9.55,5.05,13.21,7.74,3.65,2.69,6.45,5.21,8.38,7.57,3.86,4.08,6.01,7.51,6.44,10.32.43,2.79-1.17,6.22-4.82,10.3-3.66,3.88-7.05,5.92-10.16,6.12-3.11.22-6.6-1.29-10.46-4.51-4.08-4.72-8.33-8.38-12.72-10.95-4.41-2.58-9.03-4.34-13.86-5.31-4.82-.95-10.26-1.45-16.26-1.45-5.37,0-10.46.69-15.29,2.1s-9.03,3.5-12.56,6.28c-3.55,2.79-6.28,6.18-8.2,10.14-1.94,3.98-2.91,8.54-2.91,13.69,0,6.02,1.56,11.07,4.67,15.14,3.13,4.08,7.26,7.51,12.42,10.32,5.15,2.79,10.95,5.31,17.39,7.57,6.45,2.26,13.21,4.46,20.3,6.6,7.74,2.36,15.35,5.21,22.88,8.54,7.51,3.33,14.28,7.41,20.3,12.24,6.01,4.83,10.84,10.91,14.5,18.2,3.65,7.31,5.47,16.32,5.47,27.06s-2.1,20.19-6.28,28.35c-4.2,8.16-9.94,14.98-17.23,20.46-7.31,5.48-15.63,9.62-24.98,12.4-9.33,2.79-19.16,4.18-29.48,4.18l-.03-.03Z"/>
    <path class="st1" d="M1393.02,3055.07c-3.23,0-5.74-.54-7.57-1.61-1.84-1.07-3.23-2.42-4.2-4.02-.96-1.61-1.77-3.39-2.42-5.31l-49.62-126.93c-1.07-3.23-1.56-5.85-1.45-7.89.1-2.04.96-3.86,2.58-5.48,1.61-1.61,4.02-2.95,7.25-4.02,5.15-1.92,9.13-2.42,11.92-1.45,2.78.95,5.04,3.81,6.76,8.54l36.73,97.93,34.15-95.68c.65-1.72,1.45-3.39,2.42-4.99.97-1.61,2.42-2.94,4.34-4.02s4.4-1.62,7.41-1.62c3.43,0,6.08.54,7.9,1.62,1.82,1.07,3.33,2.36,4.51,3.86,1.17,1.5,1.98,3.11,2.42,4.83l33.82,96.65,36.41-96.65c2.16-5.37,4.62-8.8,7.41-10.32,2.79-1.5,6.76-1.29,11.92.65,4.51,1.5,7.57,3.7,9.19,6.6,1.61,2.89,1.33,6.82-.81,11.75l-49.94,126.93c-.64,1.72-1.45,3.39-2.42,4.99-.96,1.61-2.36,2.95-4.2,4.02-1.82,1.07-4.24,1.61-7.25,1.61s-5.43-.48-7.25-1.45c-1.82-.95-3.23-2.36-4.2-4.18-.96-1.82-1.87-3.81-2.73-5.96l-34.47-99.22-34.8,99.22c-.85,2.59-1.77,4.73-2.73,6.45-.96,1.72-2.32,3.01-4.02,3.86-1.74.85-4.1,1.29-7.09,1.29h.03Z"/>
    <path class="st1" d="M1641.74,2861.12c-4.73,0-8.28-.69-10.64-2.1-2.36-1.4-3.92-3.39-4.67-5.96-.75-2.59-1.13-5.59-1.13-9.03s.38-6.38,1.13-8.86c.75-2.46,2.36-4.3,4.83-5.48,2.46-1.17,6.06-1.77,10.79-1.77s7.94.65,10.3,1.94c2.36,1.29,3.92,3.23,4.67,5.8s1.13,5.69,1.13,9.35c0,3.21-.38,6.06-1.13,8.54s-2.32,4.36-4.67,5.64-5.9,1.92-10.64,1.92h.01ZM1641.74,3055.72c-4.08,0-7.19-.59-9.35-1.77-2.14-1.19-3.49-2.85-4.02-4.99-.55-2.14-.81-4.72-.81-7.74v-127.25c0-2.79.33-5.31.97-7.57s1.98-3.91,4.02-4.99c2.04-1.07,5.19-1.62,9.51-1.62,4.08,0,7.09.59,9.01,1.77,1.92,1.19,3.23,2.91,3.86,5.17.65,2.26.97,4.89.97,7.89v126.93c0,3.01-.32,5.59-.97,7.73-.64,2.16-1.98,3.75-4.02,4.83-2.04,1.07-5.11,1.62-9.17,1.62h0Z"/>
    <path class="st1" d="M1751.28,3119.19c-4.08,0-7.21-.59-9.35-1.77-2.16-1.19-3.55-2.85-4.18-4.99-.65-2.14-.97-4.73-.97-7.74v-190.4c0-3.01.32-5.59.97-7.74.64-2.14,1.98-3.81,4.02-4.99,2.03-1.17,5.09-1.77,9.17-1.77,4.72,0,8.2.75,10.46,2.26,2.26,1.5,3.6,4.2,4.02,8.06v194.26c.22,3.01,0,5.63-.65,7.89-.64,2.26-1.98,3.98-4.02,5.17-2.04,1.17-5.21,1.77-9.49,1.77h.01ZM1817.96,3054.43c-10.52,0-20.03-1.94-28.51-5.8-8.49-3.88-15.73-9.29-21.75-16.28-6.02-6.97-10.69-15.19-14.02-24.64s-4.89-19.87-4.67-31.26c0-11.16,1.61-21.47,4.83-30.92,3.23-9.45,7.89-17.67,14.01-24.64,6.12-6.97,13.43-12.34,21.91-16.11,8.48-3.75,17.89-5.63,28.19-5.63s19.43,1.92,28.04,5.8c8.58,3.86,16.21,9.29,22.88,16.26,6.66,6.97,11.87,15.3,15.63,24.98,3.75,9.67,5.63,20.08,5.63,31.24s-1.9,21.47-5.63,30.92c-3.76,9.46-8.91,17.61-15.47,24.48-6.56,6.87-14.18,12.2-22.88,15.95s-18.09,5.64-28.19,5.64h0ZM1814.11,3028.01c9.01,0,17.18-2.2,24.48-6.6,7.29-4.4,13.05-10.46,17.23-18.2,4.2-7.73,6.28-16.52,6.28-26.41s-2.1-18.64-6.28-26.26c-4.18-7.63-9.94-13.53-17.23-17.71-7.31-4.2-15.47-6.28-24.48-6.28s-17.15,2.14-24.32,6.44c-7.19,4.3-12.89,10.22-17.07,17.71-4.2,7.52-6.29,16.22-6.29,26.1s2.1,18.68,6.29,26.41c4.18,7.74,9.87,13.8,17.07,18.2,7.19,4.4,15.31,6.6,24.32,6.6Z"/>
    <path class="st1" d="M2038.96,3057.32c-12.89,0-24.38-2.14-34.47-6.44-10.1-4.3-18.64-10.14-25.61-17.57-6.97-7.41-12.34-15.95-16.11-25.61-3.76-9.67-5.64-20.08-5.64-31.26,0-14.82,3.43-28.03,10.32-39.62,6.87-11.61,16.42-20.78,28.67-27.55,12.24-6.77,26.21-10.14,41.88-10.14,10.74,0,20.35,1.66,28.84,4.99,8.48,3.33,15.73,7.78,21.75,13.37,6.01,5.59,10.64,11.82,13.85,18.68,3.23,6.87,4.83,13.75,4.83,20.62,0,10.95-2.58,18.68-7.73,23.2-5.17,4.51-11.49,6.77-19.01,6.77h-93.1c-.22,9.25,2.32,17.23,7.57,24.01,5.27,6.77,11.92,11.97,19.98,15.63,8.05,3.65,16.16,5.47,24.32,5.47,5.79,0,10.9-.32,15.3-.95,4.4-.65,8.2-1.5,11.43-2.59,3.23-1.07,5.96-2.14,8.22-3.21,2.24-1.07,4.34-2.14,6.28-3.23,1.94-1.07,3.76-1.82,5.48-2.26s3.55-.26,5.48.48c1.94.75,3.43,2.2,4.51,4.34,1.27,1.72,2.14,3.33,2.58,4.83.42,1.5.64,3.11.64,4.83,0,3.23-2.58,6.61-7.73,10.16s-12.3,6.6-21.43,9.17c-9.13,2.58-19.49,3.86-31.1,3.86h0ZM1987.42,2967.44h80.86c3.88,0,6.87-.54,9.03-1.62s3.21-3.96,3.21-8.7c0-5.8-1.82-11.16-5.47-16.11-3.66-4.93-8.65-8.9-14.98-11.92-6.34-3.01-13.69-4.51-22.07-4.51-9.23,0-17.77,1.9-25.61,5.64-7.84,3.75-14.01,8.86-18.52,15.3-4.51,6.45-6.67,13.75-6.45,21.91h0Z"/>
    <path class="st1" d="M2194.57,3056.04c-6.44,0-10.95-1.29-13.53-3.86s-3.88-6.87-3.88-12.89c0-4.51.54-8,1.61-10.48,1.07-2.46,2.91-4.3,5.48-5.47s6.01-1.77,10.32-1.77c6.44,0,10.9,1.29,13.37,3.86,2.46,2.58,3.7,7.09,3.7,13.53,0,4.3-.54,7.68-1.61,10.14s-2.85,4.24-5.31,5.31c-2.47,1.07-5.86,1.61-10.14,1.61h-.01Z"/>
    <path class="st1" d="M2429.43,3055.72c-3.88,0-6.87-.65-9.03-1.94-2.16-1.29-3.6-3.05-4.34-5.31-.75-2.26-1.13-4.78-1.13-7.57v-195.55c0-2.79.38-5.27,1.13-7.41.75-2.14,2.2-3.88,4.34-5.17,2.14-1.29,5.37-1.92,9.67-1.92,3.23,0,5.8.22,7.74.64,1.92.43,3.49,1.03,4.67,1.77,1.17.75,2.42,1.88,3.7,3.39l84.09,121.78h-9.98l85.06-122.74c1.29-1.29,2.59-2.26,3.86-2.91,1.3-.64,2.95-1.13,4.99-1.45,2.04-.33,4.46-.48,7.25-.48,4.08,0,7.15.64,9.17,1.92,2.04,1.29,3.49,3.05,4.34,5.31s1.3,4.89,1.3,7.9v195.55c0,2.58-.43,4.93-1.3,7.09s-2.36,3.86-4.51,5.15c-2.14,1.29-5.27,1.94-9.33,1.94s-6.82-.65-8.87-1.94-3.43-3.05-4.18-5.31c-.75-2.26-1.13-4.78-1.13-7.57v-161.4l-68.95,101.48c-.65.87-1.5,1.77-2.58,2.73s-2.42,1.82-4.02,2.58c-1.62.75-3.7,1.13-6.28,1.13-2.36,0-4.3-.38-5.8-1.13s-2.73-1.61-3.7-2.58-1.98-2.1-3.05-3.39l-68.62-100.84v162.05c0,2.58-.38,4.93-1.13,7.09-.75,2.14-2.14,3.86-4.18,5.15-2.04,1.29-5.11,1.94-9.17,1.94h-.01Z"/>
    <path class="st1" d="M2852.75,3055.39c-4.72,0-8.16-.95-10.32-2.89-2.14-1.94-3.33-4.93-3.55-9.03l1.3-16.11c-2.16,3.43-5.48,7.35-9.98,11.75-4.51,4.4-10.48,8.28-17.89,11.61s-16.26,4.99-26.58,4.99-19.93-2.04-28.84-6.12-16.76-9.77-23.51-17.07c-6.77-7.29-12.07-15.67-15.95-25.12-3.86-9.45-5.8-19.55-5.8-30.29s1.94-20.46,5.8-29.81c3.88-9.35,9.23-17.55,16.11-24.64,6.87-7.09,14.76-12.68,23.69-16.76,8.9-4.08,18.41-6.12,28.51-6.12,9.45,0,17.49,1.24,24.17,3.7,6.66,2.47,12.4,5.69,17.23,9.67,4.83,3.98,9.07,8.44,12.72,13.37l-.97-13.53c0-4.72,1.13-8.1,3.39-10.14,2.24-2.04,5.85-3.05,10.78-3.05,4.08,0,7.03.65,8.87,1.94,1.82,1.29,3.05,3.11,3.7,5.48s.97,5.27.97,8.7v124.36c0,3.01-.33,5.69-.97,8.05-.64,2.37-1.94,4.14-3.88,5.31-1.92,1.17-4.93,1.77-9.01,1.77h.01ZM2790.26,3028.66c8.8,0,16.76-2.26,23.83-6.77,7.09-4.51,12.78-10.58,17.07-18.2,4.3-7.61,6.44-16.38,6.44-26.26s-2.21-18.96-6.6-26.58c-4.4-7.61-10.2-13.59-17.39-17.89-7.19-4.3-15.19-6.44-23.99-6.44-9.88,0-18.54,2.26-25.95,6.77-7.41,4.51-13.25,10.64-17.55,18.36-4.31,7.74-6.45,16.54-6.45,26.42s2.14,18.3,6.45,25.93c4.3,7.63,10.25,13.65,17.87,18.04,7.61,4.4,16.38,6.6,26.26,6.6h0Z"/>
    <path class="st1" d="M2947.46,2903.33l30.92.33,44.79-.65c3.01,0,5.59.27,7.73.81,2.16.54,3.82,1.82,4.99,3.86,1.19,2.04,1.78,5.11,1.78,9.19s-.55,7.15-1.62,9.17c-1.07,2.04-2.69,3.39-4.83,4.02-2.16.65-4.73.97-7.73.97l-44.13-.65-32.54.65c-4.51-.22-7.57-1.4-9.17-3.55s-2.42-5.69-2.42-10.64.97-8.16,2.91-10.32,5.04-3.23,9.35-3.23h-.01ZM3019.62,3055.72c-10.1,0-18.68-.97-25.77-2.91-7.09-1.92-12.84-4.93-17.23-9.01-4.4-4.08-7.57-9.39-9.51-15.95-1.92-6.56-2.89-14.66-2.89-24.32v-142.07c0-3.23.32-5.9.97-8.06s1.92-3.81,3.86-4.99c1.94-1.17,4.93-1.77,9.03-1.77s7.19.59,9.35,1.77c2.14,1.19,3.55,2.85,4.2,4.99.64,2.14.95,4.62.95,7.41v142.72c0,5.59.48,10.04,1.45,13.37.95,3.33,2.46,5.86,4.5,7.57,2.04,1.72,4.78,2.79,8.22,3.23,3.43.43,7.63.64,12.56.64,3.43,0,6.22.33,8.38.97,2.14.65,3.75,1.94,4.83,3.88,1.07,1.92,1.62,4.83,1.62,8.7,0,4.08-.59,7.15-1.78,9.17-1.17,2.04-2.89,3.33-5.15,3.88-2.26.54-4.78.81-7.57.81h-.01Z"/>
    <path class="st1" d="M3182,3056.36c-11.17,0-21.63-1.82-31.41-5.47-9.77-3.65-18.36-8.86-25.77-15.63-7.41-6.77-13.21-14.98-17.39-24.64-4.2-9.67-6.29-20.62-6.29-32.86s2.1-23.14,6.29-32.7c4.18-9.55,9.93-17.77,17.23-24.64,7.29-6.87,15.83-12.13,25.6-15.79,9.77-3.65,20.14-5.47,31.1-5.47,7.29,0,14.5,1.13,21.59,3.39,7.09,2.26,13.37,5.15,18.85,8.7,5.47,3.55,9.39,7.25,11.75,11.11,2.14,2.79,3.7,5.11,4.67,6.93s1.01,3.92.16,6.28c-.85,1.72-2.04,3.27-3.55,4.67s-3.01,2.53-4.51,3.39c-4.08,3.01-7.94,3.44-11.59,1.3-2.37-2.36-4.99-4.57-7.9-6.61-2.91-2.04-5.96-3.86-9.17-5.47-3.23-1.62-6.5-2.95-9.83-4.02-3.33-1.07-6.82-1.61-10.46-1.61-10.1,0-19.01,2.14-26.74,6.44-7.73,4.3-13.69,10.2-17.89,17.71-4.2,7.52-6.28,16.32-6.28,26.41s2.1,18.9,6.28,26.42c4.18,7.52,10.09,13.43,17.73,17.71,7.61,4.3,16.37,6.44,26.25,6.44,4.3,0,8.6-.58,12.89-1.77,4.3-1.17,8.26-2.79,11.92-4.83,3.65-2.04,6.66-4.24,9.03-6.6,2.14-1.5,3.98-2.79,5.47-3.86,1.5-1.07,3.23-1.61,5.17-1.61s3.81.69,5.63,2.1,3.82,3.49,5.96,6.28c1.94,1.92,3.07,3.98,3.39,6.12.33,2.14-.06,4.24-1.13,6.28-1.07,2.04-2.79,3.92-5.17,5.63-3.43,3.44-8,6.71-13.69,9.83-5.69,3.11-11.87,5.63-18.52,7.57-6.67,1.92-13.21,2.89-19.65,2.89h-.01Z"/>
    <path class="st1" d="M3325.37,3055.72c-4.3,0-7.47-.59-9.49-1.77-2.04-1.19-3.34-2.91-3.88-5.17-.54-2.26-.81-4.88-.81-7.89v-198.45c0-3.01.32-5.59.95-7.74.65-2.14,1.98-3.81,4.02-4.99,2.04-1.17,5.21-1.77,9.51-1.77s7.47.59,9.51,1.77c2.04,1.19,3.33,2.85,3.86,4.99s.81,4.83.81,8.06v79.57c5.15-6.01,11.45-11.37,18.84-16.11,7.41-4.72,16.48-7.09,27.23-7.09,12.68,0,24.01,2.95,33.99,8.86,9.98,5.9,17.94,14.22,23.85,24.96,5.9,10.75,8.86,23.51,8.86,38.35v69.91c0,3.01-.33,5.59-.97,7.74s-1.94,3.81-3.86,4.99c-1.92,1.17-5.05,1.77-9.35,1.77s-7.47-.59-9.51-1.77c-2.04-1.19-3.39-2.91-4.02-5.17s-.97-4.88-.97-7.89v-69.91c0-9.03-1.5-16.86-4.5-23.51-3.01-6.66-7.47-11.81-13.37-15.47-5.9-3.65-13.37-5.48-22.39-5.48-12.24,0-22.3,3.5-30.13,10.46-7.84,6.99-12.4,16.28-13.69,27.87v76.35c0,3.01-.32,5.59-.97,7.74-.64,2.14-1.98,3.81-4.02,4.99-2.04,1.17-5.21,1.77-9.49,1.77h-.01Z"/>
    <path class="st1" d="M3540.89,3056.04c-6.44,0-10.95-1.29-13.53-3.86-2.58-2.58-3.86-6.87-3.86-12.89,0-4.51.54-8,1.61-10.48,1.07-2.46,2.91-4.3,5.48-5.47,2.58-1.17,6.01-1.77,10.3-1.77,6.45,0,10.9,1.29,13.38,3.86,2.46,2.58,3.7,7.09,3.7,13.53,0,4.3-.54,7.68-1.61,10.14-1.07,2.46-2.85,4.24-5.32,5.31-2.46,1.07-5.86,1.61-10.14,1.61h-.01Z"/>
    <path class="st1" d="M3775.74,3055.72c-3.85,0-6.87-.65-9.01-1.94-2.14-1.29-3.6-3.05-4.34-5.31-.75-2.26-1.13-4.78-1.13-7.57v-195.55c0-2.79.36-5.27,1.13-7.41.75-2.14,2.2-3.88,4.34-5.17,2.14-1.29,5.37-1.92,9.67-1.92,3.21,0,5.79.22,7.73.64,1.94.43,3.49,1.03,4.67,1.77,1.17.75,2.42,1.88,3.7,3.39l84.09,121.78h-9.98l85.06-122.74c1.3-1.29,2.58-2.26,3.88-2.91s2.95-1.13,4.99-1.45c2.04-.33,4.46-.48,7.25-.48,4.08,0,7.13.64,9.17,1.92,2.04,1.29,3.49,3.05,4.36,5.31.85,2.26,1.27,4.89,1.27,7.9v195.55c0,2.58-.43,4.93-1.27,7.09-.87,2.14-2.37,3.86-4.51,5.15-2.16,1.29-5.27,1.94-9.35,1.94-3.85,0-6.82-.65-8.86-1.94-2.04-1.29-3.44-3.05-4.2-5.31-.75-2.26-1.13-4.78-1.13-7.57v-161.4l-68.94,101.48c-.64.87-1.5,1.77-2.58,2.73s-2.42,1.82-4.02,2.58-3.7,1.13-6.28,1.13c-2.36,0-4.3-.38-5.8-1.13s-2.73-1.61-3.7-2.58-2-2.1-3.05-3.39l-68.63-100.84v162.05c0,2.58-.38,4.93-1.13,7.09-.75,2.14-2.16,3.86-4.2,5.15-2.04,1.29-5.11,1.94-9.19,1.94h0Z"/>
    <path class="st1" d="M4139.8,3057.32c-12.89,0-24.38-2.14-34.47-6.44-10.1-4.3-18.64-10.14-25.61-17.57-6.97-7.41-12.34-15.95-16.11-25.61-3.76-9.67-5.64-20.08-5.64-31.26,0-14.82,3.43-28.03,10.32-39.62,6.87-11.61,16.42-20.78,28.67-27.55,12.24-6.77,26.21-10.14,41.88-10.14,10.74,0,20.35,1.66,28.84,4.99,8.48,3.33,15.73,7.78,21.75,13.37,6.01,5.59,10.64,11.82,13.85,18.68,3.23,6.87,4.83,13.75,4.83,20.62,0,10.95-2.58,18.68-7.73,23.2-5.17,4.51-11.49,6.77-19.01,6.77h-93.1c-.22,9.25,2.32,17.23,7.57,24.01,5.27,6.77,11.92,11.97,19.98,15.63,8.05,3.65,16.16,5.47,24.32,5.47,5.79,0,10.9-.32,15.3-.95,4.4-.65,8.2-1.5,11.43-2.59,3.23-1.07,5.96-2.14,8.22-3.21,2.24-1.07,4.34-2.14,6.28-3.23,1.94-1.07,3.76-1.82,5.48-2.26s3.55-.26,5.48.48c1.94.75,3.43,2.2,4.51,4.34,1.27,1.72,2.14,3.33,2.58,4.83.42,1.5.64,3.11.64,4.83,0,3.23-2.58,6.61-7.73,10.16s-12.3,6.6-21.43,9.17c-9.13,2.58-19.49,3.86-31.1,3.86h0ZM4088.24,2967.44h80.86c3.88,0,6.87-.54,9.03-1.62,2.14-1.07,3.21-3.96,3.21-8.7,0-5.8-1.82-11.16-5.47-16.11-3.66-4.93-8.65-8.9-14.98-11.92-6.34-3.01-13.69-4.51-22.07-4.51-9.23,0-17.77,1.9-25.61,5.64-7.84,3.75-14.01,8.86-18.52,15.3-4.51,6.45-6.67,13.75-6.45,21.91h0Z"/>
    <path class="st1" d="M4355,3057.32c-12.88,0-24.37-2.14-34.47-6.44-10.1-4.3-18.64-10.14-25.61-17.57-6.99-7.41-12.36-15.95-16.11-25.61-3.76-9.67-5.64-20.08-5.64-31.26,0-14.82,3.43-28.03,10.32-39.62,6.87-11.61,16.42-20.78,28.68-27.55,12.24-6.77,26.19-10.14,41.88-10.14,10.74,0,20.35,1.66,28.84,4.99,8.48,3.33,15.73,7.78,21.75,13.37,6.01,5.59,10.64,11.82,13.85,18.68,3.21,6.87,4.82,13.75,4.82,20.62,0,10.95-2.58,18.68-7.73,23.2-5.15,4.51-11.49,6.77-19,6.77h-93.1c-.22,9.25,2.3,17.23,7.57,24.01,5.25,6.77,11.92,11.97,19.97,15.63,8.06,3.65,16.16,5.47,24.32,5.47,5.8,0,10.9-.32,15.3-.95,4.4-.65,8.22-1.5,11.45-2.59,3.21-1.07,5.96-2.14,8.2-3.21s4.36-2.14,6.28-3.23c1.92-1.07,3.75-1.82,5.47-2.26s3.55-.26,5.48.48c1.94.75,3.43,2.2,4.51,4.34,1.29,1.72,2.14,3.33,2.58,4.83s.65,3.11.65,4.83c0,3.23-2.59,6.61-7.74,10.16s-12.3,6.6-21.42,9.17c-9.13,2.58-19.49,3.86-31.1,3.86h0ZM4303.46,2967.44h80.86c3.88,0,6.87-.54,9.03-1.62,2.14-1.07,3.23-3.96,3.23-8.7,0-5.8-1.82-11.16-5.47-16.11-3.66-4.93-8.65-8.9-14.99-11.92-6.34-3.01-13.69-4.51-22.07-4.51-9.23,0-17.77,1.9-25.61,5.64-7.84,3.75-14.02,8.86-18.54,15.3-4.51,6.45-6.66,13.75-6.44,21.91h0Z"/>
    <path class="st1" d="M4498.04,2903.33l30.92.33,44.79-.65c3.01,0,5.59.27,7.74.81,2.14.54,3.81,1.82,4.99,3.86,1.17,2.04,1.77,5.11,1.77,9.19s-.54,7.15-1.61,9.17c-1.07,2.04-2.69,3.39-4.83,4.02-2.14.65-4.72.97-7.74.97l-44.13-.65-32.53.65c-4.51-.22-7.57-1.4-9.19-3.55s-2.42-5.69-2.42-10.64.97-8.16,2.89-10.32c1.92-2.14,5.04-3.23,9.35-3.23h0ZM4570.2,3055.72c-10.09,0-18.68-.97-25.77-2.91-7.09-1.92-12.84-4.93-17.25-9.01-4.4-4.08-7.57-9.39-9.49-15.95-1.94-6.56-2.91-14.66-2.91-24.32v-142.07c0-3.23.33-5.9.97-8.06.64-2.14,1.94-3.81,3.86-4.99,1.94-1.17,4.93-1.77,9.03-1.77s7.19.59,9.35,1.77c2.14,1.19,3.55,2.85,4.18,4.99.65,2.14.97,4.62.97,7.41v142.72c0,5.59.48,10.04,1.45,13.37s2.46,5.86,4.51,7.57c2.04,1.72,4.78,2.79,8.2,3.23,3.43.43,7.61.64,12.56.64,3.43,0,6.22.33,8.38.97,2.14.65,3.75,1.94,4.83,3.88,1.07,1.92,1.61,4.83,1.61,8.7,0,4.08-.59,7.15-1.77,9.17-1.19,2.04-2.91,3.33-5.17,3.88-2.26.54-4.79.81-7.57.81h.01Z"/>
    <path class="st1" d="M4672.97,3056.04c-6.44,0-10.95-1.29-13.53-3.86s-3.88-6.87-3.88-12.89c0-4.51.54-8,1.61-10.48,1.07-2.46,2.91-4.3,5.48-5.47,2.58-1.17,6.01-1.77,10.32-1.77,6.44,0,10.9,1.29,13.37,3.86,2.46,2.58,3.7,7.09,3.7,13.53,0,4.3-.54,7.68-1.61,10.14s-2.85,4.24-5.31,5.31c-2.47,1.07-5.86,1.61-10.14,1.61h-.01Z"/>
  </g>
</svg>