<?xml version="1.0" encoding="UTF-8"?>
<svg id="Layer_1" xmlns="http://www.w3.org/2000/svg" version="1.1" viewBox="0 0 4263.46 966.72">
  <!-- Generator: Adobe Illustrator 30.1.0, SVG Export Plug-In . SVG Version: 2.1.1 Build 136)  -->
  <defs>
    <style>
      .st0 {
        fill: #0c16e0;
      }

      .st1 {
        fill: #ffc107;
      }
    </style>
  </defs>
  <g>
    <path class="st1" d="M880.4,413.48c10.76-14.78,18.15-31.7,23.27-49.18,9.52-33.5,11.18-69.08,5.78-103.48-3.08-20.47-8.1-40.8-16.58-59.7-7.87-17.63-19.43-33.93-34.97-45.44-6.44-4.88-13.69-8.48-20.94-11.8-8.48-3.74-17.53-6.4-26.77-6.78-15.12-1.04-30.23,3.13-43.54,10.14-15.35,8.15-28.62,19.66-40.89,31.94-33.45,33.64-55.2,77.47-67,123.1-6.35,25.68-9.19,53.02-2.61,78.99,6.78,25.59,25.35,46.25,46.1,61.79,13.69,10.23,28.71,19.1,45.3,23.64,15.83,4.69,32.79,5.26,48.95,1.94,14.5-2.99,28.33-8.67,40.99-16.25,16.68-9.95,31.6-23.12,42.93-38.9h-.02Z"/>
    <path class="st1" d="M362.27,263.75c13.22,14.69,30.66,25.11,49.18,31.79,17.72,6.49,36.48,10.85,55.49,10.47,16.68-.38,33.26-5.16,47.52-13.84,26.25-15.68,46.86-39.09,64.11-64.06,23.26-33.45,39.33-72.16,44.45-112.72,2.37-17.96,2.46-36.53-2.23-54.11-4.26-15.92-13.5-30.56-26.63-40.47-7.01-5.4-14.83-9.48-22.79-13.17-17.15-7.44-36.34-8.96-54.73-6.63-19.43,2.46-38.1,9-55.86,16.96-30.28,13.36-58.23,32.41-80.93,56.62-15.02,16.44-28.71,34.73-36.67,55.77-11.09,28.15-12.13,59.75-4.5,88.94,4.41,16.3,12.22,31.84,23.6,44.45h-.01Z"/>
    <path class="st1" d="M106.16,367.47c15.49-3.13,29.85-10.38,42.88-19.1,27.91-18.01,52.97-40.37,74.11-65.96,13.17-16.58,23.12-36.25,25.97-57.43,2.13-15.97.66-32.41-4.26-47.71-6.54-19.52-20.18-35.96-36.25-48.57-13.31-10.76-28.57-18.81-44.11-25.87-20.37-8.67-42.74-13.98-64.96-11.56-13.79,1.42-26.96,6.59-39.09,13.17-17.34,9.29-32.27,23.55-41.22,41.22-6.44,12.37-9.67,26.11-12.6,39.71C.71,215.74-.76,246.87.33,277.77c1,19.57,5.97,39.52,17.34,55.77,11.13,15.92,28.38,26.63,46.77,32.17,13.46,4.17,27.96,4.64,41.74,1.75h-.02Z"/>
    <path class="st1" d="M1064.15,602.2c-5.35-18.2-16.96-34.02-31.18-46.29-15.21-13.55-33.26-23.26-51.74-31.41-25.44-10.8-54.82-15.92-81.59-7.06-15.54,5.5-30.51,13.41-42.6,24.73-12.98,11.85-22.08,27.62-26.91,44.49-9.67,33.5-12.13,68.56-11.66,103.29.14,18.34,2.65,37.01,10.61,53.68,7.34,15.87,20.28,29.14,35.96,36.86,14.5,7.77,31.13,11.94,47.62,10.71,16.44-1.14,32.17-7.06,46.29-15.3,30.94-18.81,58.8-42.69,81.92-70.55,11.61-14.45,20.85-31.13,25.02-49.33,4.07-17.72,3.27-36.44-1.75-53.83h.01Z"/>
    <path class="st1" d="M744.5,618.5c-9.57-15.4-21.51-29.28-34.97-41.41-30.89-28.43-70.88-46.53-112.39-52.17-41.89-5.26-85.38,3.22-122.39,23.6-3.93-32.88-16.35-64.58-35.16-91.78-20.14-29.19-48.66-52.26-80.65-67.28-18.67-9-38.85-14.5-59.32-17.63-17.91-2.65-36.2-2.51-54.06,0-14.12,2.04-27.91,6.06-41.46,10.42-34.35,11.42-66.81,29.57-92.78,54.87-25.87,24.54-45.77,55.58-56.01,89.74-8.53,28.38-11.51,58.52-8.05,87.99,2.89,24.73,9.81,48.95,19.85,71.64,17.11,38.33,43.4,72.07,74.3,100.31,26.91,26.16,52.74,53.64,74.58,84.25,11.66,16.44,21.7,34.07,30.23,52.31,6.78,14.17,12.27,28.86,18.19,43.36,12.13-4.31,24.12-9.1,36.63-12.13,19.47-5.12,39.61-7.2,59.65-7.72,37.62-.57,75.1,4.22,112.11,10.85,48.9,10.47,100.59,11.28,148.88-2.94,29.66-9.24,58.28-23.17,82.02-43.45,29.76-24.4,52.36-57.29,64.44-93.77,12.56-37.76,14.4-78.89,6.78-117.89-5.73-28.38-15.12-56.43-30.42-81.17h0ZM688.12,796.05c-4.12,23.08-14.64,44.97-30.37,62.4-20.37,22.65-48.61,37.15-78.04,44.11-34.31,7.72-70.08,6.16-104.29-1.09-23.5-5.16-47.29-9.29-71.12-11.99-34.87-4.07-70.7-4.64-105.05,3.65-8.53-17.44-18.15-34.45-29.33-50.37-19.57-27.62-43.31-52.07-67.71-75.43-13.12-12.22-26.68-23.98-38.33-37.62-14.21-16.35-26.34-34.59-35.44-54.3-10-21.94-15.64-46.01-14.97-70.17.76-20.56,5.64-41.18,15.87-59.13,8.24-15.12,20.04-28.05,33.26-39,14.78-12.37,32.32-21.13,50.37-27.67,11.56-3.93,23.41-7.01,35.44-8.81,37.29-5.21,75.91,5.02,107.09,25.73,14.4,9.71,27.62,21.37,38,35.3,17.2,22.79,27.96,50.56,29.33,79.18.57,11.85,1.33,23.69,1.9,35.54,10.19-6.59,20.37-13.22,30.56-19.71,11.7-7.53,24.5-13.36,37.91-16.82,17.15-4.36,35.02-6.35,52.69-4.64,42.12,4.36,82.4,25.78,109.22,58.71,8.62,10.85,15.87,22.89,20.9,35.87,12.37,30.23,18.67,63.92,12.13,96.28l-.02-.02Z"/>
  </g>
  <g>
    <path class="st0" d="M1516.25,244.34c-11.21-24.14-26.46-43.75-45.29-58.39-18.67-14.47-40.54-24.8-65.07-30.66-24.25-5.69-49.99-8.62-76.5-8.62-38.39,0-70.1,5.19-94.18,15.36-24.36,10.11-43.75,23.75-57.61,40.49-13.7,16.68-23.09,35.57-28,56.12-4.64,20-7.02,39.99-7.02,59.38,0,40.27.06,78.49.22,114.67.28,35.96.5,68.94.72,98.87.22,27.45.61,53.47,1.11,77.33.55,21.38,1.44,38.06,2.54,49.55,1.6,23.53,4.81,37.89,10.11,45.29,5.74,8.12,16.79,12.26,32.92,12.26,4.53,0,9.17-.5,13.86-1.44,6.13-1.1,11.21-3.92,15.69-8.67,3.92-4.31,7.18-10.27,9.67-17.57,2.76-7.68,4.09-17.79,4.09-31.04l.66-133.89,5.8.33c5.91.33,11.54.44,16.74.44h26.24c35.85,0,69.32-2.87,99.43-8.51,30.55-5.74,57.39-15.85,79.65-30.16,22.7-14.58,40.43-34.47,52.81-59.21,12.26-24.64,18.45-55.84,18.45-92.8s-5.69-65.29-17.01-89.15l-.03.02ZM1430.14,389.17c-8.18,13.53-18.5,23.92-30.71,30.82-12.54,7.02-26.96,11.54-42.81,13.53-16.24,1.93-32.15,2.93-47.28,2.93h-41.43c-10.22,0-19.33-.11-27.78-.39l-5.25-.17-.11-5.25c-.39-15.74-.61-32.48-.61-51.15v-59.88c0-17.34,1.82-31.71,5.36-42.7,3.53-10.66,8.78-19.11,15.69-25.13,6.85-6.19,15.8-10.61,26.51-13.2,11.77-2.76,25.91-4.14,42.2-4.14,42.81,0,73.63,8.29,91.58,24.69,18.06,16.24,26.85,40.05,26.85,72.75,0,24.41-4.09,43.69-12.21,57.28h0Z"/>
    <path class="st0" d="M1921.19,649.28c-3.37-14.2-7.68-29.83-12.87-46.45-5.47-17.45-11.1-34.41-16.74-50.6-5.8-16.68-11.1-32.81-15.74-47.95-5.8-16.96-13.42-38.11-22.59-62.69-8.84-23.64-18.61-49.11-29.83-77.88-9.17-23.92-18.95-48.94-31.65-81.14-10.5-26.9-19.83-50.65-28.17-71.59-2.15-5.08-4.97-11.21-8.34-18.17-3.53-6.9-7.57-13.59-12.04-19.77-4.7-6.79-10.22-12.7-16.52-17.51-6.85-5.36-14.47-8.12-22.65-8.12s-15.69,2.54-22.37,7.57c-5.97,4.47-11.38,9.89-16.13,16.13-4.42,5.86-8.45,12.37-11.93,19.44-2.98,6.24-5.58,12.15-7.57,17.51-8.56,19.5-18.28,42.59-29.72,70.81-10.5,26.24-21.05,53.14-32.37,82.25-10,25.69-20,51.87-30.55,80.09-9.56,25.41-16.9,46.62-21.87,63.03-5.25,15.13-10.72,31.26-16.52,48.66-5.69,17.29-10.99,34.19-15.74,50.21-4.81,15.96-8.89,31.54-12.21,46.34-3.15,14.36-4.7,26.35-4.7,35.63,0,11.1,4.2,19.83,12.54,25.91,7.57,5.3,15.8,8.01,24.36,8.01,22.59,0,39.77-14.64,51.15-43.53,5.3-12.65,10.77-27.01,16.41-42.86l16.07-46.23,4.03.06c12.37.33,26.07.44,40.6.44h60.37c17.46,0,34.74-.06,51.87-.22,13.64-.22,27.12-.55,39.88-.99l3.98-.17,1.38,3.76c5.52,15.02,10.83,29.33,15.8,43.03,5.97,16.41,11.6,30.88,16.74,43.08,6.02,14.36,13.42,25.3,22.09,32.53,8.89,7.4,18.95,11.1,29.83,11.1,8.56,0,16.74-2.71,24.25-8.12,8.29-5.91,12.65-14.86,12.65-25.8,0-9.11-1.71-20.82-5.19-35.79h0ZM1763.49,496.88c-6.57-.22-13.04-.39-19.22-.44-13.26-.33-25.46-.5-37.28-.5-12.65,0-26.07.17-41.04.5-7.84.06-15.8.22-24.08.5l-7.9.22,2.49-7.51c10.39-31.04,20.27-60.93,29.66-89.48,11.38-34.58,19.77-61.48,25.74-82.19,1.82-5.8,3.81-10.61,5.91-14.36l4.81-8.56,4.81,8.51c1.93,3.42,3.81,7.84,5.52,13.2,3.09,11.21,6.9,23.86,11.27,37.73,4.36,14.14,9.22,29.55,14.64,46.18,5.47,16.41,11.21,33.64,17.29,51.76,4.25,12.37,8.51,24.75,12.76,37.12l2.65,7.57-8.01-.22-.02-.03Z"/>
    <path class="st0" d="M2454.06,182.92c0,10-1.6,26.79-4.86,51.43-3.04,23.81-7.18,52.14-12.32,84.18-4.75,30.33-10.44,63.63-17.35,101.86-5.85,32.87-12.04,66.78-18.89,103.62-6.24,32.92-12.21,63.58-17.84,91.14-5.74,28-10.33,48.61-13.98,62.86-3.37,13.42-8.73,23.75-15.8,30.66-7.57,7.35-18.28,11.05-31.82,11.05-14.25,0-26.96-6.79-36.62-19.77-8.84-11.71-18.23-29.72-28.67-54.96-10.39-25.19-22.54-56.51-36.07-93.13-11.38-30.71-25.74-67.28-42.7-108.6l-5.03-12.32-5.14,12.26c-17.45,41.21-32.15,77.83-43.69,108.87-13.75,36.95-26.07,68.44-36.57,93.63-10.22,24.69-20.05,43.25-29.22,55.07-9.94,13.09-22.09,19.66-36.07,19.66-23.97,0-39.99-13.98-47.61-41.65-4.25-14.8-9.17-35.85-14.64-62.47-5.52-26.4-11.16-56.07-17.4-90.7-5.91-33.25-11.99-67.72-18.23-103.4-6.24-35.57-11.76-69.54-16.41-100.97-4.86-33.97-8.56-61.42-11.21-83.74-2.76-24.64-4.14-41.43-4.14-51.26,0-10.99,3.54-20.16,10.5-27.29,6.9-7.07,16.57-10.66,28.72-10.66,8.51,0,16.79,2.65,24.69,7.9,8.23,5.41,13.92,15.69,17.46,31.32,12.48,60.98,23.53,125.39,32.98,191.56,7.51,52.31,15.41,104.18,23.42,154.28l3.15,19.77,7.46-18.56c10.61-26.62,21.16-54.19,31.37-81.86,15.96-43.25,36.01-92.36,59.66-146.16,3.48-8.34,8.95-15.3,16.41-20.71,15.13-11.16,32.98-11.32,47.84-.39,7.02,4.97,12.7,11.77,16.85,20.22,19.28,40.38,38.78,85.4,58.11,133.78,12.1,30.21,23.75,60.32,34.69,89.48l7.62,20.33,2.98-21.54c6.9-49.27,14.31-99.32,22.04-148.75,10.27-66.28,22.04-130.64,34.91-191.23,1.66-7.79,4.36-14.36,8.01-19.5,3.76-5.36,7.68-9.34,11.93-12.1,4.31-2.93,8.73-4.97,13.31-6.08,4.47-1.22,8.17-1.77,11.27-1.77,10.22,0,18.89,3.04,25.8,9.11,7.24,6.35,11.1,15.19,11.1,25.52h0Z"/>
    <path class="st0" d="M2830.34,548.03v41.76c0,16.29-.33,32.7-.94,48.83-.44,15.19-1.93,28.83-4.47,40.54-2.54,12.1-7.13,21.87-13.59,29.05-6.96,7.62-16.46,11.49-28.17,11.49-27.18,0-42.7-15.13-43.75-42.48v-20.94c0-11.1-.17-24.53-.44-42.15-.39-16.13-.66-32.48-.94-49.11-.17-16.07-.55-29.83-1.11-40.82-.44-8.51-1.1-17.73-1.82-27.67-.83-10.55-1.88-20.22-3.15-29.55-1.22-10.16-2.87-19.89-4.86-28.78-1.93-9.17-4.31-17.07-7.29-24.08-6.57-16.18-14.25-26.02-23.42-29.99-10.27-4.58-20.77-6.85-32.15-6.85-18.01,0-34.47,3.09-48.94,9.22-13.2,5.52-28.17,13.75-44.47,24.53l-2.49,1.66v45.57c0,20.33-.28,43.53-.88,70.98-.5,25.46-1.05,50.54-1.6,75.23-.44,24.14-1.44,45.18-2.98,62.42-1.16,11.49-2.43,20.16-3.81,26.57-1.44,7.13-3.59,12.76-6.35,16.74-3.37,4.81-8.01,7.79-13.81,8.95-3.98.88-9.22,1.27-16.13,1.27s-12.1-.44-16.41-1.33c-5.14-1.05-9.56-3.59-13.09-7.51-3.43-3.87-6.02-9.22-8.01-16.24-1.71-6.57-2.98-15.13-3.92-26.13-1.11-9.56-2.04-22.54-2.76-38.72-.77-15.8-1.49-33.53-2.04-52.75-.5-19.22-.88-38.67-1.16-58.33-.17-19.66-.22-37.89-.22-54.52,0-28.67.39-50.6,1.16-67.11.72-17.34,2.15-33.09,4.14-46.84,3.48-24.47,7.95-39.16,14.03-46.34,6.35-7.46,15.36-11.38,26.02-11.38,14.86,0,26.29,4.64,34.08,13.86,4.25,4.97,7.62,11.65,10,19.89l2.26,7.84,6.41-5.03c14.8-11.43,30.55-21.05,46.84-28.61,22.76-10.66,46.45-16.02,70.37-16.02s44.63,5.69,63.85,17.01c19.5,11.54,35.74,30.21,48.17,55.62,7.46,14.75,13.09,31.49,16.74,49.77,3.7,17.57,6.3,36.4,7.9,55.96.55,8.73,1.16,17.23,1.6,25.63.44,8.34.77,17.23,1.16,26.73.28,10.22.44,21.05.44,32.15h0Z"/>
    <path class="st0" d="M3282.23,640.44c-3.37-6.24-7.07-12.04-11.1-17.4l-.06-.06c-3.7-4.97-7.24-10.05-10.44-15.13-2.6-3.98-4.42-8.18-5.36-12.37l-.11-1.22c0-28.01.39-64.13,1.16-104.4.72-45.79,1.11-94.73,1.11-145.44v-35.02c-.33-1.66-.39-3.65-.44-5.63-.17-13.7-.22-27.18-.22-40.49s-.17-25.24-.44-37.17c-.17-11.21-.55-20.44-1.16-27.45-1.22-17.57-4.53-29.72-10.27-37.23-6.24-8.34-17.29-12.54-32.81-12.54s-25.91,4.14-32.37,12.26c-6.19,7.68-9.78,20.66-10.88,39.72-.5,7.84-.88,19.06-1.16,32.26-.17,13.81-.39,29.11-.66,45.96-.11,3.42-.17,5.91-.44,7.68-.06.99-.06,3.48-.06,9.39v32.87l-8.12-4.36c-4.92-2.65-10.49-5.19-16.52-7.57-15.3-5.91-35.9-8.89-61.2-8.89-29.5,0-57.23,4.7-82.36,13.86-25.24,9.28-47.39,23.09-65.73,40.93-18.39,17.95-32.87,40.21-43.09,66.28-9.94,25.8-15.02,55.79-15.02,88.99,0,39.11,6.63,72.14,19.61,98.05,13.04,26.07,29.55,47.01,49.05,62.25,19.39,15.19,40.43,26.02,62.58,32.2,21.87,6.02,42.2,9.11,60.37,9.11,14.91,0,28.94-1.66,41.65-4.97,12.76-3.15,24.64-7.29,35.41-12.37,10.61-5.14,20.11-10.66,28.17-16.41,2.98-2.1,5.85-4.2,8.62-6.3l5.3-4.09,2.98,6.02c2.65,5.3,5.91,10.22,9.72,14.69,8.17,9.67,18.89,14.75,30.99,14.75,5.41,0,11.43-.99,17.95-3.04,6.68-2.04,12.76-4.92,18.73-8.84,6.19-4.14,11.43-9.28,15.52-15.36,4.36-6.52,6.63-14.25,6.63-22.87,0-7.24-1.88-14.2-5.52-20.66h0ZM3148.22,603.44c-15.8,17.62-38.11,26.18-68.27,26.18-19.61,0-36.68-3.37-50.76-10-14.47-6.96-26.07-15.91-35.52-27.34-9.45-11.43-16.57-24.53-21.27-38.89-4.64-14.69-7.02-30.44-7.02-46.73,0-19.55,3.31-36.57,9.89-50.49,6.46-13.97,14.97-25.74,25.35-34.8,10.33-9.06,22.43-15.91,35.85-20.27,13.81-4.47,28.12-6.74,42.59-6.74,22.98,0,92.91,0,92.91,119.09,0,41.92-8.01,72.19-23.75,89.98h0Z"/>
    <path class="st0" d="M3660.66,615.97c-7.9-5.3-16.13-8.01-24.47-8.01-6.24,0-12.93,1.05-20,3.04-6.85,1.77-14.64,3.92-23.31,6.35-8.67,2.32-18.73,4.42-29.94,6.24s-23.92,2.76-37.95,2.76c-38.56,0-68.33-7.84-88.43-23.31-14.75-11.49-24.97-26.46-31.15-45.85l-3.31-10.44,10.38,3.53c15.74,5.36,30.77,9.11,44.69,11.16,45.13,6.46,88.38,5.69,125-2.15,20.6-4.42,38.5-11.43,53.19-20.88,15.25-9.72,27.12-22.76,35.3-38.72,8.29-15.96,12.48-35.35,12.48-57.67,0-25.13-5.14-47.39-15.25-66.12-9.94-18.84-23.31-34.58-39.83-46.9-16.18-12.21-35.13-21.43-56.23-27.45-20.94-5.97-42.7-8.95-64.57-8.95-28.56,0-55.51,4.7-80.2,14.03-24.58,9.22-46.34,23.14-64.63,41.37-18.06,18.17-32.48,40.76-42.86,67.22-10.33,26.35-15.52,56.78-15.52,90.53s5.36,66.06,16.02,92.3c10.66,26.51,25.85,49,45.02,66.84,19.17,17.9,42.26,31.49,68.6,40.32,26.02,8.67,54.91,13.04,85.84,13.04,13.09,0,28.34-.94,45.35-2.87,17.62-1.93,34.3-5.52,49.6-10.61,16.02-5.25,29.77-12.43,40.93-21.43,12.15-9.89,18.62-23.25,18.62-38.72,0-16.57-7.29-24.69-13.37-28.67v.02ZM3401.21,463.52c2.54-13.31,6.52-24.8,11.82-34.14,6.79-11.66,15.19-21.16,24.91-28.23,9.94-7.13,20.99-12.37,32.87-15.63,12.48-3.31,25.46-4.97,38.72-4.97,29.88,0,51.26,6.3,63.58,18.67,12.37,12.54,18.39,26.73,18.39,43.53s-5.97,28.94-18.28,35.35c-13.64,7.18-35.41,10.77-64.63,10.77-20.11,0-39.49-1.71-57.61-5.03-14.97-2.76-30.6-7.57-46.45-14.2l-4.14-1.77.83-4.36h-.01Z"/>
    <path class="st0" d="M3978.38,343.77c0,10.72-2.37,19.94-7.01,27.45-4.36,7.13-10.66,13.09-18.5,17.62-7.62,4.2-16.29,7.51-25.74,9.78-9.17,2.1-19.33,4.2-30.16,6.3-15.63,3.04-30.49,8.67-44.08,16.85-12.37,7.4-20.71,16.18-25.52,26.85l-.44,1.1v1.16c0,8.51.06,14.91.22,19.39.28,4.14.5,7.95.83,11.05.39,3.76.5,7.24.5,11.05v17.18c0,25.96-.5,51.37-1.55,75.45-1.1,23.37-2.21,48.66-3.2,76.01-.5,13.31-2.04,23.48-4.8,31.21-2.43,7.46-5.74,13.53-9.72,18.01-4.36,4.81-9.39,7.84-14.91,8.95-4.7.83-9.28,1.27-13.64,1.27-16.79,0-28.06-4.03-34.47-12.32-5.91-8.01-9.67-22.59-11.77-46.18-2.15-18.23-3.42-40.21-3.87-67.17-.5-26.4-.72-58.5-.72-95.45s.06-66.23.22-88.82c.33-22.98,1.77-43.47,4.42-61.04,2.76-22.92,7.18-37.62,13.53-44.96,6.68-7.79,15.85-11.88,26.51-11.88,6.3,0,12.26.61,17.95,1.77,5.8,1.1,11.38,3.87,16.13,8.06,4.86,4.25,8.56,10.22,10.94,17.84,1.71,5.08,2.76,11.49,3.26,18.89l.72,12.26,8.67-8.67c9.06-9.06,18.84-17.34,29.11-24.58,18.84-13.26,40.6-20,64.68-20,43.31,0,52.42,24.75,52.42,45.57h0Z"/>
    <path class="st0" d="M4263.46,343.77c0,10.72-2.37,19.94-7.02,27.45-4.36,7.13-10.61,13.09-18.5,17.62-7.62,4.2-16.3,7.51-25.74,9.78-9.17,2.04-19.33,4.2-30.1,6.3-15.69,3.04-30.55,8.67-44.13,16.85-12.37,7.4-20.71,16.18-25.52,26.85l-.44,1.1v1.16c0,8.51.06,14.91.22,19.33.28,4.2.5,8.06.83,11.16.39,3.7.5,7.18.5,10.99v17.18c0,26.02-.5,51.43-1.6,75.45-1.05,23.37-2.15,48.66-3.15,76.01-.5,13.26-2.04,23.48-4.75,31.21-2.49,7.46-5.8,13.53-9.78,18.01-4.36,4.81-9.39,7.84-14.86,8.95-4.75.83-9.33,1.27-13.7,1.27-16.79,0-28.06-4.03-34.47-12.32-5.91-8.01-9.67-22.59-11.77-46.18-2.15-18.17-3.42-40.16-3.87-67.17-.5-26.18-.72-58.28-.72-95.45s.06-66.23.22-88.82c.33-22.98,1.77-43.47,4.47-61.04,2.71-22.92,7.13-37.62,13.42-44.96,6.74-7.79,15.91-11.88,26.57-11.88,6.3,0,12.26.61,17.95,1.77,5.8,1.1,11.38,3.87,16.13,8.06,4.86,4.25,8.56,10.22,10.94,17.84,1.71,5.08,2.76,11.43,3.26,18.89l.72,12.26,8.67-8.67c9.06-9.06,18.84-17.34,29.11-24.58,18.84-13.26,40.6-20,64.68-20,43.36,0,52.42,24.75,52.42,45.57h.01Z"/>
  </g>
  <g>
    <path class="st1" d="M1192.27,919.52c-5.17,0-10.02-.61-14.58-1.83-4.55-1.22-8.7-2.89-12.44-5-3.73-2.1-7.07-4.45-9.99-7.03-2.92-2.58-5.19-5.16-6.83-7.75-1.36-2.17-2.28-3.98-2.75-5.4-.47-1.43-.4-2.82.2-4.18.61-1.36,1.94-2.85,3.98-4.49,2.17-1.63,4.08-2.41,5.71-2.34s3.16.71,4.59,1.94c1.42,1.22,2.88,2.85,4.38,4.89,3.4,4.62,7.54,7.98,12.44,10.09,4.89,2.11,9.71,3.16,14.47,3.16,6.12,0,11.55-.81,16.31-2.44,4.76-1.63,8.52-4.11,11.32-7.44,2.78-3.33,4.18-7.64,4.18-12.94,0-4.35-1.09-8.02-3.26-11.01-2.18-2.99-5.1-5.5-8.77-7.54s-7.75-3.84-12.23-5.41c-4.48-1.56-9.11-3.16-13.85-4.79-3.54-1.22-7.11-2.58-10.7-4.08-3.6-1.49-6.94-3.26-9.99-5.3-3.06-2.04-5.78-4.42-8.16-7.14s-4.25-5.91-5.61-9.58c-1.36-3.67-2.04-7.95-2.04-12.84,0-7.47,1.83-14.03,5.5-19.67,3.68-5.64,8.77-10.09,15.3-13.35,6.52-3.26,13.99-4.89,22.42-4.89,5.17,0,9.85.48,14.07,1.43,4.21.95,7.95,2.21,11.21,3.77s6.04,3.19,8.36,4.89c2.31,1.7,4.08,3.3,5.3,4.79,2.45,2.58,3.81,4.76,4.08,6.52.27,1.77-.74,3.94-3.05,6.52-2.32,2.45-4.46,3.74-6.43,3.87-1.96.14-4.18-.81-6.62-2.85-2.58-2.98-5.26-5.3-8.05-6.93-2.78-1.63-5.71-2.76-8.77-3.37-3.05-.61-6.48-.92-10.29-.92-3.4,0-6.62.44-9.68,1.33-3.06.88-5.71,2.21-7.95,3.97-2.24,1.77-3.98,3.91-5.2,6.42s-1.83,5.4-1.83,8.66c0,3.81.98,7,2.96,9.58,1.96,2.58,4.59,4.76,7.84,6.52,3.27,1.77,6.94,3.37,11.02,4.8,4.08,1.42,8.35,2.82,12.84,4.18,4.9,1.5,9.72,3.3,14.48,5.41,4.75,2.11,9.03,4.69,12.84,7.75s6.86,6.9,9.17,11.52,3.47,10.33,3.47,17.12-1.33,12.78-3.98,17.94c-2.65,5.17-6.29,9.48-10.91,12.95-4.62,3.46-9.88,6.08-15.79,7.85-5.91,1.76-12.13,2.65-18.65,2.65h-.04Z"/>
    <path class="st1" d="M1297.86,917.28c-2.59,0-4.52-.38-5.81-1.12s-2.1-1.8-2.45-3.16c-.33-1.36-.51-2.99-.51-4.89v-80.93c0-1.76.17-3.26.51-4.49.35-1.22,1.19-2.17,2.55-2.85,1.36-.68,3.33-1.02,5.91-1.02,2.04,0,3.64.24,4.79.72s1.97,1.12,2.45,1.94c.47.81.79,1.7.92,2.65.14.95.2,1.83.2,2.65l-.41,9.38c1.36-2.31,3.06-4.51,5.1-6.62,2.04-2.1,4.41-4.01,7.13-5.71s5.67-3.02,8.87-3.98c3.19-.95,6.62-1.42,10.29-1.42,5.98,0,11.49,1.05,16.52,3.16s9.34,5.17,12.95,9.18c3.59,4.01,6.39,8.8,8.35,14.37,1.97,5.58,2.96,11.89,2.96,18.96v44.23c0,1.9-.17,3.54-.51,4.89-.35,1.36-1.15,2.38-2.45,3.06s-3.29,1.02-6.01,1.02-4.55-.38-5.91-1.12-2.21-1.8-2.55-3.16c-.35-1.36-.51-2.99-.51-4.89v-44.24c0-5.71-.99-10.67-2.96-14.88s-4.83-7.47-8.57-9.79c-3.74-2.31-8.53-3.46-14.37-3.46s-10.43,1.15-14.58,3.46c-4.15,2.31-7.34,5.58-9.58,9.79-2.24,4.21-3.37,9.18-3.37,14.88v44.44c0,1.9-.2,3.54-.61,4.89-.41,1.36-1.25,2.38-2.55,3.06-1.29.68-3.23,1.02-5.8,1.02v-.02Z"/>
    <path class="st1" d="M1438.51,794.36c-2.99,0-5.23-.44-6.73-1.32-1.49-.88-2.48-2.14-2.96-3.77-.47-1.63-.71-3.53-.71-5.71s.24-4.04.71-5.6c.47-1.56,1.5-2.71,3.06-3.46,1.56-.74,3.84-1.12,6.83-1.12s5.03.41,6.53,1.22c1.49.81,2.47,2.04,2.96,3.67.47,1.63.71,3.6.71,5.91,0,2.04-.24,3.84-.71,5.4-.49,1.56-1.47,2.75-2.96,3.57-1.5.81-3.74,1.22-6.73,1.22h0ZM1438.51,917.49c-2.58,0-4.55-.38-5.91-1.12-1.36-.75-2.21-1.8-2.55-3.16-.35-1.35-.51-2.99-.51-4.89v-80.52c0-1.76.2-3.37.6-4.79.41-1.43,1.26-2.48,2.56-3.16,1.28-.68,3.29-1.02,6.01-1.02,2.58,0,4.49.38,5.71,1.12,1.22.75,2.04,1.83,2.45,3.26.41,1.42.6,3.09.6,5v80.31c0,1.9-.19,3.54-.6,4.89-.41,1.36-1.26,2.38-2.55,3.06s-3.24,1.02-5.81,1.02h0Z"/>
    <path class="st1" d="M1501.3,821.06l19.57.2,28.33-.41c1.9,0,3.53.17,4.9.51,1.35.34,2.41,1.15,3.15,2.44.74,1.29,1.12,3.23,1.12,5.81s-.33,4.52-1.01,5.81-1.7,2.14-3.06,2.55c-1.36.4-2.99.61-4.89.61l-27.93-.41-20.58.41c-2.86-.13-4.79-.88-5.81-2.24-1.01-1.35-1.52-3.6-1.52-6.73s.6-5.16,1.83-6.52c1.22-1.36,3.18-2.04,5.91-2.04h0ZM1520.46,917.69c-2.59,0-4.49-.41-5.71-1.22-1.23-.81-2.04-1.94-2.45-3.37-.41-1.42-.61-3.09-.61-4.99v-102.33c0-5.44.61-10.2,1.83-14.27,1.23-4.08,3.23-7.47,6.02-10.19,2.78-2.72,6.42-4.79,10.91-6.22,4.48-1.42,9.99-2.14,16.51-2.14,1.77,0,3.37.17,4.79.51s2.51,1.15,3.27,2.44c.74,1.29,1.11,3.3,1.11,6.01,0,2.45-.4,4.35-1.22,5.71-.81,1.36-1.9,2.21-3.26,2.55s-2.99.51-4.9.51c-3.13,0-5.8.14-8.05.41-2.24.27-3.98.88-5.2,1.83s-2.14,2.41-2.75,4.38-.92,4.66-.92,8.05v103.35c0,1.77-.24,3.33-.71,4.69s-1.36,2.41-2.65,3.16c-1.29.74-3.29,1.12-6.01,1.12h0Z"/>
    <path class="st1" d="M1604.45,821.06l19.57.2,28.33-.41c1.9,0,3.53.17,4.9.51,1.35.34,2.41,1.15,3.15,2.44.74,1.29,1.12,3.23,1.12,5.81s-.33,4.52-1.01,5.81-1.7,2.14-3.06,2.55c-1.36.4-2.99.61-4.89.61l-27.93-.41-20.58.41c-2.86-.13-4.79-.88-5.81-2.24-1.01-1.35-1.52-3.6-1.52-6.73s.6-5.16,1.83-6.52c1.22-1.36,3.18-2.04,5.91-2.04h-.01ZM1623.61,917.69c-2.59,0-4.49-.41-5.71-1.22-1.23-.81-2.04-1.94-2.45-3.37-.41-1.42-.61-3.09-.61-4.99v-102.33c0-5.44.61-10.2,1.83-14.27,1.23-4.08,3.23-7.47,6.02-10.19,2.78-2.72,6.42-4.79,10.91-6.22,4.48-1.42,9.99-2.14,16.51-2.14,1.77,0,3.37.17,4.79.51s2.51,1.15,3.27,2.44c.74,1.29,1.11,3.3,1.11,6.01,0,2.45-.4,4.35-1.22,5.71-.81,1.36-1.9,2.21-3.26,2.55s-2.99.51-4.9.51c-3.13,0-5.8.14-8.05.41-2.24.27-3.98.88-5.2,1.83s-2.14,2.41-2.75,4.38-.92,4.66-.92,8.05v103.35c0,1.77-.24,3.33-.71,4.69s-1.36,2.41-2.65,3.16c-1.29.74-3.29,1.12-6.01,1.12h0Z"/>
    <path class="st1" d="M1715.35,917.69c-4.08,0-6.94-.81-8.57-2.45-1.63-1.63-2.45-4.35-2.45-8.15,0-2.85.35-5.07,1.02-6.63.68-1.56,1.83-2.71,3.46-3.46,1.63-.74,3.81-1.12,6.53-1.12,4.08,0,6.89.81,8.46,2.45,1.55,1.63,2.34,4.48,2.34,8.56,0,2.72-.33,4.86-1.01,6.42-.69,1.56-1.8,2.68-3.37,3.37-1.56.68-3.71,1.02-6.42,1.02h.01Z"/>
    <path class="st1" d="M1895.96,919.52c-5.17,0-10.02-.61-14.58-1.83-4.55-1.22-8.7-2.89-12.44-5-3.73-2.1-7.07-4.45-9.99-7.03-2.92-2.58-5.19-5.16-6.83-7.75-1.36-2.17-2.28-3.98-2.75-5.4-.47-1.43-.4-2.82.2-4.18.61-1.36,1.94-2.85,3.98-4.49,2.17-1.63,4.08-2.41,5.71-2.34s3.16.71,4.59,1.94c1.42,1.22,2.88,2.85,4.38,4.89,3.4,4.62,7.54,7.98,12.44,10.09,4.89,2.11,9.71,3.16,14.47,3.16,6.12,0,11.55-.81,16.31-2.44,4.76-1.63,8.52-4.11,11.32-7.44,2.78-3.33,4.18-7.64,4.18-12.94,0-4.35-1.09-8.02-3.26-11.01-2.18-2.99-5.1-5.5-8.77-7.54s-7.75-3.84-12.23-5.41c-4.48-1.56-9.11-3.16-13.85-4.79-3.54-1.22-7.11-2.58-10.7-4.08-3.6-1.49-6.94-3.26-9.99-5.3-3.06-2.04-5.78-4.42-8.16-7.14s-4.25-5.91-5.61-9.58c-1.36-3.67-2.04-7.95-2.04-12.84,0-7.47,1.83-14.03,5.5-19.67,3.68-5.64,8.77-10.09,15.3-13.35,6.52-3.26,13.99-4.89,22.42-4.89,5.17,0,9.85.48,14.07,1.43,4.21.95,7.95,2.21,11.21,3.77s6.04,3.19,8.36,4.89c2.31,1.7,4.08,3.3,5.3,4.79,2.45,2.58,3.81,4.76,4.08,6.52.27,1.77-.74,3.94-3.05,6.52-2.32,2.45-4.46,3.74-6.43,3.87-1.96.14-4.18-.81-6.62-2.85-2.58-2.98-5.26-5.3-8.05-6.93-2.78-1.63-5.71-2.76-8.77-3.37-3.05-.61-6.48-.92-10.29-.92-3.4,0-6.62.44-9.68,1.33-3.06.88-5.71,2.21-7.95,3.97-2.24,1.77-3.98,3.91-5.2,6.42s-1.83,5.4-1.83,8.66c0,3.81.98,7,2.96,9.58,1.96,2.58,4.59,4.76,7.84,6.52,3.27,1.77,6.94,3.37,11.02,4.8,4.08,1.42,8.35,2.82,12.84,4.18,4.9,1.5,9.72,3.3,14.48,5.41,4.75,2.11,9.03,4.69,12.84,7.75s6.86,6.9,9.17,11.52c2.31,4.62,3.47,10.33,3.47,17.12s-1.33,12.78-3.98,17.94c-2.65,5.17-6.29,9.48-10.91,12.95-4.62,3.46-9.88,6.08-15.79,7.85-5.91,1.76-12.13,2.65-18.65,2.65h-.04Z"/>
    <path class="st1" d="M2026.82,917.08c-2.04,0-3.64-.34-4.79-1.02-1.15-.67-2.04-1.53-2.65-2.55-.6-1.02-1.12-2.14-1.52-3.37l-31.39-80.31c-.68-2.04-.99-3.7-.92-5,.06-1.29.6-2.44,1.63-3.46,1.01-1.02,2.55-1.87,4.59-2.55,3.26-1.22,5.77-1.53,7.54-.92s3.19,2.42,4.28,5.41l23.24,61.97,21.61-60.54c.41-1.08.92-2.14,1.53-3.16.6-1.02,1.52-1.87,2.75-2.55,1.22-.68,2.78-1.02,4.68-1.02,2.18,0,3.84.34,5,1.02s2.1,1.5,2.86,2.45c.74.95,1.25,1.97,1.53,3.05l21.4,61.16,23.03-61.16c1.36-3.39,2.91-5.57,4.68-6.52,1.77-.95,4.28-.81,7.54.41,2.86.95,4.79,2.34,5.81,4.18,1.01,1.83.85,4.32-.51,7.44l-31.6,80.31c-.41,1.09-.92,2.14-1.53,3.16-.6,1.02-1.5,1.87-2.64,2.55-1.17.68-2.69,1.02-4.6,1.02s-3.43-.3-4.59-.92c-1.15-.61-2.04-1.49-2.64-2.65-.61-1.15-1.2-2.41-1.74-3.77l-21.81-62.79-22.01,62.79c-.55,1.63-1.12,2.99-1.74,4.08-.61,1.09-1.47,1.9-2.55,2.44-1.09.54-2.59.81-4.49.81h.02Z"/>
    <path class="st1" d="M2184.19,794.36c-2.99,0-5.23-.44-6.73-1.32-1.49-.88-2.48-2.14-2.96-3.77-.47-1.63-.71-3.53-.71-5.71s.24-4.04.71-5.6c.47-1.56,1.5-2.71,3.06-3.46,1.56-.74,3.84-1.12,6.83-1.12s5.03.41,6.53,1.22c1.49.81,2.47,2.04,2.96,3.67.47,1.63.71,3.6.71,5.91,0,2.04-.24,3.84-.71,5.4-.49,1.56-1.47,2.75-2.96,3.57-1.5.81-3.74,1.22-6.73,1.22h0ZM2184.19,917.49c-2.58,0-4.55-.38-5.91-1.12-1.36-.75-2.21-1.8-2.55-3.16-.35-1.35-.51-2.99-.51-4.89v-80.52c0-1.76.2-3.37.6-4.79.41-1.43,1.26-2.48,2.56-3.16,1.28-.68,3.29-1.02,6.01-1.02,2.58,0,4.49.38,5.71,1.12,1.22.75,2.04,1.83,2.45,3.26.41,1.42.6,3.09.6,5v80.31c0,1.9-.19,3.54-.6,4.89-.41,1.36-1.26,2.38-2.55,3.06s-3.24,1.02-5.81,1.02Z"/>
    <path class="st1" d="M2253.5,957.65c-2.58,0-4.55-.38-5.91-1.12-1.36-.75-2.24-1.8-2.64-3.16-.41-1.36-.61-2.99-.61-4.89v-120.47c0-1.9.2-3.53.61-4.89.4-1.36,1.25-2.41,2.55-3.16,1.28-.74,3.23-1.12,5.8-1.12,2.99,0,5.2.48,6.62,1.43,1.43.95,2.28,2.65,2.56,5.1v122.92c.13,1.9,0,3.57-.41,5s-1.26,2.51-2.55,3.26c-1.29.74-3.3,1.12-6.02,1.12v-.02ZM2295.7,916.67c-6.67,0-12.68-1.22-18.05-3.67-5.36-2.45-9.96-5.88-13.76-10.3-3.81-4.41-6.76-9.61-8.87-15.59-2.1-5.98-3.1-12.57-2.96-19.78,0-7.06,1.01-13.59,3.05-19.56,2.04-5.98,5-11.18,8.87-15.59,3.87-4.42,8.49-7.82,13.86-10.2s11.32-3.57,17.84-3.57,12.3,1.22,17.74,3.67c5.43,2.44,10.25,5.88,14.47,10.29,4.21,4.42,7.51,9.68,9.88,15.8,2.38,6.12,3.57,12.71,3.57,19.78s-1.19,13.59-3.57,19.57c-2.37,5.98-5.63,11.14-9.77,15.49-4.15,4.35-8.98,7.71-14.48,10.09s-11.45,3.57-17.83,3.57h.01ZM2293.25,899.95c5.71,0,10.87-1.39,15.49-4.18,4.62-2.78,8.25-6.62,10.91-11.52,2.64-4.89,3.97-10.46,3.97-16.72s-1.33-11.79-3.97-16.61c-2.65-4.82-6.29-8.56-10.91-11.21-4.62-2.65-9.79-3.98-15.49-3.98s-10.84,1.36-15.4,4.08c-4.55,2.72-8.16,6.46-10.8,11.21-2.65,4.76-3.98,10.27-3.98,16.51s1.33,11.82,3.98,16.72c2.64,4.89,6.25,8.73,10.8,11.52s9.69,4.18,15.4,4.18Z"/>
    <path class="st1" d="M2435.54,918.51c-8.16,0-15.43-1.36-21.81-4.08-6.39-2.72-11.79-6.42-16.2-11.11-4.42-4.69-7.82-10.09-10.2-16.2-2.37-6.12-3.57-12.7-3.57-19.78,0-9.38,2.18-17.73,6.53-25.07s10.4-13.15,18.15-17.43,16.57-6.42,26.5-6.42c6.8,0,12.87,1.05,18.24,3.16,5.37,2.11,9.96,4.93,13.77,8.46,3.8,3.53,6.72,7.48,8.76,11.82,2.04,4.35,3.06,8.7,3.06,13.04,0,6.93-1.64,11.82-4.9,14.68-3.26,2.85-7.27,4.28-12.03,4.28h-58.9c-.14,5.84,1.46,10.91,4.79,15.18,3.32,4.28,7.54,7.58,12.63,9.89,5.09,2.31,10.23,3.46,15.4,3.46,3.67,0,6.89-.2,9.68-.61s5.2-.95,7.24-1.63,3.78-1.36,5.2-2.04,2.75-1.36,3.97-2.04c1.23-.68,2.38-1.15,3.47-1.43,1.08-.27,2.23-.17,3.46.31,1.22.48,2.17,1.4,2.85,2.75.82,1.09,1.36,2.11,1.63,3.06.28.95.41,1.97.41,3.06,0,2.04-1.63,4.18-4.89,6.42-3.27,2.24-7.79,4.18-13.56,5.81s-12.33,2.45-19.67,2.45h0ZM2402.93,861.63h51.16c2.45,0,4.35-.33,5.71-1.02,1.36-.67,2.04-2.51,2.04-5.5,0-3.67-1.15-7.07-3.46-10.2-2.31-3.12-5.47-5.64-9.48-7.54-4-1.9-8.66-2.85-13.96-2.85-5.85,0-11.24,1.19-16.2,3.57s-8.87,5.61-11.73,9.69c-2.85,4.07-4.21,8.7-4.07,13.86h-.01Z"/>
    <path class="st1" d="M2534,917.69c-4.08,0-6.93-.81-8.56-2.45-1.64-1.63-2.45-4.35-2.45-8.15,0-2.85.33-5.07,1.01-6.63s1.83-2.71,3.47-3.46c1.63-.74,3.8-1.12,6.52-1.12,4.08,0,6.89.81,8.46,2.45,1.56,1.63,2.35,4.48,2.35,8.56,0,2.72-.35,4.86-1.02,6.42-.68,1.56-1.8,2.68-3.37,3.37-1.56.68-3.7,1.02-6.42,1.02h.01Z"/>
    <path class="st1" d="M2682.61,917.49c-2.45,0-4.35-.41-5.71-1.22-1.36-.81-2.28-1.94-2.75-3.36-.49-1.43-.71-3.03-.71-4.79v-123.74c0-1.77.23-3.33.71-4.69.47-1.35,1.39-2.44,2.75-3.26,1.36-.81,3.39-1.22,6.12-1.22,2.04,0,3.67.13,4.89.41,1.22.27,2.21.64,2.96,1.12.74.48,1.53,1.19,2.34,2.14l53.21,77.06h-6.32l53.82-77.67c.81-.81,1.63-1.43,2.44-1.83s1.87-.71,3.16-.92,2.83-.31,4.59-.31c2.59,0,4.52.41,5.81,1.22s2.21,1.94,2.75,3.36c.54,1.43.82,3.1.82,5v123.74c0,1.63-.28,3.13-.82,4.49s-1.5,2.44-2.86,3.26c-1.36.81-3.32,1.22-5.9,1.22s-4.33-.41-5.61-1.22c-1.29-.81-2.18-1.94-2.65-3.36-.47-1.43-.71-3.03-.71-4.79v-102.13l-43.62,64.21c-.41.54-.96,1.12-1.64,1.74-.68.61-1.52,1.15-2.55,1.63-1.01.48-2.34.71-3.97.71-1.5,0-2.72-.23-3.67-.71-.96-.47-1.74-1.02-2.35-1.63-.6-.61-1.25-1.33-1.93-2.14l-43.42-63.81v102.54c0,1.63-.24,3.13-.71,4.49s-1.36,2.44-2.65,3.26c-1.29.81-3.23,1.22-5.8,1.22l-.02-.02Z"/>
    <path class="st1" d="M2950.46,917.28c-2.99,0-5.17-.61-6.53-1.83s-2.1-3.12-2.23-5.71l.81-10.2c-1.36,2.18-3.46,4.66-6.32,7.44-2.85,2.78-6.62,5.23-11.31,7.34-4.69,2.1-10.3,3.16-16.82,3.16s-12.61-1.29-18.24-3.87c-5.64-2.58-10.61-6.18-14.89-10.8-4.27-4.62-7.64-9.92-10.09-15.9-2.45-5.98-3.67-12.36-3.67-19.16s1.22-12.95,3.67-18.86,5.84-11.11,10.2-15.59c4.35-4.48,9.34-8.02,14.99-10.6,5.63-2.58,11.65-3.87,18.04-3.87,5.98,0,11.07.78,15.29,2.35,4.21,1.56,7.84,3.6,10.91,6.12,3.05,2.51,5.74,5.33,8.05,8.46l-.6-8.56c0-2.99.71-5.13,2.14-6.42,1.42-1.29,3.7-1.94,6.83-1.94,2.58,0,4.44.41,5.61,1.22,1.14.81,1.93,1.97,2.34,3.46.41,1.5.61,3.33.61,5.51v78.69c0,1.9-.2,3.6-.61,5.1s-1.23,2.62-2.45,3.36-3.13,1.12-5.71,1.12l-.02-.02ZM2910.91,900.36c5.58,0,10.61-1.42,15.09-4.28,4.48-2.85,8.08-6.69,10.8-11.52,2.72-4.82,4.08-10.36,4.08-16.61s-1.39-11.99-4.18-16.82c-2.79-4.82-6.46-8.59-11.02-11.31-4.55-2.72-9.61-4.08-15.18-4.08-6.26,0-11.73,1.42-16.42,4.28-4.68,2.86-8.38,6.73-11.1,11.62-2.72,4.89-4.08,10.46-4.08,16.71s1.36,11.59,4.08,16.41c2.72,4.82,6.48,8.63,11.31,11.41s10.37,4.18,16.61,4.18h0Z"/>
    <path class="st1" d="M3010.39,821.06l19.57.2,28.34-.41c1.9,0,3.53.17,4.89.51s2.42,1.15,3.16,2.44c.74,1.29,1.12,3.23,1.12,5.81s-.35,4.52-1.02,5.81c-.68,1.29-1.69,2.14-3.05,2.55-1.36.4-2.99.61-4.89.61l-27.93-.41-20.6.41c-2.85-.13-4.79-.88-5.8-2.24-1.02-1.35-1.53-3.6-1.53-6.73s.61-5.16,1.83-6.52c1.23-1.36,3.19-2.04,5.91-2.04h0ZM3056.06,917.49c-6.39,0-11.82-.61-16.31-1.83s-8.12-3.12-10.91-5.71c-2.78-2.58-4.79-5.94-6.01-10.09-1.23-4.14-1.83-9.27-1.83-15.39v-89.9c0-2.04.2-3.73.6-5.1.41-1.35,1.23-2.41,2.45-3.16,1.23-.75,3.13-1.12,5.71-1.12s4.55.37,5.91,1.12c1.36.74,2.24,1.8,2.65,3.16s.61,2.92.61,4.69v90.3c0,3.53.3,6.35.92,8.46.6,2.11,1.55,3.71,2.85,4.79,1.29,1.09,3.02,1.77,5.2,2.04,2.17.28,4.82.41,7.95.41,2.17,0,3.94.2,5.3.61s2.37,1.22,3.06,2.45c.67,1.22,1.01,3.05,1.01,5.5,0,2.58-.38,4.52-1.12,5.81s-1.83,2.1-3.26,2.44-3.03.51-4.79.51h.01Z"/>
    <path class="st1" d="M3158.8,917.89c-7.07,0-13.69-1.15-19.88-3.46-6.18-2.31-11.62-5.6-16.3-9.89-4.69-4.28-8.36-9.48-11-15.59-2.65-6.12-3.98-13.04-3.98-20.79s1.33-14.65,3.98-20.69c2.64-6.05,6.28-11.25,10.9-15.59,4.63-4.35,10.02-7.68,16.22-9.99,6.18-2.31,12.74-3.46,19.67-3.46,4.62,0,9.17.71,13.66,2.14s8.46,3.26,11.92,5.51c3.47,2.24,5.94,4.59,7.44,7.03,1.36,1.76,2.34,3.23,2.96,4.38s.65,2.48.1,3.98c-.54,1.09-1.28,2.07-2.23,2.96-.96.88-1.91,1.6-2.86,2.14-2.58,1.9-5.03,2.17-7.34.81-1.5-1.49-3.16-2.89-5-4.18-1.83-1.29-3.78-2.44-5.81-3.46-2.04-1.02-4.11-1.87-6.21-2.55-2.1-.67-4.32-1.02-6.62-1.02-6.39,0-12.03,1.36-16.92,4.08-4.9,2.72-8.66,6.46-11.32,11.21s-3.97,10.33-3.97,16.72,1.32,11.96,3.97,16.71c2.65,4.76,6.39,8.5,11.21,11.21,4.82,2.72,10.37,4.08,16.61,4.08,2.72,0,5.44-.37,8.16-1.12,2.72-.74,5.23-1.76,7.54-3.06,2.31-1.29,4.21-2.68,5.71-4.18,1.36-.95,2.51-1.76,3.46-2.44s2.04-1.02,3.27-1.02,2.41.44,3.56,1.32c1.15.89,2.42,2.21,3.78,3.98,1.22,1.22,1.93,2.52,2.14,3.87.2,1.36-.03,2.69-.71,3.98s-1.77,2.48-3.26,3.57c-2.18,2.17-5.06,4.25-8.66,6.21-3.6,1.97-7.51,3.57-11.73,4.79-4.21,1.22-8.35,1.83-12.43,1.83l-.03-.02Z"/>
    <path class="st1" d="M3249.51,917.49c-2.72,0-4.73-.38-6.01-1.12-1.29-.75-2.11-1.83-2.45-3.26-.33-1.42-.51-3.09-.51-4.99v-125.58c0-1.9.2-3.53.61-4.89.4-1.36,1.25-2.41,2.55-3.16,1.28-.74,3.29-1.12,6.01-1.12s4.73.38,6.02,1.12c1.28.75,2.1,1.8,2.44,3.16.35,1.36.52,3.05.52,5.09v50.36c3.26-3.8,7.23-7.2,11.92-10.2,4.69-2.99,10.43-4.48,17.23-4.48,8.02,0,15.18,1.87,21.5,5.6,6.32,3.74,11.35,9,15.08,15.8,3.74,6.8,5.61,14.88,5.61,24.26v44.23c0,1.9-.2,3.54-.61,4.89-.41,1.36-1.22,2.41-2.44,3.16-1.23.74-3.2,1.12-5.91,1.12s-4.73-.38-6.02-1.12c-1.29-.75-2.14-1.83-2.55-3.26-.41-1.42-.61-3.09-.61-4.99v-44.24c0-5.71-.95-10.67-2.85-14.88-1.91-4.21-4.73-7.47-8.46-9.79-3.74-2.31-8.47-3.46-14.18-3.46-7.75,0-14.1,2.21-19.05,6.62-4.96,4.42-7.85,10.29-8.66,17.63v48.31c0,1.9-.2,3.54-.61,4.89-.41,1.36-1.26,2.41-2.55,3.16-1.29.74-3.3,1.12-6.02,1.12v.02Z"/>
    <path class="st1" d="M3385.88,917.69c-4.08,0-6.94-.81-8.57-2.45-1.63-1.63-2.45-4.35-2.45-8.15,0-2.85.35-5.07,1.02-6.63.68-1.56,1.83-2.71,3.46-3.46,1.63-.74,3.81-1.12,6.53-1.12,4.08,0,6.89.81,8.46,2.45,1.55,1.63,2.34,4.48,2.34,8.56,0,2.72-.33,4.86-1.01,6.42-.69,1.56-1.8,2.68-3.37,3.37-1.56.68-3.71,1.02-6.42,1.02h.01Z"/>
    <path class="st1" d="M3534.49,917.49c-2.44,0-4.35-.41-5.71-1.22s-2.28-1.94-2.75-3.36c-.47-1.43-.71-3.03-.71-4.79v-123.74c0-1.77.24-3.33.71-4.69.47-1.35,1.39-2.44,2.75-3.26s3.4-1.22,6.12-1.22c2.04,0,3.67.13,4.9.41,1.22.27,2.2.64,2.96,1.12.74.48,1.52,1.19,2.34,2.14l53.21,77.06h-6.32l53.81-77.67c.82-.81,1.63-1.43,2.45-1.83.81-.41,1.87-.71,3.16-.92,1.28-.2,2.82-.31,4.59-.31,2.58,0,4.52.41,5.8,1.22,1.29.81,2.21,1.94,2.76,3.36.54,1.43.81,3.1.81,5v123.74c0,1.63-.27,3.13-.81,4.49-.55,1.36-1.5,2.44-2.86,3.26-1.36.81-3.33,1.22-5.91,1.22s-4.32-.41-5.61-1.22c-1.28-.81-2.17-1.94-2.64-3.36-.49-1.43-.71-3.03-.71-4.79v-102.13l-43.63,64.21c-.41.54-.95,1.12-1.63,1.74-.68.61-1.53,1.15-2.55,1.63s-2.35.71-3.98.71c-1.5,0-2.72-.23-3.67-.71-.95-.47-1.73-1.02-2.34-1.63s-1.26-1.33-1.94-2.14l-43.41-63.81v102.54c0,1.63-.25,3.13-.72,4.49s-1.36,2.44-2.64,3.26c-1.29.81-3.24,1.22-5.81,1.22l-.02-.02Z"/>
    <path class="st1" d="M3764.84,918.51c-8.16,0-15.43-1.36-21.81-4.08-6.39-2.72-11.78-6.42-16.2-11.11-4.41-4.69-7.81-10.09-10.18-16.2-2.38-6.12-3.57-12.7-3.57-19.78,0-9.38,2.17-17.73,6.53-25.07,4.35-7.34,10.39-13.15,18.14-17.43s16.58-6.42,26.51-6.42c6.79,0,12.87,1.05,18.24,3.16,5.36,2.11,9.95,4.93,13.76,8.46s6.73,7.48,8.77,11.82c2.04,4.35,3.05,8.7,3.05,13.04,0,6.93-1.63,11.82-4.89,14.68-3.27,2.85-7.27,4.28-12.03,4.28h-58.92c-.14,5.84,1.46,10.91,4.79,15.18,3.33,4.28,7.54,7.58,12.64,9.89,5.09,2.31,10.22,3.46,15.38,3.46,3.67,0,6.89-.2,9.69-.61,2.78-.41,5.2-.95,7.23-1.63,2.04-.68,3.78-1.36,5.2-2.04,1.43-.68,2.75-1.36,3.98-2.04,1.22-.68,2.37-1.15,3.46-1.43,1.09-.27,2.24-.17,3.46.31,1.23.48,2.18,1.4,2.86,2.75.81,1.09,1.36,2.11,1.63,3.06.27.95.41,1.97.41,3.06,0,2.04-1.63,4.18-4.9,6.42-3.26,2.24-7.78,4.18-13.55,5.81-5.78,1.63-12.33,2.45-19.68,2.45h0ZM3732.23,861.63h51.17c2.45,0,4.35-.33,5.71-1.02,1.36-.67,2.04-2.51,2.04-5.5,0-3.67-1.15-7.07-3.46-10.2-2.32-3.12-5.48-5.64-9.48-7.54-4.01-1.9-8.66-2.85-13.96-2.85-5.85,0-11.25,1.19-16.22,3.57-4.96,2.38-8.87,5.61-11.72,9.69-2.86,4.07-4.22,8.7-4.08,13.86h0Z"/>
    <path class="st1" d="M3901.01,918.51c-8.16,0-15.43-1.36-21.81-4.08-6.39-2.72-11.78-6.42-16.2-11.11-4.41-4.69-7.81-10.09-10.18-16.2-2.38-6.12-3.57-12.7-3.57-19.78,0-9.38,2.17-17.73,6.53-25.07,4.35-7.34,10.39-13.15,18.14-17.43s16.58-6.42,26.51-6.42c6.79,0,12.87,1.05,18.24,3.16,5.36,2.11,9.95,4.93,13.76,8.46s6.73,7.48,8.77,11.82c2.04,4.35,3.05,8.7,3.05,13.04,0,6.93-1.63,11.82-4.89,14.68-3.27,2.85-7.27,4.28-12.03,4.28h-58.92c-.14,5.84,1.46,10.91,4.79,15.18,3.33,4.28,7.54,7.58,12.64,9.89,5.09,2.31,10.22,3.46,15.38,3.46,3.67,0,6.89-.2,9.69-.61,2.78-.41,5.2-.95,7.23-1.63,2.04-.68,3.78-1.36,5.2-2.04,1.43-.68,2.75-1.36,3.98-2.04,1.22-.68,2.37-1.15,3.46-1.43,1.09-.27,2.24-.17,3.46.31,1.23.48,2.18,1.4,2.86,2.75.81,1.09,1.36,2.11,1.63,3.06.27.95.41,1.97.41,3.06,0,2.04-1.63,4.18-4.9,6.42-3.26,2.24-7.78,4.18-13.55,5.81-5.78,1.63-12.33,2.45-19.68,2.45h0ZM3868.4,861.63h51.17c2.45,0,4.35-.33,5.71-1.02,1.36-.67,2.04-2.51,2.04-5.5,0-3.67-1.15-7.07-3.46-10.2-2.32-3.12-5.48-5.64-9.48-7.54-4.01-1.9-8.66-2.85-13.96-2.85-5.85,0-11.25,1.19-16.22,3.57-4.96,2.38-8.87,5.61-11.72,9.69-2.86,4.07-4.22,8.7-4.08,13.86h0Z"/>
    <path class="st1" d="M3991.52,821.06l19.57.2,28.34-.41c1.9,0,3.53.17,4.89.51s2.42,1.15,3.16,2.44c.74,1.29,1.12,3.23,1.12,5.81s-.35,4.52-1.02,5.81c-.68,1.29-1.69,2.14-3.05,2.55-1.36.4-2.99.61-4.89.61l-27.93-.41-20.6.41c-2.85-.13-4.79-.88-5.8-2.24-1.02-1.35-1.53-3.6-1.53-6.73s.61-5.16,1.83-6.52c1.23-1.36,3.19-2.04,5.91-2.04h0ZM4037.18,917.49c-6.39,0-11.82-.61-16.31-1.83s-8.12-3.12-10.91-5.71-4.79-5.94-6.01-10.09c-1.23-4.14-1.83-9.27-1.83-15.39v-89.9c0-2.04.2-3.73.6-5.1.41-1.35,1.23-2.41,2.45-3.16,1.23-.75,3.13-1.12,5.71-1.12s4.55.37,5.91,1.12c1.36.74,2.24,1.8,2.65,3.16.41,1.36.61,2.92.61,4.69v90.3c0,3.53.3,6.35.92,8.46.6,2.11,1.55,3.71,2.85,4.79,1.29,1.09,3.02,1.77,5.2,2.04,2.17.28,4.82.41,7.95.41,2.17,0,3.94.2,5.3.61s2.37,1.22,3.06,2.45c.67,1.22,1.01,3.05,1.01,5.5,0,2.58-.38,4.52-1.12,5.81s-1.83,2.1-3.26,2.44-3.03.51-4.79.51h0Z"/>
    <path class="st1" d="M4102.22,917.69c-4.08,0-6.94-.81-8.57-2.45-1.63-1.63-2.45-4.35-2.45-8.15,0-2.85.35-5.07,1.02-6.63.68-1.56,1.83-2.71,3.46-3.46,1.63-.74,3.81-1.12,6.53-1.12,4.08,0,6.89.81,8.46,2.45,1.55,1.63,2.34,4.48,2.34,8.56,0,2.72-.33,4.86-1.01,6.42-.69,1.56-1.8,2.68-3.37,3.37-1.56.68-3.71,1.02-6.42,1.02h.01Z"/>
  </g>
</svg>