<?xml version="1.0" encoding="UTF-8"?>
<svg id="Layer_1" data-name="Layer 1" xmlns="http://www.w3.org/2000/svg" viewBox="0 0 4899.66 3135.51">
  <defs>
    <style>
      .cls-1 {
        fill: #0c16e0;
      }

      .cls-2 {
        fill: #ffc107;
      }
    </style>
  </defs>
  <path class="cls-1" d="M1179.03,1867.28c-12.32-26.4-28.94-47.83-49.6-63.85-10.22-7.9-21.27-14.69-33.14-20.33-11.88-5.58-24.58-10-38-13.2-26.46-6.19-54.57-9.39-83.52-9.39-41.98,0-76.61,5.63-102.91,16.74-26.68,11.1-47.84,26.02-63.03,44.36-15.02,18.23-25.3,38.89-30.66,61.37-5.08,21.87-7.68,43.69-7.68,64.9,0,43.91.05,85.62.28,125.06.28,39.22.55,75.18.72,107.82.28,30.6.72,58.99,1.27,84.4.61,23.31,1.49,41.54,2.71,54.08,1.77,25.74,5.3,41.48,11.16,49.6,6.35,9.06,18.56,13.59,36.29,13.59,4.97,0,10.11-.5,15.19-1.6,6.79-1.22,12.43-4.31,17.4-9.56,4.36-4.75,7.95-11.32,10.66-19.33,3.04-8.45,4.47-19.55,4.47-34.03l.72-145.49,5.8.33c6.52.33,12.65.5,18.34.5h28.56c39.16,0,75.67-3.15,108.54-9.34,33.42-6.24,62.75-17.29,87.11-32.92,24.75-15.96,44.19-37.73,57.72-64.79,13.42-26.96,20.22-61.09,20.22-101.41s-6.3-71.37-18.61-97.49ZM1084.19,2025.25c-8.89,14.64-20.05,25.91-33.31,33.42-13.64,7.62-29.28,12.54-46.45,14.69-17.73,2.1-35.02,3.2-51.54,3.2h-45.24c-11.16,0-21.05-.17-30.27-.5l-5.19-.17-.17-5.19c-.39-17.23-.61-35.52-.61-55.73v-65.35c0-18.89,1.93-34.47,5.8-46.4,3.81-11.54,9.5-20.66,16.9-27.23,7.46-6.68,17.12-11.49,28.78-14.31,12.76-2.98,28.17-4.47,45.9-4.47,46.51,0,80.04,9,99.54,26.79,19.61,17.62,29.11,43.47,29.11,78.99,0,26.57-4.42,47.45-13.26,62.25Z"/>
  <path class="cls-1" d="M1615.18,2309.06c-3.7-15.52-8.4-32.59-14.09-50.71-5.91-18.95-12.04-37.51-18.23-55.18-6.35-18.23-12.15-35.79-17.18-52.31-6.35-18.56-14.64-41.65-24.64-68.38-9.56-25.46-20.22-53.25-32.53-84.95-10-26.07-20.66-53.36-34.52-88.49-11.49-29.39-21.65-55.29-30.71-78.11-2.32-5.52-5.41-12.21-9.17-19.83-3.81-7.57-8.23-14.86-13.15-21.65-5.14-7.46-11.21-13.92-18.06-19.22-7.62-5.91-16.02-8.89-25.08-8.89s-17.29,2.76-24.64,8.29c-6.57,4.92-12.54,10.88-17.73,17.73-4.86,6.41-9.22,13.53-13.04,21.27-3.26,6.79-6.08,13.26-8.34,19.11-9.28,21.21-19.83,46.4-32.37,77.28-11.16,27.95-22.7,57.28-35.3,89.7-10.83,27.89-21.76,56.45-33.31,87.33-10.44,27.78-18.45,50.93-23.86,68.77-6.02,17.34-12.04,35.07-18.01,53.03-6.19,18.95-11.99,37.4-17.18,54.85-5.25,17.4-9.72,34.41-13.31,50.54-3.42,15.69-5.19,28.78-5.19,38.94,0,12.32,4.7,21.93,13.92,28.72,8.34,5.86,17.4,8.84,26.85,8.84,24.86,0,43.8-16.07,56.29-47.78,5.74-13.86,11.77-29.55,17.84-46.79,5.14-14.69,10.5-30.16,16.13-46.34l1.33-3.81,4.03.11c13.59.33,28.5.5,44.3.5h65.84c19,0,37.89-.06,56.56-.28,15.19-.22,29.88-.61,43.53-1.1l3.98-.17,1.38,3.76c6.02,16.41,11.77,32.04,17.23,46.95,6.52,17.9,12.65,33.69,18.28,47.06,6.52,15.69,14.69,27.67,24.19,35.63,9.83,8.12,20.88,12.26,32.87,12.26,9.45,0,18.45-3.04,26.73-9,9.17-6.57,14.03-16.46,14.03-28.56,0-9.94-1.88-22.76-5.69-39.11ZM1442.67,2142.41c-7.18-.22-14.2-.39-20.93-.44-14.58-.39-27.84-.5-40.65-.5-13.7,0-28.34.11-44.8.5-8.56.06-17.23.28-26.29.55l-7.9.22,2.49-7.51c11.32-33.92,22.09-66.45,32.37-97.6,12.37-37.78,21.54-67.11,28.06-89.65,1.99-6.24,4.14-11.49,6.41-15.58l4.81-8.56,4.81,8.51c2.15,3.7,4.14,8.51,5.97,14.31,3.42,12.26,7.57,26.02,12.32,41.15,4.75,15.41,10.05,32.26,15.96,50.38,5.91,17.84,12.21,36.68,18.89,56.45,4.64,13.48,9.22,27.01,13.92,40.49l2.6,7.57-8.01-.28Z"/>
  <path class="cls-1" d="M2196.33,1800.55c0,10.88-1.71,29.22-5.3,56.12-3.31,25.85-7.79,56.73-13.42,91.8-5.19,33.03-11.38,69.38-18.89,111.14-6.41,35.96-13.15,72.97-20.66,113.01-6.74,35.74-13.26,69.16-19.39,99.37-6.3,30.66-11.27,53.08-15.25,68.66-3.76,14.69-9.61,26.02-17.4,33.64-8.34,8.12-20.16,12.21-35.02,12.21-15.8,0-29.72-7.51-40.38-21.82-9.67-12.82-19.89-32.42-31.32-60.04-11.27-27.29-24.47-61.42-39.38-101.58-12.43-33.53-28.06-73.41-46.51-118.43l-5.03-12.32-5.19,12.26c-19,44.91-35.02,84.9-47.61,118.76-15.02,40.32-28.45,74.68-39.88,102.13-11.16,26.95-21.87,47.17-31.98,60.15-10.88,14.36-24.25,21.65-39.72,21.65-26.4,0-44.02-15.41-52.36-45.79-4.64-16.13-10.05-39.05-16.02-68.16-6.02-29.11-12.21-61.48-18.95-98.98-6.46-36.24-13.09-73.85-19.89-112.74-6.79-38.72-12.82-75.78-17.9-110.14-5.3-36.95-9.28-66.84-12.21-91.31-3.04-26.9-4.53-45.24-4.53-56.06,0-12.1,3.87-22.21,11.54-30.05,7.68-7.84,18.34-11.82,31.71-11.82,9.39,0,18.5,2.93,27.18,8.73,9.11,5.97,15.41,17.29,19.28,34.47,13.59,66.39,25.68,136.71,35.96,208.96,8.23,57.11,16.85,113.73,25.57,168.25l3.15,19.77,7.4-18.56c11.6-29.05,23.14-59.1,34.25-89.26,17.4-47.17,39.27-100.75,65.12-159.41,3.76-9.17,9.83-16.85,18.01-22.81,16.68-12.32,36.4-12.48,52.75-.44,7.79,5.47,14.03,12.98,18.56,22.26,20.99,44.02,42.31,93.13,63.36,145.94,13.2,32.98,25.96,65.79,37.84,97.6l7.62,20.38,3.04-21.6c7.51-53.63,15.58-108.26,23.97-162.23,11.21-72.3,24.03-142.46,38.11-208.63,1.82-8.56,4.81-15.74,8.78-21.43,4.2-5.91,8.51-10.27,13.15-13.31,4.75-3.2,9.67-5.47,14.69-6.68,4.97-1.33,9-1.99,12.37-1.99,11.32,0,20.88,3.43,28.5,10.11h.06c8.01,7.02,12.21,16.74,12.21,28.23Z"/>
  <path class="cls-1" d="M2595.69,2198.7v45.63c0,17.73-.33,35.63-.99,53.19-.5,16.63-2.15,31.54-4.92,44.3-2.82,13.31-7.84,24.08-14.97,31.93-7.68,8.45-18.17,12.76-31.1,12.76-29.88,0-47.01-16.74-48.17-46.84v-22.81c0-12.26-.17-27.29-.5-45.96-.39-17.62-.72-35.46-.99-53.58-.22-17.51-.61-32.48-1.27-44.52-.5-9.28-1.16-19.28-1.93-30.16-.94-11.49-2.04-22.04-3.42-32.2-1.38-11.1-3.15-21.65-5.36-31.37-2.04-10-4.7-18.56-7.9-26.13-7.13-17.57-15.41-28.17-25.3-32.48-11.1-4.97-22.48-7.4-34.8-7.4-19.61,0-37.51,3.37-53.25,10-14.36,5.97-30.6,14.97-48.39,26.74l-2.49,1.6v49.44c0,22.26-.33,47.56-.99,77.44-.5,27.78-1.1,55.13-1.71,82.08-.5,26.35-1.6,49.27-3.26,68.11-1.27,12.54-2.65,21.98-4.2,29-1.6,7.95-3.92,14.03-6.96,18.5-3.81,5.3-8.89,8.62-15.36,9.89-4.36.94-10.16,1.44-17.73,1.44s-13.26-.5-17.95-1.49c-5.74-1.16-10.61-3.98-14.58-8.34-3.76-4.31-6.68-10.16-8.84-17.9-1.88-7.24-3.26-16.52-4.31-28.61-1.16-10.38-2.21-24.58-2.98-42.2-.88-17.23-1.66-36.62-2.26-57.56-.5-20.99-.94-42.2-1.27-63.63-.17-21.49-.22-41.32-.22-59.49,0-31.26.39-55.24,1.27-73.19,1.12-22.7,2.9-38.67,4.53-51.15,7.19-55.16,16.12-64.88,23.46-69.51,9.68-6.12,20.5-5.84,24.21-5.75,2.81.07,21.17.83,34.23,15.32,7.34,8.15,9.75,17.02,11.05,21.82,2.18,8.04,2.29,15.03,2.01,19.72l6.46-4.97c16.18-12.54,33.36-23.03,51.15-31.32,24.91-11.6,50.76-17.51,76.94-17.51s48.88,6.24,69.93,18.67c21.38,12.59,39.11,33.03,52.7,60.82,8.17,16.13,14.31,34.47,18.34,54.46,3.98,19.11,6.9,39.66,8.56,61.04.66,9.56,1.27,18.84,1.77,28,.5,9.06.88,18.78,1.27,29.11.33,11.16.5,22.98.5,35.08Z"/>
  <path class="cls-1" d="M3082.94,2299.28c-3.65-6.85-7.73-13.2-12.15-19.06-4.09-5.47-7.9-10.99-11.43-16.52-2.76-4.25-4.7-8.78-5.69-13.37l-.17-1.16c0-30.38.44-69.71,1.27-113.84.83-49.99,1.22-103.35,1.22-158.64v-38.17c-.39-1.71-.44-3.87-.5-6.19-.17-14.97-.22-29.61-.22-44.19s-.17-27.56-.5-40.54c-.17-12.21-.61-22.26-1.27-29.99-1.27-19.22-4.97-32.53-11.27-40.82-6.96-9.22-19.11-13.86-36.18-13.86s-28.61,4.53-35.74,13.53c-6.85,8.45-10.72,22.7-11.99,43.58-.5,8.62-.94,20.82-1.27,35.24-.17,15.08-.39,31.76-.72,50.1-.06,3.81-.11,6.46-.5,8.4v45.29l-8.17-4.42c-5.36-2.93-11.43-5.69-18.06-8.29-16.68-6.46-39.22-9.72-66.95-9.72-32.2,0-62.47,5.14-89.93,15.19-27.67,10.11-51.81,25.19-71.86,44.74-20.16,19.61-36.01,43.97-47.12,72.42-10.88,28.23-16.46,60.98-16.46,97.27,0,42.75,7.24,78.82,21.49,107.16,14.2,28.5,32.26,51.37,53.64,68.05,21.21,16.63,44.19,28.45,68.38,35.19,23.97,6.63,46.18,10,66.01,10,16.29,0,31.65-1.82,45.52-5.41,13.98-3.48,27.01-8.01,38.72-13.59,11.6-5.63,21.98-11.66,30.82-17.95,3.26-2.27,6.35-4.53,9.39-6.85l5.3-4.09,2.98,6.02c2.93,5.8,6.52,11.27,10.72,16.13,9,10.66,20.82,16.3,34.19,16.3,5.91,0,12.54-1.11,19.72-3.37,7.29-2.21,13.97-5.41,20.49-9.67,6.79-4.58,12.59-10.27,17.12-16.9,4.81-7.24,7.24-15.74,7.24-25.24,0-7.95-2.04-15.63-6.08-22.76ZM2936,2258.85c-17.12,19.11-41.37,28.39-74.07,28.39-21.38,0-39.94-3.65-55.18-10.88-15.69-7.51-28.34-17.23-38.56-29.72-10.27-12.37-18.01-26.62-23.14-42.26-5.03-15.96-7.57-33.03-7.57-50.82,0-21.21,3.59-39.66,10.72-54.8,7.02-15.19,16.29-27.95,27.56-37.84,11.21-9.83,24.3-17.23,38.89-21.98,15.02-4.86,30.55-7.35,46.29-7.35,24.97,0,100.86,0,100.86,129.42,0,45.57-8.67,78.49-25.8,97.83Z"/>
  <path class="cls-1" d="M3490.03,2272.44c-8.73-5.86-17.79-8.84-27.01-8.84-6.79,0-14.2,1.1-21.93,3.31-7.46,1.99-15.96,4.31-25.41,6.96-9.34,2.49-20.33,4.75-32.64,6.79-12.1,1.99-25.96,2.98-41.26,2.98-41.98,0-74.29-8.51-96.11-25.35-16.07-12.43-27.12-28.67-33.8-49.71l-3.31-10.44,10.33,3.54c17.18,5.86,33.64,9.94,48.83,12.21,49.33,7.02,96.5,6.19,136.49-2.37h.06c22.54-4.81,42.09-12.48,58.16-22.87,16.74-10.66,29.72-24.91,38.67-42.42,9.06-17.45,13.64-38.67,13.64-63.14,0-27.51-5.58-51.81-16.63-72.31-10.88-20.6-25.52-37.84-43.58-51.32-17.73-13.31-38.45-23.42-61.48-30.05-22.92-6.46-46.73-9.78-70.65-9.78-31.15,0-60.65,5.19-87.61,15.36-26.9,10.11-50.65,25.3-70.7,45.24-19.72,19.89-35.46,44.58-46.79,73.47-11.32,28.83-17.01,62.09-17.01,98.98s5.91,72.14,17.51,100.81c11.71,29,28.28,53.58,49.27,73.08,20.93,19.61,46.18,34.41,74.96,44.08,28.45,9.5,60.04,14.25,93.79,14.25,14.31,0,30.99-1.05,49.55-3.09,19.17-2.15,37.4-6.02,54.19-11.6,17.51-5.74,32.59-13.64,44.74-23.48,13.42-10.88,20.49-25.63,20.49-42.59,0-18.34-8.01-27.34-14.75-31.71ZM3207.27,2106.67c2.71-14.47,7.02-26.9,12.82-37.06,7.4-12.7,16.46-22.98,27.07-30.6,10.77-7.79,22.76-13.53,35.68-17.01,13.53-3.59,27.67-5.41,42.04-5.41,32.48,0,55.68,6.79,69.05,20.22,13.37,13.59,19.89,28.94,19.89,47.06s-6.41,31.26-19.66,38.17c-14.86,7.79-38.5,11.71-70.26,11.71-21.87,0-43.03-1.88-62.69-5.52-16.29-2.98-33.31-8.17-50.6-15.47l-4.14-1.71.83-4.36Z"/>
  <path class="cls-1" d="M3831.23,1975.93c0,11.82-2.6,21.98-7.73,30.27-4.81,7.84-11.71,14.36-20.38,19.33-8.34,4.64-17.84,8.23-28.17,10.72-10.05,2.26-21.16,4.58-32.87,6.9-17.07,3.26-33.2,9.39-47.95,18.28-13.42,8.01-22.43,17.57-27.62,29.05l-.5,1.1v1.22c0,9.22.11,16.24.28,21.04.28,4.53.55,8.73.94,12.1.33,4.09.55,7.9.55,12.1v18.73c0,28.23-.61,55.9-1.77,82.25-1.33,29.05-2.49,56.18-3.48,82.97-.55,14.53-2.21,25.68-5.25,34.19-2.71,8.17-6.35,14.86-10.72,19.78-4.86,5.36-10.44,8.67-16.52,9.89-5.14.94-10.22,1.44-14.97,1.44-18.5,0-30.93-4.47-38-13.64-6.52-8.78-10.61-24.86-12.93-50.6-2.38-19.89-3.76-43.86-4.25-73.3-.5-28.72-.77-63.74-.77-104.12,0-44.69.11-74.57.28-96.89.33-25.08,1.93-47.45,4.81-66.67,2.98-25.08,7.84-41.21,14.86-49.27,7.4-8.62,17.51-13.15,29.28-13.15,6.9,0,13.48.66,19.66,1.99,6.46,1.16,12.59,4.25,17.84,8.89,5.41,4.64,9.45,11.27,12.1,19.66,1.82,5.58,3.04,12.54,3.53,20.77l.77,12.21,8.67-8.67c9.89-9.89,20.6-18.95,31.82-26.85,20.66-14.53,44.47-21.93,70.81-21.93,47.67,0,57.67,27.29,57.67,50.21Z"/>
  <path class="cls-1" d="M4142.16,1975.93c0,11.82-2.6,21.98-7.73,30.27-4.81,7.79-11.71,14.36-20.38,19.33-8.34,4.64-17.84,8.23-28.17,10.72-10,2.26-21.05,4.58-32.87,6.9-17.07,3.26-33.2,9.39-48,18.28-13.37,8.01-22.37,17.57-27.56,29.05l-.5,1.1v1.16c0,9.28.06,16.29.28,21.1.28,4.58.55,8.73.88,12.1.39,4.09.55,7.9.55,12.1v18.73c0,28.45-.55,56.12-1.71,82.25-1.33,28.17-2.43,55.29-3.48,82.97-.55,14.47-2.21,25.63-5.25,34.19-2.71,8.17-6.35,14.86-10.72,19.78-4.86,5.36-10.44,8.67-16.52,9.89-5.14.94-10.22,1.44-14.97,1.44-18.5,0-30.93-4.47-38-13.64-6.52-8.78-10.61-24.86-12.98-50.65-2.32-19.89-3.7-43.86-4.2-73.24-.5-28.56-.77-63.58-.77-104.12s.06-72.25.28-96.89c.28-25.08,1.93-47.45,4.81-66.67,2.98-25.08,7.84-41.21,14.8-49.27,7.46-8.56,17.57-13.15,29.33-13.15,6.9,0,13.48.66,19.66,1.99,6.41,1.16,12.59,4.25,17.84,8.89,5.41,4.7,9.45,11.27,12.1,19.66,1.82,5.58,3.04,12.54,3.54,20.77l.77,12.21,8.67-8.67c9.89-9.89,20.6-18.95,31.82-26.85,20.6-14.53,44.47-21.93,70.81-21.93,47.67,0,57.67,27.29,57.67,50.21Z"/>
  <g>
    <path class="cls-2" d="M3149.05,1078.7c15.32-21.05,25.84-45.14,33.13-70.03,13.56-47.7,15.92-98.37,8.23-147.35-4.39-29.15-11.54-58.09-23.61-85.01-11.2-25.1-27.66-48.31-49.79-64.7-9.18-6.95-19.5-12.08-29.82-16.8-12.08-5.33-24.96-9.11-38.12-9.65-21.52-1.48-43.04,4.45-62,14.44-21.86,11.6-40.75,28-58.22,45.47-47.63,47.9-78.6,110.31-95.4,175.28-9.04,36.57-13.09,75.5-3.71,112.47,9.65,36.43,36.09,65.85,65.64,87.98,19.5,14.57,40.88,27.19,64.5,33.67,22.53,6.68,46.69,7.49,69.69,2.77,20.64-4.25,40.34-12.35,58.36-23.14,23.75-14.17,45-32.92,61.12-55.39Z"/>
    <path class="cls-2" d="M2411.3,865.5c18.82,20.91,43.65,35.76,70.03,45.27,25.23,9.24,51.95,15.45,79,14.91,23.75-.54,47.36-7.35,67.67-19.7,37.38-22.33,66.72-55.66,91.28-91.22,33.13-47.63,56-102.75,63.28-160.5,3.37-25.57,3.51-52.02-3.17-77.05-6.07-22.67-19.23-43.52-37.92-57.62-9.98-7.69-21.12-13.49-32.45-18.76-24.42-10.59-51.75-12.75-77.92-9.45-27.66,3.51-54.24,12.82-79.54,24.15-43.11,19.03-82.92,46.15-115.23,80.62-21.39,23.41-40.88,49.45-52.22,79.41-15.79,40.08-17.27,85.08-6.41,126.64,6.27,23.21,17.41,45.34,33.6,63.28Z"/>
    <path class="cls-2" d="M2046.64,1013.19c22.06-4.45,42.5-14.78,61.06-27.19,39.74-25.64,75.43-57.48,105.52-93.91,18.76-23.61,32.92-51.61,36.97-81.77,3.04-22.74.94-46.15-6.07-67.94-9.31-27.8-28.74-51.21-51.61-69.15-18.96-15.32-40.68-26.78-62.81-36.84-29.01-12.35-60.86-19.9-92.5-16.46-19.63,2.02-38.39,9.38-55.66,18.76-24.69,13.22-45.94,33.53-58.7,58.7-9.18,17.61-13.76,37.17-17.95,56.54-8.43,43.25-10.52,87.57-8.97,131.56,1.42,27.86,8.5,56.27,24.69,79.41,15.85,22.67,40.41,37.92,66.59,45.81,19.16,5.94,39.81,6.61,59.44,2.5Z"/>
    <path class="cls-2" d="M3410.68,1347.42c-7.62-25.91-24.15-48.44-44.39-65.92-21.66-19.3-47.36-33.13-73.67-44.73-36.23-15.38-78.06-22.67-116.18-10.05-22.13,7.83-43.45,19.09-60.65,35.22-18.49,16.87-31.44,39.33-38.32,63.35-13.76,47.7-17.27,97.62-16.6,147.08.2,26.11,3.78,52.69,15.11,76.44,10.46,22.6,28.88,41.49,51.21,52.49,20.64,11.06,44.33,17,67.8,15.25,23.41-1.62,45.81-10.05,65.92-21.79,44.06-26.78,83.73-60.79,116.65-100.46,16.53-20.58,29.69-44.33,35.62-70.23,5.8-25.23,4.66-51.88-2.5-76.64Z"/>
    <path class="cls-2" d="M2955.55,1370.63c-13.63-21.93-30.63-41.69-49.79-58.97-43.99-40.48-100.93-66.25-160.03-74.28-59.64-7.49-121.58,4.59-174.27,33.6-5.6-46.82-23.28-91.96-50.06-130.68-28.67-41.56-69.29-74.42-114.83-95.8-26.58-12.82-55.32-20.64-84.47-25.1-25.5-3.78-51.54-3.58-76.98,0-20.1,2.9-39.74,8.64-59.03,14.84-48.91,16.26-95.13,42.1-132.1,78.13-36.84,34.95-65.17,79.14-79.75,127.78-12.14,40.41-16.39,83.32-11.47,125.29,4.12,35.22,13.97,69.69,28.27,102.01,24.36,54.58,61.8,102.62,105.79,142.83,38.32,37.24,75.09,76.37,106.19,119.96,16.6,23.41,30.9,48.51,43.04,74.48,9.65,20.17,17.47,41.09,25.91,61.73,17.27-6.14,34.34-12.95,52.15-17.27,27.73-7.29,56.4-10.26,84.94-11,53.57-.81,106.93,6,159.63,15.45,69.63,14.91,143.23,16.06,211.98-4.18,42.23-13.16,82.98-32.99,116.78-61.87,42.37-34.75,74.55-81.57,91.75-133.52,17.88-53.77,20.51-112.33,9.65-167.86-8.16-40.41-21.52-80.35-43.31-115.57ZM2875.27,1623.42c-5.87,32.86-20.85,64.03-43.25,88.85-29.01,32.25-69.22,52.89-111.12,62.81-48.85,11-99.78,8.77-148.49-1.55-33.46-7.35-67.33-13.22-101.27-17.07-49.66-5.8-100.66-6.61-149.57,5.2-12.14-24.83-25.84-49.05-41.76-71.72-27.86-39.33-61.66-74.15-96.41-107.41-18.69-17.41-37.98-34.14-54.58-53.57-20.24-23.28-37.51-49.25-50.46-77.32-14.24-31.24-22.26-65.51-21.32-99.92,1.08-29.28,8.03-58.63,22.6-84.2,11.74-21.52,28.54-39.94,47.36-55.52,21.05-17.61,46.01-30.09,71.72-39.4,16.46-5.6,33.33-9.99,50.46-12.55,53.1-7.42,108.08,7.15,152.47,36.63,20.51,13.83,39.33,30.43,54.11,50.26,24.49,32.45,39.81,71.99,41.76,112.74.81,16.87,1.89,33.73,2.7,50.6,14.51-9.38,29.01-18.82,43.52-28.07,16.66-10.73,34.88-19.03,53.97-23.95,24.42-6.21,49.86-9.04,75.02-6.61,59.98,6.21,117.32,36.7,155.51,83.59,12.28,15.45,22.6,32.59,29.75,51.07,17.61,43.04,26.58,91.01,17.27,137.09Z"/>
  </g>
  <g>
    <path class="cls-2" d="M808.71,2603.9c-5.64,0-10.94-.66-15.92-2-4.97-1.34-9.5-3.15-13.58-5.45-4.08-2.3-7.71-4.86-10.91-7.68s-5.67-5.64-7.45-8.46c-1.49-2.37-2.49-4.34-3.01-5.9-.52-1.56-.44-3.08.23-4.56.66-1.48,2.11-3.12,4.34-4.9,2.37-1.79,4.46-2.64,6.24-2.56,1.78.08,3.45.78,5.01,2.11,1.56,1.34,3.16,3.12,4.79,5.35,3.71,5.04,8.24,8.72,13.58,11.02,5.34,2.3,10.61,3.45,15.81,3.45,6.68,0,12.61-.89,17.81-2.67,5.19-1.78,9.31-4.49,12.35-8.12,3.04-3.64,4.57-8.35,4.57-14.14,0-4.75-1.19-8.75-3.57-12.02-2.37-3.26-5.57-6.01-9.57-8.24-4.01-2.23-8.46-4.19-13.36-5.9-4.9-1.7-9.94-3.45-15.14-5.23-3.86-1.34-7.76-2.82-11.68-4.45-3.94-1.63-7.57-3.57-10.91-5.79-3.34-2.23-6.31-4.82-8.91-7.79-2.6-2.97-4.64-6.46-6.12-10.46-1.49-4.01-2.23-8.68-2.23-14.02,0-8.16,2.01-15.33,6.01-21.49,4.01-6.16,9.57-11.02,16.7-14.59,7.13-3.56,15.29-5.34,24.49-5.34,5.64,0,10.77.52,15.36,1.56,4.6,1.04,8.68,2.41,12.24,4.12,3.57,1.71,6.6,3.49,9.13,5.35,2.52,1.86,4.45,3.6,5.79,5.23,2.67,2.82,4.15,5.19,4.46,7.13.29,1.93-.82,4.3-3.34,7.12-2.52,2.68-4.87,4.09-7.01,4.23-2.15.15-4.56-.89-7.23-3.12-2.82-3.26-5.76-5.79-8.8-7.57-3.04-1.78-6.23-3-9.57-3.67-3.34-.66-7.09-1-11.24-1-3.71,0-7.24.48-10.58,1.45s-6.24,2.42-8.68,4.34c-2.45,1.93-4.34,4.27-5.68,7.01-1.33,2.75-2,5.9-2,9.46,0,4.16,1.07,7.65,3.23,10.46,2.15,2.82,5.01,5.19,8.57,7.13,3.57,1.93,7.57,3.67,12.03,5.23,4.45,1.56,9.13,3.08,14.02,4.56,5.34,1.63,10.61,3.6,15.81,5.9,5.19,2.3,9.87,5.12,14.02,8.46s7.5,7.54,10.02,12.58c2.52,5.05,3.79,11.28,3.79,18.7s-1.45,13.95-4.35,19.59c-2.89,5.64-6.86,10.35-11.91,14.14s-10.8,6.65-17.25,8.57c-6.46,1.93-13.25,2.89-20.37,2.89Z"/>
    <path class="cls-2" d="M924.03,2601.45c-2.82,0-4.94-.41-6.34-1.22-1.41-.81-2.3-1.96-2.68-3.45-.37-1.48-.55-3.26-.55-5.35v-88.39c0-1.93.18-3.56.55-4.9.37-1.33,1.31-2.37,2.78-3.11,1.49-.74,3.64-1.12,6.46-1.12,2.22,0,3.97.26,5.23.78,1.26.52,2.15,1.22,2.67,2.11.52.89.85,1.86,1,2.89.15,1.04.23,2.01.23,2.9l-.45,10.24c1.48-2.52,3.34-4.94,5.57-7.24,2.23-2.3,4.82-4.37,7.79-6.24,2.97-1.85,6.19-3.3,9.68-4.34,3.49-1.04,7.23-1.56,11.25-1.56,6.53,0,12.54,1.15,18.03,3.45,5.49,2.3,10.21,5.64,14.14,10.02,3.93,4.38,6.97,9.61,9.13,15.7,2.15,6.08,3.23,12.99,3.23,20.7v48.31c0,2.08-.18,3.86-.56,5.35s-1.26,2.59-2.67,3.34c-1.41.74-3.6,1.11-6.57,1.11s-4.97-.41-6.46-1.22c-1.48-.81-2.41-1.96-2.78-3.45-.37-1.48-.56-3.26-.56-5.35v-48.31c0-6.24-1.08-11.65-3.23-16.25-2.16-4.6-5.28-8.16-9.35-10.69-4.08-2.52-9.32-3.79-15.7-3.79s-11.39,1.26-15.92,3.79c-4.53,2.52-8.01,6.08-10.46,10.69-2.45,4.6-3.68,10.02-3.68,16.25v48.53c0,2.08-.22,3.86-.67,5.35-.44,1.48-1.37,2.59-2.78,3.34-1.41.74-3.53,1.11-6.34,1.11Z"/>
    <path class="cls-2" d="M1077.66,2467.2c-3.26,0-5.71-.48-7.35-1.45s-2.71-2.34-3.23-4.12c-.52-1.79-.78-3.86-.78-6.24s.26-4.41.78-6.12c.52-1.7,1.63-2.97,3.34-3.79,1.7-.81,4.19-1.22,7.45-1.22s5.49.45,7.13,1.34,2.71,2.23,3.23,4.01c.52,1.78.78,3.93.78,6.46,0,2.22-.26,4.19-.78,5.9-.52,1.71-1.6,3.01-3.23,3.9s-4.08,1.33-7.35,1.33ZM1077.66,2601.68c-2.82,0-4.97-.41-6.46-1.22-1.48-.82-2.42-1.97-2.78-3.45-.37-1.48-.56-3.26-.56-5.35v-87.94c0-1.93.22-3.67.67-5.23.45-1.56,1.37-2.7,2.78-3.45,1.41-.74,3.6-1.12,6.56-1.12s4.9.41,6.24,1.22c1.34.82,2.23,2.01,2.68,3.57.44,1.56.66,3.38.66,5.45v87.72c0,2.08-.22,3.86-.66,5.34-.45,1.49-1.38,2.59-2.78,3.34-1.41.74-3.53,1.12-6.35,1.12Z"/>
    <path class="cls-2" d="M1146.23,2496.37l21.38.23,30.94-.45c2.08,0,3.86.19,5.35.56,1.48.37,2.63,1.26,3.45,2.67.81,1.41,1.22,3.53,1.22,6.35s-.37,4.94-1.11,6.34c-.74,1.41-1.86,2.34-3.34,2.78-1.48.45-3.27.67-5.34.67l-30.5-.45-22.49.45c-3.12-.15-5.23-.97-6.34-2.45s-1.67-3.93-1.67-7.35.67-5.64,2.01-7.13c1.34-1.48,3.48-2.23,6.46-2.23ZM1167.16,2601.9c-2.82,0-4.9-.45-6.24-1.34-1.33-.89-2.23-2.11-2.67-3.67s-.67-3.37-.67-5.45v-111.76c0-5.93.67-11.13,2.01-15.58,1.33-4.46,3.52-8.16,6.56-11.13,3.04-2.97,7.01-5.23,11.92-6.79,4.9-1.56,10.91-2.34,18.03-2.34,1.93,0,3.68.18,5.23.56,1.56.37,2.75,1.26,3.56,2.67.82,1.41,1.23,3.6,1.23,6.57,0,2.67-.45,4.75-1.34,6.23-.89,1.49-2.08,2.42-3.56,2.78-1.49.37-3.27.56-5.35.56-3.41,0-6.34.15-8.79.45s-4.34.97-5.68,2c-1.34,1.04-2.34,2.64-3,4.79-.66,2.15-1,5.09-1,8.79v112.88c0,1.93-.26,3.64-.78,5.12-.52,1.49-1.48,2.63-2.9,3.45-1.41.81-3.6,1.22-6.56,1.22Z"/>
    <path class="cls-2" d="M1258.88,2496.37l21.38.23,30.94-.45c2.08,0,3.86.19,5.35.56,1.48.37,2.63,1.26,3.45,2.67.81,1.41,1.22,3.53,1.22,6.35s-.37,4.94-1.11,6.34c-.74,1.41-1.86,2.34-3.34,2.78-1.48.45-3.27.67-5.34.67l-30.5-.45-22.49.45c-3.12-.15-5.23-.97-6.34-2.45s-1.67-3.93-1.67-7.35.67-5.64,2.01-7.13c1.34-1.48,3.48-2.23,6.46-2.23ZM1279.81,2601.9c-2.82,0-4.9-.45-6.24-1.34-1.33-.89-2.23-2.11-2.67-3.67s-.67-3.37-.67-5.45v-111.76c0-5.93.67-11.13,2.01-15.58,1.33-4.46,3.52-8.16,6.56-11.13,3.04-2.97,7.01-5.23,11.92-6.79,4.9-1.56,10.91-2.34,18.03-2.34,1.93,0,3.68.18,5.23.56,1.56.37,2.75,1.26,3.56,2.67.82,1.41,1.23,3.6,1.23,6.57,0,2.67-.45,4.75-1.34,6.23-.89,1.49-2.08,2.42-3.56,2.78-1.49.37-3.27.56-5.35.56-3.41,0-6.34.15-8.79.45s-4.34.97-5.68,2c-1.34,1.04-2.34,2.64-3,4.79-.66,2.15-1,5.09-1,8.79v112.88c0,1.93-.26,3.64-.78,5.12-.52,1.49-1.48,2.63-2.9,3.45-1.41.81-3.6,1.22-6.56,1.22Z"/>
    <path class="cls-2" d="M1380,2601.9c-4.46,0-7.57-.89-9.35-2.67s-2.67-4.75-2.67-8.91c0-3.12.37-5.53,1.12-7.24.74-1.7,2-2.97,3.79-3.78,1.78-.81,4.15-1.22,7.12-1.22,4.46,0,7.53.89,9.24,2.67,1.7,1.78,2.56,4.9,2.56,9.35,0,2.97-.38,5.31-1.12,7.01-.74,1.7-1.97,2.93-3.67,3.67-1.7.74-4.05,1.11-7.01,1.11Z"/>
    <path class="cls-2" d="M1577.25,2603.9c-5.64,0-10.95-.66-15.92-2-4.97-1.34-9.5-3.15-13.58-5.45-4.09-2.3-7.72-4.86-10.91-7.68-3.19-2.82-5.68-5.64-7.46-8.46-1.48-2.37-2.49-4.34-3-5.9-.52-1.56-.45-3.08.22-4.56s2.11-3.12,4.34-4.9c2.37-1.79,4.45-2.64,6.24-2.56,1.78.08,3.45.78,5.01,2.11,1.55,1.34,3.15,3.12,4.78,5.35,3.71,5.04,8.24,8.72,13.58,11.02,5.35,2.3,10.62,3.45,15.81,3.45,6.68,0,12.62-.89,17.81-2.67,5.19-1.78,9.32-4.49,12.36-8.12,3.04-3.64,4.56-8.35,4.56-14.14,0-4.75-1.19-8.75-3.56-12.02-2.38-3.26-5.57-6.01-9.58-8.24-4-2.23-8.46-4.19-13.36-5.9-4.9-1.7-9.95-3.45-15.14-5.23-3.86-1.34-7.76-2.82-11.69-4.45-3.93-1.63-7.56-3.57-10.91-5.79-3.34-2.23-6.31-4.82-8.9-7.79-2.6-2.97-4.64-6.46-6.13-10.46-1.48-4.01-2.22-8.68-2.22-14.02,0-8.16,2-15.33,6.01-21.49,4.01-6.16,9.57-11.02,16.7-14.59,7.12-3.56,15.28-5.34,24.49-5.34,5.64,0,10.76.52,15.36,1.56,4.6,1.04,8.68,2.41,12.24,4.12,3.56,1.71,6.6,3.49,9.13,5.35,2.52,1.86,4.46,3.6,5.79,5.23,2.67,2.82,4.15,5.19,4.45,7.13.3,1.93-.81,4.3-3.33,7.12-2.53,2.68-4.87,4.09-7.02,4.23-2.15.15-4.56-.89-7.23-3.12-2.82-3.26-5.76-5.79-8.79-7.57-3.05-1.78-6.24-3-9.58-3.67-3.33-.66-7.09-1-11.24-1-3.71,0-7.23.48-10.57,1.45s-6.24,2.42-8.68,4.34c-2.45,1.93-4.34,4.27-5.67,7.01-1.34,2.75-2.01,5.9-2.01,9.46,0,4.16,1.08,7.65,3.23,10.46,2.16,2.82,5.02,5.19,8.58,7.13,3.56,1.93,7.57,3.67,12.02,5.23,4.46,1.56,9.13,3.08,14.03,4.56,5.35,1.63,10.61,3.6,15.81,5.9,5.19,2.3,9.87,5.12,14.03,8.46,4.15,3.34,7.49,7.54,10.02,12.58,2.52,5.05,3.78,11.28,3.78,18.7s-1.45,13.95-4.34,19.59c-2.9,5.64-6.87,10.35-11.91,14.14-5.05,3.79-10.8,6.65-17.26,8.57-6.45,1.93-13.24,2.89-20.37,2.89Z"/>
    <path class="cls-2" d="M1720.18,2601.23c-2.23,0-3.97-.37-5.23-1.11-1.27-.74-2.23-1.67-2.9-2.78-.66-1.11-1.22-2.34-1.67-3.67l-34.29-87.72c-.74-2.23-1.08-4.04-1-5.45.07-1.41.66-2.67,1.78-3.79,1.11-1.11,2.78-2.04,5.01-2.78,3.56-1.33,6.31-1.67,8.24-1,1.92.66,3.48,2.63,4.67,5.9l25.38,67.68,23.6-66.12c.45-1.19,1-2.34,1.67-3.45.67-1.11,1.67-2.03,3-2.78s3.04-1.12,5.12-1.12c2.37,0,4.2.37,5.46,1.12,1.26.74,2.3,1.63,3.12,2.67.81,1.04,1.37,2.15,1.67,3.34l23.37,66.79,25.16-66.79c1.49-3.71,3.19-6.08,5.12-7.13,1.93-1.04,4.67-.89,8.24.45,3.12,1.04,5.23,2.56,6.35,4.56,1.11,2,.92,4.71-.56,8.12l-34.51,87.72c-.44,1.19-1,2.34-1.67,3.45-.66,1.11-1.63,2.04-2.9,2.78-1.26.74-2.93,1.11-5.01,1.11s-3.75-.33-5.01-1c-1.26-.66-2.23-1.63-2.9-2.89-.66-1.26-1.29-2.63-1.89-4.12l-23.82-68.57-24.05,68.57c-.59,1.79-1.22,3.27-1.89,4.46-.66,1.19-1.6,2.08-2.78,2.67-1.2.59-2.83.89-4.9.89Z"/>
    <path class="cls-2" d="M1892.06,2467.2c-3.27,0-5.72-.48-7.35-1.45-1.63-.97-2.71-2.34-3.23-4.12-.52-1.79-.78-3.86-.78-6.24s.26-4.41.78-6.12c.52-1.7,1.63-2.97,3.34-3.79,1.7-.81,4.19-1.22,7.46-1.22s5.49.45,7.12,1.34c1.63.89,2.71,2.23,3.23,4.01.52,1.78.78,3.93.78,6.46,0,2.22-.26,4.19-.78,5.9-.52,1.71-1.6,3.01-3.23,3.9-1.63.89-4.08,1.33-7.35,1.33ZM1892.06,2601.68c-2.82,0-4.97-.41-6.46-1.22-1.48-.82-2.41-1.97-2.78-3.45-.38-1.48-.56-3.26-.56-5.35v-87.94c0-1.93.23-3.67.67-5.23s1.37-2.7,2.78-3.45c1.41-.74,3.59-1.12,6.57-1.12,2.82,0,4.9.41,6.23,1.22,1.33.82,2.23,2.01,2.67,3.57.45,1.56.67,3.38.67,5.45v87.72c0,2.08-.22,3.86-.67,5.34-.44,1.49-1.37,2.59-2.78,3.34-1.41.74-3.53,1.12-6.34,1.12Z"/>
    <path class="cls-2" d="M1967.76,2645.54c-2.82,0-4.98-.41-6.46-1.22-1.49-.82-2.45-1.97-2.89-3.45-.45-1.48-.67-3.27-.67-5.35v-131.58c0-2.08.22-3.86.67-5.35.44-1.48,1.37-2.63,2.78-3.45,1.4-.81,3.52-1.22,6.34-1.22,3.26,0,5.67.52,7.23,1.56,1.56,1.04,2.49,2.9,2.78,5.57v134.25c.15,2.08,0,3.89-.45,5.45-.44,1.56-1.37,2.75-2.78,3.57-1.41.81-3.6,1.22-6.56,1.22ZM2013.84,2600.79c-7.27,0-13.84-1.34-19.7-4.01-5.87-2.68-10.87-6.42-15.03-11.25-4.16-4.82-7.39-10.5-9.69-17.03s-3.38-13.73-3.23-21.6c0-7.71,1.11-14.84,3.34-21.37,2.23-6.53,5.45-12.21,9.68-17.03,4.23-4.82,9.28-8.53,15.14-11.13,5.86-2.59,12.36-3.89,19.48-3.89s13.43,1.33,19.38,4.01c5.93,2.67,11.2,6.42,15.81,11.24,4.6,4.82,8.2,10.57,10.8,17.26,2.59,6.68,3.89,13.88,3.89,21.59s-1.31,14.84-3.89,21.37c-2.6,6.54-6.16,12.17-10.69,16.92-4.53,4.75-9.8,8.43-15.81,11.02-6.01,2.59-12.5,3.9-19.48,3.9ZM2011.18,2582.53c6.23,0,11.87-1.52,16.92-4.56,5.04-3.04,9.02-7.23,11.91-12.58,2.9-5.34,4.34-11.42,4.34-18.25s-1.45-12.88-4.34-18.15c-2.89-5.27-6.87-9.35-11.91-12.24-5.05-2.9-10.69-4.34-16.92-4.34s-11.85,1.48-16.81,4.45c-4.97,2.97-8.91,7.06-11.8,12.24-2.9,5.2-4.35,11.21-4.35,18.04s1.45,12.91,4.35,18.25c2.89,5.35,6.82,9.54,11.8,12.58,4.97,3.04,10.58,4.56,16.81,4.56Z"/>
    <path class="cls-2" d="M2166.57,2602.79c-8.91,0-16.85-1.48-23.82-4.45-6.98-2.97-12.88-7.01-17.7-12.14-4.82-5.12-8.53-11.02-11.13-17.7-2.6-6.68-3.9-13.88-3.9-21.6,0-10.24,2.37-19.37,7.13-27.38,4.75-8.02,11.35-14.36,19.81-19.04,8.46-4.68,18.11-7.01,28.94-7.01,7.42,0,14.06,1.15,19.93,3.45,5.86,2.3,10.87,5.38,15.03,9.24,4.15,3.86,7.35,8.17,9.57,12.91,2.23,4.75,3.34,9.5,3.34,14.25,0,7.57-1.78,12.91-5.34,16.03-3.57,3.12-7.94,4.68-13.14,4.68h-64.34c-.15,6.39,1.6,11.91,5.23,16.59,3.64,4.68,8.24,8.27,13.81,10.8,5.56,2.52,11.17,3.78,16.81,3.78,4,0,7.53-.22,10.57-.66,3.04-.45,5.67-1.04,7.9-1.79,2.23-.74,4.12-1.48,5.68-2.22,1.55-.74,3-1.48,4.34-2.23,1.34-.74,2.6-1.26,3.79-1.56,1.19-.3,2.45-.18,3.79.33,1.34.52,2.37,1.52,3.12,3,.88,1.19,1.48,2.3,1.78,3.34.29,1.04.44,2.15.44,3.34,0,2.23-1.78,4.57-5.34,7.02s-8.5,4.56-14.81,6.34c-6.31,1.78-13.47,2.67-21.49,2.67ZM2130.95,2540.67h55.88c2.68,0,4.75-.37,6.24-1.12s2.22-2.74,2.22-6.01c0-4.01-1.26-7.71-3.78-11.13-2.53-3.41-5.98-6.15-10.35-8.24-4.38-2.08-9.46-3.12-15.25-3.12-6.38,0-12.28,1.31-17.7,3.9-5.42,2.59-9.68,6.12-12.8,10.57-3.12,4.46-4.61,9.5-4.46,15.14Z"/>
    <path class="cls-2" d="M2274.11,2601.9c-4.45,0-7.57-.89-9.35-2.67-1.78-1.78-2.68-4.75-2.68-8.91,0-3.12.37-5.53,1.11-7.24.74-1.7,2.01-2.97,3.79-3.78s4.15-1.22,7.13-1.22c4.45,0,7.53.89,9.24,2.67,1.7,1.78,2.56,4.9,2.56,9.35,0,2.97-.37,5.31-1.11,7.01s-1.97,2.93-3.67,3.67c-1.71.74-4.05,1.11-7.01,1.11Z"/>
    <path class="cls-2" d="M2436.41,2601.68c-2.68,0-4.75-.45-6.24-1.34-1.49-.89-2.49-2.11-3-3.67-.52-1.56-.78-3.3-.78-5.23v-135.14c0-1.93.26-3.64.78-5.12.52-1.48,1.52-2.68,3-3.57,1.48-.89,3.71-1.33,6.68-1.33,2.23,0,4.01.15,5.35.44,1.33.3,2.41.71,3.23,1.22.81.52,1.67,1.3,2.56,2.34l58.11,84.16h-6.9l58.78-84.82c.89-.89,1.79-1.56,2.67-2.01.9-.44,2.04-.78,3.45-1,1.41-.23,3.08-.33,5.01-.33,2.82,0,4.94.44,6.34,1.33,1.41.89,2.41,2.11,3,3.67s.9,3.38.9,5.46v135.14c0,1.78-.3,3.41-.9,4.9s-1.63,2.67-3.12,3.56c-1.48.89-3.64,1.34-6.45,1.34s-4.71-.45-6.13-1.34-2.37-2.11-2.89-3.67c-.52-1.56-.78-3.3-.78-5.23v-111.54l-47.65,70.13c-.45.6-1.04,1.22-1.78,1.89-.74.67-1.67,1.26-2.78,1.78-1.12.52-2.56.78-4.34.78-1.63,0-2.97-.26-4.01-.78-1.04-.52-1.89-1.11-2.56-1.78s-1.37-1.45-2.11-2.34l-47.42-69.69v111.99c0,1.78-.26,3.41-.78,4.9-.52,1.48-1.48,2.67-2.89,3.56-1.41.89-3.53,1.34-6.34,1.34Z"/>
    <path class="cls-2" d="M2728.96,2601.45c-3.26,0-5.64-.66-7.13-2-1.48-1.34-2.3-3.41-2.45-6.24l.9-11.13c-1.49,2.37-3.79,5.08-6.9,8.12-3.12,3.04-7.24,5.72-12.36,8.02-5.12,2.3-11.24,3.45-18.37,3.45s-13.77-1.41-19.93-4.23c-6.16-2.82-11.58-6.75-16.25-11.8-4.68-5.04-8.34-10.83-11.02-17.36-2.67-6.53-4.01-13.51-4.01-20.93s1.34-14.14,4.01-20.6c2.68-6.46,6.38-12.13,11.13-17.03,4.75-4.9,10.2-8.76,16.37-11.58,6.15-2.82,12.72-4.23,19.7-4.23,6.53,0,12.09.86,16.7,2.56,4.6,1.71,8.57,3.93,11.91,6.68,3.34,2.75,6.27,5.83,8.79,9.24l-.67-9.35c0-3.26.78-5.6,2.34-7.01,1.55-1.41,4.04-2.11,7.45-2.11,2.82,0,4.86.45,6.13,1.34,1.26.89,2.11,2.15,2.56,3.79s.67,3.64.67,6.01v85.94c0,2.08-.23,3.93-.67,5.56-.44,1.64-1.34,2.86-2.68,3.67-1.33.81-3.41,1.22-6.23,1.22ZM2685.77,2582.98c6.08,0,11.58-1.56,16.47-4.68,4.9-3.12,8.83-7.31,11.8-12.58,2.97-5.26,4.45-11.32,4.45-18.15s-1.53-13.1-4.56-18.37c-3.04-5.26-7.05-9.39-12.02-12.36-4.97-2.97-10.5-4.45-16.58-4.45-6.83,0-12.81,1.56-17.93,4.68-5.12,3.12-9.16,7.35-12.13,12.69-2.98,5.35-4.46,11.43-4.46,18.26s1.48,12.65,4.46,17.92c2.97,5.27,7.08,9.43,12.35,12.47,5.26,3.04,11.32,4.56,18.15,4.56Z"/>
    <path class="cls-2" d="M2794.41,2496.37l21.37.23,30.95-.45c2.08,0,3.86.19,5.34.56,1.49.37,2.64,1.26,3.45,2.67.82,1.41,1.23,3.53,1.23,6.35s-.38,4.94-1.12,6.34c-.74,1.41-1.86,2.34-3.34,2.78-1.49.45-3.27.67-5.34.67l-30.5-.45-22.49.45c-3.12-.15-5.23-.97-6.34-2.45s-1.67-3.93-1.67-7.35.67-5.64,2.01-7.13,3.48-2.23,6.46-2.23ZM2844.28,2601.68c-6.98,0-12.91-.67-17.81-2.01-4.9-1.33-8.87-3.41-11.91-6.23-3.04-2.82-5.23-6.49-6.57-11.02-1.33-4.53-2-10.13-2-16.81v-98.18c0-2.23.22-4.08.67-5.57s1.33-2.63,2.67-3.45c1.34-.81,3.41-1.22,6.24-1.22s4.97.41,6.46,1.22c1.48.82,2.45,1.97,2.9,3.45.44,1.48.66,3.19.66,5.12v98.63c0,3.86.33,6.94,1,9.24.66,2.3,1.7,4.05,3.11,5.23,1.41,1.19,3.3,1.93,5.68,2.23,2.37.3,5.27.44,8.68.44,2.37,0,4.3.23,5.79.67,1.48.45,2.59,1.34,3.34,2.68.74,1.33,1.12,3.34,1.12,6.01,0,2.82-.41,4.94-1.23,6.34-.81,1.41-2,2.3-3.56,2.68-1.56.37-3.3.56-5.23.56Z"/>
    <path class="cls-2" d="M2956.49,2602.12c-7.72,0-14.95-1.26-21.71-3.78-6.75-2.52-12.69-6.12-17.81-10.8-5.12-4.68-9.13-10.35-12.02-17.03-2.9-6.68-4.35-14.25-4.35-22.71s1.45-15.99,4.35-22.6c2.89-6.6,6.86-12.28,11.91-17.03,5.04-4.75,10.94-8.38,17.69-10.91,6.75-2.52,13.92-3.78,21.49-3.78,5.04,0,10.02.78,14.92,2.34,4.9,1.56,9.24,3.56,13.03,6.01,3.78,2.45,6.49,5.01,8.12,7.68,1.48,1.93,2.56,3.53,3.23,4.79.67,1.26.7,2.71.11,4.34-.59,1.19-1.41,2.26-2.45,3.23-1.04.97-2.08,1.75-3.12,2.34-2.82,2.08-5.49,2.38-8.01.9-1.64-1.63-3.45-3.16-5.46-4.57-2.01-1.41-4.12-2.67-6.34-3.78-2.23-1.12-4.49-2.04-6.79-2.78-2.3-.74-4.71-1.11-7.23-1.11-6.98,0-13.14,1.48-18.48,4.45-5.34,2.97-9.46,7.05-12.36,12.24-2.9,5.2-4.34,11.28-4.34,18.25s1.45,13.06,4.34,18.26,6.97,9.28,12.25,12.24c5.26,2.97,11.31,4.45,18.14,4.45,2.97,0,5.94-.4,8.91-1.22,2.97-.81,5.71-1.93,8.24-3.34,2.52-1.41,4.6-2.93,6.24-4.56,1.48-1.04,2.75-1.93,3.78-2.67,1.04-.74,2.23-1.11,3.57-1.11s2.63.48,3.89,1.45c1.26.97,2.64,2.41,4.12,4.34,1.34,1.33,2.12,2.75,2.34,4.23.23,1.48-.04,2.93-.78,4.34-.74,1.41-1.93,2.71-3.57,3.89-2.37,2.38-5.53,4.64-9.46,6.79-3.93,2.15-8.2,3.89-12.8,5.23-4.61,1.33-9.13,2-13.58,2Z"/>
    <path class="cls-2" d="M3055.57,2601.68c-2.97,0-5.16-.41-6.56-1.22-1.41-.82-2.31-2.01-2.68-3.57-.37-1.56-.56-3.37-.56-5.45v-137.14c0-2.08.22-3.86.66-5.35.45-1.48,1.37-2.63,2.78-3.45,1.41-.81,3.6-1.22,6.57-1.22s5.16.41,6.57,1.22c1.41.82,2.3,1.97,2.67,3.45s.56,3.34.56,5.57v54.99c3.56-4.15,7.91-7.86,13.02-11.13,5.12-3.26,11.39-4.9,18.82-4.9,8.76,0,16.59,2.04,23.49,6.12,6.9,4.08,12.4,9.83,16.48,17.25,4.08,7.43,6.12,16.25,6.12,26.5v48.31c0,2.08-.23,3.86-.67,5.35s-1.34,2.63-2.67,3.45c-1.33.81-3.49,1.22-6.46,1.22s-5.16-.41-6.57-1.22c-1.41-.82-2.34-2.01-2.78-3.57-.44-1.56-.67-3.37-.67-5.45v-48.31c0-6.24-1.04-11.65-3.11-16.25-2.08-4.6-5.16-8.16-9.24-10.69-4.08-2.52-9.24-3.79-15.47-3.79-8.46,0-15.41,2.42-20.82,7.23-5.42,4.83-8.57,11.25-9.46,19.26v52.76c0,2.08-.22,3.86-.67,5.35-.44,1.48-1.37,2.63-2.78,3.45-1.41.81-3.6,1.22-6.56,1.22Z"/>
    <path class="cls-2" d="M3204.51,2601.9c-4.45,0-7.57-.89-9.35-2.67s-2.67-4.75-2.67-8.91c0-3.12.37-5.53,1.11-7.24.74-1.7,2.01-2.97,3.79-3.78s4.15-1.22,7.12-1.22c4.46,0,7.53.89,9.25,2.67,1.7,1.78,2.56,4.9,2.56,9.35,0,2.97-.37,5.31-1.11,7.01-.74,1.7-1.97,2.93-3.68,3.67-1.7.74-4.05,1.11-7.01,1.11Z"/>
    <path class="cls-2" d="M3366.81,2601.68c-2.66,0-4.75-.45-6.23-1.34-1.48-.89-2.49-2.11-3-3.67-.52-1.56-.78-3.3-.78-5.23v-135.14c0-1.93.25-3.64.78-5.12.52-1.48,1.52-2.68,3-3.57,1.48-.89,3.71-1.33,6.68-1.33,2.22,0,4,.15,5.34.44,1.34.3,2.41.71,3.23,1.22.81.52,1.67,1.3,2.56,2.34l58.11,84.16h-6.9l58.78-84.82c.9-.89,1.78-1.56,2.68-2.01.88-.44,2.04-.78,3.45-1,1.41-.23,3.08-.33,5.01-.33,2.82,0,4.93.44,6.34,1.33,1.41.89,2.41,2.11,3.01,3.67.59,1.56.88,3.38.88,5.46v135.14c0,1.78-.3,3.41-.88,4.9-.6,1.48-1.64,2.67-3.12,3.56-1.49.89-3.64,1.34-6.46,1.34-2.66,0-4.71-.45-6.12-1.34-1.41-.89-2.38-2.11-2.9-3.67-.52-1.56-.78-3.3-.78-5.23v-111.54l-47.64,70.13c-.44.6-1.04,1.22-1.78,1.89-.74.67-1.67,1.26-2.78,1.78-1.11.52-2.56.78-4.34.78-1.63,0-2.97-.26-4.01-.78-1.04-.52-1.89-1.11-2.56-1.78s-1.38-1.45-2.11-2.34l-47.43-69.69v111.99c0,1.78-.26,3.41-.78,4.9-.52,1.48-1.49,2.67-2.9,3.56-1.41.89-3.53,1.34-6.35,1.34Z"/>
    <path class="cls-2" d="M3618.4,2602.79c-8.91,0-16.85-1.48-23.82-4.45-6.98-2.97-12.88-7.01-17.7-12.14-4.82-5.12-8.53-11.02-11.13-17.7-2.6-6.68-3.9-13.88-3.9-21.6,0-10.24,2.37-19.37,7.13-27.38,4.75-8.02,11.35-14.36,19.81-19.04,8.46-4.68,18.11-7.01,28.94-7.01,7.42,0,14.06,1.15,19.93,3.45,5.86,2.3,10.87,5.38,15.03,9.24,4.15,3.86,7.35,8.17,9.57,12.91,2.23,4.75,3.34,9.5,3.34,14.25,0,7.57-1.78,12.91-5.34,16.03-3.57,3.12-7.94,4.68-13.14,4.68h-64.34c-.15,6.39,1.6,11.91,5.23,16.59,3.64,4.68,8.24,8.27,13.81,10.8,5.56,2.52,11.17,3.78,16.81,3.78,4,0,7.53-.22,10.57-.66,3.04-.45,5.67-1.04,7.9-1.79,2.23-.74,4.12-1.48,5.68-2.22,1.55-.74,3-1.48,4.34-2.23,1.34-.74,2.6-1.26,3.79-1.56,1.19-.3,2.45-.18,3.79.33,1.34.52,2.37,1.52,3.12,3,.88,1.19,1.48,2.3,1.78,3.34.29,1.04.44,2.15.44,3.34,0,2.23-1.78,4.57-5.34,7.02-3.56,2.45-8.5,4.56-14.81,6.34-6.31,1.78-13.47,2.67-21.49,2.67ZM3582.77,2540.67h55.88c2.68,0,4.75-.37,6.24-1.12,1.48-.74,2.22-2.74,2.22-6.01,0-4.01-1.26-7.71-3.78-11.13-2.53-3.41-5.98-6.15-10.35-8.24-4.38-2.08-9.46-3.12-15.25-3.12-6.38,0-12.28,1.31-17.7,3.9-5.42,2.59-9.68,6.12-12.8,10.57-3.12,4.46-4.61,9.5-4.46,15.14Z"/>
    <path class="cls-2" d="M3767.12,2602.79c-8.9,0-16.84-1.48-23.82-4.45-6.98-2.97-12.88-7.01-17.7-12.14-4.83-5.12-8.54-11.02-11.13-17.7-2.6-6.68-3.9-13.88-3.9-21.6,0-10.24,2.37-19.37,7.13-27.38,4.75-8.02,11.35-14.36,19.82-19.04,8.46-4.68,18.1-7.01,28.94-7.01,7.42,0,14.06,1.15,19.93,3.45,5.86,2.3,10.87,5.38,15.03,9.24,4.15,3.86,7.35,8.17,9.57,12.91,2.22,4.75,3.33,9.5,3.33,14.25,0,7.57-1.78,12.91-5.34,16.03-3.56,3.12-7.94,4.68-13.13,4.68h-64.34c-.15,6.39,1.59,11.91,5.23,16.59,3.63,4.68,8.24,8.27,13.8,10.8,5.57,2.52,11.17,3.78,16.81,3.78,4.01,0,7.53-.22,10.57-.66,3.04-.45,5.68-1.04,7.91-1.79,2.22-.74,4.12-1.48,5.67-2.22s3.01-1.48,4.34-2.23c1.33-.74,2.59-1.26,3.78-1.56,1.19-.3,2.45-.18,3.79.33,1.34.52,2.37,1.52,3.12,3,.89,1.19,1.48,2.3,1.78,3.34.3,1.04.45,2.15.45,3.34,0,2.23-1.79,4.57-5.35,7.02-3.56,2.45-8.5,4.56-14.8,6.34-6.31,1.78-13.47,2.67-21.49,2.67ZM3731.5,2540.67h55.88c2.68,0,4.75-.37,6.24-1.12,1.48-.74,2.23-2.74,2.23-6.01,0-4.01-1.26-7.71-3.78-11.13-2.53-3.41-5.98-6.15-10.36-8.24-4.38-2.08-9.46-3.12-15.25-3.12-6.38,0-12.28,1.31-17.7,3.9-5.42,2.59-9.69,6.12-12.81,10.57-3.12,4.46-4.6,9.5-4.45,15.14Z"/>
    <path class="cls-2" d="M3865.97,2496.37l21.37.23,30.95-.45c2.08,0,3.86.19,5.35.56,1.48.37,2.63,1.26,3.45,2.67.81,1.41,1.22,3.53,1.22,6.35s-.37,4.94-1.11,6.34c-.74,1.41-1.86,2.34-3.34,2.78-1.48.45-3.26.67-5.35.67l-30.5-.45-22.48.45c-3.12-.15-5.23-.97-6.35-2.45-1.12-1.48-1.67-3.93-1.67-7.35s.67-5.64,2-7.13c1.33-1.48,3.48-2.23,6.46-2.23ZM3915.84,2601.68c-6.97,0-12.91-.67-17.81-2.01-4.9-1.33-8.87-3.41-11.92-6.23-3.04-2.82-5.23-6.49-6.56-11.02-1.34-4.53-2.01-10.13-2.01-16.81v-98.18c0-2.23.23-4.08.67-5.57.44-1.48,1.34-2.63,2.67-3.45,1.34-.81,3.41-1.22,6.24-1.22s4.97.41,6.46,1.22c1.48.82,2.45,1.97,2.89,3.45.45,1.48.67,3.19.67,5.12v98.63c0,3.86.33,6.94,1,9.24.67,2.3,1.7,4.05,3.12,5.23,1.41,1.19,3.3,1.93,5.67,2.23,2.37.3,5.26.44,8.68.44,2.37,0,4.3.23,5.79.67,1.48.45,2.59,1.34,3.34,2.68.74,1.33,1.11,3.34,1.11,6.01,0,2.82-.41,4.94-1.22,6.34-.82,1.41-2.01,2.3-3.57,2.68-1.56.37-3.31.56-5.23.56Z"/>
    <path class="cls-2" d="M3986.86,2601.9c-4.45,0-7.57-.89-9.35-2.67-1.78-1.78-2.68-4.75-2.68-8.91,0-3.12.37-5.53,1.11-7.24.74-1.7,2.01-2.97,3.79-3.78s4.15-1.22,7.13-1.22c4.45,0,7.53.89,9.24,2.67,1.7,1.78,2.56,4.9,2.56,9.35,0,2.97-.37,5.31-1.11,7.01-.74,1.7-1.97,2.93-3.67,3.67-1.71.74-4.05,1.11-7.01,1.11Z"/>
  </g>
</svg>