<svg width="297" height="188" viewBox="0 0 297 188" fill="none" xmlns="http://www.w3.org/2000/svg">
<path d="M5.26774 183.632C4.5973 183.632 3.97475 183.537 3.49586 183.393C2.96909 183.249 2.53809 183.01 2.20287 182.77C1.86765 182.531 1.58032 182.292 1.34088 182.052C1.14933 181.813 1.00566 181.669 0.909883 181.525C0.67044 181.238 0.574663 180.999 0.526774 180.759C0.478886 180.52 0.526774 180.328 0.622551 180.089C0.718328 179.849 0.909883 179.61 1.19721 179.37C1.48455 179.131 1.72399 179.035 1.96343 178.987C2.20287 178.987 2.44232 179.035 2.68176 179.179C2.9212 179.322 3.16065 179.514 3.3522 179.753C3.63953 180.137 3.97475 180.376 4.26208 180.52C4.54941 180.663 4.88463 180.759 5.21985 180.759C5.65085 180.759 5.98607 180.711 6.32129 180.615C6.60862 180.52 6.84806 180.328 6.99173 180.137C7.1354 179.897 7.23117 179.61 7.23117 179.275C7.23117 178.987 7.1354 178.748 6.89595 178.604C6.7044 178.413 6.41707 178.269 6.03396 178.173C5.69874 178.029 5.26774 177.934 4.83674 177.79C4.40575 177.646 3.97475 177.503 3.54375 177.359C3.25642 177.263 2.96909 177.12 2.68176 176.976C2.39443 176.832 2.15499 176.641 1.91554 176.449C1.6761 176.258 1.48455 176.018 1.29299 175.731C1.10144 175.443 1.00566 175.156 0.909883 174.821C0.814106 174.486 0.766217 174.055 0.766217 173.624C0.766217 172.857 0.957771 172.187 1.34088 171.612C1.72399 171.038 2.25076 170.559 2.87331 170.224C3.54375 169.888 4.30997 169.697 5.17196 169.697C5.74663 169.697 6.2734 169.745 6.7044 169.841C7.1354 169.936 7.5185 170.08 7.80584 170.224C8.09317 170.367 8.33261 170.511 8.52416 170.655C8.71572 170.798 8.81149 170.894 8.85938 170.99C9.24249 171.325 9.43405 171.612 9.43405 171.852C9.48194 172.091 9.33827 172.426 9.05094 172.857C8.71572 173.288 8.42839 173.576 8.09317 173.624C7.75795 173.672 7.42273 173.576 7.03962 173.288C6.89595 173.145 6.75229 173.001 6.56073 172.905C6.41707 172.81 6.22551 172.714 6.03396 172.618C5.8424 172.57 5.55507 172.522 5.17196 172.522C4.98041 172.522 4.78886 172.57 4.5973 172.618C4.40575 172.666 4.26208 172.762 4.11842 172.857C3.97475 172.953 3.87897 173.097 3.83108 173.241C3.7832 173.384 3.73531 173.576 3.73531 173.719C3.73531 174.007 3.83108 174.246 4.02264 174.438C4.21419 174.629 4.50152 174.773 4.83674 174.869C5.17196 174.965 5.55507 175.06 5.93818 175.156C6.32129 175.252 6.75229 175.348 7.18328 175.491C7.56639 175.635 7.9495 175.779 8.28472 175.97C8.61994 176.162 8.95516 176.401 9.24249 176.689C9.52982 176.976 9.76927 177.311 9.91293 177.742C10.1045 178.173 10.1524 178.7 10.1524 179.322C10.1524 180.089 10.0087 180.759 9.72138 181.334C9.43405 181.908 9.05094 182.339 8.52416 182.675C7.99739 183.01 7.5185 183.297 6.94384 183.441C6.36918 183.537 5.79452 183.632 5.26774 183.632Z" fill="#FFC107"/>
<path d="M15.5638 183.441C15.0849 183.441 14.7497 183.393 14.5581 183.249C14.3666 183.106 14.2229 182.914 14.175 182.723C14.1271 182.483 14.1271 182.244 14.1271 182.004V175.204C14.1271 174.965 14.175 174.725 14.2229 174.534C14.2708 174.342 14.4145 174.15 14.606 174.007C14.7976 173.863 15.1328 173.815 15.6117 173.815C16.0427 173.815 16.33 173.863 16.5216 173.959C16.7131 174.055 16.8568 174.198 16.9047 174.342C16.9525 174.486 17.0004 174.629 17.0004 174.773C17.0004 174.917 17.0004 175.012 17.0483 175.06L16.9525 175.443C17.0004 175.252 17.0962 175.06 17.2399 174.869C17.4314 174.677 17.623 174.486 17.9103 174.342C18.1498 174.198 18.4371 174.055 18.7723 173.959C19.0596 173.863 19.3949 173.815 19.6822 173.815C20.3047 173.815 20.8315 173.911 21.3104 174.15C21.7893 174.39 22.2203 174.677 22.5555 175.108C22.8907 175.539 23.1302 176.018 23.3217 176.593C23.5133 177.167 23.5612 177.79 23.5612 178.46V181.956C23.5612 182.196 23.5612 182.435 23.5133 182.675C23.4654 182.914 23.3696 183.058 23.1302 183.201C22.9386 183.345 22.6034 183.393 22.1245 183.393C21.6456 183.393 21.3104 183.345 21.071 183.201C20.8794 183.058 20.7357 182.866 20.6879 182.675C20.64 182.435 20.5921 182.196 20.5921 181.956V178.46C20.5921 178.077 20.5442 177.742 20.4005 177.455C20.2569 177.167 20.0653 176.976 19.8259 176.832C19.5864 176.689 19.2512 176.593 18.8681 176.593C18.485 176.593 18.1498 176.689 17.9103 176.832C17.623 176.976 17.4314 177.215 17.2878 177.455C17.1441 177.742 17.0483 178.029 17.0483 178.413V181.908C17.0483 182.148 17.0483 182.387 17.0004 182.627C16.9525 182.866 16.8568 183.01 16.6173 183.154C16.3779 183.345 16.0427 183.441 15.5638 183.441Z" fill="#FFC107"/>
<path d="M29.2599 172.379C28.781 172.379 28.4458 172.331 28.2064 172.187C27.9669 172.043 27.8711 171.852 27.8233 171.612C27.7754 171.373 27.7754 171.134 27.7754 170.894C27.7754 170.607 27.8233 170.367 27.8711 170.128C27.919 169.888 28.0627 169.745 28.2542 169.601C28.4458 169.457 28.8289 169.41 29.3078 169.41C29.7867 169.41 30.1219 169.457 30.3135 169.601C30.505 169.745 30.6487 169.936 30.6966 170.176C30.7445 170.415 30.7445 170.655 30.7445 170.894C30.7445 171.134 30.7445 171.373 30.6966 171.612C30.6487 171.852 30.505 172.043 30.3135 172.139C30.1219 172.331 29.7388 172.379 29.2599 172.379ZM29.2599 183.441C28.781 183.441 28.4458 183.393 28.2542 183.249C28.0627 183.106 27.919 182.914 27.8711 182.723C27.8233 182.483 27.8233 182.244 27.8233 182.004V175.252C27.8233 175.012 27.8233 174.773 27.8711 174.534C27.919 174.294 28.0627 174.15 28.2542 174.007C28.4458 173.863 28.781 173.815 29.2599 173.815C29.7388 173.815 30.074 173.863 30.2656 174.007C30.4571 174.15 30.6008 174.342 30.6487 174.534C30.6966 174.773 30.6966 175.012 30.6966 175.252V181.956C30.6966 182.196 30.6966 182.435 30.6487 182.675C30.6008 182.914 30.505 183.058 30.2656 183.201C30.074 183.393 29.7388 183.441 29.2599 183.441Z" fill="#FFC107"/>
<path d="M35.5812 173.959H37.6883L40.3701 173.863C40.6095 173.863 40.8489 173.863 41.0884 173.911C41.3278 173.959 41.4715 174.103 41.6152 174.294C41.7588 174.486 41.8067 174.821 41.8067 175.3C41.8067 175.731 41.7588 176.066 41.6152 176.258C41.4715 176.449 41.2799 176.593 41.0884 176.641C40.8489 176.689 40.6095 176.736 40.3701 176.736L37.832 176.689H35.4854C35.1023 176.689 34.8629 176.545 34.7192 176.353C34.5755 176.162 34.4798 175.779 34.4798 175.3C34.4798 174.821 34.5755 174.486 34.7671 174.246C34.9108 174.055 35.1981 173.959 35.5812 173.959ZM37.5925 183.441C37.1615 183.441 36.8263 183.393 36.5869 183.249C36.3953 183.106 36.2516 182.914 36.2038 182.723C36.1559 182.483 36.1559 182.244 36.1559 182.004V172.953C36.1559 172.522 36.2038 172.091 36.3474 171.66C36.4911 171.229 36.7305 170.846 37.0179 170.511C37.3052 170.176 37.7362 169.888 38.2151 169.697C38.694 169.505 39.2686 169.41 39.9391 169.41C40.1785 169.41 40.4179 169.41 40.6574 169.457C40.8968 169.505 41.0405 169.601 41.1842 169.841C41.3278 170.032 41.3757 170.367 41.3757 170.846C41.3757 171.325 41.3278 171.66 41.1842 171.852C41.0405 172.043 40.8489 172.187 40.6574 172.235C40.4179 172.283 40.1785 172.283 39.9391 172.283C39.7954 172.283 39.6517 172.283 39.5081 172.331C39.3644 172.379 39.3165 172.379 39.2686 172.427C39.2207 172.474 39.1728 172.522 39.125 172.618C39.0771 172.714 39.0771 172.81 39.0771 172.953V182.1C39.0771 182.339 39.0292 182.579 38.9813 182.818C38.9334 183.058 38.7897 183.201 38.5982 183.345C38.4066 183.393 38.0714 183.441 37.5925 183.441Z" fill="#FFC107"/>
<path d="M46.0209 173.959H48.128L50.8098 173.863C51.0492 173.863 51.2886 173.863 51.5281 173.911C51.7675 173.959 51.9112 174.103 52.0549 174.294C52.1985 174.486 52.2464 174.821 52.2464 175.3C52.2464 175.731 52.1985 176.066 52.0549 176.258C51.9112 176.449 51.7196 176.593 51.5281 176.641C51.3365 176.689 51.0492 176.736 50.8098 176.736L48.2717 176.689H45.9251C45.542 176.689 45.3026 176.545 45.1589 176.353C45.0152 176.162 44.9195 175.779 44.9195 175.3C44.9195 174.821 45.0152 174.486 45.2068 174.246C45.3505 174.055 45.6378 173.959 46.0209 173.959ZM48.0322 183.441C47.6012 183.441 47.266 183.393 47.0266 183.249C46.835 183.106 46.6913 182.914 46.6435 182.723C46.5956 182.483 46.5956 182.244 46.5956 182.004V172.953C46.5956 172.522 46.6435 172.091 46.7871 171.66C46.9308 171.229 47.1702 170.846 47.4576 170.511C47.7449 170.176 48.1759 169.888 48.6548 169.697C49.1337 169.505 49.7083 169.41 50.3788 169.41C50.6182 169.41 50.8576 169.41 51.0971 169.457C51.3365 169.505 51.4802 169.601 51.6239 169.841C51.7675 170.032 51.8154 170.367 51.8154 170.846C51.8154 171.325 51.7675 171.66 51.6239 171.852C51.4802 172.043 51.2886 172.187 51.0971 172.235C50.8576 172.283 50.6182 172.283 50.3788 172.283C50.2351 172.283 50.0914 172.283 49.9478 172.331C49.852 172.331 49.7562 172.379 49.7083 172.427C49.6604 172.474 49.6125 172.522 49.5647 172.618C49.5168 172.714 49.5168 172.81 49.5168 172.953V182.1C49.5168 182.339 49.4689 182.579 49.421 182.818C49.3731 183.058 49.2294 183.201 49.0379 183.345C48.8463 183.489 48.5111 183.441 48.0322 183.441Z" fill="#FFC107"/>
<path d="M55.7902 183.441C55.2155 183.441 54.7845 183.345 54.5451 183.106C54.3056 182.866 54.2098 182.483 54.2098 181.908C54.2098 181.525 54.2577 181.19 54.3535 180.951C54.4493 180.711 54.6408 180.568 54.8324 180.472C55.0718 180.376 55.3592 180.328 55.7423 180.328C56.3169 180.328 56.7479 180.424 56.9874 180.663C57.2268 180.903 57.3226 181.286 57.3226 181.908C57.3226 182.292 57.2747 182.627 57.1789 182.818C57.0832 183.058 56.9395 183.201 56.7001 183.297C56.4606 183.393 56.1733 183.441 55.7902 183.441Z" fill="#FFC107"/>
<path d="M73.2216 183.632C72.5512 183.632 71.9286 183.537 71.4497 183.393C70.923 183.249 70.492 183.01 70.1567 182.77C69.8215 182.531 69.5342 182.292 69.2947 182.052C69.1032 181.813 68.9595 181.669 68.8637 181.525C68.6243 181.238 68.5285 180.999 68.4806 180.759C68.4327 180.52 68.4806 180.328 68.5764 180.089C68.6722 179.849 68.8637 179.61 69.1511 179.37C69.4384 179.131 69.6778 179.035 69.9173 178.987C70.1567 178.987 70.3962 179.035 70.6356 179.179C70.8751 179.322 71.1145 179.514 71.3061 179.753C71.5934 180.137 71.9286 180.376 72.2159 180.52C72.5033 180.663 72.8385 180.759 73.1737 180.759C73.6047 180.759 73.9399 180.711 74.2752 180.615C74.5625 180.52 74.8019 180.328 74.9456 180.137C75.0893 179.897 75.185 179.61 75.185 179.275C75.185 178.987 75.0893 178.748 74.8498 178.604C74.6583 178.413 74.3709 178.269 73.9878 178.173C73.6526 178.029 73.2216 177.934 72.7906 177.79C72.3596 177.646 71.9286 177.503 71.4976 177.359C71.2103 177.263 70.923 177.12 70.6356 176.976C70.3483 176.832 70.1088 176.641 69.8694 176.449C69.63 176.258 69.4384 176.018 69.2468 175.731C69.0553 175.443 68.9595 175.156 68.8637 174.821C68.768 174.486 68.7201 174.055 68.7201 173.624C68.7201 172.857 68.9116 172.187 69.2947 171.612C69.6778 171.038 70.2046 170.559 70.8272 170.224C71.4976 169.888 72.2638 169.697 73.1258 169.697C73.7005 169.697 74.2273 169.745 74.6583 169.841C75.0893 169.936 75.4724 170.08 75.7597 170.224C76.047 170.367 76.2865 170.511 76.478 170.655C76.6696 170.798 76.7654 170.894 76.8132 170.99C77.1964 171.325 77.3879 171.612 77.3879 171.852C77.4358 172.091 77.2921 172.426 77.0048 172.857C76.6696 173.288 76.3822 173.576 76.047 173.624C75.7118 173.672 75.3766 173.576 74.9935 173.288C74.8498 173.145 74.7061 173.001 74.5146 172.905C74.3709 172.81 74.1794 172.714 73.9878 172.618C73.7963 172.57 73.5089 172.522 73.1258 172.522C72.9343 172.522 72.7427 172.57 72.5512 172.618C72.3596 172.666 72.2159 172.762 72.0723 172.857C71.9286 172.953 71.8328 173.097 71.785 173.241C71.7371 173.384 71.6892 173.576 71.6892 173.719C71.6892 174.007 71.7849 174.246 71.9765 174.438C72.1681 174.629 72.4554 174.773 72.7906 174.869C73.1258 174.965 73.5089 175.06 73.892 175.156C74.2751 175.252 74.7061 175.348 75.1371 175.491C75.5203 175.635 75.9034 175.779 76.2386 175.97C76.5738 176.162 76.909 176.401 77.1964 176.689C77.4837 176.976 77.7231 177.311 77.8668 177.742C78.0583 178.173 78.1062 178.7 78.1062 179.322C78.1062 180.089 77.9626 180.759 77.6752 181.334C77.3879 181.908 77.0048 182.339 76.478 182.675C75.9513 183.01 75.4724 183.297 74.8977 183.441C74.323 183.537 73.7963 183.632 73.2216 183.632Z" fill="#FFC107"/>
<path d="M85.2416 183.441C84.9064 183.441 84.6191 183.393 84.4275 183.249C84.236 183.106 84.0923 182.962 84.0444 182.77C83.9486 182.579 83.9008 182.435 83.8529 182.292L81.1232 175.539C81.0274 175.252 80.9796 174.965 80.9796 174.773C80.9796 174.581 81.0753 174.39 81.219 174.246C81.3627 174.103 81.6021 173.959 81.9373 173.863C82.4162 173.672 82.8472 173.576 83.1345 173.672C83.4219 173.767 83.6613 174.007 83.8529 174.486L85.2895 178.365L86.5825 174.773C86.6304 174.629 86.7262 174.486 86.7741 174.342C86.8699 174.198 87.0135 174.055 87.2051 173.911C87.3966 173.767 87.6361 173.719 87.9713 173.719C88.3065 173.719 88.5938 173.767 88.7854 173.911C88.9769 174.055 89.1206 174.198 89.2164 174.342C89.3122 174.486 89.3601 174.629 89.4079 174.773L90.7009 178.365L92.0418 174.725C92.2334 174.246 92.4728 173.911 92.7601 173.767C93.0475 173.624 93.4306 173.624 93.9574 173.815C94.3884 174.007 94.7236 174.246 94.8672 174.534C95.0109 174.821 95.0109 175.156 94.8193 175.635L92.0897 182.339C92.0418 182.483 91.946 182.627 91.8981 182.818C91.8024 183.01 91.6587 183.154 91.515 183.249C91.3235 183.393 91.084 183.441 90.7488 183.441C90.4136 183.441 90.1742 183.393 89.9826 183.297C89.7911 183.201 89.6474 183.058 89.5516 182.866C89.4558 182.675 89.3601 182.483 89.3122 182.339L88.0192 178.796L86.7262 182.339C86.6304 182.579 86.5346 182.77 86.4867 182.962C86.391 183.154 86.2952 183.249 86.1036 183.345C85.8163 183.441 85.5769 183.441 85.2416 183.441Z" fill="#FFC107"/>
<path d="M100.183 172.379C99.704 172.379 99.3688 172.331 99.1293 172.187C98.9378 172.043 98.7941 171.852 98.7462 171.612C98.6983 171.373 98.6983 171.134 98.6983 170.894C98.6983 170.607 98.7462 170.367 98.7941 170.128C98.842 169.888 98.9857 169.745 99.1772 169.601C99.3688 169.457 99.7519 169.41 100.231 169.41C100.71 169.41 101.045 169.457 101.236 169.601C101.428 169.745 101.572 169.936 101.62 170.176C101.667 170.415 101.667 170.655 101.667 170.894C101.667 171.134 101.667 171.373 101.62 171.612C101.572 171.852 101.428 172.043 101.236 172.139C100.997 172.331 100.662 172.379 100.183 172.379ZM100.183 183.441C99.704 183.441 99.3688 183.393 99.1772 183.249C98.9857 183.106 98.842 182.914 98.7941 182.723C98.7462 182.483 98.7462 182.244 98.7462 182.004V175.252C98.7462 175.012 98.7462 174.773 98.7941 174.534C98.842 174.294 98.9857 174.15 99.1772 174.007C99.3688 173.863 99.704 173.815 100.183 173.815C100.662 173.815 100.997 173.863 101.189 174.007C101.38 174.15 101.524 174.342 101.572 174.534C101.62 174.773 101.62 175.012 101.62 175.252V181.956C101.62 182.196 101.62 182.435 101.572 182.675C101.524 182.914 101.428 183.058 101.189 183.201C100.997 183.393 100.662 183.441 100.183 183.441Z" fill="#FFC107"/>
<path d="M107.366 187.416C106.887 187.416 106.552 187.368 106.36 187.224C106.169 187.08 106.025 186.937 105.977 186.697C105.929 186.506 105.929 186.266 105.929 186.027V175.252C105.929 175.012 105.929 174.773 105.977 174.534C106.025 174.342 106.121 174.15 106.313 174.007C106.504 173.863 106.839 173.815 107.318 173.815C107.701 173.815 108.037 173.863 108.276 174.007C108.515 174.15 108.707 174.294 108.803 174.534V186.027C108.803 186.266 108.803 186.506 108.755 186.745C108.707 186.985 108.563 187.128 108.372 187.272C108.18 187.416 107.845 187.416 107.366 187.416ZM111.101 183.249C110.479 183.249 109.904 183.106 109.425 182.866C108.946 182.627 108.563 182.292 108.228 181.861C107.893 181.43 107.653 180.951 107.51 180.376C107.366 179.801 107.27 179.179 107.27 178.556C107.27 177.934 107.366 177.311 107.51 176.736C107.653 176.162 107.941 175.635 108.228 175.204C108.563 174.773 108.946 174.39 109.425 174.15C109.904 173.911 110.431 173.767 111.054 173.767C111.628 173.767 112.155 173.911 112.682 174.15C113.209 174.39 113.687 174.773 114.118 175.204C114.549 175.635 114.837 176.162 115.076 176.736C115.316 177.311 115.411 177.934 115.411 178.556C115.411 179.179 115.316 179.801 115.076 180.376C114.837 180.951 114.502 181.43 114.118 181.861C113.687 182.292 113.256 182.627 112.73 182.866C112.251 183.154 111.676 183.249 111.101 183.249ZM110.718 180.568C111.101 180.568 111.389 180.472 111.676 180.328C111.963 180.137 112.203 179.897 112.347 179.61C112.538 179.322 112.586 178.987 112.586 178.604C112.586 178.221 112.49 177.886 112.347 177.598C112.203 177.311 111.963 177.072 111.676 176.928C111.389 176.784 111.054 176.689 110.718 176.689C110.383 176.689 110.048 176.784 109.761 176.928C109.473 177.12 109.234 177.311 109.09 177.646C108.946 177.934 108.851 178.269 108.851 178.604C108.851 178.939 108.946 179.275 109.09 179.61C109.234 179.897 109.473 180.137 109.761 180.328C110.048 180.472 110.383 180.568 110.718 180.568Z" fill="#FFC107"/>
<path d="M124.223 183.632C123.313 183.632 122.547 183.489 121.876 183.201C121.206 182.914 120.679 182.531 120.296 182.052C119.865 181.573 119.578 181.046 119.386 180.424C119.195 179.849 119.099 179.227 119.099 178.652C119.099 177.694 119.338 176.832 119.769 176.066C120.2 175.3 120.823 174.725 121.589 174.294C122.355 173.863 123.265 173.624 124.271 173.624C125.037 173.624 125.66 173.719 126.234 173.959C126.761 174.198 127.24 174.486 127.575 174.869C127.91 175.252 128.198 175.635 128.389 176.114C128.581 176.545 128.629 176.976 128.629 177.359C128.629 178.077 128.437 178.604 128.102 178.939C127.767 179.275 127.336 179.466 126.809 179.466H122.164C122.212 179.801 122.307 180.089 122.499 180.328C122.69 180.568 122.978 180.759 123.313 180.855C123.648 180.999 123.983 181.046 124.319 181.046C124.606 181.046 124.893 181.046 125.133 180.999C125.372 180.951 125.564 180.903 125.707 180.855C125.851 180.807 126.043 180.759 126.186 180.663C126.33 180.568 126.474 180.568 126.569 180.52C126.665 180.472 126.761 180.472 126.905 180.424C127.096 180.424 127.288 180.472 127.431 180.568C127.575 180.711 127.719 180.855 127.862 181.094C127.958 181.238 128.006 181.382 128.054 181.477C128.102 181.621 128.102 181.717 128.102 181.861C128.102 182.148 127.958 182.435 127.623 182.675C127.288 182.914 126.857 183.106 126.282 183.249C125.755 183.537 125.037 183.632 124.223 183.632ZM122.164 177.886H125.229C125.42 177.886 125.564 177.838 125.66 177.79C125.755 177.742 125.803 177.598 125.803 177.359C125.803 177.12 125.755 176.928 125.612 176.736C125.468 176.545 125.276 176.449 125.037 176.353C124.798 176.258 124.51 176.21 124.223 176.21C123.84 176.21 123.457 176.305 123.169 176.449C122.882 176.593 122.643 176.832 122.451 177.072C122.259 177.311 122.164 177.598 122.164 177.886Z" fill="#FFC107"/>
<path d="M133.849 183.441C133.274 183.441 132.843 183.345 132.603 183.106C132.364 182.866 132.268 182.483 132.268 181.908C132.268 181.525 132.316 181.19 132.412 180.951C132.508 180.711 132.699 180.568 132.891 180.472C133.13 180.376 133.418 180.328 133.801 180.328C134.375 180.328 134.806 180.424 135.046 180.663C135.285 180.903 135.381 181.286 135.381 181.908C135.381 182.292 135.333 182.627 135.237 182.818C135.142 183.058 134.998 183.201 134.758 183.297C134.567 183.393 134.232 183.441 133.849 183.441Z" fill="#FFC107"/>
<path d="M148.359 183.441C147.88 183.441 147.545 183.393 147.353 183.249C147.162 183.106 147.018 182.914 146.97 182.723C146.922 182.483 146.874 182.244 146.874 182.004V171.469C146.874 171.229 146.922 170.99 146.97 170.798C147.018 170.607 147.162 170.415 147.353 170.272C147.545 170.128 147.88 170.08 148.359 170.08C148.694 170.08 148.933 170.08 149.077 170.128C149.221 170.176 149.364 170.224 149.46 170.272C149.556 170.319 149.604 170.415 149.7 170.511L154.057 176.401H153.77L158.128 170.511C158.224 170.367 158.32 170.272 158.415 170.224C158.511 170.176 158.655 170.128 158.798 170.08C158.942 170.032 159.182 170.032 159.469 170.032C159.948 170.032 160.283 170.08 160.475 170.224C160.666 170.367 160.81 170.559 160.858 170.75C160.906 170.942 160.953 171.229 160.953 171.469V182.004C160.953 182.244 160.906 182.483 160.858 182.723C160.81 182.962 160.666 183.106 160.475 183.249C160.283 183.393 159.948 183.441 159.469 183.441C158.99 183.441 158.655 183.393 158.463 183.249C158.272 183.106 158.128 182.914 158.08 182.675C158.032 182.435 157.984 182.196 157.984 181.956V175.06L155.111 179.131C155.063 179.179 154.967 179.275 154.919 179.37C154.824 179.466 154.68 179.562 154.536 179.658C154.393 179.753 154.153 179.753 153.866 179.753C153.579 179.753 153.339 179.706 153.195 179.658C153.052 179.61 152.908 179.514 152.812 179.37C152.717 179.275 152.669 179.179 152.573 179.083L149.7 175.012V181.908C149.7 182.148 149.652 182.387 149.604 182.627C149.556 182.866 149.412 183.01 149.221 183.154C149.173 183.393 148.838 183.441 148.359 183.441Z" fill="#FFC107"/>
<path d="M173.117 183.441C172.638 183.441 172.303 183.345 172.064 183.201C171.824 183.058 171.728 182.818 171.728 182.579L171.92 182.244C171.824 182.387 171.68 182.531 171.489 182.723C171.249 182.914 171.01 183.058 170.627 183.201C170.244 183.345 169.861 183.441 169.334 183.441C168.759 183.441 168.185 183.297 167.658 183.058C167.131 182.818 166.652 182.435 166.221 182.004C165.79 181.525 165.503 181.046 165.263 180.472C165.024 179.897 164.928 179.275 164.928 178.652C164.928 178.029 165.024 177.407 165.263 176.832C165.503 176.258 165.838 175.731 166.269 175.3C166.7 174.869 167.179 174.486 167.706 174.246C168.233 174.007 168.807 173.863 169.382 173.863C169.861 173.863 170.244 173.911 170.579 174.055C170.914 174.198 171.202 174.342 171.441 174.534C171.68 174.725 171.824 174.869 171.968 175.06L171.824 174.773C171.824 174.486 171.92 174.246 172.159 174.055C172.399 173.911 172.734 173.815 173.213 173.815C173.692 173.815 174.027 173.863 174.219 174.007C174.41 174.15 174.554 174.342 174.602 174.581C174.65 174.821 174.65 175.06 174.65 175.3V181.956C174.65 182.196 174.65 182.435 174.602 182.675C174.554 182.914 174.458 183.106 174.219 183.201C173.931 183.345 173.596 183.441 173.117 183.441ZM169.765 180.568C170.1 180.568 170.387 180.472 170.675 180.328C170.962 180.137 171.154 179.897 171.345 179.61C171.537 179.322 171.585 178.987 171.585 178.604C171.585 178.221 171.489 177.886 171.345 177.598C171.202 177.311 170.962 177.072 170.675 176.88C170.387 176.689 170.1 176.641 169.765 176.641C169.382 176.641 169.047 176.736 168.759 176.928C168.472 177.12 168.232 177.359 168.041 177.646C167.849 177.934 167.802 178.269 167.802 178.652C167.802 178.987 167.897 179.322 168.041 179.61C168.232 179.897 168.472 180.137 168.759 180.328C169.047 180.472 169.382 180.568 169.765 180.568Z" fill="#FFC107"/>
<path d="M179.438 173.959H181.546L184.227 173.863C184.467 173.863 184.706 173.863 184.946 173.911C185.185 173.959 185.329 174.103 185.472 174.294C185.616 174.486 185.664 174.821 185.664 175.3C185.664 175.731 185.616 176.066 185.472 176.258C185.329 176.449 185.137 176.593 184.946 176.641C184.754 176.689 184.467 176.736 184.227 176.736L181.689 176.689H179.343C178.96 176.689 178.72 176.545 178.576 176.353C178.433 176.162 178.337 175.779 178.337 175.3C178.337 174.821 178.433 174.486 178.624 174.246C178.816 174.055 179.055 173.959 179.438 173.959ZM183.796 183.441C183.126 183.441 182.599 183.393 182.12 183.249C181.641 183.106 181.258 182.866 180.971 182.579C180.684 182.292 180.444 181.908 180.3 181.43C180.157 180.951 180.061 180.424 180.061 179.801V171.948C180.061 171.708 180.061 171.469 180.109 171.229C180.157 170.99 180.3 170.846 180.492 170.703C180.684 170.559 181.019 170.511 181.498 170.511C181.977 170.511 182.312 170.559 182.503 170.703C182.695 170.846 182.839 171.038 182.886 171.229C182.934 171.469 182.934 171.708 182.934 171.948V179.61C182.934 179.801 182.934 179.993 182.982 180.137C183.03 180.28 183.078 180.376 183.126 180.424C183.174 180.472 183.27 180.52 183.413 180.568C183.509 180.615 183.653 180.615 183.844 180.615C184.132 180.615 184.371 180.663 184.61 180.711C184.85 180.759 184.993 180.855 185.137 181.046C185.281 181.238 185.329 181.525 185.329 181.956C185.329 182.435 185.281 182.77 185.137 182.962C184.993 183.154 184.802 183.297 184.61 183.345C184.275 183.441 184.036 183.441 183.796 183.441Z" fill="#FFC107"/>
<path d="M193.901 183.537C193.326 183.537 192.751 183.441 192.177 183.201C191.602 183.01 191.027 182.675 190.549 182.244C190.07 181.813 189.639 181.334 189.351 180.711C189.064 180.089 188.92 179.418 188.92 178.604C188.92 177.79 189.064 177.12 189.351 176.497C189.639 175.874 190.022 175.396 190.549 174.965C191.027 174.534 191.554 174.246 192.177 174.007C192.799 173.767 193.326 173.672 193.901 173.672C194.38 173.672 194.811 173.719 195.194 173.815C195.577 173.911 195.912 174.055 196.152 174.198C196.439 174.342 196.583 174.486 196.726 174.581C196.966 174.725 197.157 174.917 197.301 175.06C197.445 175.204 197.54 175.443 197.54 175.731C197.54 175.874 197.492 176.018 197.397 176.162C197.301 176.305 197.205 176.449 197.109 176.593C196.726 177.12 196.343 177.359 195.96 177.311C195.768 177.263 195.577 177.215 195.433 177.12C195.29 177.024 195.098 176.928 194.954 176.832C194.811 176.736 194.667 176.641 194.475 176.593C194.332 176.545 194.092 176.497 193.901 176.497C193.518 176.497 193.182 176.593 192.895 176.736C192.608 176.88 192.368 177.12 192.177 177.455C191.985 177.742 191.937 178.077 191.937 178.46C191.937 178.844 192.033 179.179 192.177 179.466C192.368 179.753 192.56 179.993 192.895 180.184C193.182 180.376 193.518 180.424 193.853 180.424C194.092 180.424 194.284 180.376 194.428 180.328C194.571 180.28 194.715 180.232 194.859 180.137C194.954 180.089 195.05 179.993 195.146 179.993C195.29 179.897 195.433 179.801 195.577 179.706C195.721 179.61 195.864 179.562 196.008 179.562C196.199 179.562 196.391 179.61 196.583 179.753C196.774 179.897 196.966 180.089 197.205 180.376C197.397 180.663 197.54 180.903 197.54 181.142C197.54 181.382 197.54 181.573 197.397 181.813C197.253 182.004 197.014 182.196 196.726 182.387C196.63 182.483 196.439 182.579 196.199 182.723C195.96 182.866 195.625 183.01 195.242 183.106C194.859 183.201 194.38 183.537 193.901 183.537Z" fill="#FFC107"/>
<path d="M202.856 183.441C202.377 183.441 202.042 183.393 201.85 183.249C201.659 183.106 201.515 182.914 201.467 182.723C201.419 182.483 201.419 182.244 201.419 182.004V170.894C201.419 170.655 201.467 170.415 201.515 170.176C201.563 169.936 201.707 169.793 201.898 169.649C202.09 169.505 202.425 169.457 202.904 169.457C203.383 169.457 203.718 169.505 203.91 169.649C204.101 169.793 204.245 169.984 204.293 170.176C204.34 170.415 204.34 170.655 204.34 170.894V174.821C204.58 174.581 204.867 174.342 205.25 174.103C205.633 173.863 206.064 173.767 206.543 173.767C207.357 173.767 208.076 173.959 208.698 174.39C209.321 174.773 209.848 175.348 210.231 176.066C210.614 176.784 210.805 177.598 210.805 178.508V182.004C210.805 182.244 210.758 182.483 210.71 182.723C210.662 182.962 210.518 183.106 210.327 183.249C210.135 183.393 209.8 183.441 209.321 183.441C208.89 183.441 208.555 183.393 208.315 183.249C208.076 183.106 207.98 182.914 207.932 182.723C207.884 182.483 207.884 182.244 207.884 182.004V178.508C207.884 178.125 207.836 177.838 207.693 177.551C207.549 177.263 207.357 177.072 207.118 176.928C206.879 176.784 206.543 176.689 206.208 176.689C205.729 176.689 205.298 176.832 204.963 177.12C204.628 177.407 204.388 177.742 204.34 178.173V182.004C204.34 182.244 204.293 182.483 204.245 182.723C204.197 182.962 204.053 183.106 203.862 183.249C203.67 183.393 203.335 183.441 202.856 183.441Z" fill="#FFC107"/>
<path d="M216.265 183.441C215.69 183.441 215.259 183.345 215.02 183.106C214.78 182.866 214.684 182.483 214.684 181.908C214.684 181.525 214.732 181.19 214.828 180.951C214.924 180.711 215.115 180.568 215.307 180.472C215.546 180.376 215.834 180.328 216.217 180.328C216.792 180.328 217.223 180.424 217.462 180.663C217.701 180.903 217.797 181.286 217.797 181.908C217.797 182.292 217.749 182.627 217.654 182.818C217.558 183.058 217.414 183.201 217.175 183.297C216.935 183.393 216.648 183.441 216.265 183.441Z" fill="#FFC107"/>
<path d="M230.727 183.441C230.248 183.441 229.913 183.393 229.721 183.249C229.53 183.106 229.386 182.914 229.338 182.723C229.29 182.483 229.243 182.244 229.243 182.004V171.469C229.243 171.229 229.29 170.99 229.338 170.798C229.386 170.607 229.53 170.415 229.721 170.272C229.913 170.128 230.248 170.08 230.727 170.08C231.062 170.08 231.302 170.08 231.445 170.128C231.589 170.176 231.733 170.224 231.829 170.272C231.924 170.319 231.972 170.415 232.068 170.511L236.426 176.401H236.138L240.496 170.511C240.592 170.367 240.688 170.272 240.784 170.224C240.879 170.176 241.023 170.128 241.167 170.08C241.31 170.032 241.55 170.032 241.837 170.032C242.316 170.032 242.651 170.08 242.843 170.224C243.034 170.367 243.178 170.559 243.226 170.75C243.274 170.942 243.322 171.229 243.322 171.469V182.004C243.322 182.244 243.274 182.483 243.226 182.723C243.178 182.962 243.034 183.106 242.843 183.249C242.651 183.393 242.316 183.441 241.837 183.441C241.358 183.441 241.023 183.393 240.832 183.249C240.64 183.106 240.496 182.914 240.448 182.675C240.401 182.435 240.353 182.196 240.353 181.956V175.06L237.479 179.131C237.431 179.179 237.336 179.275 237.288 179.37C237.192 179.466 237.048 179.562 236.905 179.658C236.761 179.753 236.522 179.753 236.234 179.753C235.947 179.753 235.707 179.706 235.564 179.658C235.42 179.61 235.276 179.514 235.181 179.37C235.085 179.275 235.037 179.179 234.941 179.083L232.068 175.012V181.908C232.068 182.148 232.02 182.387 231.972 182.627C231.924 182.866 231.781 183.01 231.589 183.154C231.541 183.393 231.206 183.441 230.727 183.441Z" fill="#FFC107"/>
<path d="M252.516 183.632C251.607 183.632 250.84 183.489 250.17 183.201C249.499 182.914 248.973 182.531 248.59 182.052C248.159 181.573 247.871 181.046 247.68 180.424C247.488 179.849 247.392 179.227 247.392 178.652C247.392 177.694 247.632 176.832 248.063 176.066C248.494 175.3 249.116 174.725 249.883 174.294C250.649 173.863 251.559 173.624 252.564 173.624C253.33 173.624 253.953 173.719 254.528 173.959C255.054 174.198 255.533 174.486 255.869 174.869C256.204 175.252 256.491 175.635 256.683 176.114C256.874 176.545 256.922 176.976 256.922 177.359C256.922 178.077 256.731 178.604 256.395 178.939C256.06 179.275 255.629 179.466 255.102 179.466H250.505C250.553 179.801 250.649 180.089 250.84 180.328C251.032 180.568 251.319 180.759 251.654 180.855C251.99 180.951 252.325 181.046 252.66 181.046C252.947 181.046 253.235 181.046 253.474 180.999C253.714 180.951 253.905 180.903 254.049 180.855C254.193 180.807 254.384 180.759 254.528 180.663C254.671 180.615 254.815 180.568 254.911 180.52C255.007 180.472 255.15 180.472 255.246 180.424C255.438 180.424 255.629 180.472 255.773 180.568C255.916 180.711 256.06 180.855 256.204 181.094C256.3 181.238 256.347 181.382 256.395 181.477C256.443 181.621 256.443 181.717 256.443 181.861C256.443 182.148 256.3 182.435 255.964 182.675C255.629 182.914 255.198 183.106 254.623 183.249C254.001 183.537 253.283 183.632 252.516 183.632ZM250.409 177.886H253.474C253.666 177.886 253.809 177.838 253.905 177.79C254.001 177.742 254.049 177.598 254.049 177.359C254.049 177.12 254.001 176.928 253.857 176.736C253.714 176.545 253.522 176.449 253.283 176.353C253.043 176.258 252.756 176.21 252.468 176.21C252.085 176.21 251.702 176.305 251.415 176.449C251.128 176.593 250.888 176.832 250.697 177.072C250.505 177.311 250.409 177.598 250.409 177.886Z" fill="#FFC107"/>
<path d="M265.59 183.632C264.68 183.632 263.914 183.489 263.243 183.201C262.573 182.914 262.046 182.531 261.663 182.052C261.232 181.573 260.945 181.046 260.753 180.424C260.562 179.849 260.466 179.227 260.466 178.652C260.466 177.694 260.705 176.832 261.136 176.066C261.567 175.3 262.19 174.725 262.956 174.294C263.722 173.863 264.632 173.624 265.638 173.624C266.404 173.624 267.027 173.719 267.601 173.959C268.128 174.198 268.607 174.486 268.942 174.869C269.277 175.252 269.565 175.635 269.756 176.114C269.948 176.545 269.996 176.976 269.996 177.359C269.996 178.077 269.804 178.604 269.469 178.939C269.134 179.275 268.703 179.466 268.176 179.466H263.579C263.627 179.801 263.722 180.089 263.914 180.328C264.105 180.568 264.393 180.759 264.728 180.855C265.063 180.999 265.398 181.046 265.734 181.046C266.021 181.046 266.308 181.046 266.548 180.999C266.787 180.951 266.979 180.903 267.122 180.855C267.266 180.807 267.458 180.759 267.601 180.663C267.745 180.568 267.889 180.568 267.984 180.52C268.08 180.472 268.176 180.472 268.32 180.424C268.511 180.424 268.703 180.472 268.846 180.568C268.99 180.711 269.134 180.855 269.277 181.094C269.373 181.238 269.421 181.382 269.469 181.477C269.517 181.621 269.517 181.717 269.517 181.861C269.517 182.148 269.373 182.435 269.038 182.675C268.703 182.914 268.272 183.106 267.697 183.249C267.122 183.537 266.404 183.632 265.59 183.632ZM263.531 177.886H266.596C266.787 177.886 266.931 177.838 267.027 177.79C267.122 177.742 267.17 177.598 267.17 177.359C267.17 177.12 267.122 176.928 266.979 176.736C266.835 176.545 266.644 176.449 266.404 176.353C266.165 176.258 265.877 176.21 265.59 176.21C265.207 176.21 264.824 176.305 264.536 176.449C264.249 176.593 264.01 176.832 263.818 177.072C263.627 177.311 263.531 177.598 263.531 177.886Z" fill="#FFC107"/>
<path d="M274.306 173.959H276.413L279.095 173.863C279.334 173.863 279.573 173.863 279.813 173.911C280.052 173.959 280.196 174.103 280.34 174.294C280.483 174.486 280.531 174.821 280.531 175.3C280.531 175.731 280.483 176.066 280.34 176.258C280.196 176.449 280.004 176.593 279.813 176.641C279.621 176.689 279.334 176.736 279.095 176.736L276.556 176.689H274.21C273.827 176.689 273.587 176.545 273.444 176.353C273.3 176.162 273.204 175.779 273.204 175.3C273.204 174.821 273.3 174.486 273.492 174.246C273.683 174.055 273.97 173.959 274.306 173.959ZM278.711 183.441C278.041 183.441 277.514 183.393 277.035 183.249C276.556 183.106 276.173 182.866 275.886 182.579C275.599 182.292 275.359 181.908 275.216 181.43C275.072 180.951 274.976 180.424 274.976 179.801V171.948C274.976 171.708 274.976 171.469 275.024 171.229C275.072 170.99 275.216 170.846 275.407 170.703C275.599 170.559 275.934 170.511 276.413 170.511C276.892 170.511 277.227 170.559 277.418 170.703C277.61 170.846 277.754 171.038 277.802 171.229C277.849 171.469 277.849 171.708 277.849 171.948V179.61C277.849 179.801 277.849 179.993 277.897 180.137C277.945 180.28 277.993 180.376 278.041 180.424C278.089 180.472 278.185 180.52 278.328 180.568C278.424 180.615 278.568 180.615 278.759 180.615C279.047 180.615 279.286 180.663 279.526 180.711C279.765 180.759 279.909 180.855 280.052 181.046C280.196 181.238 280.244 181.525 280.244 181.956C280.244 182.435 280.196 182.77 280.052 182.962C279.909 183.154 279.717 183.297 279.526 183.345C279.19 183.441 278.951 183.441 278.711 183.441Z" fill="#FFC107"/>
<path d="M285.703 183.441C285.129 183.441 284.698 183.345 284.458 183.106C284.219 182.866 284.123 182.483 284.123 181.908C284.123 181.525 284.171 181.19 284.267 180.951C284.362 180.711 284.554 180.568 284.745 180.472C284.985 180.376 285.272 180.328 285.655 180.328C286.23 180.328 286.661 180.424 286.9 180.663C287.14 180.903 287.236 181.286 287.236 181.908C287.236 182.292 287.188 182.627 287.092 182.818C286.996 183.058 286.853 183.201 286.613 183.297C286.422 183.393 286.086 183.441 285.703 183.441Z" fill="#FFC107"/>
<path d="M31.9417 113.476C30.1219 112.039 27.9669 111.033 25.5725 110.459C23.226 109.932 20.7836 109.645 18.1977 109.645C14.5102 109.645 11.4454 110.123 9.09883 111.129C6.7044 112.135 4.83674 113.476 3.44798 115.104C2.1071 116.732 1.19721 118.6 0.67044 120.611C0.239443 122.527 0 124.49 0 126.358C0 130.189 0 133.78 0 137.181C0.0478886 140.581 0.0478886 143.693 0.0478886 146.519C0.0957771 149.153 0.0957771 151.643 0.143666 153.846C0.191554 155.857 0.287331 157.485 0.383108 158.587C0.526774 160.933 0.861994 162.322 1.43666 163.136C2.05921 164.046 3.25642 164.525 4.98041 164.525C5.4593 164.525 5.93818 164.477 6.41707 164.381C7.08751 164.238 7.66217 163.95 8.18894 163.423C8.61994 162.945 8.95516 162.322 9.24249 161.556C9.52982 160.79 9.67349 159.784 9.67349 158.443L9.72138 146.327C10.296 146.375 10.8228 146.375 11.3496 146.375H13.8398C17.2399 146.375 20.4484 146.088 23.3217 145.561C26.2908 144.986 28.8768 144.029 31.0318 142.64C33.2347 141.203 35.0065 139.24 36.2038 136.845C37.401 134.451 38.0235 131.434 38.0235 127.842C38.0235 124.442 37.4489 121.521 36.3474 119.174C35.2939 116.828 33.8093 114.912 31.9417 113.476ZM28.3979 127.699C28.3979 129.901 28.0148 131.625 27.2965 132.871C26.5781 134.068 25.6683 134.978 24.5668 135.6C23.4175 136.223 22.1245 136.654 20.7357 136.797C19.2033 136.989 17.7188 137.085 16.33 137.085H12.4031C11.4454 137.085 10.5834 137.085 9.81715 137.037C9.76927 135.552 9.76927 133.972 9.76927 132.2V126.549C9.76927 124.969 9.91293 123.676 10.2482 122.67C10.5355 121.76 11.0144 121.042 11.589 120.515C12.1637 119.989 12.9299 119.605 13.8877 119.366C14.9412 119.127 16.2342 118.983 17.7667 118.983C21.6935 118.983 24.4711 119.701 26.0514 121.186C27.6317 122.622 28.3979 124.73 28.3979 127.699Z" fill="#0C16E0"/>
<path d="M73.461 153.127C72.9343 151.499 72.4075 149.871 71.8807 148.339C71.3061 146.758 70.8272 145.226 70.3962 143.837C69.8215 142.209 69.1032 140.198 68.2412 137.899C67.3792 135.648 66.4693 133.254 65.4158 130.524C64.5538 128.273 63.6439 125.927 62.3988 122.862C61.3931 120.324 60.5311 118.073 59.717 116.11C59.5255 115.631 59.2381 115.008 58.9029 114.338C58.5677 113.667 58.1367 112.997 57.7057 112.374C57.2268 111.704 56.6522 111.081 56.0296 110.602C55.2634 110.028 54.4493 109.74 53.5873 109.74C52.6774 109.74 51.8633 110.028 51.145 110.554C50.5224 110.985 49.9957 111.56 49.5168 112.183C49.0858 112.757 48.7027 113.428 48.3196 114.098C48.0322 114.721 47.7928 115.295 47.6012 115.822C46.7871 117.642 45.8772 119.845 44.7758 122.527C43.818 124.969 42.8124 127.507 41.7109 130.332C40.7532 132.727 39.8433 135.217 38.8376 137.899C37.9277 140.293 37.2094 142.352 36.7784 143.885C36.2995 145.322 35.7728 146.806 35.1981 148.482C34.6713 150.11 34.1445 151.739 33.7135 153.271C33.2347 154.804 32.8516 156.288 32.5642 157.677C32.2769 159.066 32.0853 160.263 32.0853 161.173C32.0853 162.37 32.5642 163.376 33.4741 164.046C34.2882 164.621 35.1502 164.908 36.108 164.908C38.4545 164.908 40.2743 163.423 41.4236 160.454C41.9025 159.257 42.4293 157.868 42.956 156.384C43.387 155.091 43.8659 153.75 44.3448 152.361C45.542 152.409 46.835 152.409 48.1759 152.409H53.8746C55.5028 152.409 57.1789 152.409 58.8071 152.409C60.1001 152.409 61.3931 152.361 62.5904 152.313C63.1171 153.75 63.596 155.091 64.0749 156.384C64.6496 157.916 65.1763 159.305 65.6552 160.502C66.2299 161.939 66.9961 163.04 67.906 163.759C68.8637 164.525 69.9173 164.908 71.0666 164.908C71.9765 164.908 72.8385 164.621 73.6526 164.046C74.5625 163.376 75.0893 162.37 75.0893 161.173C75.0893 160.263 74.9456 159.113 74.5625 157.677C74.3709 156.24 73.9878 154.756 73.461 153.127ZM59.286 142.783C58.6635 142.783 58.0409 142.736 57.4663 142.736C56.2212 142.688 55.0718 142.688 53.9225 142.688C52.7253 142.688 51.4323 142.688 50.0435 142.736C49.3252 142.736 48.559 142.783 47.7449 142.783C48.7027 139.862 49.6604 137.037 50.5703 134.307C51.6239 131.003 52.438 128.465 53.0126 126.501C53.1563 125.975 53.3479 125.591 53.5394 125.256C53.6831 125.544 53.8746 125.927 54.0183 126.406C54.3056 127.459 54.6887 128.656 55.0718 129.949C55.5028 131.29 55.9338 132.727 56.4606 134.307C56.9874 135.84 57.5142 137.516 58.0888 139.192C58.4719 140.437 58.9029 141.586 59.286 142.783Z" fill="#0C16E0"/>
<path d="M123.888 110.794C123.121 110.123 122.212 109.788 121.11 109.788C120.775 109.788 120.392 109.836 119.913 109.98C119.434 110.076 118.955 110.315 118.476 110.602C118.045 110.89 117.614 111.321 117.231 111.895C116.848 112.422 116.561 113.14 116.369 113.907C115.172 119.653 114.023 125.735 113.065 132.009C112.347 136.702 111.628 141.395 111.006 146.088C109.952 143.31 108.851 140.485 107.701 137.612C105.882 133.014 104.014 128.752 102.194 124.921C101.763 124.059 101.141 123.341 100.422 122.814C98.7941 121.617 96.8786 121.713 95.2982 122.862C94.532 123.437 93.9574 124.155 93.5742 125.065C91.3235 130.141 89.4558 134.786 87.9234 138.905C86.9656 141.538 85.96 144.124 84.9543 146.615C84.1881 141.874 83.4698 136.989 82.7514 132.056C81.8416 125.783 80.788 119.701 79.6387 113.907C79.2556 112.278 78.633 111.177 77.771 110.602C76.9569 110.028 76.047 109.788 75.1372 109.788C73.8442 109.788 72.7906 110.171 72.0723 110.938C71.3061 111.704 70.923 112.709 70.923 113.859C70.923 114.817 71.0666 116.397 71.3061 118.791C71.5455 120.946 71.9286 123.532 72.3596 126.741C72.7906 129.71 73.3174 132.966 73.8921 136.319C74.4667 139.671 75.0414 142.975 75.616 146.088C76.1907 149.344 76.7175 152.17 77.2442 154.66C77.771 157.198 78.2499 159.209 78.633 160.598C79.5908 164.142 81.8894 164.908 83.6134 164.908C85.098 164.908 86.391 164.19 87.4445 162.849C88.3544 161.699 89.3122 159.88 90.2699 157.533C91.2756 155.139 92.4249 152.17 93.7179 148.674C94.8194 145.753 96.2081 142.305 97.8363 138.378C99.4166 142.305 100.805 145.705 101.859 148.626C103.152 152.122 104.301 155.091 105.259 157.437C106.265 159.88 107.175 161.604 108.037 162.753C109.042 164.094 110.383 164.812 111.916 164.812C113.352 164.812 114.454 164.429 115.268 163.615C115.986 162.897 116.561 161.843 116.896 160.454C117.231 159.113 117.662 157.15 118.237 154.468C118.764 151.882 119.338 148.961 119.913 145.848C120.536 142.4 121.158 139.192 121.685 136.031C122.355 132.44 122.882 129.279 123.313 126.406C123.792 123.389 124.175 120.659 124.462 118.408C124.798 116.062 124.941 114.433 124.941 113.476C125.085 112.47 124.654 111.512 123.888 110.794Z" fill="#0C16E0"/>
<path d="M160.522 142.544C160.475 141.73 160.427 140.916 160.379 140.102C160.235 138.234 159.996 136.414 159.613 134.738C159.277 132.966 158.703 131.338 157.984 129.901C156.787 127.411 155.159 125.591 153.243 124.442C151.328 123.341 149.221 122.766 146.922 122.766C144.576 122.766 142.277 123.293 140.026 124.346C138.446 125.065 136.913 126.022 135.525 127.124C135.285 126.262 134.95 125.591 134.471 125.065C133.657 124.059 132.412 123.58 130.832 123.58C129.682 123.58 128.677 124.011 127.958 124.825C127.288 125.591 126.857 127.028 126.522 129.47C126.33 130.763 126.186 132.296 126.138 133.972C126.043 135.552 126.043 137.612 126.043 140.341C126.043 141.921 126.043 143.645 126.043 145.513C126.091 147.381 126.091 149.201 126.138 151.02C126.186 152.84 126.282 154.516 126.33 156.049C126.378 157.581 126.474 158.826 126.569 159.736C126.665 160.79 126.809 161.604 126.953 162.274C127.144 163.04 127.431 163.615 127.815 163.998C128.246 164.477 128.724 164.764 129.347 164.86C129.778 164.956 130.305 165.004 131.023 165.004C131.741 165.004 132.268 164.956 132.651 164.86C133.322 164.716 133.849 164.381 134.28 163.807C134.567 163.376 134.806 162.753 134.95 162.035C135.094 161.412 135.189 160.598 135.333 159.449C135.477 157.82 135.573 155.809 135.62 153.511C135.668 151.164 135.716 148.817 135.764 146.375C135.812 143.789 135.86 141.586 135.86 139.671V135.648C137.392 134.642 138.733 133.876 139.978 133.397C141.271 132.823 142.756 132.583 144.384 132.583C145.39 132.583 146.3 132.775 147.209 133.206C147.928 133.541 148.598 134.355 149.173 135.744C149.46 136.366 149.652 137.085 149.843 137.947C150.035 138.761 150.179 139.671 150.274 140.629C150.418 141.538 150.514 142.448 150.562 143.406C150.61 144.316 150.705 145.226 150.753 145.992C150.801 147.046 150.849 148.339 150.849 149.823C150.897 151.403 150.897 152.936 150.945 154.468C150.993 156.001 150.993 157.294 150.993 158.443V160.406C151.088 163.28 152.812 164.956 155.638 164.956C156.883 164.956 157.936 164.525 158.703 163.711C159.373 162.945 159.852 161.939 160.091 160.742C160.331 159.592 160.475 158.299 160.522 156.815C160.57 155.282 160.618 153.75 160.618 152.17V148.195C160.618 147.141 160.618 146.136 160.57 145.13C160.618 144.172 160.57 143.31 160.522 142.544Z" fill="#0C16E0"/>
<path d="M202.233 154.899C201.898 154.42 201.563 153.989 201.276 153.511C201.084 153.175 200.94 152.84 200.845 152.505C200.845 149.871 200.893 146.471 200.94 142.64C200.988 138.33 201.036 133.685 201.036 128.896V125.256C201.036 124.203 201.036 126.31 200.988 125.017C200.988 123.724 200.988 122.479 200.988 121.186C200.988 119.989 200.988 118.791 200.94 117.642C200.94 116.588 200.893 115.679 200.845 115.008C200.749 113.236 200.366 111.991 199.791 111.225C199.073 110.315 197.923 109.836 196.295 109.836C194.715 109.836 193.518 110.315 192.847 111.177C192.177 111.991 191.794 113.332 191.698 115.248C191.65 116.014 191.602 117.067 191.602 118.312C191.602 119.605 191.554 121.042 191.554 122.67C191.506 124.107 191.506 122.383 191.506 124.299V126.549C191.027 126.262 190.501 126.022 189.878 125.831C188.394 125.256 186.382 124.969 183.892 124.969C181.019 124.969 178.385 125.4 175.943 126.31C173.5 127.22 171.345 128.561 169.525 130.285C167.754 132.009 166.317 134.211 165.311 136.75C164.354 139.24 163.875 142.161 163.875 145.369C163.875 149.153 164.497 152.361 165.79 154.851C167.035 157.389 168.664 159.449 170.579 160.933C172.447 162.418 174.506 163.471 176.661 164.094C178.768 164.669 180.731 164.956 182.503 164.956C183.94 164.956 185.329 164.812 186.574 164.477C187.819 164.19 188.968 163.759 190.022 163.28C191.075 162.801 191.985 162.226 192.751 161.699C193.039 161.508 193.326 161.316 193.566 161.077C193.853 161.604 194.188 162.13 194.571 162.561C195.433 163.615 196.583 164.142 197.876 164.142C198.45 164.142 199.073 164.046 199.743 163.854C200.414 163.663 201.036 163.376 201.659 162.945C202.281 162.514 202.856 161.987 203.287 161.364C203.766 160.646 204.005 159.832 204.005 158.922C204.005 158.156 203.814 157.389 203.431 156.719C203 156.001 202.664 155.426 202.233 154.899ZM191.937 144.843C191.937 148.674 191.219 151.403 189.83 152.984C188.441 154.516 186.478 155.282 183.748 155.282C181.977 155.282 180.444 154.995 179.151 154.373C177.858 153.75 176.805 152.936 175.99 151.93C175.128 150.925 174.506 149.727 174.075 148.434C173.644 147.093 173.452 145.657 173.452 144.172C173.452 142.4 173.74 140.868 174.314 139.623C174.889 138.378 175.655 137.324 176.565 136.51C177.475 135.696 178.576 135.073 179.774 134.69C181.019 134.307 182.312 134.068 183.653 134.068C187.244 134.116 191.937 135.217 191.937 144.843Z" fill="#0C16E0"/>
<path d="M231.35 149.679C233.361 149.248 235.133 148.578 236.569 147.62C238.102 146.662 239.299 145.369 240.065 143.741C240.879 142.161 241.31 140.245 241.31 138.043C241.31 135.6 240.784 133.397 239.826 131.53C238.868 129.662 237.527 128.13 235.899 126.932C234.319 125.735 232.451 124.825 230.392 124.251C228.381 123.676 226.273 123.389 224.118 123.389C221.341 123.389 218.755 123.868 216.361 124.729C213.966 125.639 211.859 126.98 210.039 128.752C208.267 130.524 206.879 132.727 205.873 135.265C204.867 137.803 204.388 140.772 204.388 144.029C204.388 147.429 204.915 150.398 205.921 152.936C206.974 155.522 208.459 157.725 210.327 159.449C212.194 161.173 214.445 162.514 216.983 163.376C219.521 164.19 222.299 164.621 225.268 164.621C226.513 164.621 227.997 164.525 229.626 164.333C231.302 164.142 232.93 163.807 234.414 163.328C235.995 162.801 237.336 162.083 238.437 161.221C239.73 160.167 240.401 158.778 240.401 157.15C240.401 155.33 239.586 154.42 238.916 153.989C238.102 153.415 237.192 153.127 236.33 153.127C235.707 153.127 234.989 153.223 234.319 153.415C233.696 153.606 232.93 153.798 232.116 154.037C231.302 154.229 230.392 154.42 229.338 154.612C228.333 154.756 227.135 154.851 225.842 154.851C222.299 154.851 219.617 154.133 217.797 152.744C216.504 151.739 215.594 150.398 215.02 148.674C216.552 149.201 217.989 149.536 219.33 149.775C223.879 150.541 227.997 150.398 231.35 149.679ZM214.637 140.245C214.876 139.048 215.211 137.995 215.69 137.181C216.313 136.127 217.031 135.313 217.893 134.69C218.803 134.068 219.761 133.589 220.814 133.302C221.963 133.014 223.113 132.871 224.358 132.871C227.04 132.871 228.955 133.397 230.009 134.499C231.062 135.6 231.589 136.797 231.589 138.234C231.589 140.15 230.775 140.772 230.152 141.107C228.955 141.73 226.944 142.065 224.262 142.065C222.394 142.065 220.575 141.921 218.899 141.586C217.558 141.299 216.121 140.868 214.637 140.245Z" fill="#0C16E0"/>
<path d="M263.77 123.963C261.376 123.963 259.221 124.634 257.353 125.975C256.347 126.693 255.39 127.459 254.528 128.369C254.48 127.603 254.384 126.98 254.192 126.453C253.953 125.639 253.522 125.017 252.995 124.538C252.469 124.059 251.846 123.772 251.223 123.676C250.649 123.58 250.074 123.484 249.452 123.484C248.302 123.484 247.297 123.915 246.53 124.777C245.86 125.544 245.429 127.028 245.142 129.327C244.902 131.003 244.758 132.966 244.711 135.169C244.711 137.324 244.711 140.102 244.711 143.598C244.711 147.093 244.711 150.158 244.758 152.649C244.806 155.235 244.902 157.342 245.142 159.066C245.333 161.364 245.716 162.849 246.339 163.663C247.057 164.573 248.254 165.052 250.026 165.052C250.457 165.052 250.936 165.004 251.415 164.908C252.037 164.764 252.612 164.429 253.091 163.902C253.522 163.423 253.857 162.801 254.145 162.035C254.432 161.268 254.576 160.263 254.623 158.922C254.719 156.336 254.815 153.942 254.911 151.739C255.007 149.44 255.054 147.046 255.054 144.603V142.975C255.054 142.592 255.054 142.257 255.007 141.874C254.959 141.586 254.959 141.203 254.911 140.82C254.911 140.437 254.911 139.814 254.911 139C255.342 138.09 256.06 137.324 257.114 136.702C258.359 135.983 259.7 135.457 261.136 135.169C262.142 134.978 263.1 134.786 264.01 134.547C264.967 134.307 265.829 133.972 266.596 133.589C267.41 133.11 268.08 132.487 268.559 131.721C269.038 130.907 269.277 129.949 269.277 128.848C269.229 126.98 268.511 123.963 263.77 123.963Z" fill="#0C16E0"/>
<path d="M290.731 123.963C288.337 123.963 286.182 124.634 284.314 125.975C283.309 126.693 282.351 127.459 281.489 128.369C281.441 127.603 281.345 126.98 281.154 126.453C280.914 125.639 280.483 125.017 279.957 124.538C279.43 124.059 278.807 123.772 278.185 123.676C277.61 123.58 277.035 123.484 276.413 123.484C275.263 123.484 274.258 123.915 273.492 124.777C272.821 125.544 272.39 127.028 272.103 129.327C271.863 131.003 271.72 132.966 271.672 135.169C271.672 137.324 271.672 140.102 271.672 143.598C271.672 147.093 271.672 150.158 271.72 152.649C271.768 155.235 271.863 157.342 272.103 159.066C272.294 161.364 272.677 162.849 273.3 163.663C274.018 164.573 275.216 165.052 276.987 165.052C277.418 165.052 277.897 165.004 278.376 164.908C278.999 164.764 279.573 164.429 280.052 163.902C280.483 163.423 280.819 162.801 281.106 162.035C281.393 161.268 281.537 160.263 281.585 158.922C281.681 156.336 281.776 153.942 281.872 151.739C281.968 149.44 282.016 147.046 282.016 144.603V142.975C282.016 142.592 282.016 142.257 281.968 141.874C281.92 141.586 281.92 141.203 281.872 140.82C281.872 140.437 281.872 139.814 281.872 139C282.303 138.09 283.021 137.324 284.075 136.702C285.32 135.983 286.661 135.457 288.098 135.169C289.103 134.978 290.061 134.786 290.971 134.547C291.929 134.307 292.791 133.972 293.557 133.589C294.371 133.11 295.041 132.487 295.52 131.721C295.999 130.907 296.239 129.949 296.239 128.848C296.191 126.98 295.472 123.963 290.731 123.963Z" fill="#0C16E0"/>
<path d="M208.172 51.029C209.512 49.2092 210.422 47.1021 211.045 44.9472C212.242 40.8287 212.434 36.423 211.763 32.1609C211.38 29.6228 210.758 27.1326 209.704 24.7861C208.746 22.6311 207.31 20.6198 205.394 19.1831C204.58 18.5606 203.718 18.1296 202.808 17.7465C201.755 17.2676 200.653 16.9802 199.504 16.9324C197.636 16.7887 195.768 17.3155 194.14 18.1775C192.225 19.1831 190.596 20.6198 189.112 22.1043C184.993 26.2706 182.312 31.682 180.827 37.285C180.061 40.4456 179.678 43.8457 180.492 47.0543C181.306 50.2149 183.605 52.753 186.191 54.6685C187.867 55.9136 189.734 57.0151 191.794 57.5897C193.757 58.1644 195.864 58.2602 197.828 57.8292C199.6 57.4461 201.324 56.7756 202.904 55.8179C204.915 54.5728 206.783 52.9445 208.172 51.029Z" fill="#FFC107"/>
<path d="M144.192 32.544C145.821 34.3638 147.976 35.6568 150.274 36.4709C152.477 37.285 154.776 37.8118 157.122 37.7639C159.182 37.716 161.241 37.1413 163.013 36.0399C166.269 34.1243 168.807 31.2031 170.914 28.1383C173.788 24.0199 175.751 19.231 176.421 14.2027C176.709 11.9998 176.709 9.70118 176.134 7.5462C175.607 5.58276 174.458 3.763 172.83 2.56578C171.968 1.89535 171.01 1.36857 170.004 0.937574C167.897 0.0276913 165.503 -0.163863 163.252 0.123468C160.858 0.4108 158.559 1.22491 156.356 2.23056C152.621 3.85878 149.173 6.2532 146.347 9.22229C144.48 11.2336 142.804 13.5323 141.798 16.1182C140.409 19.6141 140.313 23.4931 141.223 27.0847C141.846 29.0482 142.804 30.9637 144.192 32.544Z" fill="#FFC107"/>
<path d="M112.586 45.3303C114.502 44.9472 116.273 44.0373 117.902 42.9837C121.35 40.7809 124.462 38.0033 127.048 34.8427C128.677 32.7835 129.922 30.389 130.257 27.7552C130.496 25.7917 130.353 23.7325 129.73 21.8649C128.916 19.4704 127.24 17.4112 125.276 15.8788C123.648 14.5379 121.733 13.5802 119.817 12.6703C117.279 11.6167 114.549 10.9463 111.82 11.2336C110.096 11.4252 108.515 12.0477 106.983 12.8618C104.828 14.0112 103.008 15.783 101.907 17.938C101.093 19.4704 100.71 21.1465 100.374 22.8226C99.6561 26.558 99.4645 30.4369 99.6082 34.2201C99.7519 36.6146 100.327 39.1048 101.763 41.1161C103.152 43.0795 105.259 44.4204 107.558 45.0908C109.09 45.6176 110.91 45.7134 112.586 45.3303Z" fill="#FFC107"/>
<path d="M230.871 74.3028C230.2 72.0521 228.764 70.0887 227.04 68.6041C225.172 66.928 222.921 65.7308 220.67 64.7251C217.51 63.3843 213.918 62.7617 210.614 63.8631C208.698 64.5336 206.831 65.5392 205.346 66.928C203.766 68.4126 202.616 70.3281 202.042 72.4352C200.845 76.5536 200.557 80.9115 200.605 85.1735C200.605 87.4243 200.94 89.723 201.898 91.7822C202.808 93.7456 204.388 95.3738 206.352 96.3316C208.124 97.2894 210.183 97.8161 212.242 97.6725C214.253 97.5288 216.217 96.8105 217.941 95.8048C221.772 93.5062 225.22 90.5371 228.045 87.0891C229.482 85.3172 230.631 83.258 231.11 81.0072C231.589 78.7565 231.493 76.4578 230.871 74.3028Z" fill="#FFC107"/>
<path d="M191.411 76.3142C190.213 74.3986 188.777 72.7225 187.101 71.1901C183.27 67.6942 178.337 65.4435 173.213 64.773C168.041 64.1026 162.677 65.1561 158.128 67.6942C157.649 63.6237 156.117 59.7447 153.77 56.3446C151.28 52.753 147.784 49.8797 143.809 48.0599C141.511 46.9585 139.02 46.288 136.482 45.9049C134.28 45.5697 132.029 45.6176 129.826 45.9049C128.102 46.1444 126.378 46.6711 124.702 47.1979C120.44 48.5867 116.465 50.8375 113.256 53.9502C110.048 56.9672 107.606 60.7983 106.36 65.0125C105.307 68.5083 104.924 72.2436 105.355 75.8832C105.69 78.948 106.552 81.9171 107.797 84.7426C109.904 89.4835 113.161 93.6498 116.992 97.1457C120.296 100.354 123.505 103.754 126.186 107.537C127.623 109.549 128.868 111.752 129.922 114.002C130.736 115.774 131.454 117.546 132.172 119.366C133.657 118.839 135.142 118.265 136.674 117.881C139.068 117.259 141.559 116.972 144.049 116.924C148.694 116.876 153.339 117.45 157.889 118.265C163.923 119.558 170.292 119.653 176.278 117.881C179.917 116.732 183.461 115.008 186.382 112.518C190.07 109.501 192.847 105.43 194.332 100.929C195.864 96.2837 196.104 91.2075 195.146 86.3708C194.428 82.827 193.278 79.379 191.411 76.3142ZM184.419 98.2471C183.892 101.073 182.599 103.802 180.684 105.957C178.145 108.735 174.697 110.554 171.058 111.416C166.844 112.374 162.39 112.183 158.176 111.273C155.255 110.65 152.334 110.123 149.412 109.788C145.102 109.261 140.697 109.214 136.435 110.219C135.381 108.064 134.184 105.957 132.795 103.994C130.401 100.594 127.431 97.5767 124.414 94.7034C122.786 93.1709 121.11 91.7343 119.674 90.0582C117.902 88.0469 116.417 85.7961 115.316 83.3538C114.071 80.6241 113.4 77.655 113.448 74.686C113.544 72.1479 114.166 69.6098 115.411 67.4069C116.417 65.5392 117.902 63.9589 119.53 62.5701C121.35 61.0377 123.505 59.9842 125.755 59.1701C127.192 58.6912 128.629 58.3081 130.113 58.0686C134.711 57.4461 139.499 58.6912 143.33 61.2293C145.102 62.4265 146.731 63.8631 148.024 65.5871C150.131 68.4126 151.472 71.8126 151.663 75.3564C151.711 76.8409 151.807 78.2776 151.903 79.7621C153.148 78.948 154.441 78.1339 155.686 77.3198C157.122 76.4099 158.703 75.6916 160.379 75.2606C162.486 74.7338 164.689 74.4944 166.892 74.686C172.111 75.2127 177.044 77.8466 180.396 81.9171C181.45 83.258 182.36 84.7426 182.982 86.3229C184.467 90.1061 185.233 94.2724 184.419 98.2471Z" fill="#FFC107"/>
</svg>
