<svg width="20" height="26" viewBox="0 0 20 26" fill="none" xmlns="http://www.w3.org/2000/svg">
<path d="M5.5 9.03503C5.5 7.63093 3.605 7.25875 3.10225 8.57254C1.88611 11.7505 1 14.5935 1 16.1305C1 21.029 5.02944 25 10 25C14.9706 25 19 21.029 19 16.1305C19 14.4792 17.9772 11.3205 16.6212 7.85839C14.8646 3.37363 13.9864 1.13125 12.9022 1.01047C12.5553 0.97182 12.1768 1.0413 11.8673 1.20047C10.9 1.69789 10.9 4.14361 10.9 9.03503C10.9 10.5046 9.69117 11.6959 8.2 11.6959C6.70883 11.6959 5.5 10.5046 5.5 9.03503Z" stroke="#B4B4B4" stroke-width="2"/>
</svg>
