<svg width="25" height="26" viewBox="0 0 25 26" fill="none" xmlns="http://www.w3.org/2000/svg">
<path d="M10.7539 1H13.8271C16.0057 1 17.5645 1.00134 18.7744 1.125C19.9672 1.24694 20.71 1.47975 21.293 1.87109C21.8546 2.24819 22.3372 2.73294 22.7129 3.29785C23.1034 3.88502 23.3355 4.63308 23.457 5.83301C23.5802 7.04948 23.5811 8.61619 23.5811 10.8047C23.5811 12.9931 23.5802 14.5599 23.457 15.7764C23.3355 16.9761 23.1034 17.7244 22.7129 18.3115C22.3372 18.8764 21.8546 19.3612 21.293 19.7383C20.7835 20.0803 20.1509 20.3011 19.2041 20.4326C18.2412 20.5663 17.0212 20.5992 15.3594 20.6064C14.9683 20.6082 14.6307 20.8349 14.4678 21.1631L12.7695 24.5762C12.5713 24.9745 12.0098 24.9745 11.8115 24.5762L10.1123 21.1631C9.94933 20.8353 9.61342 20.6083 9.22266 20.6064C7.56049 20.5992 6.33999 20.5663 5.37695 20.4326C4.43016 20.3011 3.7976 20.0803 3.28809 19.7383C2.72645 19.3612 2.24386 18.8764 1.86816 18.3115C1.47769 17.7244 1.24554 16.9761 1.12402 15.7764C1.00085 14.5599 1 12.9931 1 10.8047C1 8.61619 1.00085 7.04948 1.12402 5.83301C1.24552 4.63315 1.47772 3.885 1.86816 3.29785C2.24383 2.73301 2.7265 2.24817 3.28809 1.87109C3.87113 1.4797 4.6146 1.24693 5.80762 1.125C7.01748 1.00137 8.57563 1 10.7539 1Z" stroke="#FFC107" stroke-width="2" stroke-linecap="round" stroke-linejoin="round"/>
</svg>
