<svg width="25" height="26" viewBox="0 0 25 26" fill="none" xmlns="http://www.w3.org/2000/svg">
<path d="M10.7539 1H13.8271C16.0057 1 17.5645 1.00134 18.7744 1.125C19.9672 1.24694 20.71 1.47975 21.293 1.87109C21.8546 2.24819 22.3372 2.73294 22.7129 3.29785C23.1034 3.88502 23.3355 4.63308 23.457 5.83301C23.5802 7.04948 23.5811 8.61619 23.5811 10.8047C23.5811 12.9931 23.5802 14.5599 23.457 15.7764C23.3355 16.9761 23.1034 17.7244 22.7129 18.3115C22.3372 18.8764 21.8546 19.3612 21.293 19.7383C20.7835 20.0803 20.1509 20.3011 19.2041 20.4326C18.2412 20.5663 17.0212 20.5992 15.3594 20.6064C14.9683 20.6082 14.6307 20.8349 14.4678 21.1631L12.7695 24.5762C12.5713 24.9745 12.0098 24.9745 11.8115 24.5762L10.1123 21.1631C9.94933 20.8353 9.61342 20.6083 9.22266 20.6064C7.56049 20.5992 6.33998 20.5663 5.37695 20.4326C4.43016 20.3011 3.7976 20.0803 3.28809 19.7383C2.72645 19.3612 2.24386 18.8764 1.86816 18.3115C1.47769 17.7244 1.24554 16.9761 1.12402 15.7764C1.00085 14.5599 1 12.9931 1 10.8047C1 8.61619 1.00085 7.04948 1.12402 5.83301C1.24552 4.63315 1.47772 3.885 1.86816 3.29785C2.24383 2.73301 2.7265 2.24817 3.28809 1.87109C3.87113 1.4797 4.6146 1.24693 5.80762 1.125C6.71505 1.03227 7.81842 1.00809 9.23242 1.00195L10.7539 1ZM7.68164 12.8916C7.12937 12.8916 6.68164 13.3393 6.68164 13.8916C6.68173 14.4438 7.12942 14.8916 7.68164 14.8916H12.291C12.8431 14.8914 13.2909 14.4437 13.291 13.8916C13.291 13.3394 12.8431 12.8918 12.291 12.8916H7.68164ZM7.68164 6.71777C7.12937 6.71779 6.68164 7.1655 6.68164 7.71777C6.68186 8.26986 7.12951 8.71776 7.68164 8.71777H16.8994C17.4516 8.71777 17.8992 8.26987 17.8994 7.71777C17.8994 7.16549 17.4517 6.71777 16.8994 6.71777H7.68164Z" stroke="#FFC107" stroke-width="2" stroke-linecap="round" stroke-linejoin="round"/>
</svg>
