<svg width="82" height="76" viewBox="0 0 82 76" fill="none" xmlns="http://www.w3.org/2000/svg">
<rect width="81.3824" height="76" rx="12" fill="#0C16E0"/>
<mask id="mask0_1019_97125" style="mask-type:luminance" maskUnits="userSpaceOnUse" x="46" y="21" width="13" height="17">
<path d="M46.3738 21.4526H58.7242V37.7562H46.3738V21.4526Z" fill="white"/>
</mask>
<g mask="url(#mask0_1019_97125)">
<mask id="mask1_1019_97125" style="mask-type:luminance" maskUnits="userSpaceOnUse" x="3" y="6" width="71" height="68">
<path d="M24.5707 6.24512L73.6963 31.4357L52.2259 73.3099L3.10034 48.1174L24.5707 6.24512Z" fill="white"/>
</mask>
<g mask="url(#mask1_1019_97125)">
<mask id="mask2_1019_97125" style="mask-type:luminance" maskUnits="userSpaceOnUse" x="3" y="6" width="71" height="68">
<path d="M24.5702 6.24365L73.6958 31.4342L52.2254 73.3084L3.09985 48.116L24.5702 6.24365Z" fill="white"/>
</mask>
<g mask="url(#mask2_1019_97125)">
<path d="M53.1055 22.1639C52.403 22.3163 51.7797 22.71 51.2452 23.177C50.7647 23.5977 50.2958 24.0416 49.9021 24.5472L49.9638 24.5299C49.7844 24.7325 49.6011 24.9332 49.4254 25.1378C48.9295 25.7109 48.5957 26.396 48.2715 27.0734C47.679 28.4456 47.1811 29.8833 47.0654 31.3828C47.0576 31.4253 47.0615 31.4658 47.075 31.5063C47.0075 32.1934 47.075 32.9093 47.3394 33.552C47.7717 34.5845 48.6227 35.3699 49.5316 35.9875C50.3054 36.524 51.2259 36.8887 52.1792 36.881C53.0592 36.8849 53.9218 36.5896 54.6724 36.1419C55.3363 35.7559 55.9306 35.2522 56.4131 34.6539C56.9688 33.9534 57.3644 33.1313 57.6018 32.2686C57.7291 31.819 57.87 31.3674 57.899 30.9004C57.9762 30.6282 57.9105 30.3368 57.9453 30.0589C58.0283 29.9219 57.9935 29.754 58.009 29.6016C58.0398 28.71 57.9665 27.8164 57.7986 26.9383C57.6539 26.1606 57.4416 25.3906 57.1097 24.6688C56.6987 23.7656 56.0638 22.93 55.178 22.4553C54.5547 22.1021 53.8021 21.9921 53.1055 22.1639ZM55.1491 21.9477C55.4926 22.106 55.8341 22.2758 56.139 22.5054C56.8743 23.0516 57.4204 23.8216 57.7928 24.6553C58.1942 25.5488 58.4316 26.5099 58.5782 27.4787C58.833 29.1037 58.7538 30.7865 58.3042 32.3709C58.063 33.1969 57.7118 33.9978 57.2043 34.6964C56.6678 35.4433 55.9634 36.0666 55.1742 36.5356C54.5759 36.8945 53.9218 37.1647 53.2367 37.3037C52.4725 37.4619 51.6697 37.4349 50.921 37.2129C50.1375 36.9987 49.4274 36.58 48.7809 36.0956C47.7987 35.3603 46.9206 34.3838 46.6003 33.1737C46.2896 31.9463 46.4228 30.6533 46.7238 29.4375C47.2815 27.2799 48.3101 25.2092 49.8924 23.617C50.4714 23.0381 51.0985 22.4939 51.8261 22.1079C52.4551 21.7759 53.1692 21.5791 53.8832 21.6273C54.3212 21.6466 54.7496 21.7721 55.1491 21.9477Z" fill="#FFC107"/>
</g>
</g>
</g>
<mask id="mask3_1019_97125" style="mask-type:luminance" maskUnits="userSpaceOnUse" x="49" y="21" width="10" height="10">
<path d="M49.8301 21.9463H58.2283V30.3451H49.8301V21.9463Z" fill="white"/>
</mask>
<g mask="url(#mask3_1019_97125)">
<mask id="mask4_1019_97125" style="mask-type:luminance" maskUnits="userSpaceOnUse" x="3" y="6" width="71" height="68">
<path d="M24.5705 6.24609L73.696 31.4366L52.2257 73.3109L3.1001 48.1184L24.5705 6.24609Z" fill="white"/>
</mask>
<g mask="url(#mask4_1019_97125)">
<mask id="mask5_1019_97125" style="mask-type:luminance" maskUnits="userSpaceOnUse" x="3" y="6" width="71" height="68">
<path d="M24.5705 6.24756L73.696 31.4381L52.2257 73.3123L3.1001 48.1199L24.5705 6.24756Z" fill="white"/>
</mask>
<g mask="url(#mask5_1019_97125)">
<path d="M53.1021 22.1646C53.7987 21.9929 54.5513 22.1029 55.1746 22.456C56.0604 22.9308 56.6972 23.7664 57.1063 24.6696C57.4363 25.3914 57.6505 26.1614 57.7952 26.941C57.9631 27.8172 58.0364 28.7107 58.0055 29.6023C57.9901 29.7548 58.0248 29.9227 57.9419 30.0597C57.9534 28.5698 57.6563 27.0665 56.9809 25.7329C56.5332 24.8529 55.8925 24.0578 55.0665 23.5117C54.6922 23.2801 54.3024 23.0562 53.8682 22.9578C53.295 22.8227 52.691 22.9115 52.143 23.1025C51.3132 23.392 50.578 23.9111 49.9624 24.5306L49.8987 24.548C50.2923 24.0424 50.7613 23.5985 51.2418 23.1778C51.7783 22.7108 52.3996 22.3171 53.1021 22.1646Z" fill="#FFC107"/>
</g>
</g>
</g>
<mask id="mask6_1019_97125" style="mask-type:luminance" maskUnits="userSpaceOnUse" x="46" y="22" width="13" height="14">
<path d="M46.8662 22.4399H58.2286V35.2851H46.8662V22.4399Z" fill="white"/>
</mask>
<g mask="url(#mask6_1019_97125)">
<mask id="mask7_1019_97125" style="mask-type:luminance" maskUnits="userSpaceOnUse" x="3" y="6" width="71" height="68">
<path d="M24.5705 6.24512L73.696 31.4357L52.2257 73.3099L3.1001 48.1174L24.5705 6.24512Z" fill="white"/>
</mask>
<g mask="url(#mask7_1019_97125)">
<mask id="mask8_1019_97125" style="mask-type:luminance" maskUnits="userSpaceOnUse" x="3" y="6" width="71" height="68">
<path d="M24.5697 6.24365L73.6953 31.4342L52.2249 73.3084L3.09937 48.116L24.5697 6.24365Z" fill="white"/>
</mask>
<g mask="url(#mask8_1019_97125)">
<path d="M54.1869 23.5968C54.7002 24.0716 55.1807 24.5849 55.586 25.1561C56.518 26.4395 57.1066 27.9409 57.4655 29.479C57.5254 28.2034 57.317 26.8795 56.6493 25.7718C56.0781 24.8145 55.1865 24.0735 54.1869 23.5968ZM53.8685 22.9561C54.3008 23.0545 54.6925 23.2784 55.0649 23.51C55.8928 24.0561 56.5335 24.8512 56.9793 25.7312C57.6566 27.0648 57.9538 28.5681 57.9422 30.0561C57.9075 30.3359 57.9731 30.6273 57.8959 30.8994C57.728 31.2352 57.5891 31.5845 57.3999 31.9107C56.6338 33.304 55.3004 34.3905 53.7585 34.8035C52.838 35.039 51.8538 35.0583 50.9295 34.8286C49.5999 34.5121 48.415 33.6611 47.6566 32.5282C47.427 32.2079 47.263 31.8489 47.0719 31.5054C47.0584 31.4649 47.0546 31.4243 47.0623 31.3819C47.1781 29.8824 47.6759 28.4446 48.2684 27.0725C48.5926 26.3951 48.9264 25.71 49.4224 25.1368C49.598 24.9323 49.7813 24.7316 49.9627 24.5289C50.5783 23.9094 51.3135 23.3903 52.1433 23.1008C52.6914 22.9098 53.2954 22.821 53.8685 22.9561Z" fill="#FFC107"/>
</g>
</g>
</g>
<mask id="mask9_1019_97125" style="mask-type:luminance" maskUnits="userSpaceOnUse" x="53" y="23" width="5" height="7">
<path d="M53.7837 23.4268H57.7358V29.8494H53.7837V23.4268Z" fill="white"/>
</mask>
<g mask="url(#mask9_1019_97125)">
<mask id="mask10_1019_97125" style="mask-type:luminance" maskUnits="userSpaceOnUse" x="3" y="6" width="71" height="68">
<path d="M24.5705 6.24609L73.696 31.4366L52.2257 73.3109L3.1001 48.1184L24.5705 6.24609Z" fill="white"/>
</mask>
<g mask="url(#mask10_1019_97125)">
<mask id="mask11_1019_97125" style="mask-type:luminance" maskUnits="userSpaceOnUse" x="3" y="6" width="71" height="68">
<path d="M24.5705 6.24756L73.696 31.4381L52.2257 73.3123L3.1001 48.1199L24.5705 6.24756Z" fill="white"/>
</mask>
<g mask="url(#mask11_1019_97125)">
<path d="M54.1875 23.5996C55.1871 24.0763 56.0787 24.8174 56.6499 25.7746C57.3175 26.8823 57.526 28.2062 57.4661 29.4818C57.1072 27.9437 56.5186 26.4423 55.5885 25.1589C55.1813 24.5877 54.7008 24.0744 54.1875 23.5996Z" fill="#FFC107"/>
</g>
</g>
</g>
<mask id="mask12_1019_97125" style="mask-type:luminance" maskUnits="userSpaceOnUse" x="46" y="30" width="13" height="8">
<path d="M46.8662 30.8369H58.2286V37.2595H46.8662V30.8369Z" fill="white"/>
</mask>
<g mask="url(#mask12_1019_97125)">
<mask id="mask13_1019_97125" style="mask-type:luminance" maskUnits="userSpaceOnUse" x="3" y="6" width="71" height="68">
<path d="M24.5705 6.24365L73.696 31.4342L52.2257 73.3084L3.1001 48.116L24.5705 6.24365Z" fill="white"/>
</mask>
<g mask="url(#mask13_1019_97125)">
<mask id="mask14_1019_97125" style="mask-type:luminance" maskUnits="userSpaceOnUse" x="3" y="6" width="71" height="68">
<path d="M24.5702 6.24219L73.6958 31.4327L52.2254 73.307L3.09985 48.1145L24.5702 6.24219Z" fill="white"/>
</mask>
<g mask="url(#mask14_1019_97125)">
<path d="M57.4025 31.9102C57.5897 31.584 57.7305 31.2347 57.8965 30.8989C57.8675 31.366 57.7267 31.8175 57.6012 32.2672C57.3619 33.1299 56.9663 33.952 56.4106 34.6525C55.9281 35.2508 55.3338 35.7545 54.6699 36.1404C53.9193 36.5882 53.0567 36.8834 52.1767 36.8796C51.2234 36.8873 50.3029 36.5226 49.5291 35.9861C48.6202 35.3685 47.7692 34.583 47.3369 33.5506C47.0725 32.9079 47.005 32.1919 47.0725 31.5049C47.2636 31.8484 47.4276 32.2074 47.6572 32.5277C48.4156 33.6606 49.6005 34.5116 50.9301 34.8281C51.8564 35.0578 52.8386 35.0385 53.761 34.803C55.301 34.3901 56.6364 33.3035 57.4025 31.9102Z" fill="#FFC107"/>
</g>
</g>
</g>
<mask id="mask15_1019_97125" style="mask-type:luminance" maskUnits="userSpaceOnUse" x="31" y="15" width="15" height="15">
<path d="M31.0596 15.0273H45.386V29.8487H31.0596V15.0273Z" fill="white"/>
</mask>
<g mask="url(#mask15_1019_97125)">
<mask id="mask16_1019_97125" style="mask-type:luminance" maskUnits="userSpaceOnUse" x="3" y="6" width="71" height="68">
<path d="M24.5753 6.24609L73.7009 31.4366L52.2305 73.3109L3.10498 48.1184L24.5753 6.24609Z" fill="white"/>
</mask>
<g mask="url(#mask16_1019_97125)">
<mask id="mask17_1019_97125" style="mask-type:luminance" maskUnits="userSpaceOnUse" x="3" y="6" width="71" height="68">
<path d="M24.5753 6.24756L73.7009 31.4381L52.2305 73.3123L3.10498 48.1199L24.5753 6.24756Z" fill="white"/>
</mask>
<g mask="url(#mask17_1019_97125)">
<path d="M40.7891 15.7281C39.9033 15.7667 39.0388 16.0176 38.2225 16.3534C36.9238 16.8803 35.6984 17.6098 34.666 18.5593L34.7509 18.5477C34.5618 18.7079 34.363 18.8565 34.1604 19.0031C34.1045 19.0495 34.0311 19.0919 34.0118 19.1691C33.7648 19.4142 33.5622 19.7017 33.3461 19.9758C32.8964 20.5509 32.5259 21.1916 32.2866 21.8825C31.9895 22.7181 31.8949 23.6213 31.9817 24.5013C32.0473 25.1845 32.1998 25.8696 32.5298 26.4775C32.9042 27.2012 33.5062 27.7937 34.2164 28.1912C34.8841 28.5656 35.6232 28.8011 36.3719 28.9555C37.2133 29.1253 38.1106 29.106 38.9153 28.7837C39.2916 28.639 39.6255 28.4074 39.9497 28.17C40.1175 28.0446 40.2893 27.923 40.436 27.7744C40.4842 27.7802 40.5093 27.73 40.544 27.7049C40.8084 27.4309 41.0882 27.1703 41.3391 26.8828C42.0897 25.997 42.7671 25.0455 43.2843 24.0053C43.649 23.3338 43.9211 22.6139 44.1411 21.8825C44.2761 21.4406 44.334 20.9832 44.3842 20.5258C44.4691 20.3618 44.4633 20.1746 44.4884 19.997C44.5772 19.2637 44.5656 18.4994 44.3147 17.797C44.1179 17.2354 43.7551 16.7259 43.265 16.3843C42.549 15.8825 41.6536 15.6915 40.7891 15.7281ZM42.5876 15.512C42.9639 15.6857 43.3344 15.8787 43.6644 16.1334C44.2858 16.6024 44.7238 17.2952 44.9245 18.0478C45.1465 18.8796 45.1426 19.7577 45.0287 20.6069C44.7875 22.5232 44.0272 24.3547 42.9292 25.9371C42.1129 27.1163 41.1384 28.224 39.8976 28.9651C39.2221 29.3762 38.4387 29.602 37.6494 29.6193C36.7521 29.6367 35.8644 29.4321 35.0269 29.1253C34.1508 28.8088 33.3268 28.3167 32.7015 27.6219C32.1631 27.0256 31.7945 26.2903 31.5842 25.5203C31.2253 24.1404 31.2735 22.6448 31.7984 21.3132C32.1747 20.3193 32.8212 19.4547 33.5333 18.677C34.6062 17.5326 35.9261 16.6313 37.358 16.0003C38.1994 15.6239 39.0813 15.3132 39.9998 15.1974C40.8701 15.0874 41.7771 15.1588 42.5876 15.512Z" fill="#FFC107"/>
</g>
</g>
</g>
<mask id="mask18_1019_97125" style="mask-type:luminance" maskUnits="userSpaceOnUse" x="34" y="15" width="11" height="6">
<path d="M34.5171 15.521H44.8914V20.9555H34.5171V15.521Z" fill="white"/>
</mask>
<g mask="url(#mask18_1019_97125)">
<mask id="mask19_1019_97125" style="mask-type:luminance" maskUnits="userSpaceOnUse" x="3" y="6" width="71" height="68">
<path d="M24.5702 6.24609L73.6958 31.4366L52.2254 73.3109L3.09985 48.1184L24.5702 6.24609Z" fill="white"/>
</mask>
<g mask="url(#mask19_1019_97125)">
<mask id="mask20_1019_97125" style="mask-type:luminance" maskUnits="userSpaceOnUse" x="3" y="6" width="71" height="68">
<path d="M24.5702 6.24756L73.6958 31.4381L52.2254 73.3123L3.09985 48.1199L24.5702 6.24756Z" fill="white"/>
</mask>
<g mask="url(#mask20_1019_97125)">
<path d="M40.7933 15.7289C41.6578 15.6903 42.5532 15.8814 43.2691 16.3832C43.7593 16.7248 44.1221 17.2342 44.3189 17.7958C44.5698 18.4983 44.5813 19.2625 44.4926 19.9959C44.4675 20.1734 44.4733 20.3606 44.3884 20.5247C44.4405 19.8685 44.3614 19.195 44.1008 18.589C43.8808 18.0757 43.5258 17.6202 43.0896 17.2728C42.557 16.883 41.9357 16.6167 41.2853 16.5086C40.4459 16.3542 39.5794 16.4333 38.7535 16.6283C37.2966 16.9486 35.938 17.6434 34.7551 18.5465L34.6702 18.5581C35.7026 17.6086 36.928 16.8791 38.2267 16.3523C39.043 16.0165 39.9075 15.7656 40.7933 15.7289Z" fill="#FFC107"/>
</g>
</g>
</g>
<mask id="mask21_1019_97125" style="mask-type:luminance" maskUnits="userSpaceOnUse" x="33" y="16" width="12" height="13">
<path d="M33.0364 16.0156H44.8927V28.3668H33.0364V16.0156Z" fill="white"/>
</mask>
<g mask="url(#mask21_1019_97125)">
<mask id="mask22_1019_97125" style="mask-type:luminance" maskUnits="userSpaceOnUse" x="3" y="6" width="71" height="68">
<path d="M24.5697 6.24512L73.6953 31.4357L52.2249 73.3099L3.09937 48.1174L24.5697 6.24512Z" fill="white"/>
</mask>
<g mask="url(#mask22_1019_97125)">
<mask id="mask23_1019_97125" style="mask-type:luminance" maskUnits="userSpaceOnUse" x="3" y="6" width="71" height="68">
<path d="M24.5692 6.24365L73.6948 31.4342L52.2244 73.3084L3.09888 48.116L24.5692 6.24365Z" fill="white"/>
</mask>
<g mask="url(#mask23_1019_97125)">
<path d="M39.8715 17.0934C39.0437 17.0393 38.2274 17.2941 37.4922 17.6588C36.8766 17.9734 36.2996 18.3652 35.7708 18.809C36.342 18.535 36.9229 18.2783 37.523 18.0776C38.87 17.628 40.3424 17.4041 41.7395 17.7534C41.1838 17.3867 40.545 17.1185 39.8715 17.0934ZM41.288 16.5028C41.9383 16.6109 42.5597 16.8772 43.0923 17.2671C43.5284 17.6144 43.8835 18.0699 44.1035 18.5832C44.3659 19.1892 44.4431 19.8647 44.391 20.5189C44.3408 20.9763 44.2829 21.4336 44.1479 21.8756C43.9279 22.607 43.6558 23.3268 43.291 23.9984C42.7739 25.0386 42.0965 25.9901 41.3459 26.8759C41.095 27.1634 40.8152 27.424 40.5508 27.698C40.5161 27.7231 40.491 27.7733 40.4427 27.7675C40.3077 27.7675 40.1745 27.7829 40.0433 27.8176C39.1575 28.0203 38.2274 27.9006 37.3802 27.5996C35.794 27.0554 34.5126 25.7913 33.8006 24.2899C33.54 23.6897 33.3529 23.0528 33.3027 22.3986C33.2274 21.5996 33.3529 20.7833 33.6404 20.0345C33.7407 19.7315 33.9241 19.4652 34.0186 19.1622C34.0379 19.085 34.1112 19.0425 34.1672 18.9962C34.3698 18.8496 34.5686 18.701 34.7577 18.5408C35.9406 17.6376 37.2992 16.9428 38.7561 16.6225C39.5821 16.4256 40.4485 16.3485 41.288 16.5028Z" fill="#FFC107"/>
</g>
</g>
</g>
<mask id="mask24_1019_97125" style="mask-type:luminance" maskUnits="userSpaceOnUse" x="35" y="17" width="7" height="2">
<path d="M35.5042 17.0029H41.9263V18.9791H35.5042V17.0029Z" fill="white"/>
</mask>
<g mask="url(#mask24_1019_97125)">
<mask id="mask25_1019_97125" style="mask-type:luminance" maskUnits="userSpaceOnUse" x="3" y="6" width="71" height="68">
<path d="M24.5753 6.24609L73.7009 31.4366L52.2305 73.3109L3.10498 48.1184L24.5753 6.24609Z" fill="white"/>
</mask>
<g mask="url(#mask25_1019_97125)">
<mask id="mask26_1019_97125" style="mask-type:luminance" maskUnits="userSpaceOnUse" x="3" y="6" width="71" height="68">
<path d="M24.5753 6.24756L73.7009 31.4381L52.2305 73.3123L3.10498 48.1199L24.5753 6.24756Z" fill="white"/>
</mask>
<g mask="url(#mask26_1019_97125)">
<path d="M39.8688 17.0985C40.5423 17.1236 41.181 17.3919 41.7368 17.7586C40.3396 17.4092 38.8672 17.6331 37.5203 18.0828C36.9201 18.2835 36.3393 18.5382 35.7681 18.8142C36.2968 18.3684 36.8738 17.9786 37.4894 17.664C38.2246 17.2992 39.0409 17.0445 39.8688 17.0985Z" fill="#FFC107"/>
</g>
</g>
</g>
<mask id="mask27_1019_97125" style="mask-type:luminance" maskUnits="userSpaceOnUse" x="31" y="18" width="10" height="12">
<path d="M31.5532 18.9771H40.4455V29.352H31.5532V18.9771Z" fill="white"/>
</mask>
<g mask="url(#mask27_1019_97125)">
<mask id="mask28_1019_97125" style="mask-type:luminance" maskUnits="userSpaceOnUse" x="3" y="6" width="71" height="68">
<path d="M24.5753 6.24512L73.7009 31.4357L52.2305 73.3099L3.10498 48.1174L24.5753 6.24512Z" fill="white"/>
</mask>
<g mask="url(#mask28_1019_97125)">
<mask id="mask29_1019_97125" style="mask-type:luminance" maskUnits="userSpaceOnUse" x="3" y="6" width="71" height="68">
<path d="M24.5751 6.24609L73.7006 31.4366L52.2303 73.3109L3.10474 48.1184L24.5751 6.24609Z" fill="white"/>
</mask>
<g mask="url(#mask29_1019_97125)">
<path d="M34.0151 19.166C33.9205 19.469 33.7372 19.7353 33.6369 20.0383C33.3493 20.7871 33.2239 21.6034 33.2992 22.4024C33.3493 23.0566 33.5365 23.6935 33.797 24.2937C34.5091 25.7951 35.7905 27.0592 37.3767 27.6034C38.2239 27.9045 39.154 28.0241 40.0398 27.8215C40.171 27.7867 40.3041 27.7713 40.4392 27.7713C40.2926 27.9199 40.1208 28.0415 39.9529 28.1669C39.6287 28.4043 39.2949 28.6359 38.9186 28.7806C38.1139 29.1029 37.2165 29.1222 36.3752 28.9524C35.6264 28.798 34.8873 28.5625 34.2196 28.1881C33.5095 27.7906 32.9074 27.1981 32.5311 26.4744C32.2031 25.8665 32.0506 25.1814 31.985 24.4982C31.8982 23.6182 31.9927 22.715 32.2899 21.8794C32.5292 21.1885 32.8997 20.5497 33.3493 19.9727C33.5655 19.6987 33.7681 19.4111 34.0151 19.166Z" fill="#FFC107"/>
</g>
</g>
</g>
<mask id="mask30_1019_97125" style="mask-type:luminance" maskUnits="userSpaceOnUse" x="15" y="18" width="13" height="15">
<path d="M15.2483 18.9771H27.5987V32.8103H15.2483V18.9771Z" fill="white"/>
</mask>
<g mask="url(#mask30_1019_97125)">
<mask id="mask31_1019_97125" style="mask-type:luminance" maskUnits="userSpaceOnUse" x="3" y="6" width="71" height="68">
<path d="M24.5705 6.24512L73.696 31.4357L52.2257 73.3099L3.1001 48.1174L24.5705 6.24512Z" fill="white"/>
</mask>
<g mask="url(#mask31_1019_97125)">
<mask id="mask32_1019_97125" style="mask-type:luminance" maskUnits="userSpaceOnUse" x="3" y="6" width="71" height="68">
<path d="M24.5705 6.24609L73.696 31.4366L52.2257 73.3109L3.1001 48.1184L24.5705 6.24609Z" fill="white"/>
</mask>
<g mask="url(#mask32_1019_97125)">
<path d="M21.5318 20.0763C20.8139 19.9682 20.0633 20.0145 19.3821 20.2828C18.5696 20.5857 17.8363 21.13 17.3693 21.8672C17.0123 22.3998 16.8445 23.029 16.7074 23.6484C16.6785 23.799 16.6206 23.9514 16.6457 24.1077C16.3331 25.5725 16.2211 27.0836 16.3466 28.5773C16.4103 29.2856 16.6052 29.9996 17.0239 30.5824C17.2883 30.9665 17.6434 31.2849 18.0409 31.5281C18.6951 31.9256 19.5056 32.053 20.2543 31.8909C21.0687 31.7211 21.7981 31.2868 22.46 30.7947C22.9232 30.4512 23.3959 30.1212 23.8263 29.7372C23.8359 29.7352 23.8572 29.7314 23.8668 29.7294C24.2335 29.3898 24.6059 29.0598 24.9648 28.7124C25.4936 28.1566 26.0397 27.5969 26.3948 26.908C26.5299 26.6031 26.6476 26.2846 26.7112 25.9566C26.7634 25.6613 26.8135 25.3564 26.7325 25.063C26.7421 25.0341 26.7614 24.9781 26.7711 24.9492C26.7826 24.4011 26.6746 23.8491 26.4411 23.3512C26.0281 22.4423 25.2543 21.7514 24.4226 21.2265C23.533 20.688 22.57 20.2306 21.5318 20.0763ZM23.3496 20.0087C24.0849 20.3426 24.8066 20.7228 25.4357 21.2322C26.1941 21.8286 26.8405 22.6044 27.1493 23.5288C27.3828 24.2525 27.4523 25.0302 27.35 25.7848C27.2168 26.7864 26.746 27.7166 26.1227 28.5001C25.1231 29.7101 23.9382 30.7677 22.6183 31.6188C22.0027 32.0318 21.3234 32.3734 20.592 32.522C19.9398 32.659 19.2547 32.6358 18.6179 32.439C17.7495 32.1765 16.9332 31.6709 16.4064 30.9182C15.868 30.1502 15.6345 29.2065 15.5863 28.2801C15.5342 26.8192 15.6036 25.3467 15.8854 23.9109C16.0224 23.2683 16.1748 22.6198 16.4797 22.0331C16.9043 21.1994 17.6086 20.524 18.4307 20.084C19.0038 19.7733 19.6252 19.5301 20.2775 19.4626C21.3292 19.3487 22.3867 19.5996 23.3496 20.0087Z" fill="#FFC107"/>
</g>
</g>
</g>
<mask id="mask33_1019_97125" style="mask-type:luminance" maskUnits="userSpaceOnUse" x="16" y="19" width="12" height="7">
<path d="M16.2354 19.9653H27.1037V25.3998H16.2354V19.9653Z" fill="white"/>
</mask>
<g mask="url(#mask33_1019_97125)">
<mask id="mask34_1019_97125" style="mask-type:luminance" maskUnits="userSpaceOnUse" x="3" y="6" width="71" height="68">
<path d="M24.5678 6.24512L73.6933 31.4357L52.223 73.3099L3.09741 48.1174L24.5678 6.24512Z" fill="white"/>
</mask>
<g mask="url(#mask34_1019_97125)">
<mask id="mask35_1019_97125" style="mask-type:luminance" maskUnits="userSpaceOnUse" x="3" y="6" width="71" height="68">
<path d="M24.5678 6.24609L73.6933 31.4366L52.223 73.3109L3.09741 48.1184L24.5678 6.24609Z" fill="white"/>
</mask>
<g mask="url(#mask35_1019_97125)">
<path d="M21.5341 20.0751C22.5723 20.2295 23.5353 20.6869 24.4249 21.2253C25.2566 21.7503 26.0304 22.4411 26.4434 23.3501C26.6769 23.848 26.785 24.4 26.7734 24.948C26.7637 24.977 26.7444 25.033 26.7348 25.0619C26.563 24.2764 26.1694 23.5412 25.5982 22.9738C24.7163 22.088 23.5526 21.5515 22.3871 21.1481C21.6229 20.8741 20.7931 20.7429 19.9865 20.8818C19.1104 21.0304 18.2902 21.4916 17.7055 22.1632C17.4295 22.4759 17.1999 22.829 17.0127 23.2034C16.868 23.4949 16.7445 23.7959 16.648 24.1066C16.6229 23.9503 16.6808 23.7978 16.7097 23.6473C16.8468 23.0278 17.0146 22.3987 17.3717 21.866C17.8386 21.1288 18.572 20.5846 19.3844 20.2816C20.0656 20.0134 20.8162 19.9671 21.5341 20.0751Z" fill="#FFC107"/>
</g>
</g>
</g>
<mask id="mask36_1019_97125" style="mask-type:luminance" maskUnits="userSpaceOnUse" x="16" y="20" width="12" height="11">
<path d="M16.7317 20.459H27.106V30.3399H16.7317V20.459Z" fill="white"/>
</mask>
<g mask="url(#mask36_1019_97125)">
<mask id="mask37_1019_97125" style="mask-type:luminance" maskUnits="userSpaceOnUse" x="3" y="6" width="71" height="68">
<path d="M24.5705 6.24609L73.696 31.4366L52.2257 73.3109L3.1001 48.1184L24.5705 6.24609Z" fill="white"/>
</mask>
<g mask="url(#mask37_1019_97125)">
<mask id="mask38_1019_97125" style="mask-type:luminance" maskUnits="userSpaceOnUse" x="3" y="6" width="71" height="68">
<path d="M24.5705 6.24756L73.696 31.4381L52.2257 73.3123L3.1001 48.1199L24.5705 6.24756Z" fill="white"/>
</mask>
<g mask="url(#mask38_1019_97125)">
<path d="M19.9112 21.4814C19.0216 21.7458 18.2941 22.3846 17.7383 23.1083C18.6009 22.5718 19.5311 22.1144 20.5365 21.933C21.4299 21.7516 22.362 21.8114 23.2285 22.0912C22.2617 21.4775 21.0363 21.1302 19.9112 21.4814ZM22.3909 21.1495C23.5565 21.5528 24.7201 22.0893 25.602 22.9751C26.1732 23.5425 26.5669 24.2778 26.7387 25.0632C26.8197 25.3566 26.7695 25.6615 26.7174 25.9568C26.6538 26.2848 26.536 26.6033 26.401 26.9082C26.0459 27.5971 25.4998 28.1568 24.971 28.7126C24.6121 29.06 24.2396 29.39 23.873 29.7296C23.8633 29.7316 23.8421 29.7354 23.8325 29.7374C23.6048 29.774 23.4099 29.9072 23.1937 29.9767C22.5666 30.1812 21.8931 30.2739 21.2408 30.1658C20.2914 30.0539 19.4249 29.5463 18.7746 28.8593C17.7769 27.8056 17.254 26.3833 17.0938 24.959C17.0455 24.5576 17.0301 24.1523 17.0436 23.7471C17.0513 23.5656 17.0475 23.3842 17.0166 23.2048C17.2038 22.8304 17.4334 22.4772 17.7094 22.1646C18.2941 21.493 19.1142 21.0317 19.9903 20.8831C20.797 20.7442 21.6268 20.8754 22.3909 21.1495Z" fill="#FFC107"/>
</g>
</g>
</g>
<mask id="mask39_1019_97125" style="mask-type:luminance" maskUnits="userSpaceOnUse" x="17" y="20" width="7" height="4">
<path d="M17.7188 20.9526H23.6469V23.4229H17.7188V20.9526Z" fill="white"/>
</mask>
<g mask="url(#mask39_1019_97125)">
<mask id="mask40_1019_97125" style="mask-type:luminance" maskUnits="userSpaceOnUse" x="3" y="6" width="71" height="68">
<path d="M24.5705 6.24609L73.696 31.4366L52.2257 73.3109L3.1001 48.1184L24.5705 6.24609Z" fill="white"/>
</mask>
<g mask="url(#mask40_1019_97125)">
<mask id="mask41_1019_97125" style="mask-type:luminance" maskUnits="userSpaceOnUse" x="3" y="6" width="71" height="68">
<path d="M24.5705 6.24756L73.696 31.4381L52.2257 73.3123L3.1001 48.1199L24.5705 6.24756Z" fill="white"/>
</mask>
<g mask="url(#mask41_1019_97125)">
<path d="M19.9102 21.4835C21.0352 21.1323 22.2606 21.4797 23.2274 22.0934C22.361 21.8135 21.4289 21.7537 20.5354 21.9351C19.53 22.1165 18.5999 22.5739 17.7373 23.1104C18.2931 22.3867 19.0206 21.7479 19.9102 21.4835Z" fill="#FFC107"/>
</g>
</g>
</g>
<mask id="mask42_1019_97125" style="mask-type:luminance" maskUnits="userSpaceOnUse" x="16" y="22" width="9" height="11">
<path d="M16.2354 22.9321H24.1396V32.319H16.2354V22.9321Z" fill="white"/>
</mask>
<g mask="url(#mask42_1019_97125)">
<mask id="mask43_1019_97125" style="mask-type:luminance" maskUnits="userSpaceOnUse" x="3" y="6" width="71" height="68">
<path d="M24.5678 6.24512L73.6933 31.4357L52.223 73.3099L3.09741 48.1174L24.5678 6.24512Z" fill="white"/>
</mask>
<g mask="url(#mask43_1019_97125)">
<mask id="mask44_1019_97125" style="mask-type:luminance" maskUnits="userSpaceOnUse" x="3" y="6" width="71" height="68">
<path d="M24.5678 6.24609L73.6933 31.4366L52.223 73.3109L3.09741 48.1184L24.5678 6.24609Z" fill="white"/>
</mask>
<g mask="url(#mask44_1019_97125)">
<path d="M17.0131 23.2041C17.0439 23.3836 17.0478 23.565 17.0401 23.7464C17.0266 24.1517 17.042 24.5569 17.0903 24.9584C17.2504 26.3826 17.7734 27.8049 18.7711 28.8586C19.4214 29.5456 20.2879 30.0532 21.2373 30.1651C21.8895 30.2732 22.563 30.1806 23.1902 29.976C23.4063 29.9065 23.6012 29.7734 23.8289 29.7367C23.3986 30.1207 22.9258 30.4507 22.4627 30.7943C21.8008 31.2864 21.0713 31.7206 20.257 31.8904C19.5082 32.0525 18.6977 31.9252 18.0436 31.5276C17.646 31.2845 17.291 30.966 17.0266 30.582C16.6078 29.9992 16.4129 29.2851 16.3492 28.5768C16.2238 27.0831 16.3357 25.572 16.6484 24.1073C16.7448 23.7966 16.8683 23.4955 17.0131 23.2041Z" fill="#FFC107"/>
</g>
</g>
</g>
<mask id="mask45_1019_97125" style="mask-type:luminance" maskUnits="userSpaceOnUse" x="53" y="39" width="14" height="14">
<path d="M65.6343 39.7363V52.0752H54.2837V39.7363H65.6343Z" fill="white" stroke="white"/>
</mask>
<g mask="url(#mask45_1019_97125)">
<mask id="mask46_1019_97125" style="mask-type:luminance" maskUnits="userSpaceOnUse" x="3" y="6" width="71" height="68">
<path d="M73.0229 31.6533L52.0083 72.6377L3.77295 47.9014L24.7866 6.91895L73.0229 31.6533Z" fill="white" stroke="white"/>
</mask>
<g mask="url(#mask46_1019_97125)">
<mask id="mask47_1019_97125" style="mask-type:luminance" maskUnits="userSpaceOnUse" x="3" y="6" width="71" height="68">
<path d="M73.0225 31.6523L52.0078 72.6367L3.77246 47.9004L24.7861 6.91797L73.0225 31.6523Z" fill="white" stroke="white"/>
</mask>
<g mask="url(#mask47_1019_97125)">
<mask id="mask48_1019_97125" style="mask-type:luminance" maskUnits="userSpaceOnUse" x="51" y="37" width="17" height="18">
<path d="M67.1401 43.1245L61.5259 54.0786L52.0356 49.2114L57.6499 38.2583L67.1401 43.1245Z" fill="white" stroke="white"/>
</mask>
<g mask="url(#mask48_1019_97125)">
<mask id="path-66-inside-1_1019_97125" fill="white">
<path d="M59.3203 39.9833C58.5947 40.0103 57.8904 40.2651 57.2748 40.6414C57.213 40.6839 57.1301 40.7167 57.1166 40.8016C56.7518 40.9849 56.472 41.3014 56.2212 41.614C55.812 42.1428 55.5921 42.7835 55.4473 43.4281C55.2331 44.285 55.1559 45.165 55.0672 46.0392C55.071 46.047 55.0787 46.0643 55.0826 46.072C55.0189 46.7803 55.0286 47.4963 55.0421 48.2084C55.0749 48.9688 55.2254 49.7465 55.6326 50.4007C56.0494 51.0781 56.7383 51.5799 57.5122 51.7632C58.3342 51.9871 59.2219 51.8462 59.9822 51.4795C60.5862 51.1823 61.1304 50.7809 61.6727 50.3853C62.4349 49.8063 63.1644 49.1753 63.7935 48.4554C63.8958 48.3879 63.9459 48.2682 64.0193 48.1737C64.0887 48.1621 64.1273 48.0965 64.1736 48.0502C64.5885 47.5658 64.9455 47.0254 65.1771 46.431C65.4646 45.7112 65.5418 44.9103 65.4106 44.148C65.2775 43.4455 64.9262 42.7951 64.4477 42.2702C63.7414 41.4944 62.8209 40.9521 61.8714 40.5256C61.0725 40.1686 60.1984 39.9505 59.3203 39.9833ZM61.9641 39.9428C62.8383 40.3288 63.6931 40.7881 64.411 41.4288C65.0825 42.0097 65.6325 42.7585 65.8853 43.6172C66.1227 44.4413 66.1613 45.3252 65.9683 46.1627C65.7715 47.0235 65.3334 47.8128 64.7854 48.496C63.6912 49.8121 62.3751 50.9411 60.9124 51.8308C60.2447 52.2206 59.4998 52.5024 58.724 52.5545C57.9444 52.6143 57.1571 52.4174 56.472 52.0488C55.7291 51.6841 55.1193 51.0569 54.7719 50.3062C54.3956 49.5169 54.276 48.6349 54.2682 47.7684C54.247 46.1261 54.3628 44.4664 54.8202 42.882C55.0498 42.0849 55.4801 41.34 56.0938 40.7784C56.665 40.2438 57.3713 39.8694 58.1065 39.6108C59.3724 39.1901 60.7618 39.4333 61.9641 39.9428Z"/>
</mask>
<path d="M59.3203 39.9833C58.5947 40.0103 57.8904 40.2651 57.2748 40.6414C57.213 40.6839 57.1301 40.7167 57.1166 40.8016C56.7518 40.9849 56.472 41.3014 56.2212 41.614C55.812 42.1428 55.5921 42.7835 55.4473 43.4281C55.2331 44.285 55.1559 45.165 55.0672 46.0392C55.071 46.047 55.0787 46.0643 55.0826 46.072C55.0189 46.7803 55.0286 47.4963 55.0421 48.2084C55.0749 48.9688 55.2254 49.7465 55.6326 50.4007C56.0494 51.0781 56.7383 51.5799 57.5122 51.7632C58.3342 51.9871 59.2219 51.8462 59.9822 51.4795C60.5862 51.1823 61.1304 50.7809 61.6727 50.3853C62.4349 49.8063 63.1644 49.1753 63.7935 48.4554C63.8958 48.3879 63.9459 48.2682 64.0193 48.1737C64.0887 48.1621 64.1273 48.0965 64.1736 48.0502C64.5885 47.5658 64.9455 47.0254 65.1771 46.431C65.4646 45.7112 65.5418 44.9103 65.4106 44.148C65.2775 43.4455 64.9262 42.7951 64.4477 42.2702C63.7414 41.4944 62.8209 40.9521 61.8714 40.5256C61.0725 40.1686 60.1984 39.9505 59.3203 39.9833ZM61.9641 39.9428C62.8383 40.3288 63.6931 40.7881 64.411 41.4288C65.0825 42.0097 65.6325 42.7585 65.8853 43.6172C66.1227 44.4413 66.1613 45.3252 65.9683 46.1627C65.7715 47.0235 65.3334 47.8128 64.7854 48.496C63.6912 49.8121 62.3751 50.9411 60.9124 51.8308C60.2447 52.2206 59.4998 52.5024 58.724 52.5545C57.9444 52.6143 57.1571 52.4174 56.472 52.0488C55.7291 51.6841 55.1193 51.0569 54.7719 50.3062C54.3956 49.5169 54.276 48.6349 54.2682 47.7684C54.247 46.1261 54.3628 44.4664 54.8202 42.882C55.0498 42.0849 55.4801 41.34 56.0938 40.7784C56.665 40.2438 57.3713 39.8694 58.1065 39.6108C59.3724 39.1901 60.7618 39.4333 61.9641 39.9428Z" fill="#FFC107"/>
<path d="M59.3203 39.9833L59.3575 40.9826L59.3577 40.9826L59.3203 39.9833ZM57.2748 40.6414L56.7532 39.7882L56.7303 39.8022L56.7082 39.8174L57.2748 40.6414ZM57.1166 40.8016L57.5657 41.695L58.0236 41.4648L58.1041 40.9587L57.1166 40.8016ZM56.2212 41.614L55.4412 40.9882L55.4357 40.9951L55.4302 41.0021L56.2212 41.614ZM55.4473 43.4281L56.4175 43.6706L56.4204 43.659L56.423 43.6472L55.4473 43.4281ZM55.0672 46.0392L54.0723 45.9382L54.043 46.2269L54.1727 46.4864L55.0672 46.0392ZM55.0826 46.072L56.0786 46.1616L56.104 45.8788L55.977 45.6248L55.0826 46.072ZM55.0421 48.2084L54.0423 48.2274L54.0425 48.2394L54.043 48.2515L55.0421 48.2084ZM55.6326 50.4007L56.4843 49.8767L56.4816 49.8723L55.6326 50.4007ZM57.5122 51.7632L57.7749 50.7984L57.7589 50.794L57.7427 50.7902L57.5122 51.7632ZM59.9822 51.4795L60.4166 52.3803L60.4237 52.3768L59.9822 51.4795ZM61.6727 50.3853L62.2621 51.1931L62.2699 51.1875L62.2775 51.1816L61.6727 50.3853ZM63.7935 48.4554L63.2424 47.621L63.1295 47.6955L63.0405 47.7974L63.7935 48.4554ZM64.0193 48.1737L63.8549 47.1873L63.4688 47.2516L63.229 47.5609L64.0193 48.1737ZM64.1736 48.0502L64.8808 48.7572L64.908 48.73L64.9331 48.7007L64.1736 48.0502ZM65.1771 46.431L64.2484 46.06L64.2453 46.068L65.1771 46.431ZM65.4106 44.148L66.3961 43.9783L66.3947 43.97L66.3931 43.9617L65.4106 44.148ZM64.4477 42.2702L63.7082 42.9434L63.7087 42.9439L64.4477 42.2702ZM61.8714 40.5256L62.2812 39.6134L62.2795 39.6126L61.8714 40.5256ZM61.9641 39.9428L62.368 39.028L62.3612 39.025L62.3543 39.022L61.9641 39.9428ZM64.411 41.4288L63.7451 42.1748L63.7509 42.18L63.7568 42.1851L64.411 41.4288ZM65.8853 43.6172L66.8463 43.3405L66.8446 43.3349L65.8853 43.6172ZM65.9683 46.1627L64.9938 45.9382L64.9935 45.9398L65.9683 46.1627ZM64.7854 48.496L65.5543 49.1352L65.5599 49.1285L65.5654 49.1217L64.7854 48.496ZM60.9124 51.8308L61.4166 52.6943L61.4243 52.6898L61.432 52.6851L60.9124 51.8308ZM58.724 52.5545L58.657 51.5567L58.6475 51.5574L58.724 52.5545ZM56.472 52.0488L56.9458 51.1682L56.9294 51.1594L56.9127 51.1512L56.472 52.0488ZM54.7719 50.3062L55.6795 49.8862L55.6746 49.8758L54.7719 50.3062ZM54.2682 47.7684L55.2682 47.7595L55.2682 47.7555L54.2682 47.7684ZM54.8202 42.882L55.7809 43.1593L55.7811 43.1588L54.8202 42.882ZM56.0938 40.7784L56.7689 41.5162L56.7771 41.5085L56.0938 40.7784ZM58.1065 39.6108L57.7911 38.6619L57.7829 38.6646L57.7747 38.6675L58.1065 39.6108ZM59.3203 39.9833L59.2831 38.984C58.3503 39.0187 57.481 39.3433 56.7532 39.7882L57.2748 40.6414L57.7964 41.4946C58.2998 41.1868 58.8392 41.0019 59.3575 40.9826L59.3203 39.9833ZM57.2748 40.6414L56.7082 39.8174C56.7179 39.8107 56.7361 39.7994 56.6977 39.8233C56.6756 39.8371 56.6167 39.8736 56.5529 39.9247C56.4128 40.0368 56.189 40.267 56.129 40.6445L57.1166 40.8016L58.1041 40.9587C58.0829 41.092 58.0319 41.2108 57.9657 41.3083C57.9036 41.3998 57.8384 41.4575 57.8023 41.4864C57.7686 41.5134 57.7429 41.5285 57.7541 41.5215C57.7562 41.5202 57.7583 41.5189 57.7632 41.5159C57.7673 41.5134 57.7737 41.5094 57.7807 41.5051C57.7942 41.4966 57.8162 41.4827 57.8413 41.4654L57.2748 40.6414ZM57.1166 40.8016L56.6674 39.9081C56.0911 40.1978 55.695 40.6719 55.4412 40.9882L56.2212 41.614L57.0011 42.2399C57.249 41.9309 57.4126 41.772 57.5657 41.695L57.1166 40.8016ZM56.2212 41.614L55.4302 41.0021C54.8912 41.6988 54.6299 42.5039 54.4716 43.209L55.4473 43.4281L56.423 43.6472C56.5542 43.0632 56.7328 42.5869 57.0121 42.226L56.2212 41.614ZM55.4473 43.4281L54.4772 43.1856C54.2416 44.128 54.1584 45.0901 54.0723 45.9382L55.0672 46.0392L56.062 46.1403C56.1535 45.2399 56.2246 44.442 56.4175 43.6706L55.4473 43.4281ZM55.0672 46.0392L54.1727 46.4864C54.1698 46.4805 54.1676 46.476 54.1667 46.4742C54.1657 46.472 54.1651 46.4707 54.165 46.4704C54.1649 46.4704 54.1652 46.4709 54.1669 46.4747C54.1681 46.4772 54.1707 46.4829 54.1734 46.4887C54.1748 46.4917 54.1767 46.4958 54.1789 46.5004C54.181 46.5047 54.1842 46.5114 54.1882 46.5193L55.0826 46.072L55.977 45.6248C55.98 45.6308 55.9821 45.6352 55.983 45.6371C55.9841 45.6392 55.9847 45.6406 55.9848 45.6408C55.9848 45.6409 55.9846 45.6403 55.9829 45.6366C55.9817 45.6341 55.979 45.6284 55.9764 45.6226C55.9749 45.6196 55.973 45.6155 55.9708 45.6109C55.9688 45.6066 55.9655 45.5999 55.9616 45.592L55.0672 46.0392ZM55.0826 46.072L54.0866 45.9825C54.0174 46.7521 54.0288 47.5192 54.0423 48.2274L55.0421 48.2084L56.0419 48.1894C56.0283 47.4734 56.0204 46.8085 56.0786 46.1616L55.0826 46.072ZM55.0421 48.2084L54.043 48.2515C54.0796 49.0995 54.2494 50.0708 54.7836 50.9291L55.6326 50.4007L56.4816 49.8723C56.2014 49.4222 56.0702 48.838 56.0411 48.1653L55.0421 48.2084ZM55.6326 50.4007L54.7809 50.9248C55.3355 51.826 56.2466 52.4911 57.2816 52.7363L57.5122 51.7632L57.7427 50.7902C57.23 50.6687 56.7633 50.3302 56.4843 49.8767L55.6326 50.4007ZM57.5122 51.7632L57.2494 52.7281C58.3486 53.0274 59.4848 52.8296 60.4166 52.3803L59.9822 51.4795L59.5478 50.5788C58.959 50.8628 58.3199 50.9468 57.7749 50.7984L57.5122 51.7632ZM59.9822 51.4795L60.4237 52.3768C61.1201 52.0341 61.7362 51.5768 62.2621 51.1931L61.6727 50.3853L61.0833 49.5774C60.5247 49.985 60.0524 50.3305 59.5407 50.5823L59.9822 51.4795ZM61.6727 50.3853L62.2775 51.1816C63.0714 50.5786 63.8575 49.9018 64.5464 49.1135L63.7935 48.4554L63.0405 47.7974C62.4712 48.4488 61.7984 49.034 61.0678 49.589L61.6727 50.3853ZM63.7935 48.4554L64.3446 49.2899C64.557 49.1496 64.6826 48.9765 64.7413 48.8912C64.7684 48.8518 64.7995 48.8029 64.806 48.7929C64.8194 48.7722 64.8178 48.7758 64.8095 48.7865L64.0193 48.1737L63.229 47.5609C63.2057 47.5909 63.1858 47.6188 63.1695 47.6424C63.1534 47.6657 63.1394 47.6871 63.1289 47.7033C63.1236 47.7114 63.1185 47.7192 63.1145 47.7255C63.1102 47.7322 63.1069 47.7373 63.1038 47.7421C63.0975 47.7518 63.0945 47.7562 63.0932 47.7582C63.0898 47.763 63.1005 47.7467 63.1226 47.7225C63.146 47.6968 63.1854 47.6586 63.2424 47.621L63.7935 48.4554ZM64.0193 48.1737L64.1837 49.1601C64.5085 49.1059 64.7147 48.9277 64.8051 48.8391C64.8489 48.7962 64.8844 48.755 64.893 48.7451C64.9106 48.725 64.8979 48.7401 64.8808 48.7572L64.1736 48.0502L63.4665 47.3431C63.4262 47.3834 63.3913 47.4241 63.3865 47.4296C63.3727 47.4455 63.3855 47.43 63.4052 47.4107C63.4473 47.3695 63.5995 47.2298 63.8549 47.1873L64.0193 48.1737ZM64.1736 48.0502L64.9331 48.7007C65.4003 48.1552 65.8262 47.5195 66.1089 46.794L65.1771 46.431L64.2453 46.068C64.0648 46.5313 63.7767 46.9763 63.4141 47.3996L64.1736 48.0502ZM65.1771 46.431L66.1058 46.8019C66.464 45.905 66.5576 44.9166 66.3961 43.9783L65.4106 44.148L64.4251 44.3176C64.526 44.9039 64.4653 45.5173 64.2485 46.0601L65.1771 46.431ZM65.4106 44.148L66.3931 43.9617C66.2214 43.0561 65.7745 42.2413 65.1866 41.5965L64.4477 42.2702L63.7087 42.9439C64.078 43.349 64.3335 43.8349 64.4281 44.3342L65.4106 44.148ZM64.4477 42.2702L65.1871 41.597C64.3496 40.677 63.2892 40.0662 62.2812 39.6134L61.8714 40.5256L61.4617 41.4378C62.3525 41.838 63.1332 42.3118 63.7082 42.9434L64.4477 42.2702ZM61.8714 40.5256L62.2795 39.6126C61.3763 39.209 60.3489 38.9442 59.283 38.984L59.3203 39.9833L59.3577 40.9826C60.0478 40.9568 60.7687 41.1281 61.4634 41.4386L61.8714 40.5256ZM61.9641 39.9428L61.5602 40.8576C62.3941 41.2258 63.1402 41.635 63.7451 42.1748L64.411 41.4288L65.0769 40.6827C64.246 39.9412 63.2824 39.4317 62.368 39.028L61.9641 39.9428ZM64.411 41.4288L63.7568 42.1851C64.3181 42.6707 64.7391 43.2645 64.926 43.8996L65.8853 43.6172L66.8446 43.3349C66.526 42.2524 65.847 41.3487 65.0652 40.6725L64.411 41.4288ZM65.8853 43.6172L64.9244 43.894C65.118 44.5662 65.1461 45.2773 64.9938 45.9382L65.9683 46.1627L66.9428 46.3873C67.1765 45.373 67.1274 44.3164 66.8463 43.3405L65.8853 43.6172ZM65.9683 46.1627L64.9935 45.9398C64.8384 46.6178 64.4847 47.2727 64.0053 47.8702L64.7854 48.496L65.5654 49.1217C66.1822 48.3528 66.7045 47.4292 66.9431 46.3857L65.9683 46.1627ZM64.7854 48.496L64.0164 47.8567C62.9941 49.0864 61.7627 50.1431 60.3927 50.9764L60.9124 51.8308L61.432 52.6851C62.9875 51.7391 64.3883 50.5379 65.5543 49.1352L64.7854 48.496ZM60.9124 51.8308L60.4082 50.9672C59.8328 51.3031 59.2373 51.5177 58.657 51.5567L58.724 52.5545L58.7911 53.5522C59.7622 53.487 60.6565 53.1381 61.4166 52.6943L60.9124 51.8308ZM58.724 52.5545L58.6475 51.5574C58.0837 51.6007 57.4859 51.4588 56.9458 51.1682L56.472 52.0488L55.9982 52.9295C56.8283 53.3761 57.8051 53.6279 58.8005 53.5515L58.724 52.5545ZM56.472 52.0488L56.9127 51.1512C56.3772 50.8883 55.9313 50.4306 55.6795 49.8862L54.7719 50.3062L53.8644 50.7261C54.3072 51.6832 55.0809 52.4799 56.0313 52.9465L56.472 52.0488ZM54.7719 50.3062L55.6746 49.8758C55.3856 49.2696 55.2753 48.5504 55.2682 47.7595L54.2682 47.7684L53.2683 47.7773C53.2767 48.7194 53.4057 49.7641 53.8692 50.7365L54.7719 50.3062ZM54.2682 47.7684L55.2682 47.7555C55.2476 46.1629 55.3616 44.6121 55.7809 43.1593L54.8202 42.882L53.8594 42.6046C53.364 44.3207 53.2465 46.0893 53.2683 47.7813L54.2682 47.7684ZM54.8202 42.882L55.7811 43.1588C55.966 42.5169 56.307 41.9388 56.7689 41.5161L56.0938 40.7784L55.4187 40.0407C54.6532 40.7412 54.1336 41.653 53.8592 42.6051L54.8202 42.882ZM56.0938 40.7784L56.7771 41.5085C57.22 41.094 57.7934 40.781 58.4383 40.5542L58.1065 39.6108L57.7747 38.6675C56.9492 38.9579 56.11 39.3936 55.4105 40.0483L56.0938 40.7784ZM58.1065 39.6108L58.4219 40.5598C59.3721 40.244 60.4966 40.407 61.5739 40.8635L61.9641 39.9428L62.3543 39.022C61.0271 38.4596 59.3728 38.1362 57.7911 38.6619L58.1065 39.6108Z" fill="#FFC107" mask="url(#path-66-inside-1_1019_97125)"/>
</g>
</g>
</g>
</g>
<mask id="mask49_1019_97125" style="mask-type:luminance" maskUnits="userSpaceOnUse" x="56" y="39" width="10" height="10">
<path d="M65.1406 40.23V48.1226H57.248V40.23H65.1406Z" fill="white" stroke="white"/>
</mask>
<g mask="url(#mask49_1019_97125)">
<mask id="mask50_1019_97125" style="mask-type:luminance" maskUnits="userSpaceOnUse" x="3" y="6" width="71" height="68">
<path d="M73.0281 31.6548L52.0134 72.6392L3.77808 47.9028L24.7917 6.92041L73.0281 31.6548Z" fill="white" stroke="white"/>
</mask>
<g mask="url(#mask50_1019_97125)">
<mask id="mask51_1019_97125" style="mask-type:luminance" maskUnits="userSpaceOnUse" x="3" y="6" width="71" height="68">
<path d="M73.0271 31.6562L52.0125 72.6406L3.7771 47.9043L24.7908 6.92188L73.0271 31.6562Z" fill="white" stroke="white"/>
</mask>
<g mask="url(#mask51_1019_97125)">
<mask id="path-71-inside-2_1019_97125" fill="white">
<path d="M59.3256 39.9906C60.2036 39.9577 61.0778 40.1758 61.8767 40.5328C62.8262 40.9593 63.7466 41.5016 64.4529 42.2774C64.9315 42.8024 65.2827 43.4527 65.4159 44.1552C65.5471 44.9175 65.4699 45.7184 65.1824 46.4382C64.9508 47.0326 64.5938 47.573 64.1789 48.0574C64.1326 48.1037 64.094 48.1693 64.0245 48.1809C64.4549 47.5325 64.8003 46.8068 64.891 46.0272C64.9952 45.2244 64.8524 44.3868 64.4607 43.6747C64.1056 43.0166 63.5653 42.4724 62.9535 42.0459C62.0716 41.4167 61.1125 40.859 60.057 40.5811C59.3738 40.4035 58.6463 40.3572 57.9555 40.5251C57.6699 40.5907 57.392 40.693 57.1218 40.8088C57.1353 40.7239 57.2183 40.6911 57.2801 40.6486C57.8957 40.2723 58.6 40.0176 59.3256 39.9906Z"/>
</mask>
<path d="M59.3256 39.9906C60.2036 39.9577 61.0778 40.1758 61.8767 40.5328C62.8262 40.9593 63.7466 41.5016 64.4529 42.2774C64.9315 42.8024 65.2827 43.4527 65.4159 44.1552C65.5471 44.9175 65.4699 45.7184 65.1824 46.4382C64.9508 47.0326 64.5938 47.573 64.1789 48.0574C64.1326 48.1037 64.094 48.1693 64.0245 48.1809C64.4549 47.5325 64.8003 46.8068 64.891 46.0272C64.9952 45.2244 64.8524 44.3868 64.4607 43.6747C64.1056 43.0166 63.5653 42.4724 62.9535 42.0459C62.0716 41.4167 61.1125 40.859 60.057 40.5811C59.3738 40.4035 58.6463 40.3572 57.9555 40.5251C57.6699 40.5907 57.392 40.693 57.1218 40.8088C57.1353 40.7239 57.2183 40.6911 57.2801 40.6486C57.8957 40.2723 58.6 40.0176 59.3256 39.9906Z" fill="#FFC107"/>
<path d="M59.3256 39.9906L59.3628 40.9899L59.3629 40.9899L59.3256 39.9906ZM61.8767 40.5328L62.2865 39.6207L62.2847 39.6199L61.8767 40.5328ZM64.4529 42.2774L63.7135 42.9506L63.714 42.9512L64.4529 42.2774ZM65.4159 44.1552L66.4014 43.9856L66.4 43.9773L66.3984 43.969L65.4159 44.1552ZM65.1824 46.4382L64.2537 46.0673L64.2506 46.0752L65.1824 46.4382ZM64.1789 48.0574L64.886 48.7645L64.9133 48.7372L64.9384 48.7079L64.1789 48.0574ZM64.0245 48.1809L63.1913 47.628L61.9186 49.5457L64.1889 49.1673L64.0245 48.1809ZM64.891 46.0272L63.8992 45.8984L63.8977 45.9116L64.891 46.0272ZM64.4607 43.6747L63.5806 44.1495L63.5845 44.1567L64.4607 43.6747ZM62.9535 42.0459L62.3727 42.86L62.3816 42.8662L62.9535 42.0459ZM60.057 40.5811L60.3116 39.614L60.3085 39.6132L60.057 40.5811ZM57.9555 40.5251L58.1794 41.4998L58.1916 41.4968L57.9555 40.5251ZM57.1218 40.8088L56.1342 40.6517L55.8494 42.4421L57.5158 41.728L57.1218 40.8088ZM57.2801 40.6486L56.7585 39.7954L56.7356 39.8094L56.7135 39.8246L57.2801 40.6486ZM59.3256 39.9906L59.3629 40.9899C60.0531 40.9641 60.774 41.1354 61.4687 41.4458L61.8767 40.5328L62.2847 39.6199C61.3816 39.2163 60.3542 38.9514 59.2883 38.9913L59.3256 39.9906ZM61.8767 40.5328L61.467 41.445C62.3578 41.8452 63.1385 42.319 63.7135 42.9506L64.4529 42.2774L65.1924 41.6042C64.3548 40.6842 63.2945 40.0735 62.2865 39.6207L61.8767 40.5328ZM64.4529 42.2774L63.714 42.9512C64.0832 43.3562 64.3387 43.8422 64.4334 44.3414L65.4159 44.1552L66.3984 43.969C66.2267 43.0633 65.7798 42.2485 65.1919 41.6037L64.4529 42.2774ZM65.4159 44.1552L64.4304 44.3249C64.5313 44.9112 64.4705 45.5245 64.2537 46.0673L65.1824 46.4382L66.111 46.8092C66.4693 45.9123 66.5629 44.9238 66.4014 43.9856L65.4159 44.1552ZM65.1824 46.4382L64.2506 46.0752C64.0701 46.5385 63.782 46.9835 63.4194 47.4069L64.1789 48.0574L64.9384 48.7079C65.4056 48.1625 65.8315 47.5267 66.1142 46.8012L65.1824 46.4382ZM64.1789 48.0574L63.4718 47.3503C63.4314 47.3906 63.3966 47.4313 63.3918 47.4369C63.3779 47.4527 63.3908 47.4373 63.4105 47.418C63.4526 47.3767 63.6047 47.2371 63.8601 47.1945L64.0245 48.1809L64.1889 49.1673C64.5138 49.1132 64.72 48.9349 64.8104 48.8464C64.8542 48.8034 64.8897 48.7622 64.8983 48.7523C64.9159 48.7322 64.9032 48.7473 64.886 48.7645L64.1789 48.0574ZM64.0245 48.1809L64.8577 48.7339C65.3355 48.0139 65.7686 47.137 65.8843 46.1427L64.891 46.0272L63.8977 45.9116C63.832 46.4766 63.5742 47.051 63.1913 47.628L64.0245 48.1809ZM64.891 46.0272L65.8827 46.1559C66.0125 45.1553 65.8371 44.102 65.3368 43.1927L64.4607 43.6747L63.5845 44.1567C63.8677 44.6715 63.9778 45.2934 63.8993 45.8985L64.891 46.0272ZM64.4607 43.6747L65.3407 43.1998C64.8946 42.373 64.2331 41.7189 63.5254 41.2256L62.9535 42.0459L62.3816 42.8662C62.8974 43.2258 63.3165 43.6601 63.5806 44.1495L64.4607 43.6747ZM62.9535 42.0459L63.5343 41.2318C62.609 40.5717 61.5355 39.9363 60.3116 39.614L60.057 40.5811L59.8024 41.5481C60.6896 41.7817 61.5343 42.2618 62.3728 42.8599L62.9535 42.0459ZM60.057 40.5811L60.3085 39.6132C59.5053 39.4045 58.6061 39.3379 57.7193 39.5534L57.9555 40.5251L58.1916 41.4968C58.6865 41.3766 59.2424 41.4026 59.8054 41.5489L60.057 40.5811ZM57.9555 40.5251L57.7316 39.5505C57.3657 39.6346 57.0273 39.7613 56.7279 39.8897L57.1218 40.8088L57.5158 41.728C57.7566 41.6247 57.974 41.5469 58.1794 41.4997L57.9555 40.5251ZM57.1218 40.8088L58.1094 40.9659C58.0882 41.0992 58.0371 41.2181 57.971 41.3156C57.9088 41.4071 57.8437 41.4648 57.8076 41.4937C57.7738 41.5206 57.7482 41.5357 57.7594 41.5287C57.7615 41.5275 57.7636 41.5261 57.7685 41.5232C57.7726 41.5206 57.779 41.5166 57.7859 41.5123C57.7995 41.5039 57.8215 41.4899 57.8466 41.4727L57.2801 40.6486L56.7135 39.8246C56.7232 39.818 56.7413 39.8067 56.703 39.8305C56.6808 39.8443 56.622 39.8809 56.5581 39.932C56.4181 40.044 56.1943 40.2742 56.1342 40.6517L57.1218 40.8088ZM57.2801 40.6486L57.8016 41.5018C58.3051 41.1941 58.8445 41.0092 59.3628 40.9899L59.3256 39.9906L59.2884 38.9912C58.3556 39.026 57.4862 39.3505 56.7585 39.7954L57.2801 40.6486Z" fill="#FFC107" mask="url(#path-71-inside-2_1019_97125)"/>
</g>
</g>
</g>
<mask id="mask52_1019_97125" style="mask-type:luminance" maskUnits="userSpaceOnUse" x="54" y="40" width="12" height="11">
<path d="M64.6477 40.7236V50.0986H55.2737V40.7236H64.6477Z" fill="white" stroke="white"/>
</mask>
<g mask="url(#mask52_1019_97125)">
<mask id="mask53_1019_97125" style="mask-type:luminance" maskUnits="userSpaceOnUse" x="3" y="6" width="71" height="68">
<path d="M73.0308 31.6533L52.0161 72.6377L3.78076 47.9014L24.7944 6.91895L73.0308 31.6533Z" fill="white" stroke="white"/>
</mask>
<g mask="url(#mask53_1019_97125)">
<mask id="mask54_1019_97125" style="mask-type:luminance" maskUnits="userSpaceOnUse" x="3" y="6" width="71" height="68">
<path d="M73.0305 31.6523L52.0159 72.6367L3.78052 47.9004L24.7942 6.91797L73.0305 31.6523Z" fill="white" stroke="white"/>
</mask>
<g mask="url(#mask54_1019_97125)">
<path d="M58.0723 41.0049C58.665 40.8608 59.3068 40.8968 59.9297 41.0586C60.9007 41.3144 61.8022 41.8338 62.6621 42.4473L62.666 42.4502C62.7525 42.5105 62.8368 42.5739 62.9189 42.6387L62.5332 42.9561C62.9667 43.8529 63.2847 44.7884 63.3574 45.7412V45.7441C63.408 46.3513 63.3406 46.9712 63.1875 47.5801L63.665 47.8057C63.6453 47.8364 63.6267 47.8679 63.6064 47.8984C63.5846 47.9284 63.5665 47.9563 63.5527 47.9775C63.5311 48.0108 63.522 48.0251 63.5098 48.043C63.5084 48.0449 63.506 48.0462 63.5049 48.0479C63.3712 48.1204 63.2465 48.1972 63.1348 48.2695C62.9994 48.3572 62.8876 48.4329 62.7686 48.5029L62.7568 48.5098C62.0524 48.951 61.2796 49.2842 60.4766 49.4873C59.7249 49.6551 58.9421 49.6547 58.2266 49.4424H58.2275C57.4256 49.2016 56.7258 48.6293 56.2969 47.8945H56.2979C56.0008 47.3791 55.7805 46.827 55.6768 46.2598L55.6758 46.252L55.6494 46.1426C55.6313 46.0784 55.6057 46.0184 55.5811 45.96C55.6656 45.122 55.7446 44.3244 55.9365 43.5498L55.9395 43.5391C56.0774 42.9248 56.276 42.3657 56.6201 41.9209C56.8642 41.6173 57.083 41.385 57.3359 41.2549C57.5855 41.1486 57.8248 41.0618 58.0654 41.0068L58.0723 41.0049Z" fill="#FFC107" stroke="#FFC107"/>
</g>
</g>
</g>
<mask id="mask55_1019_97125" style="mask-type:luminance" maskUnits="userSpaceOnUse" x="62" y="42" width="3" height="7">
<path d="M64.1533 43.1938V47.6284H63.1777V43.1938H64.1533Z" fill="white" stroke="white"/>
</mask>
<g mask="url(#mask55_1019_97125)">
<mask id="mask56_1019_97125" style="mask-type:luminance" maskUnits="userSpaceOnUse" x="3" y="6" width="71" height="68">
<path d="M73.0305 31.6523L52.0159 72.6367L3.78052 47.9004L24.7942 6.91797L73.0305 31.6523Z" fill="white" stroke="white"/>
</mask>
<g mask="url(#mask56_1019_97125)">
<mask id="mask57_1019_97125" style="mask-type:luminance" maskUnits="userSpaceOnUse" x="3" y="6" width="71" height="68">
<path d="M73.0298 31.6509L52.0151 72.6353L3.77979 47.8989L24.7935 6.9165L73.0298 31.6509Z" fill="white" stroke="white"/>
</mask>
<g mask="url(#mask57_1019_97125)">
<mask id="path-80-inside-3_1019_97125" fill="white">
<path d="M62.9856 42.7388C63.551 43.1672 64.0624 43.7211 64.2805 44.412C64.458 44.9485 64.5313 45.5294 64.4136 46.0871C64.2766 46.666 64.0296 47.2218 63.6745 47.7024C63.8385 47.0501 63.9138 46.3746 63.8578 45.703C63.7787 44.6667 63.4352 43.669 62.9856 42.7388Z"/>
</mask>
<path d="M62.9856 42.7388C63.551 43.1672 64.0624 43.7211 64.2805 44.412C64.458 44.9485 64.5313 45.5294 64.4136 46.0871C64.2766 46.666 64.0296 47.2218 63.6745 47.7024C63.8385 47.0501 63.9138 46.3746 63.8578 45.703C63.7787 44.6667 63.4352 43.669 62.9856 42.7388Z" fill="#FFC107"/>
<path d="M62.9856 42.7388L63.5895 41.9417L62.0853 43.174L62.9856 42.7388ZM64.2805 44.412L63.3267 44.713L63.3311 44.7261L64.2805 44.412ZM64.4136 46.0871L65.3867 46.3174L65.3895 46.3055L65.3921 46.2936L64.4136 46.0871ZM63.6745 47.7024L62.7047 47.4585L64.4788 48.2967L63.6745 47.7024ZM63.8578 45.703L62.8607 45.7792L62.8613 45.7861L63.8578 45.703ZM62.9856 42.7388L62.3817 43.5358C62.865 43.902 63.1965 44.3 63.3268 44.713L64.2805 44.412L65.2341 44.111C64.9283 43.1422 64.237 42.4324 63.5895 41.9417L62.9856 42.7388ZM64.2805 44.412L63.3311 44.7261C63.4695 45.1443 63.5069 45.5407 63.4352 45.8806L64.4136 46.0871L65.3921 46.2936C65.5558 45.518 65.4465 44.7527 65.2298 44.0978L64.2805 44.412ZM64.4136 46.0871L63.4405 45.8568C63.332 46.3151 63.1387 46.7449 62.8703 47.1081L63.6745 47.7024L64.4788 48.2967C64.9205 47.6988 65.2212 47.017 65.3867 46.3174L64.4136 46.0871ZM63.6745 47.7024L64.6443 47.9463C64.8301 47.2074 64.9211 46.4203 64.8544 45.62L63.8578 45.703L62.8613 45.7861C62.9065 46.329 62.847 46.8928 62.7047 47.4585L63.6745 47.7024ZM63.8578 45.703L64.8549 45.6269C64.7631 44.4235 64.3678 43.3004 63.8859 42.3036L62.9856 42.7388L62.0853 43.174C62.5027 44.0376 62.7944 44.9099 62.8607 45.7792L63.8578 45.703Z" fill="#FFC107" mask="url(#path-80-inside-3_1019_97125)"/>
</g>
</g>
</g>
<mask id="mask58_1019_97125" style="mask-type:luminance" maskUnits="userSpaceOnUse" x="54" y="45" width="11" height="8">
<path d="M63.6604 46.1582V51.5811H55.2737V46.1582H63.6604Z" fill="white" stroke="white"/>
</mask>
<g mask="url(#mask58_1019_97125)">
<mask id="mask59_1019_97125" style="mask-type:luminance" maskUnits="userSpaceOnUse" x="3" y="6" width="71" height="68">
<path d="M73.0308 31.6533L52.0161 72.6377L3.78076 47.9014L24.7944 6.91895L73.0308 31.6533Z" fill="white" stroke="white"/>
</mask>
<g mask="url(#mask59_1019_97125)">
<mask id="mask60_1019_97125" style="mask-type:luminance" maskUnits="userSpaceOnUse" x="3" y="6" width="71" height="68">
<path d="M73.0305 31.6523L52.0159 72.6367L3.78052 47.9004L24.7942 6.91797L73.0305 31.6523Z" fill="white" stroke="white"/>
</mask>
<g mask="url(#mask60_1019_97125)">
<path d="M55.5818 48.6304C56.1348 49.459 56.969 50.1092 57.9402 50.4009H57.9421C58.8487 50.67 59.8108 50.6625 60.7029 50.4614L60.7146 50.4585L60.7166 50.4575C60.405 50.6724 60.0963 50.8696 59.7693 51.0308C59.0948 51.356 58.3316 51.4688 57.6482 51.2827L57.6326 51.2788L57.3943 51.2085C56.8481 51.0182 56.3677 50.6349 56.0632 50.1401L56.0613 50.1372C55.7896 49.7019 55.6457 49.1833 55.5818 48.6304Z" fill="#FFC107" stroke="#FFC107"/>
</g>
</g>
</g>
<mask id="mask61_1019_97125" style="mask-type:luminance" maskUnits="userSpaceOnUse" x="17" y="32" width="36" height="29">
<path d="M17.7188 32.3174H52.7938V60.972H17.7188V32.3174Z" fill="white"/>
</mask>
<g mask="url(#mask61_1019_97125)">
<mask id="mask62_1019_97125" style="mask-type:luminance" maskUnits="userSpaceOnUse" x="3" y="6" width="71" height="68">
<path d="M24.5705 6.24512L73.696 31.4357L52.2257 73.3099L3.1001 48.1174L24.5705 6.24512Z" fill="white"/>
</mask>
<g mask="url(#mask62_1019_97125)">
<mask id="mask63_1019_97125" style="mask-type:luminance" maskUnits="userSpaceOnUse" x="3" y="6" width="71" height="68">
<path d="M24.5705 6.24609L73.696 31.4366L52.2257 73.3109L3.1001 48.1184L24.5705 6.24609Z" fill="white"/>
</mask>
<g mask="url(#mask63_1019_97125)">
<mask id="mask64_1019_97125" style="mask-type:luminance" maskUnits="userSpaceOnUse" x="11" y="29" width="46" height="41">
<path d="M23.6828 29.0039L56.2009 45.6799L44.1805 69.12L11.6643 52.4441L23.6828 29.0039Z" fill="white"/>
</mask>
<g mask="url(#mask64_1019_97125)">
<path d="M30.7164 33.5059C30.6508 33.4847 30.5832 33.4789 30.5157 33.4828C30.0274 33.3071 29.5199 33.1701 28.9989 33.1682C27.8951 33.1257 26.8125 33.4094 25.7743 33.7529C24.958 34.0077 24.1842 34.3821 23.4489 34.8144C23.4026 34.8433 23.3525 34.8703 23.3177 34.9147C23.0244 35.0614 22.7677 35.2698 22.4995 35.4609C21.276 36.4026 20.2359 37.6069 19.5817 39.0138C18.8967 40.4882 18.584 42.144 18.7153 43.767C18.804 45.0523 19.1707 46.3067 19.7072 47.4743C20.3961 48.9641 21.4131 50.2822 22.5806 51.4286C23.3293 52.1504 24.053 52.8972 24.7496 53.6692C25.7839 54.8502 26.7546 56.1027 27.5014 57.4903C27.9028 58.214 28.2347 58.9705 28.5647 59.7251C29.8943 59.2793 31.2972 59.0921 32.6963 59.0709C34.5006 59.0458 36.2991 59.2542 38.0745 59.561C38.966 59.7289 39.8672 59.8563 40.7742 59.8853C42.2234 59.9432 43.6804 59.7386 45.0582 59.2928C45.3188 59.204 45.5966 59.1577 45.8417 59.0245L45.778 59.0052C47.2639 58.3838 48.609 57.4015 49.6067 56.1317C50.1566 55.3945 50.668 54.609 50.9575 53.729C51.0462 53.5746 51.1022 53.4067 51.1562 53.2388C51.8895 50.9944 51.7603 48.5241 50.9826 46.3106C50.5619 44.9867 49.7745 43.7902 48.746 42.8619C47.3874 41.6229 45.6121 40.8529 43.7808 40.6947C42.1289 40.5538 40.4423 40.9378 38.9988 41.7484C38.2906 42.1382 37.6635 42.6516 36.9938 43.1012C36.9514 42.1807 37.0228 41.2505 36.8665 40.3376C36.6368 38.8208 35.9769 37.3676 34.9869 36.1961C33.8831 34.8916 32.3663 33.9459 30.7164 33.5059ZM29.7438 32.7301C30.7106 32.8768 31.6658 33.1373 32.5496 33.5619C34.0606 34.274 35.4095 35.3644 36.3609 36.7442C37.2505 38.0295 37.8391 39.529 38.0243 41.0845C39.7746 40.1215 41.8298 39.7201 43.8116 39.969C45.7742 40.2354 47.6653 41.0903 49.1242 42.4354C49.761 43.0086 50.3265 43.6647 50.778 44.3942C51.5017 45.5637 51.9455 46.8895 52.2157 48.2327C52.5785 50.0757 52.4897 52.0191 51.8953 53.8062C51.3241 55.5315 50.257 57.087 48.8502 58.2391C47.7271 59.1982 46.3743 59.8582 44.9714 60.2944C42.6885 60.966 40.2435 60.9293 37.9317 60.4333C36.1833 60.1207 34.4099 59.893 32.6307 59.92C31.6832 59.9451 30.7318 60.0435 29.8113 60.2847C29.2189 60.4295 28.6515 60.6553 28.0784 60.8598C27.7986 60.1728 27.54 59.4781 27.2197 58.8084C26.8144 57.9457 26.3416 57.114 25.7897 56.3362C24.7573 54.8888 23.5358 53.5881 22.2621 52.353C20.8013 51.0175 19.5586 49.4215 18.75 47.6094C18.2753 46.5344 17.9472 45.39 17.8122 44.2205C17.6481 42.8272 17.789 41.4029 18.1923 40.0597C18.6767 38.4444 19.6165 36.9777 20.8399 35.8179C22.0692 34.6194 23.6033 33.7626 25.2262 33.2222C25.8669 33.0157 26.5192 32.8266 27.1869 32.7301C28.0321 32.6105 28.8966 32.6047 29.7438 32.7301Z" fill="#FFC107"/>
</g>
</g>
</g>
</g>
<mask id="mask65_1019_97125" style="mask-type:luminance" maskUnits="userSpaceOnUse" x="20" y="36" width="29" height="23">
<path d="M20.1863 36.7646H48.8392V58.5027H20.1863V36.7646Z" fill="white"/>
</mask>
<g mask="url(#mask65_1019_97125)">
<mask id="mask66_1019_97125" style="mask-type:luminance" maskUnits="userSpaceOnUse" x="3" y="6" width="71" height="68">
<path d="M24.5746 6.24512L73.7002 31.4357L52.2298 73.3099L3.10425 48.1174L24.5746 6.24512Z" fill="white"/>
</mask>
<g mask="url(#mask66_1019_97125)">
<mask id="mask67_1019_97125" style="mask-type:luminance" maskUnits="userSpaceOnUse" x="3" y="6" width="71" height="68">
<path d="M24.5739 6.24609L73.6994 31.4366L52.2291 73.3109L3.10352 48.1184L24.5739 6.24609Z" fill="white"/>
</mask>
<g mask="url(#mask67_1019_97125)">
<path d="M27.3179 37.3999C26.7486 37.4848 26.189 37.6296 25.6429 37.8148C24.788 38.1236 23.9602 38.5385 23.2597 39.1233C22.6364 39.6424 22.0787 40.2522 21.6889 40.9682C21.2045 41.8174 20.9729 42.7919 20.9362 43.7646C20.9054 44.9071 21.1736 46.0457 21.6464 47.082C22.0748 48.0142 22.6479 48.8768 23.3214 49.6507C23.8714 50.2953 24.514 50.8511 25.1335 51.4281C26.2874 52.5339 27.4086 53.6899 28.3349 54.9964C28.8637 55.7491 29.3191 56.5519 29.7224 57.3779C31.3453 56.9861 33.0396 57.0131 34.6876 57.2042C35.8165 57.3335 36.9396 57.5265 38.0512 57.7716C39.6683 58.1151 41.3607 58.1884 42.9817 57.8237C44.373 57.4937 45.7084 56.8086 46.6733 55.7375C47.4162 54.9134 47.9141 53.8771 48.109 52.7867C48.4178 51.2563 48.1206 49.6623 47.5359 48.2342C47.2985 47.6205 46.955 47.0512 46.5459 46.5378C45.2781 44.9804 43.3754 43.9672 41.3819 43.7627C40.5463 43.6816 39.703 43.7742 38.8925 43.9807C38.2577 44.1448 37.6517 44.4208 37.0998 44.7758C36.6174 45.0846 36.1369 45.3973 35.6544 45.708C35.6274 45.1483 35.5908 44.5887 35.5657 44.029C35.5001 42.6762 34.9906 41.3619 34.1782 40.285C33.6861 39.627 33.0628 39.075 32.3816 38.6157C30.9073 37.6373 29.0817 37.1529 27.3179 37.3999ZM29.1589 36.8537C30.913 37.0795 32.5765 37.9267 33.7942 39.2101C34.2419 39.6926 34.6297 40.2368 34.9288 40.8235C35.1662 41.3349 35.3958 41.8579 35.5058 42.4137C35.6564 43.0081 35.6834 43.6218 35.7046 44.2316C35.7393 44.6446 35.7278 45.0615 35.7799 45.4745C36.2218 45.1985 36.6502 44.9013 37.0863 44.6157C37.6498 44.2297 38.2596 43.9132 38.908 43.6971C39.5815 43.506 40.2762 43.367 40.9805 43.3593C41.9049 43.3381 42.8254 43.5253 43.6899 43.8495C45.3746 44.4864 46.8624 45.7196 47.6883 47.3349C47.9778 47.9061 48.1669 48.5198 48.3522 49.1296C48.5432 49.8321 48.6416 50.5577 48.6551 51.2853C48.6648 52.173 48.5046 53.0608 48.1862 53.8867C47.8775 54.734 47.3564 55.4905 46.737 56.137C46.05 56.8259 45.2125 57.3605 44.3093 57.7214C43.7015 57.9877 43.055 58.1537 42.4008 58.2521C41.5209 58.4007 40.6216 58.4123 39.7339 58.3447C39.4116 58.3235 39.0932 58.256 38.769 58.2502C37.7617 58.034 36.7505 57.8256 35.7297 57.6809C34.9674 57.5902 34.2052 57.4937 33.4391 57.4531C32.123 57.3972 30.7953 57.4744 29.512 57.7831C28.8791 56.4612 28.111 55.201 27.1674 54.0797C26.5402 53.329 25.8783 52.6072 25.174 51.926C24.5545 51.3104 23.883 50.7488 23.2963 50.0984C22.042 48.7359 21.0636 47.0647 20.7317 45.2255C20.4731 43.8727 20.6294 42.4446 21.1852 41.1863C21.5461 40.3796 22.0767 39.6521 22.7271 39.0538C23.7884 38.0464 25.1431 37.3883 26.5537 37.0371C27.4009 36.819 28.2886 36.7341 29.1589 36.8537Z" fill="#FFC107"/>
</g>
</g>
</g>
<mask id="mask68_1019_97125" style="mask-type:luminance" maskUnits="userSpaceOnUse" x="30" y="33" width="22" height="22">
<path d="M30.0703 33.3086H51.807V54.0585H30.0703V33.3086Z" fill="white"/>
</mask>
<g mask="url(#mask68_1019_97125)">
<mask id="mask69_1019_97125" style="mask-type:luminance" maskUnits="userSpaceOnUse" x="3" y="6" width="71" height="68">
<path d="M24.5678 6.24512L73.6933 31.4357L52.223 73.3099L3.09741 48.1174L24.5678 6.24512Z" fill="white"/>
</mask>
<g mask="url(#mask69_1019_97125)">
<mask id="mask70_1019_97125" style="mask-type:luminance" maskUnits="userSpaceOnUse" x="3" y="6" width="71" height="68">
<path d="M24.5678 6.24609L73.6933 31.4366L52.223 73.3109L3.09741 48.1184L24.5678 6.24609Z" fill="white"/>
</mask>
<g mask="url(#mask70_1019_97125)">
<path d="M30.7146 33.5033C32.3645 33.9433 33.8813 34.8889 34.9851 36.1935C35.9751 37.3649 36.6351 38.8181 36.8666 40.335C37.021 41.2478 36.9496 42.178 36.9921 43.0986C37.6617 42.6489 38.2889 42.1356 38.9971 41.7457C40.4405 40.9352 42.1271 40.5512 43.779 40.692C45.6103 40.8503 47.3857 41.6203 48.7442 42.8593C49.7728 43.7875 50.5621 44.9841 50.9808 46.3079C51.7585 48.5215 51.8878 50.9917 51.1545 53.2362C51.1005 53.4041 51.0445 53.572 50.9557 53.7264C51.4208 52.3118 51.471 50.7872 51.2664 49.3185C51.0445 47.8171 50.5292 46.3446 49.6724 45.0863C49.1881 44.3684 48.586 43.7277 47.8951 43.2028C47.5266 42.9249 47.1213 42.701 46.7141 42.4868C45.1105 41.6222 43.256 41.2305 41.4421 41.3868C39.5992 41.5373 37.9068 42.4984 36.6119 43.7837C36.5733 43.583 36.61 43.3823 36.6061 43.1816C36.61 41.9021 36.4653 40.6168 36.0947 39.3913C35.7281 38.1793 35.1183 37.0407 34.2981 36.0777C33.6575 35.3386 32.9049 34.6959 32.0558 34.2096C31.5598 33.9317 31.0465 33.6808 30.5139 33.4801C30.5815 33.4763 30.649 33.482 30.7146 33.5033Z" fill="#FFC107"/>
</g>
</g>
</g>
<mask id="mask71_1019_97125" style="mask-type:luminance" maskUnits="userSpaceOnUse" x="21" y="32" width="31" height="28">
<path d="M21.176 32.811H51.805V59.4895H21.176V32.811Z" fill="white"/>
</mask>
<g mask="url(#mask71_1019_97125)">
<mask id="mask72_1019_97125" style="mask-type:luminance" maskUnits="userSpaceOnUse" x="3" y="6" width="71" height="68">
<path d="M24.578 6.24512L73.7036 31.4357L52.2332 73.3099L3.10767 48.1174L24.578 6.24512Z" fill="white"/>
</mask>
<g mask="url(#mask72_1019_97125)">
<mask id="mask73_1019_97125" style="mask-type:luminance" maskUnits="userSpaceOnUse" x="3" y="6" width="71" height="68">
<path d="M24.578 6.24609L73.7036 31.4366L52.2332 73.3109L3.10767 48.1184L24.578 6.24609Z" fill="white"/>
</mask>
<g mask="url(#mask73_1019_97125)">
<path d="M45.8307 42.8113C46.097 43.0584 46.3826 43.2842 46.6431 43.5408C47.8395 44.6949 48.816 46.069 49.5628 47.553C50.1475 48.7187 50.3791 50.0425 50.3077 51.3394C50.2749 52.314 50.0626 53.2712 49.8059 54.2072C50.3771 53.2345 50.6569 52.1152 50.738 50.9959C50.8576 49.3903 50.4987 47.7537 49.723 46.343C48.8604 44.7798 47.4439 43.5543 45.8307 42.8113ZM30.5181 33.4824C31.0507 33.6831 31.564 33.934 32.06 34.2119C32.9091 34.6982 33.6617 35.3408 34.3023 36.08C35.1225 37.043 35.7323 38.1816 36.0989 39.3935C36.4695 40.619 36.6142 41.9043 36.6103 43.1838C36.6142 43.3845 36.5775 43.5852 36.6161 43.784C37.911 42.5006 39.6034 41.5396 41.4463 41.389C43.2602 41.2327 45.1147 41.6245 46.7183 42.4891C47.1255 42.7033 47.5308 42.9271 47.8993 43.205C48.5902 43.73 49.1923 44.3707 49.6766 45.0886C50.5334 46.3469 51.0487 47.8193 51.2706 49.3208C51.4752 50.7894 51.425 52.314 50.9599 53.7286C50.6705 54.6086 50.1591 55.3941 49.6091 56.1313C48.6114 57.4011 47.2664 58.3834 45.7805 59.0048C45.271 59.0377 44.7596 59.0184 44.2502 59.0048C42.5269 58.9643 40.8133 58.725 39.1286 58.3641C39.009 58.3352 38.8932 58.2908 38.7755 58.2541C39.0997 58.258 39.4181 58.3255 39.7404 58.3468C40.63 58.4143 41.5273 58.4027 42.4073 58.2541C43.0615 58.1557 43.7099 57.9897 44.3177 57.7234C45.2189 57.3625 46.0564 56.828 46.7434 56.139C47.3629 55.4925 47.8858 54.736 48.1927 53.8888C48.5111 53.0628 48.6712 52.1751 48.6616 51.2873C48.6481 50.5598 48.5497 49.8341 48.3586 49.1317C48.1734 48.5218 47.9843 47.9081 47.6948 47.3369C46.8689 45.7216 45.383 44.4884 43.6964 43.8515C42.8318 43.5273 41.9113 43.3401 40.987 43.3614C40.2846 43.3691 39.5899 43.508 38.9144 43.6991C38.266 43.9152 37.6562 44.2317 37.0928 44.6177C36.6566 44.9033 36.2282 45.2005 35.7863 45.4765C35.7342 45.0635 35.7458 44.6466 35.7111 44.2337C35.6898 43.6238 35.6628 43.0101 35.5123 42.4157C35.4023 41.8599 35.1727 41.3369 34.9353 40.8255C34.6362 40.2388 34.2483 39.6946 33.8006 39.2121C32.5829 37.9288 30.9195 37.0816 29.1654 36.8558C28.295 36.7361 27.4074 36.821 26.5602 37.0391C25.1496 37.3903 23.7949 38.0484 22.7335 39.0558C22.0851 39.6541 21.5525 40.3816 21.1917 41.1883C21.2206 40.8197 21.1974 40.4492 21.2399 40.0825C21.3692 38.5946 21.8825 37.151 22.664 35.8812C22.8647 35.5473 23.1137 35.2443 23.3202 34.9143C23.3549 34.8699 23.4051 34.8429 23.4514 34.814C24.1866 34.3817 24.9604 34.0073 25.7767 33.7525C26.8149 33.409 27.8975 33.1253 29.0013 33.1678C29.5224 33.1697 30.0299 33.3067 30.5181 33.4824Z" fill="#FFC107"/>
</g>
</g>
</g>
<mask id="mask74_1019_97125" style="mask-type:luminance" maskUnits="userSpaceOnUse" x="45" y="42" width="6" height="13">
<path d="M45.3857 42.6899H50.8199V54.547H45.3857V42.6899Z" fill="white"/>
</mask>
<g mask="url(#mask74_1019_97125)">
<mask id="mask75_1019_97125" style="mask-type:luminance" maskUnits="userSpaceOnUse" x="3" y="6" width="71" height="68">
<path d="M24.578 6.24512L73.7036 31.4357L52.2332 73.3099L3.10767 48.1174L24.578 6.24512Z" fill="white"/>
</mask>
<g mask="url(#mask75_1019_97125)">
<mask id="mask76_1019_97125" style="mask-type:luminance" maskUnits="userSpaceOnUse" x="3" y="6" width="71" height="68">
<path d="M24.5778 6.24609L73.7033 31.4366L52.233 73.3109L3.10742 48.1184L24.5778 6.24609Z" fill="white"/>
</mask>
<g mask="url(#mask76_1019_97125)">
<path d="M45.8284 42.8101C47.4416 43.5531 48.8581 44.7785 49.7207 46.3417C50.4964 47.7524 50.8554 49.389 50.7357 50.9946C50.6547 52.112 50.3749 53.2333 49.8036 54.2059C50.0603 53.2699 50.2726 52.3127 50.3054 51.3381C50.3768 50.0413 50.1452 48.7174 49.5605 47.5517C48.8137 46.0677 47.8372 44.6936 46.6408 43.5395C46.3803 43.2829 46.0947 43.0571 45.8284 42.8101Z" fill="#FFC107"/>
</g>
</g>
</g>
<mask id="mask77_1019_97125" style="mask-type:luminance" maskUnits="userSpaceOnUse" x="18" y="34" width="28" height="26">
<path d="M18.2122 34.7905H45.877V59.9869H18.2122V34.7905Z" fill="white"/>
</mask>
<g mask="url(#mask77_1019_97125)">
<mask id="mask78_1019_97125" style="mask-type:luminance" maskUnits="userSpaceOnUse" x="3" y="6" width="71" height="68">
<path d="M24.5746 6.24609L73.7002 31.4366L52.2298 73.3109L3.10425 48.1184L24.5746 6.24609Z" fill="white"/>
</mask>
<g mask="url(#mask78_1019_97125)">
<mask id="mask79_1019_97125" style="mask-type:luminance" maskUnits="userSpaceOnUse" x="3" y="6" width="71" height="68">
<path d="M24.5744 6.24756L73.6999 31.4381L52.2296 73.3123L3.104 48.1199L24.5744 6.24756Z" fill="white"/>
</mask>
<g mask="url(#mask79_1019_97125)">
<path d="M23.3132 34.916C23.1067 35.246 22.8578 35.549 22.6571 35.8829C21.8755 37.1527 21.3622 38.5963 21.2329 40.0842C21.1905 40.4509 21.2136 40.8214 21.1847 41.19C20.6289 42.4483 20.4726 43.8764 20.7312 45.2292C21.0631 47.0684 22.0415 48.7396 23.2958 50.1021C23.8825 50.7525 24.554 51.3141 25.1735 51.9297C25.8778 52.611 26.5397 53.3327 27.1669 54.0834C28.1105 55.2047 28.8786 56.4649 29.5115 57.7869C30.7948 57.4781 32.1225 57.4009 33.4386 57.4588C34.2047 57.4974 34.9669 57.5939 35.7292 57.6846C36.75 57.8293 37.7612 58.0377 38.7685 58.2558C38.8862 58.2925 39.002 58.3369 39.1217 58.3658C40.8063 58.7267 42.5199 58.966 44.2432 59.0046C44.7527 59.02 45.264 59.0393 45.7735 59.0065L45.8372 59.0258C45.5921 59.159 45.3142 59.2053 45.0537 59.2941C43.6739 59.7399 42.2189 59.9445 40.7697 59.8866C39.8627 59.8576 38.9615 59.7302 38.07 59.5623C36.2946 59.2555 34.4941 59.0471 32.6917 59.0721C31.2927 59.0934 29.8898 59.2806 28.5602 59.7264C28.2302 58.9718 27.8983 58.2153 27.4969 57.4916C26.7501 56.104 25.7794 54.8515 24.745 53.6705C24.0484 52.8985 23.3248 52.1517 22.576 51.4299C21.4085 50.2835 20.3915 48.9654 19.7026 47.4756C19.1661 46.308 18.7995 45.0536 18.7107 43.7683C18.5795 42.1453 18.8921 40.4895 19.5772 39.0151C20.2314 37.6082 21.2715 36.4039 22.495 35.4622C22.7632 35.2711 23.0199 35.0627 23.3132 34.916Z" fill="#FFC107"/>
</g>
</g>
</g>
</svg>
