<svg width="125" height="125" viewBox="0 0 125 125" fill="none" xmlns="http://www.w3.org/2000/svg">
<g filter="url(#filter0_d_162_72047)">
<ellipse cx="62.2048" cy="58.2125" rx="34.2048" ry="34.2125" fill="#0C16E0"/>
</g>
<mask id="mask0_162_72047" style="mask-type:luminance" maskUnits="userSpaceOnUse" x="68" y="44" width="11" height="14">
<path d="M68.3022 44.0979H78.0903V57.0178H68.3022V44.0979Z" fill="white"/>
</mask>
<g mask="url(#mask0_162_72047)">
<mask id="mask1_162_72047" style="mask-type:luminance" maskUnits="userSpaceOnUse" x="34" y="32" width="56" height="54">
<path d="M51.0266 32.0486L89.9599 52.0112L72.9441 85.1949L34.0107 65.2308L51.0266 32.0486Z" fill="white"/>
</mask>
<g mask="url(#mask1_162_72047)">
<mask id="mask2_162_72047" style="mask-type:luminance" maskUnits="userSpaceOnUse" x="34" y="32" width="56" height="54">
<path d="M51.0276 32.0476L89.9609 52.0102L72.9451 85.194L34.0117 65.2299L51.0276 32.0476Z" fill="white"/>
</mask>
<g mask="url(#mask2_162_72047)">
<path d="M73.6384 44.6626C73.0817 44.7834 72.5878 45.0954 72.1641 45.4655C71.7833 45.7989 71.4117 46.1506 71.0997 46.5513L71.1486 46.5376C71.0064 46.6981 70.8611 46.8572 70.7219 47.0193C70.3289 47.4735 70.0643 48.0164 69.8074 48.5532C69.3378 49.6406 68.9433 50.78 68.8515 51.9683C68.8454 52.0019 68.8484 52.034 68.8591 52.0661C68.8056 52.6106 68.8591 53.178 69.0687 53.6873C69.4112 54.5055 70.0857 55.1279 70.806 55.6173C71.4193 56.0424 72.1488 56.3315 72.9043 56.3254C73.6017 56.3284 74.2854 56.0944 74.8803 55.7396C75.4064 55.4338 75.8774 55.0346 76.2598 54.5605C76.7003 54.0054 77.0138 53.3539 77.2019 52.6702C77.3028 52.3139 77.4145 51.956 77.4374 51.5859C77.4986 51.3703 77.4466 51.1394 77.4741 50.9191C77.5399 50.8106 77.5124 50.6775 77.5246 50.5567C77.5491 49.8501 77.4909 49.142 77.3579 48.4462C77.2432 47.8299 77.075 47.2196 76.8119 46.6477C76.4861 45.9319 75.983 45.2697 75.281 44.8935C74.787 44.6136 74.1905 44.5265 73.6384 44.6626ZM75.2581 44.4913C75.5303 44.6167 75.801 44.7513 76.0426 44.9333C76.6253 45.3661 77.0581 45.9763 77.3533 46.637C77.6714 47.3451 77.8595 48.1067 77.9758 48.8744C78.1776 50.1621 78.1149 51.4957 77.7586 52.7513C77.5674 53.4059 77.2891 54.0405 76.8868 54.5942C76.4617 55.186 75.9034 55.68 75.2779 56.0516C74.8038 56.3361 74.2854 56.5502 73.7424 56.6603C73.1368 56.7857 72.5006 56.7643 71.9072 56.5884C71.2863 56.4187 70.7235 56.0868 70.2111 55.7029C69.4327 55.1203 68.7368 54.3464 68.4829 53.3875C68.2367 52.4148 68.3422 51.3902 68.5808 50.4267C69.0228 48.7169 69.8379 47.0759 71.092 45.8142C71.5508 45.3554 72.0479 44.9241 72.6245 44.6182C73.123 44.3552 73.6889 44.1992 74.2548 44.2374C74.602 44.2527 74.9415 44.3521 75.2581 44.4913Z" fill="#FFB510"/>
</g>
</g>
</g>
<mask id="mask3_162_72047" style="mask-type:luminance" maskUnits="userSpaceOnUse" x="71" y="44" width="7" height="8">
<path d="M71.0425 44.489H77.6983V51.1447H71.0425V44.489Z" fill="white"/>
</mask>
<g mask="url(#mask3_162_72047)">
<mask id="mask4_162_72047" style="mask-type:luminance" maskUnits="userSpaceOnUse" x="34" y="32" width="56" height="54">
<path d="M51.0271 32.0496L89.9604 52.0121L72.9446 85.1959L34.0112 65.2318L51.0271 32.0496Z" fill="white"/>
</mask>
<g mask="url(#mask4_162_72047)">
<mask id="mask5_162_72047" style="mask-type:luminance" maskUnits="userSpaceOnUse" x="34" y="32" width="56" height="54">
<path d="M51.0281 32.0503L89.9614 52.0129L72.9455 85.1966L34.0122 65.2325L51.0281 32.0503Z" fill="white"/>
</mask>
<g mask="url(#mask5_162_72047)">
<path d="M73.6398 44.6632C74.1919 44.5271 74.7884 44.6143 75.2824 44.8942C75.9844 45.2704 76.4891 45.9326 76.8133 46.6483C77.0748 47.2203 77.2446 47.8305 77.3593 48.4484C77.4923 49.1427 77.5505 49.8508 77.526 50.5573C77.5137 50.6781 77.5413 50.8112 77.4755 50.9198C77.4847 49.7391 77.2492 48.5478 76.7139 47.491C76.3591 46.7936 75.8513 46.1635 75.1967 45.7307C74.9 45.5472 74.5911 45.3698 74.247 45.2918C73.7928 45.1847 73.3141 45.2551 72.8797 45.4065C72.2221 45.6359 71.6394 46.0473 71.1515 46.5382L71.1011 46.552C71.4131 46.1513 71.7847 45.7995 72.1655 45.4661C72.5907 45.096 73.0831 44.784 73.6398 44.6632Z" fill="#FFB510"/>
</g>
</g>
</g>
<mask id="mask6_162_72047" style="mask-type:luminance" maskUnits="userSpaceOnUse" x="68" y="44" width="10" height="12">
<path d="M68.6934 44.8818H77.6983V55.0612H68.6934V44.8818Z" fill="white"/>
</mask>
<g mask="url(#mask6_162_72047)">
<mask id="mask7_162_72047" style="mask-type:luminance" maskUnits="userSpaceOnUse" x="34" y="32" width="56" height="54">
<path d="M51.0271 32.0493L89.9604 52.0119L72.9446 85.1957L34.0112 65.2316L51.0271 32.0493Z" fill="white"/>
</mask>
<g mask="url(#mask7_162_72047)">
<mask id="mask8_162_72047" style="mask-type:luminance" maskUnits="userSpaceOnUse" x="34" y="32" width="56" height="54">
<path d="M51.0281 32.0481L89.9614 52.0107L72.9455 85.1944L34.0122 65.2303L51.0281 32.0481Z" fill="white"/>
</mask>
<g mask="url(#mask8_162_72047)">
<path d="M74.4982 45.7995C74.905 46.1757 75.2858 46.5825 75.607 47.0352C76.3457 48.0522 76.8122 49.242 77.0966 50.4609C77.144 49.45 76.9789 48.4009 76.4497 47.523C75.997 46.7645 75.2904 46.1772 74.4982 45.7995ZM74.2459 45.2917C74.5884 45.3697 74.8989 45.5471 75.1941 45.7306C75.8502 46.1635 76.3579 46.7935 76.7112 47.4909C77.248 48.5477 77.4836 49.7391 77.4744 50.9182C77.4468 51.1399 77.4988 51.3709 77.4377 51.5865C77.3046 51.8526 77.1945 52.1294 77.0446 52.3879C76.4375 53.4921 75.3807 54.3531 74.1587 54.6804C73.4292 54.867 72.6492 54.8823 71.9166 54.7003C70.8629 54.4495 69.9238 53.775 69.3228 52.8773C69.1408 52.6234 69.0108 52.339 68.8594 52.0667C68.8487 52.0346 68.8456 52.0025 68.8518 51.9689C68.9435 50.7805 69.3381 49.6412 69.8076 48.5538C70.0645 48.017 70.3291 47.4741 70.7222 47.0199C70.8614 46.8578 71.0066 46.6987 71.1504 46.5381C71.6383 46.0472 72.221 45.6358 72.8786 45.4064C73.3129 45.255 73.7916 45.1847 74.2459 45.2917Z" fill="#FFB510"/>
</g>
</g>
</g>
<mask id="mask9_162_72047" style="mask-type:luminance" maskUnits="userSpaceOnUse" x="74" y="45" width="4" height="6">
<path d="M74.1777 45.6641H77.3099V50.7537H74.1777V45.6641Z" fill="white"/>
</mask>
<g mask="url(#mask9_162_72047)">
<mask id="mask10_162_72047" style="mask-type:luminance" maskUnits="userSpaceOnUse" x="34" y="32" width="56" height="54">
<path d="M51.03 32.0498L89.9633 52.0124L72.9475 85.1961L34.0142 65.232L51.03 32.0498Z" fill="white"/>
</mask>
<g mask="url(#mask10_162_72047)">
<mask id="mask11_162_72047" style="mask-type:luminance" maskUnits="userSpaceOnUse" x="34" y="32" width="56" height="54">
<path d="M51.031 32.0503L89.9643 52.0129L72.9485 85.1966L34.0151 65.2325L51.031 32.0503Z" fill="white"/>
</mask>
<g mask="url(#mask11_162_72047)">
<path d="M74.5029 45.8005C75.2951 46.1783 76.0017 46.7656 76.4544 47.5241C76.9836 48.402 77.1488 49.4511 77.1013 50.462C76.8169 49.2431 76.3504 48.0533 75.6133 47.0362C75.2906 46.5836 74.9097 46.1768 74.5029 45.8005Z" fill="#FFB510"/>
</g>
</g>
</g>
<mask id="mask12_162_72047" style="mask-type:luminance" maskUnits="userSpaceOnUse" x="68" y="51" width="10" height="6">
<path d="M68.6934 51.5366H77.6983V56.6263H68.6934V51.5366Z" fill="white"/>
</mask>
<g mask="url(#mask12_162_72047)">
<mask id="mask13_162_72047" style="mask-type:luminance" maskUnits="userSpaceOnUse" x="34" y="32" width="56" height="54">
<path d="M51.0271 32.0486L89.9604 52.0112L72.9446 85.1949L34.0112 65.2308L51.0271 32.0486Z" fill="white"/>
</mask>
<g mask="url(#mask13_162_72047)">
<mask id="mask14_162_72047" style="mask-type:luminance" maskUnits="userSpaceOnUse" x="34" y="32" width="56" height="54">
<path d="M51.0281 32.0476L89.9614 52.0102L72.9455 85.194L34.0122 65.2299L51.0281 32.0476Z" fill="white"/>
</mask>
<g mask="url(#mask14_162_72047)">
<path d="M77.0469 52.3873C77.1953 52.1289 77.3069 51.852 77.4385 51.5859C77.4155 51.956 77.3039 52.3139 77.2045 52.6702C77.0148 53.3539 76.7013 54.0054 76.2608 54.5605C75.8785 55.0346 75.4074 55.4338 74.8813 55.7396C74.2864 56.0945 73.6028 56.3284 72.9054 56.3254C72.1499 56.3315 71.4204 56.0425 70.8071 55.6173C70.0867 55.1279 69.4123 54.5055 69.0697 53.6873C68.8602 53.178 68.8067 52.6106 68.8602 52.0662C69.0116 52.3384 69.1416 52.6228 69.3236 52.8767C69.9246 53.7744 70.8637 54.4489 71.9174 54.6997C72.6515 54.8817 73.43 54.8664 74.161 54.6798C75.3814 54.3525 76.4398 53.4915 77.0469 52.3873Z" fill="#FFB510"/>
</g>
</g>
</g>
<mask id="mask15_162_72047" style="mask-type:luminance" maskUnits="userSpaceOnUse" x="56" y="39" width="12" height="12">
<path d="M56.1704 39.0076H67.5245V50.753H56.1704V39.0076Z" fill="white"/>
</mask>
<g mask="url(#mask15_162_72047)">
<mask id="mask16_162_72047" style="mask-type:luminance" maskUnits="userSpaceOnUse" x="34" y="32" width="56" height="54">
<path d="M51.0305 32.0491L89.9638 52.0116L72.948 85.1954L34.0146 65.2313L51.0305 32.0491Z" fill="white"/>
</mask>
<g mask="url(#mask16_162_72047)">
<mask id="mask17_162_72047" style="mask-type:luminance" maskUnits="userSpaceOnUse" x="34" y="32" width="56" height="54">
<path d="M51.0315 32.0496L89.9648 52.0121L72.949 85.1959L34.0156 65.2318L51.0315 32.0496Z" fill="white"/>
</mask>
<g mask="url(#mask17_162_72047)">
<path d="M63.8855 39.5608C63.1835 39.5914 62.4983 39.7902 61.8514 40.0563C60.8221 40.4738 59.851 41.0519 59.0328 41.8043L59.1 41.7952C58.9502 41.9221 58.7926 42.0398 58.6321 42.1561C58.5877 42.1928 58.5296 42.2264 58.5143 42.2876C58.3185 42.4818 58.158 42.7097 57.9867 42.9269C57.6303 43.3826 57.3367 43.8904 57.147 44.4379C56.9115 45.1001 56.8366 45.8158 56.9054 46.5132C56.9574 47.0546 57.0782 47.5975 57.3397 48.0792C57.6364 48.6527 58.1136 49.1223 58.6764 49.4373C59.2056 49.734 59.7913 49.9206 60.3847 50.0429C61.0515 50.1775 61.7627 50.1622 62.4004 49.9068C62.6987 49.7921 62.9633 49.6086 63.2202 49.4205C63.3532 49.3211 63.4894 49.2247 63.6056 49.107C63.6438 49.1115 63.6637 49.0718 63.6912 49.0519C63.9008 48.8347 64.1225 48.6283 64.3213 48.4004C64.9163 47.6984 65.4531 46.9445 65.863 46.1201C66.152 45.5879 66.3676 45.0175 66.542 44.4379C66.6491 44.0876 66.6949 43.7252 66.7347 43.3627C66.802 43.2327 66.7974 43.0844 66.8173 42.9437C66.8876 42.3625 66.8785 41.7569 66.6796 41.2002C66.5236 40.7552 66.2361 40.3515 65.8477 40.0808C65.2803 39.6831 64.5706 39.5317 63.8855 39.5608ZM65.3108 39.3895C65.6091 39.5271 65.9027 39.6801 66.1642 39.8819C66.6567 40.2536 67.0039 40.8026 67.1629 41.3991C67.3388 42.0582 67.3357 42.7541 67.2455 43.427C67.0543 44.9456 66.4518 46.397 65.5815 47.651C64.9346 48.5855 64.1623 49.4633 63.1789 50.0506C62.6436 50.3763 62.0227 50.5553 61.3972 50.569C60.686 50.5828 59.9825 50.4207 59.3187 50.1775C58.6244 49.9267 57.9714 49.5367 57.4759 48.9861C57.0492 48.5136 56.757 47.9309 56.5903 47.3207C56.3059 46.2272 56.3441 45.042 56.7601 43.9867C57.0583 43.1991 57.5707 42.5139 58.135 41.8976C58.9853 40.9907 60.0314 40.2765 61.1662 39.7764C61.833 39.4782 62.532 39.232 63.26 39.1402C63.9497 39.053 64.6685 39.1096 65.3108 39.3895Z" fill="#FFB510"/>
</g>
</g>
</g>
<mask id="mask18_162_72047" style="mask-type:luminance" maskUnits="userSpaceOnUse" x="58" y="39" width="10" height="5">
<path d="M58.9111 39.3987H67.1331V43.7053H58.9111V39.3987Z" fill="white"/>
</mask>
<g mask="url(#mask18_162_72047)">
<mask id="mask19_162_72047" style="mask-type:luminance" maskUnits="userSpaceOnUse" x="34" y="32" width="56" height="54">
<path d="M51.031 32.0491L89.9643 52.0116L72.9485 85.1954L34.0151 65.2313L51.031 32.0491Z" fill="white"/>
</mask>
<g mask="url(#mask19_162_72047)">
<mask id="mask20_162_72047" style="mask-type:luminance" maskUnits="userSpaceOnUse" x="34" y="32" width="56" height="54">
<path d="M51.032 32.0496L89.9653 52.0121L72.9495 85.1959L34.0161 65.2318L51.032 32.0496Z" fill="white"/>
</mask>
<g mask="url(#mask20_162_72047)">
<path d="M63.8859 39.5619C64.5711 39.5313 65.2807 39.6827 65.8481 40.0804C66.2366 40.3511 66.5241 40.7548 66.6801 41.1999C66.8789 41.7565 66.8881 42.3622 66.8177 42.9433C66.7978 43.084 66.8024 43.2324 66.7351 43.3624C66.7764 42.8424 66.7137 42.3086 66.5073 41.8284C66.3329 41.4216 66.0515 41.0607 65.7059 40.7854C65.2838 40.4765 64.7913 40.2654 64.2759 40.1798C63.6106 40.0574 62.9239 40.1201 62.2694 40.2746C61.1147 40.5285 60.038 41.079 59.1005 41.7948L59.0332 41.8039C59.8514 41.0515 60.8226 40.4734 61.8518 40.0559C62.4988 39.7898 63.1839 39.591 63.8859 39.5619Z" fill="#FFB510"/>
</g>
</g>
</g>
<mask id="mask21_162_72047" style="mask-type:luminance" maskUnits="userSpaceOnUse" x="57" y="39" width="11" height="11">
<path d="M57.7378 39.7917H67.1343V49.5796H57.7378V39.7917Z" fill="white"/>
</mask>
<g mask="url(#mask21_162_72047)">
<mask id="mask22_162_72047" style="mask-type:luminance" maskUnits="userSpaceOnUse" x="34" y="32" width="56" height="54">
<path d="M51.0334 32.0491L89.9668 52.0116L72.9509 85.1954L34.0176 65.2313L51.0334 32.0491Z" fill="white"/>
</mask>
<g mask="url(#mask22_162_72047)">
<mask id="mask23_162_72047" style="mask-type:luminance" maskUnits="userSpaceOnUse" x="34" y="32" width="56" height="54">
<path d="M51.0344 32.0479L89.9677 52.0104L72.9519 85.1942L34.0186 65.2301L51.0344 32.0479Z" fill="white"/>
</mask>
<g mask="url(#mask23_162_72047)">
<path d="M63.1541 40.6469C62.498 40.6041 61.8511 40.806 61.2684 41.095C60.7805 41.3443 60.3233 41.6548 59.9042 42.0065C60.3569 41.7894 60.8172 41.5859 61.2929 41.4269C62.3604 41.0706 63.5273 40.8932 64.6346 41.17C64.1941 40.8794 63.6879 40.6668 63.1541 40.6469ZM64.2767 40.1789C64.7921 40.2646 65.2846 40.4756 65.7067 40.7846C66.0523 41.0599 66.3337 41.4208 66.5081 41.8276C66.7161 42.3078 66.7772 42.8431 66.7359 43.3615C66.6962 43.724 66.6503 44.0864 66.5432 44.4367C66.3689 45.0163 66.1532 45.5867 65.8642 46.1189C65.4543 46.9433 64.9175 47.6972 64.3226 48.3992C64.1238 48.6271 63.902 48.8335 63.6925 49.0507C63.6649 49.0706 63.6451 49.1103 63.6068 49.1057C63.4998 49.1057 63.3942 49.118 63.2902 49.1455C62.5883 49.3061 61.8511 49.2113 61.1797 48.9727C59.9226 48.5414 58.9071 47.5397 58.3427 46.3499C58.1362 45.8742 57.9879 45.3696 57.9481 44.8511C57.8885 44.218 57.9879 43.571 58.2158 42.9777C58.2953 42.7375 58.4406 42.5265 58.5155 42.2864C58.5308 42.2252 58.5889 42.1916 58.6333 42.1549C58.7939 42.0386 58.9514 41.9209 59.1013 41.7939C60.0388 41.0782 61.1155 40.5276 62.2702 40.2738C62.9247 40.1178 63.6114 40.0566 64.2767 40.1789Z" fill="#FFB510"/>
</g>
</g>
</g>
<mask id="mask24_162_72047" style="mask-type:luminance" maskUnits="userSpaceOnUse" x="59" y="40" width="6" height="3">
<path d="M59.6934 40.574H64.7831V42.14H59.6934V40.574Z" fill="white"/>
</mask>
<g mask="url(#mask24_162_72047)">
<mask id="mask25_162_72047" style="mask-type:luminance" maskUnits="userSpaceOnUse" x="34" y="32" width="56" height="54">
<path d="M51.031 32.0496L89.9643 52.0121L72.9485 85.1959L34.0151 65.2318L51.031 32.0496Z" fill="white"/>
</mask>
<g mask="url(#mask25_162_72047)">
<mask id="mask26_162_72047" style="mask-type:luminance" maskUnits="userSpaceOnUse" x="34" y="32" width="56" height="54">
<path d="M51.032 32.05L89.9653 52.0126L72.9495 85.1964L34.0161 65.2323L51.032 32.05Z" fill="white"/>
</mask>
<g mask="url(#mask26_162_72047)">
<path d="M63.1537 40.6483C63.6875 40.6682 64.1937 40.8808 64.6342 41.1713C63.5269 40.8945 62.36 41.0719 61.2925 41.4283C60.8168 41.5873 60.3565 41.7892 59.9038 42.0079C60.3229 41.6546 60.7801 41.3457 61.268 41.0964C61.8507 40.8074 62.4976 40.6055 63.1537 40.6483Z" fill="#FFB510"/>
</g>
</g>
</g>
<mask id="mask27_162_72047" style="mask-type:luminance" maskUnits="userSpaceOnUse" x="56" y="42" width="8" height="9">
<path d="M56.5615 42.1382H63.6089V50.36H56.5615V42.1382Z" fill="white"/>
</mask>
<g mask="url(#mask27_162_72047)">
<mask id="mask28_162_72047" style="mask-type:luminance" maskUnits="userSpaceOnUse" x="34" y="32" width="56" height="54">
<path d="M51.0305 32.0491L89.9638 52.0116L72.948 85.1954L34.0146 65.2313L51.0305 32.0491Z" fill="white"/>
</mask>
<g mask="url(#mask28_162_72047)">
<mask id="mask29_162_72047" style="mask-type:luminance" maskUnits="userSpaceOnUse" x="34" y="32" width="56" height="54">
<path d="M51.0315 32.0493L89.9648 52.0119L72.949 85.1957L34.0156 65.2316L51.0315 32.0493Z" fill="white"/>
</mask>
<g mask="url(#mask29_162_72047)">
<path d="M58.5152 42.2869C58.4403 42.527 58.295 42.738 58.2155 42.9781C57.9876 43.5715 57.8882 44.2184 57.9478 44.8516C57.9876 45.37 58.1359 45.8747 58.3424 46.3503C58.9067 47.5402 59.9223 48.5419 61.1794 48.9732C61.8508 49.2117 62.588 49.3066 63.2899 49.146C63.3939 49.1185 63.4995 49.1062 63.6065 49.1062C63.4903 49.224 63.3542 49.3203 63.2211 49.4197C62.9642 49.6078 62.6996 49.7914 62.4014 49.9061C61.7636 50.1615 61.0525 50.1768 60.3857 50.0422C59.7923 49.9198 59.2065 49.7333 58.6773 49.4366C58.1145 49.1215 57.6374 48.652 57.3391 48.0785C57.0791 47.5968 56.9583 47.0538 56.9063 46.5125C56.8375 45.8151 56.9124 45.0993 57.148 44.4371C57.3376 43.8896 57.6312 43.3834 57.9876 42.9261C58.1589 42.709 58.3195 42.4811 58.5152 42.2869Z" fill="#FFB510"/>
</g>
</g>
</g>
<mask id="mask30_162_72047" style="mask-type:luminance" maskUnits="userSpaceOnUse" x="43" y="42" width="11" height="12">
<path d="M43.6406 42.1379H53.4286V53.1003H43.6406V42.1379Z" fill="white"/>
</mask>
<g mask="url(#mask30_162_72047)">
<mask id="mask31_162_72047" style="mask-type:luminance" maskUnits="userSpaceOnUse" x="34" y="32" width="56" height="54">
<path d="M51.032 32.0483L89.9653 52.0109L72.9495 85.1947L34.0161 65.2306L51.032 32.0483Z" fill="white"/>
</mask>
<g mask="url(#mask31_162_72047)">
<mask id="mask32_162_72047" style="mask-type:luminance" maskUnits="userSpaceOnUse" x="34" y="32" width="56" height="54">
<path d="M51.0334 32.0491L89.9668 52.0116L72.9509 85.1954L34.0176 65.2313L51.0334 32.0491Z" fill="white"/>
</mask>
<g mask="url(#mask32_162_72047)">
<path d="M48.627 43.0076C48.0581 42.922 47.4631 42.9587 46.9233 43.1713C46.2794 43.4114 45.6982 43.8427 45.3281 44.4269C45.0452 44.849 44.9121 45.3475 44.8036 45.8385C44.7806 45.9577 44.7347 46.0786 44.7546 46.2024C44.5069 47.3632 44.4181 48.5607 44.5176 49.7444C44.568 50.3057 44.7225 50.8715 45.0544 51.3334C45.2639 51.6377 45.5453 51.8901 45.8603 52.0828C46.3788 52.3978 47.0211 52.4988 47.6145 52.3703C48.2599 52.2357 48.838 51.8916 49.3626 51.5016C49.7297 51.2294 50.1044 50.9679 50.4454 50.6635C50.4531 50.662 50.4699 50.659 50.4775 50.6574C50.7681 50.3883 51.0633 50.1267 51.3478 49.8515C51.7668 49.411 52.1996 48.9675 52.481 48.4215C52.5881 48.1799 52.6814 47.9275 52.7318 47.6676C52.7731 47.4336 52.8129 47.1919 52.7487 46.9595C52.7563 46.9365 52.7716 46.8922 52.7792 46.8692C52.7884 46.4349 52.7028 45.9975 52.5177 45.6029C52.1904 44.8826 51.5772 44.3351 50.918 43.9191C50.213 43.4924 49.4498 43.13 48.627 43.0076ZM50.0677 42.9541C50.6504 43.2187 51.2223 43.52 51.7209 43.9237C52.322 44.3963 52.8343 45.0111 53.079 45.7436C53.2641 46.3171 53.3191 46.9335 53.2381 47.5314C53.1325 48.3252 52.7594 49.0623 52.2654 49.6832C51.4732 50.6421 50.5341 51.4802 49.488 52.1547C49.0002 52.4819 48.4618 52.7526 47.8822 52.8704C47.3653 52.979 46.8223 52.9606 46.3176 52.8046C45.6294 52.5966 44.9825 52.196 44.565 51.5995C44.1383 50.9908 43.9532 50.243 43.915 49.5089C43.8737 48.3512 43.9287 47.1843 44.152 46.0465C44.2606 45.5372 44.3814 45.0233 44.6231 44.5584C44.9595 43.8977 45.5178 43.3624 46.1693 43.0138C46.6235 42.7675 47.116 42.5748 47.6329 42.5213C48.4664 42.4311 49.3045 42.6299 50.0677 42.9541Z" fill="#FFB510"/>
</g>
</g>
</g>
<mask id="mask33_162_72047" style="mask-type:luminance" maskUnits="userSpaceOnUse" x="44" y="42" width="10" height="6">
<path d="M44.4229 42.9216H53.0363V47.2283H44.4229V42.9216Z" fill="white"/>
</mask>
<g mask="url(#mask33_162_72047)">
<mask id="mask34_162_72047" style="mask-type:luminance" maskUnits="userSpaceOnUse" x="34" y="32" width="56" height="54">
<path d="M51.0295 32.0491L89.9629 52.0116L72.947 85.1954L34.0137 65.2313L51.0295 32.0491Z" fill="white"/>
</mask>
<g mask="url(#mask34_162_72047)">
<mask id="mask35_162_72047" style="mask-type:luminance" maskUnits="userSpaceOnUse" x="34" y="32" width="56" height="54">
<path d="M51.0305 32.0496L89.9638 52.0121L72.948 85.1959L34.0146 65.2318L51.0305 32.0496Z" fill="white"/>
</mask>
<g mask="url(#mask35_162_72047)">
<path d="M48.6224 43.0082C49.4452 43.1306 50.2083 43.493 50.9134 43.9197C51.5725 44.3357 52.1858 44.8832 52.5131 45.6035C52.6982 45.9981 52.7838 46.4355 52.7746 46.8698C52.767 46.8928 52.7517 46.9371 52.744 46.9601C52.6079 46.3376 52.2959 45.7549 51.8432 45.3053C51.1443 44.6033 50.2221 44.1782 49.2984 43.8585C48.6927 43.6414 48.0351 43.5374 47.3958 43.6475C46.7015 43.7653 46.0515 44.1308 45.5881 44.663C45.3694 44.9107 45.1874 45.1906 45.039 45.4873C44.9243 45.7182 44.8265 45.9568 44.75 46.203C44.7301 46.0792 44.776 45.9583 44.7989 45.8391C44.9075 45.3481 45.0406 44.8496 45.3235 44.4275C45.6936 43.8433 46.2748 43.412 46.9186 43.1719C47.4585 42.9593 48.0534 42.9226 48.6224 43.0082Z" fill="#FFB510"/>
</g>
</g>
</g>
<mask id="mask36_162_72047" style="mask-type:luminance" maskUnits="userSpaceOnUse" x="44" y="43" width="10" height="9">
<path d="M44.814 43.313H53.0359V51.1432H44.814V43.313Z" fill="white"/>
</mask>
<g mask="url(#mask36_162_72047)">
<mask id="mask37_162_72047" style="mask-type:luminance" maskUnits="userSpaceOnUse" x="34" y="32" width="56" height="54">
<path d="M51.0295 32.0491L89.9629 52.0116L72.947 85.1954L34.0137 65.2313L51.0295 32.0491Z" fill="white"/>
</mask>
<g mask="url(#mask37_162_72047)">
<mask id="mask38_162_72047" style="mask-type:luminance" maskUnits="userSpaceOnUse" x="34" y="32" width="56" height="54">
<path d="M51.0305 32.0496L89.9638 52.0121L72.948 85.1959L34.0146 65.2318L51.0305 32.0496Z" fill="white"/>
</mask>
<g mask="url(#mask38_162_72047)">
<path d="M47.3336 44.1208C46.6286 44.3303 46.052 44.8365 45.6115 45.41C46.2952 44.9848 47.0323 44.6224 47.8291 44.4786C48.5372 44.3349 49.2759 44.3823 49.9626 44.604C49.1964 44.1177 48.2252 43.8424 47.3336 44.1208ZM49.2989 43.8577C50.2226 44.1773 51.1448 44.6025 51.8437 45.3045C52.2964 45.7541 52.6084 46.3368 52.7446 46.9592C52.8088 47.1917 52.769 47.4333 52.7277 47.6673C52.6773 47.9273 52.584 48.1796 52.4769 48.4213C52.1955 48.9673 51.7627 49.4108 51.3436 49.8512C51.0592 50.1265 50.764 50.388 50.4734 50.6572C50.4658 50.6587 50.449 50.6618 50.4413 50.6633C50.2608 50.6924 50.1064 50.7979 49.9351 50.8529C49.438 51.0151 48.9043 51.0885 48.3874 51.0028C47.6349 50.9141 46.9482 50.5119 46.4328 49.9675C45.6421 49.1324 45.2277 48.0053 45.1007 46.8766C45.0625 46.5585 45.0503 46.2374 45.061 45.9162C45.0671 45.7725 45.064 45.6287 45.0396 45.4865C45.1879 45.1898 45.3699 44.9099 45.5886 44.6621C46.052 44.1299 46.702 43.7644 47.3963 43.6467C48.0356 43.5365 48.6932 43.6405 49.2989 43.8577Z" fill="#FFB510"/>
</g>
</g>
</g>
<mask id="mask39_162_72047" style="mask-type:luminance" maskUnits="userSpaceOnUse" x="45" y="43" width="6" height="3">
<path d="M45.5986 43.7041H50.2969V45.6617H45.5986V43.7041Z" fill="white"/>
</mask>
<g mask="url(#mask39_162_72047)">
<mask id="mask40_162_72047" style="mask-type:luminance" maskUnits="userSpaceOnUse" x="34" y="32" width="56" height="54">
<path d="M51.032 32.0491L89.9653 52.0116L72.9495 85.1954L34.0161 65.2313L51.032 32.0491Z" fill="white"/>
</mask>
<g mask="url(#mask40_162_72047)">
<mask id="mask41_162_72047" style="mask-type:luminance" maskUnits="userSpaceOnUse" x="34" y="32" width="56" height="54">
<path d="M51.0334 32.0496L89.9668 52.0121L72.9509 85.1959L34.0176 65.2318L51.0334 32.0496Z" fill="white"/>
</mask>
<g mask="url(#mask41_162_72047)">
<path d="M47.3363 44.1219C48.228 43.8436 49.1991 44.1188 49.9653 44.6052C49.2786 44.3834 48.54 44.336 47.8319 44.4798C47.035 44.6235 46.2979 44.986 45.6143 45.4111C46.0547 44.8376 46.6313 44.3314 47.3363 44.1219Z" fill="#FFB510"/>
</g>
</g>
</g>
<mask id="mask42_162_72047" style="mask-type:luminance" maskUnits="userSpaceOnUse" x="44" y="45" width="7" height="8">
<path d="M44.4229 45.2708H50.6872V52.7095H44.4229V45.2708Z" fill="white"/>
</mask>
<g mask="url(#mask42_162_72047)">
<mask id="mask43_162_72047" style="mask-type:luminance" maskUnits="userSpaceOnUse" x="34" y="32" width="56" height="54">
<path d="M51.0295 32.0491L89.9629 52.0116L72.947 85.1954L34.0137 65.2313L51.0295 32.0491Z" fill="white"/>
</mask>
<g mask="url(#mask43_162_72047)">
<mask id="mask44_162_72047" style="mask-type:luminance" maskUnits="userSpaceOnUse" x="34" y="32" width="56" height="54">
<path d="M51.0305 32.0496L89.9638 52.0121L72.948 85.1959L34.0146 65.2318L51.0305 32.0496Z" fill="white"/>
</mask>
<g mask="url(#mask44_162_72047)">
<path d="M45.0397 45.4871C45.0642 45.6293 45.0672 45.773 45.0611 45.9168C45.0504 46.238 45.0626 46.5591 45.1009 46.8772C45.2278 48.0059 45.6423 49.133 46.433 49.968C46.9484 50.5125 47.635 50.9147 48.3875 51.0034C48.9044 51.0891 49.4382 51.0157 49.9352 50.8535C50.1065 50.7985 50.261 50.693 50.4414 50.6639C50.1004 50.9682 49.7257 51.2298 49.3587 51.502C48.8341 51.892 48.256 52.2361 47.6106 52.3707C47.0172 52.4991 46.3748 52.3982 45.8564 52.0831C45.5413 51.8904 45.2599 51.6381 45.0504 51.3338C44.7185 50.8719 44.5641 50.306 44.5136 49.7448C44.4142 48.561 44.5029 47.3636 44.7506 46.2028C44.8271 45.9566 44.925 45.718 45.0397 45.4871Z" fill="#FFB510"/>
</g>
</g>
</g>
<mask id="mask45_162_72047" style="mask-type:luminance" maskUnits="userSpaceOnUse" x="74" y="58" width="10" height="11">
<path d="M74.1782 58.1929H83.9662V68.7637H74.1782V58.1929Z" fill="white"/>
</mask>
<g mask="url(#mask45_162_72047)">
<mask id="mask46_162_72047" style="mask-type:luminance" maskUnits="userSpaceOnUse" x="34" y="32" width="56" height="54">
<path d="M51.0305 32.0491L89.9638 52.0116L72.948 85.1954L34.0146 65.2313L51.0305 32.0491Z" fill="white"/>
</mask>
<g mask="url(#mask46_162_72047)">
<mask id="mask47_162_72047" style="mask-type:luminance" maskUnits="userSpaceOnUse" x="34" y="32" width="56" height="54">
<path d="M51.0315 32.0479L89.9648 52.0104L72.949 85.1942L34.0156 65.2301L51.0315 32.0479Z" fill="white"/>
</mask>
<g mask="url(#mask47_162_72047)">
<mask id="mask48_162_72047" style="mask-type:luminance" maskUnits="userSpaceOnUse" x="72" y="56" width="14" height="15">
<path d="M77.0731 56.8845L85.2997 61.1025L80.4882 70.4881L72.2617 66.2701L77.0731 56.8845Z" fill="white"/>
</mask>
<g mask="url(#mask48_162_72047)">
<path d="M78.5712 58.7848C77.9962 58.8062 77.438 59.008 76.9501 59.3063C76.9011 59.3399 76.8354 59.3659 76.8247 59.4332C76.5356 59.5785 76.3139 59.8293 76.115 60.0771C75.7908 60.4961 75.6165 61.0038 75.5018 61.5146C75.332 62.1937 75.2708 62.8911 75.2005 63.5839C75.2035 63.59 75.2097 63.6037 75.2127 63.6098C75.1622 64.1711 75.1699 64.7385 75.1806 65.3028C75.2066 65.9054 75.3259 66.5217 75.6486 67.0402C75.9789 67.577 76.5249 67.9746 77.1382 68.1199C77.7897 68.2973 78.4932 68.1857 79.0958 67.8951C79.5745 67.6596 80.0058 67.3415 80.4355 67.0279C81.0396 66.5691 81.6177 66.069 82.1163 65.4986C82.1974 65.4451 82.2371 65.3502 82.2953 65.2753C82.3503 65.2661 82.3809 65.2141 82.4176 65.1774C82.7464 64.7936 83.0294 64.3653 83.2129 63.8943C83.4408 63.3239 83.5019 62.6892 83.3979 62.0851C83.2924 61.5284 83.0141 61.013 82.6348 60.597C82.075 59.9822 81.3455 59.5525 80.5931 59.2145C79.9599 58.9316 79.2671 58.7588 78.5712 58.7848ZM80.6665 58.7526C81.3593 59.0585 82.0368 59.4225 82.6057 59.9302C83.1379 60.3906 83.5738 60.984 83.7742 61.6645C83.9623 62.3176 83.9929 63.018 83.8399 63.6817C83.6839 64.3638 83.3368 64.9893 82.9024 65.5307C82.0353 66.5737 80.9922 67.4684 79.833 68.1734C79.3038 68.4823 78.7135 68.7056 78.0986 68.7469C77.4808 68.7943 76.8568 68.6383 76.3139 68.3462C75.7251 68.0572 75.2418 67.5602 74.9665 66.9652C74.6683 66.3397 74.5734 65.6408 74.5673 64.9541C74.5505 63.6527 74.6423 62.3374 75.0047 61.0818C75.1867 60.4502 75.5278 59.8599 76.0141 59.4149C76.4668 58.9912 77.0266 58.6945 77.6092 58.4896C78.6125 58.1562 79.7137 58.3489 80.6665 58.7526Z" fill="#FFB510"/>
</g>
</g>
</g>
</g>
<mask id="mask49_162_72047" style="mask-type:luminance" maskUnits="userSpaceOnUse" x="76" y="58" width="8" height="8">
<path d="M76.5278 58.584H83.5752V65.6312H76.5278V58.584Z" fill="white"/>
</mask>
<g mask="url(#mask49_162_72047)">
<mask id="mask50_162_72047" style="mask-type:luminance" maskUnits="userSpaceOnUse" x="34" y="32" width="56" height="54">
<path d="M51.031 32.0498L89.9643 52.0124L72.9485 85.1961L34.0151 65.232L51.031 32.0498Z" fill="white"/>
</mask>
<g mask="url(#mask50_162_72047)">
<mask id="mask51_162_72047" style="mask-type:luminance" maskUnits="userSpaceOnUse" x="34" y="32" width="56" height="54">
<path d="M51.032 32.0503L89.9653 52.0129L72.9495 85.1966L34.0161 65.2325L51.032 32.0503Z" fill="white"/>
</mask>
<g mask="url(#mask51_162_72047)">
<path d="M78.5732 58.7875C79.2691 58.7615 79.9619 58.9343 80.595 59.2172C81.3475 59.5552 82.077 59.985 82.6368 60.5998C83.016 61.0157 83.2944 61.5311 83.3999 62.0878C83.5039 62.6919 83.4427 63.3266 83.2149 63.897C83.0313 64.3681 82.7484 64.7963 82.4196 65.1802C82.3829 65.2169 82.3523 65.2689 82.2972 65.278C82.6383 64.7642 82.9121 64.1891 82.9839 63.5713C83.0665 62.9351 82.9533 62.2713 82.6429 61.707C82.3615 61.1855 81.9332 60.7542 81.4484 60.4162C80.7495 59.9177 79.9894 59.4757 79.1528 59.2555C78.6114 59.1148 78.0349 59.0781 77.4874 59.2111C77.261 59.2631 77.0408 59.3442 76.8267 59.4359C76.8374 59.3686 76.9031 59.3426 76.9521 59.309C77.4399 59.0108 77.9982 58.8089 78.5732 58.7875Z" fill="#FFB510"/>
</g>
</g>
</g>
<mask id="mask52_162_72047" style="mask-type:luminance" maskUnits="userSpaceOnUse" x="74" y="58" width="10" height="10">
<path d="M74.9629 58.9749H83.1848V67.1966H74.9629V58.9749Z" fill="white"/>
</mask>
<g mask="url(#mask52_162_72047)">
<mask id="mask53_162_72047" style="mask-type:luminance" maskUnits="userSpaceOnUse" x="34" y="32" width="56" height="54">
<path d="M51.0305 32.0483L89.9638 52.0109L72.948 85.1947L34.0146 65.2306L51.0305 32.0483Z" fill="white"/>
</mask>
<g mask="url(#mask53_162_72047)">
<mask id="mask54_162_72047" style="mask-type:luminance" maskUnits="userSpaceOnUse" x="34" y="32" width="56" height="54">
<path d="M51.0315 32.0474L89.9648 52.0099L72.949 85.1937L34.0156 65.2296L51.0315 32.0474Z" fill="white"/>
</mask>
<g mask="url(#mask54_162_72047)">
<path d="M81.4745 60.9672C81.8309 61.7043 82.1031 62.495 82.1658 63.3163C82.2102 63.8485 82.1505 64.3837 82.0205 64.9007C82.3019 64.5199 82.4977 64.0794 82.6063 63.6206C82.6996 63.1786 82.6415 62.7183 82.5008 62.2916C82.3279 61.7456 81.9227 61.3067 81.4745 60.9672ZM79.1545 59.2528C79.9911 59.473 80.7512 59.915 81.4501 60.4136C81.9349 60.7515 82.3616 61.1828 82.6445 61.7043C82.955 62.2687 83.0682 62.9324 82.9871 63.5686C82.9137 64.1865 82.6399 64.7615 82.2989 65.2754C82.2408 65.3503 82.201 65.4451 82.1199 65.4986C81.9058 65.6088 81.7131 65.754 81.5051 65.8764C80.9117 66.248 80.2602 66.5294 79.5812 66.7007C78.9281 66.8475 78.2353 66.8506 77.5915 66.6594C76.8528 66.4377 76.2196 65.9146 75.8327 65.2509C75.5788 64.8104 75.3861 64.3302 75.2943 63.8286C75.279 63.7521 75.2515 63.6787 75.2163 63.6099C75.2133 63.6023 75.2072 63.59 75.2041 63.5839C75.2745 62.8911 75.3372 62.1937 75.5054 61.5147C75.6201 61.0039 75.7944 60.4961 76.1187 60.0771C76.3175 59.8294 76.5392 59.5785 76.8283 59.4333C77.0424 59.3415 77.2611 59.2604 77.489 59.2084C78.0365 59.0754 78.6131 59.1121 79.1545 59.2528Z" fill="#FFB510"/>
</g>
</g>
</g>
<mask id="mask55_162_72047" style="mask-type:luminance" maskUnits="userSpaceOnUse" x="81" y="60" width="2" height="6">
<path d="M81.2261 60.9321H82.7922V65.2388H81.2261V60.9321Z" fill="white"/>
</mask>
<g mask="url(#mask55_162_72047)">
<mask id="mask56_162_72047" style="mask-type:luminance" maskUnits="userSpaceOnUse" x="34" y="32" width="56" height="54">
<path d="M51.031 32.0486L89.9643 52.0112L72.9485 85.1949L34.0151 65.2308L51.031 32.0486Z" fill="white"/>
</mask>
<g mask="url(#mask56_162_72047)">
<mask id="mask57_162_72047" style="mask-type:luminance" maskUnits="userSpaceOnUse" x="34" y="32" width="56" height="54">
<path d="M51.032 32.0476L89.9653 52.0102L72.9495 85.194L34.0161 65.2299L51.032 32.0476Z" fill="white"/>
</mask>
<g mask="url(#mask57_162_72047)">
<path d="M81.4731 60.968C81.9213 61.3075 82.3265 61.7465 82.4994 62.294C82.6401 62.7191 82.6982 63.1795 82.6049 63.6214C82.4963 64.0802 82.3005 64.5207 82.0191 64.9015C82.1491 64.3846 82.2088 63.8493 82.1644 63.3171C82.1017 62.4958 81.8295 61.7052 81.4731 60.968Z" fill="#FFB510"/>
</g>
</g>
</g>
<mask id="mask58_162_72047" style="mask-type:luminance" maskUnits="userSpaceOnUse" x="74" y="63" width="9" height="6">
<path d="M74.9629 63.2808H82.4018V68.3704H74.9629V63.2808Z" fill="white"/>
</mask>
<g mask="url(#mask58_162_72047)">
<mask id="mask59_162_72047" style="mask-type:luminance" maskUnits="userSpaceOnUse" x="34" y="32" width="56" height="54">
<path d="M51.0305 32.0481L89.9638 52.0107L72.948 85.1944L34.0146 65.2303L51.0305 32.0481Z" fill="white"/>
</mask>
<g mask="url(#mask59_162_72047)">
<mask id="mask60_162_72047" style="mask-type:luminance" maskUnits="userSpaceOnUse" x="34" y="32" width="56" height="54">
<path d="M51.0315 32.0471L89.9648 52.0097L72.949 85.1935L34.0156 65.2294L51.0315 32.0471Z" fill="white"/>
</mask>
<g mask="url(#mask60_162_72047)">
<path d="M81.5021 65.8761C81.7101 65.7538 81.9028 65.6085 82.1169 65.4984C81.6184 66.0688 81.0402 66.5689 80.4361 67.0277C80.0064 67.3412 79.5751 67.6593 79.0964 67.8948C78.4938 68.1854 77.7903 68.2971 77.1388 68.1197C76.5255 67.9744 75.9795 67.5767 75.6492 67.0399C75.3265 66.523 75.2072 65.9052 75.1812 65.3026C75.1705 64.7383 75.1629 64.1709 75.2133 63.6096C75.2485 63.6784 75.2745 63.7518 75.2913 63.8283C75.3831 64.3299 75.5758 64.8102 75.8312 65.2506C76.2166 65.9143 76.8498 66.4374 77.5884 66.6591C78.2323 66.8503 78.9251 66.8472 79.5766 66.7004C80.2572 66.5291 80.9087 66.2477 81.5021 65.8761Z" fill="#FFB510"/>
</g>
</g>
</g>
<mask id="mask61_162_72047" style="mask-type:luminance" maskUnits="userSpaceOnUse" x="45" y="52" width="29" height="24">
<path d="M45.5986 52.7097H73.3966V75.4175H45.5986V52.7097Z" fill="white"/>
</mask>
<g mask="url(#mask61_162_72047)">
<mask id="mask62_162_72047" style="mask-type:luminance" maskUnits="userSpaceOnUse" x="34" y="32" width="56" height="54">
<path d="M51.032 32.0491L89.9653 52.0116L72.9495 85.1954L34.0161 65.2313L51.032 32.0491Z" fill="white"/>
</mask>
<g mask="url(#mask62_162_72047)">
<mask id="mask63_162_72047" style="mask-type:luminance" maskUnits="userSpaceOnUse" x="34" y="32" width="56" height="54">
<path d="M51.0334 32.0496L89.9668 52.0121L72.9509 85.1959L34.0176 65.2318L51.0334 32.0496Z" fill="white"/>
</mask>
<g mask="url(#mask63_162_72047)">
<mask id="mask64_162_72047" style="mask-type:luminance" maskUnits="userSpaceOnUse" x="40" y="50" width="37" height="32">
<path d="M50.3301 50.0835L76.1017 63.2986L66.5752 81.874L40.8052 68.6589L50.3301 50.0835Z" fill="white"/>
</mask>
<g mask="url(#mask64_162_72047)">
<path d="M55.9012 53.6513C55.8492 53.6344 55.7956 53.6299 55.7421 53.6329C55.3552 53.4937 54.9529 53.3852 54.54 53.3836C53.6652 53.35 52.8072 53.5748 51.9844 53.847C51.3375 54.0489 50.7242 54.3456 50.1415 54.6882C50.1048 54.7111 50.0651 54.7325 50.0375 54.7677C49.8051 54.8839 49.6017 55.0491 49.3891 55.2005C48.4194 55.9468 47.5951 56.9011 47.0767 58.016C46.5337 59.1844 46.286 60.4966 46.39 61.7828C46.4603 62.8013 46.7509 63.7954 47.1761 64.7207C47.7221 65.9013 48.528 66.9459 49.4533 67.8543C50.0467 68.4263 50.6202 69.0181 51.1723 69.6299C51.9921 70.5658 52.7614 71.5584 53.3532 72.658C53.6713 73.2315 53.9344 73.831 54.1959 74.429C55.2496 74.0757 56.3615 73.9273 57.4703 73.9105C58.9003 73.8906 60.3256 74.0558 61.7327 74.299C62.4392 74.432 63.1535 74.533 63.8723 74.5559C65.0208 74.6018 66.1755 74.4397 67.2675 74.0864C67.474 74.016 67.6942 73.9793 67.8884 73.8738L67.8379 73.8585C69.0156 73.3661 70.0815 72.5876 70.8722 71.5813C71.3081 70.9971 71.7134 70.3747 71.9428 69.6773C72.0131 69.5549 72.0575 69.4219 72.1003 69.2888C72.6815 67.5102 72.579 65.5526 71.9627 63.7985C71.6293 62.7493 71.0053 61.8012 70.1901 61.0655C69.1134 60.0837 67.7064 59.4735 66.255 59.3481C64.9459 59.2364 63.6092 59.5408 62.4652 60.1831C61.904 60.492 61.4069 60.8988 60.8762 61.2552C60.8426 60.5257 60.8992 59.7885 60.7753 59.0652C60.5933 57.8631 60.0702 56.7115 59.2857 55.7832C58.4109 54.7493 57.2088 54 55.9012 53.6513ZM55.1304 53.0365C55.8966 53.1527 56.6536 53.3592 57.3541 53.6956C58.5516 54.2599 59.6206 55.124 60.3746 56.2175C61.0796 57.2361 61.5461 58.4244 61.6929 59.657C63.0801 58.8939 64.7088 58.5758 66.2795 58.773C67.8349 58.9841 69.3337 59.6616 70.4899 60.7276C70.9946 61.1818 71.4427 61.7017 71.8006 62.2798C72.3741 63.2066 72.7258 64.2573 72.9399 65.3217C73.2275 66.7822 73.1571 68.3223 72.6861 69.7385C72.2334 71.1057 71.3876 72.3384 70.2727 73.2514C69.3826 74.0115 68.3105 74.5345 67.1987 74.8801C65.3894 75.4123 63.4517 75.3833 61.6195 74.9902C60.2339 74.7425 58.8284 74.562 57.4183 74.5834C56.6674 74.6033 55.9134 74.6813 55.1839 74.8725C54.7144 74.9872 54.2647 75.1661 53.8105 75.3282C53.5887 74.7838 53.3838 74.2332 53.1299 73.7025C52.8088 73.0189 52.4341 72.3598 51.9967 71.7434C51.1784 70.5964 50.2104 69.5656 49.201 68.5869C48.0432 67.5286 47.0583 66.2638 46.4175 64.8277C46.0413 63.9759 45.7813 63.069 45.6742 62.1422C45.5442 61.038 45.6559 59.9094 45.9755 58.8449C46.3594 57.5649 47.1042 56.4026 48.0738 55.4834C49.048 54.5337 50.2639 53.8547 51.5501 53.4265C52.0578 53.2628 52.5748 53.1129 53.1039 53.0365C53.7738 52.9416 54.459 52.9371 55.1304 53.0365Z" fill="#FFB510"/>
</g>
</g>
</g>
</g>
<mask id="mask65_162_72047" style="mask-type:luminance" maskUnits="userSpaceOnUse" x="47" y="56" width="24" height="18">
<path d="M47.5566 56.2339H70.2648V73.4605H47.5566V56.2339Z" fill="white"/>
</mask>
<g mask="url(#mask65_162_72047)">
<mask id="mask66_162_72047" style="mask-type:luminance" maskUnits="userSpaceOnUse" x="34" y="32" width="56" height="54">
<path d="M51.032 32.0493L89.9653 52.0119L72.9495 85.1957L34.0161 65.2316L51.032 32.0493Z" fill="white"/>
</mask>
<g mask="url(#mask66_162_72047)">
<mask id="mask67_162_72047" style="mask-type:luminance" maskUnits="userSpaceOnUse" x="34" y="32" width="56" height="54">
<path d="M51.0334 32.0498L89.9668 52.0124L72.9509 85.1961L34.0176 65.232L51.0334 32.0498Z" fill="white"/>
</mask>
<g mask="url(#mask67_162_72047)">
<path d="M53.2085 56.7374C52.7573 56.8047 52.3138 56.9194 51.881 57.0662C51.2035 57.3109 50.5474 57.6397 49.9922 58.1031C49.4982 58.5145 49.0563 58.9978 48.7473 59.5652C48.3634 60.2381 48.1799 61.0104 48.1509 61.7812C48.1264 62.6866 48.339 63.5889 48.7137 64.4101C49.0532 65.1488 49.5074 65.8324 50.0412 66.4457C50.477 66.9565 50.9863 67.397 51.4773 67.8542C52.3918 68.7306 53.2804 69.6466 54.0145 70.682C54.4335 71.2784 54.7945 71.9147 55.1141 72.5692C56.4003 72.2588 57.7431 72.2802 59.0492 72.4316C59.9439 72.534 60.834 72.687 61.7149 72.8812C62.9965 73.1534 64.3378 73.2115 65.6225 72.9225C66.7251 72.661 67.7835 72.1181 68.5482 71.2693C69.137 70.6162 69.5315 69.795 69.686 68.9309C69.9307 67.7181 69.6952 66.4549 69.2318 65.3232C69.0437 64.8368 68.7714 64.3857 68.4472 63.9789C67.4424 62.7447 65.9345 61.9418 64.3546 61.7797C63.6924 61.7154 63.024 61.7888 62.3817 61.9525C61.8785 62.0825 61.3983 62.3012 60.9609 62.5826C60.5786 62.8273 60.1978 63.075 59.8154 63.3213C59.794 62.8777 59.7649 62.4342 59.7451 61.9907C59.6931 60.9186 59.2893 59.8772 58.6454 59.0238C58.2555 58.5023 57.7615 58.0649 57.2216 57.7009C56.0531 56.9255 54.6064 56.5417 53.2085 56.7374ZM54.6675 56.3046C56.0577 56.4835 57.3761 57.1549 58.3411 58.1719C58.6959 58.5543 59.0033 58.9856 59.2404 59.4505C59.4285 59.8558 59.6105 60.2702 59.6977 60.7107C59.8169 61.1817 59.8384 61.668 59.8552 62.1513C59.8827 62.4786 59.8735 62.8089 59.9148 63.1362C60.2651 62.9175 60.6046 62.682 60.9502 62.4556C61.3968 62.1498 61.8801 61.899 62.3939 61.7277C62.9277 61.5763 63.4783 61.4662 64.0365 61.46C64.7691 61.4432 65.4986 61.5916 66.1837 61.8485C67.5189 62.3532 68.698 63.3304 69.3526 64.6105C69.582 65.0632 69.7319 65.5495 69.8787 66.0328C70.0301 66.5895 70.1081 67.1645 70.1188 67.7411C70.1265 68.4446 69.9995 69.1481 69.7472 69.8026C69.5025 70.474 69.0896 71.0735 68.5986 71.5858C68.0542 72.1318 67.3904 72.5555 66.6747 72.8414C66.1929 73.0525 65.6806 73.184 65.1621 73.262C64.4647 73.3798 63.752 73.3889 63.0485 73.3354C62.7931 73.3186 62.5408 73.2651 62.2838 73.2605C61.4855 73.0892 60.6841 72.924 59.8751 72.8093C59.271 72.7374 58.6669 72.661 58.0597 72.6289C57.0167 72.5845 55.9644 72.6457 54.9474 72.8904C54.4458 71.8428 53.8371 70.8441 53.0892 69.9556C52.5922 69.3606 52.0676 68.7887 51.5094 68.2488C51.0184 67.7609 50.4862 67.3159 50.0213 66.8005C49.0272 65.7208 48.2518 64.3964 47.9887 62.9389C47.7838 61.8668 47.9077 60.7351 48.3482 59.738C48.6341 59.0987 49.0547 58.5222 49.5701 58.0481C50.4113 57.2497 51.4849 56.7282 52.6029 56.4499C53.2743 56.2771 53.9778 56.2098 54.6675 56.3046Z" fill="#FFB510"/>
</g>
</g>
</g>
<mask id="mask68_162_72047" style="mask-type:luminance" maskUnits="userSpaceOnUse" x="55" y="53" width="18" height="17">
<path d="M55.3877 53.4941H72.6146V69.9377H55.3877V53.4941Z" fill="white"/>
</mask>
<g mask="url(#mask68_162_72047)">
<mask id="mask69_162_72047" style="mask-type:luminance" maskUnits="userSpaceOnUse" x="34" y="32" width="56" height="54">
<path d="M51.0324 32.0493L89.9658 52.0119L72.9499 85.1957L34.0166 65.2316L51.0324 32.0493Z" fill="white"/>
</mask>
<g mask="url(#mask69_162_72047)">
<mask id="mask70_162_72047" style="mask-type:luminance" maskUnits="userSpaceOnUse" x="34" y="32" width="56" height="54">
<path d="M51.0339 32.0498L89.9673 52.0124L72.9514 85.1961L34.0181 65.232L51.0339 32.0498Z" fill="white"/>
</mask>
<g mask="url(#mask70_162_72047)">
<path d="M55.9022 53.6494C57.2098 53.9981 58.4119 54.7474 59.2867 55.7813C60.0713 56.7096 60.5943 57.8612 60.7779 59.0633C60.9002 59.7866 60.8436 60.5238 60.8773 61.2533C61.408 60.8969 61.905 60.4901 62.4663 60.1812C63.6103 59.5389 64.947 59.2345 66.2561 59.3462C67.7075 59.4716 69.1145 60.0818 70.1912 61.0636C71.0063 61.7993 71.6319 62.7474 71.9637 63.7966C72.5801 65.5507 72.6825 67.5083 72.1014 69.2869C72.0586 69.42 72.0142 69.553 71.9438 69.6754C72.3124 68.5544 72.3522 67.3462 72.1901 66.1824C72.0142 64.9925 71.6059 63.8256 70.9268 62.8285C70.5429 62.2596 70.0658 61.7518 69.5183 61.3359C69.2261 61.1156 68.905 60.9382 68.5823 60.7685C67.3114 60.0833 65.8416 59.7729 64.404 59.8967C62.9435 60.016 61.6022 60.7777 60.576 61.7962C60.5454 61.6371 60.5745 61.4781 60.5714 61.319C60.5745 60.3051 60.4598 59.2865 60.1661 58.3154C59.8755 57.355 59.3923 56.4527 58.7423 55.6895C58.2345 55.1038 57.6381 54.5945 56.9651 54.2091C56.5721 53.9889 56.1653 53.7901 55.7432 53.631C55.7967 53.628 55.8502 53.6325 55.9022 53.6494Z" fill="#FFB510"/>
</g>
</g>
</g>
<mask id="mask71_162_72047" style="mask-type:luminance" maskUnits="userSpaceOnUse" x="48" y="53" width="25" height="22">
<path d="M48.3394 53.1008H72.6136V74.2425H48.3394V53.1008Z" fill="white"/>
</mask>
<g mask="url(#mask71_162_72047)">
<mask id="mask72_162_72047" style="mask-type:luminance" maskUnits="userSpaceOnUse" x="34" y="32" width="56" height="54">
<path d="M51.032 32.0491L89.9653 52.0116L72.9495 85.1954L34.0161 65.2313L51.032 32.0491Z" fill="white"/>
</mask>
<g mask="url(#mask72_162_72047)">
<mask id="mask73_162_72047" style="mask-type:luminance" maskUnits="userSpaceOnUse" x="34" y="32" width="56" height="54">
<path d="M51.0334 32.0496L89.9668 52.0121L72.9509 85.1959L34.0176 65.2318L51.0334 32.0496Z" fill="white"/>
</mask>
<g mask="url(#mask73_162_72047)">
<path d="M67.8772 61.0244C68.0882 61.2202 68.3146 61.3991 68.521 61.6025C69.4693 62.517 70.2431 63.6059 70.835 64.782C71.2984 65.7057 71.4819 66.7549 71.4253 67.7826C71.3993 68.5549 71.2311 69.3135 71.0277 70.0552C71.4804 69.2844 71.7021 68.3974 71.7664 67.5104C71.8612 66.2379 71.5767 64.9411 70.9619 63.8231C70.2783 62.5843 69.1557 61.6132 67.8772 61.0244ZM55.7416 53.6315C56.1637 53.7906 56.5705 53.9894 56.9635 54.2096C57.6365 54.595 58.2329 55.1043 58.7407 55.69C59.3907 56.4532 59.874 57.3555 60.1645 58.3159C60.4582 59.2871 60.5729 60.3056 60.5698 61.3196C60.5729 61.4786 60.5438 61.6377 60.5744 61.7952C61.6006 60.7782 62.9419 60.0166 64.4024 59.8973C65.84 59.7734 67.3098 60.0839 68.5807 60.769C68.9034 60.9388 69.2246 61.1162 69.5167 61.3364C70.0642 61.7524 70.5414 62.2601 70.9252 62.829C71.6043 63.8262 72.0126 64.9931 72.1885 66.1829C72.3506 67.3467 72.3108 68.5549 71.9423 69.6759C71.7129 70.3733 71.3076 70.9957 70.8717 71.58C70.081 72.5863 69.015 73.3647 67.8374 73.8571C67.4337 73.8831 67.0284 73.8679 66.6246 73.8571C65.2589 73.825 63.9008 73.6354 62.5657 73.3494C62.4708 73.3265 62.3791 73.2913 62.2858 73.2622C62.5427 73.2653 62.7951 73.3188 63.0505 73.3356C63.7555 73.3892 64.4667 73.38 65.1641 73.2622C65.6825 73.1842 66.1964 73.0527 66.6781 72.8417C67.3924 72.5557 68.0561 72.132 68.6006 71.5861C69.0915 71.0737 69.506 70.4742 69.7491 69.8029C70.0015 69.1483 70.1284 68.4448 70.1208 67.7413C70.1101 67.1647 70.0321 66.5897 69.8807 66.033C69.7338 65.5497 69.584 65.0634 69.3546 64.6107C68.7 63.3307 67.5224 62.3534 66.1857 61.8487C65.5005 61.5918 64.771 61.4434 64.0384 61.4603C63.4817 61.4664 62.9312 61.5765 62.3959 61.7279C61.882 61.8992 61.3987 62.15 60.9522 62.4559C60.6065 62.6822 60.267 62.9177 59.9168 63.1364C59.8755 62.8091 59.8847 62.4788 59.8571 62.1515C59.8403 61.6683 59.8189 61.1819 59.6996 60.7109C59.6124 60.2704 59.4304 59.856 59.2423 59.4507C59.0053 58.9858 58.6979 58.5545 58.343 58.1722C57.378 57.1552 56.0597 56.4838 54.6695 56.3048C53.9797 56.21 53.2762 56.2773 52.6048 56.4501C51.4868 56.7285 50.4132 57.25 49.5721 58.0483C49.0582 58.5224 48.6361 59.099 48.3501 59.7382C48.373 59.4461 48.3547 59.1525 48.3883 58.8619C48.4908 57.6828 48.8976 56.5388 49.517 55.5325C49.6761 55.2679 49.8734 55.0278 50.037 54.7663C50.0645 54.7311 50.1043 54.7097 50.141 54.6868C50.7237 54.3442 51.337 54.0475 51.9839 53.8456C52.8067 53.5734 53.6647 53.3486 54.5395 53.3823C54.9524 53.3838 55.3546 53.4924 55.7416 53.6315Z" fill="#FFB510"/>
</g>
</g>
</g>
<mask id="mask74_162_72047" style="mask-type:luminance" maskUnits="userSpaceOnUse" x="67" y="60" width="5" height="11">
<path d="M67.522 60.9304H71.8287V70.3267H67.522V60.9304Z" fill="white"/>
</mask>
<g mask="url(#mask74_162_72047)">
<mask id="mask75_162_72047" style="mask-type:luminance" maskUnits="userSpaceOnUse" x="34" y="32" width="56" height="54">
<path d="M51.031 32.0486L89.9643 52.0112L72.9485 85.1949L34.0151 65.2308L51.031 32.0486Z" fill="white"/>
</mask>
<g mask="url(#mask75_162_72047)">
<mask id="mask76_162_72047" style="mask-type:luminance" maskUnits="userSpaceOnUse" x="34" y="32" width="56" height="54">
<path d="M51.032 32.0491L89.9653 52.0116L72.9495 85.1954L34.0161 65.2313L51.032 32.0491Z" fill="white"/>
</mask>
<g mask="url(#mask76_162_72047)">
<path d="M67.8774 61.0237C69.156 61.6125 70.2786 62.5836 70.9622 63.8224C71.577 64.9403 71.8615 66.2372 71.7666 67.5096C71.7024 68.3951 71.4807 69.2837 71.028 70.0545C71.2314 69.3127 71.3996 68.5542 71.4256 67.7819C71.4822 66.7541 71.2987 65.705 70.8353 64.7813C70.2434 63.6052 69.4695 62.5163 68.5213 61.6018C68.3148 61.3984 68.0885 61.2194 67.8774 61.0237Z" fill="#FFB510"/>
</g>
</g>
</g>
<mask id="mask77_162_72047" style="mask-type:luminance" maskUnits="userSpaceOnUse" x="45" y="54" width="23" height="21">
<path d="M45.9897 54.6692H67.9149V74.6363H45.9897V54.6692Z" fill="white"/>
</mask>
<g mask="url(#mask77_162_72047)">
<mask id="mask78_162_72047" style="mask-type:luminance" maskUnits="userSpaceOnUse" x="34" y="32" width="56" height="54">
<path d="M51.032 32.0496L89.9653 52.0121L72.9495 85.1959L34.0161 65.2318L51.032 32.0496Z" fill="white"/>
</mask>
<g mask="url(#mask78_162_72047)">
<mask id="mask79_162_72047" style="mask-type:luminance" maskUnits="userSpaceOnUse" x="34" y="32" width="56" height="54">
<path d="M51.0334 32.05L89.9668 52.0126L72.9509 85.1964L34.0176 65.2323L51.0334 32.05Z" fill="white"/>
</mask>
<g mask="url(#mask79_162_72047)">
<path d="M50.0365 54.7676C49.8729 55.0291 49.6756 55.2692 49.5165 55.5338C48.8971 56.5401 48.4903 57.684 48.3879 58.8632C48.3542 59.1537 48.3726 59.4474 48.3496 59.7395C47.9092 60.7366 47.7853 61.8683 47.9902 62.9404C48.2533 64.3979 49.0287 65.7223 50.0228 66.802C50.4877 67.3174 51.0199 67.7624 51.5109 68.2503C52.0691 68.7902 52.5936 69.3621 53.0907 69.9571C53.8386 70.8456 54.4473 71.8443 54.9489 72.8919C55.9659 72.6472 57.0181 72.586 58.0612 72.6319C58.6683 72.6625 59.2724 72.7389 59.8765 72.8108C60.6856 72.9255 61.487 73.0907 62.2853 73.2635C62.3786 73.2926 62.4704 73.3277 62.5652 73.3507C63.9003 73.6367 65.2584 73.8263 66.6241 73.8569C67.0279 73.8691 67.4332 73.8844 67.8369 73.8584L67.8874 73.8737C67.6932 73.9792 67.473 74.0159 67.2665 74.0863C66.173 74.4396 65.0198 74.6017 63.8713 74.5558C63.1525 74.5329 62.4382 74.4319 61.7317 74.2989C60.3246 74.0557 58.8977 73.8905 57.4693 73.9104C56.3605 73.9272 55.2486 74.0756 54.1949 74.4289C53.9334 73.8309 53.6703 73.2314 53.3522 72.6579C52.7604 71.5583 51.9911 70.5657 51.1713 69.6298C50.6192 69.018 50.0457 68.4262 49.4523 67.8542C48.527 66.9458 47.7211 65.9012 47.1751 64.7206C46.7499 63.7953 46.4593 62.8012 46.389 61.7827C46.285 60.4965 46.5327 59.1843 47.0757 58.0159C47.5941 56.901 48.4185 55.9467 49.3881 55.2004C49.6007 55.049 49.8041 54.8838 50.0365 54.7676Z" fill="#FFB510"/>
</g>
</g>
</g>
<defs>
<filter id="filter0_d_162_72047" x="0" y="0" width="124.41" height="124.425" filterUnits="userSpaceOnUse" color-interpolation-filters="sRGB">
<feFlood flood-opacity="0" result="BackgroundImageFix"/>
<feColorMatrix in="SourceAlpha" type="matrix" values="0 0 0 0 0 0 0 0 0 0 0 0 0 0 0 0 0 0 127 0" result="hardAlpha"/>
<feOffset dy="4"/>
<feGaussianBlur stdDeviation="14"/>
<feComposite in2="hardAlpha" operator="out"/>
<feColorMatrix type="matrix" values="0 0 0 0 0 0 0 0 0 0 0 0 0 0 0 0 0 0 0.25 0"/>
<feBlend mode="normal" in2="BackgroundImageFix" result="effect1_dropShadow_162_72047"/>
<feBlend mode="normal" in="SourceGraphic" in2="effect1_dropShadow_162_72047" result="shape"/>
</filter>
</defs>
</svg>
