<svg width="41" height="37" viewBox="0 0 41 37" fill="none" xmlns="http://www.w3.org/2000/svg">
<mask id="mask0_162_72049" style="mask-type:luminance" maskUnits="userSpaceOnUse" x="24" y="5" width="11" height="14">
<path d="M24.6616 5.09033H34.4496V18.0103H24.6616V5.09033Z" fill="white"/>
</mask>
<g mask="url(#mask0_162_72049)">
<mask id="mask1_162_72049" style="mask-type:luminance" maskUnits="userSpaceOnUse" x="-10" y="-7" width="57" height="54">
<path d="M7.38596 -6.95898L46.3193 13.0036L29.3035 46.1874L-9.62988 26.2233L7.38596 -6.95898Z" fill="white"/>
</mask>
<g mask="url(#mask1_162_72049)">
<mask id="mask2_162_72049" style="mask-type:luminance" maskUnits="userSpaceOnUse" x="-10" y="-7" width="57" height="54">
<path d="M7.38694 -6.95996L46.3203 13.0026L29.3044 46.1864L-9.62891 26.2223L7.38694 -6.95996Z" fill="white"/>
</mask>
<g mask="url(#mask2_162_72049)">
<path d="M29.9978 5.65501C29.4411 5.77583 28.9471 6.08782 28.5235 6.45792C28.1427 6.79131 27.771 7.14306 27.4591 7.54375L27.508 7.52999C27.3658 7.69057 27.2205 7.84962 27.0813 8.01173C26.6882 8.46595 26.4237 9.00887 26.1667 9.54567C25.6972 10.633 25.3026 11.7724 25.2109 12.9607C25.2048 12.9943 25.2078 13.0265 25.2185 13.0586C25.165 13.603 25.2185 14.1704 25.428 14.6797C25.7706 15.4979 26.4451 16.1203 27.1654 16.6097C27.7787 17.0349 28.5082 17.3239 29.2637 17.3178C29.9611 17.3209 30.6447 17.0869 31.2397 16.7321C31.7658 16.4262 32.2368 16.027 32.6192 15.5529C33.0596 14.9978 33.3732 14.3463 33.5613 13.6627C33.6622 13.3063 33.7738 12.9485 33.7968 12.5784C33.858 12.3627 33.806 12.1318 33.8335 11.9116C33.8993 11.803 33.8717 11.6699 33.884 11.5491C33.9084 10.8426 33.8503 10.1345 33.7173 9.43861C33.6026 8.82229 33.4343 8.21208 33.1713 7.6401C32.8455 6.92437 32.3424 6.26216 31.6404 5.88594C31.1464 5.60607 30.5499 5.5189 29.9978 5.65501ZM31.6174 5.48372C31.8897 5.60913 32.1604 5.74371 32.402 5.9257C32.9847 6.35851 33.4175 6.96872 33.7127 7.6294C34.0308 8.33748 34.2189 9.0991 34.3351 9.86683C34.537 11.1545 34.4743 12.4881 34.118 13.7437C33.9268 14.3983 33.6484 15.033 33.2462 15.5866C32.821 16.1784 32.2628 16.6724 31.6373 17.0441C31.1632 17.3285 30.6447 17.5426 30.1018 17.6527C29.4962 17.7781 28.86 17.7567 28.2666 17.5809C27.6456 17.4111 27.0828 17.0792 26.5705 16.6954C25.792 16.1127 25.0962 15.3388 24.8423 14.3799C24.5961 13.4073 24.7016 12.3826 24.9402 11.4191C25.3822 9.70931 26.1973 8.06832 27.4514 6.80661C27.9102 6.3478 28.4073 5.91653 28.9838 5.61066C29.4824 5.34761 30.0483 5.19162 30.6142 5.22985C30.9613 5.24515 31.3008 5.34455 31.6174 5.48372Z" fill="#FFB510"/>
</g>
</g>
</g>
<mask id="mask3_162_72049" style="mask-type:luminance" maskUnits="userSpaceOnUse" x="27" y="5" width="8" height="8">
<path d="M27.4019 5.48145H34.0577V12.1372H27.4019V5.48145Z" fill="white"/>
</mask>
<g mask="url(#mask3_162_72049)">
<mask id="mask4_162_72049" style="mask-type:luminance" maskUnits="userSpaceOnUse" x="-10" y="-7" width="57" height="54">
<path d="M7.38645 -6.95801L46.3198 13.0046L29.3039 46.1883L-9.62939 26.2242L7.38645 -6.95801Z" fill="white"/>
</mask>
<g mask="url(#mask4_162_72049)">
<mask id="mask5_162_72049" style="mask-type:luminance" maskUnits="userSpaceOnUse" x="-10" y="-7" width="57" height="54">
<path d="M7.38743 -6.95728L46.3208 13.0053L29.3049 46.1891L-9.62842 26.225L7.38743 -6.95728Z" fill="white"/>
</mask>
<g mask="url(#mask5_162_72049)">
<path d="M29.9992 5.65565C30.5513 5.51954 31.1478 5.60671 31.6418 5.88658C32.3437 6.2628 32.8484 6.92501 33.1727 7.64075C33.4342 8.21272 33.604 8.82293 33.7187 9.44079C33.8517 10.1351 33.9098 10.8432 33.8854 11.5498C33.8731 11.6706 33.9007 11.8036 33.8349 11.9122C33.8441 10.7316 33.6085 9.54019 33.0733 8.48342C32.7184 7.78603 32.2107 7.15594 31.5561 6.72314C31.2594 6.53962 30.9505 6.36221 30.6064 6.28421C30.1522 6.17716 29.6735 6.24751 29.2391 6.39892C28.5815 6.62832 27.9988 7.03971 27.5109 7.53063L27.4604 7.5444C27.7724 7.14371 28.1441 6.79196 28.5249 6.45856C28.9501 6.08846 29.4425 5.77647 29.9992 5.65565Z" fill="#FFB510"/>
</g>
</g>
</g>
<mask id="mask6_162_72049" style="mask-type:luminance" maskUnits="userSpaceOnUse" x="25" y="5" width="10" height="12">
<path d="M25.0527 5.87427H34.0577V16.0536H25.0527V5.87427Z" fill="white"/>
</mask>
<g mask="url(#mask6_162_72049)">
<mask id="mask7_162_72049" style="mask-type:luminance" maskUnits="userSpaceOnUse" x="-10" y="-7" width="57" height="54">
<path d="M7.38645 -6.95825L46.3198 13.0043L29.3039 46.1881L-9.62939 26.224L7.38645 -6.95825Z" fill="white"/>
</mask>
<g mask="url(#mask7_162_72049)">
<mask id="mask8_162_72049" style="mask-type:luminance" maskUnits="userSpaceOnUse" x="-10" y="-7" width="57" height="54">
<path d="M7.38743 -6.95947L46.3208 13.0031L29.3049 46.1869L-9.62842 26.2228L7.38743 -6.95947Z" fill="white"/>
</mask>
<g mask="url(#mask8_162_72049)">
<path d="M30.8576 6.7919C31.2644 7.16812 31.6452 7.57492 31.9664 8.02761C32.7051 9.04463 33.1715 10.2345 33.456 11.4533C33.5034 10.4424 33.3382 9.39332 32.8091 8.51547C32.3564 7.75692 31.6498 7.16965 30.8576 6.7919ZM30.6052 6.28416C30.9478 6.36215 31.2583 6.53956 31.5534 6.72308C32.2096 7.15588 32.7173 7.78597 33.0706 8.48336C33.6074 9.54013 33.8429 10.7315 33.8337 11.9106C33.8062 12.1324 33.8582 12.3633 33.797 12.5789C33.664 12.8451 33.5539 13.1219 33.404 13.3803C32.7968 14.4845 31.74 15.3455 30.5181 15.6728C29.7885 15.8594 29.0086 15.8747 28.276 15.6927C27.2223 15.4419 26.2832 14.7674 25.6822 13.8697C25.5002 13.6158 25.3702 13.3314 25.2188 13.0592C25.2081 13.027 25.205 12.9949 25.2111 12.9613C25.3029 11.773 25.6975 10.6336 26.167 9.54625C26.4239 9.00945 26.6885 8.46653 27.0816 8.01232C27.2207 7.85021 27.366 7.69115 27.5098 7.53057C27.9976 7.03965 28.5803 6.62826 29.238 6.39886C29.6723 6.24745 30.151 6.1771 30.6052 6.28416Z" fill="#FFB510"/>
</g>
</g>
</g>
<mask id="mask9_162_72049" style="mask-type:luminance" maskUnits="userSpaceOnUse" x="30" y="6" width="4" height="6">
<path d="M30.5371 6.65649H33.6693V11.7462H30.5371V6.65649Z" fill="white"/>
</mask>
<g mask="url(#mask9_162_72049)">
<mask id="mask10_162_72049" style="mask-type:luminance" maskUnits="userSpaceOnUse" x="-10" y="-7" width="57" height="54">
<path d="M7.38938 -6.95776L46.3227 13.0048L29.3069 46.1886L-9.62646 26.2245L7.38938 -6.95776Z" fill="white"/>
</mask>
<g mask="url(#mask10_162_72049)">
<mask id="mask11_162_72049" style="mask-type:luminance" maskUnits="userSpaceOnUse" x="-10" y="-7" width="57" height="54">
<path d="M7.39036 -6.95728L46.3237 13.0053L29.3079 46.1891L-9.62549 26.225L7.39036 -6.95728Z" fill="white"/>
</mask>
<g mask="url(#mask11_162_72049)">
<path d="M30.8623 6.79297C31.6545 7.17072 32.3611 7.75799 32.8138 8.51654C33.343 9.39439 33.5081 10.4435 33.4607 11.4544C33.1763 10.2355 32.7098 9.0457 31.9726 8.02868C31.6499 7.57599 31.2691 7.16919 30.8623 6.79297Z" fill="#FFB510"/>
</g>
</g>
</g>
<mask id="mask12_162_72049" style="mask-type:luminance" maskUnits="userSpaceOnUse" x="25" y="12" width="10" height="6">
<path d="M25.0527 12.5291H34.0577V17.6187H25.0527V12.5291Z" fill="white"/>
</mask>
<g mask="url(#mask12_162_72049)">
<mask id="mask13_162_72049" style="mask-type:luminance" maskUnits="userSpaceOnUse" x="-10" y="-7" width="57" height="54">
<path d="M7.38645 -6.95898L46.3198 13.0036L29.3039 46.1874L-9.62939 26.2233L7.38645 -6.95898Z" fill="white"/>
</mask>
<g mask="url(#mask13_162_72049)">
<mask id="mask14_162_72049" style="mask-type:luminance" maskUnits="userSpaceOnUse" x="-10" y="-7" width="57" height="54">
<path d="M7.38743 -6.95996L46.3208 13.0026L29.3049 46.1864L-9.62842 26.2223L7.38743 -6.95996Z" fill="white"/>
</mask>
<g mask="url(#mask14_162_72049)">
<path d="M33.4063 13.3797C33.5547 13.1213 33.6663 12.8445 33.7978 12.5784C33.7749 12.9485 33.6633 13.3063 33.5638 13.6627C33.3742 14.3463 33.0607 14.9978 32.6202 15.5529C32.2379 16.027 31.7668 16.4262 31.2407 16.7321C30.6458 17.0869 29.9622 17.3209 29.2648 17.3178C28.5093 17.3239 27.7797 17.0349 27.1665 16.6097C26.4461 16.1203 25.7717 15.4979 25.4291 14.6797C25.2196 14.1704 25.166 13.603 25.2196 13.0586C25.371 13.3308 25.501 13.6153 25.683 13.8691C26.284 14.7669 27.223 15.4413 28.2768 15.6921C29.0109 15.8741 29.7893 15.8588 30.5204 15.6722C31.7408 15.345 32.7992 14.4839 33.4063 13.3797Z" fill="#FFB510"/>
</g>
</g>
</g>
<mask id="mask15_162_72049" style="mask-type:luminance" maskUnits="userSpaceOnUse" x="12" y="0" width="12" height="12">
<path d="M12.5298 0H23.8839V11.7454H12.5298V0Z" fill="white"/>
</mask>
<g mask="url(#mask15_162_72049)">
<mask id="mask16_162_72049" style="mask-type:luminance" maskUnits="userSpaceOnUse" x="-10" y="-7" width="57" height="54">
<path d="M7.38987 -6.9585L46.3232 13.0041L29.3074 46.1878L-9.62598 26.2237L7.38987 -6.9585Z" fill="white"/>
</mask>
<g mask="url(#mask16_162_72049)">
<mask id="mask17_162_72049" style="mask-type:luminance" maskUnits="userSpaceOnUse" x="-10" y="-7" width="57" height="54">
<path d="M7.39084 -6.95801L46.3242 13.0046L29.3083 46.1883L-9.625 26.2242L7.39084 -6.95801Z" fill="white"/>
</mask>
<g mask="url(#mask17_162_72049)">
<path d="M20.2448 0.553209C19.5429 0.583796 18.8577 0.782612 18.2108 1.04872C17.1815 1.46623 16.2103 2.04432 15.3921 2.79676L15.4594 2.78759C15.3095 2.91452 15.152 3.03228 14.9914 3.14851C14.9471 3.18522 14.889 3.21886 14.8737 3.28004C14.6779 3.47426 14.5173 3.70214 14.346 3.9193C13.9897 4.37505 13.6961 4.88279 13.5064 5.4303C13.2709 6.0925 13.1959 6.80824 13.2648 7.50562C13.3168 8.04701 13.4376 8.58993 13.6991 9.07167C13.9958 9.64518 14.473 10.1147 15.0358 10.4297C15.5649 10.7264 16.1507 10.913 16.7441 11.0354C17.4109 11.1699 18.1221 11.1546 18.7598 10.8992C19.058 10.7845 19.3226 10.601 19.5796 10.4129C19.7126 10.3135 19.8487 10.2172 19.965 10.0994C20.0032 10.104 20.0231 10.0642 20.0506 10.0443C20.2601 9.82717 20.4819 9.62071 20.6807 9.39283C21.2756 8.69086 21.8125 7.9369 22.2223 7.11258C22.5114 6.58037 22.727 6.00992 22.9014 5.4303C23.0084 5.08008 23.0543 4.71762 23.0941 4.35517C23.1614 4.22517 23.1568 4.07682 23.1767 3.93612C23.247 3.35497 23.2378 2.74935 23.039 2.19267C22.883 1.74763 22.5955 1.34388 22.207 1.07319C21.6396 0.675557 20.93 0.524152 20.2448 0.553209ZM21.6702 0.381923C21.9684 0.519564 22.2621 0.672499 22.5236 0.874372C23.0161 1.246 23.3632 1.79504 23.5223 2.39148C23.6982 3.05063 23.6951 3.74649 23.6049 4.4194C23.4137 5.93804 22.8111 7.38939 21.9409 8.64345C21.294 9.57789 20.5217 10.4557 19.5383 11.043C19.003 11.3688 18.3821 11.5477 17.7565 11.5614C17.0454 11.5752 16.3419 11.4131 15.6781 11.1699C14.9838 10.9191 14.3307 10.5291 13.8352 9.97857C13.4085 9.50601 13.1164 8.92332 12.9497 8.31312C12.6653 7.21963 12.7035 6.03439 13.1195 4.97914C13.4177 4.19153 13.93 3.50638 14.4944 2.89005C15.3447 1.98315 16.3908 1.26894 17.5256 0.768847C18.1924 0.470625 18.8913 0.224399 19.6193 0.132639C20.3091 0.045466 21.0279 0.102052 21.6702 0.381923Z" fill="#FFB510"/>
</g>
</g>
</g>
<mask id="mask18_162_72049" style="mask-type:luminance" maskUnits="userSpaceOnUse" x="15" y="0" width="9" height="5">
<path d="M15.2705 0.391113H23.4924V4.69775H15.2705V0.391113Z" fill="white"/>
</mask>
<g mask="url(#mask18_162_72049)">
<mask id="mask19_162_72049" style="mask-type:luminance" maskUnits="userSpaceOnUse" x="-10" y="-7" width="57" height="54">
<path d="M7.39036 -6.9585L46.3237 13.0041L29.3079 46.1878L-9.62549 26.2237L7.39036 -6.9585Z" fill="white"/>
</mask>
<g mask="url(#mask19_162_72049)">
<mask id="mask20_162_72049" style="mask-type:luminance" maskUnits="userSpaceOnUse" x="-10" y="-7" width="57" height="54">
<path d="M7.39133 -6.95801L46.3247 13.0046L29.3088 46.1883L-9.62451 26.2242L7.39133 -6.95801Z" fill="white"/>
</mask>
<g mask="url(#mask20_162_72049)">
<path d="M20.2453 0.554355C20.9305 0.523769 21.6401 0.675174 22.2075 1.0728C22.5959 1.3435 22.8835 1.74725 23.0395 2.19229C23.2383 2.74897 23.2475 3.35459 23.1771 3.93574C23.1572 4.07644 23.1618 4.22479 23.0945 4.35478C23.1358 3.8348 23.0731 3.30106 22.8666 2.82085C22.6923 2.41404 22.4109 2.05312 22.0652 1.77783C21.6431 1.4689 21.1507 1.25785 20.6353 1.17221C19.97 1.04986 19.2833 1.11257 18.6287 1.26703C17.4741 1.5209 16.3974 2.07147 15.4599 2.7872L15.3926 2.79638C16.2108 2.04394 17.1819 1.46585 18.2112 1.04833C18.8581 0.782228 19.5433 0.583413 20.2453 0.554355Z" fill="#FFB510"/>
</g>
</g>
</g>
<mask id="mask21_162_72049" style="mask-type:luminance" maskUnits="userSpaceOnUse" x="14" y="0" width="10" height="11">
<path d="M14.0972 0.78418H23.4937V10.572H14.0972V0.78418Z" fill="white"/>
</mask>
<g mask="url(#mask21_162_72049)">
<mask id="mask22_162_72049" style="mask-type:luminance" maskUnits="userSpaceOnUse" x="-10" y="-7" width="57" height="54">
<path d="M7.3928 -6.9585L46.3261 13.0041L29.3103 46.1878L-9.62305 26.2237L7.3928 -6.9585Z" fill="white"/>
</mask>
<g mask="url(#mask22_162_72049)">
<mask id="mask23_162_72049" style="mask-type:luminance" maskUnits="userSpaceOnUse" x="-10" y="-7" width="57" height="54">
<path d="M7.39377 -6.95972L46.3271 13.0029L29.3113 46.1866L-9.62207 26.2225L7.39377 -6.95972Z" fill="white"/>
</mask>
<g mask="url(#mask23_162_72049)">
<path d="M19.5135 1.63936C18.8574 1.59654 18.2105 1.79841 17.6278 2.08746C17.1399 2.33674 16.6826 2.6472 16.2636 2.99895C16.7163 2.78178 17.1766 2.57838 17.6523 2.41933C18.7198 2.06299 19.8867 1.88559 20.9939 2.1624C20.5535 1.87182 20.0473 1.65924 19.5135 1.63936ZM20.6361 1.17138C21.1515 1.25702 21.6439 1.46807 22.066 1.777C22.4117 2.05228 22.6931 2.41321 22.8674 2.82002C23.0754 3.30023 23.1366 3.8355 23.0953 4.35395C23.0555 4.71641 23.0097 5.07886 22.9026 5.42908C22.7283 6.00871 22.5126 6.57915 22.2236 7.11136C21.8137 7.93568 21.2769 8.68965 20.682 9.39162C20.4831 9.61949 20.2614 9.82596 20.0518 10.0431C20.0243 10.063 20.0044 10.1028 19.9662 10.0982C19.8591 10.0982 19.7536 10.1104 19.6496 10.1379C18.9476 10.2985 18.2105 10.2037 17.5391 9.96513C16.2819 9.53385 15.2664 8.53213 14.7021 7.3423C14.4956 6.86667 14.3473 6.36198 14.3075 5.84354C14.2479 5.21039 14.3473 4.56347 14.5752 3.97009C14.6547 3.72998 14.8 3.51893 14.8749 3.27882C14.8902 3.21765 14.9483 3.184 14.9927 3.1473C15.1533 3.03107 15.3108 2.91331 15.4607 2.78637C16.3982 2.07064 17.4748 1.52007 18.6295 1.2662C19.2841 1.11021 19.9708 1.04903 20.6361 1.17138Z" fill="#FFB510"/>
</g>
</g>
</g>
<mask id="mask24_162_72049" style="mask-type:luminance" maskUnits="userSpaceOnUse" x="16" y="1" width="6" height="3">
<path d="M16.0527 1.56641H21.1425V3.13246H16.0527V1.56641Z" fill="white"/>
</mask>
<g mask="url(#mask24_162_72049)">
<mask id="mask25_162_72049" style="mask-type:luminance" maskUnits="userSpaceOnUse" x="-10" y="-7" width="57" height="54">
<path d="M7.39036 -6.95801L46.3237 13.0046L29.3079 46.1883L-9.62549 26.2242L7.39036 -6.95801Z" fill="white"/>
</mask>
<g mask="url(#mask25_162_72049)">
<mask id="mask26_162_72049" style="mask-type:luminance" maskUnits="userSpaceOnUse" x="-10" y="-7" width="57" height="54">
<path d="M7.39133 -6.95752L46.3247 13.005L29.3088 46.1888L-9.62451 26.2247L7.39133 -6.95752Z" fill="white"/>
</mask>
<g mask="url(#mask26_162_72049)">
<path d="M19.5131 1.64074C20.0469 1.66062 20.5531 1.8732 20.9935 2.16378C19.8863 1.88696 18.7194 2.06437 17.6519 2.42071C17.1762 2.57976 16.7159 2.78163 16.2632 3.00033C16.6822 2.64705 17.1395 2.33812 17.6274 2.08884C18.2101 1.79979 18.857 1.59792 19.5131 1.64074Z" fill="#FFB510"/>
</g>
</g>
</g>
<mask id="mask27_162_72049" style="mask-type:luminance" maskUnits="userSpaceOnUse" x="12" y="3" width="8" height="9">
<path d="M12.9209 3.13062H19.9683V11.3524H12.9209V3.13062Z" fill="white"/>
</mask>
<g mask="url(#mask27_162_72049)">
<mask id="mask28_162_72049" style="mask-type:luminance" maskUnits="userSpaceOnUse" x="-10" y="-7" width="57" height="54">
<path d="M7.38987 -6.9585L46.3232 13.0041L29.3074 46.1878L-9.62598 26.2237L7.38987 -6.9585Z" fill="white"/>
</mask>
<g mask="url(#mask28_162_72049)">
<mask id="mask29_162_72049" style="mask-type:luminance" maskUnits="userSpaceOnUse" x="-10" y="-7" width="57" height="54">
<path d="M7.39084 -6.95825L46.3242 13.0043L29.3083 46.1881L-9.625 26.224L7.39084 -6.95825Z" fill="white"/>
</mask>
<g mask="url(#mask29_162_72049)">
<path d="M14.8746 3.2793C14.7997 3.5194 14.6544 3.73045 14.5748 3.97056C14.347 4.56395 14.2476 5.21086 14.3072 5.84401C14.347 6.36246 14.4953 6.86714 14.7018 7.34277C15.2661 8.5326 16.2816 9.53433 17.5388 9.9656C18.2102 10.2042 18.9473 10.299 19.6493 10.1384C19.7533 10.1109 19.8588 10.0987 19.9659 10.0987C19.8497 10.2164 19.7135 10.3128 19.5805 10.4122C19.3236 10.6003 19.059 10.7838 18.7607 10.8985C18.123 11.1539 17.4118 11.1692 16.745 11.0346C16.1516 10.9123 15.5659 10.7257 15.0367 10.429C14.4739 10.1139 13.9967 9.64444 13.6985 9.07093C13.4385 8.58919 13.3177 8.04627 13.2657 7.50488C13.1969 6.8075 13.2718 6.09177 13.5073 5.42956C13.697 4.88205 13.9906 4.37584 14.347 3.91856C14.5183 3.7014 14.6788 3.47352 14.8746 3.2793Z" fill="#FFB510"/>
</g>
</g>
</g>
<mask id="mask30_162_72049" style="mask-type:luminance" maskUnits="userSpaceOnUse" x="0" y="3" width="10" height="12">
<path d="M0 3.13037H9.78801V14.0927H0V3.13037Z" fill="white"/>
</mask>
<g mask="url(#mask30_162_72049)">
<mask id="mask31_162_72049" style="mask-type:luminance" maskUnits="userSpaceOnUse" x="-10" y="-7" width="57" height="54">
<path d="M7.39133 -6.95923L46.3247 13.0033L29.3088 46.1871L-9.62451 26.223L7.39133 -6.95923Z" fill="white"/>
</mask>
<g mask="url(#mask31_162_72049)">
<mask id="mask32_162_72049" style="mask-type:luminance" maskUnits="userSpaceOnUse" x="-10" y="-7" width="57" height="54">
<path d="M7.3928 -6.9585L46.3261 13.0041L29.3103 46.1878L-9.62305 26.2237L7.3928 -6.9585Z" fill="white"/>
</mask>
<g mask="url(#mask32_162_72049)">
<path d="M4.98637 4.00007C4.41744 3.91443 3.82251 3.95113 3.28264 4.16371C2.63877 4.40382 2.05761 4.83509 1.6875 5.4193C1.40457 5.8414 1.27151 6.33997 1.16293 6.83089C1.13999 6.95018 1.0941 7.071 1.11399 7.19488C0.866227 8.35565 0.777523 9.55313 0.876932 10.7368C0.927402 11.2981 1.08187 11.864 1.41374 12.3258C1.62327 12.6302 1.90467 12.8825 2.21972 13.0752C2.73818 13.3903 3.38052 13.4912 3.97392 13.3627C4.61932 13.2281 5.19742 12.884 5.722 12.4941C6.08905 12.2218 6.46374 11.9603 6.8048 11.656C6.81244 11.6545 6.82927 11.6514 6.83691 11.6499C7.12749 11.3807 7.42266 11.1192 7.70713 10.8439C8.12618 10.4034 8.55899 9.95993 8.8404 9.41396C8.94745 9.17232 9.04074 8.91998 9.09121 8.65999C9.13251 8.426 9.17227 8.18436 9.10804 7.9519C9.11568 7.92896 9.13098 7.88461 9.13862 7.86167C9.1478 7.42734 9.06215 6.98994 8.8771 6.59537C8.54981 5.87505 7.93653 5.32754 7.27737 4.91156C6.57233 4.48487 5.80917 4.12242 4.98637 4.00007ZM6.42704 3.94654C7.00973 4.21112 7.58172 4.5124 8.0803 4.91615C8.68134 5.38872 9.19368 6.00351 9.43838 6.73607C9.62344 7.30958 9.67849 7.9259 9.59744 8.52388C9.49191 9.31761 9.11874 10.0548 8.62475 10.6757C7.83254 11.6346 6.8935 12.4727 5.84741 13.1471C5.35953 13.4744 4.82119 13.7451 4.24156 13.8628C3.72463 13.9714 3.1817 13.9531 2.67701 13.7971C1.98879 13.5891 1.34186 13.1884 0.924343 12.5919C0.497647 11.9833 0.312592 11.2354 0.274358 10.5013C0.233064 9.34361 0.288122 8.17672 0.511411 7.03888C0.619996 6.52961 0.740817 6.01575 0.982459 5.55083C1.31892 4.89015 1.87714 4.35488 2.52866 4.00619C2.98288 3.75996 3.47534 3.56726 3.99227 3.51374C4.82578 3.42351 5.66388 3.62232 6.42704 3.94654Z" fill="#FFB510"/>
</g>
</g>
</g>
<mask id="mask33_162_72049" style="mask-type:luminance" maskUnits="userSpaceOnUse" x="0" y="3" width="10" height="6">
<path d="M0.782227 3.91406H9.39567V8.2207H0.782227V3.91406Z" fill="white"/>
</mask>
<g mask="url(#mask33_162_72049)">
<mask id="mask34_162_72049" style="mask-type:luminance" maskUnits="userSpaceOnUse" x="-10" y="-7" width="57" height="54">
<path d="M7.38889 -6.9585L46.3222 13.0041L29.3064 46.1878L-9.62695 26.2237L7.38889 -6.9585Z" fill="white"/>
</mask>
<g mask="url(#mask34_162_72049)">
<mask id="mask35_162_72049" style="mask-type:luminance" maskUnits="userSpaceOnUse" x="-10" y="-7" width="57" height="54">
<path d="M7.38987 -6.95801L46.3232 13.0046L29.3074 46.1883L-9.62598 26.2242L7.38987 -6.95801Z" fill="white"/>
</mask>
<g mask="url(#mask35_162_72049)">
<path d="M4.98175 4.00066C5.80455 4.12301 6.56771 4.48546 7.27275 4.91215C7.93192 5.32813 8.5452 5.87564 8.87248 6.59596C9.05754 6.99053 9.14318 7.42793 9.13401 7.86226C9.12636 7.8852 9.11106 7.92955 9.10342 7.95249C8.9673 7.33005 8.65531 6.74737 8.20262 6.29774C7.50369 5.59577 6.58148 5.17061 5.65773 4.85098C5.0521 4.63381 4.39447 4.52981 3.75519 4.63993C3.06085 4.75769 2.41087 5.1232 1.94746 5.65541C1.72876 5.90317 1.54677 6.18304 1.39842 6.47973C1.28372 6.71066 1.18584 6.94924 1.10937 7.19547C1.08948 7.07159 1.13537 6.95077 1.15831 6.83148C1.26689 6.34056 1.39995 5.84199 1.68288 5.41989C2.05299 4.83568 2.63415 4.40441 3.27802 4.1643C3.81789 3.95172 4.41282 3.91502 4.98175 4.00066Z" fill="#FFB510"/>
</g>
</g>
</g>
<mask id="mask36_162_72049" style="mask-type:luminance" maskUnits="userSpaceOnUse" x="1" y="4" width="9" height="9">
<path d="M1.17334 4.30542H9.39527V12.1357H1.17334V4.30542Z" fill="white"/>
</mask>
<g mask="url(#mask36_162_72049)">
<mask id="mask37_162_72049" style="mask-type:luminance" maskUnits="userSpaceOnUse" x="-10" y="-7" width="57" height="54">
<path d="M7.38889 -6.9585L46.3222 13.0041L29.3064 46.1878L-9.62695 26.2237L7.38889 -6.9585Z" fill="white"/>
</mask>
<g mask="url(#mask37_162_72049)">
<mask id="mask38_162_72049" style="mask-type:luminance" maskUnits="userSpaceOnUse" x="-10" y="-7" width="57" height="54">
<path d="M7.38987 -6.95801L46.3232 13.0046L29.3074 46.1883L-9.62598 26.2242L7.38987 -6.95801Z" fill="white"/>
</mask>
<g mask="url(#mask38_162_72049)">
<path d="M3.69299 5.11319C2.98795 5.32271 2.41137 5.82893 1.97091 6.40243C2.65454 5.97727 3.3917 5.61482 4.18851 5.47106C4.89661 5.3273 5.6353 5.37471 6.32199 5.59646C5.55577 5.11013 4.58462 4.83485 3.69299 5.11319ZM5.65824 4.85014C6.58198 5.16978 7.5042 5.59494 8.20312 6.29691C8.65582 6.74653 8.96781 7.32921 9.10393 7.95166C9.16816 8.18412 9.1284 8.42576 9.0871 8.65975C9.03663 8.91974 8.94334 9.17208 8.83628 9.41371C8.55488 9.95969 8.12207 10.4032 7.70302 10.8437C7.41855 11.1189 7.12338 11.3805 6.8328 11.6496C6.82515 11.6512 6.80833 11.6542 6.80068 11.6557C6.62022 11.6848 6.46575 11.7903 6.29446 11.8454C5.79741 12.0075 5.26366 12.0809 4.74673 11.9953C3.99428 11.9066 3.30759 11.5043 2.79219 10.9599C2.0015 10.1249 1.58704 8.99773 1.4601 7.86907C1.42187 7.55097 1.40963 7.22981 1.42034 6.90864C1.42645 6.76489 1.4234 6.62113 1.39893 6.4789C1.54728 6.1822 1.72927 5.90233 1.94797 5.65458C2.41137 5.12237 3.06136 4.75685 3.7557 4.63909C4.39497 4.52898 5.05261 4.63298 5.65824 4.85014Z" fill="#FFB510"/>
</g>
</g>
</g>
<mask id="mask39_162_72049" style="mask-type:luminance" maskUnits="userSpaceOnUse" x="1" y="4" width="6" height="3">
<path d="M1.95801 4.69653H6.65625V6.6541H1.95801V4.69653Z" fill="white"/>
</mask>
<g mask="url(#mask39_162_72049)">
<mask id="mask40_162_72049" style="mask-type:luminance" maskUnits="userSpaceOnUse" x="-10" y="-7" width="57" height="54">
<path d="M7.39133 -6.9585L46.3247 13.0041L29.3088 46.1878L-9.62451 26.2237L7.39133 -6.9585Z" fill="white"/>
</mask>
<g mask="url(#mask40_162_72049)">
<mask id="mask41_162_72049" style="mask-type:luminance" maskUnits="userSpaceOnUse" x="-10" y="-7" width="57" height="54">
<path d="M7.3928 -6.95801L46.3261 13.0046L29.3103 46.1883L-9.62305 26.2242L7.3928 -6.95801Z" fill="white"/>
</mask>
<g mask="url(#mask41_162_72049)">
<path d="M3.69571 5.11433C4.58734 4.83599 5.55849 5.11127 6.32471 5.5976C5.63802 5.37584 4.89933 5.32844 4.19123 5.47219C3.39442 5.61595 2.65726 5.97841 1.97363 6.40357C2.41409 5.83006 2.99067 5.32385 3.69571 5.11433Z" fill="#FFB510"/>
</g>
</g>
</g>
<mask id="mask42_162_72049" style="mask-type:luminance" maskUnits="userSpaceOnUse" x="0" y="6" width="8" height="8">
<path d="M0.782227 6.26318H7.04655V13.7019H0.782227V6.26318Z" fill="white"/>
</mask>
<g mask="url(#mask42_162_72049)">
<mask id="mask43_162_72049" style="mask-type:luminance" maskUnits="userSpaceOnUse" x="-10" y="-7" width="57" height="54">
<path d="M7.38889 -6.9585L46.3222 13.0041L29.3064 46.1878L-9.62695 26.2237L7.38889 -6.9585Z" fill="white"/>
</mask>
<g mask="url(#mask43_162_72049)">
<mask id="mask44_162_72049" style="mask-type:luminance" maskUnits="userSpaceOnUse" x="-10" y="-7" width="57" height="54">
<path d="M7.38987 -6.95801L46.3232 13.0046L29.3074 46.1883L-9.62598 26.2242L7.38987 -6.95801Z" fill="white"/>
</mask>
<g mask="url(#mask44_162_72049)">
<path d="M1.39907 6.47949C1.42354 6.62172 1.4266 6.76548 1.42048 6.90924C1.40977 7.2304 1.42201 7.55156 1.46024 7.86967C1.58718 8.99833 2.00164 10.1255 2.79233 10.9605C3.30773 11.5049 3.99442 11.9071 4.74687 11.9958C5.2638 12.0815 5.79755 12.0081 6.2946 11.846C6.46589 11.7909 6.62036 11.6854 6.80082 11.6563C6.45977 11.9607 6.08508 12.2222 5.71803 12.4944C5.19345 12.8844 4.61535 13.2285 3.96995 13.3631C3.37655 13.4915 2.73421 13.3906 2.21575 13.0756C1.9007 12.8829 1.6193 12.6305 1.40977 12.3262C1.0779 11.8643 0.923431 11.2985 0.872961 10.7372C0.773552 9.55348 0.862256 8.356 1.11001 7.19523C1.18648 6.949 1.28436 6.71042 1.39907 6.47949Z" fill="#FFB510"/>
</g>
</g>
</g>
<mask id="mask45_162_72049" style="mask-type:luminance" maskUnits="userSpaceOnUse" x="30" y="19" width="11" height="11">
<path d="M30.5376 19.1853H40.3256V29.7561H30.5376V19.1853Z" fill="white"/>
</mask>
<g mask="url(#mask45_162_72049)">
<mask id="mask46_162_72049" style="mask-type:luminance" maskUnits="userSpaceOnUse" x="-10" y="-7" width="57" height="54">
<path d="M7.38987 -6.9585L46.3232 13.0041L29.3074 46.1878L-9.62598 26.2237L7.38987 -6.9585Z" fill="white"/>
</mask>
<g mask="url(#mask46_162_72049)">
<mask id="mask47_162_72049" style="mask-type:luminance" maskUnits="userSpaceOnUse" x="-10" y="-7" width="57" height="54">
<path d="M7.39084 -6.95972L46.3242 13.0029L29.3083 46.1866L-9.625 26.2225L7.39084 -6.95972Z" fill="white"/>
</mask>
<g mask="url(#mask47_162_72049)">
<mask id="mask48_162_72049" style="mask-type:luminance" maskUnits="userSpaceOnUse" x="28" y="17" width="14" height="15">
<path d="M33.4325 17.877L41.659 22.0949L36.8476 31.4805L28.6211 27.2626L33.4325 17.877Z" fill="white"/>
</mask>
<g mask="url(#mask48_162_72049)">
<path d="M34.9306 19.7772C34.3556 19.7986 33.7973 20.0005 33.3095 20.2987C33.2605 20.3323 33.1948 20.3583 33.184 20.4256C32.895 20.5709 32.6732 20.8217 32.4744 21.0695C32.1502 21.4885 31.9758 21.9963 31.8611 22.5071C31.6914 23.1861 31.6302 23.8835 31.5599 24.5763C31.5629 24.5824 31.569 24.5962 31.5721 24.6023C31.5216 25.1636 31.5293 25.7309 31.54 26.2953C31.566 26.8978 31.6853 27.5142 32.008 28.0326C32.3383 28.5694 32.8843 28.967 33.4976 29.1123C34.1491 29.2897 34.8526 29.1781 35.4552 28.8875C35.9339 28.652 36.3652 28.3339 36.7949 28.0204C37.399 27.5616 37.9771 27.0615 38.4757 26.491C38.5567 26.4375 38.5965 26.3427 38.6546 26.2677C38.7097 26.2586 38.7403 26.2066 38.777 26.1699C39.1058 25.786 39.3887 25.3578 39.5723 24.8867C39.8001 24.3163 39.8613 23.6816 39.7573 23.0775C39.6518 22.5208 39.3734 22.0055 38.9942 21.5895C38.4344 20.9747 37.7049 20.5449 36.9524 20.2069C36.3193 19.924 35.6265 19.7512 34.9306 19.7772ZM37.0258 19.7451C37.7187 20.0509 38.3962 20.4149 38.9651 20.9227C39.4973 21.383 39.9332 21.9764 40.1335 22.657C40.3217 23.31 40.3522 24.0104 40.1993 24.6742C40.0433 25.3562 39.6961 25.9818 39.2618 26.5231C38.3946 27.5662 37.3516 28.4608 36.1923 29.1659C35.6632 29.4748 35.0728 29.6981 34.458 29.7394C33.8402 29.7868 33.2162 29.6308 32.6732 29.3387C32.0844 29.0496 31.6011 28.5526 31.3259 27.9577C31.0276 27.3322 30.9328 26.6333 30.9267 25.9466C30.9099 24.6451 31.0016 23.3299 31.3641 22.0743C31.5461 21.4427 31.8871 20.8523 32.3735 20.4073C32.8262 19.9837 33.3859 19.687 33.9686 19.482C34.9719 19.1486 36.073 19.3413 37.0258 19.7451Z" fill="#FFB510"/>
</g>
</g>
</g>
</g>
<mask id="mask49_162_72049" style="mask-type:luminance" maskUnits="userSpaceOnUse" x="32" y="19" width="8" height="8">
<path d="M32.8872 19.5764H39.9346V26.6236H32.8872V19.5764Z" fill="white"/>
</mask>
<g mask="url(#mask49_162_72049)">
<mask id="mask50_162_72049" style="mask-type:luminance" maskUnits="userSpaceOnUse" x="-10" y="-7" width="57" height="54">
<path d="M7.39036 -6.95776L46.3237 13.0048L29.3079 46.1886L-9.62549 26.2245L7.39036 -6.95776Z" fill="white"/>
</mask>
<g mask="url(#mask50_162_72049)">
<mask id="mask51_162_72049" style="mask-type:luminance" maskUnits="userSpaceOnUse" x="-10" y="-7" width="57" height="54">
<path d="M7.39133 -6.95728L46.3247 13.0053L29.3088 46.1891L-9.62451 26.225L7.39133 -6.95728Z" fill="white"/>
</mask>
<g mask="url(#mask51_162_72049)">
<path d="M34.9326 19.7799C35.6284 19.7539 36.3213 19.9267 36.9544 20.2097C37.7069 20.5477 38.4364 20.9774 38.9961 21.5922C39.3754 22.0082 39.6538 22.5236 39.7593 23.0802C39.8633 23.6843 39.8021 24.319 39.5742 24.8895C39.3907 25.3605 39.1078 25.7887 38.779 26.1726C38.7423 26.2093 38.7117 26.2613 38.6566 26.2705C38.9977 25.7566 39.2714 25.1816 39.3433 24.5637C39.4259 23.9275 39.3127 23.2638 39.0023 22.6994C38.7208 22.1779 38.2926 21.7467 37.8078 21.4087C37.1089 20.9101 36.3488 20.4681 35.5122 20.2479C34.9708 20.1072 34.3942 20.0705 33.8467 20.2035C33.6204 20.2555 33.4001 20.3366 33.186 20.4284C33.1967 20.3611 33.2625 20.3351 33.3114 20.3014C33.7993 20.0032 34.3575 19.8013 34.9326 19.7799Z" fill="#FFB510"/>
</g>
</g>
</g>
<mask id="mask52_162_72049" style="mask-type:luminance" maskUnits="userSpaceOnUse" x="31" y="19" width="9" height="10">
<path d="M31.3223 19.9673H39.5442V28.1891H31.3223V19.9673Z" fill="white"/>
</mask>
<g mask="url(#mask52_162_72049)">
<mask id="mask53_162_72049" style="mask-type:luminance" maskUnits="userSpaceOnUse" x="-10" y="-7" width="57" height="54">
<path d="M7.38987 -6.95923L46.3232 13.0033L29.3074 46.1871L-9.62598 26.223L7.38987 -6.95923Z" fill="white"/>
</mask>
<g mask="url(#mask53_162_72049)">
<mask id="mask54_162_72049" style="mask-type:luminance" maskUnits="userSpaceOnUse" x="-10" y="-7" width="57" height="54">
<path d="M7.39084 -6.96021L46.3242 13.0024L29.3083 46.1861L-9.625 26.222L7.39084 -6.96021Z" fill="white"/>
</mask>
<g mask="url(#mask54_162_72049)">
<path d="M37.8339 21.9596C38.1903 22.6968 38.4625 23.4874 38.5252 24.3087C38.5696 24.8409 38.5099 25.3762 38.3799 25.8931C38.6613 25.5123 38.8571 25.0718 38.9657 24.613C39.059 24.1711 39.0008 23.7107 38.8601 23.284C38.6873 22.7381 38.282 22.2991 37.8339 21.9596ZM35.5139 20.2452C36.3504 20.4654 37.1105 20.9074 37.8095 21.406C38.2943 21.744 38.721 22.1753 39.0039 22.6968C39.3144 23.2611 39.4275 23.9248 39.3465 24.561C39.2731 25.1789 38.9993 25.7539 38.6583 26.2678C38.6001 26.3427 38.5604 26.4375 38.4793 26.4911C38.2652 26.6012 38.0725 26.7465 37.8645 26.8688C37.2711 27.2405 36.6196 27.5219 35.9406 27.6931C35.2875 27.84 34.5947 27.843 33.9508 27.6518C33.2121 27.4301 32.579 26.9071 32.1921 26.2433C31.9382 25.8029 31.7455 25.3227 31.6537 24.821C31.6384 24.7446 31.6109 24.6712 31.5757 24.6023C31.5727 24.5947 31.5665 24.5824 31.5635 24.5763C31.6338 23.8835 31.6965 23.1862 31.8648 22.5071C31.9795 21.9963 32.1538 21.4886 32.478 21.0695C32.6769 20.8218 32.8986 20.571 33.1877 20.4257C33.4018 20.3339 33.6205 20.2529 33.8484 20.2009C34.3959 20.0678 34.9725 20.1045 35.5139 20.2452Z" fill="#FFB510"/>
</g>
</g>
</g>
<mask id="mask55_162_72049" style="mask-type:luminance" maskUnits="userSpaceOnUse" x="37" y="21" width="3" height="6">
<path d="M37.5854 21.9246H39.1515V26.2312H37.5854V21.9246Z" fill="white"/>
</mask>
<g mask="url(#mask55_162_72049)">
<mask id="mask56_162_72049" style="mask-type:luminance" maskUnits="userSpaceOnUse" x="-10" y="-7" width="57" height="54">
<path d="M7.39036 -6.95898L46.3237 13.0036L29.3079 46.1874L-9.62549 26.2233L7.39036 -6.95898Z" fill="white"/>
</mask>
<g mask="url(#mask56_162_72049)">
<mask id="mask57_162_72049" style="mask-type:luminance" maskUnits="userSpaceOnUse" x="-10" y="-7" width="57" height="54">
<path d="M7.39133 -6.95996L46.3247 13.0026L29.3088 46.1864L-9.62451 26.2223L7.39133 -6.95996Z" fill="white"/>
</mask>
<g mask="url(#mask57_162_72049)">
<path d="M37.8325 21.9604C38.2806 22.3 38.6859 22.7389 38.8587 23.2864C38.9994 23.7116 39.0575 24.1719 38.9643 24.6139C38.8557 25.0727 38.6599 25.5131 38.3785 25.8939C38.5085 25.377 38.5681 24.8417 38.5238 24.3095C38.4611 23.4883 38.1889 22.6976 37.8325 21.9604Z" fill="#FFB510"/>
</g>
</g>
</g>
<mask id="mask58_162_72049" style="mask-type:luminance" maskUnits="userSpaceOnUse" x="31" y="24" width="8" height="6">
<path d="M31.3223 24.2732H38.7612V29.3629H31.3223V24.2732Z" fill="white"/>
</mask>
<g mask="url(#mask58_162_72049)">
<mask id="mask59_162_72049" style="mask-type:luminance" maskUnits="userSpaceOnUse" x="-10" y="-7" width="57" height="54">
<path d="M7.38987 -6.95947L46.3232 13.0031L29.3074 46.1869L-9.62598 26.2228L7.38987 -6.95947Z" fill="white"/>
</mask>
<g mask="url(#mask59_162_72049)">
<mask id="mask60_162_72049" style="mask-type:luminance" maskUnits="userSpaceOnUse" x="-10" y="-7" width="57" height="54">
<path d="M7.39084 -6.96045L46.3242 13.0021L29.3083 46.1859L-9.625 26.2218L7.39084 -6.96045Z" fill="white"/>
</mask>
<g mask="url(#mask60_162_72049)">
<path d="M37.8615 26.8685C38.0695 26.7462 38.2622 26.6009 38.4763 26.4908C37.9777 27.0612 37.3996 27.5613 36.7955 28.0201C36.3658 28.3337 35.9345 28.6518 35.4558 28.8873C34.8532 29.1779 34.1497 29.2895 33.4982 29.1121C32.8849 28.9668 32.3389 28.5692 32.0086 28.0324C31.6859 27.5155 31.5666 26.8976 31.5406 26.295C31.5299 25.7307 31.5222 25.1633 31.5727 24.6021C31.6079 24.6709 31.6339 24.7443 31.6507 24.8207C31.7425 25.3224 31.9352 25.8026 32.1906 26.243C32.576 26.9068 33.2091 27.4298 33.9478 27.6516C34.5917 27.8427 35.2845 27.8397 35.936 27.6929C36.6166 27.5216 37.2681 27.2402 37.8615 26.8685Z" fill="#FFB510"/>
</g>
</g>
</g>
<mask id="mask61_162_72049" style="mask-type:luminance" maskUnits="userSpaceOnUse" x="1" y="13" width="29" height="24">
<path d="M1.95801 13.7021H29.756V36.4099H1.95801V13.7021Z" fill="white"/>
</mask>
<g mask="url(#mask61_162_72049)">
<mask id="mask62_162_72049" style="mask-type:luminance" maskUnits="userSpaceOnUse" x="-10" y="-7" width="57" height="54">
<path d="M7.39133 -6.9585L46.3247 13.0041L29.3088 46.1878L-9.62451 26.2237L7.39133 -6.9585Z" fill="white"/>
</mask>
<g mask="url(#mask62_162_72049)">
<mask id="mask63_162_72049" style="mask-type:luminance" maskUnits="userSpaceOnUse" x="-10" y="-7" width="57" height="54">
<path d="M7.3928 -6.95801L46.3261 13.0046L29.3103 46.1883L-9.62305 26.2242L7.3928 -6.95801Z" fill="white"/>
</mask>
<g mask="url(#mask63_162_72049)">
<mask id="mask64_162_72049" style="mask-type:luminance" maskUnits="userSpaceOnUse" x="-3" y="11" width="36" height="32">
<path d="M6.68951 11.0759L32.461 24.291L22.9345 42.8665L-2.83545 29.6514L6.68951 11.0759Z" fill="white"/>
</mask>
<g mask="url(#mask64_162_72049)">
<path d="M12.2605 14.6437C12.2085 14.6269 12.155 14.6223 12.1015 14.6253C11.7145 14.4862 11.3123 14.3776 10.8994 14.3761C10.0246 14.3424 9.16661 14.5672 8.3438 14.8395C7.69688 15.0413 7.0836 15.338 6.5009 15.6806C6.4642 15.7035 6.42443 15.7249 6.39691 15.7601C6.16444 15.8764 5.96103 16.0415 5.74845 16.1929C4.77882 16.9392 3.95449 17.8936 3.43603 19.0085C2.8931 20.1769 2.64534 21.4891 2.74934 22.7752C2.81969 23.7938 3.11028 24.7879 3.53544 25.7131C4.08143 26.8938 4.88741 27.9383 5.81268 28.8467C6.40608 29.4187 6.9796 30.0106 7.5317 30.6223C8.35145 31.5583 9.12073 32.5508 9.71259 33.6504C10.0307 34.2239 10.2938 34.8234 10.5553 35.4214C11.609 35.0681 12.7209 34.9198 13.8297 34.903C15.2596 34.8831 16.685 35.0482 18.092 35.2914C18.7986 35.4245 19.5128 35.5254 20.2316 35.5483C21.3802 35.5942 22.5349 35.4321 23.6269 35.0788C23.8333 35.0085 24.0536 34.9718 24.2478 34.8663L24.1973 34.851C25.3749 34.3585 26.4409 33.5801 27.2316 32.5738C27.6675 31.9895 28.0728 31.3671 28.3022 30.6697C28.3725 30.5474 28.4169 30.4143 28.4597 30.2813C29.0409 28.5026 28.9384 26.5451 28.322 24.7909C27.9886 23.7418 27.3647 22.7936 26.5495 22.058C25.4728 21.0761 24.0658 20.4659 22.6144 20.3405C21.3053 20.2289 19.9686 20.5332 18.8246 21.1755C18.2633 21.4845 17.7663 21.8913 17.2356 22.2476C17.202 21.5181 17.2585 20.781 17.1347 20.0576C16.9527 18.8555 16.4296 17.7039 15.645 16.7756C14.7702 15.7418 13.5682 14.9924 12.2605 14.6437ZM11.4897 14.0289C12.2559 14.1451 13.013 14.3516 13.7134 14.688C14.9109 15.2524 15.98 16.1165 16.734 17.2099C17.439 18.2285 17.9055 19.4168 18.0523 20.6494C19.4394 19.8863 21.0682 19.5682 22.6389 19.7655C24.1943 19.9765 25.6931 20.654 26.8493 21.72C27.354 22.1742 27.8021 22.6942 28.1599 23.2723C28.7334 24.1991 29.0852 25.2497 29.2993 26.3141C29.5868 27.7747 29.5165 29.3147 29.0454 30.7309C28.5927 32.0981 27.747 33.3308 26.6321 34.2438C25.742 35.0039 24.6699 35.5269 23.558 35.8726C21.7488 36.4048 19.8111 36.3757 17.9789 35.9827C16.5933 35.7349 15.1878 35.5545 13.7777 35.5759C13.0268 35.5957 12.2728 35.6737 11.5433 35.8649C11.0737 35.9796 10.6241 36.1585 10.1699 36.3207C9.94812 35.7762 9.74318 35.2256 9.48931 34.695C9.16814 34.0113 8.79344 33.3522 8.35604 32.7359C7.53782 31.5889 6.56973 30.5581 5.56034 29.5793C4.4026 28.521 3.41768 27.2562 2.77687 25.8202C2.40064 24.9683 2.14065 24.0614 2.03359 23.1346C1.9036 22.0304 2.01524 20.9018 2.33488 19.8374C2.71875 18.5573 3.46356 17.395 4.43319 16.4759C5.4074 15.5261 6.62325 14.8471 7.90946 14.4189C8.41721 14.2552 8.93414 14.1054 9.46331 14.0289C10.1332 13.9341 10.8183 13.9295 11.4897 14.0289Z" fill="#FFB510"/>
</g>
</g>
</g>
</g>
<mask id="mask65_162_72049" style="mask-type:luminance" maskUnits="userSpaceOnUse" x="3" y="17" width="24" height="18">
<path d="M3.91602 17.2263H26.6242V34.4529H3.91602V17.2263Z" fill="white"/>
</mask>
<g mask="url(#mask65_162_72049)">
<mask id="mask66_162_72049" style="mask-type:luminance" maskUnits="userSpaceOnUse" x="-10" y="-7" width="57" height="54">
<path d="M7.39133 -6.95825L46.3247 13.0043L29.3088 46.1881L-9.62451 26.224L7.39133 -6.95825Z" fill="white"/>
</mask>
<g mask="url(#mask66_162_72049)">
<mask id="mask67_162_72049" style="mask-type:luminance" maskUnits="userSpaceOnUse" x="-10" y="-7" width="57" height="54">
<path d="M7.3928 -6.95776L46.3261 13.0048L29.3103 46.1886L-9.62305 26.2245L7.3928 -6.95776Z" fill="white"/>
</mask>
<g mask="url(#mask67_162_72049)">
<path d="M9.56788 17.7298C9.11672 17.7971 8.6732 17.9118 8.24039 18.0587C7.56287 18.3033 6.90677 18.6322 6.35161 19.0956C5.85762 19.5069 5.41563 19.9902 5.10669 20.5576C4.72282 21.2305 4.53929 22.0028 4.51024 22.7736C4.48577 23.679 4.69835 24.5813 5.07305 25.4026C5.41257 26.1413 5.86679 26.8249 6.40055 27.4381C6.83642 27.9489 7.3457 28.3894 7.83663 28.8467C8.7512 29.723 9.63977 30.6391 10.3739 31.6744C10.7929 32.2709 11.1538 32.9071 11.4735 33.5616C12.7597 33.2512 14.1025 33.2726 15.4086 33.424C16.3033 33.5265 17.1934 33.6794 18.0743 33.8736C19.3559 34.1459 20.6972 34.204 21.9818 33.9149C23.0845 33.6534 24.1428 33.1105 24.9075 32.2617C25.4963 31.6087 25.8909 30.7874 26.0454 29.9233C26.2901 28.7106 26.0546 27.4473 25.5912 26.3156C25.403 25.8293 25.1308 25.3781 24.8066 24.9713C23.8018 23.7371 22.2938 22.9342 20.714 22.7721C20.0518 22.7079 19.3834 22.7813 18.7411 22.9449C18.2379 23.0749 17.7577 23.2936 17.3203 23.575C16.938 23.8197 16.5571 24.0675 16.1748 24.3137C16.1534 23.8702 16.1243 23.4267 16.1044 22.9832C16.0524 21.9111 15.6487 20.8696 15.0048 20.0162C14.6148 19.4947 14.1208 19.0573 13.581 18.6933C12.4125 17.918 10.9657 17.5341 9.56788 17.7298ZM11.0269 17.297C12.4171 17.476 13.7354 18.1474 14.7005 19.1644C15.0553 19.5467 15.3627 19.978 15.5997 20.4429C15.7879 20.8482 15.9699 21.2626 16.057 21.7031C16.1763 22.1741 16.1977 22.6605 16.2146 23.1437C16.2421 23.471 16.2329 23.8014 16.2742 24.1286C16.6244 23.9099 16.964 23.6744 17.3096 23.4481C17.7562 23.1422 18.2394 22.8914 18.7533 22.7201C19.2871 22.5687 19.8376 22.4586 20.3959 22.4525C21.1284 22.4356 21.858 22.584 22.5431 22.8409C23.8783 23.3456 25.0574 24.3229 25.712 25.6029C25.9414 26.0556 26.0913 26.5419 26.2381 27.0252C26.3895 27.5819 26.4675 28.1569 26.4782 28.7335C26.4858 29.437 26.3589 30.1405 26.1066 30.7951C25.8619 31.4664 25.4489 32.0659 24.958 32.5783C24.4135 33.1243 23.7498 33.5479 23.034 33.8339C22.5523 34.0449 22.0399 34.1764 21.5215 34.2544C20.8241 34.3722 20.1114 34.3814 19.4079 34.3278C19.1525 34.311 18.9001 34.2575 18.6432 34.2529C17.8449 34.0816 17.0435 33.9165 16.2344 33.8018C15.6303 33.7299 15.0262 33.6534 14.4191 33.6213C13.376 33.5769 12.3238 33.6381 11.3068 33.8828C10.8052 32.8352 10.1965 31.8365 9.44859 30.948C8.95155 30.3531 8.42697 29.7811 7.86875 29.2412C7.37782 28.7534 6.84559 28.3083 6.38066 27.7929C5.38657 26.7132 4.61118 25.3888 4.34812 23.9313C4.14319 22.8593 4.26707 21.7276 4.70753 20.7304C4.99352 20.0912 5.4141 19.5146 5.9295 19.0405C6.77065 18.2422 7.84428 17.7207 8.96225 17.4423C9.63365 17.2695 10.3372 17.2022 11.0269 17.297Z" fill="#FFB510"/>
</g>
</g>
</g>
<mask id="mask68_162_72049" style="mask-type:luminance" maskUnits="userSpaceOnUse" x="11" y="14" width="18" height="17">
<path d="M11.7471 14.4866H28.974V30.9301H11.7471V14.4866Z" fill="white"/>
</mask>
<g mask="url(#mask68_162_72049)">
<mask id="mask69_162_72049" style="mask-type:luminance" maskUnits="userSpaceOnUse" x="-10" y="-7" width="57" height="54">
<path d="M7.39182 -6.95825L46.3252 13.0043L29.3093 46.1881L-9.62402 26.224L7.39182 -6.95825Z" fill="white"/>
</mask>
<g mask="url(#mask69_162_72049)">
<mask id="mask70_162_72049" style="mask-type:luminance" maskUnits="userSpaceOnUse" x="-10" y="-7" width="57" height="54">
<path d="M7.39329 -6.95776L46.3266 13.0048L29.3108 46.1886L-9.62256 26.2245L7.39329 -6.95776Z" fill="white"/>
</mask>
<g mask="url(#mask70_162_72049)">
<path d="M12.2616 14.6418C13.5692 14.9905 14.7713 15.7399 15.6461 16.7737C16.4307 17.702 16.9537 18.8536 17.1372 20.0557C17.2596 20.7791 17.203 21.5162 17.2367 22.2457C17.7673 21.8894 18.2644 21.4826 18.8257 21.1736C19.9697 20.5313 21.3063 20.227 22.6155 20.3386C24.0669 20.464 25.4739 21.0742 26.5506 22.0561C27.3657 22.7917 27.9912 23.7399 28.3231 24.789C28.9394 26.5432 29.0419 28.5007 28.4608 30.2794C28.4179 30.4124 28.3736 30.5455 28.3032 30.6678C28.6718 29.5468 28.7116 28.3386 28.5495 27.1748C28.3736 25.985 27.9652 24.8181 27.2862 23.8209C26.9023 23.252 26.4251 22.7443 25.8776 22.3283C25.5855 22.1081 25.2644 21.9307 24.9417 21.7609C23.6707 21.0758 22.201 20.7653 20.7634 20.8892C19.3028 21.0085 17.9616 21.7701 16.9354 22.7886C16.9048 22.6296 16.9338 22.4705 16.9308 22.3115C16.9338 21.2975 16.8191 20.279 16.5255 19.3078C16.2349 18.3474 15.7516 17.4451 15.1016 16.6819C14.5939 16.0962 13.9974 15.5869 13.3245 15.2015C12.9315 14.9813 12.5246 14.7825 12.1025 14.6234C12.1561 14.6204 12.2096 14.625 12.2616 14.6418Z" fill="#FFB510"/>
</g>
</g>
</g>
<mask id="mask71_162_72049" style="mask-type:luminance" maskUnits="userSpaceOnUse" x="4" y="14" width="25" height="22">
<path d="M4.69873 14.0933H28.973V35.235H4.69873V14.0933Z" fill="white"/>
</mask>
<g mask="url(#mask71_162_72049)">
<mask id="mask72_162_72049" style="mask-type:luminance" maskUnits="userSpaceOnUse" x="-10" y="-7" width="57" height="54">
<path d="M7.39133 -6.9585L46.3247 13.0041L29.3088 46.1878L-9.62451 26.2237L7.39133 -6.9585Z" fill="white"/>
</mask>
<g mask="url(#mask72_162_72049)">
<mask id="mask73_162_72049" style="mask-type:luminance" maskUnits="userSpaceOnUse" x="-10" y="-7" width="57" height="54">
<path d="M7.3928 -6.95801L46.3261 13.0046L29.3103 46.1883L-9.62305 26.2242L7.3928 -6.95801Z" fill="white"/>
</mask>
<g mask="url(#mask73_162_72049)">
<path d="M24.2366 22.0168C24.4476 22.2126 24.674 22.3915 24.8804 22.5949C25.8286 23.5095 26.6025 24.5984 27.1944 25.7744C27.6578 26.6982 27.8413 27.7473 27.7847 28.775C27.7587 29.5473 27.5905 30.3059 27.3871 31.0476C27.8398 30.2768 28.0615 29.3898 28.1258 28.5028C28.2206 27.2304 27.9361 25.9335 27.3213 24.8155C26.6377 23.5768 25.5151 22.6056 24.2366 22.0168ZM12.1009 14.624C12.5231 14.783 12.9299 14.9818 13.3229 15.2021C13.9958 15.5875 14.5923 16.0967 15.1001 16.6825C15.75 17.4456 16.2333 18.3479 16.5239 19.3084C16.8175 20.2795 16.9322 21.298 16.9292 22.312C16.9322 22.471 16.9032 22.6301 16.9338 22.7876C17.96 21.7706 19.3013 21.009 20.7618 20.8897C22.1994 20.7658 23.6692 21.0763 24.9401 21.7614C25.2628 21.9312 25.5839 22.1086 25.876 22.3288C26.4236 22.7448 26.9007 23.2525 27.2846 23.8215C27.9636 24.8186 28.372 25.9855 28.5479 27.1753C28.71 28.3392 28.6702 29.5473 28.3016 30.6683C28.0722 31.3657 27.6669 31.9882 27.2311 32.5724C26.4404 33.5787 25.3744 34.3571 24.1968 34.8496C23.793 34.8756 23.3877 34.8603 22.984 34.8496C21.6183 34.8175 20.2602 34.6278 18.925 34.3418C18.8302 34.3189 18.7384 34.2837 18.6452 34.2547C18.9021 34.2577 19.1544 34.3113 19.4098 34.3281C20.1149 34.3816 20.826 34.3724 21.5234 34.2547C22.0419 34.1767 22.5558 34.0451 23.0375 33.8341C23.7517 33.5481 24.4155 33.1245 24.9599 32.5785C25.4509 32.0662 25.8653 31.4667 26.1085 30.7953C26.3609 30.1407 26.4878 29.4372 26.4801 28.7337C26.4694 28.1572 26.3914 27.5821 26.24 27.0254C26.0932 26.5422 25.9433 26.0558 25.7139 25.6031C25.0594 24.3231 23.8817 23.3458 22.5451 22.8411C21.8599 22.5842 21.1304 22.4359 20.3978 22.4527C19.8411 22.4588 19.2905 22.5689 18.7553 22.7203C18.2414 22.8916 17.7581 23.1424 17.3115 23.4483C16.9659 23.6746 16.6264 23.9102 16.2761 24.1289C16.2349 23.8016 16.244 23.4712 16.2165 23.144C16.1997 22.6607 16.1783 22.1744 16.059 21.7033C15.9718 21.2629 15.7898 20.8484 15.6017 20.4431C15.3646 19.9782 15.0572 19.5469 14.7024 19.1646C13.7374 18.1476 12.4191 17.4762 11.0289 17.2973C10.3391 17.2024 9.63559 17.2697 8.9642 17.4426C7.84622 17.7209 6.7726 18.2424 5.93144 19.0407C5.41757 19.5148 4.99547 20.0914 4.70947 20.7306C4.73241 20.4385 4.71406 20.1449 4.74771 19.8543C4.85018 18.6752 5.25699 17.5313 5.87639 16.5249C6.03544 16.2604 6.23273 16.0203 6.39637 15.7587C6.4239 15.7236 6.46367 15.7022 6.50037 15.6792C7.08306 15.3366 7.69635 15.0399 8.34327 14.8381C9.16608 14.5659 10.0241 14.341 10.8989 14.3747C11.3118 14.3762 11.714 14.4848 12.1009 14.624Z" fill="#FFB510"/>
</g>
</g>
</g>
<mask id="mask74_162_72049" style="mask-type:luminance" maskUnits="userSpaceOnUse" x="23" y="21" width="6" height="11">
<path d="M23.8813 21.9229H28.1881V31.3192H23.8813V21.9229Z" fill="white"/>
</mask>
<g mask="url(#mask74_162_72049)">
<mask id="mask75_162_72049" style="mask-type:luminance" maskUnits="userSpaceOnUse" x="-10" y="-7" width="57" height="54">
<path d="M7.39036 -6.95898L46.3237 13.0036L29.3079 46.1874L-9.62549 26.2233L7.39036 -6.95898Z" fill="white"/>
</mask>
<g mask="url(#mask75_162_72049)">
<mask id="mask76_162_72049" style="mask-type:luminance" maskUnits="userSpaceOnUse" x="-10" y="-7" width="57" height="54">
<path d="M7.39133 -6.9585L46.3247 13.0041L29.3088 46.1878L-9.62451 26.2237L7.39133 -6.9585Z" fill="white"/>
</mask>
<g mask="url(#mask76_162_72049)">
<path d="M24.2368 22.0161C25.5154 22.6049 26.6379 23.576 27.3216 24.8148C27.9364 25.9328 28.2208 27.2297 28.126 28.5021C28.0618 29.3876 27.84 30.2761 27.3873 31.0469C27.5907 30.3052 27.759 29.5466 27.785 28.7743C27.8416 27.7466 27.658 26.6974 27.1946 25.7737C26.6028 24.5977 25.8289 23.5088 24.8807 22.5942C24.6742 22.3908 24.4479 22.2119 24.2368 22.0161Z" fill="#FFB510"/>
</g>
</g>
</g>
<mask id="mask77_162_72049" style="mask-type:luminance" maskUnits="userSpaceOnUse" x="2" y="15" width="23" height="21">
<path d="M2.34912 15.6616H24.2743V35.6288H2.34912V15.6616Z" fill="white"/>
</mask>
<g mask="url(#mask77_162_72049)">
<mask id="mask78_162_72049" style="mask-type:luminance" maskUnits="userSpaceOnUse" x="-10" y="-7" width="57" height="54">
<path d="M7.39133 -6.95801L46.3247 13.0046L29.3088 46.1883L-9.62451 26.2242L7.39133 -6.95801Z" fill="white"/>
</mask>
<g mask="url(#mask78_162_72049)">
<mask id="mask79_162_72049" style="mask-type:luminance" maskUnits="userSpaceOnUse" x="-10" y="-7" width="57" height="54">
<path d="M7.3928 -6.95752L46.3261 13.005L29.3103 46.1888L-9.62305 26.2247L7.3928 -6.95752Z" fill="white"/>
</mask>
<g mask="url(#mask79_162_72049)">
<path d="M6.39591 15.76C6.23226 16.0215 6.03497 16.2616 5.87592 16.5262C5.25652 17.5325 4.84971 18.6765 4.74724 19.8556C4.71359 20.1462 4.73195 20.4398 4.709 20.7319C4.26854 21.7291 4.14467 22.8608 4.3496 23.9328C4.61265 25.3903 5.38805 26.7147 6.38214 27.7944C6.84707 28.3098 7.3793 28.7549 7.87023 29.2427C8.42845 29.7826 8.95302 30.3546 9.45007 30.9495C10.1979 31.838 10.8066 32.8367 11.3083 33.8843C12.3253 33.6396 13.3775 33.5784 14.4205 33.6243C15.0277 33.6549 15.6318 33.7314 16.2359 33.8032C17.045 33.9179 17.8463 34.0831 18.6447 34.2559C18.738 34.285 18.8297 34.3202 18.9246 34.3431C20.2597 34.6291 21.6178 34.8187 22.9835 34.8493C23.3873 34.8616 23.7926 34.8768 24.1963 34.8508L24.2468 34.8661C24.0526 34.9717 23.8323 35.0084 23.6259 35.0787C22.5324 35.432 21.3792 35.5941 20.2306 35.5482C19.5118 35.5253 18.7976 35.4244 18.091 35.2913C16.684 35.0481 15.2571 34.883 13.8287 34.9028C12.7199 34.9197 11.608 35.068 10.5543 35.4213C10.2928 34.8233 10.0297 34.2238 9.7116 33.6503C9.11973 32.5507 8.35045 31.5582 7.5307 30.6222C6.9786 30.0105 6.40508 29.4186 5.81169 28.8466C4.88641 27.9382 4.08043 26.8937 3.53444 25.713C3.10928 24.7877 2.8187 23.7937 2.74834 22.7751C2.64435 21.4889 2.89211 20.1768 3.43503 19.0083C3.95349 17.8934 4.77783 16.9391 5.74745 16.1928C5.96003 16.0414 6.16344 15.8762 6.39591 15.76Z" fill="#FFB510"/>
</g>
</g>
</g>
</svg>
