<svg width="628" height="568" viewBox="0 0 628 568" fill="none" xmlns="http://www.w3.org/2000/svg">
<path d="M516.94 242.778C523.257 234.099 527.597 224.165 530.603 213.901C536.193 194.231 537.167 173.34 533.997 153.141C532.188 141.122 529.241 129.185 524.261 118.088C519.641 107.736 512.853 98.1655 503.728 91.4072C499.947 88.5419 495.69 86.4281 491.433 84.4787C486.454 82.2827 481.14 80.7209 475.715 80.4977C466.837 79.8871 457.965 82.3356 450.15 86.4516C441.137 91.2369 433.345 97.9952 426.141 105.206C406.5 124.958 393.73 150.693 386.801 177.485C383.073 192.564 381.405 208.617 385.268 223.865C389.249 238.891 400.153 251.021 412.337 260.146C420.375 266.153 429.194 271.361 438.935 274.026C448.23 276.78 458.188 277.115 467.677 275.166C476.191 273.41 484.311 270.075 491.744 265.624C501.538 259.782 510.299 252.049 516.951 242.784H516.94V242.778Z" fill="#FFC107"/>
<path d="M212.713 154.862C220.476 163.487 230.716 169.605 241.59 173.528C251.994 177.338 263.01 179.898 274.172 179.675C283.965 179.452 293.701 176.646 302.073 171.549C317.487 162.342 329.588 148.597 339.716 133.935C353.374 114.295 362.81 91.5658 365.816 67.7505C367.207 57.205 367.26 46.3014 364.506 35.9791C362.005 26.6315 356.58 18.0354 348.87 12.2167C344.754 9.04597 340.163 6.65035 335.489 4.48372C325.419 0.115238 314.151 -0.777249 303.353 0.590839C291.945 2.03526 280.983 5.8753 270.555 10.5491C252.775 18.3936 236.364 29.579 223.036 43.7942C214.216 53.4472 206.178 64.1864 201.504 76.5403C194.993 93.0689 194.382 111.623 198.862 128.762C201.451 138.333 206.037 147.458 212.719 154.862H212.713Z" fill="#FFC107"/>
<path d="M62.3351 215.762C71.4303 213.924 79.8619 209.668 87.5126 204.547C103.9 193.973 118.615 180.844 131.027 165.818C138.76 156.083 144.602 144.534 146.276 132.098C147.526 122.721 146.663 113.068 143.775 104.084C139.934 92.6226 131.926 82.9697 122.49 75.5656C114.675 69.2477 105.715 64.5211 96.5902 60.3757C84.6297 55.285 71.4949 52.1672 58.4481 53.5881C50.3511 54.4219 42.6182 57.4575 35.4959 61.321C25.3145 66.7758 16.5482 75.1487 11.2931 85.5238C7.51178 92.787 5.61525 100.855 3.89486 108.84C0.418862 126.672 -0.444267 144.951 0.19574 163.094C0.782903 174.585 3.7011 186.299 10.3771 195.84C16.9123 205.188 27.0408 211.476 37.8387 214.729C45.7419 217.177 54.2558 217.453 62.3469 215.756H62.3351V215.762Z" fill="#FFC107"/>
<path d="M624.831 353.587C621.689 342.901 614.872 333.612 606.523 326.407C597.592 318.451 586.994 312.75 576.143 307.964C561.206 301.623 543.955 298.617 528.237 303.819C519.112 307.048 510.322 311.693 503.224 318.34C495.602 325.297 490.259 334.557 487.423 344.462C481.745 364.132 480.301 384.718 480.577 405.11C480.659 415.879 482.133 426.841 486.806 436.629C491.116 445.948 498.714 453.739 507.921 458.272C516.435 462.834 526.199 465.283 535.881 464.561C545.534 463.891 554.771 460.415 563.061 455.577C581.228 444.532 597.586 430.511 611.162 414.153C617.979 405.668 623.404 395.874 625.852 385.188C628.242 374.783 627.772 363.792 624.825 353.581H624.831V353.587Z" fill="#FFC107"/>
<path d="M437.144 363.158C431.525 354.115 424.514 345.966 416.611 338.843C398.474 322.15 374.993 311.523 350.62 308.211C326.024 305.122 300.488 310.102 278.757 322.068C276.45 302.762 269.157 284.149 258.113 268.178C246.287 251.039 229.541 237.493 210.758 228.674C199.796 223.39 187.947 220.16 175.928 218.322C165.411 216.766 154.672 216.849 144.186 218.322C135.895 219.52 127.798 221.881 119.842 224.441C99.6728 231.146 80.6135 241.803 65.3649 256.658C50.175 271.067 38.4905 289.293 32.4779 309.35C27.4694 326.014 25.7197 343.711 27.7513 361.014C29.4482 375.535 33.5113 389.756 39.4064 403.079C49.4528 425.585 64.8893 445.396 83.0326 461.977C98.8331 477.337 114 493.472 126.823 511.445C133.669 521.098 139.565 531.45 144.573 542.16C148.554 550.48 151.778 559.105 155.254 567.619C162.376 565.089 169.416 562.276 176.761 560.497C188.193 557.491 200.019 556.269 211.786 555.964C233.875 555.629 255.881 558.442 277.612 562.335C306.324 568.482 336.675 568.958 365.029 560.609C382.444 555.183 399.249 547.004 413.188 535.096C430.662 520.77 443.932 501.458 451.025 480.038C458.4 457.867 459.48 433.717 455.006 410.818C451.641 394.154 446.128 377.684 437.144 363.158ZM404.04 467.408C401.621 480.96 395.444 493.813 386.208 504.047C374.247 517.346 357.666 525.86 340.386 529.947C320.24 534.48 299.237 533.564 279.151 529.307C265.352 526.277 251.384 523.852 237.392 522.267C216.917 519.877 195.879 519.542 175.71 524.41C170.702 514.17 165.053 504.182 158.489 494.835C146.998 478.617 133.059 464.261 118.732 450.545C111.028 443.37 103.067 436.465 96.2261 428.456C87.8826 418.856 80.7603 408.146 75.4171 396.573C69.5455 383.691 66.2339 369.558 66.6273 355.372C67.0735 343.3 69.9389 331.193 75.9455 320.653C80.7838 311.775 87.7123 304.183 95.4746 297.754C104.153 290.49 114.452 285.347 125.05 281.507C131.838 279.199 138.795 277.391 145.859 276.334C167.754 273.275 190.43 279.281 208.738 291.442C217.193 297.143 224.956 303.989 231.05 312.168C241.15 325.55 247.467 341.855 248.272 358.66C248.606 365.618 249.053 372.57 249.387 379.528C255.371 375.658 261.348 371.765 267.331 367.955C274.201 363.533 281.717 360.11 289.59 358.079C299.66 355.519 310.153 354.35 320.528 355.354C345.259 357.914 368.91 370.491 384.658 389.827C389.719 396.197 393.976 403.267 396.93 410.888C404.193 428.638 407.892 448.419 404.052 467.42L404.04 467.408Z" fill="#FFC107"/>
</svg>
