<svg width="22" height="22" viewBox="0 0 22 22" fill="none" xmlns="http://www.w3.org/2000/svg">
<rect x="1" y="1" width="19.16" height="19.1599" rx="9.57993" fill="#FFB510"/>
<rect x="1" y="1" width="19.16" height="19.1599" rx="9.57993" stroke="white" stroke-width="2"/>
<path d="M7.29858 14.5641H13.8611H7.29858ZM8.70483 10.8141C8.55735 10.8142 8.41192 10.7795 8.28038 10.7128C8.14884 10.6461 8.03489 10.5493 7.94779 10.4303C7.86069 10.3112 7.8029 10.1734 7.77912 10.0278C7.75534 9.88224 7.76624 9.73313 7.81093 9.59257L6.61421 8.57539C6.53024 8.50472 6.42313 8.46755 6.31343 8.47101C6.20374 8.47447 6.09918 8.51832 6.01983 8.59414C5.96352 8.64787 5.92356 8.71643 5.90456 8.79191C5.88557 8.8674 5.88832 8.94671 5.91249 9.0207L7.08436 12.518C7.14676 12.7044 7.26612 12.8664 7.4256 12.9812C7.58508 13.096 7.77661 13.1578 7.97311 13.1579H13.1866C13.3831 13.1578 13.5746 13.096 13.7341 12.9812C13.8935 12.8664 14.0129 12.7044 14.0753 12.518L15.2472 9.0207C15.2714 8.94671 15.2741 8.8674 15.2551 8.79191C15.2361 8.71643 15.1961 8.64787 15.1398 8.59414C15.0605 8.51832 14.9559 8.47447 14.8462 8.47101C14.7365 8.46755 14.6294 8.50472 14.5455 8.57539L13.3487 9.59257C13.3772 9.68289 13.3917 9.77757 13.3923 9.87664C13.3923 10.0355 13.3519 10.1917 13.275 10.3307C13.198 10.4696 13.087 10.5868 12.9524 10.6711C12.8178 10.7554 12.6639 10.8041 12.5053 10.8127C12.3467 10.8212 12.1885 10.7893 12.0456 10.72C11.9027 10.6507 11.7797 10.5461 11.6883 10.4163C11.5968 10.2864 11.5399 10.1354 11.5228 9.97747C11.5057 9.81955 11.529 9.65987 11.5905 9.51342C11.652 9.36697 11.7498 9.23856 11.8745 9.14023L10.9042 6.81195C10.8775 6.74797 10.8324 6.69332 10.7747 6.65489C10.717 6.61645 10.6492 6.59595 10.5798 6.59595C10.5105 6.59595 10.4427 6.61645 10.385 6.65489C10.3273 6.69332 10.2822 6.74797 10.2555 6.81195L9.28515 9.14023C9.43822 9.26083 9.5499 9.42613 9.60467 9.61315C9.65944 9.80016 9.65457 9.9996 9.59074 10.1837C9.52691 10.3678 9.40729 10.5275 9.24852 10.6405C9.08974 10.7535 8.89971 10.8142 8.70483 10.8141Z" fill="white"/>
<path d="M7.29858 14.5641H13.8611M8.70483 10.8141C8.55735 10.8142 8.41192 10.7795 8.28038 10.7128C8.14884 10.6461 8.03489 10.5493 7.94779 10.4303C7.86069 10.3112 7.8029 10.1734 7.77912 10.0278C7.75534 9.88224 7.76624 9.73313 7.81093 9.59257L6.61421 8.57539C6.53024 8.50472 6.42313 8.46755 6.31343 8.47101C6.20374 8.47447 6.09918 8.51832 6.01983 8.59414C5.96352 8.64787 5.92356 8.71643 5.90456 8.79192C5.88557 8.8674 5.88832 8.94671 5.91249 9.0207L7.08436 12.518C7.14676 12.7044 7.26612 12.8664 7.4256 12.9812C7.58508 13.096 7.77661 13.1578 7.97311 13.1579H13.1866C13.3831 13.1578 13.5746 13.096 13.7341 12.9812C13.8935 12.8664 14.0129 12.7044 14.0753 12.518L15.2472 9.0207C15.2714 8.94671 15.2741 8.8674 15.2551 8.79192C15.2361 8.71643 15.1961 8.64787 15.1398 8.59414C15.0605 8.51832 14.9559 8.47447 14.8462 8.47101C14.7365 8.46755 14.6294 8.50472 14.5455 8.57539L13.3487 9.59257C13.3772 9.68289 13.3917 9.77757 13.3923 9.87664C13.3923 10.0355 13.3519 10.1917 13.275 10.3307C13.198 10.4696 13.087 10.5868 12.9524 10.6711C12.8178 10.7554 12.6639 10.8041 12.5053 10.8127C12.3467 10.8212 12.1885 10.7893 12.0456 10.72C11.9027 10.6507 11.7797 10.5461 11.6883 10.4163C11.5968 10.2864 11.5399 10.1354 11.5228 9.97747C11.5057 9.81955 11.529 9.65987 11.5905 9.51342C11.652 9.36697 11.7498 9.23856 11.8745 9.14023L10.9042 6.81195C10.8775 6.74797 10.8324 6.69332 10.7747 6.65489C10.717 6.61645 10.6492 6.59595 10.5798 6.59595C10.5105 6.59595 10.4427 6.61645 10.385 6.65489C10.3273 6.69332 10.2822 6.74797 10.2555 6.81195L9.28515 9.14023C9.43822 9.26083 9.5499 9.42613 9.60467 9.61315C9.65944 9.80016 9.65457 9.9996 9.59074 10.1837C9.52691 10.3678 9.40729 10.5275 9.24852 10.6405C9.08974 10.7535 8.89971 10.8142 8.70483 10.8141Z" stroke="white" stroke-width="0.703125" stroke-linecap="round" stroke-linejoin="round"/>
</svg>
