<svg width="29" height="25" viewBox="0 0 29 25" fill="none" xmlns="http://www.w3.org/2000/svg">
<path d="M4.90377 23.116H23.1182M8.80687 12.7077C8.39752 12.7079 7.99389 12.6116 7.62878 12.4264C7.26368 12.2413 6.94741 11.9727 6.70567 11.6423C6.46392 11.312 6.30353 10.9292 6.23753 10.5252C6.17152 10.1212 6.20177 9.70735 6.3258 9.31724L3.00427 6.494C2.7712 6.29786 2.47392 6.1947 2.16945 6.2043C1.86499 6.2139 1.5748 6.3356 1.35456 6.54604C1.19826 6.69517 1.08734 6.88549 1.03462 7.09499C0.981895 7.30449 0.989524 7.52463 1.05662 7.72998L4.3092 17.437C4.48237 17.9542 4.81368 18.4039 5.25632 18.7226C5.69896 19.0412 6.23054 19.2128 6.77596 19.2129H21.246C21.7915 19.2128 22.323 19.0412 22.7657 18.7226C23.2083 18.4039 23.5396 17.9542 23.7128 17.437L26.9654 7.72998C27.0325 7.52463 27.0401 7.30449 26.9874 7.09499C26.9347 6.88549 26.8237 6.69517 26.6674 6.54604C26.4472 6.3356 26.157 6.2139 25.8526 6.2043C25.5481 6.1947 25.2508 6.29786 25.0177 6.494L21.6962 9.31724C21.7751 9.56791 21.8155 9.83072 21.8172 10.1057C21.8171 10.5466 21.7051 10.9802 21.4915 11.3659C21.2779 11.7516 20.9698 12.0767 20.5962 12.3107C20.2225 12.5447 19.7955 12.6799 19.3553 12.7037C18.915 12.7274 18.476 12.6389 18.0793 12.4465C17.6826 12.254 17.3414 11.9639 17.0875 11.6034C16.8337 11.2429 16.6757 10.8239 16.6282 10.3855C16.5807 9.94721 16.6454 9.50402 16.8162 9.09754C16.9869 8.69107 17.2582 8.33465 17.6045 8.06175L14.9113 1.59952C14.8371 1.42194 14.712 1.27027 14.5518 1.16359C14.3916 1.05692 14.2035 1 14.011 1C13.8185 1 13.6304 1.05692 13.4702 1.16359C13.31 1.27027 13.1849 1.42194 13.1107 1.59952L10.4175 8.06175C10.8424 8.39647 11.1524 8.85527 11.3044 9.37434C11.4564 9.89341 11.4429 10.447 11.2657 10.958C11.0886 11.469 10.7566 11.9121 10.3159 12.2257C9.8752 12.5393 9.34774 12.7078 8.80687 12.7077Z" stroke="#B4B4B4" stroke-width="2" stroke-linecap="round" stroke-linejoin="round"/>
</svg>
