<svg width="25" height="25" viewBox="0 0 25 25" fill="none" xmlns="http://www.w3.org/2000/svg">
<path d="M5.20757 20.8333H19.7909M8.33257 12.5C8.00482 12.5001 7.68166 12.423 7.38934 12.2748C7.09702 12.1265 6.8438 11.9114 6.65025 11.6469C6.4567 11.3824 6.32828 11.076 6.27544 10.7526C6.22259 10.4291 6.24681 10.0977 6.34611 9.78539L3.68674 7.52497C3.50014 7.36793 3.26212 7.28533 3.01835 7.29302C2.77458 7.30071 2.54224 7.39815 2.36591 7.56664C2.24076 7.68604 2.15196 7.83841 2.10975 8.00615C2.06754 8.17389 2.07364 8.35014 2.12736 8.51455L4.73153 16.2864C4.87018 16.7005 5.13544 17.0606 5.48984 17.3157C5.84423 17.5709 6.26984 17.7082 6.70653 17.7083H18.2919C18.7286 17.7082 19.1542 17.5709 19.5086 17.3157C19.863 17.0606 20.1283 16.7005 20.2669 16.2864L22.8711 8.51455C22.9248 8.35014 22.9309 8.17389 22.8887 8.00615C22.8465 7.83841 22.7577 7.68604 22.6326 7.56664C22.4562 7.39815 22.2239 7.30071 21.9801 7.29302C21.7364 7.28533 21.4983 7.36793 21.3117 7.52497L18.6524 9.78539C18.7156 9.98608 18.7479 10.1965 18.7492 10.4166C18.7492 10.7696 18.6595 11.1168 18.4885 11.4256C18.3175 11.7344 18.0708 11.9947 17.7716 12.1821C17.4725 12.3694 17.1306 12.4777 16.7781 12.4967C16.4256 12.5157 16.0741 12.4449 15.7565 12.2908C15.4389 12.1367 15.1657 11.9044 14.9625 11.6158C14.7592 11.3272 14.6327 10.9917 14.5947 10.6407C14.5567 10.2898 14.6085 9.93493 14.7452 9.60949C14.8819 9.28405 15.0991 8.99868 15.3763 8.78018L13.2201 3.60622C13.1607 3.46404 13.0605 3.34261 12.9323 3.2572C12.804 3.17179 12.6533 3.12622 12.4992 3.12622C12.3451 3.12622 12.1945 3.17179 12.0662 3.2572C11.938 3.34261 11.8378 3.46404 11.7784 3.60622L9.62216 8.78018C9.96231 9.04818 10.2105 9.41551 10.3322 9.83111C10.4539 10.2467 10.4431 10.6899 10.3013 11.099C10.1594 11.5082 9.89359 11.863 9.54076 12.1141C9.18792 12.3651 8.76562 12.5 8.33257 12.5Z" stroke="#333333" stroke-width="1.5" stroke-linecap="round" stroke-linejoin="round"/>
</svg>
