<svg width="1440" height="160" viewBox="0 0 1440 160" fill="none" xmlns="http://www.w3.org/2000/svg">
<path fill-rule="evenodd" clip-rule="evenodd" d="M1443 16.2187L1382.62 10.2278C1322.25 4.23692 1201.5 -7.74486 1080.75 7.23236C959.999 22.2096 839.249 64.1458 718.499 70.1367C597.749 76.1276 476.999 46.1731 356.249 43.1777C235.499 40.1822 114.749 64.1458 54.3744 76.1276L-6.00061 88.1093V160H54.3744C114.749 160 235.499 160 356.249 160C476.999 160 597.749 160 718.499 160C839.249 160 959.999 160 1080.75 160C1201.5 160 1322.25 160 1382.62 160H1443V16.2187Z" fill="#FFEBF3"/>
</svg>
