<svg width="1440" height="160" viewBox="0 0 1440 160" fill="none" xmlns="http://www.w3.org/2000/svg">
<path fill-rule="evenodd" clip-rule="evenodd" d="M-3.00007 143.781L57.3749 149.772C117.75 155.763 238.5 167.745 359.25 152.768C480 137.79 600.75 95.8542 721.5 89.8633C842.25 83.8724 963 113.827 1083.75 116.822C1204.5 119.818 1325.25 95.8542 1385.62 83.8724L1446 71.8907V0H1385.62C1325.25 0 1204.5 0 1083.75 0C963 0 842.25 0 721.5 0C600.75 0 480 0 359.25 0C238.5 0 117.75 0 57.3749 0H-3.00007V143.781Z" fill="#FFEBF3"/>
</svg>
