<svg width="37" height="37" viewBox="0 0 37 37" fill="none" xmlns="http://www.w3.org/2000/svg">
<path d="M34.1046 26.3473L28.9844 14.3892C27.2503 10.3322 24.0604 10.1686 21.9174 14.0293L18.8256 19.6076C17.2552 22.4376 14.3271 22.683 12.2986 20.1474L11.9387 19.6894C9.82844 17.0393 6.85117 17.3665 5.32982 20.3928L2.51614 26.0365C0.536743 29.9626 3.3995 34.5921 7.78362 34.5921H28.6572C32.9104 34.5921 35.7732 30.2571 34.1046 26.3473Z" stroke="#E9E9E9" stroke-width="3.75" stroke-linecap="round" stroke-linejoin="round"/>
<path d="M10.0412 11.6902C12.7516 11.6902 14.9488 9.49297 14.9488 6.78259C14.9488 4.07221 12.7516 1.875 10.0412 1.875C7.33079 1.875 5.13358 4.07221 5.13358 6.78259C5.13358 9.49297 7.33079 11.6902 10.0412 11.6902Z" stroke="#E9E9E9" stroke-width="3.75" stroke-linecap="round" stroke-linejoin="round"/>
</svg>
