<svg width="29" height="26" viewBox="0 0 29 26" fill="none" xmlns="http://www.w3.org/2000/svg">
<path d="M12.487 13H5.94645M5.84578 13.3158L3.06912 20.8717C2.85099 21.4653 2.74192 21.7621 2.82019 21.9449C2.88816 22.1036 3.03415 22.224 3.21429 22.2698C3.42173 22.3225 3.73504 22.1941 4.36166 21.9372L24.2347 13.7904C24.8464 13.5396 25.1522 13.4143 25.2467 13.2401C25.3288 13.0888 25.3288 12.9113 25.2467 12.7599C25.1522 12.5858 24.8464 12.4604 24.2347 12.2097L4.35473 4.06005C3.73 3.80395 3.41763 3.67589 3.2104 3.72842C3.03043 3.77404 2.88446 3.89406 2.81625 4.05249C2.73771 4.23492 2.84561 4.53108 3.06142 5.12339L5.84655 12.7677C5.88362 12.8694 5.90215 12.9203 5.90947 12.9723C5.91596 13.0185 5.91589 13.0652 5.90927 13.1113C5.90181 13.1633 5.88313 13.2142 5.84578 13.3158Z" stroke="#888888" stroke-width="2" stroke-linecap="round" stroke-linejoin="round"/>
</svg>
