<svg width="1440" height="617" viewBox="0 0 1440 617" fill="none" xmlns="http://www.w3.org/2000/svg">
<path fill-rule="evenodd" clip-rule="evenodd" d="M0 587.666L60 598.375C120 609.084 240 630.501 360 603.729C480 576.958 600 501.997 720 491.288C840 480.579 960 534.123 1080 539.477C1200 544.831 1320 501.997 1380 480.579L1440 459.162V330.657H1380C1320 330.657 1200 330.657 1080 330.657C960 330.657 840 330.657 720 330.657C600 330.657 480 330.657 360 330.657C240 330.657 120 330.657 60 330.657H0V587.666Z" fill="#FFE0E7"/>
<rect width="1439" height="361.359" transform="matrix(-1 0 0 1 1440 0)" fill="#FFE0E7"/>
</svg>
