<svg width="24" height="24" viewBox="0 0 24 24" fill="none" xmlns="http://www.w3.org/2000/svg">
<path d="M7.5 14C7.5 14 9.125 16.1667 11.8333 16.1667C14.5417 16.1667 16.1667 14 16.1667 14M15.0833 8.58333H15.0942M8.58333 8.58333H8.59417M22.6667 11.8333C22.6667 17.8164 17.8164 22.6667 11.8333 22.6667C5.85025 22.6667 1 17.8164 1 11.8333C1 5.85025 5.85025 1 11.8333 1C17.8164 1 22.6667 5.85025 22.6667 11.8333ZM15.625 8.58333C15.625 8.88249 15.3825 9.125 15.0833 9.125C14.7842 9.125 14.5417 8.88249 14.5417 8.58333C14.5417 8.28418 14.7842 8.04167 15.0833 8.04167C15.3825 8.04167 15.625 8.28418 15.625 8.58333ZM9.125 8.58333C9.125 8.88249 8.88249 9.125 8.58333 9.125C8.28418 9.125 8.04167 8.88249 8.04167 8.58333C8.04167 8.28418 8.28418 8.04167 8.58333 8.04167C8.88249 8.04167 9.125 8.28418 9.125 8.58333Z" stroke="#FFC107" stroke-width="2" stroke-linecap="round" stroke-linejoin="round"/>
</svg>
