<svg width="30" height="30" viewBox="0 0 30 30" fill="none" xmlns="http://www.w3.org/2000/svg">
<path d="M14.8974 2.48315L13.2816 8.94637C12.9663 10.2076 12.8086 10.8382 12.4803 11.3513C12.1899 11.8052 11.8044 12.1906 11.3505 12.481C10.8374 12.8094 10.2068 12.967 8.94564 13.2823L2.48242 14.8981L8.94564 16.5139C10.2068 16.8292 10.8374 16.9869 11.3505 17.3152C11.8044 17.6056 12.1899 17.9911 12.4803 18.445C12.8086 18.9581 12.9663 19.5887 13.2816 20.8499L14.8974 27.3131L16.5132 20.8499C16.8285 19.5887 16.9861 18.9581 17.3145 18.445C17.6049 17.9911 17.9904 17.6056 18.4442 17.3152C18.9574 16.9869 19.588 16.8292 20.8491 16.5139L27.3124 14.8981L20.8491 13.2823C19.588 12.967 18.9574 12.8094 18.4442 12.481C17.9904 12.1906 17.6049 11.8052 17.3145 11.3513C16.9861 10.8382 16.8285 10.2076 16.5132 8.94638L14.8974 2.48315Z" stroke="white" stroke-width="1.4898" stroke-linecap="round" stroke-linejoin="round"/>
</svg>
