<svg width="17" height="16" viewBox="0 0 17 16" fill="none" xmlns="http://www.w3.org/2000/svg">
<path d="M15.2154 10.2283C15.4591 9.46815 16.7241 8.84143 16.7241 8C16.7241 7.15857 15.4591 6.53185 15.2154 5.77166C14.96 4.98826 15.6042 3.73482 15.1283 3.07909C14.6467 2.41755 13.254 2.64967 12.5924 2.16802C11.9367 1.69218 11.7278 0.293666 10.9444 0.0383361C10.19 -0.205388 9.19769 0.792721 8.36207 0.792721C7.52064 0.792721 6.53413 -0.205388 5.77395 0.0383361C4.99055 0.299469 4.78164 1.69218 4.13171 2.16802C3.47017 2.64967 2.07746 2.41755 1.59581 3.07909C1.11997 3.73482 1.7641 4.98246 1.50877 5.77166C1.26505 6.53185 0 7.15857 0 8C0 8.84143 1.26505 9.46815 1.50877 10.2283C1.7641 11.0117 1.11997 12.2652 1.59581 12.9209C2.07746 13.5824 3.47017 13.3503 4.13171 13.832C4.78744 14.3078 4.99635 15.7063 5.77975 15.9617C6.53413 16.2054 7.52644 15.2073 8.36207 15.2073C9.2035 15.2073 10.19 16.2054 10.9444 15.9617C11.7278 15.7063 11.9425 14.3078 12.5924 13.832C13.254 13.3503 14.6467 13.5824 15.1283 12.9209C15.61 12.2652 14.96 11.0117 15.2154 10.2283ZM12.4532 6.13145L7.4452 11.1394C7.31753 11.2671 7.14925 11.3309 6.98096 11.3309C6.81268 11.3309 6.64439 11.2671 6.51673 11.1394L4.27098 8.89366C4.01565 8.63833 4.01565 8.22051 4.27098 7.96518C4.52631 7.70985 4.94412 7.70985 5.19945 7.96518L6.98096 9.74669L11.5305 5.20297C11.7858 4.94764 12.2036 4.94764 12.459 5.20297C12.7085 5.4583 12.7085 5.87612 12.4532 6.13145Z" fill="#0092FF"/>
</svg>
